%TF.GenerationSoftware,KiCad,Pcbnew,9.0.6*%
%TF.CreationDate,2026-03-13T14:17:25+11:00*%
%TF.ProjectId,Cooee_brains,436f6f65-655f-4627-9261-696e732e6b69,rev?*%
%TF.SameCoordinates,Original*%
%TF.FileFunction,Paste,Bot*%
%TF.FilePolarity,Positive*%
%FSLAX46Y46*%
G04 Gerber Fmt 4.6, Leading zero omitted, Abs format (unit mm)*
G04 Created by KiCad (PCBNEW 9.0.6) date 2026-03-13 14:17:25*
%MOMM*%
%LPD*%
G01*
G04 APERTURE LIST*
G04 Aperture macros list*
%AMRoundRect*
0 Rectangle with rounded corners*
0 $1 Rounding radius*
0 $2 $3 $4 $5 $6 $7 $8 $9 X,Y pos of 4 corners*
0 Add a 4 corners polygon primitive as box body*
4,1,4,$2,$3,$4,$5,$6,$7,$8,$9,$2,$3,0*
0 Add four circle primitives for the rounded corners*
1,1,$1+$1,$2,$3*
1,1,$1+$1,$4,$5*
1,1,$1+$1,$6,$7*
1,1,$1+$1,$8,$9*
0 Add four rect primitives between the rounded corners*
20,1,$1+$1,$2,$3,$4,$5,0*
20,1,$1+$1,$4,$5,$6,$7,0*
20,1,$1+$1,$6,$7,$8,$9,0*
20,1,$1+$1,$8,$9,$2,$3,0*%
G04 Aperture macros list end*
%ADD10C,0.001000*%
%ADD11C,0.010000*%
%ADD12O,1.000000X2.100000*%
%ADD13O,1.000000X1.800000*%
%ADD14RoundRect,0.150000X0.150000X0.425000X-0.150000X0.425000X-0.150000X-0.425000X0.150000X-0.425000X0*%
%ADD15RoundRect,0.075000X0.075000X0.500000X-0.075000X0.500000X-0.075000X-0.500000X0.075000X-0.500000X0*%
%ADD16RoundRect,0.250000X-0.097227X0.574524X-0.574524X0.097227X0.097227X-0.574524X0.574524X-0.097227X0*%
%ADD17RoundRect,0.250000X-0.250000X-0.475000X0.250000X-0.475000X0.250000X0.475000X-0.250000X0.475000X0*%
%ADD18RoundRect,0.135000X0.315000X-0.665000X0.315000X0.665000X-0.315000X0.665000X-0.315000X-0.665000X0*%
%ADD19RoundRect,0.250000X0.250000X0.475000X-0.250000X0.475000X-0.250000X-0.475000X0.250000X-0.475000X0*%
%ADD20RoundRect,0.250000X0.337500X0.475000X-0.337500X0.475000X-0.337500X-0.475000X0.337500X-0.475000X0*%
%ADD21RoundRect,0.160000X0.000000X-0.226274X0.226274X0.000000X0.000000X0.226274X-0.226274X0.000000X0*%
%ADD22RoundRect,0.062500X-0.220971X-0.309359X0.309359X0.220971X0.220971X0.309359X-0.309359X-0.220971X0*%
%ADD23RoundRect,0.062500X0.220971X-0.309359X0.309359X-0.220971X-0.220971X0.309359X-0.309359X0.220971X0*%
%ADD24RoundRect,0.250000X0.350000X0.450000X-0.350000X0.450000X-0.350000X-0.450000X0.350000X-0.450000X0*%
%ADD25RoundRect,0.250000X0.262500X0.450000X-0.262500X0.450000X-0.262500X-0.450000X0.262500X-0.450000X0*%
%ADD26RoundRect,0.250000X-0.262500X-0.450000X0.262500X-0.450000X0.262500X0.450000X-0.262500X0.450000X0*%
%ADD27RoundRect,0.250000X-0.475000X0.250000X-0.475000X-0.250000X0.475000X-0.250000X0.475000X0.250000X0*%
%ADD28RoundRect,0.250000X-0.337500X-0.475000X0.337500X-0.475000X0.337500X0.475000X-0.337500X0.475000X0*%
%ADD29RoundRect,0.250000X0.475000X-0.250000X0.475000X0.250000X-0.475000X0.250000X-0.475000X-0.250000X0*%
%ADD30RoundRect,0.250000X-0.475000X0.337500X-0.475000X-0.337500X0.475000X-0.337500X0.475000X0.337500X0*%
%ADD31RoundRect,0.375000X0.625000X0.375000X-0.625000X0.375000X-0.625000X-0.375000X0.625000X-0.375000X0*%
%ADD32RoundRect,0.500000X0.500000X1.400000X-0.500000X1.400000X-0.500000X-1.400000X0.500000X-1.400000X0*%
%ADD33RoundRect,0.250000X0.548008X0.088388X0.088388X0.548008X-0.548008X-0.088388X-0.088388X-0.548008X0*%
%ADD34R,1.500000X2.000000*%
%ADD35R,0.900000X0.900000*%
%ADD36R,0.900000X1.500000*%
%ADD37R,1.500000X0.900000*%
%ADD38R,0.254000X0.900000*%
%ADD39R,0.900000X0.254000*%
%ADD40RoundRect,0.200000X0.200000X-0.750000X0.200000X0.750000X-0.200000X0.750000X-0.200000X-0.750000X0*%
%ADD41R,0.900000X1.700000*%
%ADD42RoundRect,0.100000X-0.400000X0.400000X-0.400000X-0.400000X0.400000X-0.400000X0.400000X0.400000X0*%
%ADD43RoundRect,0.105000X-0.995000X0.420000X-0.995000X-0.420000X0.995000X-0.420000X0.995000X0.420000X0*%
%ADD44R,1.700000X0.900000*%
%ADD45RoundRect,0.250000X-0.450000X0.325000X-0.450000X-0.325000X0.450000X-0.325000X0.450000X0.325000X0*%
%ADD46RoundRect,0.075000X-0.910000X-0.225000X0.910000X-0.225000X0.910000X0.225000X-0.910000X0.225000X0*%
%ADD47R,1.100000X0.700000*%
%ADD48R,0.930000X0.900000*%
%ADD49R,0.780000X1.050000*%
%ADD50R,1.830000X1.140000*%
%ADD51R,2.800000X0.860000*%
%ADD52R,3.330000X0.700000*%
%ADD53RoundRect,0.250000X0.475000X-0.337500X0.475000X0.337500X-0.475000X0.337500X-0.475000X-0.337500X0*%
%ADD54RoundRect,0.250000X0.097227X-0.574524X0.574524X-0.097227X-0.097227X0.574524X-0.574524X0.097227X0*%
%ADD55RoundRect,0.100000X-0.400000X-0.400000X0.400000X-0.400000X0.400000X0.400000X-0.400000X0.400000X0*%
%ADD56RoundRect,0.105000X-0.420000X-0.995000X0.420000X-0.995000X0.420000X0.995000X-0.420000X0.995000X0*%
G04 APERTURE END LIST*
D10*
%TO.C,MK2*%
X154113688Y-103741576D02*
X153760135Y-104095130D01*
X153461736Y-103796731D01*
X153815289Y-103443177D01*
X154113688Y-103741576D01*
G36*
X154113688Y-103741576D02*
G01*
X153760135Y-104095130D01*
X153461736Y-103796731D01*
X153815289Y-103443177D01*
X154113688Y-103741576D01*
G37*
X153532447Y-103160334D02*
X153178893Y-103513888D01*
X152880494Y-103215489D01*
X153234048Y-102861935D01*
X153532447Y-103160334D01*
G36*
X153532447Y-103160334D02*
G01*
X153178893Y-103513888D01*
X152880494Y-103215489D01*
X153234048Y-102861935D01*
X153532447Y-103160334D01*
G37*
X154750085Y-103105180D02*
X154396531Y-103458734D01*
X154098132Y-103160334D01*
X154451685Y-102806781D01*
X154750085Y-103105180D01*
G36*
X154750085Y-103105180D02*
G01*
X154396531Y-103458734D01*
X154098132Y-103160334D01*
X154451685Y-102806781D01*
X154750085Y-103105180D01*
G37*
X155386481Y-102468784D02*
X155032927Y-102822337D01*
X154734528Y-102523938D01*
X155088082Y-102170385D01*
X155386481Y-102468784D01*
G36*
X155386481Y-102468784D02*
G01*
X155032927Y-102822337D01*
X154734528Y-102523938D01*
X155088082Y-102170385D01*
X155386481Y-102468784D01*
G37*
X154805239Y-101887542D02*
X154451685Y-102241096D01*
X154153286Y-101942697D01*
X154506840Y-101589143D01*
X154805239Y-101887542D01*
G36*
X154805239Y-101887542D02*
G01*
X154451685Y-102241096D01*
X154153286Y-101942697D01*
X154506840Y-101589143D01*
X154805239Y-101887542D01*
G37*
X152561589Y-101340949D02*
X152548154Y-101357212D01*
X152534012Y-101377011D01*
X152521284Y-101396810D01*
X152509263Y-101417316D01*
X152498657Y-101437822D01*
X152488050Y-101459743D01*
X152478858Y-101481663D01*
X152471079Y-101503583D01*
X152464008Y-101526211D01*
X152458351Y-101548838D01*
X152453402Y-101572173D01*
X152448452Y-101595507D01*
X152446331Y-101618842D01*
X152444916Y-101642883D01*
X152444209Y-101666218D01*
X152444916Y-101689552D01*
X152446331Y-101713594D01*
X152448452Y-101736929D01*
X152453402Y-101760263D01*
X152458351Y-101783598D01*
X152464008Y-101806225D01*
X152471079Y-101828852D01*
X152478858Y-101850773D01*
X152488050Y-101872693D01*
X152498657Y-101894613D01*
X152509263Y-101915119D01*
X152521284Y-101935626D01*
X152534012Y-101955425D01*
X152548154Y-101975224D01*
X152561589Y-101991487D01*
X152349457Y-102203619D01*
X152324001Y-102173921D01*
X152300667Y-102143515D01*
X152278039Y-102110988D01*
X152256826Y-102078461D01*
X152237734Y-102043813D01*
X152219349Y-102008458D01*
X152204500Y-101972395D01*
X152190358Y-101935626D01*
X152177630Y-101898856D01*
X152167731Y-101860672D01*
X152159245Y-101822488D01*
X152151467Y-101783598D01*
X152147224Y-101744000D01*
X152144396Y-101705816D01*
X152142982Y-101666218D01*
X152144396Y-101626620D01*
X152147224Y-101588436D01*
X152151467Y-101548838D01*
X152159245Y-101509947D01*
X152167731Y-101471764D01*
X152177630Y-101433580D01*
X152190358Y-101396810D01*
X152204500Y-101360041D01*
X152219349Y-101323978D01*
X152237734Y-101288623D01*
X152256826Y-101253975D01*
X152278039Y-101221448D01*
X152300667Y-101188921D01*
X152324001Y-101158515D01*
X152349457Y-101128817D01*
X152561589Y-101340949D01*
G36*
X152561589Y-101340949D02*
G01*
X152548154Y-101357212D01*
X152534012Y-101377011D01*
X152521284Y-101396810D01*
X152509263Y-101417316D01*
X152498657Y-101437822D01*
X152488050Y-101459743D01*
X152478858Y-101481663D01*
X152471079Y-101503583D01*
X152464008Y-101526211D01*
X152458351Y-101548838D01*
X152453402Y-101572173D01*
X152448452Y-101595507D01*
X152446331Y-101618842D01*
X152444916Y-101642883D01*
X152444209Y-101666218D01*
X152444916Y-101689552D01*
X152446331Y-101713594D01*
X152448452Y-101736929D01*
X152453402Y-101760263D01*
X152458351Y-101783598D01*
X152464008Y-101806225D01*
X152471079Y-101828852D01*
X152478858Y-101850773D01*
X152488050Y-101872693D01*
X152498657Y-101894613D01*
X152509263Y-101915119D01*
X152521284Y-101935626D01*
X152534012Y-101955425D01*
X152548154Y-101975224D01*
X152561589Y-101991487D01*
X152349457Y-102203619D01*
X152324001Y-102173921D01*
X152300667Y-102143515D01*
X152278039Y-102110988D01*
X152256826Y-102078461D01*
X152237734Y-102043813D01*
X152219349Y-102008458D01*
X152204500Y-101972395D01*
X152190358Y-101935626D01*
X152177630Y-101898856D01*
X152167731Y-101860672D01*
X152159245Y-101822488D01*
X152151467Y-101783598D01*
X152147224Y-101744000D01*
X152144396Y-101705816D01*
X152142982Y-101666218D01*
X152144396Y-101626620D01*
X152147224Y-101588436D01*
X152151467Y-101548838D01*
X152159245Y-101509947D01*
X152167731Y-101471764D01*
X152177630Y-101433580D01*
X152190358Y-101396810D01*
X152204500Y-101360041D01*
X152219349Y-101323978D01*
X152237734Y-101288623D01*
X152256826Y-101253975D01*
X152278039Y-101221448D01*
X152300667Y-101188921D01*
X152324001Y-101158515D01*
X152349457Y-101128817D01*
X152561589Y-101340949D01*
G37*
X153494970Y-102274330D02*
X153465272Y-102299786D01*
X153434866Y-102323120D01*
X153402339Y-102345747D01*
X153369812Y-102366961D01*
X153335164Y-102386053D01*
X153299809Y-102404437D01*
X153263746Y-102419287D01*
X153226977Y-102433429D01*
X153190207Y-102446157D01*
X153152023Y-102456056D01*
X153113839Y-102464541D01*
X153074949Y-102472320D01*
X153035351Y-102476562D01*
X152997167Y-102479391D01*
X152957569Y-102480805D01*
X152917971Y-102479391D01*
X152879787Y-102476562D01*
X152840189Y-102472320D01*
X152801298Y-102464541D01*
X152763115Y-102456056D01*
X152724931Y-102446157D01*
X152688161Y-102433429D01*
X152651392Y-102419287D01*
X152615329Y-102404437D01*
X152579974Y-102386053D01*
X152545326Y-102366961D01*
X152512799Y-102345747D01*
X152480272Y-102323120D01*
X152449866Y-102299786D01*
X152420168Y-102274330D01*
X152632300Y-102062198D01*
X152648563Y-102075633D01*
X152668362Y-102089775D01*
X152688161Y-102102503D01*
X152708667Y-102114524D01*
X152729173Y-102125130D01*
X152751094Y-102135737D01*
X152773014Y-102144929D01*
X152794934Y-102152707D01*
X152817562Y-102159778D01*
X152840189Y-102165435D01*
X152863524Y-102170385D01*
X152886858Y-102175335D01*
X152910193Y-102177456D01*
X152934234Y-102178870D01*
X152957569Y-102179577D01*
X152980903Y-102178870D01*
X153004945Y-102177456D01*
X153028280Y-102175335D01*
X153051614Y-102170385D01*
X153074949Y-102165435D01*
X153097576Y-102159778D01*
X153120203Y-102152707D01*
X153142124Y-102144929D01*
X153164044Y-102135737D01*
X153185964Y-102125130D01*
X153206470Y-102114524D01*
X153226977Y-102102503D01*
X153246776Y-102089775D01*
X153266575Y-102075633D01*
X153282838Y-102062198D01*
X153494970Y-102274330D01*
G36*
X153494970Y-102274330D02*
G01*
X153465272Y-102299786D01*
X153434866Y-102323120D01*
X153402339Y-102345747D01*
X153369812Y-102366961D01*
X153335164Y-102386053D01*
X153299809Y-102404437D01*
X153263746Y-102419287D01*
X153226977Y-102433429D01*
X153190207Y-102446157D01*
X153152023Y-102456056D01*
X153113839Y-102464541D01*
X153074949Y-102472320D01*
X153035351Y-102476562D01*
X152997167Y-102479391D01*
X152957569Y-102480805D01*
X152917971Y-102479391D01*
X152879787Y-102476562D01*
X152840189Y-102472320D01*
X152801298Y-102464541D01*
X152763115Y-102456056D01*
X152724931Y-102446157D01*
X152688161Y-102433429D01*
X152651392Y-102419287D01*
X152615329Y-102404437D01*
X152579974Y-102386053D01*
X152545326Y-102366961D01*
X152512799Y-102345747D01*
X152480272Y-102323120D01*
X152449866Y-102299786D01*
X152420168Y-102274330D01*
X152632300Y-102062198D01*
X152648563Y-102075633D01*
X152668362Y-102089775D01*
X152688161Y-102102503D01*
X152708667Y-102114524D01*
X152729173Y-102125130D01*
X152751094Y-102135737D01*
X152773014Y-102144929D01*
X152794934Y-102152707D01*
X152817562Y-102159778D01*
X152840189Y-102165435D01*
X152863524Y-102170385D01*
X152886858Y-102175335D01*
X152910193Y-102177456D01*
X152934234Y-102178870D01*
X152957569Y-102179577D01*
X152980903Y-102178870D01*
X153004945Y-102177456D01*
X153028280Y-102175335D01*
X153051614Y-102170385D01*
X153074949Y-102165435D01*
X153097576Y-102159778D01*
X153120203Y-102152707D01*
X153142124Y-102144929D01*
X153164044Y-102135737D01*
X153185964Y-102125130D01*
X153206470Y-102114524D01*
X153226977Y-102102503D01*
X153246776Y-102089775D01*
X153266575Y-102075633D01*
X153282838Y-102062198D01*
X153494970Y-102274330D01*
G37*
X152997167Y-100853045D02*
X153035351Y-100855873D01*
X153074949Y-100860116D01*
X153113839Y-100867894D01*
X153152023Y-100876380D01*
X153190207Y-100886279D01*
X153226977Y-100899007D01*
X153263746Y-100913149D01*
X153299809Y-100927998D01*
X153335164Y-100946383D01*
X153369812Y-100965475D01*
X153402339Y-100986688D01*
X153434866Y-101009316D01*
X153465272Y-101032650D01*
X153494970Y-101058106D01*
X153282838Y-101270238D01*
X153266575Y-101256803D01*
X153246776Y-101242661D01*
X153226977Y-101229933D01*
X153206470Y-101217912D01*
X153185964Y-101207306D01*
X153164044Y-101196699D01*
X153142124Y-101187507D01*
X153120203Y-101179728D01*
X153097576Y-101172657D01*
X153074949Y-101167000D01*
X153051614Y-101162051D01*
X153028280Y-101157101D01*
X153004945Y-101154980D01*
X152980903Y-101153565D01*
X152957569Y-101152858D01*
X152934234Y-101153565D01*
X152910193Y-101154980D01*
X152886858Y-101157101D01*
X152863524Y-101162051D01*
X152840189Y-101167000D01*
X152817562Y-101172657D01*
X152794934Y-101179728D01*
X152773014Y-101187507D01*
X152751094Y-101196699D01*
X152729173Y-101207306D01*
X152708667Y-101217912D01*
X152688161Y-101229933D01*
X152668362Y-101242661D01*
X152648563Y-101256803D01*
X152632300Y-101270238D01*
X152420168Y-101058106D01*
X152449866Y-101032650D01*
X152480272Y-101009316D01*
X152512799Y-100986688D01*
X152545326Y-100965475D01*
X152579974Y-100946383D01*
X152615329Y-100927998D01*
X152651392Y-100913149D01*
X152688161Y-100899007D01*
X152724931Y-100886279D01*
X152763115Y-100876380D01*
X152801298Y-100867894D01*
X152840189Y-100860116D01*
X152879787Y-100855873D01*
X152917971Y-100853045D01*
X152957569Y-100851631D01*
X152997167Y-100853045D01*
G36*
X152997167Y-100853045D02*
G01*
X153035351Y-100855873D01*
X153074949Y-100860116D01*
X153113839Y-100867894D01*
X153152023Y-100876380D01*
X153190207Y-100886279D01*
X153226977Y-100899007D01*
X153263746Y-100913149D01*
X153299809Y-100927998D01*
X153335164Y-100946383D01*
X153369812Y-100965475D01*
X153402339Y-100986688D01*
X153434866Y-101009316D01*
X153465272Y-101032650D01*
X153494970Y-101058106D01*
X153282838Y-101270238D01*
X153266575Y-101256803D01*
X153246776Y-101242661D01*
X153226977Y-101229933D01*
X153206470Y-101217912D01*
X153185964Y-101207306D01*
X153164044Y-101196699D01*
X153142124Y-101187507D01*
X153120203Y-101179728D01*
X153097576Y-101172657D01*
X153074949Y-101167000D01*
X153051614Y-101162051D01*
X153028280Y-101157101D01*
X153004945Y-101154980D01*
X152980903Y-101153565D01*
X152957569Y-101152858D01*
X152934234Y-101153565D01*
X152910193Y-101154980D01*
X152886858Y-101157101D01*
X152863524Y-101162051D01*
X152840189Y-101167000D01*
X152817562Y-101172657D01*
X152794934Y-101179728D01*
X152773014Y-101187507D01*
X152751094Y-101196699D01*
X152729173Y-101207306D01*
X152708667Y-101217912D01*
X152688161Y-101229933D01*
X152668362Y-101242661D01*
X152648563Y-101256803D01*
X152632300Y-101270238D01*
X152420168Y-101058106D01*
X152449866Y-101032650D01*
X152480272Y-101009316D01*
X152512799Y-100986688D01*
X152545326Y-100965475D01*
X152579974Y-100946383D01*
X152615329Y-100927998D01*
X152651392Y-100913149D01*
X152688161Y-100899007D01*
X152724931Y-100886279D01*
X152763115Y-100876380D01*
X152801298Y-100867894D01*
X152840189Y-100860116D01*
X152879787Y-100855873D01*
X152917971Y-100853045D01*
X152957569Y-100851631D01*
X152997167Y-100853045D01*
G37*
X153591137Y-101158515D02*
X153614471Y-101188921D01*
X153637098Y-101221448D01*
X153658312Y-101253975D01*
X153677404Y-101288623D01*
X153695788Y-101323978D01*
X153710638Y-101360041D01*
X153724780Y-101396810D01*
X153737508Y-101433580D01*
X153747407Y-101471764D01*
X153755892Y-101509947D01*
X153763671Y-101548838D01*
X153767913Y-101588436D01*
X153770742Y-101626620D01*
X153772156Y-101666218D01*
X153770742Y-101705816D01*
X153767913Y-101744000D01*
X153763671Y-101783598D01*
X153755892Y-101822488D01*
X153747407Y-101860672D01*
X153737508Y-101898856D01*
X153724780Y-101935626D01*
X153710638Y-101972395D01*
X153695788Y-102008458D01*
X153677404Y-102043813D01*
X153658312Y-102078461D01*
X153637098Y-102110988D01*
X153614471Y-102143515D01*
X153591137Y-102173921D01*
X153565681Y-102203619D01*
X153353549Y-101991487D01*
X153366984Y-101975224D01*
X153381126Y-101955425D01*
X153393854Y-101935626D01*
X153405875Y-101915119D01*
X153416481Y-101894613D01*
X153427088Y-101872693D01*
X153436280Y-101850773D01*
X153444058Y-101828852D01*
X153451129Y-101806225D01*
X153456786Y-101783598D01*
X153461736Y-101760263D01*
X153466686Y-101736929D01*
X153468807Y-101713594D01*
X153470221Y-101689552D01*
X153470928Y-101666218D01*
X153470221Y-101642883D01*
X153468807Y-101618842D01*
X153466686Y-101595507D01*
X153461736Y-101572173D01*
X153456786Y-101548838D01*
X153451129Y-101526211D01*
X153444058Y-101503583D01*
X153436280Y-101481663D01*
X153427088Y-101459743D01*
X153416481Y-101437822D01*
X153405875Y-101417316D01*
X153393854Y-101396810D01*
X153381126Y-101377011D01*
X153366984Y-101357212D01*
X153353549Y-101340949D01*
X153565681Y-101128817D01*
X153591137Y-101158515D01*
G36*
X153591137Y-101158515D02*
G01*
X153614471Y-101188921D01*
X153637098Y-101221448D01*
X153658312Y-101253975D01*
X153677404Y-101288623D01*
X153695788Y-101323978D01*
X153710638Y-101360041D01*
X153724780Y-101396810D01*
X153737508Y-101433580D01*
X153747407Y-101471764D01*
X153755892Y-101509947D01*
X153763671Y-101548838D01*
X153767913Y-101588436D01*
X153770742Y-101626620D01*
X153772156Y-101666218D01*
X153770742Y-101705816D01*
X153767913Y-101744000D01*
X153763671Y-101783598D01*
X153755892Y-101822488D01*
X153747407Y-101860672D01*
X153737508Y-101898856D01*
X153724780Y-101935626D01*
X153710638Y-101972395D01*
X153695788Y-102008458D01*
X153677404Y-102043813D01*
X153658312Y-102078461D01*
X153637098Y-102110988D01*
X153614471Y-102143515D01*
X153591137Y-102173921D01*
X153565681Y-102203619D01*
X153353549Y-101991487D01*
X153366984Y-101975224D01*
X153381126Y-101955425D01*
X153393854Y-101935626D01*
X153405875Y-101915119D01*
X153416481Y-101894613D01*
X153427088Y-101872693D01*
X153436280Y-101850773D01*
X153444058Y-101828852D01*
X153451129Y-101806225D01*
X153456786Y-101783598D01*
X153461736Y-101760263D01*
X153466686Y-101736929D01*
X153468807Y-101713594D01*
X153470221Y-101689552D01*
X153470928Y-101666218D01*
X153470221Y-101642883D01*
X153468807Y-101618842D01*
X153466686Y-101595507D01*
X153461736Y-101572173D01*
X153456786Y-101548838D01*
X153451129Y-101526211D01*
X153444058Y-101503583D01*
X153436280Y-101481663D01*
X153427088Y-101459743D01*
X153416481Y-101437822D01*
X153405875Y-101417316D01*
X153393854Y-101396810D01*
X153381126Y-101377011D01*
X153366984Y-101357212D01*
X153353549Y-101340949D01*
X153565681Y-101128817D01*
X153591137Y-101158515D01*
G37*
D11*
%TO.C,U6*%
X155730000Y-111204919D02*
X154479520Y-111204919D01*
X154479520Y-109954999D01*
X155730000Y-109954999D01*
X155730000Y-111204919D01*
G36*
X155730000Y-111204919D02*
G01*
X154479520Y-111204919D01*
X154479520Y-109954999D01*
X155730000Y-109954999D01*
X155730000Y-111204919D01*
G37*
X155730000Y-112957009D02*
X154477990Y-112957009D01*
X154477990Y-111704999D01*
X155730000Y-111704999D01*
X155730000Y-112957009D01*
G36*
X155730000Y-112957009D02*
G01*
X154477990Y-112957009D01*
X154477990Y-111704999D01*
X155730000Y-111704999D01*
X155730000Y-112957009D01*
G37*
X157480000Y-111204553D02*
X156230446Y-111204553D01*
X156230446Y-109954999D01*
X157480000Y-109954999D01*
X157480000Y-111204553D01*
G36*
X157480000Y-111204553D02*
G01*
X156230446Y-111204553D01*
X156230446Y-109954999D01*
X157480000Y-109954999D01*
X157480000Y-111204553D01*
G37*
X157480000Y-112955819D02*
X156230138Y-112955819D01*
X156230137Y-111704999D01*
X157480000Y-111704999D01*
X157480000Y-112955819D01*
G36*
X157480000Y-112955819D02*
G01*
X156230138Y-112955819D01*
X156230137Y-111704999D01*
X157480000Y-111704999D01*
X157480000Y-112955819D01*
G37*
%TO.C,U7*%
X173035000Y-81345000D02*
X171745000Y-81345000D01*
X171745000Y-79705000D01*
X173035000Y-79705000D01*
X173035000Y-81345000D01*
G36*
X173035000Y-81345000D02*
G01*
X171745000Y-81345000D01*
X171745000Y-79705000D01*
X173035000Y-79705000D01*
X173035000Y-81345000D01*
G37*
%TD*%
D12*
%TO.C,J1*%
X156580000Y-124720000D03*
D13*
X156580000Y-128900000D03*
D12*
X165220000Y-124720000D03*
D13*
X165220000Y-128900000D03*
D14*
X164100000Y-124145000D03*
X163300000Y-124145000D03*
D15*
X162650000Y-124145000D03*
X161650000Y-124145000D03*
X160150000Y-124145000D03*
X159150000Y-124145000D03*
D14*
X158500000Y-124145000D03*
X157700000Y-124145000D03*
X157700000Y-124145000D03*
X158500000Y-124145000D03*
D15*
X159650000Y-124145001D03*
X160650000Y-124145000D03*
X161150000Y-124145000D03*
X162150000Y-124145001D03*
D14*
X163300000Y-124145000D03*
X164100000Y-124145000D03*
%TD*%
D16*
%TO.C,R23*%
X151987246Y-104122754D03*
X150520000Y-105590000D03*
%TD*%
D17*
%TO.C,C12*%
X148775000Y-99225000D03*
X150674998Y-99225000D03*
%TD*%
D18*
%TO.C,U5*%
X192899200Y-88310000D03*
X184099200Y-78110001D03*
X186299200Y-78110000D03*
X191799200Y-88310000D03*
X190699200Y-88310000D03*
X189599200Y-88310000D03*
X188499200Y-88310000D03*
X187399200Y-88310000D03*
X186299200Y-88310000D03*
X187399200Y-78110000D03*
X189599200Y-78110000D03*
X192899200Y-78110000D03*
X185199200Y-88310000D03*
X184099200Y-88310000D03*
X185199200Y-78110000D03*
X188499200Y-78110000D03*
X190699200Y-78110000D03*
X191799200Y-78110001D03*
%TD*%
D19*
%TO.C,C6*%
X151819996Y-116354999D03*
X149919998Y-116354999D03*
%TD*%
D17*
%TO.C,C10*%
X171380001Y-75950000D03*
X173279999Y-75950000D03*
%TD*%
D20*
%TO.C,R19*%
X165872500Y-108800000D03*
X163797500Y-108800000D03*
%TD*%
D21*
%TO.C,U3*%
X147262897Y-124442418D03*
X147828582Y-125008103D03*
X147828582Y-123876733D03*
X148394267Y-124442418D03*
D22*
X147342446Y-125989214D03*
X146988893Y-125635661D03*
X146635339Y-125282107D03*
X146281786Y-124928554D03*
D23*
X146281786Y-123956282D03*
X146635339Y-123602729D03*
X146988893Y-123249175D03*
X147342446Y-122895622D03*
D22*
X148314718Y-122895622D03*
X148668271Y-123249175D03*
X149021825Y-123602729D03*
X149375378Y-123956282D03*
D23*
X149375378Y-124928554D03*
X149021825Y-125282107D03*
X148668271Y-125635661D03*
X148314718Y-125989214D03*
%TD*%
D17*
%TO.C,C8*%
X149950001Y-118454999D03*
X151849999Y-118454999D03*
%TD*%
D24*
%TO.C,TH1*%
X173280000Y-89660000D03*
X171280000Y-89660000D03*
%TD*%
D25*
%TO.C,R5*%
X155404999Y-122045000D03*
X153579999Y-122045000D03*
%TD*%
D26*
%TO.C,R4*%
X160480000Y-122045000D03*
X162305000Y-122045000D03*
%TD*%
D19*
%TO.C,C7*%
X151819995Y-114324999D03*
X149919997Y-114324999D03*
%TD*%
D27*
%TO.C,D4*%
X181715000Y-81440002D03*
X181715000Y-83340000D03*
%TD*%
D28*
%TO.C,R13*%
X141435000Y-125180000D03*
X143510000Y-125180000D03*
%TD*%
D29*
%TO.C,C1*%
X158509999Y-100609996D03*
X158509999Y-98709998D03*
%TD*%
D30*
%TO.C,R11*%
X149250000Y-107625000D03*
X149250000Y-109700000D03*
%TD*%
D31*
%TO.C,U1*%
X158510000Y-92009996D03*
X158509999Y-94309996D03*
D32*
X152210001Y-94309996D03*
D31*
X158510000Y-96609996D03*
%TD*%
D27*
%TO.C,C3*%
X161400000Y-103000002D03*
X161400000Y-104900000D03*
%TD*%
D33*
%TO.C,D2*%
X164599784Y-84724784D03*
X163150216Y-83275216D03*
%TD*%
D17*
%TO.C,C9*%
X153970001Y-118434999D03*
X155869999Y-118434999D03*
%TD*%
D34*
%TO.C,U8*%
X130460000Y-93730000D03*
X132460000Y-93730000D03*
X134460000Y-93730000D03*
X136460000Y-93730000D03*
X138460000Y-93730000D03*
X140460000Y-93730000D03*
X142460000Y-93730000D03*
X144460000Y-93730000D03*
X144460000Y-109730000D03*
X142460000Y-109730000D03*
X140460000Y-109730000D03*
X138460000Y-109730000D03*
X136460000Y-109730000D03*
X134460000Y-109730000D03*
X132460000Y-109730000D03*
X130460000Y-109730000D03*
%TD*%
D28*
%TO.C,R9*%
X161362500Y-106800000D03*
X163437500Y-106800000D03*
%TD*%
D35*
%TO.C,U2*%
X176620000Y-118320000D03*
X178020000Y-118320000D03*
X179420000Y-118320000D03*
X176620000Y-116920000D03*
X178020000Y-116920000D03*
X179420000Y-116920000D03*
X176620000Y-115520000D03*
X178020000Y-115520000D03*
X179420000Y-115520000D03*
D36*
X185740000Y-124170000D03*
X184470000Y-124170000D03*
X183200000Y-124170000D03*
X181930000Y-124170000D03*
X180660000Y-124170000D03*
X179390000Y-124170000D03*
X178120000Y-124170000D03*
X176850000Y-124170000D03*
X175580000Y-124170000D03*
X174310000Y-124170000D03*
X173040000Y-124170000D03*
X171770000Y-124170000D03*
X170500000Y-124170000D03*
X169230000Y-124170000D03*
D37*
X167980000Y-122405000D03*
X167980000Y-121135000D03*
X167980000Y-119865000D03*
X167980000Y-118595000D03*
X167980000Y-117325000D03*
X167980000Y-116055000D03*
X167980000Y-114785000D03*
X167980000Y-113515000D03*
X167980000Y-112245000D03*
X167980000Y-110975000D03*
X167980000Y-109705000D03*
X167980000Y-108435000D03*
D36*
X169230000Y-106670000D03*
X170500000Y-106670000D03*
X171770000Y-106670000D03*
X173040000Y-106670000D03*
X174310000Y-106670000D03*
X175580000Y-106670000D03*
X176850000Y-106670000D03*
X178120000Y-106670000D03*
X179390000Y-106670000D03*
X180660000Y-106670000D03*
X181930000Y-106670000D03*
X183200000Y-106670000D03*
X184470000Y-106670000D03*
X185740000Y-106670000D03*
%TD*%
D27*
%TO.C,C2*%
X162810000Y-93070002D03*
X162810000Y-94970000D03*
%TD*%
D17*
%TO.C,D74*%
X164600000Y-104800000D03*
X166499998Y-104800000D03*
%TD*%
D27*
%TO.C,D5*%
X179625000Y-81470002D03*
X179625000Y-83370000D03*
%TD*%
D17*
%TO.C,C5*%
X154020000Y-106634999D03*
X155919998Y-106634999D03*
%TD*%
D38*
%TO.C,U6*%
X157480000Y-114044999D03*
X156980000Y-114044999D03*
X156480000Y-114044999D03*
X155980000Y-114045000D03*
X155480000Y-114044999D03*
X154980000Y-114044999D03*
X154480000Y-114044999D03*
D39*
X153390000Y-112954999D03*
X153390000Y-112454999D03*
X153390000Y-111954999D03*
X153389999Y-111454999D03*
X153390000Y-110954999D03*
X153390000Y-110454999D03*
X153390000Y-109954999D03*
D38*
X154480000Y-108864999D03*
X154980000Y-108864999D03*
X155480000Y-108864999D03*
X155980000Y-108864998D03*
X156480000Y-108864999D03*
X156980000Y-108864999D03*
X157480000Y-108864999D03*
D39*
X158570000Y-109954999D03*
X158570000Y-110454999D03*
X158570000Y-110954999D03*
X158570001Y-111454999D03*
X158570000Y-111954999D03*
X158570000Y-112454999D03*
X158570000Y-112954999D03*
%TD*%
D28*
%TO.C,R10*%
X181355000Y-127560000D03*
X183430000Y-127560000D03*
%TD*%
D30*
%TO.C,R6*%
X160810000Y-92932500D03*
X160810000Y-95007500D03*
%TD*%
D40*
%TO.C,D72*%
X160605000Y-119345000D03*
X158705000Y-119345000D03*
X159655000Y-116345000D03*
%TD*%
D41*
%TO.C,SW2*%
X179710000Y-129280000D03*
X176309998Y-129280000D03*
%TD*%
D25*
%TO.C,R3*%
X158830000Y-122045000D03*
X157005000Y-122045000D03*
%TD*%
D42*
%TO.C,J6*%
X189550000Y-74552729D03*
D43*
X191050000Y-76027730D03*
D42*
X192550000Y-74552729D03*
D43*
X191050000Y-73077728D03*
%TD*%
D20*
%TO.C,R21*%
X143412500Y-121100000D03*
X141337500Y-121100000D03*
%TD*%
D28*
%TO.C,C4*%
X182035000Y-129670000D03*
X184110000Y-129670000D03*
%TD*%
D44*
%TO.C,SW1*%
X164600000Y-102100002D03*
X164600000Y-98700000D03*
%TD*%
D45*
%TO.C,D1*%
X160810000Y-98760000D03*
X160810000Y-100809998D03*
%TD*%
D46*
%TO.C,U7*%
X169915000Y-82430000D03*
X169915000Y-81160000D03*
X169915000Y-79890000D03*
X169915000Y-78620000D03*
X174865000Y-78620000D03*
X174865000Y-79890000D03*
X174865000Y-81160000D03*
X174865000Y-82430000D03*
%TD*%
D47*
%TO.C,J3*%
X180849999Y-94920000D03*
X180850000Y-96020000D03*
X180850000Y-97120000D03*
X180850000Y-98220000D03*
X180850000Y-99320000D03*
X180850000Y-100420000D03*
X180850000Y-101520000D03*
X180849999Y-102620000D03*
D48*
X193315000Y-93130000D03*
D49*
X193390000Y-97395001D03*
D50*
X180865000Y-91040001D03*
D51*
X181350000Y-103700000D03*
D52*
X192115000Y-90820000D03*
X192115000Y-103780000D03*
%TD*%
D19*
%TO.C,C11*%
X169084998Y-76680000D03*
X167185000Y-76680000D03*
%TD*%
D28*
%TO.C,R15*%
X171950000Y-84410000D03*
X174025000Y-84410000D03*
%TD*%
%TO.C,R7*%
X160670000Y-91070004D03*
X162745000Y-91070004D03*
%TD*%
D53*
%TO.C,R16*%
X166800000Y-84087500D03*
X166800000Y-82012500D03*
%TD*%
%TO.C,R18*%
X181705000Y-79745000D03*
X181705000Y-77670000D03*
%TD*%
D54*
%TO.C,R22*%
X163816377Y-79983623D03*
X165283623Y-78516377D03*
%TD*%
D25*
%TO.C,R2*%
X165850000Y-122000000D03*
X164025000Y-122000000D03*
%TD*%
D28*
%TO.C,R1*%
X168125000Y-104800000D03*
X170200000Y-104800000D03*
%TD*%
D30*
%TO.C,R8*%
X151350000Y-107625000D03*
X151350000Y-109700000D03*
%TD*%
D55*
%TO.C,J2*%
X131494999Y-90460000D03*
D56*
X132970000Y-88960000D03*
D55*
X131494999Y-87460000D03*
D56*
X130019998Y-88960000D03*
%TD*%
D28*
%TO.C,R14*%
X143337044Y-128820000D03*
X145412044Y-128820000D03*
%TD*%
D20*
%TO.C,R20*%
X165012500Y-119475000D03*
X162937500Y-119475000D03*
%TD*%
D53*
%TO.C,R17*%
X179605000Y-79735000D03*
X179605000Y-77660000D03*
%TD*%
M02*
