%TF.GenerationSoftware,KiCad,Pcbnew,9.0.6*%
%TF.CreationDate,2026-03-13T14:17:25+11:00*%
%TF.ProjectId,Cooee_brains,436f6f65-655f-4627-9261-696e732e6b69,rev?*%
%TF.SameCoordinates,Original*%
%TF.FileFunction,Legend,Top*%
%TF.FilePolarity,Positive*%
%FSLAX46Y46*%
G04 Gerber Fmt 4.6, Leading zero omitted, Abs format (unit mm)*
G04 Created by KiCad (PCBNEW 9.0.6) date 2026-03-13 14:17:25*
%MOMM*%
%LPD*%
G01*
G04 APERTURE LIST*
%ADD10C,0.000000*%
%ADD11C,0.100000*%
%ADD12C,0.200000*%
%ADD13C,0.150000*%
%ADD14C,0.120000*%
G04 APERTURE END LIST*
D10*
G36*
X141659478Y-96920748D02*
G01*
X141688917Y-96922490D01*
X141717183Y-96925352D01*
X141744330Y-96929303D01*
X141770408Y-96934309D01*
X141795471Y-96940336D01*
X141819572Y-96947352D01*
X141842763Y-96955323D01*
X141865097Y-96964218D01*
X141886625Y-96974002D01*
X141907400Y-96984643D01*
X141927475Y-96996107D01*
X141946903Y-97008363D01*
X141965735Y-97021375D01*
X141984025Y-97035113D01*
X142001824Y-97049542D01*
X141883820Y-97188131D01*
X141869741Y-97178508D01*
X141855582Y-97169306D01*
X141841305Y-97160551D01*
X141826876Y-97152271D01*
X141812258Y-97144494D01*
X141797417Y-97137248D01*
X141782316Y-97130560D01*
X141766920Y-97124459D01*
X141751193Y-97118971D01*
X141735102Y-97114125D01*
X141718608Y-97109948D01*
X141701676Y-97106469D01*
X141684272Y-97103714D01*
X141666360Y-97101712D01*
X141647903Y-97100491D01*
X141628867Y-97100077D01*
X141617687Y-97100219D01*
X141606971Y-97100641D01*
X141596713Y-97101338D01*
X141586905Y-97102302D01*
X141577540Y-97103528D01*
X141568612Y-97105012D01*
X141560112Y-97106747D01*
X141552033Y-97108724D01*
X141544369Y-97110943D01*
X141537111Y-97113393D01*
X141530254Y-97116070D01*
X141523790Y-97118969D01*
X141517711Y-97122084D01*
X141512010Y-97125408D01*
X141506680Y-97128936D01*
X141501715Y-97132661D01*
X141497106Y-97136578D01*
X141492846Y-97140682D01*
X141488930Y-97144965D01*
X141485348Y-97149423D01*
X141482094Y-97154051D01*
X141479160Y-97158839D01*
X141476541Y-97163784D01*
X141474227Y-97168881D01*
X141472213Y-97174123D01*
X141470490Y-97179503D01*
X141469053Y-97185015D01*
X141467893Y-97190657D01*
X141467003Y-97196420D01*
X141466376Y-97202298D01*
X141466006Y-97208286D01*
X141465884Y-97214377D01*
X141466243Y-97222098D01*
X141467357Y-97229770D01*
X141469278Y-97237343D01*
X141472057Y-97244768D01*
X141475747Y-97251996D01*
X141480400Y-97258977D01*
X141486069Y-97265663D01*
X141489300Y-97268880D01*
X141492805Y-97272004D01*
X141496590Y-97275029D01*
X141500661Y-97277950D01*
X141505026Y-97280760D01*
X141509690Y-97283452D01*
X141514661Y-97286022D01*
X141519943Y-97288462D01*
X141531472Y-97292928D01*
X141544331Y-97296804D01*
X141558570Y-97300039D01*
X141574243Y-97302584D01*
X141591402Y-97304389D01*
X141748829Y-97315554D01*
X141766939Y-97317096D01*
X141784363Y-97319248D01*
X141801109Y-97322002D01*
X141817184Y-97325339D01*
X141832595Y-97329248D01*
X141847350Y-97333714D01*
X141861456Y-97338724D01*
X141874920Y-97344264D01*
X141887749Y-97350320D01*
X141899950Y-97356879D01*
X141911532Y-97363926D01*
X141922500Y-97371448D01*
X141932863Y-97379431D01*
X141942628Y-97387861D01*
X141951801Y-97396725D01*
X141960390Y-97406009D01*
X141968403Y-97415698D01*
X141975846Y-97425780D01*
X141982726Y-97436241D01*
X141989052Y-97447066D01*
X141994830Y-97458242D01*
X142000068Y-97469755D01*
X142004773Y-97481592D01*
X142008951Y-97493739D01*
X142012611Y-97506181D01*
X142015759Y-97518905D01*
X142020549Y-97545145D01*
X142023381Y-97572348D01*
X142024313Y-97600405D01*
X142023812Y-97617571D01*
X142022323Y-97634272D01*
X142019869Y-97650498D01*
X142016474Y-97666249D01*
X142012158Y-97681517D01*
X142006945Y-97696298D01*
X142000859Y-97710586D01*
X141993920Y-97724377D01*
X141986153Y-97737666D01*
X141977579Y-97750446D01*
X141968221Y-97762714D01*
X141958103Y-97774463D01*
X141947245Y-97785690D01*
X141935673Y-97796388D01*
X141923407Y-97806552D01*
X141910470Y-97816178D01*
X141896885Y-97825261D01*
X141882676Y-97833794D01*
X141852471Y-97849195D01*
X141820038Y-97862338D01*
X141785556Y-97873184D01*
X141749209Y-97881691D01*
X141711173Y-97887818D01*
X141671635Y-97891524D01*
X141630772Y-97892769D01*
X141602093Y-97892109D01*
X141573690Y-97890128D01*
X141545578Y-97886824D01*
X141517770Y-97882193D01*
X141490281Y-97876234D01*
X141463123Y-97868943D01*
X141436311Y-97860318D01*
X141409859Y-97850356D01*
X141383779Y-97839054D01*
X141358087Y-97826411D01*
X141332796Y-97812422D01*
X141307920Y-97797087D01*
X141283472Y-97780402D01*
X141259466Y-97762363D01*
X141235916Y-97742969D01*
X141212836Y-97722218D01*
X141345869Y-97591091D01*
X141361423Y-97605748D01*
X141377197Y-97619477D01*
X141393233Y-97632274D01*
X141409579Y-97644138D01*
X141426276Y-97655066D01*
X141443369Y-97665056D01*
X141460900Y-97674106D01*
X141478915Y-97682213D01*
X141497457Y-97689375D01*
X141516570Y-97695589D01*
X141536298Y-97700853D01*
X141556684Y-97705167D01*
X141577774Y-97708526D01*
X141599610Y-97710927D01*
X141622235Y-97712370D01*
X141645695Y-97712851D01*
X141655791Y-97712731D01*
X141665703Y-97712369D01*
X141675422Y-97711768D01*
X141684940Y-97710925D01*
X141694247Y-97709843D01*
X141703334Y-97708521D01*
X141712192Y-97706960D01*
X141720813Y-97705159D01*
X141729188Y-97703121D01*
X141737306Y-97700844D01*
X141745160Y-97698328D01*
X141752741Y-97695575D01*
X141760039Y-97692585D01*
X141767046Y-97689358D01*
X141773753Y-97685894D01*
X141780149Y-97682193D01*
X141786229Y-97678256D01*
X141791981Y-97674084D01*
X141797396Y-97669676D01*
X141802467Y-97665033D01*
X141807183Y-97660154D01*
X141811536Y-97655044D01*
X141815517Y-97649696D01*
X141819117Y-97644115D01*
X141822327Y-97638301D01*
X141825139Y-97632253D01*
X141827542Y-97625974D01*
X141829528Y-97619461D01*
X141831089Y-97612716D01*
X141832215Y-97605739D01*
X141832897Y-97598531D01*
X141833126Y-97591091D01*
X141832979Y-97584902D01*
X141832543Y-97578981D01*
X141831823Y-97573323D01*
X141830826Y-97567921D01*
X141829560Y-97562770D01*
X141828030Y-97557865D01*
X141826242Y-97553199D01*
X141824204Y-97548766D01*
X141821921Y-97544562D01*
X141819401Y-97540578D01*
X141816650Y-97536811D01*
X141813673Y-97533255D01*
X141810479Y-97529903D01*
X141807073Y-97526749D01*
X141803460Y-97523790D01*
X141799650Y-97521016D01*
X141795646Y-97518424D01*
X141791457Y-97516008D01*
X141782548Y-97511680D01*
X141772972Y-97507984D01*
X141762782Y-97504875D01*
X141752030Y-97502306D01*
X141740768Y-97500230D01*
X141729048Y-97498602D01*
X141716921Y-97497375D01*
X141548222Y-97482399D01*
X141519216Y-97478997D01*
X141491284Y-97473720D01*
X141477755Y-97470385D01*
X141464536Y-97466587D01*
X141451641Y-97462330D01*
X141439084Y-97457615D01*
X141426877Y-97452443D01*
X141415036Y-97446819D01*
X141403572Y-97440742D01*
X141392502Y-97434216D01*
X141381837Y-97427243D01*
X141371593Y-97419824D01*
X141361781Y-97411962D01*
X141352418Y-97403659D01*
X141343515Y-97394917D01*
X141335087Y-97385738D01*
X141327148Y-97376124D01*
X141319710Y-97366078D01*
X141312789Y-97355600D01*
X141306398Y-97344695D01*
X141300550Y-97333362D01*
X141295259Y-97321605D01*
X141290540Y-97309426D01*
X141286405Y-97296827D01*
X141282868Y-97283810D01*
X141279944Y-97270376D01*
X141277646Y-97256529D01*
X141275987Y-97242270D01*
X141274981Y-97227601D01*
X141274643Y-97212524D01*
X141275090Y-97194701D01*
X141276418Y-97177429D01*
X141278607Y-97160707D01*
X141281638Y-97144538D01*
X141285491Y-97128922D01*
X141290146Y-97113860D01*
X141295585Y-97099354D01*
X141301787Y-97085404D01*
X141308733Y-97072011D01*
X141316403Y-97059176D01*
X141324779Y-97046901D01*
X141333839Y-97035186D01*
X141343565Y-97024033D01*
X141353937Y-97013442D01*
X141364935Y-97003416D01*
X141376541Y-96993952D01*
X141388734Y-96985056D01*
X141401495Y-96976724D01*
X141414804Y-96968961D01*
X141428642Y-96961767D01*
X141442989Y-96955142D01*
X141457825Y-96949088D01*
X141488889Y-96938696D01*
X141521676Y-96930599D01*
X141556031Y-96924805D01*
X141591796Y-96921323D01*
X141628815Y-96920160D01*
X141659478Y-96920748D01*
G37*
D11*
X134950000Y-102225000D02*
G75*
G02*
X135450000Y-101725000I500000J0D01*
G01*
X135450000Y-101725000D02*
X148350000Y-101725000D01*
D10*
G36*
X139401825Y-96920507D02*
G01*
X139421221Y-96921860D01*
X139440395Y-96924100D01*
X139459320Y-96927216D01*
X139477968Y-96931195D01*
X139496311Y-96936025D01*
X139514321Y-96941694D01*
X139531968Y-96948191D01*
X139549226Y-96955503D01*
X139566066Y-96963619D01*
X139582460Y-96972526D01*
X139598381Y-96982213D01*
X139613798Y-96992666D01*
X139628684Y-97003876D01*
X139643014Y-97015830D01*
X139656757Y-97028513D01*
X139669883Y-97041917D01*
X139682367Y-97056028D01*
X139694180Y-97070835D01*
X139705294Y-97086325D01*
X139715680Y-97102487D01*
X139725311Y-97119308D01*
X139734158Y-97136777D01*
X139742193Y-97154882D01*
X139749388Y-97173610D01*
X139755715Y-97192950D01*
X139761147Y-97212890D01*
X139765652Y-97233417D01*
X139769207Y-97254521D01*
X139771781Y-97276186D01*
X139773346Y-97298404D01*
X139773874Y-97321163D01*
X139773874Y-97478589D01*
X139181683Y-97478589D01*
X139181961Y-97492948D01*
X139182789Y-97506858D01*
X139184153Y-97520316D01*
X139186046Y-97533324D01*
X139188454Y-97545879D01*
X139191368Y-97557982D01*
X139194775Y-97569634D01*
X139198666Y-97580833D01*
X139203029Y-97591579D01*
X139207853Y-97601871D01*
X139213128Y-97611710D01*
X139218842Y-97621095D01*
X139224984Y-97630025D01*
X139231543Y-97638501D01*
X139238509Y-97646521D01*
X139245871Y-97654086D01*
X139253617Y-97661195D01*
X139261736Y-97667849D01*
X139270218Y-97674045D01*
X139279052Y-97679784D01*
X139288226Y-97685068D01*
X139297730Y-97689893D01*
X139307552Y-97694260D01*
X139317682Y-97698169D01*
X139328110Y-97701620D01*
X139338822Y-97704611D01*
X139349809Y-97707143D01*
X139361060Y-97709216D01*
X139372564Y-97710829D01*
X139384310Y-97711981D01*
X139396287Y-97712673D01*
X139408484Y-97712903D01*
X139422245Y-97712510D01*
X139436095Y-97711339D01*
X139449997Y-97709404D01*
X139463905Y-97706720D01*
X139477780Y-97703300D01*
X139491581Y-97699157D01*
X139505267Y-97694306D01*
X139518795Y-97688760D01*
X139532126Y-97682534D01*
X139545218Y-97675640D01*
X139558030Y-97668093D01*
X139570520Y-97659906D01*
X139582648Y-97651094D01*
X139594373Y-97641669D01*
X139605653Y-97631647D01*
X139616446Y-97621040D01*
X139755141Y-97739045D01*
X139737246Y-97758682D01*
X139718727Y-97776854D01*
X139699615Y-97793588D01*
X139679945Y-97808909D01*
X139659748Y-97822848D01*
X139639057Y-97835431D01*
X139617905Y-97846685D01*
X139596325Y-97856638D01*
X139574350Y-97865318D01*
X139552010Y-97872750D01*
X139529341Y-97878965D01*
X139506375Y-97883988D01*
X139483143Y-97887847D01*
X139459680Y-97890569D01*
X139436017Y-97892182D01*
X139412187Y-97892714D01*
X139375336Y-97891566D01*
X139338115Y-97887924D01*
X139300906Y-97881492D01*
X139264087Y-97871974D01*
X139228036Y-97859073D01*
X139210417Y-97851261D01*
X139193133Y-97842493D01*
X139176230Y-97832732D01*
X139159756Y-97821938D01*
X139143758Y-97810079D01*
X139128283Y-97797114D01*
X139113380Y-97783007D01*
X139099095Y-97767722D01*
X139085477Y-97751220D01*
X139072570Y-97733466D01*
X139060424Y-97714422D01*
X139049086Y-97694050D01*
X139038603Y-97672316D01*
X139029023Y-97649180D01*
X139020392Y-97624606D01*
X139012758Y-97598557D01*
X139006170Y-97570996D01*
X139000672Y-97541886D01*
X138996314Y-97511190D01*
X138993142Y-97478871D01*
X138991205Y-97444891D01*
X138990547Y-97409215D01*
X138991151Y-97375334D01*
X138992929Y-97342888D01*
X138994962Y-97321215D01*
X139181683Y-97321215D01*
X139582739Y-97321215D01*
X139581989Y-97307876D01*
X139580798Y-97294934D01*
X139579174Y-97282391D01*
X139577125Y-97270250D01*
X139574660Y-97258512D01*
X139571789Y-97247178D01*
X139568518Y-97236251D01*
X139564857Y-97225732D01*
X139560813Y-97215622D01*
X139556399Y-97205924D01*
X139551619Y-97196640D01*
X139546483Y-97187768D01*
X139541000Y-97179314D01*
X139535178Y-97171278D01*
X139529026Y-97163661D01*
X139522553Y-97156466D01*
X139515767Y-97149694D01*
X139508675Y-97143346D01*
X139501288Y-97137426D01*
X139493614Y-97131934D01*
X139485661Y-97126871D01*
X139477438Y-97122239D01*
X139468953Y-97118041D01*
X139460216Y-97114278D01*
X139451234Y-97110951D01*
X139442016Y-97108062D01*
X139432571Y-97105613D01*
X139422906Y-97103605D01*
X139413034Y-97102041D01*
X139402958Y-97100922D01*
X139392690Y-97100249D01*
X139382237Y-97100024D01*
X139371778Y-97100249D01*
X139361495Y-97100921D01*
X139351395Y-97102041D01*
X139341489Y-97103605D01*
X139331786Y-97105613D01*
X139322295Y-97108062D01*
X139313026Y-97110951D01*
X139303989Y-97114278D01*
X139295194Y-97118041D01*
X139286651Y-97122239D01*
X139278368Y-97126872D01*
X139270356Y-97131934D01*
X139262623Y-97137426D01*
X139255180Y-97143346D01*
X139248036Y-97149694D01*
X139241201Y-97156466D01*
X139234685Y-97163661D01*
X139228496Y-97171276D01*
X139222645Y-97179314D01*
X139217141Y-97187768D01*
X139211995Y-97196637D01*
X139207214Y-97205924D01*
X139202810Y-97215622D01*
X139198792Y-97225731D01*
X139195169Y-97236251D01*
X139191951Y-97247178D01*
X139189147Y-97258512D01*
X139186767Y-97270250D01*
X139184821Y-97282391D01*
X139183320Y-97294933D01*
X139182270Y-97307875D01*
X139181683Y-97321215D01*
X138994962Y-97321215D01*
X138995839Y-97311855D01*
X138999843Y-97282212D01*
X139004894Y-97253932D01*
X139010951Y-97226996D01*
X139017972Y-97201375D01*
X139025913Y-97177050D01*
X139034733Y-97153996D01*
X139044389Y-97132188D01*
X139054838Y-97111604D01*
X139066037Y-97092219D01*
X139077946Y-97074010D01*
X139090520Y-97056954D01*
X139103717Y-97041027D01*
X139117495Y-97026206D01*
X139131812Y-97012464D01*
X139146624Y-96999781D01*
X139161889Y-96988132D01*
X139177565Y-96977494D01*
X139193609Y-96967843D01*
X139209979Y-96959155D01*
X139226632Y-96951406D01*
X139243526Y-96944574D01*
X139260618Y-96938634D01*
X139277865Y-96933563D01*
X139295226Y-96929336D01*
X139312656Y-96925931D01*
X139347561Y-96921491D01*
X139382237Y-96920054D01*
X139401825Y-96920507D01*
G37*
G36*
X138560734Y-96920715D02*
G01*
X138581400Y-96922502D01*
X138601326Y-96925421D01*
X138620515Y-96929423D01*
X138638970Y-96934456D01*
X138656693Y-96940472D01*
X138673689Y-96947422D01*
X138689955Y-96955257D01*
X138705498Y-96963927D01*
X138720320Y-96973380D01*
X138734421Y-96983570D01*
X138747806Y-96994447D01*
X138760477Y-97005960D01*
X138772435Y-97018060D01*
X138783685Y-97030699D01*
X138794227Y-97043825D01*
X138803626Y-97056453D01*
X138812180Y-97069209D01*
X138819922Y-97082354D01*
X138826884Y-97096148D01*
X138830083Y-97103374D01*
X138833100Y-97110856D01*
X138835939Y-97118633D01*
X138838604Y-97126735D01*
X138841097Y-97135196D01*
X138843425Y-97144047D01*
X138847600Y-97163053D01*
X138851160Y-97184015D01*
X138854139Y-97207193D01*
X138856569Y-97232848D01*
X138858484Y-97261242D01*
X138859915Y-97292634D01*
X138860897Y-97327286D01*
X138861462Y-97365460D01*
X138861643Y-97407416D01*
X138860897Y-97486904D01*
X138858484Y-97552473D01*
X138856569Y-97580684D01*
X138854139Y-97606188D01*
X138851160Y-97629242D01*
X138847600Y-97650106D01*
X138843425Y-97669036D01*
X138838603Y-97686291D01*
X138833100Y-97702125D01*
X138826884Y-97716802D01*
X138819922Y-97730573D01*
X138812180Y-97743700D01*
X138803626Y-97756439D01*
X138794227Y-97769050D01*
X138783685Y-97782176D01*
X138772435Y-97794814D01*
X138760477Y-97806915D01*
X138747806Y-97818428D01*
X138734421Y-97829305D01*
X138720320Y-97839495D01*
X138705499Y-97848949D01*
X138689955Y-97857618D01*
X138673687Y-97865452D01*
X138665281Y-97869041D01*
X138656693Y-97872403D01*
X138647923Y-97875531D01*
X138638970Y-97878419D01*
X138629834Y-97881062D01*
X138620515Y-97883452D01*
X138611012Y-97885586D01*
X138601326Y-97887454D01*
X138591455Y-97889052D01*
X138581398Y-97890373D01*
X138571160Y-97891411D01*
X138560734Y-97892160D01*
X138550124Y-97892615D01*
X138539327Y-97892769D01*
X138521289Y-97892246D01*
X138503714Y-97890703D01*
X138486577Y-97888172D01*
X138469858Y-97884686D01*
X138453535Y-97880277D01*
X138437585Y-97874978D01*
X138421987Y-97868823D01*
X138406718Y-97861845D01*
X138391757Y-97854075D01*
X138377081Y-97845548D01*
X138362670Y-97836297D01*
X138348500Y-97826353D01*
X138334549Y-97815750D01*
X138320796Y-97804522D01*
X138307219Y-97792701D01*
X138293794Y-97780320D01*
X138293106Y-98533325D01*
X138305314Y-98519713D01*
X138318038Y-98506978D01*
X138331266Y-98495122D01*
X138344989Y-98484143D01*
X138359195Y-98474041D01*
X138373873Y-98464816D01*
X138389013Y-98456470D01*
X138404602Y-98449001D01*
X138420630Y-98442410D01*
X138437086Y-98436698D01*
X138453959Y-98431864D01*
X138471239Y-98427909D01*
X138488913Y-98424832D01*
X138506971Y-98422634D01*
X138525402Y-98421316D01*
X138544196Y-98420876D01*
X138558131Y-98421210D01*
X138572152Y-98422212D01*
X138586225Y-98423879D01*
X138600314Y-98426208D01*
X138614385Y-98429198D01*
X138628404Y-98432845D01*
X138642335Y-98437147D01*
X138656144Y-98442101D01*
X138669797Y-98447708D01*
X138683259Y-98453962D01*
X138696494Y-98460862D01*
X138709469Y-98468404D01*
X138722149Y-98476588D01*
X138734499Y-98485410D01*
X138746485Y-98494869D01*
X138758072Y-98504960D01*
X138769224Y-98515684D01*
X138779909Y-98527036D01*
X138790090Y-98539015D01*
X138799734Y-98551617D01*
X138808805Y-98564842D01*
X138817270Y-98578686D01*
X138825092Y-98593146D01*
X138832238Y-98608221D01*
X138838673Y-98623908D01*
X138844363Y-98640204D01*
X138849272Y-98657109D01*
X138853366Y-98674617D01*
X138856611Y-98692729D01*
X138858972Y-98711440D01*
X138860414Y-98730749D01*
X138860902Y-98750653D01*
X138860902Y-99382266D01*
X138669767Y-99382266D01*
X138669767Y-98816324D01*
X138669533Y-98804353D01*
X138668836Y-98792707D01*
X138667687Y-98781387D01*
X138666095Y-98770398D01*
X138664072Y-98759741D01*
X138661625Y-98749424D01*
X138658767Y-98739447D01*
X138655505Y-98729816D01*
X138651851Y-98720534D01*
X138647815Y-98711605D01*
X138643405Y-98703033D01*
X138638633Y-98694820D01*
X138633508Y-98686973D01*
X138628040Y-98679492D01*
X138622240Y-98672383D01*
X138616116Y-98665649D01*
X138609680Y-98659295D01*
X138602940Y-98653323D01*
X138595907Y-98647738D01*
X138588590Y-98642543D01*
X138581002Y-98637742D01*
X138573150Y-98633339D01*
X138565044Y-98629338D01*
X138556695Y-98625741D01*
X138548112Y-98622554D01*
X138539307Y-98619780D01*
X138530287Y-98617422D01*
X138521064Y-98615484D01*
X138511648Y-98613971D01*
X138502048Y-98612885D01*
X138492274Y-98612231D01*
X138482336Y-98612012D01*
X138472231Y-98612231D01*
X138462299Y-98612885D01*
X138452552Y-98613971D01*
X138442999Y-98615484D01*
X138433649Y-98617422D01*
X138424512Y-98619780D01*
X138415598Y-98622554D01*
X138406915Y-98625742D01*
X138398474Y-98629338D01*
X138390285Y-98633339D01*
X138382356Y-98637742D01*
X138374698Y-98642543D01*
X138367320Y-98647738D01*
X138360232Y-98653323D01*
X138353443Y-98659295D01*
X138346962Y-98665650D01*
X138340800Y-98672383D01*
X138334965Y-98679492D01*
X138329470Y-98686973D01*
X138324321Y-98694821D01*
X138319529Y-98703033D01*
X138315103Y-98711606D01*
X138311053Y-98720535D01*
X138307389Y-98729818D01*
X138304120Y-98739448D01*
X138301256Y-98749424D01*
X138298805Y-98759742D01*
X138296780Y-98770397D01*
X138295187Y-98781387D01*
X138294037Y-98792707D01*
X138293341Y-98804353D01*
X138293106Y-98816323D01*
X138293106Y-99382267D01*
X138101919Y-99382267D01*
X138101919Y-97407363D01*
X138293793Y-97407363D01*
X138294545Y-97459297D01*
X138295832Y-97485335D01*
X138298040Y-97511074D01*
X138301401Y-97536252D01*
X138306149Y-97560608D01*
X138312515Y-97583883D01*
X138316379Y-97595033D01*
X138320736Y-97605814D01*
X138325614Y-97616195D01*
X138331042Y-97626142D01*
X138337052Y-97635624D01*
X138343670Y-97644606D01*
X138350926Y-97653057D01*
X138358851Y-97660944D01*
X138367471Y-97668235D01*
X138376818Y-97674897D01*
X138386920Y-97680897D01*
X138397806Y-97686204D01*
X138409505Y-97690782D01*
X138422048Y-97694601D01*
X138435461Y-97697629D01*
X138449776Y-97699832D01*
X138465021Y-97701177D01*
X138481225Y-97701633D01*
X138497599Y-97701204D01*
X138513000Y-97699933D01*
X138527462Y-97697851D01*
X138541013Y-97694983D01*
X138553685Y-97691357D01*
X138565503Y-97687001D01*
X138576499Y-97681943D01*
X138586703Y-97676207D01*
X138596143Y-97669823D01*
X138604850Y-97662820D01*
X138612853Y-97655224D01*
X138620180Y-97647061D01*
X138626863Y-97638361D01*
X138632930Y-97629150D01*
X138638411Y-97619456D01*
X138643335Y-97609307D01*
X138647733Y-97598729D01*
X138651632Y-97587750D01*
X138655064Y-97576398D01*
X138658057Y-97564701D01*
X138660641Y-97552686D01*
X138662845Y-97540378D01*
X138666233Y-97515002D01*
X138668458Y-97488794D01*
X138669754Y-97461970D01*
X138670359Y-97434754D01*
X138670508Y-97407362D01*
X138669754Y-97352114D01*
X138668458Y-97325035D01*
X138666233Y-97298609D01*
X138662845Y-97273051D01*
X138658057Y-97248579D01*
X138651632Y-97225410D01*
X138647733Y-97214381D01*
X138643335Y-97203760D01*
X138638411Y-97193571D01*
X138632930Y-97183845D01*
X138626863Y-97174606D01*
X138620180Y-97165883D01*
X138612853Y-97157702D01*
X138604850Y-97150090D01*
X138596143Y-97143074D01*
X138586703Y-97136682D01*
X138576499Y-97130941D01*
X138565503Y-97125877D01*
X138553685Y-97121518D01*
X138541014Y-97117891D01*
X138527463Y-97115022D01*
X138513000Y-97112940D01*
X138497598Y-97111672D01*
X138481225Y-97111242D01*
X138465026Y-97111697D01*
X138449785Y-97113043D01*
X138435474Y-97115247D01*
X138422063Y-97118277D01*
X138409523Y-97122100D01*
X138397826Y-97126684D01*
X138386941Y-97131997D01*
X138376840Y-97138007D01*
X138367494Y-97144681D01*
X138358874Y-97151987D01*
X138350950Y-97159893D01*
X138343693Y-97168367D01*
X138337074Y-97177377D01*
X138331065Y-97186889D01*
X138325635Y-97196871D01*
X138320755Y-97207292D01*
X138316398Y-97218120D01*
X138312532Y-97229322D01*
X138309130Y-97240866D01*
X138306162Y-97252719D01*
X138303600Y-97264850D01*
X138301411Y-97277225D01*
X138298048Y-97302583D01*
X138295837Y-97328533D01*
X138294547Y-97354819D01*
X138293944Y-97381181D01*
X138293793Y-97407363D01*
X138101919Y-97407363D01*
X138101919Y-96931378D01*
X138293794Y-96931378D01*
X138293794Y-97030704D01*
X138305370Y-97018647D01*
X138317575Y-97007111D01*
X138330384Y-96996130D01*
X138343767Y-96985740D01*
X138357699Y-96975976D01*
X138372152Y-96966874D01*
X138387099Y-96958469D01*
X138402512Y-96950798D01*
X138418363Y-96943896D01*
X138434626Y-96937799D01*
X138451275Y-96932541D01*
X138468280Y-96928160D01*
X138485616Y-96924691D01*
X138503253Y-96922168D01*
X138521166Y-96920628D01*
X138539328Y-96920107D01*
X138560734Y-96920715D01*
G37*
G36*
X142433835Y-99097415D02*
G01*
X142437698Y-99097416D01*
X142619361Y-98432148D01*
X142821820Y-98432148D01*
X142518290Y-99382267D01*
X142349539Y-99382267D01*
X142150890Y-98716945D01*
X142147133Y-98716945D01*
X141948484Y-99382266D01*
X141779838Y-99382267D01*
X141476255Y-98432148D01*
X141678609Y-98432147D01*
X141860432Y-99097416D01*
X141864188Y-99097416D01*
X142079664Y-98432148D01*
X142218359Y-98432147D01*
X142433835Y-99097415D01*
G37*
G36*
X145898289Y-96920507D02*
G01*
X145917677Y-96921860D01*
X145936845Y-96924100D01*
X145955766Y-96927216D01*
X145974410Y-96931195D01*
X145992750Y-96936025D01*
X146010758Y-96941694D01*
X146028405Y-96948191D01*
X146045664Y-96955503D01*
X146062505Y-96963619D01*
X146078901Y-96972526D01*
X146094824Y-96982213D01*
X146110245Y-96992666D01*
X146125136Y-97003876D01*
X146139469Y-97015829D01*
X146153216Y-97028514D01*
X146166348Y-97041917D01*
X146178837Y-97056028D01*
X146190656Y-97070835D01*
X146201775Y-97086325D01*
X146212167Y-97102487D01*
X146221803Y-97119308D01*
X146230656Y-97136777D01*
X146238696Y-97154881D01*
X146245896Y-97173610D01*
X146252228Y-97192950D01*
X146257663Y-97212890D01*
X146262173Y-97233417D01*
X146265730Y-97254520D01*
X146268306Y-97276186D01*
X146269872Y-97298404D01*
X146270400Y-97321162D01*
X146270400Y-97478589D01*
X145678209Y-97478589D01*
X145678487Y-97492948D01*
X145679314Y-97506858D01*
X145680679Y-97520316D01*
X145682570Y-97533324D01*
X145684978Y-97545879D01*
X145687889Y-97557982D01*
X145691295Y-97569633D01*
X145695184Y-97580833D01*
X145699545Y-97591579D01*
X145704367Y-97601871D01*
X145709640Y-97611711D01*
X145715351Y-97621095D01*
X145721491Y-97630025D01*
X145728049Y-97638501D01*
X145735012Y-97646521D01*
X145742371Y-97654086D01*
X145750115Y-97661195D01*
X145758232Y-97667849D01*
X145766711Y-97674045D01*
X145775542Y-97679785D01*
X145784714Y-97685068D01*
X145794216Y-97689893D01*
X145804036Y-97694260D01*
X145814164Y-97698169D01*
X145824590Y-97701620D01*
X145835301Y-97704611D01*
X145846287Y-97707143D01*
X145857537Y-97709216D01*
X145869040Y-97710829D01*
X145880785Y-97711981D01*
X145892761Y-97712673D01*
X145904958Y-97712903D01*
X145918717Y-97712510D01*
X145932568Y-97711339D01*
X145946466Y-97709405D01*
X145960371Y-97706720D01*
X145974243Y-97703300D01*
X145988041Y-97699157D01*
X146001723Y-97694306D01*
X146015249Y-97688760D01*
X146028578Y-97682534D01*
X146041668Y-97675640D01*
X146054480Y-97668093D01*
X146066972Y-97659906D01*
X146079102Y-97651094D01*
X146090831Y-97641669D01*
X146102118Y-97631647D01*
X146112920Y-97621040D01*
X146251615Y-97739045D01*
X146233737Y-97758682D01*
X146215231Y-97776854D01*
X146196130Y-97793587D01*
X146176464Y-97808909D01*
X146156270Y-97822848D01*
X146135580Y-97835431D01*
X146114428Y-97846685D01*
X146092845Y-97856638D01*
X146070867Y-97865319D01*
X146048525Y-97872751D01*
X146025854Y-97878964D01*
X146002886Y-97883988D01*
X145979654Y-97887847D01*
X145956194Y-97890569D01*
X145932536Y-97892183D01*
X145908715Y-97892714D01*
X145871853Y-97891566D01*
X145834625Y-97887924D01*
X145797408Y-97881492D01*
X145760583Y-97871974D01*
X145724527Y-97859073D01*
X145706906Y-97851261D01*
X145689619Y-97842493D01*
X145672715Y-97832732D01*
X145656239Y-97821939D01*
X145640240Y-97810079D01*
X145624765Y-97797114D01*
X145609860Y-97783007D01*
X145595574Y-97767722D01*
X145581954Y-97751220D01*
X145569047Y-97733466D01*
X145556899Y-97714422D01*
X145545562Y-97694051D01*
X145535077Y-97672316D01*
X145525497Y-97649180D01*
X145516867Y-97624606D01*
X145509233Y-97598557D01*
X145502642Y-97570996D01*
X145497146Y-97541887D01*
X145492788Y-97511190D01*
X145489616Y-97478871D01*
X145487679Y-97444892D01*
X145487022Y-97409215D01*
X145487623Y-97375334D01*
X145489402Y-97342888D01*
X145491435Y-97321215D01*
X145678209Y-97321215D01*
X146079212Y-97321215D01*
X146078458Y-97307876D01*
X146077262Y-97294934D01*
X146075635Y-97282390D01*
X146073583Y-97270249D01*
X146071116Y-97258512D01*
X146068242Y-97247178D01*
X146064970Y-97236251D01*
X146061308Y-97225732D01*
X146057264Y-97215622D01*
X146052848Y-97205924D01*
X146048068Y-97196639D01*
X146042933Y-97187768D01*
X146037450Y-97179314D01*
X146031629Y-97171279D01*
X146025478Y-97163661D01*
X146019005Y-97156465D01*
X146012220Y-97149694D01*
X146005130Y-97143347D01*
X145997745Y-97137426D01*
X145990073Y-97131934D01*
X145982121Y-97126872D01*
X145973900Y-97122239D01*
X145965417Y-97118040D01*
X145956681Y-97114278D01*
X145947701Y-97110951D01*
X145938484Y-97108062D01*
X145929040Y-97105613D01*
X145919378Y-97103605D01*
X145909505Y-97102041D01*
X145899430Y-97100922D01*
X145889162Y-97100249D01*
X145878710Y-97100023D01*
X145868252Y-97100250D01*
X145857968Y-97100922D01*
X145847868Y-97102041D01*
X145837962Y-97103605D01*
X145828259Y-97105613D01*
X145818768Y-97108062D01*
X145809500Y-97110951D01*
X145800464Y-97114278D01*
X145791669Y-97118041D01*
X145783126Y-97122239D01*
X145774843Y-97126871D01*
X145766831Y-97131934D01*
X145759100Y-97137426D01*
X145751656Y-97143347D01*
X145744515Y-97149694D01*
X145737680Y-97156466D01*
X145731164Y-97163661D01*
X145724978Y-97171277D01*
X145719129Y-97179314D01*
X145713627Y-97187768D01*
X145708483Y-97196638D01*
X145703704Y-97205924D01*
X145699303Y-97215623D01*
X145695287Y-97225731D01*
X145691667Y-97236251D01*
X145688452Y-97247178D01*
X145685651Y-97258512D01*
X145683275Y-97270250D01*
X145681334Y-97282390D01*
X145679835Y-97294933D01*
X145678791Y-97307875D01*
X145678209Y-97321215D01*
X145491435Y-97321215D01*
X145492313Y-97311856D01*
X145496315Y-97282211D01*
X145501365Y-97253932D01*
X145507420Y-97226995D01*
X145514439Y-97201375D01*
X145522379Y-97177050D01*
X145531197Y-97153996D01*
X145540852Y-97132188D01*
X145551299Y-97111604D01*
X145562497Y-97092219D01*
X145574404Y-97074010D01*
X145586976Y-97056953D01*
X145600172Y-97041027D01*
X145613949Y-97026205D01*
X145628264Y-97012464D01*
X145643075Y-96999781D01*
X145658340Y-96988132D01*
X145674015Y-96977494D01*
X145690059Y-96967843D01*
X145706429Y-96959155D01*
X145723083Y-96951406D01*
X145739977Y-96944574D01*
X145757070Y-96938634D01*
X145774319Y-96933563D01*
X145791682Y-96929336D01*
X145809115Y-96925931D01*
X145844026Y-96921491D01*
X145878711Y-96920054D01*
X145898289Y-96920507D01*
G37*
G36*
X141373968Y-99382267D02*
G01*
X141182833Y-99382266D01*
X141182833Y-99282942D01*
X141171266Y-99294980D01*
X141159067Y-99306503D01*
X141146264Y-99317475D01*
X141132882Y-99327860D01*
X141118952Y-99337621D01*
X141104498Y-99346724D01*
X141089550Y-99355130D01*
X141074134Y-99362806D01*
X141058281Y-99369715D01*
X141042014Y-99375818D01*
X141025362Y-99381082D01*
X141008354Y-99385469D01*
X140991015Y-99388945D01*
X140973376Y-99391472D01*
X140955461Y-99393015D01*
X140937299Y-99393538D01*
X140926499Y-99393386D01*
X140915885Y-99392931D01*
X140905456Y-99392181D01*
X140895214Y-99391143D01*
X140885158Y-99389823D01*
X140875287Y-99388224D01*
X140865599Y-99386355D01*
X140856098Y-99384223D01*
X140846780Y-99381831D01*
X140837646Y-99379189D01*
X140828695Y-99376301D01*
X140819927Y-99373172D01*
X140811342Y-99369811D01*
X140802938Y-99366222D01*
X140786679Y-99358388D01*
X140771143Y-99349719D01*
X140756330Y-99340264D01*
X140742235Y-99330074D01*
X140728858Y-99319198D01*
X140716193Y-99307685D01*
X140704240Y-99295584D01*
X140692994Y-99282945D01*
X140682452Y-99269819D01*
X140673044Y-99257191D01*
X140664482Y-99244435D01*
X140656733Y-99231291D01*
X140649765Y-99217496D01*
X140643544Y-99202791D01*
X140638037Y-99186915D01*
X140633211Y-99169606D01*
X140629033Y-99150604D01*
X140625471Y-99129648D01*
X140622490Y-99106477D01*
X140620059Y-99080831D01*
X140618144Y-99052448D01*
X140615730Y-98986429D01*
X140614984Y-98906334D01*
X140806119Y-98906334D01*
X140806268Y-98934050D01*
X140806873Y-98961548D01*
X140808169Y-98988614D01*
X140810394Y-99015027D01*
X140813783Y-99040574D01*
X140815986Y-99052955D01*
X140818570Y-99065038D01*
X140821563Y-99076796D01*
X140824995Y-99088200D01*
X140828894Y-99099226D01*
X140833290Y-99109845D01*
X140838216Y-99120030D01*
X140843697Y-99129755D01*
X140849765Y-99138992D01*
X140856446Y-99147714D01*
X140863774Y-99155894D01*
X140871777Y-99163505D01*
X140880484Y-99170519D01*
X140889924Y-99176911D01*
X140900128Y-99182652D01*
X140911124Y-99187715D01*
X140922942Y-99192074D01*
X140935613Y-99195700D01*
X140949164Y-99198569D01*
X140963626Y-99200651D01*
X140979029Y-99201920D01*
X140995402Y-99202350D01*
X141011606Y-99201894D01*
X141026851Y-99200548D01*
X141041166Y-99198346D01*
X141054579Y-99195319D01*
X141067121Y-99191498D01*
X141078821Y-99186918D01*
X141089707Y-99181606D01*
X141099809Y-99175601D01*
X141109155Y-99168931D01*
X141117776Y-99161629D01*
X141125700Y-99153727D01*
X141132957Y-99145258D01*
X141139575Y-99136254D01*
X141145583Y-99126747D01*
X141151013Y-99116769D01*
X141155891Y-99106352D01*
X141160248Y-99095530D01*
X141164112Y-99084333D01*
X141170479Y-99060945D01*
X141175227Y-99036448D01*
X141178588Y-99011099D01*
X141180795Y-98985155D01*
X141182082Y-98958873D01*
X141182833Y-98906334D01*
X141182684Y-98880477D01*
X141182082Y-98854397D01*
X141180795Y-98828353D01*
X141178587Y-98802608D01*
X141175226Y-98777421D01*
X141173040Y-98765120D01*
X141170478Y-98753056D01*
X141167512Y-98741263D01*
X141164112Y-98729772D01*
X141160248Y-98718617D01*
X141155891Y-98707831D01*
X141151013Y-98697445D01*
X141145584Y-98687493D01*
X141139575Y-98678006D01*
X141132957Y-98669020D01*
X141125699Y-98660564D01*
X141117776Y-98652672D01*
X141109155Y-98645377D01*
X141099809Y-98638711D01*
X141089707Y-98632708D01*
X141078821Y-98627399D01*
X141067121Y-98622817D01*
X141054579Y-98618995D01*
X141041166Y-98615966D01*
X141026851Y-98613762D01*
X141011606Y-98612415D01*
X140995402Y-98611959D01*
X140979029Y-98612388D01*
X140963627Y-98613658D01*
X140949164Y-98615741D01*
X140935613Y-98618609D01*
X140922942Y-98622235D01*
X140911124Y-98626592D01*
X140900128Y-98631651D01*
X140889924Y-98637387D01*
X140880484Y-98643770D01*
X140871777Y-98650775D01*
X140863774Y-98658372D01*
X140856446Y-98666536D01*
X140849764Y-98675237D01*
X140843697Y-98684450D01*
X140838216Y-98694145D01*
X140833291Y-98704297D01*
X140828894Y-98714879D01*
X140824995Y-98725860D01*
X140818570Y-98748917D01*
X140813783Y-98773248D01*
X140810394Y-98798634D01*
X140808169Y-98824855D01*
X140806873Y-98851692D01*
X140806119Y-98906334D01*
X140614984Y-98906334D01*
X140615166Y-98864686D01*
X140615730Y-98826781D01*
X140616712Y-98792363D01*
X140618144Y-98761171D01*
X140620059Y-98732948D01*
X140622490Y-98707436D01*
X140625471Y-98684377D01*
X140629033Y-98663513D01*
X140633211Y-98644584D01*
X140635541Y-98635765D01*
X140638038Y-98627333D01*
X140640703Y-98619256D01*
X140643544Y-98611502D01*
X140646563Y-98604037D01*
X140649765Y-98596831D01*
X140656734Y-98583064D01*
X140664482Y-98569941D01*
X140673044Y-98557204D01*
X140682452Y-98544596D01*
X140692994Y-98531451D01*
X140704241Y-98518800D01*
X140716193Y-98506690D01*
X140728858Y-98495172D01*
X140742236Y-98484293D01*
X140756330Y-98474104D01*
X140771143Y-98464652D01*
X140786679Y-98455987D01*
X140802939Y-98448158D01*
X140819927Y-98441214D01*
X140837646Y-98435204D01*
X140856098Y-98430177D01*
X140875287Y-98426182D01*
X140895215Y-98423267D01*
X140915884Y-98421483D01*
X140937299Y-98420877D01*
X140955337Y-98421397D01*
X140972914Y-98422941D01*
X140990050Y-98425472D01*
X141006769Y-98428959D01*
X141023093Y-98433368D01*
X141039042Y-98438667D01*
X141054640Y-98444822D01*
X141069909Y-98451800D01*
X141084869Y-98459568D01*
X141099545Y-98468095D01*
X141113957Y-98477348D01*
X141128127Y-98487293D01*
X141142077Y-98497894D01*
X141155831Y-98509122D01*
X141169408Y-98520944D01*
X141182833Y-98533325D01*
X141182833Y-98047867D01*
X141373968Y-98047867D01*
X141373968Y-99382267D01*
G37*
G36*
X139407768Y-98421818D02*
G01*
X139448972Y-98424718D01*
X139488206Y-98429687D01*
X139507043Y-98432983D01*
X139525339Y-98436839D01*
X139543078Y-98441268D01*
X139560244Y-98446287D01*
X139576820Y-98451906D01*
X139592791Y-98458142D01*
X139608139Y-98465007D01*
X139622850Y-98472516D01*
X139636907Y-98480684D01*
X139650293Y-98489524D01*
X139662993Y-98499049D01*
X139674991Y-98509275D01*
X139686271Y-98520215D01*
X139696815Y-98531883D01*
X139706608Y-98544294D01*
X139715635Y-98557461D01*
X139723878Y-98571399D01*
X139731323Y-98586121D01*
X139737951Y-98601642D01*
X139743749Y-98617974D01*
X139748699Y-98635135D01*
X139752785Y-98653136D01*
X139755991Y-98671991D01*
X139758301Y-98691715D01*
X139759698Y-98712322D01*
X139760168Y-98733825D01*
X139760167Y-99382267D01*
X139568980Y-99382267D01*
X139568980Y-99297918D01*
X139565223Y-99297918D01*
X139557534Y-99309813D01*
X139549173Y-99320881D01*
X139540087Y-99331128D01*
X139530220Y-99340563D01*
X139519517Y-99349195D01*
X139507923Y-99357032D01*
X139495385Y-99364082D01*
X139481846Y-99370355D01*
X139467253Y-99375857D01*
X139451550Y-99380599D01*
X139434683Y-99384588D01*
X139416596Y-99387833D01*
X139397235Y-99390342D01*
X139376546Y-99392123D01*
X139354473Y-99393186D01*
X139330961Y-99393538D01*
X139311367Y-99393173D01*
X139292295Y-99392088D01*
X139273752Y-99390298D01*
X139255746Y-99387821D01*
X139238281Y-99384671D01*
X139221366Y-99380863D01*
X139205006Y-99376414D01*
X139189207Y-99371341D01*
X139173977Y-99365658D01*
X139159322Y-99359381D01*
X139145248Y-99352526D01*
X139131762Y-99345109D01*
X139118870Y-99337146D01*
X139106579Y-99328652D01*
X139094896Y-99319643D01*
X139083827Y-99310135D01*
X139073378Y-99300144D01*
X139063556Y-99289686D01*
X139054367Y-99278776D01*
X139045818Y-99267430D01*
X139037917Y-99255664D01*
X139030667Y-99243494D01*
X139024078Y-99230935D01*
X139018154Y-99218003D01*
X139012903Y-99204715D01*
X139008331Y-99191084D01*
X139004444Y-99177130D01*
X139001250Y-99162865D01*
X138998754Y-99148307D01*
X138996963Y-99133470D01*
X138995884Y-99118372D01*
X138995522Y-99103026D01*
X138995726Y-99093659D01*
X139175386Y-99093659D01*
X139175986Y-99105496D01*
X139177815Y-99117088D01*
X139180912Y-99128364D01*
X139185320Y-99139251D01*
X139188027Y-99144526D01*
X139191078Y-99149678D01*
X139194477Y-99154697D01*
X139198229Y-99159574D01*
X139202340Y-99164301D01*
X139206814Y-99168866D01*
X139211656Y-99173265D01*
X139216873Y-99177486D01*
X139222468Y-99181519D01*
X139228447Y-99185358D01*
X139234816Y-99188993D01*
X139241578Y-99192413D01*
X139248741Y-99195612D01*
X139256307Y-99198579D01*
X139264284Y-99201306D01*
X139272675Y-99203785D01*
X139290723Y-99207958D01*
X139310491Y-99211027D01*
X139332022Y-99212921D01*
X139355357Y-99213569D01*
X139384003Y-99213343D01*
X139410265Y-99212556D01*
X139434216Y-99211039D01*
X139455930Y-99208625D01*
X139465971Y-99207029D01*
X139475481Y-99205145D01*
X139484469Y-99202954D01*
X139492943Y-99200433D01*
X139500914Y-99197563D01*
X139508391Y-99194321D01*
X139515382Y-99190687D01*
X139521898Y-99186640D01*
X139527946Y-99182160D01*
X139533538Y-99177224D01*
X139538681Y-99171813D01*
X139543385Y-99165904D01*
X139547660Y-99159478D01*
X139551515Y-99152515D01*
X139554958Y-99144989D01*
X139558000Y-99136884D01*
X139560649Y-99128178D01*
X139562915Y-99118848D01*
X139564807Y-99108876D01*
X139566334Y-99098239D01*
X139567506Y-99086916D01*
X139568331Y-99074887D01*
X139568819Y-99062131D01*
X139568980Y-99048626D01*
X139568980Y-98979253D01*
X139340379Y-98979253D01*
X139330009Y-98979384D01*
X139319988Y-98979776D01*
X139310315Y-98980423D01*
X139300990Y-98981324D01*
X139292012Y-98982472D01*
X139283378Y-98983866D01*
X139275086Y-98985501D01*
X139267139Y-98987373D01*
X139259530Y-98989479D01*
X139252262Y-98991815D01*
X139245331Y-98994376D01*
X139238736Y-98997160D01*
X139232477Y-99000161D01*
X139226551Y-99003379D01*
X139220957Y-99006806D01*
X139215695Y-99010441D01*
X139210763Y-99014278D01*
X139206158Y-99018316D01*
X139201880Y-99022549D01*
X139197928Y-99026974D01*
X139194300Y-99031586D01*
X139190994Y-99036384D01*
X139188011Y-99041361D01*
X139185346Y-99046516D01*
X139183000Y-99051843D01*
X139180972Y-99057340D01*
X139179259Y-99063002D01*
X139177861Y-99068825D01*
X139176776Y-99074806D01*
X139176002Y-99080942D01*
X139175540Y-99087227D01*
X139175386Y-99093659D01*
X138995726Y-99093659D01*
X138995830Y-99088867D01*
X138996751Y-99074859D01*
X138998285Y-99061021D01*
X139000430Y-99047372D01*
X139003186Y-99033934D01*
X139006554Y-99020724D01*
X139010527Y-99007763D01*
X139015110Y-98995071D01*
X139020299Y-98982665D01*
X139026094Y-98970569D01*
X139032493Y-98958798D01*
X139039495Y-98947376D01*
X139047101Y-98936319D01*
X139055308Y-98925647D01*
X139064115Y-98915382D01*
X139073521Y-98905541D01*
X139083527Y-98896145D01*
X139094129Y-98887213D01*
X139105328Y-98878764D01*
X139117122Y-98870820D01*
X139129511Y-98863398D01*
X139142493Y-98856519D01*
X139156066Y-98850202D01*
X139170232Y-98844466D01*
X139184987Y-98839334D01*
X139200332Y-98834820D01*
X139216264Y-98830947D01*
X139232784Y-98827735D01*
X139249890Y-98825203D01*
X139267581Y-98823369D01*
X139285856Y-98822255D01*
X139304714Y-98821879D01*
X139568980Y-98821879D01*
X139568980Y-98722555D01*
X139568294Y-98706371D01*
X139567431Y-98698776D01*
X139566216Y-98691506D01*
X139564646Y-98684557D01*
X139562717Y-98677924D01*
X139560424Y-98671601D01*
X139557764Y-98665585D01*
X139554734Y-98659870D01*
X139551330Y-98654452D01*
X139547547Y-98649326D01*
X139543383Y-98644487D01*
X139538833Y-98639929D01*
X139533893Y-98635651D01*
X139528560Y-98631645D01*
X139522830Y-98627907D01*
X139516700Y-98624433D01*
X139510165Y-98621217D01*
X139495866Y-98615542D01*
X139479904Y-98610845D01*
X139462248Y-98607087D01*
X139442869Y-98604230D01*
X139421735Y-98602237D01*
X139398820Y-98601069D01*
X139374088Y-98600689D01*
X139356070Y-98600913D01*
X139339222Y-98601603D01*
X139323490Y-98602784D01*
X139308814Y-98604481D01*
X139301854Y-98605529D01*
X139295137Y-98606716D01*
X139288654Y-98608043D01*
X139282401Y-98609514D01*
X139276368Y-98611133D01*
X139270549Y-98612902D01*
X139264936Y-98614824D01*
X139259523Y-98616900D01*
X139254303Y-98619137D01*
X139249267Y-98621536D01*
X139244409Y-98624101D01*
X139239722Y-98626834D01*
X139235198Y-98629738D01*
X139230831Y-98632817D01*
X139226613Y-98636073D01*
X139222536Y-98639510D01*
X139218595Y-98643130D01*
X139214781Y-98646938D01*
X139211087Y-98650936D01*
X139207506Y-98655124D01*
X139204031Y-98659510D01*
X139200656Y-98664094D01*
X139197371Y-98668881D01*
X139194171Y-98673872D01*
X139044259Y-98559572D01*
X139058335Y-98541323D01*
X139073167Y-98524533D01*
X139088762Y-98509162D01*
X139105128Y-98495172D01*
X139122275Y-98482525D01*
X139140209Y-98471179D01*
X139158940Y-98461098D01*
X139178475Y-98452243D01*
X139198823Y-98444575D01*
X139219993Y-98438055D01*
X139241992Y-98432645D01*
X139264829Y-98428305D01*
X139288512Y-98424997D01*
X139313050Y-98422682D01*
X139338450Y-98421322D01*
X139364721Y-98420877D01*
X139407768Y-98421818D01*
G37*
G36*
X144867058Y-98421276D02*
G01*
X144886453Y-98422630D01*
X144905626Y-98424870D01*
X144924551Y-98427985D01*
X144943198Y-98431964D01*
X144961540Y-98436794D01*
X144979547Y-98442463D01*
X144997193Y-98448959D01*
X145014449Y-98456271D01*
X145031286Y-98464386D01*
X145047679Y-98473292D01*
X145063597Y-98482977D01*
X145079013Y-98493429D01*
X145093897Y-98504637D01*
X145108223Y-98516588D01*
X145121962Y-98529269D01*
X145135087Y-98542671D01*
X145147568Y-98556779D01*
X145159379Y-98571582D01*
X145170490Y-98587069D01*
X145180874Y-98603227D01*
X145190503Y-98620044D01*
X145199348Y-98637508D01*
X145207381Y-98655607D01*
X145214575Y-98674329D01*
X145220901Y-98693663D01*
X145226330Y-98713596D01*
X145230836Y-98734116D01*
X145234389Y-98755210D01*
X145236962Y-98776868D01*
X145238526Y-98799079D01*
X145239054Y-98821826D01*
X145239054Y-98979359D01*
X144646970Y-98979359D01*
X144647247Y-98993709D01*
X144648073Y-99007610D01*
X144649437Y-99021060D01*
X144651330Y-99034059D01*
X144653737Y-99046608D01*
X144656649Y-99058705D01*
X144660055Y-99070350D01*
X144663944Y-99081543D01*
X144668305Y-99092283D01*
X144673127Y-99102571D01*
X144678400Y-99112405D01*
X144684111Y-99121786D01*
X144690251Y-99130712D01*
X144696808Y-99139185D01*
X144703772Y-99147202D01*
X144711131Y-99154765D01*
X144718874Y-99161872D01*
X144726992Y-99168523D01*
X144735471Y-99174719D01*
X144744301Y-99180456D01*
X144753474Y-99185737D01*
X144762976Y-99190561D01*
X144772796Y-99194928D01*
X144782924Y-99198836D01*
X144793349Y-99202286D01*
X144804060Y-99205277D01*
X144815045Y-99207809D01*
X144826296Y-99209882D01*
X144837799Y-99211494D01*
X144849544Y-99212646D01*
X144861521Y-99213338D01*
X144873717Y-99213569D01*
X144887460Y-99213176D01*
X144901297Y-99212009D01*
X144915186Y-99210079D01*
X144929086Y-99207400D01*
X144942956Y-99203986D01*
X144956754Y-99199850D01*
X144970439Y-99195005D01*
X144983969Y-99189465D01*
X144997303Y-99183243D01*
X145010400Y-99176351D01*
X145023218Y-99168805D01*
X145035716Y-99160616D01*
X145047853Y-99151798D01*
X145059586Y-99142365D01*
X145070876Y-99132329D01*
X145081679Y-99121705D01*
X145220374Y-99239815D01*
X145202479Y-99259453D01*
X145183960Y-99277624D01*
X145164849Y-99294358D01*
X145145179Y-99309680D01*
X145124983Y-99323619D01*
X145104293Y-99336203D01*
X145083143Y-99347456D01*
X145061565Y-99357409D01*
X145039592Y-99366088D01*
X145017257Y-99373522D01*
X144994592Y-99379736D01*
X144971631Y-99384759D01*
X144948405Y-99388618D01*
X144924949Y-99391341D01*
X144901295Y-99392954D01*
X144877475Y-99393486D01*
X144840613Y-99392337D01*
X144803385Y-99388695D01*
X144766168Y-99382261D01*
X144729343Y-99372743D01*
X144693287Y-99359841D01*
X144675666Y-99352028D01*
X144658380Y-99343259D01*
X144641474Y-99333495D01*
X144624999Y-99322701D01*
X144608999Y-99310839D01*
X144593524Y-99297872D01*
X144578620Y-99283762D01*
X144564334Y-99268474D01*
X144550714Y-99251969D01*
X144537807Y-99234211D01*
X144525660Y-99215162D01*
X144514322Y-99194788D01*
X144503839Y-99173047D01*
X144494257Y-99149906D01*
X144485626Y-99125326D01*
X144477992Y-99099271D01*
X144471404Y-99071703D01*
X144465906Y-99042586D01*
X144461548Y-99011882D01*
X144458376Y-98979554D01*
X144456438Y-98945566D01*
X144455782Y-98909880D01*
X144456384Y-98875998D01*
X144458163Y-98843554D01*
X144460197Y-98821879D01*
X144646969Y-98821879D01*
X145047972Y-98821879D01*
X145047227Y-98808548D01*
X145046040Y-98795614D01*
X145044419Y-98783079D01*
X145042373Y-98770943D01*
X145039911Y-98759211D01*
X145037041Y-98747881D01*
X145033772Y-98736956D01*
X145030113Y-98726439D01*
X145026071Y-98716331D01*
X145021656Y-98706634D01*
X145016876Y-98697349D01*
X145011741Y-98688478D01*
X145006256Y-98680022D01*
X145000434Y-98671985D01*
X144994281Y-98664366D01*
X144987806Y-98657169D01*
X144981018Y-98650395D01*
X144973925Y-98644044D01*
X144966537Y-98638121D01*
X144958861Y-98632626D01*
X144950907Y-98627559D01*
X144942682Y-98622924D01*
X144934196Y-98618722D01*
X144925457Y-98614956D01*
X144916473Y-98611626D01*
X144907254Y-98608734D01*
X144897808Y-98606282D01*
X144888143Y-98604273D01*
X144878268Y-98602707D01*
X144868192Y-98601586D01*
X144857923Y-98600912D01*
X144847470Y-98600687D01*
X144837012Y-98600912D01*
X144826729Y-98601586D01*
X144816629Y-98602707D01*
X144806722Y-98604273D01*
X144797019Y-98606282D01*
X144787528Y-98608734D01*
X144778260Y-98611626D01*
X144769223Y-98614955D01*
X144760430Y-98618723D01*
X144751886Y-98622923D01*
X144743604Y-98627558D01*
X144735591Y-98632625D01*
X144727861Y-98638120D01*
X144720418Y-98644044D01*
X144713275Y-98650395D01*
X144706441Y-98657169D01*
X144699926Y-98664366D01*
X144693739Y-98671984D01*
X144687890Y-98680022D01*
X144682388Y-98688477D01*
X144677243Y-98697349D01*
X144672465Y-98706634D01*
X144668063Y-98716331D01*
X144664048Y-98726439D01*
X144660427Y-98736956D01*
X144657212Y-98747880D01*
X144654412Y-98759211D01*
X144652036Y-98770943D01*
X144650094Y-98783078D01*
X144648596Y-98795615D01*
X144647551Y-98808548D01*
X144646969Y-98821879D01*
X144460197Y-98821879D01*
X144460197Y-98821878D01*
X144461075Y-98812522D01*
X144465079Y-98782880D01*
X144470131Y-98754604D01*
X144476189Y-98727669D01*
X144483211Y-98702053D01*
X144491154Y-98677731D01*
X144499976Y-98654680D01*
X144509633Y-98632877D01*
X144520084Y-98612297D01*
X144531285Y-98592917D01*
X144543195Y-98574713D01*
X144555771Y-98557661D01*
X144568969Y-98541739D01*
X144582749Y-98526922D01*
X144597066Y-98513186D01*
X144611879Y-98500508D01*
X144627146Y-98488864D01*
X144642822Y-98478230D01*
X144658867Y-98468584D01*
X144675236Y-98459900D01*
X144691889Y-98452156D01*
X144708782Y-98445327D01*
X144725873Y-98439391D01*
X144743119Y-98434323D01*
X144760477Y-98430099D01*
X144777906Y-98426697D01*
X144812802Y-98422260D01*
X144847470Y-98420823D01*
X144867058Y-98421276D01*
G37*
D11*
X148850000Y-102225000D02*
X148850000Y-113425000D01*
D10*
G36*
X140393228Y-96920389D02*
G01*
X140407249Y-96921391D01*
X140435411Y-96925387D01*
X140463500Y-96932024D01*
X140491241Y-96941282D01*
X140504894Y-96946889D01*
X140518356Y-96953143D01*
X140531590Y-96960044D01*
X140544567Y-96967588D01*
X140557246Y-96975773D01*
X140569597Y-96984597D01*
X140581582Y-96994058D01*
X140593169Y-97004152D01*
X140604322Y-97014879D01*
X140615006Y-97026233D01*
X140625187Y-97038215D01*
X140634831Y-97050821D01*
X140643902Y-97064050D01*
X140652366Y-97077898D01*
X140660189Y-97092363D01*
X140667335Y-97107444D01*
X140673770Y-97123137D01*
X140679460Y-97139439D01*
X140684369Y-97156350D01*
X140688463Y-97173867D01*
X140691708Y-97191985D01*
X140694069Y-97210705D01*
X140695511Y-97230023D01*
X140695999Y-97249936D01*
X140695999Y-97881444D01*
X140504864Y-97881444D01*
X140504864Y-97315607D01*
X140504630Y-97303638D01*
X140503933Y-97291991D01*
X140502784Y-97280671D01*
X140501193Y-97269682D01*
X140499169Y-97259026D01*
X140496722Y-97248708D01*
X140493864Y-97238732D01*
X140490602Y-97229101D01*
X140486948Y-97219819D01*
X140482912Y-97210890D01*
X140478502Y-97202317D01*
X140473730Y-97194105D01*
X140468605Y-97186256D01*
X140463138Y-97178776D01*
X140457337Y-97171667D01*
X140451213Y-97164934D01*
X140444777Y-97158579D01*
X140438037Y-97152607D01*
X140431004Y-97147022D01*
X140423688Y-97141828D01*
X140416099Y-97137026D01*
X140408247Y-97132623D01*
X140400141Y-97128621D01*
X140391792Y-97125025D01*
X140383210Y-97121838D01*
X140374404Y-97119064D01*
X140365384Y-97116706D01*
X140356161Y-97114768D01*
X140346745Y-97113255D01*
X140337145Y-97112169D01*
X140327371Y-97111515D01*
X140317433Y-97111296D01*
X140307328Y-97111515D01*
X140297396Y-97112169D01*
X140287648Y-97113255D01*
X140278093Y-97114768D01*
X140268743Y-97116706D01*
X140259604Y-97119063D01*
X140250688Y-97121838D01*
X140242004Y-97125025D01*
X140233561Y-97128621D01*
X140225369Y-97132623D01*
X140217439Y-97137026D01*
X140209778Y-97141827D01*
X140202398Y-97147022D01*
X140195307Y-97152607D01*
X140188516Y-97158579D01*
X140182033Y-97164933D01*
X140175868Y-97171667D01*
X140170033Y-97178776D01*
X140164533Y-97186256D01*
X140159382Y-97194104D01*
X140154587Y-97202317D01*
X140150159Y-97210889D01*
X140146107Y-97219818D01*
X140142441Y-97229100D01*
X140139170Y-97238731D01*
X140136304Y-97248708D01*
X140133853Y-97259026D01*
X140131826Y-97269681D01*
X140130232Y-97280671D01*
X140129082Y-97291992D01*
X140128385Y-97303638D01*
X140128150Y-97315607D01*
X140128150Y-97881444D01*
X139937015Y-97881444D01*
X139937015Y-96931325D01*
X140128150Y-96931325D01*
X140128150Y-97032502D01*
X140131960Y-97032502D01*
X140143498Y-97018892D01*
X140155636Y-97006158D01*
X140168359Y-96994301D01*
X140181649Y-96983320D01*
X140195490Y-96973219D01*
X140209864Y-96963995D01*
X140224756Y-96955648D01*
X140240148Y-96948180D01*
X140256025Y-96941589D01*
X140272367Y-96935877D01*
X140289160Y-96931043D01*
X140306387Y-96927087D01*
X140324031Y-96924011D01*
X140342073Y-96921813D01*
X140360500Y-96920494D01*
X140379292Y-96920054D01*
X140393228Y-96920389D01*
G37*
D12*
X145910000Y-130080000D02*
X173640000Y-130080000D01*
D10*
G36*
X140426682Y-98421203D02*
G01*
X140440647Y-98422172D01*
X140454324Y-98423766D01*
X140467724Y-98425970D01*
X140480861Y-98428766D01*
X140493741Y-98432139D01*
X140506380Y-98436072D01*
X140518788Y-98440548D01*
X140530976Y-98445551D01*
X140542954Y-98451066D01*
X140554735Y-98457074D01*
X140566329Y-98463561D01*
X140577749Y-98470507D01*
X140589004Y-98477902D01*
X140600107Y-98485722D01*
X140611068Y-98493955D01*
X140472427Y-98658896D01*
X140464139Y-98652797D01*
X140456116Y-98647172D01*
X140448312Y-98642009D01*
X140440684Y-98637298D01*
X140433188Y-98633027D01*
X140425779Y-98629186D01*
X140418414Y-98625763D01*
X140411050Y-98622747D01*
X140403642Y-98620129D01*
X140396144Y-98617895D01*
X140388516Y-98616036D01*
X140380711Y-98614538D01*
X140372687Y-98613393D01*
X140364399Y-98612589D01*
X140355803Y-98612115D01*
X140346855Y-98611960D01*
X140329327Y-98612668D01*
X140311974Y-98614811D01*
X140294929Y-98618416D01*
X140278323Y-98623509D01*
X140270225Y-98626623D01*
X140262285Y-98630119D01*
X140254524Y-98634001D01*
X140246953Y-98638271D01*
X140239591Y-98642935D01*
X140232455Y-98647994D01*
X140225560Y-98653452D01*
X140218923Y-98659313D01*
X140212560Y-98665580D01*
X140206489Y-98672257D01*
X140200725Y-98679346D01*
X140195285Y-98686851D01*
X140190185Y-98694776D01*
X140185443Y-98703124D01*
X140181073Y-98711898D01*
X140177094Y-98721102D01*
X140173522Y-98730739D01*
X140170372Y-98740813D01*
X140167661Y-98751326D01*
X140165407Y-98762283D01*
X140163624Y-98773686D01*
X140162331Y-98785539D01*
X140161543Y-98797845D01*
X140161277Y-98810608D01*
X140161277Y-99382267D01*
X139970141Y-99382267D01*
X139970141Y-98432148D01*
X140161276Y-98432148D01*
X140161276Y-98533325D01*
X140165033Y-98533325D01*
X140176580Y-98519714D01*
X140188727Y-98506980D01*
X140201456Y-98495123D01*
X140214753Y-98484145D01*
X140228599Y-98474042D01*
X140242977Y-98464817D01*
X140257873Y-98456471D01*
X140273268Y-98449002D01*
X140289146Y-98442412D01*
X140305490Y-98436699D01*
X140322285Y-98431865D01*
X140339512Y-98427910D01*
X140357156Y-98424833D01*
X140375199Y-98422635D01*
X140393626Y-98421316D01*
X140412419Y-98420877D01*
X140426682Y-98421203D01*
G37*
G36*
X143248928Y-98421818D02*
G01*
X143290125Y-98424719D01*
X143329354Y-98429687D01*
X143348190Y-98432983D01*
X143366485Y-98436839D01*
X143384223Y-98441269D01*
X143401388Y-98446287D01*
X143417964Y-98451906D01*
X143433935Y-98458142D01*
X143449284Y-98465007D01*
X143463996Y-98472516D01*
X143478054Y-98480684D01*
X143491440Y-98489523D01*
X143504142Y-98499049D01*
X143516142Y-98509274D01*
X143527422Y-98520215D01*
X143537968Y-98531883D01*
X143547763Y-98544294D01*
X143556792Y-98557461D01*
X143565037Y-98571399D01*
X143572483Y-98586121D01*
X143579113Y-98601642D01*
X143584912Y-98617975D01*
X143589863Y-98635135D01*
X143593950Y-98653136D01*
X143597156Y-98671991D01*
X143599468Y-98691714D01*
X143600866Y-98712322D01*
X143601335Y-98733826D01*
X143601335Y-99382267D01*
X143410148Y-99382267D01*
X143410096Y-99382267D01*
X143410095Y-99297918D01*
X143406391Y-99297918D01*
X143398691Y-99309814D01*
X143390321Y-99320881D01*
X143381225Y-99331128D01*
X143371349Y-99340563D01*
X143360638Y-99349195D01*
X143349037Y-99357032D01*
X143336492Y-99364082D01*
X143322948Y-99370355D01*
X143308350Y-99375856D01*
X143292644Y-99380599D01*
X143275775Y-99384588D01*
X143257689Y-99387833D01*
X143238331Y-99390342D01*
X143217645Y-99392123D01*
X143195579Y-99393186D01*
X143172076Y-99393538D01*
X143152481Y-99393173D01*
X143133409Y-99392087D01*
X143114866Y-99390298D01*
X143096858Y-99387821D01*
X143079392Y-99384670D01*
X143062475Y-99380863D01*
X143046114Y-99376414D01*
X143030313Y-99371341D01*
X143015081Y-99365658D01*
X143000424Y-99359382D01*
X142986348Y-99352526D01*
X142972860Y-99345109D01*
X142959966Y-99337146D01*
X142947673Y-99328652D01*
X142935987Y-99319644D01*
X142924915Y-99310134D01*
X142914463Y-99300144D01*
X142904639Y-99289686D01*
X142895448Y-99278776D01*
X142886897Y-99267430D01*
X142878992Y-99255664D01*
X142871741Y-99243494D01*
X142865149Y-99230936D01*
X142859224Y-99218003D01*
X142853971Y-99204715D01*
X142849397Y-99191085D01*
X142845509Y-99177130D01*
X142842313Y-99162865D01*
X142839816Y-99148307D01*
X142838025Y-99133470D01*
X142836945Y-99118372D01*
X142836584Y-99103026D01*
X142836787Y-99093659D01*
X143016606Y-99093659D01*
X143017206Y-99105496D01*
X143019034Y-99117088D01*
X143022132Y-99128364D01*
X143026539Y-99139251D01*
X143029246Y-99144526D01*
X143032297Y-99149678D01*
X143035695Y-99154697D01*
X143039447Y-99159574D01*
X143043556Y-99164301D01*
X143048029Y-99168867D01*
X143052871Y-99173265D01*
X143058087Y-99177486D01*
X143063680Y-99181520D01*
X143069658Y-99185358D01*
X143076025Y-99188993D01*
X143082786Y-99192413D01*
X143089946Y-99195612D01*
X143097510Y-99198578D01*
X143105484Y-99201307D01*
X143113873Y-99203785D01*
X143131914Y-99207958D01*
X143151676Y-99211027D01*
X143173198Y-99212921D01*
X143196523Y-99213569D01*
X143225170Y-99213343D01*
X143251433Y-99212556D01*
X143275384Y-99211039D01*
X143297098Y-99208625D01*
X143307139Y-99207029D01*
X143316649Y-99205145D01*
X143325637Y-99202954D01*
X143334111Y-99200433D01*
X143342083Y-99197563D01*
X143349557Y-99194321D01*
X143356550Y-99190687D01*
X143363065Y-99186640D01*
X143369115Y-99182160D01*
X143374705Y-99177224D01*
X143379849Y-99171813D01*
X143384553Y-99165904D01*
X143388828Y-99159478D01*
X143392682Y-99152514D01*
X143396126Y-99144989D01*
X143399168Y-99136884D01*
X143401817Y-99128178D01*
X143404083Y-99118848D01*
X143405974Y-99108876D01*
X143407502Y-99098239D01*
X143408673Y-99086916D01*
X143409500Y-99074887D01*
X143409987Y-99062131D01*
X143410148Y-99048626D01*
X143410147Y-99048626D01*
X143410147Y-98979253D01*
X143181547Y-98979253D01*
X143171181Y-98979384D01*
X143161164Y-98979776D01*
X143151496Y-98980423D01*
X143142175Y-98981324D01*
X143133200Y-98982472D01*
X143124569Y-98983866D01*
X143116281Y-98985501D01*
X143108336Y-98987373D01*
X143100731Y-98989479D01*
X143093465Y-98991815D01*
X143086536Y-98994376D01*
X143079943Y-98997160D01*
X143073686Y-99000161D01*
X143067762Y-99003379D01*
X143062169Y-99006806D01*
X143056909Y-99010441D01*
X143051976Y-99014278D01*
X143047374Y-99018316D01*
X143043097Y-99022549D01*
X143039145Y-99026974D01*
X143035519Y-99031586D01*
X143032213Y-99036384D01*
X143029230Y-99041361D01*
X143026565Y-99046516D01*
X143024220Y-99051843D01*
X143022192Y-99057340D01*
X143020479Y-99063002D01*
X143019081Y-99068825D01*
X143017996Y-99074806D01*
X143017223Y-99080942D01*
X143016760Y-99087227D01*
X143016606Y-99093659D01*
X142836787Y-99093659D01*
X142836891Y-99088867D01*
X142837813Y-99074859D01*
X142839348Y-99061021D01*
X142841496Y-99047372D01*
X142844255Y-99033934D01*
X142847623Y-99020724D01*
X142851601Y-99007763D01*
X142856186Y-98995071D01*
X142861379Y-98982666D01*
X142867178Y-98970569D01*
X142873581Y-98958799D01*
X142880588Y-98947376D01*
X142888197Y-98936319D01*
X142896408Y-98925647D01*
X142905219Y-98915382D01*
X142914629Y-98905541D01*
X142924638Y-98896145D01*
X142935244Y-98887213D01*
X142946446Y-98878764D01*
X142958243Y-98870820D01*
X142970634Y-98863398D01*
X142983618Y-98856519D01*
X142997194Y-98850202D01*
X143011360Y-98844466D01*
X143026116Y-98839333D01*
X143041460Y-98834820D01*
X143057393Y-98830947D01*
X143073912Y-98827735D01*
X143091015Y-98825203D01*
X143108704Y-98823368D01*
X143126975Y-98822255D01*
X143145829Y-98821879D01*
X143410095Y-98821879D01*
X143410095Y-98722556D01*
X143409409Y-98706371D01*
X143408546Y-98698776D01*
X143407331Y-98691506D01*
X143405760Y-98684557D01*
X143403831Y-98677924D01*
X143401538Y-98671601D01*
X143398878Y-98665585D01*
X143395848Y-98659871D01*
X143392443Y-98654452D01*
X143388660Y-98649326D01*
X143384495Y-98644487D01*
X143379944Y-98639930D01*
X143375003Y-98635651D01*
X143369669Y-98631645D01*
X143363939Y-98627907D01*
X143357806Y-98624433D01*
X143351270Y-98621217D01*
X143336967Y-98615542D01*
X143321001Y-98610845D01*
X143303341Y-98607087D01*
X143283955Y-98604230D01*
X143262814Y-98602237D01*
X143239890Y-98601069D01*
X143215150Y-98600689D01*
X143197133Y-98600913D01*
X143180289Y-98601603D01*
X143164562Y-98602784D01*
X143149892Y-98604481D01*
X143142936Y-98605529D01*
X143136223Y-98606716D01*
X143129745Y-98608043D01*
X143123496Y-98609515D01*
X143117468Y-98611133D01*
X143111654Y-98612901D01*
X143106046Y-98614824D01*
X143100638Y-98616900D01*
X143095423Y-98619137D01*
X143090391Y-98621536D01*
X143085539Y-98624101D01*
X143080856Y-98626834D01*
X143076337Y-98629739D01*
X143071974Y-98632817D01*
X143067760Y-98636073D01*
X143063688Y-98639510D01*
X143059749Y-98643130D01*
X143055938Y-98646938D01*
X143052247Y-98650935D01*
X143048669Y-98655124D01*
X143045196Y-98659511D01*
X143041822Y-98664094D01*
X143038539Y-98668881D01*
X143035339Y-98673872D01*
X142885373Y-98559572D01*
X142899451Y-98541323D01*
X142914286Y-98524533D01*
X142929886Y-98509162D01*
X142946259Y-98495172D01*
X142963412Y-98482525D01*
X142981353Y-98471179D01*
X143000092Y-98461098D01*
X143019636Y-98452243D01*
X143039991Y-98444575D01*
X143061167Y-98438055D01*
X143083171Y-98432645D01*
X143106011Y-98428305D01*
X143129694Y-98424997D01*
X143154230Y-98422682D01*
X143179626Y-98421322D01*
X143205890Y-98420877D01*
X143248928Y-98421818D01*
G37*
G36*
X144504705Y-96920381D02*
G01*
X144518666Y-96921350D01*
X144532338Y-96922944D01*
X144545733Y-96925147D01*
X144558862Y-96927944D01*
X144571737Y-96931317D01*
X144584370Y-96935250D01*
X144596772Y-96939727D01*
X144608955Y-96944729D01*
X144620931Y-96950244D01*
X144632711Y-96956252D01*
X144644308Y-96962739D01*
X144655733Y-96969686D01*
X144666997Y-96977078D01*
X144678112Y-96984899D01*
X144689091Y-96993132D01*
X144550396Y-97158074D01*
X144542110Y-97151993D01*
X144534089Y-97146384D01*
X144526286Y-97141235D01*
X144518661Y-97136536D01*
X144511168Y-97132276D01*
X144503763Y-97128443D01*
X144496401Y-97125028D01*
X144489039Y-97122018D01*
X144481633Y-97119403D01*
X144474137Y-97117172D01*
X144466509Y-97115315D01*
X144458703Y-97113820D01*
X144450676Y-97112676D01*
X144442384Y-97111872D01*
X144433781Y-97111398D01*
X144424825Y-97111242D01*
X144407289Y-97111950D01*
X144389931Y-97114089D01*
X144372884Y-97117690D01*
X144356278Y-97122777D01*
X144348182Y-97125888D01*
X144340245Y-97129381D01*
X144332485Y-97133259D01*
X144324917Y-97137526D01*
X144317558Y-97142187D01*
X144310424Y-97147243D01*
X144303532Y-97152699D01*
X144296899Y-97158557D01*
X144290540Y-97164821D01*
X144284473Y-97171496D01*
X144278713Y-97178584D01*
X144273277Y-97186087D01*
X144268181Y-97194013D01*
X144263443Y-97202361D01*
X144259077Y-97211136D01*
X144255102Y-97220341D01*
X144251532Y-97229980D01*
X144248385Y-97240057D01*
X144245678Y-97250573D01*
X144243425Y-97261536D01*
X144241645Y-97272945D01*
X144240353Y-97284805D01*
X144239565Y-97297119D01*
X144239299Y-97309892D01*
X144239299Y-97881444D01*
X144048111Y-97881444D01*
X144048111Y-96931325D01*
X144239299Y-96931325D01*
X144239299Y-97032502D01*
X144243004Y-97032502D01*
X144254552Y-97018892D01*
X144266700Y-97006158D01*
X144279433Y-96994301D01*
X144292732Y-96983321D01*
X144306581Y-96973219D01*
X144320964Y-96963995D01*
X144335865Y-96955648D01*
X144351265Y-96948180D01*
X144367148Y-96941589D01*
X144383497Y-96935877D01*
X144400296Y-96931043D01*
X144417527Y-96927087D01*
X144435173Y-96924011D01*
X144453220Y-96921813D01*
X144471649Y-96920494D01*
X144490442Y-96920054D01*
X144504705Y-96920381D01*
G37*
G36*
X137561529Y-96920239D02*
G01*
X137574884Y-96920785D01*
X137587896Y-96921678D01*
X137600571Y-96922908D01*
X137612912Y-96924460D01*
X137624925Y-96926322D01*
X137636613Y-96928481D01*
X137647982Y-96930925D01*
X137659035Y-96933641D01*
X137669777Y-96936616D01*
X137680213Y-96939838D01*
X137690347Y-96943295D01*
X137700183Y-96946970D01*
X137709726Y-96950855D01*
X137718980Y-96954936D01*
X137727950Y-96959199D01*
X137745055Y-96968224D01*
X137761076Y-96977828D01*
X137776048Y-96987910D01*
X137790010Y-96998367D01*
X137802992Y-97009099D01*
X137815034Y-97020003D01*
X137826170Y-97030977D01*
X137836436Y-97041921D01*
X137849636Y-97057041D01*
X137861846Y-97072303D01*
X137873085Y-97087894D01*
X137883372Y-97104001D01*
X137892726Y-97120810D01*
X137901166Y-97138509D01*
X137908711Y-97157284D01*
X137915381Y-97177321D01*
X137921193Y-97198809D01*
X137926170Y-97221934D01*
X137930328Y-97246882D01*
X137933687Y-97273840D01*
X137936267Y-97302995D01*
X137938085Y-97334534D01*
X137939162Y-97368644D01*
X137939517Y-97405512D01*
X137939162Y-97442688D01*
X137938085Y-97477070D01*
X137936267Y-97508848D01*
X137933687Y-97538210D01*
X137930328Y-97565345D01*
X137926170Y-97590443D01*
X137921194Y-97613693D01*
X137915381Y-97635283D01*
X137908711Y-97655403D01*
X137901166Y-97674241D01*
X137892726Y-97691988D01*
X137883372Y-97708831D01*
X137873085Y-97724961D01*
X137861846Y-97740565D01*
X137849636Y-97755833D01*
X137836436Y-97770955D01*
X137826170Y-97781897D01*
X137815034Y-97792868D01*
X137802992Y-97803767D01*
X137790010Y-97814491D01*
X137776048Y-97824941D01*
X137761076Y-97835013D01*
X137745055Y-97844608D01*
X137727950Y-97853623D01*
X137709726Y-97861956D01*
X137690346Y-97869509D01*
X137669777Y-97876177D01*
X137647982Y-97881861D01*
X137624925Y-97886457D01*
X137600571Y-97889866D01*
X137574884Y-97891986D01*
X137547828Y-97892715D01*
X137534122Y-97892531D01*
X137520763Y-97891986D01*
X137507747Y-97891094D01*
X137495068Y-97889866D01*
X137482723Y-97888317D01*
X137470707Y-97886458D01*
X137459015Y-97884302D01*
X137447644Y-97881861D01*
X137436588Y-97879149D01*
X137425843Y-97876178D01*
X137415405Y-97872960D01*
X137405269Y-97869509D01*
X137395433Y-97865837D01*
X137385887Y-97861957D01*
X137376631Y-97857882D01*
X137367660Y-97853623D01*
X137350553Y-97844608D01*
X137334531Y-97835014D01*
X137319557Y-97824941D01*
X137305596Y-97814493D01*
X137292612Y-97803767D01*
X137280570Y-97792868D01*
X137269434Y-97781897D01*
X137259168Y-97770955D01*
X137245968Y-97755835D01*
X137233759Y-97740567D01*
X137222523Y-97724965D01*
X137212240Y-97708839D01*
X137202890Y-97691998D01*
X137194454Y-97674255D01*
X137186914Y-97655420D01*
X137180249Y-97635302D01*
X137174441Y-97613714D01*
X137169469Y-97590466D01*
X137165316Y-97565368D01*
X137161961Y-97538232D01*
X137159385Y-97508867D01*
X137157569Y-97477085D01*
X137156493Y-97442697D01*
X137156139Y-97405512D01*
X137347274Y-97405512D01*
X137347409Y-97430358D01*
X137347828Y-97452998D01*
X137348549Y-97473600D01*
X137349592Y-97492332D01*
X137350975Y-97509360D01*
X137352718Y-97524853D01*
X137354841Y-97538979D01*
X137357361Y-97551906D01*
X137360299Y-97563800D01*
X137363673Y-97574831D01*
X137367503Y-97585165D01*
X137371808Y-97594970D01*
X137376607Y-97604414D01*
X137381919Y-97613666D01*
X137387763Y-97622892D01*
X137394158Y-97632260D01*
X137399794Y-97639536D01*
X137406137Y-97646560D01*
X137413151Y-97653301D01*
X137420797Y-97659731D01*
X137429034Y-97665819D01*
X137437827Y-97671535D01*
X137447136Y-97676849D01*
X137456924Y-97681730D01*
X137467151Y-97686151D01*
X137477779Y-97690078D01*
X137488771Y-97693484D01*
X137500087Y-97696338D01*
X137511689Y-97698610D01*
X137523538Y-97700270D01*
X137535598Y-97701288D01*
X137547828Y-97701634D01*
X137560049Y-97701287D01*
X137572100Y-97700268D01*
X137583943Y-97698605D01*
X137595540Y-97696331D01*
X137606851Y-97693473D01*
X137617840Y-97690064D01*
X137628466Y-97686134D01*
X137638693Y-97681711D01*
X137648481Y-97676827D01*
X137657792Y-97671511D01*
X137666588Y-97665795D01*
X137674831Y-97659709D01*
X137682481Y-97653282D01*
X137689502Y-97646544D01*
X137695853Y-97639527D01*
X137698767Y-97635923D01*
X137701498Y-97632260D01*
X137707893Y-97622892D01*
X137713735Y-97613669D01*
X137719044Y-97604427D01*
X137723840Y-97595000D01*
X137728140Y-97585221D01*
X137731966Y-97574928D01*
X137735336Y-97563955D01*
X137738269Y-97552138D01*
X137740784Y-97539309D01*
X137742902Y-97525306D01*
X137744641Y-97509962D01*
X137746020Y-97493113D01*
X137747059Y-97474594D01*
X137747778Y-97454239D01*
X137748329Y-97407364D01*
X137748195Y-97382517D01*
X137747778Y-97359873D01*
X137747059Y-97339267D01*
X137746020Y-97320530D01*
X137744641Y-97303495D01*
X137742902Y-97287995D01*
X137740784Y-97273862D01*
X137738269Y-97260930D01*
X137735336Y-97249031D01*
X137731966Y-97237998D01*
X137728140Y-97227664D01*
X137723840Y-97217861D01*
X137719044Y-97208422D01*
X137713735Y-97199179D01*
X137707893Y-97189966D01*
X137701498Y-97180617D01*
X137695853Y-97173340D01*
X137689501Y-97166316D01*
X137682481Y-97159574D01*
X137674831Y-97153143D01*
X137666588Y-97147056D01*
X137657792Y-97141341D01*
X137648481Y-97136027D01*
X137638693Y-97131145D01*
X137628466Y-97126724D01*
X137617840Y-97122797D01*
X137606850Y-97119391D01*
X137595540Y-97116537D01*
X137583943Y-97114264D01*
X137572100Y-97112606D01*
X137560049Y-97111588D01*
X137547828Y-97111242D01*
X137535597Y-97111588D01*
X137523538Y-97112608D01*
X137511689Y-97114270D01*
X137500087Y-97116545D01*
X137488771Y-97119402D01*
X137477779Y-97122811D01*
X137467151Y-97126741D01*
X137456924Y-97131164D01*
X137447136Y-97136049D01*
X137437827Y-97141364D01*
X137429034Y-97147080D01*
X137420796Y-97153167D01*
X137413151Y-97159594D01*
X137406138Y-97166331D01*
X137399794Y-97173349D01*
X137396885Y-97176952D01*
X137394158Y-97180616D01*
X137387763Y-97189966D01*
X137381919Y-97199176D01*
X137376607Y-97208410D01*
X137371808Y-97217832D01*
X137367503Y-97227608D01*
X137363673Y-97237901D01*
X137360299Y-97248876D01*
X137357361Y-97260699D01*
X137354841Y-97273533D01*
X137352718Y-97287542D01*
X137350975Y-97302893D01*
X137349592Y-97319748D01*
X137348549Y-97338273D01*
X137347828Y-97358631D01*
X137347274Y-97405512D01*
X137156139Y-97405512D01*
X137156493Y-97368645D01*
X137157569Y-97334537D01*
X137159385Y-97303000D01*
X137161962Y-97273847D01*
X137165316Y-97246892D01*
X137169469Y-97221948D01*
X137174441Y-97198826D01*
X137180249Y-97177341D01*
X137186914Y-97157305D01*
X137194454Y-97138532D01*
X137202890Y-97120833D01*
X137212240Y-97104023D01*
X137222523Y-97087913D01*
X137233759Y-97072318D01*
X137245968Y-97057049D01*
X137259168Y-97041921D01*
X137269434Y-97030977D01*
X137280570Y-97020003D01*
X137292612Y-97009099D01*
X137305596Y-96998368D01*
X137319557Y-96987910D01*
X137334532Y-96977829D01*
X137350553Y-96968224D01*
X137367660Y-96959199D01*
X137385887Y-96950855D01*
X137405269Y-96943294D01*
X137425843Y-96936617D01*
X137447644Y-96930924D01*
X137470707Y-96926323D01*
X137495068Y-96922908D01*
X137520763Y-96920785D01*
X137547828Y-96920054D01*
X137561529Y-96920239D01*
G37*
G36*
X142538404Y-96920239D02*
G01*
X142551767Y-96920785D01*
X142564787Y-96921678D01*
X142577470Y-96922908D01*
X142589816Y-96924460D01*
X142601834Y-96926322D01*
X142613528Y-96928481D01*
X142624900Y-96930925D01*
X142635957Y-96933641D01*
X142646702Y-96936616D01*
X142657140Y-96939838D01*
X142667276Y-96943294D01*
X142677113Y-96946970D01*
X142686658Y-96950855D01*
X142695911Y-96954936D01*
X142704881Y-96959199D01*
X142721986Y-96968224D01*
X142738005Y-96977828D01*
X142752976Y-96987910D01*
X142766934Y-96998367D01*
X142779915Y-97009099D01*
X142791954Y-97020003D01*
X142803089Y-97030977D01*
X142813354Y-97041920D01*
X142826554Y-97057041D01*
X142838762Y-97072303D01*
X142849999Y-97087894D01*
X142860282Y-97104002D01*
X142869632Y-97120810D01*
X142878066Y-97138509D01*
X142885608Y-97157284D01*
X142892272Y-97177321D01*
X142898081Y-97198809D01*
X142903052Y-97221934D01*
X142907206Y-97246882D01*
X142910561Y-97273840D01*
X142913137Y-97302995D01*
X142914953Y-97334534D01*
X142916028Y-97368644D01*
X142916383Y-97405513D01*
X142916028Y-97442688D01*
X142914953Y-97477070D01*
X142913137Y-97508848D01*
X142910561Y-97538210D01*
X142907206Y-97565345D01*
X142903052Y-97590443D01*
X142898081Y-97613693D01*
X142892272Y-97635283D01*
X142885608Y-97655403D01*
X142878067Y-97674242D01*
X142869632Y-97691988D01*
X142860282Y-97708831D01*
X142849999Y-97724962D01*
X142838762Y-97740565D01*
X142826554Y-97755833D01*
X142813354Y-97770955D01*
X142803089Y-97781897D01*
X142791954Y-97792868D01*
X142779915Y-97803767D01*
X142766934Y-97814491D01*
X142752976Y-97824941D01*
X142738005Y-97835013D01*
X142721986Y-97844608D01*
X142704881Y-97853622D01*
X142686657Y-97861957D01*
X142667275Y-97869509D01*
X142646702Y-97876177D01*
X142624900Y-97881861D01*
X142601834Y-97886457D01*
X142577469Y-97889866D01*
X142551767Y-97891986D01*
X142524693Y-97892715D01*
X142510992Y-97892531D01*
X142497638Y-97891986D01*
X142484626Y-97891094D01*
X142471953Y-97889866D01*
X142459613Y-97888317D01*
X142447601Y-97886457D01*
X142435915Y-97884301D01*
X142424548Y-97881861D01*
X142413497Y-97879149D01*
X142402756Y-97876178D01*
X142392323Y-97872960D01*
X142382191Y-97869509D01*
X142372358Y-97865837D01*
X142362817Y-97861957D01*
X142353565Y-97857882D01*
X142344598Y-97853623D01*
X142327498Y-97844608D01*
X142311482Y-97835014D01*
X142296513Y-97824941D01*
X142282557Y-97814492D01*
X142269577Y-97803766D01*
X142257538Y-97792868D01*
X142246404Y-97781897D01*
X142236139Y-97770955D01*
X142222938Y-97755834D01*
X142210726Y-97740567D01*
X142199484Y-97724965D01*
X142189194Y-97708839D01*
X142179837Y-97691998D01*
X142171392Y-97674255D01*
X142163842Y-97655420D01*
X142157167Y-97635302D01*
X142151349Y-97613714D01*
X142146368Y-97590466D01*
X142142206Y-97565368D01*
X142138843Y-97538232D01*
X142136260Y-97508867D01*
X142134439Y-97477085D01*
X142133360Y-97442697D01*
X142133004Y-97405512D01*
X142324192Y-97405512D01*
X142324327Y-97430357D01*
X142324746Y-97452998D01*
X142325467Y-97473600D01*
X142326510Y-97492332D01*
X142327894Y-97509360D01*
X142329639Y-97524853D01*
X142331763Y-97538979D01*
X142334286Y-97551906D01*
X142337226Y-97563800D01*
X142340604Y-97574831D01*
X142344438Y-97585165D01*
X142348748Y-97594970D01*
X142353554Y-97604414D01*
X142358872Y-97613666D01*
X142364725Y-97622892D01*
X142371129Y-97632260D01*
X142376747Y-97639536D01*
X142383077Y-97646560D01*
X142390082Y-97653301D01*
X142397720Y-97659731D01*
X142405955Y-97665819D01*
X142414746Y-97671535D01*
X142424054Y-97676849D01*
X142433842Y-97681731D01*
X142444069Y-97686150D01*
X142454696Y-97690078D01*
X142465687Y-97693484D01*
X142476998Y-97696338D01*
X142488594Y-97698610D01*
X142500435Y-97700270D01*
X142512480Y-97701288D01*
X142524693Y-97701634D01*
X142536923Y-97701287D01*
X142548982Y-97700268D01*
X142560832Y-97698605D01*
X142572435Y-97696331D01*
X142583750Y-97693473D01*
X142594742Y-97690064D01*
X142605370Y-97686133D01*
X142615597Y-97681711D01*
X142625385Y-97676827D01*
X142634694Y-97671511D01*
X142643487Y-97665795D01*
X142651724Y-97659709D01*
X142659370Y-97653282D01*
X142666384Y-97646544D01*
X142672728Y-97639527D01*
X142675636Y-97635923D01*
X142678363Y-97632260D01*
X142684767Y-97622892D01*
X142690615Y-97613669D01*
X142695929Y-97604427D01*
X142700727Y-97594999D01*
X142705029Y-97585221D01*
X142708854Y-97574928D01*
X142712223Y-97563955D01*
X142715154Y-97552138D01*
X142717666Y-97539309D01*
X142719781Y-97525306D01*
X142721516Y-97509962D01*
X142722893Y-97493113D01*
X142723928Y-97474594D01*
X142724645Y-97454239D01*
X142725195Y-97407365D01*
X142725060Y-97382517D01*
X142724645Y-97359873D01*
X142723929Y-97339267D01*
X142722893Y-97320530D01*
X142721516Y-97303495D01*
X142719781Y-97287995D01*
X142717666Y-97273862D01*
X142715154Y-97260930D01*
X142712223Y-97249031D01*
X142708854Y-97237998D01*
X142705029Y-97227664D01*
X142700727Y-97217861D01*
X142695929Y-97208421D01*
X142690615Y-97199179D01*
X142684767Y-97189966D01*
X142678362Y-97180616D01*
X142672728Y-97173340D01*
X142666383Y-97166316D01*
X142659370Y-97159574D01*
X142651725Y-97153144D01*
X142643487Y-97147056D01*
X142634694Y-97141341D01*
X142625385Y-97136027D01*
X142615597Y-97131145D01*
X142605370Y-97126725D01*
X142594742Y-97122796D01*
X142583749Y-97119391D01*
X142572435Y-97116536D01*
X142560832Y-97114264D01*
X142548983Y-97112606D01*
X142536923Y-97111588D01*
X142524693Y-97111242D01*
X142512479Y-97111588D01*
X142500434Y-97112608D01*
X142488594Y-97114270D01*
X142476998Y-97116545D01*
X142465686Y-97119402D01*
X142454696Y-97122811D01*
X142444069Y-97126742D01*
X142433842Y-97131165D01*
X142424054Y-97136049D01*
X142414746Y-97141364D01*
X142405955Y-97147080D01*
X142397720Y-97153167D01*
X142390082Y-97159594D01*
X142383077Y-97166331D01*
X142376747Y-97173349D01*
X142373845Y-97176953D01*
X142371129Y-97180616D01*
X142364725Y-97189966D01*
X142358872Y-97199176D01*
X142353553Y-97208409D01*
X142348748Y-97217832D01*
X142344438Y-97227608D01*
X142340604Y-97237901D01*
X142337226Y-97248876D01*
X142334286Y-97260699D01*
X142331763Y-97273533D01*
X142329639Y-97287542D01*
X142327893Y-97302893D01*
X142326510Y-97319748D01*
X142325467Y-97338273D01*
X142324746Y-97358632D01*
X142324192Y-97405512D01*
X142133004Y-97405512D01*
X142133360Y-97368645D01*
X142134439Y-97334537D01*
X142136260Y-97303000D01*
X142138844Y-97273847D01*
X142142206Y-97246892D01*
X142146368Y-97221948D01*
X142151349Y-97198826D01*
X142157167Y-97177341D01*
X142163842Y-97157305D01*
X142171392Y-97138532D01*
X142179837Y-97120833D01*
X142189194Y-97104023D01*
X142199484Y-97087913D01*
X142210726Y-97072318D01*
X142222938Y-97057049D01*
X142236139Y-97041921D01*
X142246404Y-97030977D01*
X142257538Y-97020003D01*
X142269577Y-97009099D01*
X142282557Y-96998368D01*
X142296514Y-96987910D01*
X142311482Y-96977829D01*
X142327498Y-96968224D01*
X142344598Y-96959200D01*
X142362817Y-96950855D01*
X142382191Y-96943294D01*
X142402756Y-96936617D01*
X142424548Y-96930925D01*
X142447602Y-96926322D01*
X142471953Y-96922909D01*
X142497639Y-96920785D01*
X142524693Y-96920054D01*
X142538404Y-96920239D01*
G37*
G36*
X144267832Y-98421203D02*
G01*
X144281784Y-98422172D01*
X144295452Y-98423766D01*
X144308847Y-98425970D01*
X144321981Y-98428766D01*
X144334863Y-98432139D01*
X144347504Y-98436072D01*
X144359915Y-98440548D01*
X144372109Y-98445552D01*
X144384094Y-98451066D01*
X144395881Y-98457074D01*
X144407482Y-98463561D01*
X144418906Y-98470508D01*
X144430167Y-98477901D01*
X144441273Y-98485721D01*
X144452236Y-98493955D01*
X144313541Y-98658896D01*
X144305254Y-98652797D01*
X144297233Y-98647171D01*
X144289431Y-98642008D01*
X144281806Y-98637297D01*
X144274312Y-98633027D01*
X144266907Y-98629186D01*
X144259546Y-98625763D01*
X144252183Y-98622748D01*
X144244777Y-98620129D01*
X144237282Y-98617895D01*
X144229653Y-98616036D01*
X144221848Y-98614538D01*
X144213821Y-98613393D01*
X144205528Y-98612589D01*
X144196926Y-98612115D01*
X144187970Y-98611960D01*
X144170434Y-98612668D01*
X144153076Y-98614811D01*
X144136029Y-98618416D01*
X144119423Y-98623509D01*
X144111326Y-98626623D01*
X144103390Y-98630119D01*
X144095629Y-98634001D01*
X144088061Y-98638271D01*
X144080702Y-98642935D01*
X144073569Y-98647994D01*
X144066677Y-98653452D01*
X144060044Y-98659313D01*
X144053685Y-98665580D01*
X144047617Y-98672257D01*
X144041857Y-98679346D01*
X144036420Y-98686851D01*
X144031326Y-98694776D01*
X144026587Y-98703124D01*
X144022222Y-98711898D01*
X144018246Y-98721102D01*
X144014678Y-98730739D01*
X144011530Y-98740813D01*
X144008822Y-98751326D01*
X144006570Y-98762283D01*
X144004790Y-98773686D01*
X144003498Y-98785539D01*
X144002710Y-98797845D01*
X144002445Y-98810608D01*
X144002444Y-99382266D01*
X143811362Y-99382267D01*
X143811362Y-98432148D01*
X144002444Y-98432148D01*
X144002444Y-98533325D01*
X144006254Y-98533325D01*
X144017800Y-98519714D01*
X144029945Y-98506980D01*
X144042672Y-98495122D01*
X144055966Y-98484144D01*
X144069806Y-98474042D01*
X144084181Y-98464817D01*
X144099072Y-98456471D01*
X144114462Y-98449002D01*
X144130335Y-98442412D01*
X144146675Y-98436699D01*
X144163464Y-98431865D01*
X144180688Y-98427911D01*
X144198328Y-98424832D01*
X144216369Y-98422635D01*
X144234794Y-98421316D01*
X144253586Y-98420877D01*
X144267832Y-98421203D01*
G37*
D11*
X148350000Y-101725000D02*
G75*
G02*
X148850000Y-102225000I0J-500000D01*
G01*
D10*
G36*
X143270660Y-97497269D02*
G01*
X143270895Y-97509229D01*
X143271593Y-97520867D01*
X143272742Y-97532180D01*
X143274335Y-97543164D01*
X143276362Y-97553815D01*
X143278814Y-97564129D01*
X143281679Y-97574102D01*
X143284950Y-97583730D01*
X143288616Y-97593011D01*
X143292666Y-97601939D01*
X143297095Y-97610511D01*
X143301889Y-97618724D01*
X143307038Y-97626574D01*
X143312538Y-97634056D01*
X143318373Y-97641167D01*
X143324536Y-97647902D01*
X143331016Y-97654260D01*
X143337807Y-97660234D01*
X143344897Y-97665823D01*
X143352275Y-97671021D01*
X143359934Y-97675825D01*
X143367862Y-97680231D01*
X143376051Y-97684236D01*
X143384491Y-97687835D01*
X143393172Y-97691026D01*
X143402085Y-97693803D01*
X143411221Y-97696163D01*
X143420568Y-97698103D01*
X143430118Y-97699617D01*
X143439862Y-97700705D01*
X143449789Y-97701360D01*
X143459890Y-97701580D01*
X143469832Y-97701361D01*
X143479611Y-97700705D01*
X143489215Y-97699618D01*
X143498635Y-97698103D01*
X143507862Y-97696163D01*
X143516885Y-97693803D01*
X143525693Y-97691026D01*
X143534278Y-97687835D01*
X143542631Y-97684236D01*
X143550739Y-97680231D01*
X143558593Y-97675825D01*
X143566185Y-97671021D01*
X143573502Y-97665823D01*
X143580537Y-97660234D01*
X143587277Y-97654260D01*
X143593716Y-97647902D01*
X143599841Y-97641167D01*
X143605642Y-97634056D01*
X143611111Y-97626574D01*
X143616237Y-97618724D01*
X143621010Y-97610512D01*
X143625420Y-97601939D01*
X143629457Y-97593011D01*
X143633111Y-97583730D01*
X143636372Y-97574102D01*
X143639232Y-97564129D01*
X143641678Y-97553816D01*
X143643702Y-97543164D01*
X143645293Y-97532180D01*
X143646443Y-97520867D01*
X143647139Y-97509229D01*
X143647374Y-97497269D01*
X143647375Y-96931324D01*
X143838456Y-96931324D01*
X143838456Y-97881550D01*
X143647374Y-97881550D01*
X143647374Y-97780267D01*
X143643670Y-97780267D01*
X143632122Y-97793878D01*
X143619977Y-97806612D01*
X143607254Y-97818469D01*
X143593972Y-97829448D01*
X143580152Y-97839550D01*
X143565812Y-97848774D01*
X143550973Y-97857121D01*
X143535653Y-97864589D01*
X143519874Y-97871180D01*
X143503654Y-97876892D01*
X143487014Y-97881726D01*
X143469972Y-97885681D01*
X143452549Y-97888759D01*
X143434765Y-97890956D01*
X143416638Y-97892275D01*
X143398189Y-97892714D01*
X143384086Y-97892380D01*
X143369906Y-97891378D01*
X143341457Y-97887382D01*
X143313118Y-97880746D01*
X143299074Y-97876444D01*
X143285162Y-97871487D01*
X143271413Y-97865883D01*
X143257864Y-97859629D01*
X143244547Y-97852729D01*
X143231500Y-97845186D01*
X143218752Y-97837003D01*
X143206341Y-97828180D01*
X143194301Y-97818722D01*
X143182666Y-97808631D01*
X143171470Y-97797907D01*
X143160748Y-97786555D01*
X143150533Y-97774576D01*
X143140860Y-97761974D01*
X143131765Y-97748749D01*
X143123279Y-97734906D01*
X143115440Y-97720445D01*
X143108279Y-97705370D01*
X143101833Y-97689683D01*
X143096134Y-97673387D01*
X143091218Y-97656483D01*
X143087119Y-97638974D01*
X143083871Y-97620863D01*
X143081509Y-97602151D01*
X143080066Y-97582843D01*
X143079578Y-97562938D01*
X143079578Y-96931324D01*
X143270661Y-96931324D01*
X143270660Y-97497269D01*
G37*
D11*
X134950000Y-113425000D02*
X134950000Y-102225000D01*
D10*
G36*
X145110778Y-96920256D02*
G01*
X145124039Y-96920855D01*
X145137124Y-96921846D01*
X145150033Y-96923219D01*
X145175322Y-96927081D01*
X145199901Y-96932379D01*
X145223768Y-96939049D01*
X145246920Y-96947030D01*
X145269353Y-96956257D01*
X145291064Y-96966667D01*
X145312050Y-96978197D01*
X145332310Y-96990786D01*
X145351836Y-97004368D01*
X145370628Y-97018883D01*
X145388683Y-97034266D01*
X145405998Y-97050454D01*
X145422568Y-97067385D01*
X145438391Y-97084995D01*
X145297844Y-97210566D01*
X145288832Y-97199876D01*
X145279348Y-97189617D01*
X145269407Y-97179825D01*
X145259021Y-97170535D01*
X145248206Y-97161784D01*
X145236975Y-97153606D01*
X145225342Y-97146038D01*
X145213323Y-97139116D01*
X145200930Y-97132874D01*
X145188177Y-97127350D01*
X145175080Y-97122577D01*
X145161651Y-97118590D01*
X145147906Y-97115429D01*
X145133858Y-97113126D01*
X145119521Y-97111719D01*
X145104910Y-97111242D01*
X145076492Y-97112281D01*
X145049611Y-97115431D01*
X145036758Y-97117811D01*
X145024304Y-97120738D01*
X145012254Y-97124216D01*
X145000614Y-97128249D01*
X144989389Y-97132846D01*
X144978583Y-97138011D01*
X144968202Y-97143750D01*
X144958251Y-97150069D01*
X144948735Y-97156974D01*
X144939659Y-97164471D01*
X144931029Y-97172566D01*
X144922850Y-97181264D01*
X144915126Y-97190571D01*
X144907864Y-97200493D01*
X144901066Y-97211037D01*
X144894742Y-97222206D01*
X144888893Y-97234009D01*
X144883526Y-97246450D01*
X144878645Y-97259536D01*
X144874256Y-97273271D01*
X144870364Y-97287662D01*
X144866975Y-97302715D01*
X144864092Y-97318436D01*
X144861723Y-97334830D01*
X144858541Y-97369662D01*
X144857472Y-97407258D01*
X144857740Y-97426245D01*
X144858542Y-97444547D01*
X144859872Y-97462168D01*
X144861725Y-97479113D01*
X144864096Y-97495389D01*
X144866979Y-97510999D01*
X144870370Y-97525952D01*
X144874263Y-97540251D01*
X144878654Y-97553902D01*
X144883536Y-97566911D01*
X144888905Y-97579282D01*
X144894756Y-97591022D01*
X144901083Y-97602136D01*
X144907881Y-97612630D01*
X144915145Y-97622508D01*
X144922870Y-97631776D01*
X144931051Y-97640441D01*
X144939681Y-97648507D01*
X144948759Y-97655979D01*
X144958274Y-97662864D01*
X144968226Y-97669167D01*
X144978606Y-97674893D01*
X144989412Y-97680047D01*
X145000637Y-97684636D01*
X145012276Y-97688665D01*
X145024324Y-97692138D01*
X145036776Y-97695062D01*
X145049626Y-97697442D01*
X145062870Y-97699284D01*
X145076502Y-97700593D01*
X145090517Y-97701374D01*
X145104910Y-97701633D01*
X145112249Y-97701513D01*
X145119521Y-97701156D01*
X145126723Y-97700566D01*
X145133856Y-97699748D01*
X145147901Y-97697447D01*
X145161644Y-97694284D01*
X145175070Y-97690299D01*
X145188163Y-97685525D01*
X145200912Y-97680002D01*
X145213303Y-97673759D01*
X145225321Y-97666837D01*
X145236952Y-97659269D01*
X145248182Y-97651091D01*
X145258999Y-97642340D01*
X145269387Y-97633050D01*
X145279333Y-97623258D01*
X145288822Y-97612999D01*
X145297844Y-97602308D01*
X145438390Y-97727879D01*
X145422577Y-97745462D01*
X145406015Y-97762370D01*
X145388708Y-97778539D01*
X145370658Y-97793907D01*
X145351869Y-97808410D01*
X145332346Y-97821985D01*
X145312089Y-97834567D01*
X145291103Y-97846095D01*
X145269390Y-97856503D01*
X145246956Y-97865730D01*
X145223802Y-97873711D01*
X145199930Y-97880384D01*
X145175346Y-97885683D01*
X145150051Y-97889547D01*
X145124048Y-97891912D01*
X145097342Y-97892714D01*
X145056372Y-97891073D01*
X145015878Y-97886082D01*
X144976157Y-97877638D01*
X144937508Y-97865640D01*
X144918680Y-97858276D01*
X144900232Y-97849984D01*
X144882201Y-97840755D01*
X144864626Y-97830572D01*
X144847544Y-97819425D01*
X144830991Y-97807298D01*
X144815006Y-97794182D01*
X144799626Y-97780061D01*
X144784889Y-97764925D01*
X144770831Y-97748760D01*
X144757490Y-97731553D01*
X144744903Y-97713291D01*
X144733109Y-97693963D01*
X144722143Y-97673554D01*
X144712045Y-97652052D01*
X144702851Y-97629446D01*
X144694598Y-97605720D01*
X144687324Y-97580863D01*
X144681067Y-97554863D01*
X144675863Y-97527706D01*
X144671751Y-97499380D01*
X144668768Y-97469872D01*
X144666950Y-97439168D01*
X144666336Y-97407258D01*
X144666950Y-97375197D01*
X144668768Y-97344353D01*
X144671752Y-97314713D01*
X144675863Y-97286263D01*
X144681067Y-97258990D01*
X144687324Y-97232881D01*
X144694598Y-97207924D01*
X144702851Y-97184105D01*
X144712045Y-97161411D01*
X144722143Y-97139829D01*
X144733109Y-97119346D01*
X144744903Y-97099950D01*
X144757490Y-97081626D01*
X144770831Y-97064363D01*
X144784889Y-97048147D01*
X144799626Y-97032965D01*
X144815006Y-97018803D01*
X144830991Y-97005650D01*
X144847544Y-96993491D01*
X144864626Y-96982316D01*
X144882201Y-96972109D01*
X144900232Y-96962857D01*
X144918680Y-96954549D01*
X144937508Y-96947170D01*
X144956680Y-96940708D01*
X144976158Y-96935150D01*
X144995902Y-96930482D01*
X145015878Y-96926694D01*
X145036048Y-96923769D01*
X145056372Y-96921696D01*
X145097342Y-96920054D01*
X145110778Y-96920256D01*
G37*
G36*
X142163019Y-89815989D02*
G01*
X142165033Y-89816139D01*
X142167038Y-89816386D01*
X142169028Y-89816726D01*
X142171005Y-89817159D01*
X142172961Y-89817681D01*
X142174896Y-89818289D01*
X142176807Y-89818983D01*
X142178688Y-89819758D01*
X142180539Y-89820612D01*
X142182356Y-89821544D01*
X142184136Y-89822550D01*
X142185877Y-89823628D01*
X142187574Y-89824776D01*
X142189226Y-89825990D01*
X142190829Y-89827270D01*
X142192380Y-89828611D01*
X142193877Y-89830013D01*
X142195315Y-89831471D01*
X142196693Y-89832984D01*
X142198006Y-89834550D01*
X142199255Y-89836165D01*
X142200433Y-89837828D01*
X142201538Y-89839536D01*
X142202567Y-89841286D01*
X142203518Y-89843076D01*
X142204388Y-89844903D01*
X142205172Y-89846765D01*
X142205869Y-89848660D01*
X142206475Y-89850585D01*
X142206989Y-89852538D01*
X142207405Y-89854515D01*
X142374887Y-90754258D01*
X142375311Y-90756251D01*
X142375824Y-90758251D01*
X142377111Y-90762259D01*
X142378727Y-90766254D01*
X142380649Y-90770211D01*
X142382853Y-90774103D01*
X142385319Y-90777903D01*
X142388022Y-90781587D01*
X142390940Y-90785128D01*
X142394052Y-90788499D01*
X142397333Y-90791675D01*
X142400763Y-90794629D01*
X142404317Y-90797336D01*
X142407975Y-90799768D01*
X142411712Y-90801901D01*
X142413604Y-90802847D01*
X142415507Y-90803708D01*
X142417419Y-90804481D01*
X142419336Y-90805163D01*
X143022375Y-91052019D01*
X143026121Y-91053669D01*
X143030094Y-91055046D01*
X143034259Y-91056155D01*
X143038581Y-91056996D01*
X143043024Y-91057573D01*
X143047555Y-91057888D01*
X143052138Y-91057943D01*
X143056737Y-91057741D01*
X143061319Y-91057284D01*
X143065847Y-91056575D01*
X143070288Y-91055615D01*
X143074606Y-91054407D01*
X143078766Y-91052956D01*
X143082733Y-91051260D01*
X143086472Y-91049325D01*
X143089949Y-91047151D01*
X143841629Y-90531319D01*
X143843323Y-90530216D01*
X143845067Y-90529199D01*
X143846856Y-90528268D01*
X143848689Y-90527421D01*
X143850559Y-90526660D01*
X143852465Y-90525982D01*
X143854401Y-90525389D01*
X143856366Y-90524880D01*
X143858352Y-90524454D01*
X143860359Y-90524111D01*
X143864415Y-90523673D01*
X143868503Y-90523563D01*
X143872593Y-90523779D01*
X143876654Y-90524317D01*
X143880655Y-90525174D01*
X143884566Y-90526348D01*
X143886477Y-90527054D01*
X143888355Y-90527837D01*
X143890195Y-90528698D01*
X143891993Y-90529637D01*
X143893745Y-90530652D01*
X143895449Y-90531745D01*
X143897099Y-90532914D01*
X143898692Y-90534159D01*
X143900224Y-90535479D01*
X143901690Y-90536876D01*
X144534733Y-91169918D01*
X144536129Y-91171385D01*
X144537449Y-91172918D01*
X144538693Y-91174511D01*
X144539861Y-91176162D01*
X144540950Y-91177866D01*
X144541963Y-91179621D01*
X144543758Y-91183262D01*
X144545240Y-91187055D01*
X144546407Y-91190970D01*
X144547258Y-91194976D01*
X144547789Y-91199042D01*
X144548002Y-91203136D01*
X144547889Y-91207230D01*
X144547451Y-91211290D01*
X144546684Y-91215288D01*
X144545587Y-91219192D01*
X144544914Y-91221098D01*
X144544157Y-91222970D01*
X144543316Y-91224803D01*
X144542392Y-91226594D01*
X144541383Y-91228337D01*
X144540289Y-91230031D01*
X144033453Y-91968748D01*
X144031273Y-91972239D01*
X144029338Y-91975985D01*
X144027651Y-91979950D01*
X144026213Y-91984101D01*
X144025028Y-91988403D01*
X144024095Y-91992823D01*
X144023419Y-91997327D01*
X144023002Y-92001880D01*
X144022845Y-92006449D01*
X144022950Y-92010999D01*
X144023320Y-92015496D01*
X144023957Y-92019907D01*
X144024863Y-92024198D01*
X144026041Y-92028333D01*
X144027493Y-92032280D01*
X144029219Y-92036005D01*
X144295867Y-92658093D01*
X144297390Y-92661913D01*
X144299262Y-92665698D01*
X144301458Y-92669425D01*
X144303949Y-92673073D01*
X144306711Y-92676617D01*
X144309717Y-92680037D01*
X144312939Y-92683309D01*
X144316353Y-92686410D01*
X144319931Y-92689319D01*
X144323646Y-92692012D01*
X144327473Y-92694467D01*
X144331385Y-92696662D01*
X144335355Y-92698573D01*
X144339359Y-92700179D01*
X144343367Y-92701456D01*
X144347355Y-92702384D01*
X145217252Y-92864150D01*
X145219225Y-92864576D01*
X145221174Y-92865098D01*
X145223093Y-92865712D01*
X145224983Y-92866416D01*
X145226843Y-92867207D01*
X145228667Y-92868082D01*
X145230453Y-92869039D01*
X145232199Y-92870071D01*
X145235564Y-92872361D01*
X145238740Y-92874928D01*
X145241706Y-92877749D01*
X145244444Y-92880799D01*
X145246934Y-92884056D01*
X145249154Y-92887496D01*
X145251086Y-92891096D01*
X145251938Y-92892948D01*
X145252710Y-92894831D01*
X145253400Y-92896743D01*
X145254006Y-92898678D01*
X145254524Y-92900638D01*
X145254953Y-92902616D01*
X145255289Y-92904611D01*
X145255532Y-92906619D01*
X145255677Y-92908638D01*
X145255722Y-92910665D01*
X145255616Y-93805961D01*
X145255567Y-93807983D01*
X145255416Y-93809998D01*
X145255169Y-93812004D01*
X145254827Y-93813998D01*
X145254393Y-93815975D01*
X145253869Y-93817935D01*
X145253260Y-93819872D01*
X145252565Y-93821785D01*
X145251789Y-93823671D01*
X145250933Y-93825526D01*
X145249999Y-93827346D01*
X145248992Y-93829131D01*
X145247911Y-93830875D01*
X145246762Y-93832577D01*
X145245547Y-93834232D01*
X145244266Y-93835839D01*
X145242923Y-93837394D01*
X145241521Y-93838894D01*
X145240063Y-93840336D01*
X145238548Y-93841716D01*
X145236982Y-93843033D01*
X145235367Y-93844283D01*
X145233704Y-93845462D01*
X145231998Y-93846569D01*
X145230249Y-93847599D01*
X145228460Y-93848550D01*
X145226635Y-93849418D01*
X145224775Y-93850202D01*
X145222883Y-93850897D01*
X145220962Y-93851500D01*
X145219014Y-93852010D01*
X145217041Y-93852422D01*
X144368522Y-94010325D01*
X144366524Y-94010735D01*
X144364522Y-94011236D01*
X144362519Y-94011828D01*
X144360518Y-94012507D01*
X144356536Y-94014113D01*
X144352599Y-94016030D01*
X144348735Y-94018237D01*
X144344966Y-94020710D01*
X144341321Y-94023425D01*
X144337823Y-94026359D01*
X144334498Y-94029489D01*
X144331371Y-94032792D01*
X144328468Y-94036245D01*
X144325815Y-94039823D01*
X144323435Y-94043506D01*
X144321356Y-94047266D01*
X144319601Y-94051083D01*
X144318854Y-94053006D01*
X144318197Y-94054934D01*
X144053298Y-94716657D01*
X144051658Y-94720420D01*
X144050292Y-94724407D01*
X144049196Y-94728581D01*
X144048366Y-94732908D01*
X144047802Y-94737354D01*
X144047499Y-94741884D01*
X144047455Y-94746464D01*
X144047668Y-94751059D01*
X144048134Y-94755635D01*
X144048851Y-94760157D01*
X144049817Y-94764591D01*
X144051027Y-94768903D01*
X144052481Y-94773057D01*
X144054174Y-94777019D01*
X144056105Y-94780756D01*
X144058271Y-94784231D01*
X144540288Y-95486594D01*
X144541392Y-95488288D01*
X144542408Y-95490032D01*
X144543340Y-95491823D01*
X144544186Y-95493656D01*
X144544948Y-95495530D01*
X144545625Y-95497439D01*
X144546218Y-95499378D01*
X144546727Y-95501346D01*
X144547153Y-95503337D01*
X144547496Y-95505347D01*
X144547934Y-95509412D01*
X144548044Y-95513511D01*
X144547829Y-95517610D01*
X144547291Y-95521681D01*
X144546434Y-95525690D01*
X144545259Y-95529611D01*
X144544554Y-95531527D01*
X144543771Y-95533408D01*
X144542910Y-95535252D01*
X144541971Y-95537053D01*
X144540956Y-95538808D01*
X144539863Y-95540514D01*
X144538694Y-95542166D01*
X144537449Y-95543760D01*
X144536129Y-95545293D01*
X144534732Y-95546761D01*
X143901584Y-96179802D01*
X143900126Y-96181189D01*
X143898602Y-96182501D01*
X143897016Y-96183737D01*
X143895372Y-96184899D01*
X143893674Y-96185984D01*
X143891926Y-96186994D01*
X143888294Y-96188782D01*
X143884506Y-96190262D01*
X143880595Y-96191430D01*
X143876591Y-96192284D01*
X143872526Y-96192820D01*
X143868431Y-96193037D01*
X143864336Y-96192931D01*
X143860274Y-96192499D01*
X143856274Y-96191739D01*
X143852368Y-96190647D01*
X143850461Y-96189977D01*
X143848587Y-96189222D01*
X143846752Y-96188383D01*
X143844962Y-96187460D01*
X143843218Y-96186452D01*
X143841524Y-96185360D01*
X143151543Y-95711808D01*
X143148075Y-95709648D01*
X143144360Y-95707755D01*
X143140433Y-95706129D01*
X143136327Y-95704770D01*
X143132075Y-95703678D01*
X143127712Y-95702856D01*
X143123272Y-95702302D01*
X143118787Y-95702018D01*
X143114294Y-95702005D01*
X143109823Y-95702262D01*
X143105413Y-95702791D01*
X143101091Y-95703593D01*
X143096895Y-95704667D01*
X143092859Y-95706014D01*
X143089015Y-95707636D01*
X143085398Y-95709533D01*
X142781127Y-95871985D01*
X142779307Y-95872852D01*
X142777473Y-95873612D01*
X142775627Y-95874269D01*
X142773771Y-95874824D01*
X142771910Y-95875278D01*
X142770047Y-95875632D01*
X142768186Y-95875887D01*
X142766327Y-95876045D01*
X142764474Y-95876106D01*
X142762633Y-95876072D01*
X142760805Y-95875943D01*
X142758993Y-95875722D01*
X142757202Y-95875408D01*
X142755434Y-95875006D01*
X142753690Y-95874513D01*
X142751976Y-95873931D01*
X142750295Y-95873263D01*
X142748650Y-95872508D01*
X142747043Y-95871669D01*
X142745478Y-95870746D01*
X142743959Y-95869741D01*
X142742486Y-95868654D01*
X142741066Y-95867487D01*
X142739701Y-95866242D01*
X142738393Y-95864918D01*
X142737146Y-95863518D01*
X142735963Y-95862042D01*
X142734847Y-95860492D01*
X142733802Y-95858869D01*
X142732830Y-95857174D01*
X142731936Y-95855408D01*
X142731121Y-95853572D01*
X142103793Y-94337615D01*
X142103068Y-94335729D01*
X142102439Y-94333815D01*
X142101904Y-94331875D01*
X142101464Y-94329914D01*
X142101115Y-94327936D01*
X142100858Y-94325943D01*
X142100691Y-94323939D01*
X142100613Y-94321928D01*
X142100623Y-94319914D01*
X142100718Y-94317901D01*
X142100900Y-94315891D01*
X142101165Y-94313888D01*
X142101512Y-94311896D01*
X142101941Y-94309919D01*
X142102451Y-94307961D01*
X142103038Y-94306024D01*
X142103705Y-94304112D01*
X142104448Y-94302230D01*
X142105267Y-94300380D01*
X142106159Y-94298566D01*
X142107124Y-94296792D01*
X142108161Y-94295062D01*
X142109269Y-94293379D01*
X142110446Y-94291746D01*
X142111691Y-94290168D01*
X142113003Y-94288647D01*
X142114380Y-94287188D01*
X142115822Y-94285794D01*
X142117327Y-94284469D01*
X142118894Y-94283216D01*
X142120521Y-94282039D01*
X142122208Y-94280941D01*
X142198355Y-94234322D01*
X142203836Y-94230831D01*
X142209688Y-94226847D01*
X142215800Y-94222457D01*
X142222061Y-94217746D01*
X142228364Y-94212802D01*
X142234595Y-94207711D01*
X142240645Y-94202561D01*
X142246404Y-94197439D01*
X142296812Y-94162936D01*
X142344919Y-94125473D01*
X142390595Y-94085183D01*
X142433707Y-94042194D01*
X142474126Y-93996638D01*
X142511718Y-93948646D01*
X142546353Y-93898348D01*
X142577900Y-93845874D01*
X142606228Y-93791354D01*
X142631204Y-93734920D01*
X142652698Y-93676702D01*
X142670579Y-93616831D01*
X142684715Y-93555436D01*
X142694975Y-93492649D01*
X142701226Y-93428600D01*
X142703339Y-93363419D01*
X142702051Y-93312467D01*
X142698229Y-93262183D01*
X142691930Y-93212631D01*
X142683224Y-93163872D01*
X142672170Y-93115968D01*
X142658827Y-93068983D01*
X142643261Y-93022977D01*
X142625533Y-92978014D01*
X142605705Y-92934155D01*
X142583841Y-92891463D01*
X142560000Y-92850000D01*
X142534247Y-92809828D01*
X142506643Y-92771007D01*
X142477251Y-92733604D01*
X142446132Y-92697678D01*
X142413349Y-92663292D01*
X142378965Y-92630508D01*
X142343040Y-92599388D01*
X142305638Y-92569995D01*
X142266821Y-92542390D01*
X142226650Y-92516637D01*
X142185189Y-92492796D01*
X142142499Y-92470931D01*
X142098643Y-92451103D01*
X142053683Y-92433375D01*
X142007680Y-92417809D01*
X141960698Y-92404467D01*
X141912799Y-92393411D01*
X141864044Y-92384704D01*
X141814495Y-92378407D01*
X141764216Y-92374584D01*
X141713268Y-92373296D01*
X141662321Y-92374584D01*
X141612040Y-92378407D01*
X141562492Y-92384704D01*
X141513736Y-92393411D01*
X141465835Y-92404467D01*
X141418853Y-92417809D01*
X141372848Y-92433375D01*
X141327886Y-92451102D01*
X141284027Y-92470931D01*
X141241336Y-92492796D01*
X141199871Y-92516637D01*
X141159700Y-92542391D01*
X141120880Y-92569995D01*
X141083476Y-92599388D01*
X141047549Y-92630508D01*
X141013161Y-92663292D01*
X140980376Y-92697678D01*
X140949255Y-92733604D01*
X140919860Y-92771007D01*
X140892254Y-92809827D01*
X140866498Y-92850000D01*
X140842656Y-92891462D01*
X140820789Y-92934155D01*
X140800960Y-92978014D01*
X140783230Y-93022976D01*
X140767663Y-93068983D01*
X140754319Y-93115968D01*
X140743262Y-93163872D01*
X140734554Y-93212631D01*
X140728257Y-93262183D01*
X140724433Y-93312467D01*
X140723145Y-93363419D01*
X140723676Y-93396144D01*
X140725259Y-93428600D01*
X140727876Y-93460774D01*
X140731512Y-93492649D01*
X140736150Y-93524208D01*
X140741774Y-93555436D01*
X140748367Y-93586316D01*
X140755913Y-93616832D01*
X140764395Y-93646965D01*
X140773797Y-93676702D01*
X140784103Y-93706026D01*
X140795294Y-93734921D01*
X140807357Y-93763369D01*
X140820274Y-93791354D01*
X140848604Y-93845874D01*
X140880153Y-93898348D01*
X140914790Y-93948647D01*
X140952382Y-93996639D01*
X140992799Y-94042195D01*
X141035909Y-94085182D01*
X141081580Y-94125473D01*
X141129681Y-94162936D01*
X141180080Y-94197439D01*
X141185872Y-94202561D01*
X141191943Y-94207711D01*
X141198187Y-94212802D01*
X141204495Y-94217745D01*
X141210762Y-94222456D01*
X141216877Y-94226847D01*
X141222739Y-94230831D01*
X141228235Y-94234323D01*
X141304382Y-94280941D01*
X141306079Y-94282040D01*
X141307715Y-94283216D01*
X141309289Y-94284469D01*
X141310801Y-94285794D01*
X141312248Y-94287188D01*
X141313632Y-94288647D01*
X141316195Y-94291746D01*
X141318486Y-94295062D01*
X141320493Y-94298566D01*
X141322203Y-94302230D01*
X141323611Y-94306025D01*
X141324705Y-94309919D01*
X141325477Y-94313888D01*
X141325916Y-94317901D01*
X141326014Y-94321928D01*
X141325761Y-94325943D01*
X141325499Y-94327936D01*
X141325146Y-94329914D01*
X141324701Y-94331875D01*
X141324162Y-94333815D01*
X141323527Y-94335729D01*
X141322797Y-94337615D01*
X140695417Y-95853519D01*
X140694602Y-95855356D01*
X140693707Y-95857122D01*
X140692735Y-95858818D01*
X140691689Y-95860442D01*
X140690572Y-95861993D01*
X140689388Y-95863470D01*
X140688139Y-95864872D01*
X140686829Y-95866197D01*
X140685463Y-95867444D01*
X140684041Y-95868613D01*
X140682568Y-95869701D01*
X140681046Y-95870708D01*
X140679480Y-95871632D01*
X140677871Y-95872473D01*
X140676224Y-95873229D01*
X140674542Y-95873900D01*
X140672827Y-95874481D01*
X140671084Y-95874975D01*
X140669314Y-95875379D01*
X140667521Y-95875693D01*
X140665710Y-95875914D01*
X140663882Y-95876043D01*
X140662040Y-95876076D01*
X140660190Y-95876014D01*
X140658332Y-95875856D01*
X140656471Y-95875599D01*
X140654610Y-95875243D01*
X140652751Y-95874787D01*
X140650899Y-95874229D01*
X140649056Y-95873569D01*
X140647226Y-95872804D01*
X140645411Y-95871934D01*
X140341140Y-95709480D01*
X140337532Y-95707584D01*
X140333695Y-95705964D01*
X140329662Y-95704620D01*
X140325470Y-95703547D01*
X140321150Y-95702749D01*
X140316738Y-95702224D01*
X140312266Y-95701969D01*
X140307770Y-95701986D01*
X140303283Y-95702272D01*
X140298839Y-95702827D01*
X140294473Y-95703649D01*
X140290219Y-95704740D01*
X140286108Y-95706096D01*
X140282180Y-95707718D01*
X140278463Y-95709605D01*
X140274993Y-95711755D01*
X139585067Y-96185307D01*
X139583369Y-96186400D01*
X139581619Y-96187408D01*
X139579826Y-96188332D01*
X139577989Y-96189170D01*
X139576112Y-96189924D01*
X139574203Y-96190595D01*
X139572262Y-96191182D01*
X139570294Y-96191686D01*
X139568303Y-96192107D01*
X139566291Y-96192446D01*
X139562228Y-96192878D01*
X139558133Y-96192984D01*
X139554038Y-96192768D01*
X139549973Y-96192231D01*
X139545969Y-96191377D01*
X139542057Y-96190209D01*
X139540145Y-96189508D01*
X139538268Y-96188729D01*
X139536429Y-96187874D01*
X139534632Y-96186941D01*
X139532881Y-96185932D01*
X139531181Y-96184846D01*
X139529534Y-96183684D01*
X139527944Y-96182448D01*
X139526416Y-96181137D01*
X139524953Y-96179750D01*
X138891805Y-95546708D01*
X138890414Y-95545241D01*
X138889098Y-95543707D01*
X138887856Y-95542113D01*
X138886692Y-95540460D01*
X138885603Y-95538756D01*
X138884591Y-95537001D01*
X138882796Y-95533356D01*
X138881312Y-95529558D01*
X138880140Y-95525639D01*
X138879286Y-95521628D01*
X138878747Y-95517558D01*
X138878532Y-95513457D01*
X138878641Y-95509360D01*
X138879075Y-95505295D01*
X138879840Y-95501292D01*
X138880937Y-95497386D01*
X138881611Y-95495478D01*
X138882369Y-95493605D01*
X138883211Y-95491771D01*
X138884139Y-95489980D01*
X138885150Y-95488235D01*
X138886249Y-95486542D01*
X139368214Y-94784179D01*
X139370398Y-94780703D01*
X139372343Y-94776967D01*
X139374049Y-94773004D01*
X139375511Y-94768850D01*
X139376728Y-94764539D01*
X139377697Y-94760104D01*
X139378417Y-94755583D01*
X139378884Y-94751008D01*
X139379096Y-94746411D01*
X139379050Y-94741831D01*
X139378746Y-94737301D01*
X139378178Y-94732855D01*
X139377348Y-94728528D01*
X139376248Y-94724354D01*
X139374881Y-94720368D01*
X139373241Y-94716604D01*
X139108340Y-94054881D01*
X139107688Y-94052952D01*
X139106944Y-94051031D01*
X139105193Y-94047213D01*
X139103113Y-94043452D01*
X139100730Y-94039770D01*
X139098069Y-94036192D01*
X139095159Y-94032738D01*
X139092023Y-94029437D01*
X139088689Y-94026307D01*
X139085181Y-94023371D01*
X139081526Y-94020657D01*
X139077750Y-94018185D01*
X139073879Y-94015978D01*
X139069939Y-94014060D01*
X139065956Y-94012454D01*
X139061955Y-94011184D01*
X139059957Y-94010682D01*
X139057964Y-94010273D01*
X138209445Y-93852369D01*
X138207467Y-93851957D01*
X138205515Y-93851448D01*
X138203590Y-93850844D01*
X138201695Y-93850149D01*
X138199833Y-93849366D01*
X138198005Y-93848497D01*
X138196216Y-93847546D01*
X138194466Y-93846516D01*
X138192758Y-93845410D01*
X138191095Y-93844230D01*
X138187914Y-93841664D01*
X138184943Y-93838841D01*
X138182200Y-93835786D01*
X138179705Y-93832524D01*
X138177480Y-93829078D01*
X138175542Y-93825473D01*
X138173912Y-93821733D01*
X138173219Y-93819820D01*
X138172612Y-93817882D01*
X138172089Y-93815922D01*
X138171656Y-93813945D01*
X138171315Y-93811951D01*
X138171069Y-93809946D01*
X138170919Y-93807930D01*
X138170869Y-93805908D01*
X138170816Y-92910611D01*
X138170866Y-92908590D01*
X138171015Y-92906575D01*
X138171261Y-92904571D01*
X138171601Y-92902581D01*
X138172032Y-92900607D01*
X138172553Y-92898651D01*
X138173160Y-92896718D01*
X138173852Y-92894809D01*
X138174626Y-92892928D01*
X138175477Y-92891079D01*
X138176408Y-92889263D01*
X138177413Y-92887484D01*
X138178489Y-92885744D01*
X138179635Y-92884047D01*
X138180849Y-92882396D01*
X138182127Y-92880794D01*
X138183467Y-92879241D01*
X138184868Y-92877745D01*
X138186324Y-92876305D01*
X138187838Y-92874926D01*
X138189404Y-92873610D01*
X138191019Y-92872360D01*
X138192682Y-92871179D01*
X138194390Y-92870071D01*
X138196141Y-92869037D01*
X138197933Y-92868080D01*
X138199762Y-92867207D01*
X138201627Y-92866416D01*
X138203525Y-92865712D01*
X138205452Y-92865098D01*
X138207410Y-92864576D01*
X138209392Y-92864150D01*
X139079236Y-92702384D01*
X139081236Y-92701966D01*
X139083242Y-92701456D01*
X139087265Y-92700179D01*
X139091280Y-92698573D01*
X139095259Y-92696662D01*
X139099176Y-92694467D01*
X139103006Y-92692012D01*
X139106722Y-92689319D01*
X139110298Y-92686410D01*
X139113708Y-92683309D01*
X139116926Y-92680037D01*
X139119925Y-92676617D01*
X139122679Y-92673073D01*
X139125162Y-92669425D01*
X139127349Y-92665698D01*
X139129211Y-92661914D01*
X139130013Y-92660006D01*
X139130724Y-92658093D01*
X139397424Y-92036005D01*
X139399142Y-92032280D01*
X139400585Y-92028333D01*
X139401755Y-92024198D01*
X139402657Y-92019907D01*
X139403291Y-92015496D01*
X139403659Y-92010999D01*
X139403764Y-92006449D01*
X139403609Y-92001880D01*
X139403195Y-91997327D01*
X139402524Y-91992823D01*
X139401600Y-91988403D01*
X139400423Y-91984101D01*
X139398997Y-91979949D01*
X139397324Y-91975985D01*
X139395405Y-91972239D01*
X139393244Y-91968747D01*
X138886355Y-91230031D01*
X138885252Y-91228338D01*
X138884236Y-91226594D01*
X138883305Y-91224803D01*
X138882459Y-91222970D01*
X138881699Y-91221098D01*
X138881023Y-91219192D01*
X138880431Y-91217253D01*
X138879923Y-91215288D01*
X138879499Y-91213299D01*
X138879158Y-91211290D01*
X138878723Y-91207230D01*
X138878616Y-91203136D01*
X138878834Y-91199042D01*
X138879374Y-91194976D01*
X138880233Y-91190970D01*
X138881408Y-91187055D01*
X138882113Y-91185141D01*
X138882895Y-91183262D01*
X138883755Y-91181420D01*
X138884692Y-91179620D01*
X138885706Y-91177866D01*
X138886796Y-91176162D01*
X138887963Y-91174511D01*
X138889203Y-91172918D01*
X138890520Y-91171385D01*
X138891911Y-91169918D01*
X139525006Y-90536876D01*
X139526469Y-90535480D01*
X139527997Y-90534159D01*
X139529587Y-90532913D01*
X139531234Y-90531745D01*
X139532934Y-90530652D01*
X139534685Y-90529637D01*
X139538320Y-90527837D01*
X139542111Y-90526348D01*
X139546022Y-90525174D01*
X139550026Y-90524317D01*
X139554091Y-90523779D01*
X139558187Y-90523564D01*
X139562281Y-90523673D01*
X139566345Y-90524111D01*
X139570347Y-90524880D01*
X139574256Y-90525983D01*
X139576167Y-90526660D01*
X139578042Y-90527421D01*
X139579879Y-90528268D01*
X139581675Y-90529199D01*
X139583422Y-90530216D01*
X139585120Y-90531319D01*
X140336748Y-91047151D01*
X140340216Y-91049325D01*
X140343947Y-91051262D01*
X140347908Y-91052956D01*
X140352062Y-91054408D01*
X140356375Y-91055614D01*
X140360813Y-91056575D01*
X140365340Y-91057284D01*
X140369920Y-91057741D01*
X140374520Y-91057943D01*
X140379105Y-91057888D01*
X140383638Y-91057573D01*
X140388086Y-91056996D01*
X140392414Y-91056155D01*
X140396585Y-91055046D01*
X140400567Y-91053669D01*
X140404323Y-91052019D01*
X141007414Y-90805163D01*
X141011253Y-90803708D01*
X141015054Y-90801901D01*
X141018796Y-90799768D01*
X141022456Y-90797336D01*
X141026011Y-90794628D01*
X141029440Y-90791675D01*
X141032721Y-90788499D01*
X141035830Y-90785128D01*
X141038746Y-90781587D01*
X141041446Y-90777903D01*
X141043908Y-90774103D01*
X141046109Y-90770211D01*
X141048028Y-90766254D01*
X141049641Y-90762259D01*
X141050928Y-90758251D01*
X141051864Y-90754257D01*
X141219292Y-89854515D01*
X141219709Y-89852538D01*
X141220222Y-89850584D01*
X141220828Y-89848660D01*
X141221525Y-89846765D01*
X141222310Y-89844903D01*
X141223179Y-89843076D01*
X141224129Y-89841286D01*
X141225159Y-89839536D01*
X141226264Y-89837828D01*
X141227442Y-89836165D01*
X141230001Y-89832984D01*
X141232816Y-89830013D01*
X141235862Y-89827270D01*
X141239114Y-89824776D01*
X141242548Y-89822550D01*
X141246141Y-89820612D01*
X141247989Y-89819758D01*
X141249869Y-89818983D01*
X141251776Y-89818289D01*
X141253707Y-89817681D01*
X141255661Y-89817159D01*
X141257633Y-89816726D01*
X141259620Y-89816387D01*
X141261620Y-89816139D01*
X141263631Y-89815989D01*
X141265647Y-89815939D01*
X142160996Y-89815939D01*
X142163019Y-89815989D01*
G37*
D12*
G36*
X139623236Y-107992924D02*
G01*
X139687414Y-108057101D01*
X139717219Y-108116711D01*
X139717219Y-108259973D01*
X139687414Y-108319582D01*
X139623236Y-108383759D01*
X139471575Y-108421675D01*
X139162861Y-108421675D01*
X139011202Y-108383760D01*
X138947023Y-108319581D01*
X138917219Y-108259972D01*
X138917219Y-108116711D01*
X138947023Y-108057102D01*
X139011202Y-107992923D01*
X139162861Y-107955009D01*
X139471575Y-107955009D01*
X139623236Y-107992924D01*
G37*
G36*
X140028330Y-110542310D02*
G01*
X138606108Y-110542310D01*
X138606108Y-109902628D01*
X138717219Y-109902628D01*
X138717219Y-109997866D01*
X138718191Y-110007739D01*
X138718004Y-110010373D01*
X138718791Y-110013836D01*
X138719140Y-110017375D01*
X138720151Y-110019817D01*
X138722351Y-110029489D01*
X138769970Y-110172345D01*
X138777961Y-110190246D01*
X138780316Y-110192961D01*
X138781691Y-110196280D01*
X138794127Y-110211434D01*
X138889365Y-110306672D01*
X138897031Y-110312963D01*
X138898764Y-110314961D01*
X138901775Y-110316856D01*
X138904519Y-110319108D01*
X138906956Y-110320117D01*
X138915355Y-110325404D01*
X139010592Y-110373023D01*
X139012020Y-110373569D01*
X139012600Y-110373999D01*
X139020776Y-110376920D01*
X139028901Y-110380029D01*
X139029621Y-110380080D01*
X139031060Y-110380594D01*
X139221536Y-110428213D01*
X139224917Y-110428713D01*
X139226281Y-110429278D01*
X139233631Y-110430001D01*
X139240929Y-110431081D01*
X139242387Y-110430863D01*
X139245790Y-110431199D01*
X139388647Y-110431199D01*
X139392049Y-110430863D01*
X139393508Y-110431081D01*
X139400805Y-110430001D01*
X139408156Y-110429278D01*
X139409519Y-110428713D01*
X139412901Y-110428213D01*
X139603376Y-110380594D01*
X139604813Y-110380080D01*
X139605536Y-110380029D01*
X139613660Y-110376920D01*
X139621837Y-110373999D01*
X139622417Y-110373568D01*
X139623844Y-110373023D01*
X139719082Y-110325404D01*
X139727474Y-110320121D01*
X139729918Y-110319109D01*
X139732667Y-110316852D01*
X139735672Y-110314961D01*
X139737401Y-110312966D01*
X139745071Y-110306672D01*
X139840311Y-110211434D01*
X139852747Y-110196281D01*
X139854122Y-110192961D01*
X139856477Y-110190246D01*
X139864468Y-110172346D01*
X139912087Y-110029489D01*
X139914286Y-110019816D01*
X139915298Y-110017375D01*
X139915646Y-110013837D01*
X139916434Y-110010374D01*
X139916246Y-110007739D01*
X139917219Y-109997866D01*
X139917219Y-109902628D01*
X139916246Y-109892754D01*
X139916434Y-109890120D01*
X139915646Y-109886656D01*
X139915298Y-109883119D01*
X139914286Y-109880677D01*
X139912087Y-109871005D01*
X139864468Y-109728148D01*
X139856477Y-109710248D01*
X139854122Y-109707532D01*
X139852747Y-109704213D01*
X139840310Y-109689059D01*
X139792690Y-109641441D01*
X139777537Y-109629004D01*
X139741488Y-109614073D01*
X139702470Y-109614074D01*
X139666422Y-109629005D01*
X139638832Y-109656595D01*
X139623901Y-109692644D01*
X139623902Y-109731662D01*
X139638833Y-109767710D01*
X139651270Y-109782863D01*
X139682197Y-109813789D01*
X139717219Y-109918854D01*
X139717219Y-109981639D01*
X139682197Y-110086704D01*
X139615127Y-110153774D01*
X139544218Y-110189228D01*
X139376337Y-110231199D01*
X139258099Y-110231199D01*
X139090218Y-110189228D01*
X139019313Y-110153776D01*
X138952240Y-110086703D01*
X138917219Y-109981639D01*
X138917219Y-109918855D01*
X138952240Y-109813789D01*
X138983167Y-109782863D01*
X138995604Y-109767710D01*
X139010535Y-109731661D01*
X139010535Y-109692643D01*
X138995604Y-109656595D01*
X138968014Y-109629005D01*
X138931966Y-109614074D01*
X138892948Y-109614074D01*
X138856899Y-109629005D01*
X138841746Y-109641442D01*
X138794127Y-109689060D01*
X138781691Y-109704214D01*
X138780316Y-109707532D01*
X138777961Y-109710248D01*
X138769970Y-109728149D01*
X138722351Y-109871005D01*
X138720151Y-109880676D01*
X138719140Y-109883119D01*
X138718791Y-109886657D01*
X138718004Y-109890121D01*
X138718191Y-109892754D01*
X138717219Y-109902628D01*
X138606108Y-109902628D01*
X138606108Y-109264071D01*
X138719140Y-109264071D01*
X138719140Y-109303089D01*
X138734072Y-109339137D01*
X138761662Y-109366727D01*
X138797710Y-109381659D01*
X138817219Y-109383580D01*
X139817219Y-109383580D01*
X139836728Y-109381659D01*
X139872776Y-109366727D01*
X139900366Y-109339137D01*
X139915298Y-109303089D01*
X139917219Y-109283580D01*
X139917219Y-108807390D01*
X139915298Y-108787881D01*
X139900366Y-108751833D01*
X139872776Y-108724243D01*
X139836728Y-108709311D01*
X139797710Y-108709311D01*
X139761662Y-108724243D01*
X139734072Y-108751833D01*
X139719140Y-108787881D01*
X139717219Y-108807390D01*
X139717219Y-109183580D01*
X138817219Y-109183580D01*
X138797710Y-109185501D01*
X138761662Y-109200433D01*
X138734072Y-109228023D01*
X138719140Y-109264071D01*
X138606108Y-109264071D01*
X138606108Y-108093104D01*
X138717219Y-108093104D01*
X138717219Y-108283580D01*
X138719140Y-108303089D01*
X138720515Y-108306409D01*
X138720770Y-108309993D01*
X138727776Y-108328301D01*
X138775395Y-108423539D01*
X138780680Y-108431935D01*
X138781691Y-108434375D01*
X138783944Y-108437121D01*
X138785838Y-108440129D01*
X138787832Y-108441858D01*
X138794127Y-108449529D01*
X138889365Y-108544767D01*
X138904519Y-108557203D01*
X138911387Y-108560048D01*
X138917362Y-108564475D01*
X138935822Y-108571070D01*
X139126298Y-108618689D01*
X139129679Y-108619189D01*
X139131043Y-108619754D01*
X139138393Y-108620477D01*
X139145691Y-108621557D01*
X139147149Y-108621339D01*
X139150552Y-108621675D01*
X139483885Y-108621675D01*
X139487287Y-108621339D01*
X139488746Y-108621557D01*
X139496043Y-108620477D01*
X139503394Y-108619754D01*
X139504757Y-108619189D01*
X139508139Y-108618689D01*
X139698614Y-108571070D01*
X139717075Y-108564475D01*
X139723047Y-108560049D01*
X139729918Y-108557204D01*
X139745071Y-108544767D01*
X139840311Y-108449529D01*
X139846604Y-108441860D01*
X139848600Y-108440130D01*
X139850493Y-108437122D01*
X139852747Y-108434376D01*
X139853757Y-108431935D01*
X139859043Y-108423539D01*
X139906662Y-108328302D01*
X139913668Y-108309993D01*
X139913922Y-108306409D01*
X139915298Y-108303089D01*
X139917219Y-108283580D01*
X139917219Y-108093104D01*
X139915298Y-108073595D01*
X139913922Y-108070274D01*
X139913668Y-108066691D01*
X139906662Y-108048382D01*
X139859043Y-107953145D01*
X139853757Y-107944748D01*
X139852747Y-107942308D01*
X139850493Y-107939561D01*
X139848600Y-107936554D01*
X139846604Y-107934823D01*
X139840311Y-107927155D01*
X139745071Y-107831917D01*
X139729918Y-107819480D01*
X139723047Y-107816634D01*
X139717075Y-107812209D01*
X139698614Y-107805614D01*
X139508139Y-107757995D01*
X139504757Y-107757494D01*
X139503394Y-107756930D01*
X139496043Y-107756206D01*
X139488746Y-107755127D01*
X139487287Y-107755344D01*
X139483885Y-107755009D01*
X139150552Y-107755009D01*
X139147149Y-107755344D01*
X139145691Y-107755127D01*
X139138393Y-107756206D01*
X139131043Y-107756930D01*
X139129679Y-107757494D01*
X139126298Y-107757995D01*
X138935822Y-107805614D01*
X138917362Y-107812209D01*
X138911387Y-107816635D01*
X138904519Y-107819481D01*
X138889365Y-107831917D01*
X138794127Y-107927155D01*
X138787832Y-107934825D01*
X138785838Y-107936555D01*
X138783944Y-107939562D01*
X138781691Y-107942309D01*
X138780680Y-107944748D01*
X138775395Y-107953145D01*
X138727776Y-108048383D01*
X138720770Y-108066691D01*
X138720515Y-108070274D01*
X138719140Y-108073595D01*
X138717219Y-108093104D01*
X138606108Y-108093104D01*
X138606108Y-107045485D01*
X138717219Y-107045485D01*
X138717219Y-107140723D01*
X138718191Y-107150596D01*
X138718004Y-107153230D01*
X138718791Y-107156693D01*
X138719140Y-107160232D01*
X138720151Y-107162674D01*
X138722351Y-107172346D01*
X138769970Y-107315202D01*
X138777961Y-107333103D01*
X138780316Y-107335818D01*
X138781691Y-107339137D01*
X138794127Y-107354291D01*
X138889365Y-107449529D01*
X138897031Y-107455820D01*
X138898764Y-107457818D01*
X138901775Y-107459713D01*
X138904519Y-107461965D01*
X138906956Y-107462974D01*
X138915355Y-107468261D01*
X139010592Y-107515880D01*
X139012020Y-107516426D01*
X139012600Y-107516856D01*
X139020776Y-107519777D01*
X139028901Y-107522886D01*
X139029621Y-107522937D01*
X139031060Y-107523451D01*
X139221536Y-107571070D01*
X139224917Y-107571570D01*
X139226281Y-107572135D01*
X139233631Y-107572858D01*
X139240929Y-107573938D01*
X139242387Y-107573720D01*
X139245790Y-107574056D01*
X139388647Y-107574056D01*
X139392049Y-107573720D01*
X139393508Y-107573938D01*
X139400805Y-107572858D01*
X139408156Y-107572135D01*
X139409519Y-107571570D01*
X139412901Y-107571070D01*
X139603376Y-107523451D01*
X139604813Y-107522937D01*
X139605536Y-107522886D01*
X139613660Y-107519777D01*
X139621837Y-107516856D01*
X139622417Y-107516425D01*
X139623844Y-107515880D01*
X139719082Y-107468261D01*
X139727474Y-107462978D01*
X139729918Y-107461966D01*
X139732667Y-107459709D01*
X139735672Y-107457818D01*
X139737401Y-107455823D01*
X139745071Y-107449529D01*
X139840311Y-107354291D01*
X139852747Y-107339138D01*
X139854122Y-107335818D01*
X139856477Y-107333103D01*
X139864468Y-107315203D01*
X139912087Y-107172346D01*
X139914286Y-107162673D01*
X139915298Y-107160232D01*
X139915646Y-107156694D01*
X139916434Y-107153231D01*
X139916246Y-107150596D01*
X139917219Y-107140723D01*
X139917219Y-107045485D01*
X139916246Y-107035611D01*
X139916434Y-107032977D01*
X139915646Y-107029513D01*
X139915298Y-107025976D01*
X139914286Y-107023534D01*
X139912087Y-107013862D01*
X139864468Y-106871005D01*
X139856477Y-106853105D01*
X139854122Y-106850389D01*
X139852747Y-106847070D01*
X139840310Y-106831916D01*
X139792690Y-106784298D01*
X139777537Y-106771861D01*
X139741488Y-106756930D01*
X139702470Y-106756931D01*
X139666422Y-106771862D01*
X139638832Y-106799452D01*
X139623901Y-106835501D01*
X139623902Y-106874519D01*
X139638833Y-106910567D01*
X139651270Y-106925720D01*
X139682197Y-106956646D01*
X139717219Y-107061711D01*
X139717219Y-107124496D01*
X139682197Y-107229561D01*
X139615127Y-107296631D01*
X139544218Y-107332085D01*
X139376337Y-107374056D01*
X139258099Y-107374056D01*
X139090218Y-107332085D01*
X139019313Y-107296633D01*
X138952240Y-107229560D01*
X138917219Y-107124496D01*
X138917219Y-107061712D01*
X138952240Y-106956646D01*
X138983167Y-106925720D01*
X138995604Y-106910567D01*
X139010535Y-106874518D01*
X139010535Y-106835500D01*
X138995604Y-106799452D01*
X138968014Y-106771862D01*
X138931966Y-106756931D01*
X138892948Y-106756931D01*
X138856899Y-106771862D01*
X138841746Y-106784299D01*
X138794127Y-106831917D01*
X138781691Y-106847071D01*
X138780316Y-106850389D01*
X138777961Y-106853105D01*
X138769970Y-106871006D01*
X138722351Y-107013862D01*
X138720151Y-107023533D01*
X138719140Y-107025976D01*
X138718791Y-107029514D01*
X138718004Y-107032978D01*
X138718191Y-107035611D01*
X138717219Y-107045485D01*
X138606108Y-107045485D01*
X138606108Y-105835500D01*
X138719140Y-105835500D01*
X138719140Y-105874518D01*
X138734072Y-105910566D01*
X138746508Y-105925720D01*
X139147225Y-106326437D01*
X138817219Y-106326437D01*
X138797710Y-106328358D01*
X138761662Y-106343290D01*
X138734072Y-106370880D01*
X138719140Y-106406928D01*
X138719140Y-106445946D01*
X138734072Y-106481994D01*
X138761662Y-106509584D01*
X138797710Y-106524516D01*
X138817219Y-106526437D01*
X139817219Y-106526437D01*
X139836728Y-106524516D01*
X139872776Y-106509584D01*
X139900366Y-106481994D01*
X139915298Y-106445946D01*
X139915298Y-106406928D01*
X139900366Y-106370880D01*
X139872776Y-106343290D01*
X139836728Y-106328358D01*
X139817219Y-106326437D01*
X139430069Y-106326437D01*
X139398031Y-106294399D01*
X139877219Y-105935009D01*
X139891674Y-105921767D01*
X139911553Y-105888192D01*
X139917071Y-105849566D01*
X139907388Y-105811769D01*
X139883977Y-105780554D01*
X139850403Y-105760675D01*
X139811777Y-105755157D01*
X139773979Y-105764840D01*
X139757219Y-105775009D01*
X139255174Y-106151542D01*
X138887930Y-105784298D01*
X138872776Y-105771862D01*
X138836728Y-105756930D01*
X138797710Y-105756930D01*
X138761662Y-105771862D01*
X138734072Y-105799452D01*
X138719140Y-105835500D01*
X138606108Y-105835500D01*
X138606108Y-105644046D01*
X140028330Y-105644046D01*
X140028330Y-110542310D01*
G37*
D11*
X144651466Y-110839369D02*
X144651466Y-110077465D01*
X145032419Y-110458417D02*
X144270514Y-110458417D01*
X144032419Y-109696512D02*
X144032419Y-109077465D01*
X144032419Y-109077465D02*
X144413371Y-109410798D01*
X144413371Y-109410798D02*
X144413371Y-109267941D01*
X144413371Y-109267941D02*
X144460990Y-109172703D01*
X144460990Y-109172703D02*
X144508609Y-109125084D01*
X144508609Y-109125084D02*
X144603847Y-109077465D01*
X144603847Y-109077465D02*
X144841942Y-109077465D01*
X144841942Y-109077465D02*
X144937180Y-109125084D01*
X144937180Y-109125084D02*
X144984800Y-109172703D01*
X144984800Y-109172703D02*
X145032419Y-109267941D01*
X145032419Y-109267941D02*
X145032419Y-109553655D01*
X145032419Y-109553655D02*
X144984800Y-109648893D01*
X144984800Y-109648893D02*
X144937180Y-109696512D01*
X144937180Y-108648893D02*
X144984800Y-108601274D01*
X144984800Y-108601274D02*
X145032419Y-108648893D01*
X145032419Y-108648893D02*
X144984800Y-108696512D01*
X144984800Y-108696512D02*
X144937180Y-108648893D01*
X144937180Y-108648893D02*
X145032419Y-108648893D01*
X144032419Y-108267941D02*
X144032419Y-107648894D01*
X144032419Y-107648894D02*
X144413371Y-107982227D01*
X144413371Y-107982227D02*
X144413371Y-107839370D01*
X144413371Y-107839370D02*
X144460990Y-107744132D01*
X144460990Y-107744132D02*
X144508609Y-107696513D01*
X144508609Y-107696513D02*
X144603847Y-107648894D01*
X144603847Y-107648894D02*
X144841942Y-107648894D01*
X144841942Y-107648894D02*
X144937180Y-107696513D01*
X144937180Y-107696513D02*
X144984800Y-107744132D01*
X144984800Y-107744132D02*
X145032419Y-107839370D01*
X145032419Y-107839370D02*
X145032419Y-108125084D01*
X145032419Y-108125084D02*
X144984800Y-108220322D01*
X144984800Y-108220322D02*
X144937180Y-108267941D01*
X144032419Y-107363179D02*
X145032419Y-107029846D01*
X145032419Y-107029846D02*
X144032419Y-106696513D01*
D12*
X141326816Y-128337219D02*
X141660149Y-129337219D01*
X141660149Y-129337219D02*
X141993482Y-128337219D01*
X142326816Y-129337219D02*
X142326816Y-128670552D01*
X142326816Y-128337219D02*
X142279197Y-128384838D01*
X142279197Y-128384838D02*
X142326816Y-128432457D01*
X142326816Y-128432457D02*
X142374435Y-128384838D01*
X142374435Y-128384838D02*
X142326816Y-128337219D01*
X142326816Y-128337219D02*
X142326816Y-128432457D01*
X142755387Y-129289600D02*
X142850625Y-129337219D01*
X142850625Y-129337219D02*
X143041101Y-129337219D01*
X143041101Y-129337219D02*
X143136339Y-129289600D01*
X143136339Y-129289600D02*
X143183958Y-129194361D01*
X143183958Y-129194361D02*
X143183958Y-129146742D01*
X143183958Y-129146742D02*
X143136339Y-129051504D01*
X143136339Y-129051504D02*
X143041101Y-129003885D01*
X143041101Y-129003885D02*
X142898244Y-129003885D01*
X142898244Y-129003885D02*
X142803006Y-128956266D01*
X142803006Y-128956266D02*
X142755387Y-128861028D01*
X142755387Y-128861028D02*
X142755387Y-128813409D01*
X142755387Y-128813409D02*
X142803006Y-128718171D01*
X142803006Y-128718171D02*
X142898244Y-128670552D01*
X142898244Y-128670552D02*
X143041101Y-128670552D01*
X143041101Y-128670552D02*
X143136339Y-128718171D01*
X143612530Y-129337219D02*
X143612530Y-128670552D01*
X143612530Y-128337219D02*
X143564911Y-128384838D01*
X143564911Y-128384838D02*
X143612530Y-128432457D01*
X143612530Y-128432457D02*
X143660149Y-128384838D01*
X143660149Y-128384838D02*
X143612530Y-128337219D01*
X143612530Y-128337219D02*
X143612530Y-128432457D01*
X143945863Y-128670552D02*
X144326815Y-128670552D01*
X144088720Y-128337219D02*
X144088720Y-129194361D01*
X144088720Y-129194361D02*
X144136339Y-129289600D01*
X144136339Y-129289600D02*
X144231577Y-129337219D01*
X144231577Y-129337219D02*
X144326815Y-129337219D01*
X144660149Y-129241980D02*
X144707768Y-129289600D01*
X144707768Y-129289600D02*
X144660149Y-129337219D01*
X144660149Y-129337219D02*
X144612530Y-129289600D01*
X144612530Y-129289600D02*
X144660149Y-129241980D01*
X144660149Y-129241980D02*
X144660149Y-129337219D01*
X144660149Y-128718171D02*
X144707768Y-128765790D01*
X144707768Y-128765790D02*
X144660149Y-128813409D01*
X144660149Y-128813409D02*
X144612530Y-128765790D01*
X144612530Y-128765790D02*
X144660149Y-128718171D01*
X144660149Y-128718171D02*
X144660149Y-128813409D01*
X146422053Y-128384838D02*
X146326815Y-128337219D01*
X146326815Y-128337219D02*
X146183958Y-128337219D01*
X146183958Y-128337219D02*
X146041101Y-128384838D01*
X146041101Y-128384838D02*
X145945863Y-128480076D01*
X145945863Y-128480076D02*
X145898244Y-128575314D01*
X145898244Y-128575314D02*
X145850625Y-128765790D01*
X145850625Y-128765790D02*
X145850625Y-128908647D01*
X145850625Y-128908647D02*
X145898244Y-129099123D01*
X145898244Y-129099123D02*
X145945863Y-129194361D01*
X145945863Y-129194361D02*
X146041101Y-129289600D01*
X146041101Y-129289600D02*
X146183958Y-129337219D01*
X146183958Y-129337219D02*
X146279196Y-129337219D01*
X146279196Y-129337219D02*
X146422053Y-129289600D01*
X146422053Y-129289600D02*
X146469672Y-129241980D01*
X146469672Y-129241980D02*
X146469672Y-128908647D01*
X146469672Y-128908647D02*
X146279196Y-128908647D01*
X146898244Y-129337219D02*
X146898244Y-128670552D01*
X146898244Y-128337219D02*
X146850625Y-128384838D01*
X146850625Y-128384838D02*
X146898244Y-128432457D01*
X146898244Y-128432457D02*
X146945863Y-128384838D01*
X146945863Y-128384838D02*
X146898244Y-128337219D01*
X146898244Y-128337219D02*
X146898244Y-128432457D01*
X147231577Y-128670552D02*
X147612529Y-128670552D01*
X147374434Y-128337219D02*
X147374434Y-129194361D01*
X147374434Y-129194361D02*
X147422053Y-129289600D01*
X147422053Y-129289600D02*
X147517291Y-129337219D01*
X147517291Y-129337219D02*
X147612529Y-129337219D01*
X147945863Y-129337219D02*
X147945863Y-128337219D01*
X148374434Y-129337219D02*
X148374434Y-128813409D01*
X148374434Y-128813409D02*
X148326815Y-128718171D01*
X148326815Y-128718171D02*
X148231577Y-128670552D01*
X148231577Y-128670552D02*
X148088720Y-128670552D01*
X148088720Y-128670552D02*
X147993482Y-128718171D01*
X147993482Y-128718171D02*
X147945863Y-128765790D01*
X149279196Y-128670552D02*
X149279196Y-129337219D01*
X148850625Y-128670552D02*
X148850625Y-129194361D01*
X148850625Y-129194361D02*
X148898244Y-129289600D01*
X148898244Y-129289600D02*
X148993482Y-129337219D01*
X148993482Y-129337219D02*
X149136339Y-129337219D01*
X149136339Y-129337219D02*
X149231577Y-129289600D01*
X149231577Y-129289600D02*
X149279196Y-129241980D01*
X149755387Y-129337219D02*
X149755387Y-128337219D01*
X149755387Y-128718171D02*
X149850625Y-128670552D01*
X149850625Y-128670552D02*
X150041101Y-128670552D01*
X150041101Y-128670552D02*
X150136339Y-128718171D01*
X150136339Y-128718171D02*
X150183958Y-128765790D01*
X150183958Y-128765790D02*
X150231577Y-128861028D01*
X150231577Y-128861028D02*
X150231577Y-129146742D01*
X150231577Y-129146742D02*
X150183958Y-129241980D01*
X150183958Y-129241980D02*
X150136339Y-129289600D01*
X150136339Y-129289600D02*
X150041101Y-129337219D01*
X150041101Y-129337219D02*
X149850625Y-129337219D01*
X149850625Y-129337219D02*
X149755387Y-129289600D01*
X150660149Y-129241980D02*
X150707768Y-129289600D01*
X150707768Y-129289600D02*
X150660149Y-129337219D01*
X150660149Y-129337219D02*
X150612530Y-129289600D01*
X150612530Y-129289600D02*
X150660149Y-129241980D01*
X150660149Y-129241980D02*
X150660149Y-129337219D01*
X151564910Y-129289600D02*
X151469672Y-129337219D01*
X151469672Y-129337219D02*
X151279196Y-129337219D01*
X151279196Y-129337219D02*
X151183958Y-129289600D01*
X151183958Y-129289600D02*
X151136339Y-129241980D01*
X151136339Y-129241980D02*
X151088720Y-129146742D01*
X151088720Y-129146742D02*
X151088720Y-128861028D01*
X151088720Y-128861028D02*
X151136339Y-128765790D01*
X151136339Y-128765790D02*
X151183958Y-128718171D01*
X151183958Y-128718171D02*
X151279196Y-128670552D01*
X151279196Y-128670552D02*
X151469672Y-128670552D01*
X151469672Y-128670552D02*
X151564910Y-128718171D01*
X152136339Y-129337219D02*
X152041101Y-129289600D01*
X152041101Y-129289600D02*
X151993482Y-129241980D01*
X151993482Y-129241980D02*
X151945863Y-129146742D01*
X151945863Y-129146742D02*
X151945863Y-128861028D01*
X151945863Y-128861028D02*
X151993482Y-128765790D01*
X151993482Y-128765790D02*
X152041101Y-128718171D01*
X152041101Y-128718171D02*
X152136339Y-128670552D01*
X152136339Y-128670552D02*
X152279196Y-128670552D01*
X152279196Y-128670552D02*
X152374434Y-128718171D01*
X152374434Y-128718171D02*
X152422053Y-128765790D01*
X152422053Y-128765790D02*
X152469672Y-128861028D01*
X152469672Y-128861028D02*
X152469672Y-129146742D01*
X152469672Y-129146742D02*
X152422053Y-129241980D01*
X152422053Y-129241980D02*
X152374434Y-129289600D01*
X152374434Y-129289600D02*
X152279196Y-129337219D01*
X152279196Y-129337219D02*
X152136339Y-129337219D01*
X152898244Y-129337219D02*
X152898244Y-128670552D01*
X152898244Y-128765790D02*
X152945863Y-128718171D01*
X152945863Y-128718171D02*
X153041101Y-128670552D01*
X153041101Y-128670552D02*
X153183958Y-128670552D01*
X153183958Y-128670552D02*
X153279196Y-128718171D01*
X153279196Y-128718171D02*
X153326815Y-128813409D01*
X153326815Y-128813409D02*
X153326815Y-129337219D01*
X153326815Y-128813409D02*
X153374434Y-128718171D01*
X153374434Y-128718171D02*
X153469672Y-128670552D01*
X153469672Y-128670552D02*
X153612529Y-128670552D01*
X153612529Y-128670552D02*
X153707768Y-128718171D01*
X153707768Y-128718171D02*
X153755387Y-128813409D01*
X153755387Y-128813409D02*
X153755387Y-129337219D01*
X154945862Y-128289600D02*
X154088720Y-129575314D01*
X155279196Y-129337219D02*
X155279196Y-128337219D01*
X155279196Y-128337219D02*
X155517291Y-128337219D01*
X155517291Y-128337219D02*
X155660148Y-128384838D01*
X155660148Y-128384838D02*
X155755386Y-128480076D01*
X155755386Y-128480076D02*
X155803005Y-128575314D01*
X155803005Y-128575314D02*
X155850624Y-128765790D01*
X155850624Y-128765790D02*
X155850624Y-128908647D01*
X155850624Y-128908647D02*
X155803005Y-129099123D01*
X155803005Y-129099123D02*
X155755386Y-129194361D01*
X155755386Y-129194361D02*
X155660148Y-129289600D01*
X155660148Y-129289600D02*
X155517291Y-129337219D01*
X155517291Y-129337219D02*
X155279196Y-129337219D01*
X156660148Y-129289600D02*
X156564910Y-129337219D01*
X156564910Y-129337219D02*
X156374434Y-129337219D01*
X156374434Y-129337219D02*
X156279196Y-129289600D01*
X156279196Y-129289600D02*
X156231577Y-129194361D01*
X156231577Y-129194361D02*
X156231577Y-128813409D01*
X156231577Y-128813409D02*
X156279196Y-128718171D01*
X156279196Y-128718171D02*
X156374434Y-128670552D01*
X156374434Y-128670552D02*
X156564910Y-128670552D01*
X156564910Y-128670552D02*
X156660148Y-128718171D01*
X156660148Y-128718171D02*
X156707767Y-128813409D01*
X156707767Y-128813409D02*
X156707767Y-128908647D01*
X156707767Y-128908647D02*
X156231577Y-129003885D01*
X156993482Y-128670552D02*
X157374434Y-128670552D01*
X157136339Y-128337219D02*
X157136339Y-129194361D01*
X157136339Y-129194361D02*
X157183958Y-129289600D01*
X157183958Y-129289600D02*
X157279196Y-129337219D01*
X157279196Y-129337219D02*
X157374434Y-129337219D01*
X158088720Y-129289600D02*
X157993482Y-129337219D01*
X157993482Y-129337219D02*
X157803006Y-129337219D01*
X157803006Y-129337219D02*
X157707768Y-129289600D01*
X157707768Y-129289600D02*
X157660149Y-129194361D01*
X157660149Y-129194361D02*
X157660149Y-128813409D01*
X157660149Y-128813409D02*
X157707768Y-128718171D01*
X157707768Y-128718171D02*
X157803006Y-128670552D01*
X157803006Y-128670552D02*
X157993482Y-128670552D01*
X157993482Y-128670552D02*
X158088720Y-128718171D01*
X158088720Y-128718171D02*
X158136339Y-128813409D01*
X158136339Y-128813409D02*
X158136339Y-128908647D01*
X158136339Y-128908647D02*
X157660149Y-129003885D01*
X158993482Y-129289600D02*
X158898244Y-129337219D01*
X158898244Y-129337219D02*
X158707768Y-129337219D01*
X158707768Y-129337219D02*
X158612530Y-129289600D01*
X158612530Y-129289600D02*
X158564911Y-129241980D01*
X158564911Y-129241980D02*
X158517292Y-129146742D01*
X158517292Y-129146742D02*
X158517292Y-128861028D01*
X158517292Y-128861028D02*
X158564911Y-128765790D01*
X158564911Y-128765790D02*
X158612530Y-128718171D01*
X158612530Y-128718171D02*
X158707768Y-128670552D01*
X158707768Y-128670552D02*
X158898244Y-128670552D01*
X158898244Y-128670552D02*
X158993482Y-128718171D01*
X159279197Y-128670552D02*
X159660149Y-128670552D01*
X159422054Y-128337219D02*
X159422054Y-129194361D01*
X159422054Y-129194361D02*
X159469673Y-129289600D01*
X159469673Y-129289600D02*
X159564911Y-129337219D01*
X159564911Y-129337219D02*
X159660149Y-129337219D01*
X159993483Y-129337219D02*
X159993483Y-128670552D01*
X159993483Y-128337219D02*
X159945864Y-128384838D01*
X159945864Y-128384838D02*
X159993483Y-128432457D01*
X159993483Y-128432457D02*
X160041102Y-128384838D01*
X160041102Y-128384838D02*
X159993483Y-128337219D01*
X159993483Y-128337219D02*
X159993483Y-128432457D01*
X160374435Y-128670552D02*
X160612530Y-129337219D01*
X160612530Y-129337219D02*
X160850625Y-128670552D01*
X161612530Y-129289600D02*
X161517292Y-129337219D01*
X161517292Y-129337219D02*
X161326816Y-129337219D01*
X161326816Y-129337219D02*
X161231578Y-129289600D01*
X161231578Y-129289600D02*
X161183959Y-129194361D01*
X161183959Y-129194361D02*
X161183959Y-128813409D01*
X161183959Y-128813409D02*
X161231578Y-128718171D01*
X161231578Y-128718171D02*
X161326816Y-128670552D01*
X161326816Y-128670552D02*
X161517292Y-128670552D01*
X161517292Y-128670552D02*
X161612530Y-128718171D01*
X161612530Y-128718171D02*
X161660149Y-128813409D01*
X161660149Y-128813409D02*
X161660149Y-128908647D01*
X161660149Y-128908647D02*
X161183959Y-129003885D01*
X162088721Y-129337219D02*
X162088721Y-128337219D01*
X162088721Y-128337219D02*
X162422054Y-129051504D01*
X162422054Y-129051504D02*
X162755387Y-128337219D01*
X162755387Y-128337219D02*
X162755387Y-129337219D01*
X163231578Y-129337219D02*
X163231578Y-128670552D01*
X163231578Y-128337219D02*
X163183959Y-128384838D01*
X163183959Y-128384838D02*
X163231578Y-128432457D01*
X163231578Y-128432457D02*
X163279197Y-128384838D01*
X163279197Y-128384838D02*
X163231578Y-128337219D01*
X163231578Y-128337219D02*
X163231578Y-128432457D01*
X163564911Y-128670552D02*
X163945863Y-128670552D01*
X163707768Y-128337219D02*
X163707768Y-129194361D01*
X163707768Y-129194361D02*
X163755387Y-129289600D01*
X163755387Y-129289600D02*
X163850625Y-129337219D01*
X163850625Y-129337219D02*
X163945863Y-129337219D01*
X164136340Y-128670552D02*
X164517292Y-128670552D01*
X164279197Y-128337219D02*
X164279197Y-129194361D01*
X164279197Y-129194361D02*
X164326816Y-129289600D01*
X164326816Y-129289600D02*
X164422054Y-129337219D01*
X164422054Y-129337219D02*
X164517292Y-129337219D01*
X165231578Y-129289600D02*
X165136340Y-129337219D01*
X165136340Y-129337219D02*
X164945864Y-129337219D01*
X164945864Y-129337219D02*
X164850626Y-129289600D01*
X164850626Y-129289600D02*
X164803007Y-129194361D01*
X164803007Y-129194361D02*
X164803007Y-128813409D01*
X164803007Y-128813409D02*
X164850626Y-128718171D01*
X164850626Y-128718171D02*
X164945864Y-128670552D01*
X164945864Y-128670552D02*
X165136340Y-128670552D01*
X165136340Y-128670552D02*
X165231578Y-128718171D01*
X165231578Y-128718171D02*
X165279197Y-128813409D01*
X165279197Y-128813409D02*
X165279197Y-128908647D01*
X165279197Y-128908647D02*
X164803007Y-129003885D01*
X165707769Y-128670552D02*
X165707769Y-129337219D01*
X165707769Y-128765790D02*
X165755388Y-128718171D01*
X165755388Y-128718171D02*
X165850626Y-128670552D01*
X165850626Y-128670552D02*
X165993483Y-128670552D01*
X165993483Y-128670552D02*
X166088721Y-128718171D01*
X166088721Y-128718171D02*
X166136340Y-128813409D01*
X166136340Y-128813409D02*
X166136340Y-129337219D01*
X166564912Y-129289600D02*
X166660150Y-129337219D01*
X166660150Y-129337219D02*
X166850626Y-129337219D01*
X166850626Y-129337219D02*
X166945864Y-129289600D01*
X166945864Y-129289600D02*
X166993483Y-129194361D01*
X166993483Y-129194361D02*
X166993483Y-129146742D01*
X166993483Y-129146742D02*
X166945864Y-129051504D01*
X166945864Y-129051504D02*
X166850626Y-129003885D01*
X166850626Y-129003885D02*
X166707769Y-129003885D01*
X166707769Y-129003885D02*
X166612531Y-128956266D01*
X166612531Y-128956266D02*
X166564912Y-128861028D01*
X166564912Y-128861028D02*
X166564912Y-128813409D01*
X166564912Y-128813409D02*
X166612531Y-128718171D01*
X166612531Y-128718171D02*
X166707769Y-128670552D01*
X166707769Y-128670552D02*
X166850626Y-128670552D01*
X166850626Y-128670552D02*
X166945864Y-128718171D01*
X168136340Y-128289600D02*
X167279198Y-129575314D01*
X169041102Y-129241980D02*
X168993483Y-129289600D01*
X168993483Y-129289600D02*
X168850626Y-129337219D01*
X168850626Y-129337219D02*
X168755388Y-129337219D01*
X168755388Y-129337219D02*
X168612531Y-129289600D01*
X168612531Y-129289600D02*
X168517293Y-129194361D01*
X168517293Y-129194361D02*
X168469674Y-129099123D01*
X168469674Y-129099123D02*
X168422055Y-128908647D01*
X168422055Y-128908647D02*
X168422055Y-128765790D01*
X168422055Y-128765790D02*
X168469674Y-128575314D01*
X168469674Y-128575314D02*
X168517293Y-128480076D01*
X168517293Y-128480076D02*
X168612531Y-128384838D01*
X168612531Y-128384838D02*
X168755388Y-128337219D01*
X168755388Y-128337219D02*
X168850626Y-128337219D01*
X168850626Y-128337219D02*
X168993483Y-128384838D01*
X168993483Y-128384838D02*
X169041102Y-128432457D01*
X169612531Y-129337219D02*
X169517293Y-129289600D01*
X169517293Y-129289600D02*
X169469674Y-129241980D01*
X169469674Y-129241980D02*
X169422055Y-129146742D01*
X169422055Y-129146742D02*
X169422055Y-128861028D01*
X169422055Y-128861028D02*
X169469674Y-128765790D01*
X169469674Y-128765790D02*
X169517293Y-128718171D01*
X169517293Y-128718171D02*
X169612531Y-128670552D01*
X169612531Y-128670552D02*
X169755388Y-128670552D01*
X169755388Y-128670552D02*
X169850626Y-128718171D01*
X169850626Y-128718171D02*
X169898245Y-128765790D01*
X169898245Y-128765790D02*
X169945864Y-128861028D01*
X169945864Y-128861028D02*
X169945864Y-129146742D01*
X169945864Y-129146742D02*
X169898245Y-129241980D01*
X169898245Y-129241980D02*
X169850626Y-129289600D01*
X169850626Y-129289600D02*
X169755388Y-129337219D01*
X169755388Y-129337219D02*
X169612531Y-129337219D01*
X170517293Y-129337219D02*
X170422055Y-129289600D01*
X170422055Y-129289600D02*
X170374436Y-129241980D01*
X170374436Y-129241980D02*
X170326817Y-129146742D01*
X170326817Y-129146742D02*
X170326817Y-128861028D01*
X170326817Y-128861028D02*
X170374436Y-128765790D01*
X170374436Y-128765790D02*
X170422055Y-128718171D01*
X170422055Y-128718171D02*
X170517293Y-128670552D01*
X170517293Y-128670552D02*
X170660150Y-128670552D01*
X170660150Y-128670552D02*
X170755388Y-128718171D01*
X170755388Y-128718171D02*
X170803007Y-128765790D01*
X170803007Y-128765790D02*
X170850626Y-128861028D01*
X170850626Y-128861028D02*
X170850626Y-129146742D01*
X170850626Y-129146742D02*
X170803007Y-129241980D01*
X170803007Y-129241980D02*
X170755388Y-129289600D01*
X170755388Y-129289600D02*
X170660150Y-129337219D01*
X170660150Y-129337219D02*
X170517293Y-129337219D01*
X171660150Y-129289600D02*
X171564912Y-129337219D01*
X171564912Y-129337219D02*
X171374436Y-129337219D01*
X171374436Y-129337219D02*
X171279198Y-129289600D01*
X171279198Y-129289600D02*
X171231579Y-129194361D01*
X171231579Y-129194361D02*
X171231579Y-128813409D01*
X171231579Y-128813409D02*
X171279198Y-128718171D01*
X171279198Y-128718171D02*
X171374436Y-128670552D01*
X171374436Y-128670552D02*
X171564912Y-128670552D01*
X171564912Y-128670552D02*
X171660150Y-128718171D01*
X171660150Y-128718171D02*
X171707769Y-128813409D01*
X171707769Y-128813409D02*
X171707769Y-128908647D01*
X171707769Y-128908647D02*
X171231579Y-129003885D01*
X172517293Y-129289600D02*
X172422055Y-129337219D01*
X172422055Y-129337219D02*
X172231579Y-129337219D01*
X172231579Y-129337219D02*
X172136341Y-129289600D01*
X172136341Y-129289600D02*
X172088722Y-129194361D01*
X172088722Y-129194361D02*
X172088722Y-128813409D01*
X172088722Y-128813409D02*
X172136341Y-128718171D01*
X172136341Y-128718171D02*
X172231579Y-128670552D01*
X172231579Y-128670552D02*
X172422055Y-128670552D01*
X172422055Y-128670552D02*
X172517293Y-128718171D01*
X172517293Y-128718171D02*
X172564912Y-128813409D01*
X172564912Y-128813409D02*
X172564912Y-128908647D01*
X172564912Y-128908647D02*
X172088722Y-129003885D01*
X173707769Y-128289600D02*
X172850627Y-129575314D01*
G36*
X142224218Y-109894122D02*
G01*
X142295127Y-109929576D01*
X142362197Y-109996646D01*
X142397219Y-110101711D01*
X142397219Y-110223580D01*
X141597219Y-110223580D01*
X141597219Y-110101712D01*
X141632240Y-109996647D01*
X141699313Y-109929575D01*
X141770218Y-109894122D01*
X141938099Y-109852152D01*
X142056337Y-109852152D01*
X142224218Y-109894122D01*
G37*
G36*
X142111504Y-109232456D02*
G01*
X141813446Y-109133104D01*
X142111504Y-109033751D01*
X142111504Y-109232456D01*
G37*
G36*
X142111504Y-107613408D02*
G01*
X141813446Y-107514056D01*
X142111504Y-107414703D01*
X142111504Y-107613408D01*
G37*
G36*
X142708330Y-110534691D02*
G01*
X141286108Y-110534691D01*
X141286108Y-110085485D01*
X141397219Y-110085485D01*
X141397219Y-110323580D01*
X141399140Y-110343089D01*
X141414072Y-110379137D01*
X141441662Y-110406727D01*
X141477710Y-110421659D01*
X141497219Y-110423580D01*
X142497219Y-110423580D01*
X142516728Y-110421659D01*
X142552776Y-110406727D01*
X142580366Y-110379137D01*
X142595298Y-110343089D01*
X142597219Y-110323580D01*
X142597219Y-110085485D01*
X142596246Y-110075611D01*
X142596434Y-110072977D01*
X142595646Y-110069513D01*
X142595298Y-110065976D01*
X142594286Y-110063534D01*
X142592087Y-110053862D01*
X142544468Y-109911005D01*
X142536477Y-109893105D01*
X142534122Y-109890389D01*
X142532747Y-109887070D01*
X142520311Y-109871917D01*
X142425071Y-109776679D01*
X142417401Y-109770384D01*
X142415672Y-109768390D01*
X142412667Y-109766498D01*
X142409918Y-109764242D01*
X142407474Y-109763229D01*
X142399082Y-109757947D01*
X142303844Y-109710328D01*
X142302417Y-109709782D01*
X142301837Y-109709352D01*
X142293660Y-109706430D01*
X142285536Y-109703322D01*
X142284813Y-109703270D01*
X142283376Y-109702757D01*
X142092901Y-109655138D01*
X142089519Y-109654637D01*
X142088156Y-109654073D01*
X142080805Y-109653349D01*
X142073508Y-109652270D01*
X142072049Y-109652487D01*
X142068647Y-109652152D01*
X141925790Y-109652152D01*
X141922387Y-109652487D01*
X141920929Y-109652270D01*
X141913631Y-109653349D01*
X141906281Y-109654073D01*
X141904917Y-109654637D01*
X141901536Y-109655138D01*
X141711060Y-109702757D01*
X141709621Y-109703270D01*
X141708901Y-109703322D01*
X141700776Y-109706430D01*
X141692600Y-109709352D01*
X141692020Y-109709781D01*
X141690592Y-109710328D01*
X141595355Y-109757947D01*
X141586956Y-109763233D01*
X141584519Y-109764243D01*
X141581775Y-109766494D01*
X141578764Y-109768390D01*
X141577031Y-109770387D01*
X141569365Y-109776679D01*
X141474127Y-109871917D01*
X141461691Y-109887071D01*
X141460316Y-109890389D01*
X141457961Y-109893105D01*
X141449970Y-109911006D01*
X141402351Y-110053862D01*
X141400151Y-110063533D01*
X141399140Y-110065976D01*
X141398791Y-110069514D01*
X141398004Y-110072978D01*
X141398191Y-110075611D01*
X141397219Y-110085485D01*
X141286108Y-110085485D01*
X141286108Y-109120597D01*
X141398004Y-109120597D01*
X141398892Y-109133104D01*
X141398004Y-109145611D01*
X141400263Y-109152389D01*
X141400770Y-109159517D01*
X141406376Y-109170729D01*
X141410342Y-109182627D01*
X141415025Y-109188026D01*
X141418220Y-109194416D01*
X141427691Y-109202631D01*
X141435907Y-109212103D01*
X141442296Y-109215297D01*
X141447696Y-109219981D01*
X141465596Y-109227972D01*
X142465596Y-109561305D01*
X142484711Y-109565652D01*
X142523631Y-109562886D01*
X142558530Y-109545436D01*
X142584095Y-109515960D01*
X142596434Y-109478944D01*
X142593667Y-109440024D01*
X142576218Y-109405125D01*
X142546742Y-109379560D01*
X142528841Y-109371569D01*
X142311504Y-109299123D01*
X142311504Y-108967084D01*
X142528841Y-108894639D01*
X142546742Y-108886648D01*
X142576218Y-108861083D01*
X142593667Y-108826184D01*
X142596434Y-108787264D01*
X142584095Y-108750248D01*
X142558530Y-108720772D01*
X142523631Y-108703322D01*
X142484711Y-108700556D01*
X142465596Y-108704903D01*
X141465596Y-109038236D01*
X141447696Y-109046227D01*
X141442296Y-109050910D01*
X141435907Y-109054105D01*
X141427691Y-109063576D01*
X141418220Y-109071792D01*
X141415025Y-109078181D01*
X141410342Y-109083581D01*
X141406376Y-109095478D01*
X141400770Y-109106691D01*
X141400263Y-109113818D01*
X141398004Y-109120597D01*
X141286108Y-109120597D01*
X141286108Y-108037866D01*
X141397219Y-108037866D01*
X141397219Y-108609294D01*
X141399140Y-108628803D01*
X141414072Y-108664851D01*
X141441662Y-108692441D01*
X141477710Y-108707373D01*
X141516728Y-108707373D01*
X141552776Y-108692441D01*
X141580366Y-108664851D01*
X141595298Y-108628803D01*
X141597219Y-108609294D01*
X141597219Y-108423580D01*
X142497219Y-108423580D01*
X142516728Y-108421659D01*
X142552776Y-108406727D01*
X142580366Y-108379137D01*
X142595298Y-108343089D01*
X142595298Y-108304071D01*
X142580366Y-108268023D01*
X142552776Y-108240433D01*
X142516728Y-108225501D01*
X142497219Y-108223580D01*
X141597219Y-108223580D01*
X141597219Y-108037866D01*
X141595298Y-108018357D01*
X141580366Y-107982309D01*
X141552776Y-107954719D01*
X141516728Y-107939787D01*
X141477710Y-107939787D01*
X141441662Y-107954719D01*
X141414072Y-107982309D01*
X141399140Y-108018357D01*
X141397219Y-108037866D01*
X141286108Y-108037866D01*
X141286108Y-107501549D01*
X141398004Y-107501549D01*
X141398892Y-107514056D01*
X141398004Y-107526563D01*
X141400263Y-107533341D01*
X141400770Y-107540469D01*
X141406376Y-107551681D01*
X141410342Y-107563579D01*
X141415025Y-107568978D01*
X141418220Y-107575368D01*
X141427691Y-107583583D01*
X141435907Y-107593055D01*
X141442296Y-107596249D01*
X141447696Y-107600933D01*
X141465596Y-107608924D01*
X142465596Y-107942257D01*
X142484711Y-107946604D01*
X142523631Y-107943838D01*
X142558530Y-107926388D01*
X142584095Y-107896912D01*
X142596434Y-107859896D01*
X142593667Y-107820976D01*
X142576218Y-107786077D01*
X142546742Y-107760512D01*
X142528841Y-107752521D01*
X142311504Y-107680075D01*
X142311504Y-107348036D01*
X142528841Y-107275591D01*
X142546742Y-107267600D01*
X142576218Y-107242035D01*
X142593667Y-107207136D01*
X142596434Y-107168216D01*
X142584095Y-107131200D01*
X142558530Y-107101724D01*
X142523631Y-107084274D01*
X142484711Y-107081508D01*
X142465596Y-107085855D01*
X141465596Y-107419188D01*
X141447696Y-107427179D01*
X141442296Y-107431862D01*
X141435907Y-107435057D01*
X141427691Y-107444528D01*
X141418220Y-107452744D01*
X141415025Y-107459133D01*
X141410342Y-107464533D01*
X141406376Y-107476430D01*
X141400770Y-107487643D01*
X141400263Y-107494770D01*
X141398004Y-107501549D01*
X141286108Y-107501549D01*
X141286108Y-106970397D01*
X142708330Y-106970397D01*
X142708330Y-110534691D01*
G37*
D13*
X170414819Y-119053333D02*
X170414819Y-118481905D01*
X171414819Y-118767619D02*
X170414819Y-118767619D01*
X171414819Y-117720000D02*
X170891009Y-117720000D01*
X170891009Y-117720000D02*
X170795771Y-117767619D01*
X170795771Y-117767619D02*
X170748152Y-117862857D01*
X170748152Y-117862857D02*
X170748152Y-118053333D01*
X170748152Y-118053333D02*
X170795771Y-118148571D01*
X171367200Y-117720000D02*
X171414819Y-117815238D01*
X171414819Y-117815238D02*
X171414819Y-118053333D01*
X171414819Y-118053333D02*
X171367200Y-118148571D01*
X171367200Y-118148571D02*
X171271961Y-118196190D01*
X171271961Y-118196190D02*
X171176723Y-118196190D01*
X171176723Y-118196190D02*
X171081485Y-118148571D01*
X171081485Y-118148571D02*
X171033866Y-118053333D01*
X171033866Y-118053333D02*
X171033866Y-117815238D01*
X171033866Y-117815238D02*
X170986247Y-117720000D01*
X171414819Y-117100952D02*
X171367200Y-117196190D01*
X171367200Y-117196190D02*
X171271961Y-117243809D01*
X171271961Y-117243809D02*
X170414819Y-117243809D01*
X171414819Y-116719999D02*
X170414819Y-116719999D01*
X171033866Y-116624761D02*
X171414819Y-116339047D01*
X170748152Y-116339047D02*
X171129104Y-116719999D01*
X171367200Y-115196189D02*
X171414819Y-115053332D01*
X171414819Y-115053332D02*
X171414819Y-114815237D01*
X171414819Y-114815237D02*
X171367200Y-114719999D01*
X171367200Y-114719999D02*
X171319580Y-114672380D01*
X171319580Y-114672380D02*
X171224342Y-114624761D01*
X171224342Y-114624761D02*
X171129104Y-114624761D01*
X171129104Y-114624761D02*
X171033866Y-114672380D01*
X171033866Y-114672380D02*
X170986247Y-114719999D01*
X170986247Y-114719999D02*
X170938628Y-114815237D01*
X170938628Y-114815237D02*
X170891009Y-115005713D01*
X170891009Y-115005713D02*
X170843390Y-115100951D01*
X170843390Y-115100951D02*
X170795771Y-115148570D01*
X170795771Y-115148570D02*
X170700533Y-115196189D01*
X170700533Y-115196189D02*
X170605295Y-115196189D01*
X170605295Y-115196189D02*
X170510057Y-115148570D01*
X170510057Y-115148570D02*
X170462438Y-115100951D01*
X170462438Y-115100951D02*
X170414819Y-115005713D01*
X170414819Y-115005713D02*
X170414819Y-114767618D01*
X170414819Y-114767618D02*
X170462438Y-114624761D01*
X170414819Y-114291427D02*
X171414819Y-114053332D01*
X171414819Y-114053332D02*
X170700533Y-113862856D01*
X170700533Y-113862856D02*
X171414819Y-113672380D01*
X171414819Y-113672380D02*
X170414819Y-113434285D01*
D12*
G36*
X137413086Y-110525626D02*
G01*
X135991108Y-110525626D01*
X135991108Y-110161073D01*
X136626813Y-110161073D01*
X136627701Y-110173580D01*
X136626813Y-110186087D01*
X136629072Y-110192865D01*
X136629579Y-110199993D01*
X136636585Y-110218301D01*
X136684204Y-110313539D01*
X136689489Y-110321935D01*
X136690500Y-110324375D01*
X136692753Y-110327121D01*
X136694647Y-110330129D01*
X136696641Y-110331858D01*
X136702936Y-110339529D01*
X136750555Y-110387147D01*
X136765708Y-110399584D01*
X136801757Y-110414515D01*
X136840775Y-110414515D01*
X136876823Y-110399584D01*
X136904413Y-110371994D01*
X136919344Y-110335946D01*
X136919344Y-110296928D01*
X136904413Y-110260879D01*
X136891976Y-110245726D01*
X136855833Y-110209582D01*
X136837831Y-110173579D01*
X136910709Y-110027825D01*
X136917715Y-110009517D01*
X136918221Y-110002389D01*
X136920481Y-109995611D01*
X136919592Y-109983103D01*
X136920481Y-109970596D01*
X136918221Y-109963817D01*
X136917715Y-109956691D01*
X136910709Y-109938382D01*
X136863090Y-109843145D01*
X136857804Y-109834748D01*
X136856794Y-109832308D01*
X136854540Y-109829562D01*
X136852647Y-109826554D01*
X136850649Y-109824821D01*
X136844357Y-109817155D01*
X136796739Y-109769536D01*
X136781585Y-109757100D01*
X136745537Y-109742168D01*
X136706519Y-109742168D01*
X136670471Y-109757100D01*
X136642881Y-109784690D01*
X136627949Y-109820738D01*
X136627949Y-109859756D01*
X136642881Y-109895804D01*
X136655317Y-109910958D01*
X136691461Y-109947101D01*
X136709462Y-109983103D01*
X136636585Y-110128859D01*
X136629579Y-110147167D01*
X136629072Y-110154294D01*
X136626813Y-110161073D01*
X135991108Y-110161073D01*
X135991108Y-109439785D01*
X136104140Y-109439785D01*
X136104140Y-109478803D01*
X136119072Y-109514851D01*
X136146662Y-109542441D01*
X136182710Y-109557373D01*
X136202219Y-109559294D01*
X137202219Y-109559294D01*
X137221728Y-109557373D01*
X137257776Y-109542441D01*
X137285366Y-109514851D01*
X137300298Y-109478803D01*
X137300298Y-109439785D01*
X137285366Y-109403737D01*
X137257776Y-109376147D01*
X137221728Y-109361215D01*
X137202219Y-109359294D01*
X136202219Y-109359294D01*
X136182710Y-109361215D01*
X136146662Y-109376147D01*
X136119072Y-109403737D01*
X136104140Y-109439785D01*
X135991108Y-109439785D01*
X135991108Y-108976119D01*
X136102463Y-108976119D01*
X136104140Y-108989312D01*
X136104140Y-109002613D01*
X136106579Y-109008501D01*
X136107383Y-109014826D01*
X136113983Y-109026375D01*
X136119072Y-109038661D01*
X136123579Y-109043168D01*
X136126742Y-109048703D01*
X136137256Y-109056845D01*
X136146662Y-109066251D01*
X136152552Y-109068690D01*
X136157591Y-109072593D01*
X136170419Y-109076091D01*
X136182710Y-109081183D01*
X136192687Y-109082165D01*
X136195234Y-109082860D01*
X136197201Y-109082609D01*
X136202219Y-109083104D01*
X137202219Y-109083104D01*
X137221728Y-109081183D01*
X137257776Y-109066251D01*
X137285366Y-109038661D01*
X137300298Y-109002613D01*
X137300298Y-108963595D01*
X137285366Y-108927547D01*
X137257776Y-108899957D01*
X137221728Y-108885025D01*
X137202219Y-108883104D01*
X136578775Y-108883104D01*
X137251833Y-108498500D01*
X137255943Y-108495581D01*
X137257776Y-108494823D01*
X137259642Y-108492956D01*
X137267818Y-108487153D01*
X137275962Y-108476636D01*
X137285366Y-108467233D01*
X137287804Y-108461345D01*
X137291709Y-108456304D01*
X137295208Y-108443471D01*
X137300298Y-108431185D01*
X137300298Y-108424809D01*
X137301975Y-108418660D01*
X137300298Y-108405466D01*
X137300298Y-108392167D01*
X137297858Y-108386278D01*
X137297055Y-108379954D01*
X137290454Y-108368404D01*
X137285366Y-108356119D01*
X137280858Y-108351611D01*
X137277696Y-108346077D01*
X137267179Y-108337932D01*
X137257776Y-108328529D01*
X137251888Y-108326090D01*
X137246847Y-108322186D01*
X137234014Y-108318686D01*
X137221728Y-108313597D01*
X137211750Y-108312614D01*
X137209204Y-108311920D01*
X137207236Y-108312170D01*
X137202219Y-108311676D01*
X136202219Y-108311676D01*
X136182710Y-108313597D01*
X136146662Y-108328529D01*
X136119072Y-108356119D01*
X136104140Y-108392167D01*
X136104140Y-108431185D01*
X136119072Y-108467233D01*
X136146662Y-108494823D01*
X136182710Y-108509755D01*
X136202219Y-108511676D01*
X136825663Y-108511676D01*
X136152605Y-108896280D01*
X136148494Y-108899198D01*
X136146662Y-108899957D01*
X136144795Y-108901823D01*
X136136620Y-108907627D01*
X136128477Y-108918141D01*
X136119072Y-108927547D01*
X136116632Y-108933437D01*
X136112730Y-108938476D01*
X136109231Y-108951304D01*
X136104140Y-108963595D01*
X136104140Y-108969970D01*
X136102463Y-108976119D01*
X135991108Y-108976119D01*
X135991108Y-107506914D01*
X136102219Y-107506914D01*
X136102219Y-108078342D01*
X136104140Y-108097851D01*
X136119072Y-108133899D01*
X136146662Y-108161489D01*
X136182710Y-108176421D01*
X136221728Y-108176421D01*
X136257776Y-108161489D01*
X136285366Y-108133899D01*
X136300298Y-108097851D01*
X136302219Y-108078342D01*
X136302219Y-107892628D01*
X137202219Y-107892628D01*
X137221728Y-107890707D01*
X137257776Y-107875775D01*
X137285366Y-107848185D01*
X137300298Y-107812137D01*
X137300298Y-107773119D01*
X137285366Y-107737071D01*
X137257776Y-107709481D01*
X137221728Y-107694549D01*
X137202219Y-107692628D01*
X136302219Y-107692628D01*
X136302219Y-107506914D01*
X136300298Y-107487405D01*
X136285366Y-107451357D01*
X136257776Y-107423767D01*
X136221728Y-107408835D01*
X136182710Y-107408835D01*
X136146662Y-107423767D01*
X136119072Y-107451357D01*
X136104140Y-107487405D01*
X136102219Y-107506914D01*
X135991108Y-107506914D01*
X135991108Y-107297724D01*
X137413086Y-107297724D01*
X137413086Y-110525626D01*
G37*
G36*
X189626237Y-115707149D02*
G01*
X189872115Y-115807842D01*
X190093405Y-115978070D01*
X190265386Y-116197098D01*
X190367402Y-116443206D01*
X190402372Y-116725453D01*
X190367720Y-117003901D01*
X190265966Y-117250634D01*
X190093405Y-117474057D01*
X189871682Y-117647945D01*
X189625832Y-117750504D01*
X189347243Y-117785467D01*
X182508443Y-117785467D01*
X182225532Y-117750244D01*
X181978833Y-117647457D01*
X181759228Y-117474057D01*
X181588497Y-117250850D01*
X181487676Y-117004101D01*
X181453314Y-116725453D01*
X181487992Y-116443000D01*
X181589074Y-116196880D01*
X181759228Y-115978070D01*
X181978396Y-115808323D01*
X182225120Y-115707405D01*
X182508443Y-115672766D01*
X189347243Y-115672766D01*
X189626237Y-115707149D01*
G37*
G36*
X189626237Y-108135621D02*
G01*
X189872115Y-108236314D01*
X190093405Y-108406542D01*
X190265386Y-108625570D01*
X190367402Y-108871678D01*
X190402372Y-109153925D01*
X190367720Y-109432372D01*
X190265966Y-109679106D01*
X190093405Y-109902529D01*
X189871682Y-110076417D01*
X189625832Y-110178975D01*
X189347243Y-110213939D01*
X182508443Y-110213939D01*
X182225532Y-110178716D01*
X181978833Y-110075929D01*
X181759228Y-109902529D01*
X181588497Y-109679322D01*
X181487676Y-109432573D01*
X181453314Y-109153925D01*
X181487992Y-108871472D01*
X181589074Y-108625351D01*
X181759228Y-108406542D01*
X181978396Y-108236795D01*
X182225120Y-108135877D01*
X182508443Y-108101238D01*
X189347243Y-108101238D01*
X189626237Y-108135621D01*
G37*
G36*
X193467426Y-128237035D02*
G01*
X178427339Y-128237035D01*
X178427339Y-124127843D01*
X179538450Y-124127843D01*
X179594259Y-124729416D01*
X179757567Y-125275653D01*
X180028579Y-125778396D01*
X180415893Y-126246039D01*
X180881823Y-126634075D01*
X181384376Y-126905851D01*
X181932114Y-127069820D01*
X182537142Y-127125924D01*
X189364340Y-127125924D01*
X189969759Y-127070136D01*
X190517104Y-126907217D01*
X191018497Y-126637462D01*
X191482536Y-126252756D01*
X191867199Y-125788754D01*
X192137171Y-125286338D01*
X192300379Y-124736793D01*
X192356315Y-124127843D01*
X192301926Y-123528833D01*
X192142842Y-122984553D01*
X191879210Y-122483551D01*
X191503297Y-122017585D01*
X191048937Y-121630180D01*
X190553947Y-121358235D01*
X190009322Y-121193621D01*
X189402198Y-121137090D01*
X187647313Y-121137090D01*
X187647313Y-123122784D01*
X189381437Y-123122784D01*
X189664003Y-123157984D01*
X189911579Y-123260900D01*
X190133094Y-123434804D01*
X190304964Y-123658307D01*
X190406693Y-123906989D01*
X190441451Y-124189515D01*
X190406723Y-124467842D01*
X190304918Y-124713295D01*
X190132484Y-124934455D01*
X189910463Y-125106176D01*
X189662250Y-125207970D01*
X189378995Y-125242812D01*
X182523098Y-125242812D01*
X182239341Y-125208018D01*
X181989862Y-125106249D01*
X181765945Y-124934455D01*
X181591312Y-124713035D01*
X181488389Y-124467598D01*
X181453314Y-124189515D01*
X181488421Y-123907232D01*
X181591271Y-123658567D01*
X181765334Y-123434804D01*
X181988720Y-123260762D01*
X182237172Y-123157903D01*
X182519434Y-123122784D01*
X183994050Y-123122784D01*
X183994050Y-121137090D01*
X182553628Y-121137090D01*
X181951399Y-121192410D01*
X181403364Y-121354382D01*
X180897951Y-121623204D01*
X180426884Y-122007205D01*
X180035295Y-122470014D01*
X179760928Y-122971236D01*
X179595227Y-123519666D01*
X179538450Y-124127843D01*
X178427339Y-124127843D01*
X178427339Y-116677826D01*
X179538450Y-116677826D01*
X179542904Y-116725453D01*
X179594017Y-117271962D01*
X179756922Y-117813559D01*
X180027860Y-118314170D01*
X180415893Y-118781978D01*
X180882032Y-119169631D01*
X181385991Y-119441448D01*
X181936457Y-119605631D01*
X182545690Y-119661863D01*
X189349075Y-119661863D01*
X189954957Y-119606361D01*
X190503909Y-119444165D01*
X191007829Y-119175500D01*
X191475209Y-118792358D01*
X191863625Y-118329622D01*
X192135759Y-117829338D01*
X192300053Y-117282839D01*
X192356315Y-116677826D01*
X192300383Y-116072688D01*
X192136873Y-115524344D01*
X191865827Y-115020793D01*
X191478872Y-114553524D01*
X191012697Y-114165577D01*
X190508726Y-113893576D01*
X189958275Y-113729293D01*
X189349075Y-113673028D01*
X182545690Y-113673028D01*
X181940206Y-113728922D01*
X181391425Y-113892326D01*
X180887377Y-114163193D01*
X180419556Y-114549860D01*
X180031273Y-115015789D01*
X179759095Y-115519378D01*
X179594735Y-116069302D01*
X179538450Y-116677826D01*
X178427339Y-116677826D01*
X178427339Y-109106297D01*
X179538450Y-109106297D01*
X179542904Y-109153925D01*
X179594017Y-109700434D01*
X179756922Y-110242030D01*
X180027860Y-110742642D01*
X180415893Y-111210450D01*
X180882032Y-111598103D01*
X181385991Y-111869920D01*
X181936457Y-112034102D01*
X182545690Y-112090334D01*
X189349075Y-112090334D01*
X189954957Y-112034832D01*
X190503909Y-111872637D01*
X191007829Y-111603971D01*
X191475209Y-111220830D01*
X191863625Y-110758094D01*
X192135759Y-110257809D01*
X192300053Y-109711310D01*
X192356315Y-109106297D01*
X192300383Y-108501160D01*
X192136873Y-107952815D01*
X191865827Y-107449264D01*
X191478872Y-106981995D01*
X191012697Y-106594048D01*
X190508726Y-106322047D01*
X189958275Y-106157764D01*
X189349075Y-106101500D01*
X182545690Y-106101500D01*
X181940206Y-106157393D01*
X181391425Y-106320798D01*
X180887377Y-106591665D01*
X180419556Y-106978332D01*
X180031273Y-107444261D01*
X179759095Y-107947849D01*
X179594735Y-108497774D01*
X179538450Y-109106297D01*
X178427339Y-109106297D01*
X178427339Y-104489497D01*
X179694766Y-104489497D01*
X192200000Y-104489497D01*
X192200000Y-99108827D01*
X190285136Y-99108827D01*
X190285136Y-102578907D01*
X186924354Y-102578907D01*
X186924354Y-100044277D01*
X185009490Y-100044277D01*
X185009490Y-102578907D01*
X181609630Y-102578907D01*
X181609630Y-99108827D01*
X179694766Y-99108827D01*
X179694766Y-104489497D01*
X178427339Y-104489497D01*
X178427339Y-97846092D01*
X179694766Y-97846092D01*
X192200000Y-97846092D01*
X192200000Y-92465422D01*
X190285136Y-92465422D01*
X190285136Y-95935502D01*
X186924354Y-95935502D01*
X186924354Y-93400872D01*
X185009490Y-93400872D01*
X185009490Y-95935502D01*
X181609630Y-95935502D01*
X181609630Y-92465422D01*
X179694766Y-92465422D01*
X179694766Y-97846092D01*
X178427339Y-97846092D01*
X178427339Y-91354311D01*
X193467426Y-91354311D01*
X193467426Y-128237035D01*
G37*
X137219673Y-103392219D02*
X137219673Y-102392219D01*
X137791101Y-103392219D02*
X137362530Y-102820790D01*
X137791101Y-102392219D02*
X137219673Y-102963647D01*
X138219673Y-102868409D02*
X138553006Y-102868409D01*
X138695863Y-103392219D02*
X138219673Y-103392219D01*
X138219673Y-103392219D02*
X138219673Y-102392219D01*
X138219673Y-102392219D02*
X138695863Y-102392219D01*
X139314911Y-102916028D02*
X139314911Y-103392219D01*
X138981578Y-102392219D02*
X139314911Y-102916028D01*
X139314911Y-102916028D02*
X139648244Y-102392219D01*
X140314911Y-102868409D02*
X140457768Y-102916028D01*
X140457768Y-102916028D02*
X140505387Y-102963647D01*
X140505387Y-102963647D02*
X140553006Y-103058885D01*
X140553006Y-103058885D02*
X140553006Y-103201742D01*
X140553006Y-103201742D02*
X140505387Y-103296980D01*
X140505387Y-103296980D02*
X140457768Y-103344600D01*
X140457768Y-103344600D02*
X140362530Y-103392219D01*
X140362530Y-103392219D02*
X139981578Y-103392219D01*
X139981578Y-103392219D02*
X139981578Y-102392219D01*
X139981578Y-102392219D02*
X140314911Y-102392219D01*
X140314911Y-102392219D02*
X140410149Y-102439838D01*
X140410149Y-102439838D02*
X140457768Y-102487457D01*
X140457768Y-102487457D02*
X140505387Y-102582695D01*
X140505387Y-102582695D02*
X140505387Y-102677933D01*
X140505387Y-102677933D02*
X140457768Y-102773171D01*
X140457768Y-102773171D02*
X140410149Y-102820790D01*
X140410149Y-102820790D02*
X140314911Y-102868409D01*
X140314911Y-102868409D02*
X139981578Y-102868409D01*
X141172054Y-102392219D02*
X141362530Y-102392219D01*
X141362530Y-102392219D02*
X141457768Y-102439838D01*
X141457768Y-102439838D02*
X141553006Y-102535076D01*
X141553006Y-102535076D02*
X141600625Y-102725552D01*
X141600625Y-102725552D02*
X141600625Y-103058885D01*
X141600625Y-103058885D02*
X141553006Y-103249361D01*
X141553006Y-103249361D02*
X141457768Y-103344600D01*
X141457768Y-103344600D02*
X141362530Y-103392219D01*
X141362530Y-103392219D02*
X141172054Y-103392219D01*
X141172054Y-103392219D02*
X141076816Y-103344600D01*
X141076816Y-103344600D02*
X140981578Y-103249361D01*
X140981578Y-103249361D02*
X140933959Y-103058885D01*
X140933959Y-103058885D02*
X140933959Y-102725552D01*
X140933959Y-102725552D02*
X140981578Y-102535076D01*
X140981578Y-102535076D02*
X141076816Y-102439838D01*
X141076816Y-102439838D02*
X141172054Y-102392219D01*
X141981578Y-103106504D02*
X142457768Y-103106504D01*
X141886340Y-103392219D02*
X142219673Y-102392219D01*
X142219673Y-102392219D02*
X142553006Y-103392219D01*
X143457768Y-103392219D02*
X143124435Y-102916028D01*
X142886340Y-103392219D02*
X142886340Y-102392219D01*
X142886340Y-102392219D02*
X143267292Y-102392219D01*
X143267292Y-102392219D02*
X143362530Y-102439838D01*
X143362530Y-102439838D02*
X143410149Y-102487457D01*
X143410149Y-102487457D02*
X143457768Y-102582695D01*
X143457768Y-102582695D02*
X143457768Y-102725552D01*
X143457768Y-102725552D02*
X143410149Y-102820790D01*
X143410149Y-102820790D02*
X143362530Y-102868409D01*
X143362530Y-102868409D02*
X143267292Y-102916028D01*
X143267292Y-102916028D02*
X142886340Y-102916028D01*
X143886340Y-103392219D02*
X143886340Y-102392219D01*
X143886340Y-102392219D02*
X144124435Y-102392219D01*
X144124435Y-102392219D02*
X144267292Y-102439838D01*
X144267292Y-102439838D02*
X144362530Y-102535076D01*
X144362530Y-102535076D02*
X144410149Y-102630314D01*
X144410149Y-102630314D02*
X144457768Y-102820790D01*
X144457768Y-102820790D02*
X144457768Y-102963647D01*
X144457768Y-102963647D02*
X144410149Y-103154123D01*
X144410149Y-103154123D02*
X144362530Y-103249361D01*
X144362530Y-103249361D02*
X144267292Y-103344600D01*
X144267292Y-103344600D02*
X144124435Y-103392219D01*
X144124435Y-103392219D02*
X143886340Y-103392219D01*
X145648245Y-103392219D02*
X145648245Y-102392219D01*
X146124435Y-103392219D02*
X146124435Y-102392219D01*
X146124435Y-102392219D02*
X146695863Y-103392219D01*
X146695863Y-103392219D02*
X146695863Y-102392219D01*
D11*
X146530038Y-110297306D02*
X146482419Y-110392544D01*
X146482419Y-110392544D02*
X146482419Y-110535401D01*
X146482419Y-110535401D02*
X146530038Y-110678258D01*
X146530038Y-110678258D02*
X146625276Y-110773496D01*
X146625276Y-110773496D02*
X146720514Y-110821115D01*
X146720514Y-110821115D02*
X146910990Y-110868734D01*
X146910990Y-110868734D02*
X147053847Y-110868734D01*
X147053847Y-110868734D02*
X147244323Y-110821115D01*
X147244323Y-110821115D02*
X147339561Y-110773496D01*
X147339561Y-110773496D02*
X147434800Y-110678258D01*
X147434800Y-110678258D02*
X147482419Y-110535401D01*
X147482419Y-110535401D02*
X147482419Y-110440163D01*
X147482419Y-110440163D02*
X147434800Y-110297306D01*
X147434800Y-110297306D02*
X147387180Y-110249687D01*
X147387180Y-110249687D02*
X147053847Y-110249687D01*
X147053847Y-110249687D02*
X147053847Y-110440163D01*
X147482419Y-109249687D02*
X147006228Y-109583020D01*
X147482419Y-109821115D02*
X146482419Y-109821115D01*
X146482419Y-109821115D02*
X146482419Y-109440163D01*
X146482419Y-109440163D02*
X146530038Y-109344925D01*
X146530038Y-109344925D02*
X146577657Y-109297306D01*
X146577657Y-109297306D02*
X146672895Y-109249687D01*
X146672895Y-109249687D02*
X146815752Y-109249687D01*
X146815752Y-109249687D02*
X146910990Y-109297306D01*
X146910990Y-109297306D02*
X146958609Y-109344925D01*
X146958609Y-109344925D02*
X147006228Y-109440163D01*
X147006228Y-109440163D02*
X147006228Y-109821115D01*
X146482419Y-108630639D02*
X146482419Y-108440163D01*
X146482419Y-108440163D02*
X146530038Y-108344925D01*
X146530038Y-108344925D02*
X146625276Y-108249687D01*
X146625276Y-108249687D02*
X146815752Y-108202068D01*
X146815752Y-108202068D02*
X147149085Y-108202068D01*
X147149085Y-108202068D02*
X147339561Y-108249687D01*
X147339561Y-108249687D02*
X147434800Y-108344925D01*
X147434800Y-108344925D02*
X147482419Y-108440163D01*
X147482419Y-108440163D02*
X147482419Y-108630639D01*
X147482419Y-108630639D02*
X147434800Y-108725877D01*
X147434800Y-108725877D02*
X147339561Y-108821115D01*
X147339561Y-108821115D02*
X147149085Y-108868734D01*
X147149085Y-108868734D02*
X146815752Y-108868734D01*
X146815752Y-108868734D02*
X146625276Y-108821115D01*
X146625276Y-108821115D02*
X146530038Y-108725877D01*
X146530038Y-108725877D02*
X146482419Y-108630639D01*
X146482419Y-107773496D02*
X147291942Y-107773496D01*
X147291942Y-107773496D02*
X147387180Y-107725877D01*
X147387180Y-107725877D02*
X147434800Y-107678258D01*
X147434800Y-107678258D02*
X147482419Y-107583020D01*
X147482419Y-107583020D02*
X147482419Y-107392544D01*
X147482419Y-107392544D02*
X147434800Y-107297306D01*
X147434800Y-107297306D02*
X147387180Y-107249687D01*
X147387180Y-107249687D02*
X147291942Y-107202068D01*
X147291942Y-107202068D02*
X146482419Y-107202068D01*
X147482419Y-106725877D02*
X146482419Y-106725877D01*
X146482419Y-106725877D02*
X147482419Y-106154449D01*
X147482419Y-106154449D02*
X146482419Y-106154449D01*
X147482419Y-105678258D02*
X146482419Y-105678258D01*
X146482419Y-105678258D02*
X146482419Y-105440163D01*
X146482419Y-105440163D02*
X146530038Y-105297306D01*
X146530038Y-105297306D02*
X146625276Y-105202068D01*
X146625276Y-105202068D02*
X146720514Y-105154449D01*
X146720514Y-105154449D02*
X146910990Y-105106830D01*
X146910990Y-105106830D02*
X147053847Y-105106830D01*
X147053847Y-105106830D02*
X147244323Y-105154449D01*
X147244323Y-105154449D02*
X147339561Y-105202068D01*
X147339561Y-105202068D02*
X147434800Y-105297306D01*
X147434800Y-105297306D02*
X147482419Y-105440163D01*
X147482419Y-105440163D02*
X147482419Y-105678258D01*
D13*
X191263095Y-126879819D02*
X191263095Y-125879819D01*
X191263095Y-126356009D02*
X191834523Y-126356009D01*
X191834523Y-126879819D02*
X191834523Y-125879819D01*
X192834523Y-126879819D02*
X192263095Y-126879819D01*
X192548809Y-126879819D02*
X192548809Y-125879819D01*
X192548809Y-125879819D02*
X192453571Y-126022676D01*
X192453571Y-126022676D02*
X192358333Y-126117914D01*
X192358333Y-126117914D02*
X192263095Y-126165533D01*
X173660476Y-90454819D02*
X173660476Y-89454819D01*
X173660476Y-89454819D02*
X173898571Y-89454819D01*
X173898571Y-89454819D02*
X174041428Y-89502438D01*
X174041428Y-89502438D02*
X174136666Y-89597676D01*
X174136666Y-89597676D02*
X174184285Y-89692914D01*
X174184285Y-89692914D02*
X174231904Y-89883390D01*
X174231904Y-89883390D02*
X174231904Y-90026247D01*
X174231904Y-90026247D02*
X174184285Y-90216723D01*
X174184285Y-90216723D02*
X174136666Y-90311961D01*
X174136666Y-90311961D02*
X174041428Y-90407200D01*
X174041428Y-90407200D02*
X173898571Y-90454819D01*
X173898571Y-90454819D02*
X173660476Y-90454819D01*
X174660476Y-90454819D02*
X174660476Y-89788152D01*
X174660476Y-89454819D02*
X174612857Y-89502438D01*
X174612857Y-89502438D02*
X174660476Y-89550057D01*
X174660476Y-89550057D02*
X174708095Y-89502438D01*
X174708095Y-89502438D02*
X174660476Y-89454819D01*
X174660476Y-89454819D02*
X174660476Y-89550057D01*
X175089047Y-90407200D02*
X175184285Y-90454819D01*
X175184285Y-90454819D02*
X175374761Y-90454819D01*
X175374761Y-90454819D02*
X175469999Y-90407200D01*
X175469999Y-90407200D02*
X175517618Y-90311961D01*
X175517618Y-90311961D02*
X175517618Y-90264342D01*
X175517618Y-90264342D02*
X175469999Y-90169104D01*
X175469999Y-90169104D02*
X175374761Y-90121485D01*
X175374761Y-90121485D02*
X175231904Y-90121485D01*
X175231904Y-90121485D02*
X175136666Y-90073866D01*
X175136666Y-90073866D02*
X175089047Y-89978628D01*
X175089047Y-89978628D02*
X175089047Y-89931009D01*
X175089047Y-89931009D02*
X175136666Y-89835771D01*
X175136666Y-89835771D02*
X175231904Y-89788152D01*
X175231904Y-89788152D02*
X175374761Y-89788152D01*
X175374761Y-89788152D02*
X175469999Y-89835771D01*
X175946190Y-89788152D02*
X175946190Y-90788152D01*
X175946190Y-89835771D02*
X176041428Y-89788152D01*
X176041428Y-89788152D02*
X176231904Y-89788152D01*
X176231904Y-89788152D02*
X176327142Y-89835771D01*
X176327142Y-89835771D02*
X176374761Y-89883390D01*
X176374761Y-89883390D02*
X176422380Y-89978628D01*
X176422380Y-89978628D02*
X176422380Y-90264342D01*
X176422380Y-90264342D02*
X176374761Y-90359580D01*
X176374761Y-90359580D02*
X176327142Y-90407200D01*
X176327142Y-90407200D02*
X176231904Y-90454819D01*
X176231904Y-90454819D02*
X176041428Y-90454819D01*
X176041428Y-90454819D02*
X175946190Y-90407200D01*
X176993809Y-90454819D02*
X176898571Y-90407200D01*
X176898571Y-90407200D02*
X176850952Y-90311961D01*
X176850952Y-90311961D02*
X176850952Y-89454819D01*
X177803333Y-90454819D02*
X177803333Y-89931009D01*
X177803333Y-89931009D02*
X177755714Y-89835771D01*
X177755714Y-89835771D02*
X177660476Y-89788152D01*
X177660476Y-89788152D02*
X177470000Y-89788152D01*
X177470000Y-89788152D02*
X177374762Y-89835771D01*
X177803333Y-90407200D02*
X177708095Y-90454819D01*
X177708095Y-90454819D02*
X177470000Y-90454819D01*
X177470000Y-90454819D02*
X177374762Y-90407200D01*
X177374762Y-90407200D02*
X177327143Y-90311961D01*
X177327143Y-90311961D02*
X177327143Y-90216723D01*
X177327143Y-90216723D02*
X177374762Y-90121485D01*
X177374762Y-90121485D02*
X177470000Y-90073866D01*
X177470000Y-90073866D02*
X177708095Y-90073866D01*
X177708095Y-90073866D02*
X177803333Y-90026247D01*
X178184286Y-89788152D02*
X178422381Y-90454819D01*
X178660476Y-89788152D02*
X178422381Y-90454819D01*
X178422381Y-90454819D02*
X178327143Y-90692914D01*
X178327143Y-90692914D02*
X178279524Y-90740533D01*
X178279524Y-90740533D02*
X178184286Y-90788152D01*
X180374762Y-90359580D02*
X180327143Y-90407200D01*
X180327143Y-90407200D02*
X180184286Y-90454819D01*
X180184286Y-90454819D02*
X180089048Y-90454819D01*
X180089048Y-90454819D02*
X179946191Y-90407200D01*
X179946191Y-90407200D02*
X179850953Y-90311961D01*
X179850953Y-90311961D02*
X179803334Y-90216723D01*
X179803334Y-90216723D02*
X179755715Y-90026247D01*
X179755715Y-90026247D02*
X179755715Y-89883390D01*
X179755715Y-89883390D02*
X179803334Y-89692914D01*
X179803334Y-89692914D02*
X179850953Y-89597676D01*
X179850953Y-89597676D02*
X179946191Y-89502438D01*
X179946191Y-89502438D02*
X180089048Y-89454819D01*
X180089048Y-89454819D02*
X180184286Y-89454819D01*
X180184286Y-89454819D02*
X180327143Y-89502438D01*
X180327143Y-89502438D02*
X180374762Y-89550057D01*
X180755715Y-90407200D02*
X180898572Y-90454819D01*
X180898572Y-90454819D02*
X181136667Y-90454819D01*
X181136667Y-90454819D02*
X181231905Y-90407200D01*
X181231905Y-90407200D02*
X181279524Y-90359580D01*
X181279524Y-90359580D02*
X181327143Y-90264342D01*
X181327143Y-90264342D02*
X181327143Y-90169104D01*
X181327143Y-90169104D02*
X181279524Y-90073866D01*
X181279524Y-90073866D02*
X181231905Y-90026247D01*
X181231905Y-90026247D02*
X181136667Y-89978628D01*
X181136667Y-89978628D02*
X180946191Y-89931009D01*
X180946191Y-89931009D02*
X180850953Y-89883390D01*
X180850953Y-89883390D02*
X180803334Y-89835771D01*
X180803334Y-89835771D02*
X180755715Y-89740533D01*
X180755715Y-89740533D02*
X180755715Y-89645295D01*
X180755715Y-89645295D02*
X180803334Y-89550057D01*
X180803334Y-89550057D02*
X180850953Y-89502438D01*
X180850953Y-89502438D02*
X180946191Y-89454819D01*
X180946191Y-89454819D02*
X181184286Y-89454819D01*
X181184286Y-89454819D02*
X181327143Y-89502438D01*
X177019580Y-97655238D02*
X177067200Y-97702857D01*
X177067200Y-97702857D02*
X177114819Y-97845714D01*
X177114819Y-97845714D02*
X177114819Y-97940952D01*
X177114819Y-97940952D02*
X177067200Y-98083809D01*
X177067200Y-98083809D02*
X176971961Y-98179047D01*
X176971961Y-98179047D02*
X176876723Y-98226666D01*
X176876723Y-98226666D02*
X176686247Y-98274285D01*
X176686247Y-98274285D02*
X176543390Y-98274285D01*
X176543390Y-98274285D02*
X176352914Y-98226666D01*
X176352914Y-98226666D02*
X176257676Y-98179047D01*
X176257676Y-98179047D02*
X176162438Y-98083809D01*
X176162438Y-98083809D02*
X176114819Y-97940952D01*
X176114819Y-97940952D02*
X176114819Y-97845714D01*
X176114819Y-97845714D02*
X176162438Y-97702857D01*
X176162438Y-97702857D02*
X176210057Y-97655238D01*
X177114819Y-96750476D02*
X177114819Y-97226666D01*
X177114819Y-97226666D02*
X176114819Y-97226666D01*
X177019580Y-95845714D02*
X177067200Y-95893333D01*
X177067200Y-95893333D02*
X177114819Y-96036190D01*
X177114819Y-96036190D02*
X177114819Y-96131428D01*
X177114819Y-96131428D02*
X177067200Y-96274285D01*
X177067200Y-96274285D02*
X176971961Y-96369523D01*
X176971961Y-96369523D02*
X176876723Y-96417142D01*
X176876723Y-96417142D02*
X176686247Y-96464761D01*
X176686247Y-96464761D02*
X176543390Y-96464761D01*
X176543390Y-96464761D02*
X176352914Y-96417142D01*
X176352914Y-96417142D02*
X176257676Y-96369523D01*
X176257676Y-96369523D02*
X176162438Y-96274285D01*
X176162438Y-96274285D02*
X176114819Y-96131428D01*
X176114819Y-96131428D02*
X176114819Y-96036190D01*
X176114819Y-96036190D02*
X176162438Y-95893333D01*
X176162438Y-95893333D02*
X176210057Y-95845714D01*
X177114819Y-95417142D02*
X176114819Y-95417142D01*
X177114819Y-94845714D02*
X176543390Y-95274285D01*
X176114819Y-94845714D02*
X176686247Y-95417142D01*
X134429819Y-115258333D02*
X135144104Y-115258333D01*
X135144104Y-115258333D02*
X135286961Y-115305952D01*
X135286961Y-115305952D02*
X135382200Y-115401190D01*
X135382200Y-115401190D02*
X135429819Y-115544047D01*
X135429819Y-115544047D02*
X135429819Y-115639285D01*
X135429819Y-114734523D02*
X135429819Y-114544047D01*
X135429819Y-114544047D02*
X135382200Y-114448809D01*
X135382200Y-114448809D02*
X135334580Y-114401190D01*
X135334580Y-114401190D02*
X135191723Y-114305952D01*
X135191723Y-114305952D02*
X135001247Y-114258333D01*
X135001247Y-114258333D02*
X134620295Y-114258333D01*
X134620295Y-114258333D02*
X134525057Y-114305952D01*
X134525057Y-114305952D02*
X134477438Y-114353571D01*
X134477438Y-114353571D02*
X134429819Y-114448809D01*
X134429819Y-114448809D02*
X134429819Y-114639285D01*
X134429819Y-114639285D02*
X134477438Y-114734523D01*
X134477438Y-114734523D02*
X134525057Y-114782142D01*
X134525057Y-114782142D02*
X134620295Y-114829761D01*
X134620295Y-114829761D02*
X134858390Y-114829761D01*
X134858390Y-114829761D02*
X134953628Y-114782142D01*
X134953628Y-114782142D02*
X135001247Y-114734523D01*
X135001247Y-114734523D02*
X135048866Y-114639285D01*
X135048866Y-114639285D02*
X135048866Y-114448809D01*
X135048866Y-114448809D02*
X135001247Y-114353571D01*
X135001247Y-114353571D02*
X134953628Y-114305952D01*
X134953628Y-114305952D02*
X134858390Y-114258333D01*
X165878572Y-99879819D02*
X165878572Y-98879819D01*
X165878572Y-98879819D02*
X166211905Y-99594104D01*
X166211905Y-99594104D02*
X166545238Y-98879819D01*
X166545238Y-98879819D02*
X166545238Y-99879819D01*
X167021429Y-99879819D02*
X167021429Y-98879819D01*
X167450000Y-99832200D02*
X167592857Y-99879819D01*
X167592857Y-99879819D02*
X167830952Y-99879819D01*
X167830952Y-99879819D02*
X167926190Y-99832200D01*
X167926190Y-99832200D02*
X167973809Y-99784580D01*
X167973809Y-99784580D02*
X168021428Y-99689342D01*
X168021428Y-99689342D02*
X168021428Y-99594104D01*
X168021428Y-99594104D02*
X167973809Y-99498866D01*
X167973809Y-99498866D02*
X167926190Y-99451247D01*
X167926190Y-99451247D02*
X167830952Y-99403628D01*
X167830952Y-99403628D02*
X167640476Y-99356009D01*
X167640476Y-99356009D02*
X167545238Y-99308390D01*
X167545238Y-99308390D02*
X167497619Y-99260771D01*
X167497619Y-99260771D02*
X167450000Y-99165533D01*
X167450000Y-99165533D02*
X167450000Y-99070295D01*
X167450000Y-99070295D02*
X167497619Y-98975057D01*
X167497619Y-98975057D02*
X167545238Y-98927438D01*
X167545238Y-98927438D02*
X167640476Y-98879819D01*
X167640476Y-98879819D02*
X167878571Y-98879819D01*
X167878571Y-98879819D02*
X168021428Y-98927438D01*
X168640476Y-98879819D02*
X168830952Y-98879819D01*
X168830952Y-98879819D02*
X168926190Y-98927438D01*
X168926190Y-98927438D02*
X169021428Y-99022676D01*
X169021428Y-99022676D02*
X169069047Y-99213152D01*
X169069047Y-99213152D02*
X169069047Y-99546485D01*
X169069047Y-99546485D02*
X169021428Y-99736961D01*
X169021428Y-99736961D02*
X168926190Y-99832200D01*
X168926190Y-99832200D02*
X168830952Y-99879819D01*
X168830952Y-99879819D02*
X168640476Y-99879819D01*
X168640476Y-99879819D02*
X168545238Y-99832200D01*
X168545238Y-99832200D02*
X168450000Y-99736961D01*
X168450000Y-99736961D02*
X168402381Y-99546485D01*
X168402381Y-99546485D02*
X168402381Y-99213152D01*
X168402381Y-99213152D02*
X168450000Y-99022676D01*
X168450000Y-99022676D02*
X168545238Y-98927438D01*
X168545238Y-98927438D02*
X168640476Y-98879819D01*
X137038095Y-130604819D02*
X137038095Y-129604819D01*
X137038095Y-130081009D02*
X137609523Y-130081009D01*
X137609523Y-130604819D02*
X137609523Y-129604819D01*
X138038095Y-129700057D02*
X138085714Y-129652438D01*
X138085714Y-129652438D02*
X138180952Y-129604819D01*
X138180952Y-129604819D02*
X138419047Y-129604819D01*
X138419047Y-129604819D02*
X138514285Y-129652438D01*
X138514285Y-129652438D02*
X138561904Y-129700057D01*
X138561904Y-129700057D02*
X138609523Y-129795295D01*
X138609523Y-129795295D02*
X138609523Y-129890533D01*
X138609523Y-129890533D02*
X138561904Y-130033390D01*
X138561904Y-130033390D02*
X137990476Y-130604819D01*
X137990476Y-130604819D02*
X138609523Y-130604819D01*
X128965476Y-110579819D02*
X128965476Y-111294104D01*
X128965476Y-111294104D02*
X128917857Y-111436961D01*
X128917857Y-111436961D02*
X128822619Y-111532200D01*
X128822619Y-111532200D02*
X128679762Y-111579819D01*
X128679762Y-111579819D02*
X128584524Y-111579819D01*
X129965476Y-111579819D02*
X129394048Y-111579819D01*
X129679762Y-111579819D02*
X129679762Y-110579819D01*
X129679762Y-110579819D02*
X129584524Y-110722676D01*
X129584524Y-110722676D02*
X129489286Y-110817914D01*
X129489286Y-110817914D02*
X129394048Y-110865533D01*
X130917857Y-111579819D02*
X130346429Y-111579819D01*
X130632143Y-111579819D02*
X130632143Y-110579819D01*
X130632143Y-110579819D02*
X130536905Y-110722676D01*
X130536905Y-110722676D02*
X130441667Y-110817914D01*
X130441667Y-110817914D02*
X130346429Y-110865533D01*
X179556443Y-87112819D02*
X179556443Y-87827104D01*
X179556443Y-87827104D02*
X179508824Y-87969961D01*
X179508824Y-87969961D02*
X179413586Y-88065200D01*
X179413586Y-88065200D02*
X179270729Y-88112819D01*
X179270729Y-88112819D02*
X179175491Y-88112819D01*
X180461205Y-87446152D02*
X180461205Y-88112819D01*
X180223110Y-87065200D02*
X179985015Y-87779485D01*
X179985015Y-87779485D02*
X180604062Y-87779485D01*
X163428572Y-96229819D02*
X163428572Y-95229819D01*
X163428572Y-95229819D02*
X163761905Y-95944104D01*
X163761905Y-95944104D02*
X164095238Y-95229819D01*
X164095238Y-95229819D02*
X164095238Y-96229819D01*
X164761905Y-95229819D02*
X164952381Y-95229819D01*
X164952381Y-95229819D02*
X165047619Y-95277438D01*
X165047619Y-95277438D02*
X165142857Y-95372676D01*
X165142857Y-95372676D02*
X165190476Y-95563152D01*
X165190476Y-95563152D02*
X165190476Y-95896485D01*
X165190476Y-95896485D02*
X165142857Y-96086961D01*
X165142857Y-96086961D02*
X165047619Y-96182200D01*
X165047619Y-96182200D02*
X164952381Y-96229819D01*
X164952381Y-96229819D02*
X164761905Y-96229819D01*
X164761905Y-96229819D02*
X164666667Y-96182200D01*
X164666667Y-96182200D02*
X164571429Y-96086961D01*
X164571429Y-96086961D02*
X164523810Y-95896485D01*
X164523810Y-95896485D02*
X164523810Y-95563152D01*
X164523810Y-95563152D02*
X164571429Y-95372676D01*
X164571429Y-95372676D02*
X164666667Y-95277438D01*
X164666667Y-95277438D02*
X164761905Y-95229819D01*
X165571429Y-96182200D02*
X165714286Y-96229819D01*
X165714286Y-96229819D02*
X165952381Y-96229819D01*
X165952381Y-96229819D02*
X166047619Y-96182200D01*
X166047619Y-96182200D02*
X166095238Y-96134580D01*
X166095238Y-96134580D02*
X166142857Y-96039342D01*
X166142857Y-96039342D02*
X166142857Y-95944104D01*
X166142857Y-95944104D02*
X166095238Y-95848866D01*
X166095238Y-95848866D02*
X166047619Y-95801247D01*
X166047619Y-95801247D02*
X165952381Y-95753628D01*
X165952381Y-95753628D02*
X165761905Y-95706009D01*
X165761905Y-95706009D02*
X165666667Y-95658390D01*
X165666667Y-95658390D02*
X165619048Y-95610771D01*
X165619048Y-95610771D02*
X165571429Y-95515533D01*
X165571429Y-95515533D02*
X165571429Y-95420295D01*
X165571429Y-95420295D02*
X165619048Y-95325057D01*
X165619048Y-95325057D02*
X165666667Y-95277438D01*
X165666667Y-95277438D02*
X165761905Y-95229819D01*
X165761905Y-95229819D02*
X166000000Y-95229819D01*
X166000000Y-95229819D02*
X166142857Y-95277438D01*
X166571429Y-96229819D02*
X166571429Y-95229819D01*
D14*
%TO.C,J5*%
X128679999Y-119850000D02*
X128680000Y-118580000D01*
X128680000Y-118580000D02*
X129950000Y-118579999D01*
%TO.C,TP11*%
X143850000Y-111250000D02*
X145250000Y-111250000D01*
X143850000Y-112650000D02*
X143850000Y-111250000D01*
X145250000Y-111250000D02*
X145250000Y-112650000D01*
X145250000Y-112650000D02*
X143850000Y-112650000D01*
%TO.C,TP13*%
X138740000Y-111380000D02*
X140140000Y-111380000D01*
X138740000Y-112780000D02*
X138740000Y-111380000D01*
X140140000Y-111380000D02*
X140140000Y-112780000D01*
X140140000Y-112780000D02*
X138740000Y-112780000D01*
%TO.C,TP7*%
X170089600Y-120204000D02*
X171489600Y-120204000D01*
X170089600Y-121604000D02*
X170089600Y-120204000D01*
X171489600Y-120204000D02*
X171489600Y-121604000D01*
X171489600Y-121604000D02*
X170089600Y-121604000D01*
%TO.C,TP1*%
X171670000Y-89270000D02*
X173070000Y-89270000D01*
X171670000Y-90670000D02*
X171670000Y-89270000D01*
X173070000Y-89270000D02*
X173070000Y-90670000D01*
X173070000Y-90670000D02*
X171670000Y-90670000D01*
%TO.C,J10*%
X185995000Y-68195000D02*
X191295000Y-68195000D01*
X185995001Y-65435000D02*
X185995000Y-68195000D01*
X186105000Y-70855000D02*
X186104999Y-69585000D01*
X186945000Y-68425000D02*
X186945001Y-68195000D01*
X187375000Y-70855001D02*
X186105000Y-70855000D01*
X187805000Y-68425000D02*
X187804999Y-68195000D01*
X188645000Y-68195000D02*
X188645000Y-65434999D01*
X189485000Y-59435000D02*
X190345000Y-59435000D01*
X189485000Y-65435000D02*
X189485000Y-59435000D01*
X189485000Y-68507642D02*
X189485000Y-68195000D01*
X190345000Y-59435000D02*
X190345000Y-65435000D01*
X190345000Y-68507642D02*
X190345001Y-68195000D01*
X191295000Y-65434999D02*
X185995001Y-65435000D01*
X191295000Y-68195000D02*
X191295000Y-65434999D01*
X187805000Y-65435000D02*
X186945000Y-65435000D01*
X186945000Y-59435000D01*
X187805000Y-59435000D01*
X187805000Y-65435000D01*
G36*
X187805000Y-65435000D02*
G01*
X186945000Y-65435000D01*
X186945000Y-59435000D01*
X187805000Y-59435000D01*
X187805000Y-65435000D01*
G37*
%TO.C,TP6*%
X177490000Y-95910000D02*
X178890000Y-95910000D01*
X177490000Y-97310000D02*
X177490000Y-95910000D01*
X178890000Y-95910000D02*
X178890000Y-97310000D01*
X178890000Y-97310000D02*
X177490000Y-97310000D01*
%TO.C,J9*%
X135576000Y-113950000D02*
X136906000Y-113950000D01*
X135576000Y-115060000D02*
X135576000Y-113950000D01*
X135576000Y-116520000D02*
X148396000Y-116520000D01*
X135576000Y-125150000D02*
X135576000Y-116520000D01*
X135576000Y-125150000D02*
X148396000Y-125150000D01*
X135696000Y-125150000D02*
X135696000Y-116520000D01*
X135814095Y-125150000D02*
X135814095Y-116520000D01*
X135932190Y-125150000D02*
X135932190Y-116520000D01*
X136050285Y-125150000D02*
X136050285Y-116520000D01*
X136168380Y-125150000D02*
X136168380Y-116520000D01*
X136286475Y-125150000D02*
X136286475Y-116520000D01*
X136404570Y-125150000D02*
X136404570Y-116520000D01*
X136522665Y-125150000D02*
X136522665Y-116520000D01*
X136546000Y-116520000D02*
X136546000Y-116170000D01*
X136640760Y-125150000D02*
X136640760Y-116520000D01*
X136758855Y-125150000D02*
X136758855Y-116520000D01*
X136876950Y-125150000D02*
X136876950Y-116520000D01*
X136995045Y-125150000D02*
X136995045Y-116520000D01*
X137113140Y-125150000D02*
X137113140Y-116520000D01*
X137231235Y-125150000D02*
X137231235Y-116520000D01*
X137266000Y-116520000D02*
X137266000Y-116170000D01*
X137349330Y-125150000D02*
X137349330Y-116520000D01*
X137467425Y-125150000D02*
X137467425Y-116520000D01*
X137585520Y-125150000D02*
X137585520Y-116520000D01*
X137703615Y-125150000D02*
X137703615Y-116520000D01*
X137821710Y-125150000D02*
X137821710Y-116520000D01*
X137939805Y-125150000D02*
X137939805Y-116520000D01*
X138057900Y-125150000D02*
X138057900Y-116520000D01*
X138176000Y-125150000D02*
X138176000Y-116520000D01*
X139086000Y-116520000D02*
X139086000Y-116110000D01*
X139806000Y-116520000D02*
X139806000Y-116110000D01*
X140716000Y-125150000D02*
X140716000Y-116520000D01*
X141626000Y-116520000D02*
X141626000Y-116110000D01*
X142346000Y-116520000D02*
X142346000Y-116110000D01*
X143256000Y-125150000D02*
X143256000Y-116520000D01*
X144166000Y-116520000D02*
X144166000Y-116110000D01*
X144886000Y-116520000D02*
X144886000Y-116110000D01*
X145796000Y-125150000D02*
X145796000Y-116520000D01*
X146706000Y-116520000D02*
X146706000Y-116110000D01*
X147426000Y-116520000D02*
X147426000Y-116110000D01*
X148396000Y-125150000D02*
X148396000Y-116520000D01*
%TO.C,TP5*%
X162460000Y-98780000D02*
X163860000Y-98780000D01*
X162460000Y-100180000D02*
X162460000Y-98780000D01*
X163860000Y-98780000D02*
X163860000Y-100180000D01*
X163860000Y-100180000D02*
X162460000Y-100180000D01*
%TO.C,J11*%
X119775000Y-112955000D02*
X125775000Y-112955000D01*
X119775000Y-113815000D02*
X119775000Y-112955000D01*
X125774999Y-112005000D02*
X125775000Y-117304999D01*
X125775000Y-113815000D02*
X119775000Y-113815000D01*
X125775000Y-117304999D02*
X128535000Y-117305000D01*
X128535000Y-112005000D02*
X125774999Y-112005000D01*
X128535000Y-114655000D02*
X125774999Y-114655000D01*
X128535000Y-117305000D02*
X128535000Y-112005000D01*
X128765000Y-115495000D02*
X128535000Y-115495001D01*
X128765000Y-116355000D02*
X128535000Y-116354999D01*
X128847642Y-112955000D02*
X128535000Y-112954999D01*
X128847642Y-113815000D02*
X128535000Y-113815000D01*
X131195000Y-117195000D02*
X129925000Y-117195001D01*
X131195001Y-115925000D02*
X131195000Y-117195000D01*
X125775000Y-116355000D02*
X119775000Y-116355000D01*
X119775000Y-115495000D01*
X125775000Y-115495000D01*
X125775000Y-116355000D01*
G36*
X125775000Y-116355000D02*
G01*
X119775000Y-116355000D01*
X119775000Y-115495000D01*
X125775000Y-115495000D01*
X125775000Y-116355000D01*
G37*
%TO.C,TP14*%
X136080000Y-111330000D02*
X137480000Y-111330000D01*
X136080000Y-112730000D02*
X136080000Y-111330000D01*
X137480000Y-111330000D02*
X137480000Y-112730000D01*
X137480000Y-112730000D02*
X136080000Y-112730000D01*
%TO.C,J4*%
X178679777Y-87150000D02*
X178679777Y-88260000D01*
X178679777Y-88260000D02*
X177349777Y-88260000D01*
%TO.C,TP4*%
X160180000Y-94960000D02*
X161580000Y-94960000D01*
X160180000Y-96360000D02*
X160180000Y-94960000D01*
X161580000Y-94960000D02*
X161580000Y-96360000D01*
X161580000Y-96360000D02*
X160180000Y-96360000D01*
%TO.C,TP12*%
X141330000Y-111330000D02*
X142730000Y-111330000D01*
X141330000Y-112730000D02*
X141330000Y-111330000D01*
X142730000Y-111330000D02*
X142730000Y-112730000D01*
X142730000Y-112730000D02*
X141330000Y-112730000D01*
%TD*%
M02*
