M48
; DRILL file {KiCad 9.0.6} date 2026-03-13T14:17:22+1100
; FORMAT={-:-/ absolute / inch / decimal}
; #@! TF.CreationDate,2026-03-13T14:17:22+11:00
; #@! TF.GenerationSoftware,Kicad,Pcbnew,9.0.6
; #@! TF.FileFunction,Plated,1,2,PTH
FMAT,2
INCH
; #@! TA.AperFunction,Plated,PTH,ComponentDrill
T1C0.0079
; #@! TA.AperFunction,Plated,PTH,ViaDrill
T2C0.0118
; #@! TA.AperFunction,Plated,PTH,ComponentDrill
T3C0.0236
; #@! TA.AperFunction,Plated,PTH,ComponentDrill
T4C0.0394
; #@! TA.AperFunction,Plated,PTH,ComponentDrill
T5C0.0697
; #@! TA.AperFunction,Plated,PTH,ComponentDrill
T6C0.1260
%
G90
G05
T1
X6.9535Y-4.5756
X6.9535Y-4.6307
X6.9811Y-4.548
X6.9811Y-4.6031
X6.9811Y-4.6583
X7.0087Y-4.5756
X7.0087Y-4.6307
X7.0362Y-4.548
X7.0362Y-4.6031
X7.0362Y-4.6583
X7.0638Y-4.5756
X7.0638Y-4.6307
T2
X5.1348Y-4.2215
X5.2146Y-3.7894
X5.3102Y-4.7657
X5.314Y-3.5
X5.3358Y-4.2425
X5.4104Y-4.2106
X5.5354Y-3.7799
X5.5768Y-5.1142
X5.5817Y-4.8504
X5.6087Y-3.7909
X5.6437Y-4.998
X5.6594Y-3.8
X5.7224Y-4.7047
X5.7254Y-3.3612
X5.75Y-3.6831
X5.76Y-3.5906
X5.7697Y-4.3238
X5.82Y-4.8993
X5.8209Y-4.4813
X5.8307Y-4.2047
X5.8632Y-4.7953
X5.8642Y-4.4163
X5.898Y-3.957
X5.9026Y-4.7982
X5.9043Y-4.0772
X5.9152Y-5.1017
X5.9375Y-3.6954
X5.9596Y-5.0256
X5.9656Y-3.5069
X5.9787Y-3.872
X5.998Y-3.3524
X5.999Y-3.9222
X6.022Y-4.2606
X6.0246Y-4.5
X6.0583Y-4.6014
X6.063Y-3.6083
X6.0705Y-4.1354
X6.1004Y-4.4252
X6.1073Y-4.3494
X6.1113Y-3.3002
X6.128Y-3.634
X6.1406Y-4.0575
X6.1465Y-4.6004
X6.1693Y-3.6762
X6.1772Y-4.4213
X6.1791Y-3.936
X6.1811Y-4.3474
X6.187Y-3.9831
X6.188Y-3.7628
X6.19Y-4.686
X6.1929Y-4.2244
X6.198Y-3.556
X6.2325Y-4.5766
X6.2341Y-4.6305
X6.244Y-3.504
X6.25Y-4.123
X6.25Y-4.5502
X6.2854Y-4.0128
X6.2894Y-4.3829
X6.313Y-4.4077
X6.3159Y-4.5502
X6.3199Y-4.498
X6.323Y-4.6356
X6.336Y-3.482
X6.3411Y-4.5868
X6.3417Y-4.4307
X6.3953Y-4.2598
X6.4252Y-4.7549
X6.4537Y-4.7559
X6.46Y-3.524
X6.4695Y-3.7402
X6.4695Y-4.6506
X6.485Y-3.928
X6.4913Y-4.2283
X6.4951Y-3.2736
X6.5039Y-4.6486
X6.5207Y-3.0246
X6.5305Y-4.4724
X6.553Y-3.972
X6.563Y-4.6181
X6.563Y-3.793
X6.567Y-3.696
X6.5678Y-3.0769
X6.5988Y-4.037
X6.6014Y-4.872
X6.6024Y-2.9488
X6.6181Y-4.9134
X6.6201Y-3.3575
X6.631Y-3.903
X6.6467Y-3.751
X6.6705Y-4.6013
X6.6722Y-4.2559
X6.676Y-4.368
X6.677Y-4.54
X6.6772Y-4.3061
X6.6789Y-4.4121
X6.6902Y-4.0646
X6.6942Y-3.0545
X6.7126Y-4.6673
X6.715Y-4.411
X6.723Y-4.491
X6.724Y-3.9583
X6.7323Y-3.8297
X6.748Y-4.6969
X6.749Y-2.9154
X6.7579Y-3.123
X6.7618Y-3.2195
X6.7697Y-3.8455
X6.7874Y-3.1683
X6.811Y-4.9724
X6.8159Y-3.2185
X6.8287Y-3.5965
X6.8622Y-5.0039
X6.9075Y-3.5049
X6.9094Y-3.7346
X6.9094Y-4.9567
X6.9232Y-4.4852
X6.9301Y-3.3337
X6.9311Y-3.8701
X6.9318Y-3.9468
X6.9429Y-4.812
X6.9607Y-3.245
X6.9697Y-4.961
X6.9705Y-4.0531
X6.9852Y-3.9921
X6.9882Y-3.9409
X6.9882Y-4.3848
X6.9929Y-4.8291
X7.0157Y-4.9606
X7.0335Y-3.8776
X7.0433Y-4.2687
X7.0472Y-4.0232
X7.0591Y-4.8228
X7.1102Y-4.2608
X7.1102Y-4.9567
X7.1142Y-4.377
X7.1614Y-4.815
X7.1978Y-3.7333
X7.2055Y-4.0087
X7.24Y-3.54
X7.2618Y-4.7894
X7.2736Y-3.7472
X7.2746Y-3.6407
X7.2815Y-4.1291
X7.31Y-3.767
X7.35Y-3.785
X7.3606Y-3.0012
X7.4Y-3.6
X7.5425Y-3.6394
X7.561Y-4.0256
X7.578Y-5.0228
T4
X5.1152Y-4.464
X5.1152Y-4.564
X5.1161Y-4.7185
X5.1161Y-4.8185
X5.39Y-4.5299
X5.49Y-4.5299
X5.59Y-4.5299
X5.6776Y-3.2764
X5.6823Y-3.4311
X5.69Y-4.5299
X5.7776Y-3.2764
X5.7823Y-3.4311
X5.79Y-4.5299
X5.8776Y-3.2764
X5.8823Y-3.4311
X5.9776Y-3.2764
X5.9823Y-3.4311
X6.0823Y-3.4311
X6.1823Y-3.4311
X6.2823Y-3.4311
X6.3141Y-3.2922
X6.3823Y-3.4311
X6.3848Y-3.2215
X6.4823Y-3.4311
X6.5823Y-3.4311
X6.6823Y-3.4311
X6.7823Y-3.4311
X6.8823Y-3.4311
X6.9823Y-3.4311
X7.377Y-2.7396
X7.477Y-2.7396
T5
X6.8455Y-2.8211
X7.028Y-2.703
X7.2105Y-2.8211
T6
X5.2539Y-5.0783
X7.4154Y-5.0776
T3
G00X6.1646Y-4.9319
M15
G01X6.1646Y-4.8886
M16
G05
G00X6.1646Y-5.0906
M15
G01X6.1646Y-5.0591
M16
G05
G00X6.5047Y-4.9319
M15
G01X6.5047Y-4.8886
M16
G05
G00X6.5047Y-5.0906
M15
G01X6.5047Y-5.0591
M16
G05
M30
