%TF.GenerationSoftware,KiCad,Pcbnew,9.0.6*%
%TF.CreationDate,2026-03-13T14:17:25+11:00*%
%TF.ProjectId,Cooee_brains,436f6f65-655f-4627-9261-696e732e6b69,rev?*%
%TF.SameCoordinates,Original*%
%TF.FileFunction,Copper,L1,Top*%
%TF.FilePolarity,Positive*%
%FSLAX46Y46*%
G04 Gerber Fmt 4.6, Leading zero omitted, Abs format (unit mm)*
G04 Created by KiCad (PCBNEW 9.0.6) date 2026-03-13 14:17:25*
%MOMM*%
%LPD*%
G01*
G04 APERTURE LIST*
G04 Aperture macros list*
%AMRotRect*
0 Rectangle, with rotation*
0 The origin of the aperture is its center*
0 $1 length*
0 $2 width*
0 $3 Rotation angle, in degrees counterclockwise*
0 Add horizontal line*
21,1,$1,$2,0,0,$3*%
G04 Aperture macros list end*
%TA.AperFunction,HeatsinkPad*%
%ADD10O,1.000000X2.100000*%
%TD*%
%TA.AperFunction,HeatsinkPad*%
%ADD11O,1.000000X1.800000*%
%TD*%
%TA.AperFunction,ComponentPad*%
%ADD12R,1.700000X1.700000*%
%TD*%
%TA.AperFunction,ComponentPad*%
%ADD13C,1.700000*%
%TD*%
%TA.AperFunction,SMDPad,CuDef*%
%ADD14R,1.000000X1.000000*%
%TD*%
%TA.AperFunction,ComponentPad*%
%ADD15C,3.600000*%
%TD*%
%TA.AperFunction,ConnectorPad*%
%ADD16C,5.600000*%
%TD*%
%TA.AperFunction,ComponentPad*%
%ADD17RotRect,1.700000X1.700000X135.000000*%
%TD*%
%TA.AperFunction,HeatsinkPad*%
%ADD18C,0.600000*%
%TD*%
%TA.AperFunction,ComponentPad*%
%ADD19C,2.655000*%
%TD*%
%TA.AperFunction,ViaPad*%
%ADD20C,0.600000*%
%TD*%
%TA.AperFunction,Conductor*%
%ADD21C,0.200000*%
%TD*%
%TA.AperFunction,Conductor*%
%ADD22C,0.400000*%
%TD*%
%TA.AperFunction,Conductor*%
%ADD23C,0.500000*%
%TD*%
G04 APERTURE END LIST*
D10*
%TO.P,J1,S1*%
%TO.N,GND*%
X156580000Y-124720000D03*
D11*
X156580000Y-128900000D03*
D10*
X165220000Y-124720000D03*
D11*
X165220000Y-128900000D03*
%TD*%
D12*
%TO.P,J5,1,Pin_1*%
%TO.N,SPEAKER+*%
X129950000Y-119850000D03*
D13*
%TO.P,J5,2,Pin_2*%
%TO.N,SPEAKER-*%
X129950000Y-122390000D03*
%TD*%
D14*
%TO.P,TP11,1,1*%
%TO.N,3.3V*%
X144550000Y-111950000D03*
%TD*%
%TO.P,TP13,1,1*%
%TO.N,KEEB_SCL*%
X139440000Y-112080000D03*
%TD*%
D15*
%TO.P,H1,1*%
%TO.N,N/C*%
X188350000Y-128970000D03*
D16*
%TO.N,GND*%
X188350000Y-128970000D03*
%TD*%
D14*
%TO.P,TP7,1,1*%
%TO.N,TALK_SW*%
X170789600Y-120904000D03*
%TD*%
%TO.P,TP1,1,1*%
%TO.N,Display_CS*%
X172370000Y-89970000D03*
%TD*%
D12*
%TO.P,J10,1,Pin_1*%
%TO.N,Net-(J10-Pin_1)*%
X187375000Y-69585000D03*
D13*
%TO.P,J10,2,Pin_2*%
%TO.N,GND*%
X189915000Y-69585000D03*
%TD*%
D14*
%TO.P,TP6,1,1*%
%TO.N,SHARED_CLCK*%
X178190000Y-96610000D03*
%TD*%
D12*
%TO.P,J9,1,Pin_1*%
%TO.N,KEEB_INT*%
X136906000Y-115060000D03*
D13*
%TO.P,J9,2,Pin_2*%
%TO.N,KEEB_SCL*%
X139446000Y-115060000D03*
%TO.P,J9,3,Pin_3*%
%TO.N,KEEB_D*%
X141986000Y-115060000D03*
%TO.P,J9,4,Pin_4*%
%TO.N,3.3V*%
X144526000Y-115060000D03*
%TO.P,J9,5,Pin_5*%
%TO.N,GND*%
X147066000Y-115060000D03*
%TD*%
D14*
%TO.P,TP5,1,1*%
%TO.N,SHARED_MISO*%
X163160000Y-99480000D03*
%TD*%
D15*
%TO.P,H2,1*%
%TO.N,N/C*%
X133450000Y-128990000D03*
D16*
%TO.N,GND*%
X133450000Y-128990000D03*
%TD*%
D12*
%TO.P,J11,1,Pin_1*%
%TO.N,Net-(J11-Pin_1)*%
X129925000Y-115925000D03*
D13*
%TO.P,J11,2,Pin_2*%
%TO.N,TALK_SW*%
X129925000Y-113385000D03*
%TD*%
D14*
%TO.P,TP14,1,1*%
%TO.N,KEEB_INT*%
X136780000Y-112030000D03*
%TD*%
D12*
%TO.P,J4,1,Pin_1*%
%TO.N,3.3V*%
X177349777Y-87150000D03*
D13*
%TO.P,J4,2,Pin_2*%
%TO.N,GND*%
X174809777Y-87150000D03*
%TO.P,J4,3,Pin_3*%
%TO.N,Display_CS*%
X172269777Y-87150000D03*
%TO.P,J4,4,Pin_4*%
%TO.N,Display_RST*%
X169729777Y-87150000D03*
%TO.P,J4,5,Pin_5*%
%TO.N,Display_DC*%
X167189777Y-87150000D03*
%TO.P,J4,6,Pin_6*%
%TO.N,Display_MOSI*%
X164649777Y-87150000D03*
%TO.P,J4,7,Pin_7*%
%TO.N,Display_SCK*%
X162109777Y-87150000D03*
%TO.P,J4,8,Pin_8*%
%TO.N,Display_LED_BacklightEN*%
X159569777Y-87150000D03*
%TO.P,J4,9,Pin_9*%
%TO.N,Display_MISO*%
X157029777Y-87150000D03*
%TO.P,J4,10,Pin_10*%
%TO.N,SHARED_CLCK*%
X154489777Y-87150000D03*
%TO.P,J4,11,Pin_11*%
%TO.N,T_CS*%
X151949777Y-87150000D03*
%TO.P,J4,12,Pin_12*%
%TO.N,SHARED_MOSI*%
X149409777Y-87150000D03*
%TO.P,J4,13,Pin_13*%
%TO.N,SHARED_MISO*%
X146869777Y-87150000D03*
%TO.P,J4,14,Pin_14*%
%TO.N,T_IRQ*%
X144329777Y-87150000D03*
%TD*%
D14*
%TO.P,TP4,1,1*%
%TO.N,SHARED_MOSI*%
X160880000Y-95660000D03*
%TD*%
%TO.P,TP12,1,1*%
%TO.N,KEEB_D*%
X142030000Y-112030000D03*
%TD*%
D17*
%TO.P,J8,1,Pin_1*%
%TO.N,Net-(D2-A)*%
X162175000Y-81825000D03*
D13*
%TO.P,J8,2,Pin_2*%
%TO.N,GND*%
X160378949Y-83621051D03*
%TD*%
D18*
%TO.P,U2,41*%
%TO.N,GND*%
X177320000Y-118320000D03*
X178720000Y-118320000D03*
X176620000Y-117620000D03*
X179420000Y-117620000D03*
X177320000Y-116920000D03*
X178720000Y-116920000D03*
X176620000Y-116220000D03*
X178020000Y-116220000D03*
X179420000Y-116220000D03*
X177320000Y-115520000D03*
X178720000Y-115520000D03*
%TO.P,U2,GND*%
X178020000Y-117620000D03*
%TD*%
D12*
%TO.P,J7,1,Pin_1*%
%TO.N,SHARED_CLCK*%
X151829999Y-83220000D03*
D13*
%TO.P,J7,2,Pin_2*%
%TO.N,SHARED_MISO*%
X149289999Y-83220000D03*
%TO.P,J7,3,Pin_3*%
%TO.N,SHARED_MOSI*%
X146750000Y-83220000D03*
%TO.P,J7,4,Pin_4*%
%TO.N,BigSD_CS*%
X144209999Y-83220000D03*
%TD*%
D19*
%TO.P,BT1,N1*%
%TO.N,GND*%
X173876200Y-71656200D03*
%TO.P,BT1,N2*%
X183146200Y-71656200D03*
%TO.P,BT1,N3*%
X178511200Y-68656200D03*
%TD*%
D20*
%TO.N,GND*%
X175500000Y-94860000D03*
X170790000Y-100540000D03*
X149970000Y-103560000D03*
%TO.N,LoRa_DIO2*%
X184750000Y-95180000D03*
X184950000Y-104880000D03*
X169930000Y-103240000D03*
X142460000Y-96290000D03*
%TO.N,GND*%
X152375000Y-99625000D03*
%TO.N,3.3V*%
X157150000Y-101170000D03*
X155970000Y-103060000D03*
%TO.N,LoRa_DIO1*%
X140600000Y-96010000D03*
X151860000Y-98350000D03*
%TO.N,5V*%
X157300000Y-107300000D03*
X160525000Y-114250000D03*
X166446200Y-100888800D03*
X153025000Y-114300000D03*
X159650000Y-101925000D03*
X176802962Y-82423156D03*
X164975000Y-83150000D03*
X170032962Y-77583156D03*
X168427400Y-99136200D03*
%TO.N,3.3V*%
X150812500Y-93862500D03*
X164325000Y-95000000D03*
X153880000Y-116874999D03*
X168825000Y-95275000D03*
X148100000Y-106800000D03*
X185674000Y-95681800D03*
X146304000Y-91200000D03*
X184450000Y-121650000D03*
%TO.N,USB_DN*%
X160605000Y-117745000D03*
X156120000Y-116850000D03*
%TO.N,USB_DP*%
X161065000Y-116504999D03*
X158345000Y-117614999D03*
%TO.N,Display_LED_BacklightEN*%
X175500000Y-125900000D03*
%TO.N,KEEB_SCL*%
X170561000Y-112039400D03*
X161080000Y-112540000D03*
X158750000Y-115575000D03*
%TO.N,KEEB_D*%
X170500000Y-118550000D03*
X147850000Y-113825000D03*
%TO.N,SHARED_CLCK*%
X178650000Y-98490000D03*
X171950000Y-97675000D03*
X173000000Y-126300000D03*
%TO.N,SHARED_MOSI*%
X171000000Y-97275000D03*
%TO.N,SHARED_MISO*%
X175850000Y-113925000D03*
X171400000Y-119300000D03*
X179000000Y-102190000D03*
%TO.N,LoRa_DIO0*%
X143750000Y-96520000D03*
X170764200Y-114071400D03*
%TO.N,LoRa_Select*%
X169600000Y-109375000D03*
X148950000Y-112175000D03*
%TO.N,SPEAKER+*%
X149925000Y-121875000D03*
%TO.N,SPEAKER-*%
X148925000Y-121800000D03*
%TO.N,Display_DC*%
X179300000Y-122500000D03*
%TO.N,Display_RST*%
X180600000Y-125900000D03*
%TO.N,Display_SCK*%
X176350000Y-122225000D03*
%TO.N,Display_MOSI*%
X178200000Y-126000000D03*
%TO.N,Display_MISO*%
X174300000Y-127100000D03*
%TO.N,Display_CS*%
X181900000Y-122300000D03*
%TO.N,Interface_Tx*%
X160350000Y-111954999D03*
X180600000Y-108225000D03*
X180700000Y-111175000D03*
X169643200Y-112068200D03*
%TO.N,Interface_Rx*%
X159750000Y-111325000D03*
X169570400Y-110947200D03*
%TO.N,KEEB_INT*%
X166700000Y-117300000D03*
%TO.N,GPS_On{slash}OFF*%
X187960000Y-91440000D03*
X177050000Y-102950000D03*
%TO.N,GPS_RST*%
X177500000Y-100100000D03*
X183896000Y-89916000D03*
%TO.N,Batt+*%
X157175000Y-95575000D03*
X155650000Y-92303600D03*
%TO.N,Net-(JP1-A)*%
X168100000Y-124800000D03*
X164325000Y-118125000D03*
%TO.N,Net-(JP2-A)*%
X167675000Y-123750000D03*
X165200000Y-118075000D03*
%TO.N,GND*%
X135530000Y-107760000D03*
X160425000Y-115575000D03*
X152350000Y-85150000D03*
X146050000Y-93550000D03*
X176025000Y-84675000D03*
X164720000Y-99770000D03*
X183020000Y-101820000D03*
X132450000Y-96250000D03*
X165875000Y-113600000D03*
X157429200Y-90322400D03*
X158305000Y-116245001D03*
X130425000Y-107225000D03*
X156700000Y-93375000D03*
X154190000Y-105040000D03*
X163925000Y-120800000D03*
X154000000Y-91650000D03*
X134880000Y-121050000D03*
X164880000Y-107400000D03*
X173125000Y-81750000D03*
X167610000Y-102540000D03*
X176050000Y-98300000D03*
X191580000Y-92440000D03*
X169430833Y-116872847D03*
X165625000Y-76825000D03*
X184775000Y-92475000D03*
X156950000Y-99975000D03*
X151525000Y-89075000D03*
X150247248Y-129582312D03*
X143350000Y-126950000D03*
X171425000Y-74050000D03*
X155227283Y-83824844D03*
X160934400Y-88442800D03*
X176066986Y-100249479D03*
X149809200Y-100507800D03*
X168150000Y-85280000D03*
X192050000Y-102250000D03*
X141775000Y-123200000D03*
X158597600Y-89001600D03*
X166822962Y-78153156D03*
X157000000Y-110425000D03*
X154950000Y-112400000D03*
X134975000Y-88900000D03*
X172400000Y-80475000D03*
X166700200Y-96342200D03*
X167700000Y-74900000D03*
X146550000Y-109825000D03*
X175450000Y-89025000D03*
X162440000Y-108200000D03*
X166801800Y-93878400D03*
X158750000Y-104725000D03*
X177500000Y-111375000D03*
X186690000Y-96140000D03*
X192480000Y-127580000D03*
X177030000Y-126010000D03*
X171750000Y-81775000D03*
X163200000Y-120775000D03*
X157225000Y-119025000D03*
X141650000Y-129900000D03*
X182825000Y-94825000D03*
X171650000Y-79325000D03*
X152960000Y-108220000D03*
X173450000Y-91350000D03*
X155125000Y-110475000D03*
X137425000Y-106950000D03*
X156900000Y-112300000D03*
X151375000Y-127650000D03*
X145425000Y-85375000D03*
X178900000Y-108425000D03*
X147828582Y-124442418D03*
X169475000Y-108100000D03*
X186960000Y-76230000D03*
X177425000Y-101400000D03*
X177620000Y-122660000D03*
X164084000Y-89509600D03*
%TO.N,TALK_SW*%
X169595800Y-115316000D03*
X145350000Y-119500000D03*
%TD*%
D21*
%TO.N,SHARED_MISO*%
X175850000Y-105575000D02*
X175850000Y-113925000D01*
X179000000Y-102425000D02*
X175850000Y-105575000D01*
X179000000Y-102190000D02*
X179000000Y-102425000D01*
%TO.N,GPS_On{slash}OFF*%
X183880000Y-94690000D02*
X185300000Y-93270000D01*
X183880000Y-95570000D02*
X183880000Y-94690000D01*
X185300000Y-93270000D02*
X186130000Y-93270000D01*
X186130000Y-93270000D02*
X187960000Y-91440000D01*
X178230000Y-101220000D02*
X183880000Y-95570000D01*
X177050000Y-102950000D02*
X178230000Y-101770000D01*
X178230000Y-101770000D02*
X178230000Y-101220000D01*
%TO.N,3.3V*%
X156260000Y-103060000D02*
X157280000Y-102040000D01*
X157280000Y-102040000D02*
X157280000Y-101420000D01*
X155970000Y-103060000D02*
X156260000Y-103060000D01*
X157280000Y-101420000D02*
X157030000Y-101170000D01*
X157030000Y-101170000D02*
X157150000Y-101170000D01*
%TO.N,GPS_RST*%
X183240000Y-90940000D02*
X183896000Y-90284000D01*
X183240000Y-94220000D02*
X183240000Y-90940000D01*
X183896000Y-90284000D02*
X183896000Y-89916000D01*
X178630000Y-100100000D02*
X183460000Y-95270000D01*
X183460000Y-94440000D02*
X183240000Y-94220000D01*
X177500000Y-100100000D02*
X178630000Y-100100000D01*
X183460000Y-95270000D02*
X183460000Y-94440000D01*
%TO.N,LoRa_DIO2*%
X184850000Y-97610000D02*
X184850000Y-95030000D01*
%TO.N,LoRa_DIO0*%
X171420000Y-113415600D02*
X170764200Y-114071400D01*
X171420000Y-99919000D02*
X171420000Y-113415600D01*
X169900600Y-98399600D02*
X171420000Y-99919000D01*
X167868600Y-98399600D02*
X169900600Y-98399600D01*
X162458400Y-100584000D02*
X165684200Y-100584000D01*
X155727400Y-97028000D02*
X157302200Y-98602800D01*
X157302200Y-98602800D02*
X160477200Y-98602800D01*
X145389600Y-97028000D02*
X155727400Y-97028000D01*
X144881600Y-96520000D02*
X145389600Y-97028000D01*
X165684200Y-100584000D02*
X167868600Y-98399600D01*
X160477200Y-98602800D02*
X162458400Y-100584000D01*
X143750000Y-96520000D02*
X144881600Y-96520000D01*
%TO.N,SHARED_MISO*%
X170050000Y-97875000D02*
X163190000Y-97875000D01*
X171820000Y-118355000D02*
X171820000Y-99645000D01*
X171820000Y-99645000D02*
X170050000Y-97875000D01*
X171400000Y-118775000D02*
X171820000Y-118355000D01*
X171400000Y-119300000D02*
X171400000Y-118775000D01*
%TO.N,LoRa_DIO2*%
X160300000Y-99210000D02*
X162340000Y-101250000D01*
X164330000Y-103240000D02*
X169930000Y-103240000D01*
X157120000Y-99210000D02*
X160300000Y-99210000D01*
X155500000Y-97590000D02*
X157120000Y-99210000D01*
X162340000Y-101250000D02*
X164330000Y-103240000D01*
X143620000Y-97590000D02*
X155500000Y-97590000D01*
X142460000Y-96290000D02*
X142460000Y-96430000D01*
X142460000Y-96430000D02*
X143620000Y-97590000D01*
%TO.N,LoRa_DIO1*%
X143210000Y-98620000D02*
X140600000Y-96010000D01*
X145050000Y-98620000D02*
X143210000Y-98620000D01*
X145320000Y-98350000D02*
X145050000Y-98620000D01*
X151860000Y-98350000D02*
X145320000Y-98350000D01*
%TO.N,5V*%
X164975000Y-82805000D02*
X170032962Y-77747038D01*
D22*
X160525000Y-114250000D02*
X160400000Y-114375000D01*
D21*
X166446200Y-100888800D02*
X166624000Y-100888800D01*
X172608156Y-77583156D02*
X176802962Y-81777962D01*
D22*
X160400000Y-114375000D02*
X153325000Y-114375000D01*
D21*
X157300000Y-104275000D02*
X159650000Y-101925000D01*
X168224200Y-99339400D02*
X168427400Y-99136200D01*
D22*
X153250000Y-114300000D02*
X153025000Y-114300000D01*
D21*
X166624000Y-100888800D02*
X168173400Y-99339400D01*
D22*
X153325000Y-114375000D02*
X153250000Y-114300000D01*
D21*
X164975000Y-83150000D02*
X164975000Y-82805000D01*
X153095200Y-114300000D02*
X153025000Y-114300000D01*
X170032962Y-77583156D02*
X172608156Y-77583156D01*
X153247600Y-114452400D02*
X153095200Y-114300000D01*
X157300000Y-107300000D02*
X157300000Y-104275000D01*
X170032962Y-77747038D02*
X170032962Y-77583156D01*
X168173400Y-99339400D02*
X168224200Y-99339400D01*
X176802962Y-81777962D02*
X176802962Y-82423156D01*
%TO.N,3.3V*%
X150600000Y-93650000D02*
X150812500Y-93862500D01*
X168725000Y-95275000D02*
X168675000Y-95225000D01*
D22*
X146304000Y-91200000D02*
X148125000Y-91200000D01*
X148125000Y-91200000D02*
X150575000Y-93650000D01*
D21*
X185674000Y-95681800D02*
X185674000Y-120426000D01*
X185674000Y-120426000D02*
X184450000Y-121650000D01*
X144550000Y-115036000D02*
X144526000Y-115060000D01*
D23*
X168675000Y-95225000D02*
X164550000Y-95225000D01*
D21*
X168825000Y-95275000D02*
X168725000Y-95275000D01*
X144526000Y-115060000D02*
X144640000Y-115060000D01*
X148100000Y-111600000D02*
X148100000Y-106800000D01*
X164550000Y-95225000D02*
X164325000Y-95000000D01*
X144550000Y-111950000D02*
X144550000Y-115036000D01*
X144640000Y-115060000D02*
X148100000Y-111600000D01*
X150575000Y-93650000D02*
X150600000Y-93650000D01*
%TO.N,USB_DN*%
X159125000Y-118400000D02*
X159780000Y-117745000D01*
X157825000Y-118400000D02*
X159125000Y-118400000D01*
X156275000Y-116850000D02*
X157825000Y-118400000D01*
X156120000Y-116850000D02*
X156275000Y-116850000D01*
X159780000Y-117745000D02*
X160605000Y-117745000D01*
%TO.N,USB_DP*%
X158885001Y-117614999D02*
X159995001Y-116504999D01*
X159995001Y-116504999D02*
X161065000Y-116504999D01*
X158345000Y-117614999D02*
X158885001Y-117614999D01*
%TO.N,Display_LED_BacklightEN*%
X161905500Y-90950000D02*
X159569777Y-88614277D01*
X173025000Y-97050000D02*
X166925000Y-90950000D01*
X173025000Y-122405000D02*
X173025000Y-97050000D01*
X175500000Y-124880000D02*
X173025000Y-122405000D01*
X166925000Y-90950000D02*
X161905500Y-90950000D01*
X175500000Y-125900000D02*
X175500000Y-124880000D01*
X159569777Y-88614277D02*
X159569777Y-87150000D01*
%TO.N,KEEB_SCL*%
X140800000Y-120200000D02*
X139446000Y-118846000D01*
X139446000Y-118846000D02*
X139446000Y-115060000D01*
X170586400Y-112064800D02*
X170561000Y-112039400D01*
X139440000Y-112080000D02*
X139440000Y-115054000D01*
X158700000Y-115550000D02*
X154025000Y-115550000D01*
X164236400Y-112090200D02*
X168427400Y-112090200D01*
X168427400Y-112090200D02*
X169367200Y-113030000D01*
X158750000Y-115500000D02*
X158700000Y-115550000D01*
X163851600Y-112475000D02*
X164236400Y-112090200D01*
X161075000Y-112475000D02*
X163851600Y-112475000D01*
X149375000Y-120200000D02*
X140800000Y-120200000D01*
X170332400Y-113030000D02*
X170586400Y-112776000D01*
X154025000Y-115550000D02*
X149375000Y-120200000D01*
X169367200Y-113030000D02*
X170332400Y-113030000D01*
X170586400Y-112776000D02*
X170586400Y-112064800D01*
X139440000Y-115054000D02*
X139446000Y-115060000D01*
%TO.N,KEEB_D*%
X169847400Y-114450000D02*
X171100000Y-115702600D01*
X142330000Y-114630000D02*
X142330000Y-115060000D01*
X141986000Y-112074000D02*
X141986000Y-115060000D01*
X171100000Y-115702600D02*
X171100000Y-117950000D01*
X163563200Y-113650000D02*
X164363200Y-114450000D01*
X142030000Y-112030000D02*
X141986000Y-112074000D01*
X164363200Y-114450000D02*
X169847400Y-114450000D01*
X148025000Y-113650000D02*
X163563200Y-113650000D01*
X147850000Y-113825000D02*
X148025000Y-113650000D01*
X171100000Y-117950000D02*
X170500000Y-118550000D01*
%TO.N,SHARED_CLCK*%
X172225000Y-124155000D02*
X172225000Y-97500000D01*
X154200000Y-87240000D02*
X154250000Y-87190000D01*
X173000000Y-126300000D02*
X173000000Y-124930000D01*
X172225000Y-97500000D02*
X167175000Y-92450000D01*
X154489777Y-88703777D02*
X154489777Y-87150000D01*
X178400000Y-98240000D02*
X178400000Y-96820000D01*
X173000000Y-124930000D02*
X172225000Y-124155000D01*
X178650000Y-98490000D02*
X178400000Y-98240000D01*
X178400000Y-96820000D02*
X178190000Y-96610000D01*
X158236000Y-92450000D02*
X154489777Y-88703777D01*
X167175000Y-92450000D02*
X158236000Y-92450000D01*
%TO.N,SHARED_MOSI*%
X149409777Y-89134777D02*
X157550000Y-97275000D01*
X157550000Y-97275000D02*
X160840000Y-97275000D01*
X160840000Y-97275000D02*
X160840000Y-95700000D01*
X160840000Y-97275000D02*
X171000000Y-97275000D01*
X160840000Y-95700000D02*
X160880000Y-95660000D01*
X149409777Y-87150000D02*
X149409777Y-89134777D01*
%TO.N,SHARED_MISO*%
X146869777Y-87319777D02*
X146869777Y-87150000D01*
X149250000Y-84769777D02*
X146869777Y-87150000D01*
X163190000Y-97875000D02*
X163190000Y-99450000D01*
X163190000Y-97875000D02*
X157425000Y-97875000D01*
X146950000Y-87230223D02*
X146869777Y-87150000D01*
X157425000Y-97875000D02*
X146869777Y-87319777D01*
X149250000Y-83259999D02*
X149250000Y-84769777D01*
X146630000Y-87190000D02*
X146600000Y-87220000D01*
X163190000Y-99450000D02*
X163160000Y-99480000D01*
X149289999Y-83220000D02*
X149250000Y-83259999D01*
%TO.N,LoRa_Select*%
X151750000Y-109375000D02*
X148950000Y-112175000D01*
X169600000Y-109375000D02*
X151750000Y-109375000D01*
%TO.N,SPEAKER+*%
X139075000Y-119850000D02*
X140400000Y-121175000D01*
X149575000Y-121175000D02*
X149925000Y-121525000D01*
X140400000Y-121175000D02*
X149575000Y-121175000D01*
X149925000Y-121525000D02*
X149925000Y-121875000D01*
X129950000Y-119850000D02*
X139075000Y-119850000D01*
%TO.N,SPEAKER-*%
X148925000Y-121800000D02*
X148750000Y-121625000D01*
X148750000Y-121625000D02*
X141026000Y-121625000D01*
X140291000Y-122360000D02*
X129980000Y-122360000D01*
X141026000Y-121625000D02*
X140291000Y-122360000D01*
%TO.N,Display_DC*%
X167894000Y-89919000D02*
X167894000Y-89154000D01*
X166800000Y-87340000D02*
X166950000Y-87190000D01*
X178200000Y-121200000D02*
X177325000Y-121200000D01*
X174225000Y-96250000D02*
X167894000Y-89919000D01*
X167894000Y-89154000D02*
X167189777Y-88449777D01*
X177325000Y-121200000D02*
X174225000Y-118100000D01*
X167189777Y-88449777D02*
X167189777Y-87150000D01*
X179300000Y-122300000D02*
X178200000Y-121200000D01*
X179300000Y-122500000D02*
X179300000Y-122300000D01*
X174225000Y-118100000D02*
X174225000Y-96250000D01*
%TO.N,Display_RST*%
X177400000Y-120500000D02*
X174625000Y-117725000D01*
X180600000Y-122520000D02*
X178580000Y-120500000D01*
X178580000Y-120500000D02*
X177400000Y-120500000D01*
X174625000Y-95975000D02*
X169729777Y-91079777D01*
X169729777Y-91079777D02*
X169729777Y-87150000D01*
X180600000Y-125900000D02*
X180600000Y-122520000D01*
X174625000Y-117725000D02*
X174625000Y-95975000D01*
%TO.N,Display_SCK*%
X173425000Y-118700000D02*
X173425000Y-96800000D01*
X176350000Y-122225000D02*
X176125000Y-122225000D01*
X162109777Y-88703777D02*
X162109777Y-87150000D01*
X175800000Y-121900000D02*
X175800000Y-121075000D01*
X166950000Y-90325000D02*
X163731000Y-90325000D01*
X176125000Y-122225000D02*
X175800000Y-121900000D01*
X163731000Y-90325000D02*
X162109777Y-88703777D01*
X173425000Y-96800000D02*
X166950000Y-90325000D01*
X175800000Y-121075000D02*
X173425000Y-118700000D01*
%TO.N,Display_MOSI*%
X164650000Y-88280000D02*
X164650000Y-88704000D01*
X178430000Y-122280000D02*
X178430000Y-125770000D01*
X164654000Y-88704000D02*
X165725000Y-89775000D01*
X177200000Y-121800000D02*
X177950000Y-121800000D01*
X177950000Y-121800000D02*
X178430000Y-122280000D01*
X178430000Y-125770000D02*
X178200000Y-126000000D01*
X164649777Y-87150000D02*
X164649777Y-88279777D01*
X173825000Y-96550000D02*
X173825000Y-118425000D01*
X165725000Y-89775000D02*
X167050000Y-89775000D01*
X167050000Y-89775000D02*
X173825000Y-96550000D01*
X173825000Y-118425000D02*
X177200000Y-121800000D01*
X164600000Y-87380000D02*
X164410000Y-87190000D01*
X164650000Y-88704000D02*
X164654000Y-88704000D01*
X164649777Y-88279777D02*
X164650000Y-88280000D01*
%TO.N,T_CS*%
X151800000Y-87280000D02*
X151710000Y-87190000D01*
%TO.N,Display_MISO*%
X157040000Y-88714000D02*
X157040000Y-87160223D01*
X167000000Y-91675000D02*
X160001000Y-91675000D01*
X160001000Y-91675000D02*
X157040000Y-88714000D01*
X174300000Y-127100000D02*
X174300000Y-124790000D01*
X174300000Y-124790000D02*
X172625000Y-123115000D01*
X172625000Y-97300000D02*
X167000000Y-91675000D01*
X172625000Y-123115000D02*
X172625000Y-97300000D01*
X157040000Y-87160223D02*
X157029777Y-87150000D01*
%TO.N,Display_CS*%
X175025000Y-117425000D02*
X175025000Y-95725000D01*
X170200000Y-89960000D02*
X172360000Y-89960000D01*
X170200000Y-90900000D02*
X170200000Y-89960000D01*
X170200000Y-89960000D02*
X170200000Y-89219777D01*
X175025000Y-95725000D02*
X170200000Y-90900000D01*
X172360000Y-89960000D02*
X172370000Y-89970000D01*
X177370000Y-119770000D02*
X175025000Y-117425000D01*
X170200000Y-89219777D02*
X172269777Y-87150000D01*
X179995000Y-119770000D02*
X177370000Y-119770000D01*
X181900000Y-122300000D02*
X181900000Y-121675000D01*
X181900000Y-121675000D02*
X179995000Y-119770000D01*
%TO.N,Interface_Tx*%
X180725000Y-111150000D02*
X180725000Y-108350000D01*
X180725000Y-108350000D02*
X180600000Y-108225000D01*
X160479999Y-111825000D02*
X160350000Y-111954999D01*
X163950000Y-111575000D02*
X163700000Y-111825000D01*
X180700000Y-111175000D02*
X180725000Y-111150000D01*
X163700000Y-111825000D02*
X160479999Y-111825000D01*
X169643200Y-112068200D02*
X169150000Y-111575000D01*
X169150000Y-111575000D02*
X163950000Y-111575000D01*
%TO.N,Interface_Rx*%
X169367600Y-111150000D02*
X160930000Y-111150000D01*
X160755000Y-111325000D02*
X159750000Y-111325000D01*
X169570400Y-110947200D02*
X169367600Y-111150000D01*
X160930000Y-111150000D02*
X160755000Y-111325000D01*
%TO.N,KEEB_INT*%
X149525000Y-120675000D02*
X151725000Y-118475000D01*
X136780000Y-114934000D02*
X136906000Y-115060000D01*
X136906000Y-115060000D02*
X136906000Y-117031000D01*
X151725000Y-118475000D02*
X155600000Y-118475000D01*
X163600000Y-117150000D02*
X166550000Y-117150000D01*
X136906000Y-117031000D02*
X140550000Y-120675000D01*
X166550000Y-117150000D02*
X166700000Y-117300000D01*
X136780000Y-112030000D02*
X136780000Y-114934000D01*
X156925000Y-119800000D02*
X160950000Y-119800000D01*
X137270000Y-115080000D02*
X137250000Y-115060000D01*
X160950000Y-119800000D02*
X163600000Y-117150000D01*
X140550000Y-120675000D02*
X149525000Y-120675000D01*
X155600000Y-118475000D02*
X156925000Y-119800000D01*
%TO.N,Batt+*%
X157175000Y-95375000D02*
X157175000Y-95575000D01*
X155650000Y-92303600D02*
X155650000Y-93850000D01*
X155650000Y-93850000D02*
X157175000Y-95375000D01*
%TO.N,Net-(JP1-A)*%
X165200000Y-119000000D02*
X165200000Y-122400000D01*
X167600000Y-124800000D02*
X168100000Y-124800000D01*
X164325000Y-118125000D02*
X165200000Y-119000000D01*
X165200000Y-122400000D02*
X167600000Y-124800000D01*
%TO.N,Net-(JP2-A)*%
X165900000Y-122000000D02*
X167650000Y-123750000D01*
X165900000Y-118775000D02*
X165900000Y-122000000D01*
X165200000Y-118075000D02*
X165900000Y-118775000D01*
X167650000Y-123750000D02*
X167675000Y-123750000D01*
%TO.N,GND*%
X147066000Y-113444000D02*
X147490000Y-113020000D01*
X156900000Y-112300000D02*
X157790000Y-113190000D01*
X160425000Y-115575000D02*
X160525000Y-115675000D01*
X160525000Y-115675000D02*
X162350000Y-115675000D01*
X150100000Y-113020000D02*
X150490000Y-112630000D01*
X147490000Y-113020000D02*
X150100000Y-113020000D01*
X165465000Y-113190000D02*
X165875000Y-113600000D01*
X156935001Y-116245001D02*
X156680000Y-115990000D01*
X159950000Y-115575000D02*
X160425000Y-115575000D01*
X158305000Y-116245001D02*
X156935001Y-116245001D01*
X147066000Y-115060000D02*
X147066000Y-113444000D01*
X159279999Y-116245001D02*
X159950000Y-115575000D01*
X156680000Y-115990000D02*
X155560000Y-115990000D01*
X158305000Y-116245001D02*
X159279999Y-116245001D01*
X157790000Y-113190000D02*
X165465000Y-113190000D01*
%TO.N,TALK_SW*%
X169418000Y-119532400D02*
X170789600Y-120904000D01*
X170484800Y-116205000D02*
X170484800Y-117449600D01*
X169232200Y-114952400D02*
X169595800Y-115316000D01*
X169418000Y-118516400D02*
X169418000Y-119532400D01*
X169595800Y-115316000D02*
X170484800Y-116205000D01*
X149352400Y-119500000D02*
X153900000Y-114952400D01*
X170484800Y-117449600D02*
X169418000Y-118516400D01*
X153900000Y-114952400D02*
X169232200Y-114952400D01*
X145350000Y-119500000D02*
X149352400Y-119500000D01*
%TO.N,LoRa_DIO2*%
X184950000Y-103470000D02*
X184950000Y-104880000D01*
X184850000Y-103370000D02*
X184950000Y-103470000D01*
X184850000Y-97610000D02*
X184850000Y-103370000D01*
%TD*%
%TA.AperFunction,Conductor*%
%TO.N,GND*%
G36*
X177852553Y-66740185D02*
G01*
X177898308Y-66792989D01*
X177908252Y-66862147D01*
X177879227Y-66925703D01*
X177832967Y-66959061D01*
X177701186Y-67013646D01*
X177701182Y-67013648D01*
X177493709Y-67133434D01*
X177407861Y-67199307D01*
X177407861Y-67199308D01*
X178085089Y-67876536D01*
X177947045Y-67968776D01*
X177823776Y-68092045D01*
X177731536Y-68230089D01*
X177054308Y-67552861D01*
X177054307Y-67552861D01*
X176988434Y-67638709D01*
X176868648Y-67846182D01*
X176868646Y-67846186D01*
X176776972Y-68067506D01*
X176714968Y-68298908D01*
X176683701Y-68536409D01*
X176683700Y-68536425D01*
X176683700Y-68775974D01*
X176683701Y-68775990D01*
X176714968Y-69013491D01*
X176776972Y-69244893D01*
X176868646Y-69466213D01*
X176868651Y-69466224D01*
X176988424Y-69673675D01*
X176988430Y-69673683D01*
X177054308Y-69759537D01*
X177731536Y-69082309D01*
X177823776Y-69220355D01*
X177947045Y-69343624D01*
X178085089Y-69435862D01*
X177407861Y-70113089D01*
X177407861Y-70113090D01*
X177493716Y-70178969D01*
X177493724Y-70178975D01*
X177701175Y-70298748D01*
X177701186Y-70298753D01*
X177922506Y-70390427D01*
X178153908Y-70452431D01*
X178391409Y-70483698D01*
X178391426Y-70483700D01*
X178630974Y-70483700D01*
X178630990Y-70483698D01*
X178868491Y-70452431D01*
X179099893Y-70390427D01*
X179321213Y-70298753D01*
X179321224Y-70298748D01*
X179528685Y-70178969D01*
X179567890Y-70148886D01*
X179567892Y-70148885D01*
X179614537Y-70113092D01*
X179614537Y-70113089D01*
X178937310Y-69435862D01*
X179075355Y-69343624D01*
X179198624Y-69220355D01*
X179290862Y-69082310D01*
X179968089Y-69759537D01*
X179968092Y-69759537D01*
X180033967Y-69673689D01*
X180153748Y-69466224D01*
X180153753Y-69466213D01*
X180245427Y-69244893D01*
X180307431Y-69013491D01*
X180338698Y-68775990D01*
X180338700Y-68775974D01*
X180338700Y-68687135D01*
X186024500Y-68687135D01*
X186024500Y-70482870D01*
X186024501Y-70482876D01*
X186030908Y-70542483D01*
X186081202Y-70677328D01*
X186081206Y-70677335D01*
X186167452Y-70792544D01*
X186167455Y-70792547D01*
X186282664Y-70878793D01*
X186282671Y-70878797D01*
X186417517Y-70929091D01*
X186417516Y-70929091D01*
X186424444Y-70929835D01*
X186477127Y-70935500D01*
X188272872Y-70935499D01*
X188332483Y-70929091D01*
X188467331Y-70878796D01*
X188582546Y-70792546D01*
X188668796Y-70677331D01*
X188719091Y-70542483D01*
X188725500Y-70482873D01*
X188725499Y-70458979D01*
X188728330Y-70445963D01*
X188738940Y-70426525D01*
X188745179Y-70405275D01*
X188761803Y-70384643D01*
X188761808Y-70384636D01*
X188761811Y-70384634D01*
X188761818Y-70384626D01*
X189432037Y-69714408D01*
X189449075Y-69777993D01*
X189514901Y-69892007D01*
X189607993Y-69985099D01*
X189722007Y-70050925D01*
X189785590Y-70067962D01*
X189153282Y-70700269D01*
X189153282Y-70700270D01*
X189207449Y-70739624D01*
X189396782Y-70836095D01*
X189598870Y-70901757D01*
X189808754Y-70935000D01*
X190021246Y-70935000D01*
X190231127Y-70901757D01*
X190231130Y-70901757D01*
X190433217Y-70836095D01*
X190622554Y-70739622D01*
X190676716Y-70700270D01*
X190676717Y-70700270D01*
X190044408Y-70067962D01*
X190107993Y-70050925D01*
X190222007Y-69985099D01*
X190315099Y-69892007D01*
X190380925Y-69777993D01*
X190397962Y-69714408D01*
X191030270Y-70346717D01*
X191030270Y-70346716D01*
X191069622Y-70292554D01*
X191166095Y-70103217D01*
X191231757Y-69901130D01*
X191231757Y-69901127D01*
X191265000Y-69691246D01*
X191265000Y-69478753D01*
X191231757Y-69268872D01*
X191231757Y-69268869D01*
X191166095Y-69066782D01*
X191069624Y-68877449D01*
X191030270Y-68823282D01*
X191030269Y-68823282D01*
X190397962Y-69455590D01*
X190380925Y-69392007D01*
X190315099Y-69277993D01*
X190222007Y-69184901D01*
X190107993Y-69119075D01*
X190044409Y-69102037D01*
X190676716Y-68469728D01*
X190622550Y-68430375D01*
X190433217Y-68333904D01*
X190231129Y-68268242D01*
X190021246Y-68235000D01*
X189808754Y-68235000D01*
X189598872Y-68268242D01*
X189598869Y-68268242D01*
X189396782Y-68333904D01*
X189207439Y-68430380D01*
X189153282Y-68469727D01*
X189153282Y-68469728D01*
X189785591Y-69102037D01*
X189722007Y-69119075D01*
X189607993Y-69184901D01*
X189514901Y-69277993D01*
X189449075Y-69392007D01*
X189432037Y-69455591D01*
X188761818Y-68785372D01*
X188728333Y-68724049D01*
X188728330Y-68724036D01*
X188725499Y-68711015D01*
X188725499Y-68687128D01*
X188719091Y-68627517D01*
X188685110Y-68536409D01*
X188668798Y-68492673D01*
X188668793Y-68492664D01*
X188582547Y-68377455D01*
X188582544Y-68377452D01*
X188467335Y-68291206D01*
X188467328Y-68291202D01*
X188332482Y-68240908D01*
X188332483Y-68240908D01*
X188272883Y-68234501D01*
X188272881Y-68234500D01*
X188272873Y-68234500D01*
X188272864Y-68234500D01*
X186477129Y-68234500D01*
X186477123Y-68234501D01*
X186417516Y-68240908D01*
X186282671Y-68291202D01*
X186282664Y-68291206D01*
X186167455Y-68377452D01*
X186167452Y-68377455D01*
X186081206Y-68492664D01*
X186081202Y-68492671D01*
X186030908Y-68627517D01*
X186024501Y-68687116D01*
X186024500Y-68687135D01*
X180338700Y-68687135D01*
X180338700Y-68536425D01*
X180338698Y-68536409D01*
X180307431Y-68298908D01*
X180245427Y-68067506D01*
X180153753Y-67846186D01*
X180153748Y-67846175D01*
X180033975Y-67638724D01*
X180033969Y-67638716D01*
X179968090Y-67552861D01*
X179968089Y-67552861D01*
X179290862Y-68230088D01*
X179198624Y-68092045D01*
X179075355Y-67968776D01*
X178937308Y-67876536D01*
X179614537Y-67199308D01*
X179528683Y-67133430D01*
X179528675Y-67133424D01*
X179321224Y-67013651D01*
X179321213Y-67013646D01*
X179189433Y-66959061D01*
X179135030Y-66915220D01*
X179112965Y-66848926D01*
X179130244Y-66781227D01*
X179181381Y-66733616D01*
X179236886Y-66720500D01*
X190769897Y-66720500D01*
X190769901Y-66720501D01*
X190829703Y-66720500D01*
X190841854Y-66721097D01*
X190850358Y-66721934D01*
X190921080Y-66728899D01*
X190944909Y-66733639D01*
X191015241Y-66754975D01*
X191037695Y-66764277D01*
X191102496Y-66798917D01*
X191122707Y-66812423D01*
X191184394Y-66863052D01*
X191193407Y-66871221D01*
X191193852Y-66871666D01*
X191193856Y-66871673D01*
X191193858Y-66871672D01*
X191193859Y-66871673D01*
X191235554Y-66913374D01*
X191235555Y-66913374D01*
X191241376Y-66919196D01*
X191241423Y-66919237D01*
X193556604Y-69234417D01*
X193598876Y-69276689D01*
X193607048Y-69285705D01*
X193657567Y-69347263D01*
X193671071Y-69367474D01*
X193705714Y-69432289D01*
X193715016Y-69454746D01*
X193736349Y-69525074D01*
X193741091Y-69548917D01*
X193748902Y-69628244D01*
X193749499Y-69640393D01*
X193749499Y-69671084D01*
X193749499Y-69700099D01*
X193749499Y-69700101D01*
X193749500Y-69710093D01*
X193749500Y-105012000D01*
X193729815Y-105079039D01*
X193677011Y-105124794D01*
X193625500Y-105136000D01*
X187230000Y-105136000D01*
X187230000Y-125704000D01*
X193625500Y-125704000D01*
X193692539Y-125723685D01*
X193738294Y-125776489D01*
X193749500Y-125828000D01*
X193749500Y-127659897D01*
X193749499Y-127659901D01*
X193749499Y-127680097D01*
X193749499Y-127692388D01*
X193749499Y-127719704D01*
X193748902Y-127731856D01*
X193741100Y-127811085D01*
X193736358Y-127834926D01*
X193715025Y-127905256D01*
X193705723Y-127927716D01*
X193671078Y-127992533D01*
X193657572Y-128012745D01*
X193607124Y-128074216D01*
X193598952Y-128083232D01*
X191349500Y-130332686D01*
X191349498Y-130332688D01*
X190843326Y-130838858D01*
X190834304Y-130847035D01*
X190772756Y-130897540D01*
X190752544Y-130911043D01*
X190687723Y-130945686D01*
X190665265Y-130954987D01*
X190594927Y-130976320D01*
X190571089Y-130981061D01*
X190491457Y-130988902D01*
X190479308Y-130989499D01*
X190449353Y-130989499D01*
X190419901Y-130989499D01*
X190419897Y-130989499D01*
X190412293Y-130989500D01*
X190412292Y-130989499D01*
X190412291Y-130989500D01*
X189862414Y-130989500D01*
X189795375Y-130969815D01*
X189749620Y-130917011D01*
X189739676Y-130847853D01*
X189768701Y-130784297D01*
X189786928Y-130767124D01*
X189844022Y-130723314D01*
X189870080Y-130703319D01*
X190083319Y-130490080D01*
X190266900Y-130250832D01*
X190417683Y-129989668D01*
X190533087Y-129711058D01*
X190611138Y-129419768D01*
X190650500Y-129120783D01*
X190650500Y-128819217D01*
X190611138Y-128520232D01*
X190533087Y-128228942D01*
X190524874Y-128209115D01*
X190468997Y-128074216D01*
X190417683Y-127950332D01*
X190404630Y-127927724D01*
X190266900Y-127689168D01*
X190083320Y-127449921D01*
X190083314Y-127449914D01*
X189870085Y-127236685D01*
X189870078Y-127236679D01*
X189630831Y-127053099D01*
X189369671Y-126902318D01*
X189369661Y-126902314D01*
X189091060Y-126786913D01*
X188799766Y-126708861D01*
X188500793Y-126669501D01*
X188500788Y-126669500D01*
X188500783Y-126669500D01*
X188199217Y-126669500D01*
X188199211Y-126669500D01*
X188199206Y-126669501D01*
X187900233Y-126708861D01*
X187608939Y-126786913D01*
X187330338Y-126902314D01*
X187330328Y-126902318D01*
X187069168Y-127053099D01*
X186829921Y-127236679D01*
X186829914Y-127236685D01*
X186616685Y-127449914D01*
X186616679Y-127449921D01*
X186433099Y-127689168D01*
X186282318Y-127950328D01*
X186282314Y-127950338D01*
X186166913Y-128228939D01*
X186088861Y-128520233D01*
X186049501Y-128819206D01*
X186049500Y-128819223D01*
X186049500Y-129120776D01*
X186049501Y-129120793D01*
X186088861Y-129419766D01*
X186166913Y-129711060D01*
X186282314Y-129989661D01*
X186282318Y-129989671D01*
X186433099Y-130250831D01*
X186616679Y-130490078D01*
X186616685Y-130490085D01*
X186829914Y-130703314D01*
X186829921Y-130703320D01*
X186913072Y-130767124D01*
X186954275Y-130823552D01*
X186958430Y-130893298D01*
X186924218Y-130954218D01*
X186862501Y-130986971D01*
X186837586Y-130989500D01*
X134988479Y-130989500D01*
X134921440Y-130969815D01*
X134875685Y-130917011D01*
X134865741Y-130847853D01*
X134894766Y-130784297D01*
X134912993Y-130767124D01*
X134945575Y-130742122D01*
X134970080Y-130723319D01*
X135183319Y-130510080D01*
X135366900Y-130270832D01*
X135517683Y-130009668D01*
X135633087Y-129731058D01*
X135711138Y-129439768D01*
X135750500Y-129140783D01*
X135750500Y-128839217D01*
X135711138Y-128540232D01*
X135673966Y-128401504D01*
X155580000Y-128401504D01*
X155580000Y-128650000D01*
X156280000Y-128650000D01*
X156280000Y-129150000D01*
X155580000Y-129150000D01*
X155580000Y-129398495D01*
X155618427Y-129591681D01*
X155618430Y-129591693D01*
X155693807Y-129773671D01*
X155693814Y-129773684D01*
X155803248Y-129937462D01*
X155803251Y-129937466D01*
X155942533Y-130076748D01*
X155942537Y-130076751D01*
X156106315Y-130186185D01*
X156106328Y-130186192D01*
X156288308Y-130261569D01*
X156330000Y-130269862D01*
X156330000Y-129466988D01*
X156339940Y-129484205D01*
X156395795Y-129540060D01*
X156464204Y-129579556D01*
X156540504Y-129600000D01*
X156619496Y-129600000D01*
X156695796Y-129579556D01*
X156764205Y-129540060D01*
X156820060Y-129484205D01*
X156830000Y-129466988D01*
X156830000Y-130269862D01*
X156871690Y-130261569D01*
X156871692Y-130261569D01*
X157053671Y-130186192D01*
X157053684Y-130186185D01*
X157217462Y-130076751D01*
X157217466Y-130076748D01*
X157356748Y-129937466D01*
X157356751Y-129937462D01*
X157466185Y-129773684D01*
X157466192Y-129773671D01*
X157541569Y-129591693D01*
X157541572Y-129591681D01*
X157579999Y-129398495D01*
X157580000Y-129398492D01*
X157580000Y-129150000D01*
X156880000Y-129150000D01*
X156880000Y-128650000D01*
X157580000Y-128650000D01*
X157580000Y-128401508D01*
X157579999Y-128401504D01*
X164220000Y-128401504D01*
X164220000Y-128650000D01*
X164920000Y-128650000D01*
X164920000Y-129150000D01*
X164220000Y-129150000D01*
X164220000Y-129398495D01*
X164258427Y-129591681D01*
X164258430Y-129591693D01*
X164333807Y-129773671D01*
X164333814Y-129773684D01*
X164443248Y-129937462D01*
X164443251Y-129937466D01*
X164582533Y-130076748D01*
X164582537Y-130076751D01*
X164746315Y-130186185D01*
X164746328Y-130186192D01*
X164928308Y-130261569D01*
X164970000Y-130269862D01*
X164970000Y-129466988D01*
X164979940Y-129484205D01*
X165035795Y-129540060D01*
X165104204Y-129579556D01*
X165180504Y-129600000D01*
X165259496Y-129600000D01*
X165335796Y-129579556D01*
X165404205Y-129540060D01*
X165460060Y-129484205D01*
X165470000Y-129466988D01*
X165470000Y-130269862D01*
X165511690Y-130261569D01*
X165511692Y-130261569D01*
X165693671Y-130186192D01*
X165693684Y-130186185D01*
X165857462Y-130076751D01*
X165857466Y-130076748D01*
X165996748Y-129937466D01*
X165996751Y-129937462D01*
X166106185Y-129773684D01*
X166106192Y-129773671D01*
X166181569Y-129591693D01*
X166181572Y-129591681D01*
X166219999Y-129398495D01*
X166220000Y-129398492D01*
X166220000Y-129150000D01*
X165520000Y-129150000D01*
X165520000Y-128650000D01*
X166220000Y-128650000D01*
X166220000Y-128401508D01*
X166219999Y-128401504D01*
X166181572Y-128208318D01*
X166181569Y-128208306D01*
X166106192Y-128026328D01*
X166106185Y-128026315D01*
X165996751Y-127862537D01*
X165996748Y-127862533D01*
X165857466Y-127723251D01*
X165857462Y-127723248D01*
X165693684Y-127613814D01*
X165693671Y-127613807D01*
X165511691Y-127538429D01*
X165511683Y-127538427D01*
X165470000Y-127530135D01*
X165470000Y-128333011D01*
X165460060Y-128315795D01*
X165404205Y-128259940D01*
X165335796Y-128220444D01*
X165259496Y-128200000D01*
X165180504Y-128200000D01*
X165104204Y-128220444D01*
X165035795Y-128259940D01*
X164979940Y-128315795D01*
X164970000Y-128333011D01*
X164970000Y-127530136D01*
X164969999Y-127530135D01*
X164928316Y-127538427D01*
X164928308Y-127538429D01*
X164746328Y-127613807D01*
X164746315Y-127613814D01*
X164582537Y-127723248D01*
X164582533Y-127723251D01*
X164443251Y-127862533D01*
X164443248Y-127862537D01*
X164333814Y-128026315D01*
X164333807Y-128026328D01*
X164258430Y-128208306D01*
X164258427Y-128208318D01*
X164220000Y-128401504D01*
X157579999Y-128401504D01*
X157541572Y-128208318D01*
X157541569Y-128208306D01*
X157466192Y-128026328D01*
X157466185Y-128026315D01*
X157356751Y-127862537D01*
X157356748Y-127862533D01*
X157217466Y-127723251D01*
X157217462Y-127723248D01*
X157053684Y-127613814D01*
X157053671Y-127613807D01*
X156871691Y-127538429D01*
X156871683Y-127538427D01*
X156830000Y-127530135D01*
X156830000Y-128333011D01*
X156820060Y-128315795D01*
X156764205Y-128259940D01*
X156695796Y-128220444D01*
X156619496Y-128200000D01*
X156540504Y-128200000D01*
X156464204Y-128220444D01*
X156395795Y-128259940D01*
X156339940Y-128315795D01*
X156330000Y-128333011D01*
X156330000Y-127530136D01*
X156329999Y-127530135D01*
X156288316Y-127538427D01*
X156288308Y-127538429D01*
X156106328Y-127613807D01*
X156106315Y-127613814D01*
X155942537Y-127723248D01*
X155942533Y-127723251D01*
X155803251Y-127862533D01*
X155803248Y-127862537D01*
X155693814Y-128026315D01*
X155693807Y-128026328D01*
X155618430Y-128208306D01*
X155618427Y-128208318D01*
X155580000Y-128401504D01*
X135673966Y-128401504D01*
X135633087Y-128248942D01*
X135624801Y-128228939D01*
X135612815Y-128200000D01*
X135517683Y-127970332D01*
X135506139Y-127950338D01*
X135366900Y-127709168D01*
X135183320Y-127469921D01*
X135183314Y-127469914D01*
X134970085Y-127256685D01*
X134970078Y-127256679D01*
X134730831Y-127073099D01*
X134469671Y-126922318D01*
X134469661Y-126922314D01*
X134191060Y-126806913D01*
X133899766Y-126728861D01*
X133600793Y-126689501D01*
X133600788Y-126689500D01*
X133600783Y-126689500D01*
X133299217Y-126689500D01*
X133299211Y-126689500D01*
X133299206Y-126689501D01*
X133000233Y-126728861D01*
X132708939Y-126806913D01*
X132430338Y-126922314D01*
X132430328Y-126922318D01*
X132169168Y-127073099D01*
X131929921Y-127256679D01*
X131929914Y-127256685D01*
X131716685Y-127469914D01*
X131716679Y-127469921D01*
X131533099Y-127709168D01*
X131382318Y-127970328D01*
X131382314Y-127970338D01*
X131266913Y-128248939D01*
X131188861Y-128540233D01*
X131149501Y-128839206D01*
X131149500Y-128839223D01*
X131149500Y-129140776D01*
X131149501Y-129140793D01*
X131188861Y-129439766D01*
X131266913Y-129731060D01*
X131382314Y-130009661D01*
X131382318Y-130009671D01*
X131533099Y-130270831D01*
X131716679Y-130510078D01*
X131716685Y-130510085D01*
X131929914Y-130723314D01*
X131929921Y-130723320D01*
X131987007Y-130767124D01*
X132028210Y-130823552D01*
X132032365Y-130893298D01*
X131998153Y-130954218D01*
X131936435Y-130986971D01*
X131911521Y-130989500D01*
X131287707Y-130989500D01*
X131280102Y-130989499D01*
X131280099Y-130989499D01*
X131250537Y-130989499D01*
X131220293Y-130989499D01*
X131220292Y-130989498D01*
X131208143Y-130988902D01*
X131128914Y-130981100D01*
X131105073Y-130976358D01*
X131034743Y-130955025D01*
X131012284Y-130945723D01*
X130947468Y-130911079D01*
X130927256Y-130897574D01*
X130865777Y-130847120D01*
X130856760Y-130838947D01*
X130257314Y-130239500D01*
X128101147Y-128083333D01*
X128092970Y-128074311D01*
X128042459Y-128012755D01*
X128028956Y-127992544D01*
X128006394Y-127950328D01*
X127994309Y-127927716D01*
X127985012Y-127905265D01*
X127985009Y-127905256D01*
X127972052Y-127862533D01*
X127963679Y-127834927D01*
X127958938Y-127811089D01*
X127951097Y-127731457D01*
X127950500Y-127719306D01*
X127950500Y-127700500D01*
X127950501Y-127659901D01*
X127950500Y-127659897D01*
X127950500Y-124071504D01*
X155580000Y-124071504D01*
X155580000Y-124470000D01*
X156280000Y-124470000D01*
X156280000Y-124970000D01*
X155580000Y-124970000D01*
X155580000Y-125368495D01*
X155618427Y-125561681D01*
X155618430Y-125561693D01*
X155693807Y-125743671D01*
X155693814Y-125743684D01*
X155803248Y-125907462D01*
X155803251Y-125907466D01*
X155942533Y-126046748D01*
X155942537Y-126046751D01*
X156106315Y-126156185D01*
X156106328Y-126156192D01*
X156288308Y-126231569D01*
X156330000Y-126239862D01*
X156330000Y-125436988D01*
X156339940Y-125454205D01*
X156395795Y-125510060D01*
X156464204Y-125549556D01*
X156540504Y-125570000D01*
X156619496Y-125570000D01*
X156695796Y-125549556D01*
X156764205Y-125510060D01*
X156820060Y-125454205D01*
X156830000Y-125436988D01*
X156830000Y-126239862D01*
X156871690Y-126231569D01*
X156871692Y-126231569D01*
X157053671Y-126156192D01*
X157053684Y-126156185D01*
X157217462Y-126046751D01*
X157217466Y-126046748D01*
X157356748Y-125907466D01*
X157356751Y-125907462D01*
X157466185Y-125743684D01*
X157466186Y-125743682D01*
X157470129Y-125734163D01*
X157513968Y-125679757D01*
X157580261Y-125657689D01*
X157647961Y-125674965D01*
X157653400Y-125678647D01*
X157656634Y-125680514D01*
X157656635Y-125680515D01*
X157787865Y-125756281D01*
X157934234Y-125795500D01*
X157934236Y-125795500D01*
X158085764Y-125795500D01*
X158085766Y-125795500D01*
X158232135Y-125756281D01*
X158363365Y-125680515D01*
X158470515Y-125573365D01*
X158546281Y-125442135D01*
X158585500Y-125295766D01*
X158585500Y-125144234D01*
X158546281Y-124997865D01*
X158470515Y-124866635D01*
X158363365Y-124759485D01*
X158296972Y-124721153D01*
X158232136Y-124683719D01*
X158099634Y-124648216D01*
X158085766Y-124644500D01*
X157934234Y-124644500D01*
X157787863Y-124683719D01*
X157656635Y-124759485D01*
X157656632Y-124759487D01*
X157549487Y-124866632D01*
X157549483Y-124866638D01*
X157525603Y-124908000D01*
X157475036Y-124956216D01*
X157418216Y-124970000D01*
X156880000Y-124970000D01*
X156880000Y-124470000D01*
X157580000Y-124470000D01*
X157580000Y-124071508D01*
X157579999Y-124071504D01*
X157541572Y-123878318D01*
X157541569Y-123878306D01*
X157466192Y-123696328D01*
X157466185Y-123696315D01*
X157356751Y-123532537D01*
X157356748Y-123532533D01*
X157217466Y-123393251D01*
X157217462Y-123393248D01*
X157053684Y-123283814D01*
X157053671Y-123283807D01*
X156871691Y-123208429D01*
X156871683Y-123208427D01*
X156830000Y-123200135D01*
X156830000Y-124003011D01*
X156820060Y-123985795D01*
X156764205Y-123929940D01*
X156695796Y-123890444D01*
X156619496Y-123870000D01*
X156540504Y-123870000D01*
X156464204Y-123890444D01*
X156395795Y-123929940D01*
X156339940Y-123985795D01*
X156330000Y-124003011D01*
X156330000Y-123200136D01*
X156329999Y-123200135D01*
X156288316Y-123208427D01*
X156288308Y-123208429D01*
X156106328Y-123283807D01*
X156106315Y-123283814D01*
X155942537Y-123393248D01*
X155942533Y-123393251D01*
X155803251Y-123532533D01*
X155803248Y-123532537D01*
X155693814Y-123696315D01*
X155693807Y-123696328D01*
X155618430Y-123878306D01*
X155618427Y-123878318D01*
X155580000Y-124071504D01*
X127950500Y-124071504D01*
X127950500Y-113278713D01*
X128574500Y-113278713D01*
X128574500Y-113491287D01*
X128582582Y-113542314D01*
X128606210Y-113691498D01*
X128607754Y-113701243D01*
X128668377Y-113887822D01*
X128673444Y-113903414D01*
X128769951Y-114092820D01*
X128894890Y-114264786D01*
X129008430Y-114378326D01*
X129041915Y-114439649D01*
X129036931Y-114509341D01*
X128995059Y-114565274D01*
X128964083Y-114582189D01*
X128832669Y-114631203D01*
X128832664Y-114631206D01*
X128717455Y-114717452D01*
X128717452Y-114717455D01*
X128631206Y-114832664D01*
X128631202Y-114832671D01*
X128580908Y-114967517D01*
X128574501Y-115027116D01*
X128574501Y-115027123D01*
X128574500Y-115027135D01*
X128574500Y-116822870D01*
X128574501Y-116822876D01*
X128580908Y-116882483D01*
X128631202Y-117017328D01*
X128631206Y-117017335D01*
X128717452Y-117132544D01*
X128717455Y-117132547D01*
X128832664Y-117218793D01*
X128832671Y-117218797D01*
X128967517Y-117269091D01*
X128967516Y-117269091D01*
X128974444Y-117269835D01*
X129027127Y-117275500D01*
X130822872Y-117275499D01*
X130882483Y-117269091D01*
X131017331Y-117218796D01*
X131132546Y-117132546D01*
X131218796Y-117017331D01*
X131269091Y-116882483D01*
X131275500Y-116822873D01*
X131275499Y-115027128D01*
X131269091Y-114967517D01*
X131263957Y-114953753D01*
X131218797Y-114832671D01*
X131218793Y-114832664D01*
X131132547Y-114717455D01*
X131132544Y-114717452D01*
X131017335Y-114631206D01*
X131017328Y-114631202D01*
X130885917Y-114582189D01*
X130829983Y-114540318D01*
X130805566Y-114474853D01*
X130820418Y-114406580D01*
X130841563Y-114378332D01*
X130955104Y-114264792D01*
X130958002Y-114260804D01*
X131073003Y-114102517D01*
X131080051Y-114092816D01*
X131176557Y-113903412D01*
X131242246Y-113701243D01*
X131275500Y-113491287D01*
X131275500Y-113278713D01*
X131242246Y-113068757D01*
X131176557Y-112866588D01*
X131080051Y-112677184D01*
X131080049Y-112677181D01*
X131080048Y-112677179D01*
X130955109Y-112505213D01*
X130804786Y-112354890D01*
X130632820Y-112229951D01*
X130443414Y-112133444D01*
X130443413Y-112133443D01*
X130443412Y-112133443D01*
X130241243Y-112067754D01*
X130241241Y-112067753D01*
X130241240Y-112067753D01*
X130079957Y-112042208D01*
X130031287Y-112034500D01*
X129818713Y-112034500D01*
X129770042Y-112042208D01*
X129608760Y-112067753D01*
X129406585Y-112133444D01*
X129217179Y-112229951D01*
X129045213Y-112354890D01*
X128894890Y-112505213D01*
X128769951Y-112677179D01*
X128673444Y-112866585D01*
X128607753Y-113068760D01*
X128588472Y-113190498D01*
X128574500Y-113278713D01*
X127950500Y-113278713D01*
X127950500Y-102981153D01*
X155169500Y-102981153D01*
X155169500Y-103138846D01*
X155200261Y-103293489D01*
X155200264Y-103293501D01*
X155260602Y-103439172D01*
X155260609Y-103439185D01*
X155348210Y-103570288D01*
X155348213Y-103570292D01*
X155459707Y-103681786D01*
X155459711Y-103681789D01*
X155590814Y-103769390D01*
X155590827Y-103769397D01*
X155736498Y-103829735D01*
X155736503Y-103829737D01*
X155889574Y-103860185D01*
X155891153Y-103860499D01*
X155891156Y-103860500D01*
X155891158Y-103860500D01*
X156048844Y-103860500D01*
X156048845Y-103860499D01*
X156203497Y-103829737D01*
X156349179Y-103769394D01*
X156480289Y-103681789D01*
X156591789Y-103570289D01*
X156591791Y-103570285D01*
X156593985Y-103568092D01*
X156601151Y-103560390D01*
X156611796Y-103550287D01*
X156628716Y-103540520D01*
X156740520Y-103428716D01*
X156740521Y-103428713D01*
X157638506Y-102530728D01*
X157638511Y-102530724D01*
X157648714Y-102520520D01*
X157648716Y-102520520D01*
X157760520Y-102408716D01*
X157820874Y-102304179D01*
X157839577Y-102271785D01*
X157880501Y-102119057D01*
X157880501Y-101960943D01*
X157880501Y-101953348D01*
X157880500Y-101953330D01*
X157880500Y-101522889D01*
X157889939Y-101475437D01*
X157915092Y-101414711D01*
X157919737Y-101403497D01*
X157950500Y-101248842D01*
X157950500Y-101091158D01*
X157950500Y-101091155D01*
X157950499Y-101091153D01*
X157930023Y-100988215D01*
X157919737Y-100936503D01*
X157904824Y-100900499D01*
X157859397Y-100790827D01*
X157859390Y-100790814D01*
X157771789Y-100659711D01*
X157771786Y-100659707D01*
X157660292Y-100548213D01*
X157660288Y-100548210D01*
X157529185Y-100460609D01*
X157529172Y-100460602D01*
X157383501Y-100400264D01*
X157383489Y-100400261D01*
X157228845Y-100369500D01*
X157228842Y-100369500D01*
X157071158Y-100369500D01*
X157071155Y-100369500D01*
X156916510Y-100400261D01*
X156916498Y-100400264D01*
X156770827Y-100460602D01*
X156770814Y-100460609D01*
X156639711Y-100548210D01*
X156639707Y-100548213D01*
X156528213Y-100659707D01*
X156528210Y-100659711D01*
X156440609Y-100790814D01*
X156440602Y-100790827D01*
X156380264Y-100936498D01*
X156380261Y-100936510D01*
X156349500Y-101091153D01*
X156349500Y-101248846D01*
X156380261Y-101403489D01*
X156380264Y-101403501D01*
X156440602Y-101549172D01*
X156440609Y-101549185D01*
X156528210Y-101680288D01*
X156528213Y-101680292D01*
X156571661Y-101723740D01*
X156605146Y-101785063D01*
X156600162Y-101854755D01*
X156571661Y-101899102D01*
X156231183Y-102239580D01*
X156169860Y-102273065D01*
X156119312Y-102273517D01*
X156048842Y-102259500D01*
X155891158Y-102259500D01*
X155891155Y-102259500D01*
X155736510Y-102290261D01*
X155736498Y-102290264D01*
X155590827Y-102350602D01*
X155590814Y-102350609D01*
X155459711Y-102438210D01*
X155459707Y-102438213D01*
X155348213Y-102549707D01*
X155348210Y-102549711D01*
X155260609Y-102680814D01*
X155260602Y-102680827D01*
X155200264Y-102826498D01*
X155200261Y-102826510D01*
X155169500Y-102981153D01*
X127950500Y-102981153D01*
X127950500Y-101600326D01*
X152457069Y-101600326D01*
X152457069Y-101732110D01*
X152471258Y-101785063D01*
X152491177Y-101859405D01*
X152514097Y-101899102D01*
X152557069Y-101973532D01*
X152650255Y-102066718D01*
X152764383Y-102132610D01*
X152891677Y-102166718D01*
X152891679Y-102166718D01*
X153023459Y-102166718D01*
X153023461Y-102166718D01*
X153150755Y-102132610D01*
X153264883Y-102066718D01*
X153358069Y-101973532D01*
X153423961Y-101859404D01*
X153458069Y-101732110D01*
X153458069Y-101600326D01*
X153423961Y-101473032D01*
X153422154Y-101469903D01*
X153393495Y-101420264D01*
X153358069Y-101358904D01*
X153264883Y-101265718D01*
X153178080Y-101215602D01*
X153150756Y-101199826D01*
X153087108Y-101182772D01*
X153023461Y-101165718D01*
X152891677Y-101165718D01*
X152764381Y-101199826D01*
X152650255Y-101265718D01*
X152650252Y-101265720D01*
X152557071Y-101358901D01*
X152557069Y-101358904D01*
X152491177Y-101473030D01*
X152457641Y-101598190D01*
X152457069Y-101600326D01*
X127950500Y-101600326D01*
X127950500Y-91121153D01*
X145503500Y-91121153D01*
X145503500Y-91278846D01*
X145534261Y-91433489D01*
X145534264Y-91433501D01*
X145594602Y-91579172D01*
X145594609Y-91579185D01*
X145682210Y-91710288D01*
X145682213Y-91710292D01*
X145793707Y-91821786D01*
X145793711Y-91821789D01*
X145924814Y-91909390D01*
X145924827Y-91909397D01*
X146023558Y-91950292D01*
X146070503Y-91969737D01*
X146225153Y-92000499D01*
X146225156Y-92000500D01*
X146225158Y-92000500D01*
X146382844Y-92000500D01*
X146382845Y-92000499D01*
X146537497Y-91969737D01*
X146646886Y-91924427D01*
X146681864Y-91909939D01*
X146729316Y-91900500D01*
X147783481Y-91900500D01*
X147850520Y-91920185D01*
X147871162Y-91936819D01*
X150034105Y-94099762D01*
X150060985Y-94139990D01*
X150103104Y-94241676D01*
X150103109Y-94241685D01*
X150190710Y-94372788D01*
X150190713Y-94372792D01*
X150302207Y-94484286D01*
X150302211Y-94484289D01*
X150433314Y-94571890D01*
X150433327Y-94571897D01*
X150578998Y-94632235D01*
X150579003Y-94632237D01*
X150733653Y-94662999D01*
X150733656Y-94663000D01*
X150733658Y-94663000D01*
X150891344Y-94663000D01*
X150891345Y-94662999D01*
X151045997Y-94632237D01*
X151191679Y-94571894D01*
X151322789Y-94484289D01*
X151434289Y-94372789D01*
X151521894Y-94241679D01*
X151526624Y-94230261D01*
X151563620Y-94140943D01*
X151582237Y-94095997D01*
X151613000Y-93941342D01*
X151613000Y-93783658D01*
X151613000Y-93783655D01*
X151612999Y-93783653D01*
X151599061Y-93713583D01*
X151582237Y-93629003D01*
X151562313Y-93580902D01*
X151521897Y-93483327D01*
X151521890Y-93483314D01*
X151434289Y-93352211D01*
X151434286Y-93352207D01*
X151322792Y-93240713D01*
X151322788Y-93240710D01*
X151191685Y-93153109D01*
X151191672Y-93153102D01*
X151045999Y-93092763D01*
X151045990Y-93092760D01*
X151035981Y-93090770D01*
X150974070Y-93058385D01*
X150972491Y-93056834D01*
X148571546Y-90655888D01*
X148571545Y-90655887D01*
X148456807Y-90579222D01*
X148329332Y-90526421D01*
X148329322Y-90526418D01*
X148193996Y-90499500D01*
X148193994Y-90499500D01*
X148193993Y-90499500D01*
X146729316Y-90499500D01*
X146681864Y-90490061D01*
X146537501Y-90430264D01*
X146537489Y-90430261D01*
X146382845Y-90399500D01*
X146382842Y-90399500D01*
X146225158Y-90399500D01*
X146225155Y-90399500D01*
X146070510Y-90430261D01*
X146070498Y-90430264D01*
X145924827Y-90490602D01*
X145924814Y-90490609D01*
X145793711Y-90578210D01*
X145793707Y-90578213D01*
X145682213Y-90689707D01*
X145682210Y-90689711D01*
X145594609Y-90820814D01*
X145594602Y-90820827D01*
X145534264Y-90966498D01*
X145534261Y-90966510D01*
X145503500Y-91121153D01*
X127950500Y-91121153D01*
X127950500Y-87870102D01*
X127950501Y-87870099D01*
X127950500Y-87810292D01*
X127951097Y-87798143D01*
X127958899Y-87718914D01*
X127963641Y-87695073D01*
X127968884Y-87677787D01*
X127984976Y-87624737D01*
X127994270Y-87602296D01*
X128028926Y-87537458D01*
X128042421Y-87517261D01*
X128092885Y-87455769D01*
X128101037Y-87446775D01*
X129506672Y-86041140D01*
X129515673Y-86032982D01*
X129577248Y-85982455D01*
X129597455Y-85968956D01*
X129662283Y-85934309D01*
X129684728Y-85925014D01*
X129737453Y-85909022D01*
X129755072Y-85903679D01*
X129778908Y-85898938D01*
X129821815Y-85894713D01*
X129858542Y-85891097D01*
X129870690Y-85890500D01*
X129930099Y-85890501D01*
X129930103Y-85890500D01*
X138221566Y-85890500D01*
X138287465Y-85890500D01*
X138295849Y-85890500D01*
X138296133Y-85890480D01*
X138361991Y-85890482D01*
X138641075Y-85859040D01*
X138641082Y-85859038D01*
X138641091Y-85859037D01*
X138873872Y-85805909D01*
X138914884Y-85796549D01*
X139179974Y-85703793D01*
X139433012Y-85581940D01*
X139670815Y-85432522D01*
X139890394Y-85257417D01*
X139943096Y-85204715D01*
X139943101Y-85204713D01*
X139989691Y-85158123D01*
X140036284Y-85111531D01*
X140036284Y-85111529D01*
X140046489Y-85101325D01*
X140046493Y-85101320D01*
X142795241Y-82352571D01*
X142801133Y-82347052D01*
X142939483Y-82225725D01*
X142952334Y-82215864D01*
X142992817Y-82188815D01*
X143059493Y-82167939D01*
X143126873Y-82186424D01*
X143173562Y-82238403D01*
X143184738Y-82307374D01*
X143162024Y-82364803D01*
X143054949Y-82512181D01*
X142958443Y-82701585D01*
X142892752Y-82903760D01*
X142859499Y-83113713D01*
X142859499Y-83326286D01*
X142873524Y-83414840D01*
X142892753Y-83536243D01*
X142941697Y-83686877D01*
X142958443Y-83738414D01*
X143054950Y-83927820D01*
X143179889Y-84099786D01*
X143330212Y-84250109D01*
X143502178Y-84375048D01*
X143502180Y-84375049D01*
X143502183Y-84375051D01*
X143691587Y-84471557D01*
X143893756Y-84537246D01*
X144103712Y-84570500D01*
X144103713Y-84570500D01*
X144316285Y-84570500D01*
X144316286Y-84570500D01*
X144526242Y-84537246D01*
X144728411Y-84471557D01*
X144917815Y-84375051D01*
X145004137Y-84312335D01*
X145089785Y-84250109D01*
X145089787Y-84250106D01*
X145089791Y-84250104D01*
X145240103Y-84099792D01*
X145240105Y-84099788D01*
X145240108Y-84099786D01*
X145365047Y-83927821D01*
X145365050Y-83927816D01*
X145369512Y-83919056D01*
X145417483Y-83868260D01*
X145485303Y-83851462D01*
X145551439Y-83873996D01*
X145590483Y-83919052D01*
X145594949Y-83927817D01*
X145719890Y-84099786D01*
X145870213Y-84250109D01*
X146042179Y-84375048D01*
X146042181Y-84375049D01*
X146042184Y-84375051D01*
X146231588Y-84471557D01*
X146433757Y-84537246D01*
X146643713Y-84570500D01*
X146643714Y-84570500D01*
X146856286Y-84570500D01*
X146856287Y-84570500D01*
X147066243Y-84537246D01*
X147268412Y-84471557D01*
X147457816Y-84375051D01*
X147544138Y-84312335D01*
X147629786Y-84250109D01*
X147629788Y-84250106D01*
X147629792Y-84250104D01*
X147780104Y-84099792D01*
X147780106Y-84099788D01*
X147780109Y-84099786D01*
X147905048Y-83927820D01*
X147905050Y-83927817D01*
X147905051Y-83927816D01*
X147909512Y-83919058D01*
X147957483Y-83868262D01*
X148025303Y-83851464D01*
X148091440Y-83873998D01*
X148130483Y-83919054D01*
X148134948Y-83927817D01*
X148259889Y-84099786D01*
X148259895Y-84099792D01*
X148410207Y-84250104D01*
X148582183Y-84375051D01*
X148582187Y-84375053D01*
X148586125Y-84377914D01*
X148585156Y-84379247D01*
X148627209Y-84425740D01*
X148638623Y-84494671D01*
X148610958Y-84558830D01*
X148603218Y-84567322D01*
X147354299Y-85816241D01*
X147292976Y-85849726D01*
X147228300Y-85846491D01*
X147186022Y-85832754D01*
X147046049Y-85810584D01*
X146976064Y-85799500D01*
X146763490Y-85799500D01*
X146714819Y-85807208D01*
X146553537Y-85832753D01*
X146472644Y-85859037D01*
X146375873Y-85890480D01*
X146351362Y-85898444D01*
X146161956Y-85994951D01*
X145989990Y-86119890D01*
X145839667Y-86270213D01*
X145714726Y-86442182D01*
X145710261Y-86450946D01*
X145662286Y-86501742D01*
X145594465Y-86518536D01*
X145528330Y-86495998D01*
X145489293Y-86450946D01*
X145484827Y-86442182D01*
X145359886Y-86270213D01*
X145209563Y-86119890D01*
X145037597Y-85994951D01*
X144848191Y-85898444D01*
X144848190Y-85898443D01*
X144848189Y-85898443D01*
X144646020Y-85832754D01*
X144646018Y-85832753D01*
X144646017Y-85832753D01*
X144484734Y-85807208D01*
X144436064Y-85799500D01*
X144223490Y-85799500D01*
X144174819Y-85807208D01*
X144013537Y-85832753D01*
X143932644Y-85859037D01*
X143835873Y-85890480D01*
X143811362Y-85898444D01*
X143621956Y-85994951D01*
X143449990Y-86119890D01*
X143299667Y-86270213D01*
X143174728Y-86442179D01*
X143078221Y-86631585D01*
X143012530Y-86833760D01*
X142979277Y-87043713D01*
X142979277Y-87256286D01*
X143010128Y-87451076D01*
X143012531Y-87466243D01*
X143060233Y-87613055D01*
X143078221Y-87668414D01*
X143174728Y-87857820D01*
X143299667Y-88029786D01*
X143449990Y-88180109D01*
X143621956Y-88305048D01*
X143621958Y-88305049D01*
X143621961Y-88305051D01*
X143811365Y-88401557D01*
X144013534Y-88467246D01*
X144223490Y-88500500D01*
X144223491Y-88500500D01*
X144436063Y-88500500D01*
X144436064Y-88500500D01*
X144646020Y-88467246D01*
X144848189Y-88401557D01*
X145037593Y-88305051D01*
X145123915Y-88242335D01*
X145209563Y-88180109D01*
X145209565Y-88180106D01*
X145209569Y-88180104D01*
X145359881Y-88029792D01*
X145359883Y-88029788D01*
X145359886Y-88029786D01*
X145484825Y-87857820D01*
X145484824Y-87857820D01*
X145484828Y-87857816D01*
X145489291Y-87849054D01*
X145537265Y-87798259D01*
X145605085Y-87781463D01*
X145671221Y-87803999D01*
X145710261Y-87849054D01*
X145714368Y-87857115D01*
X145714728Y-87857820D01*
X145839667Y-88029786D01*
X145989990Y-88180109D01*
X146161956Y-88305048D01*
X146161958Y-88305049D01*
X146161961Y-88305051D01*
X146351365Y-88401557D01*
X146553534Y-88467246D01*
X146763490Y-88500500D01*
X146763491Y-88500500D01*
X146976062Y-88500500D01*
X146976064Y-88500500D01*
X147108072Y-88479591D01*
X147177361Y-88488545D01*
X147215148Y-88514383D01*
X154916583Y-96215819D01*
X154950068Y-96277142D01*
X154945084Y-96346834D01*
X154903212Y-96402767D01*
X154837748Y-96427184D01*
X154828902Y-96427500D01*
X145689697Y-96427500D01*
X145622658Y-96407815D01*
X145602016Y-96391181D01*
X145369190Y-96158355D01*
X145369188Y-96158352D01*
X145250317Y-96039481D01*
X145250316Y-96039480D01*
X145163504Y-95989360D01*
X145163504Y-95989359D01*
X145163500Y-95989358D01*
X145113385Y-95960423D01*
X144960657Y-95919499D01*
X144802543Y-95919499D01*
X144794947Y-95919499D01*
X144794931Y-95919500D01*
X144329766Y-95919500D01*
X144262727Y-95899815D01*
X144260875Y-95898602D01*
X144129185Y-95810609D01*
X144129172Y-95810602D01*
X143983501Y-95750264D01*
X143983489Y-95750261D01*
X143828845Y-95719500D01*
X143828842Y-95719500D01*
X143671158Y-95719500D01*
X143671155Y-95719500D01*
X143516510Y-95750261D01*
X143516498Y-95750264D01*
X143370827Y-95810602D01*
X143370814Y-95810609D01*
X143288375Y-95865694D01*
X143221697Y-95886572D01*
X143154317Y-95868087D01*
X143116382Y-95831482D01*
X143081792Y-95779715D01*
X143081786Y-95779707D01*
X142970292Y-95668213D01*
X142970288Y-95668210D01*
X142839185Y-95580609D01*
X142839172Y-95580602D01*
X142693501Y-95520264D01*
X142693489Y-95520261D01*
X142538845Y-95489500D01*
X142538842Y-95489500D01*
X142381158Y-95489500D01*
X142381155Y-95489500D01*
X142226510Y-95520261D01*
X142226498Y-95520264D01*
X142080827Y-95580602D01*
X142080814Y-95580609D01*
X141949711Y-95668210D01*
X141949707Y-95668213D01*
X141838213Y-95779707D01*
X141838210Y-95779711D01*
X141750609Y-95910814D01*
X141750604Y-95910824D01*
X141704305Y-96022600D01*
X141683717Y-96048147D01*
X141664054Y-96074414D01*
X141661904Y-96075215D01*
X141660464Y-96077003D01*
X141629333Y-96087364D01*
X141598590Y-96098831D01*
X141596347Y-96098343D01*
X141594169Y-96099068D01*
X141562367Y-96090951D01*
X141530317Y-96083979D01*
X141527868Y-96082145D01*
X141526470Y-96081789D01*
X141502063Y-96062828D01*
X141434574Y-95995339D01*
X141401089Y-95934016D01*
X141400638Y-95931849D01*
X141376521Y-95810609D01*
X141369737Y-95776503D01*
X141353653Y-95737672D01*
X141309397Y-95630827D01*
X141309390Y-95630814D01*
X141221789Y-95499711D01*
X141221786Y-95499707D01*
X141110292Y-95388213D01*
X141110288Y-95388210D01*
X140979185Y-95300609D01*
X140979172Y-95300602D01*
X140833501Y-95240264D01*
X140833489Y-95240261D01*
X140678845Y-95209500D01*
X140678842Y-95209500D01*
X140521158Y-95209500D01*
X140521155Y-95209500D01*
X140366510Y-95240261D01*
X140366498Y-95240264D01*
X140220827Y-95300602D01*
X140220814Y-95300609D01*
X140089711Y-95388210D01*
X140089707Y-95388213D01*
X139978213Y-95499707D01*
X139978210Y-95499711D01*
X139890609Y-95630814D01*
X139890602Y-95630827D01*
X139830264Y-95776498D01*
X139830261Y-95776510D01*
X139799500Y-95931153D01*
X139799500Y-96088846D01*
X139830261Y-96243489D01*
X139830264Y-96243501D01*
X139890602Y-96389172D01*
X139890609Y-96389185D01*
X139978210Y-96520288D01*
X139978213Y-96520292D01*
X140089707Y-96631786D01*
X140089711Y-96631789D01*
X140220814Y-96719390D01*
X140220827Y-96719397D01*
X140366498Y-96779735D01*
X140366503Y-96779737D01*
X140431147Y-96792595D01*
X140521849Y-96810638D01*
X140583760Y-96843023D01*
X140585339Y-96844574D01*
X142725139Y-98984374D01*
X142725149Y-98984385D01*
X142729479Y-98988715D01*
X142729480Y-98988716D01*
X142841284Y-99100520D01*
X142841286Y-99100521D01*
X142841290Y-99100524D01*
X142978209Y-99179573D01*
X142978216Y-99179577D01*
X143090019Y-99209534D01*
X143130942Y-99220500D01*
X143130943Y-99220500D01*
X144963331Y-99220500D01*
X144963347Y-99220501D01*
X144970943Y-99220501D01*
X145129054Y-99220501D01*
X145129057Y-99220501D01*
X145281785Y-99179577D01*
X145366021Y-99130943D01*
X145392919Y-99115414D01*
X145418709Y-99100524D01*
X145418708Y-99100524D01*
X145418716Y-99100520D01*
X145530520Y-98988716D01*
X145530520Y-98988715D01*
X145532417Y-98986819D01*
X145593740Y-98953334D01*
X145620098Y-98950500D01*
X151280234Y-98950500D01*
X151347273Y-98970185D01*
X151349125Y-98971398D01*
X151480814Y-99059390D01*
X151480827Y-99059397D01*
X151616066Y-99115414D01*
X151626503Y-99119737D01*
X151781153Y-99150499D01*
X151781156Y-99150500D01*
X151781158Y-99150500D01*
X151938844Y-99150500D01*
X151938845Y-99150499D01*
X152093497Y-99119737D01*
X152239179Y-99059394D01*
X152370289Y-98971789D01*
X152481789Y-98860289D01*
X152569394Y-98729179D01*
X152629737Y-98583497D01*
X152660500Y-98428842D01*
X152660500Y-98314500D01*
X152680185Y-98247461D01*
X152732989Y-98201706D01*
X152784500Y-98190500D01*
X155199903Y-98190500D01*
X155266942Y-98210185D01*
X155287584Y-98226819D01*
X156635139Y-99574374D01*
X156635149Y-99574385D01*
X156639479Y-99578715D01*
X156639480Y-99578716D01*
X156751284Y-99690520D01*
X156821890Y-99731284D01*
X156888215Y-99769577D01*
X157040943Y-99810501D01*
X157040946Y-99810501D01*
X157206653Y-99810501D01*
X157206669Y-99810500D01*
X159999903Y-99810500D01*
X160066942Y-99830185D01*
X160087583Y-99846818D01*
X161050154Y-100809390D01*
X161978349Y-101737585D01*
X161978355Y-101737590D01*
X163845139Y-103604374D01*
X163845149Y-103604385D01*
X163849479Y-103608715D01*
X163849480Y-103608716D01*
X163961284Y-103720520D01*
X164045937Y-103769394D01*
X164045938Y-103769395D01*
X164098209Y-103799574D01*
X164098210Y-103799575D01*
X164098212Y-103799575D01*
X164098215Y-103799577D01*
X164250943Y-103840501D01*
X164250946Y-103840501D01*
X164416653Y-103840501D01*
X164416669Y-103840500D01*
X169350234Y-103840500D01*
X169417273Y-103860185D01*
X169419125Y-103861398D01*
X169550814Y-103949390D01*
X169550827Y-103949397D01*
X169696498Y-104009735D01*
X169696503Y-104009737D01*
X169851153Y-104040499D01*
X169851156Y-104040500D01*
X169851158Y-104040500D01*
X170008844Y-104040500D01*
X170008845Y-104040499D01*
X170163497Y-104009737D01*
X170309179Y-103949394D01*
X170440289Y-103861789D01*
X170551789Y-103750289D01*
X170577251Y-103712182D01*
X170592398Y-103689514D01*
X170646010Y-103644709D01*
X170715335Y-103636002D01*
X170778363Y-103666156D01*
X170815082Y-103725600D01*
X170819500Y-103758405D01*
X170819500Y-111123541D01*
X170799815Y-111190580D01*
X170747011Y-111236335D01*
X170690540Y-111247442D01*
X170680831Y-111247053D01*
X170639842Y-111238900D01*
X170482158Y-111238900D01*
X170481321Y-111239066D01*
X170474694Y-111238801D01*
X170443842Y-111228384D01*
X170412615Y-111219215D01*
X170410932Y-111217272D01*
X170408495Y-111216450D01*
X170388166Y-111190999D01*
X170366860Y-111166411D01*
X170366494Y-111163867D01*
X170364889Y-111161858D01*
X170361547Y-111129465D01*
X170356916Y-111097253D01*
X170357732Y-111092482D01*
X170357720Y-111092357D01*
X170357772Y-111092253D01*
X170358037Y-111090708D01*
X170370900Y-111026044D01*
X170370900Y-110868355D01*
X170370899Y-110868353D01*
X170356473Y-110795828D01*
X170340137Y-110713703D01*
X170340135Y-110713698D01*
X170279797Y-110568027D01*
X170279790Y-110568014D01*
X170192189Y-110436911D01*
X170192186Y-110436907D01*
X170080692Y-110325413D01*
X170080688Y-110325410D01*
X170003884Y-110274091D01*
X169959079Y-110220479D01*
X169950372Y-110151154D01*
X169980527Y-110088126D01*
X170003884Y-110067887D01*
X170041928Y-110042466D01*
X170110289Y-109996789D01*
X170221789Y-109885289D01*
X170309394Y-109754179D01*
X170369737Y-109608497D01*
X170400500Y-109453842D01*
X170400500Y-109296158D01*
X170400500Y-109296155D01*
X170400499Y-109296153D01*
X170369738Y-109141510D01*
X170369737Y-109141503D01*
X170313728Y-109006284D01*
X170309397Y-108995827D01*
X170309390Y-108995814D01*
X170221789Y-108864711D01*
X170221786Y-108864707D01*
X170110292Y-108753213D01*
X170110288Y-108753210D01*
X169979185Y-108665609D01*
X169979172Y-108665602D01*
X169833501Y-108605264D01*
X169833489Y-108605261D01*
X169678845Y-108574500D01*
X169678842Y-108574500D01*
X169521158Y-108574500D01*
X169521155Y-108574500D01*
X169366510Y-108605261D01*
X169366498Y-108605264D01*
X169220827Y-108665602D01*
X169220814Y-108665609D01*
X169089125Y-108753602D01*
X169022447Y-108774480D01*
X169020234Y-108774500D01*
X151836669Y-108774500D01*
X151836653Y-108774499D01*
X151829057Y-108774499D01*
X151670943Y-108774499D01*
X151556397Y-108805192D01*
X151518214Y-108815423D01*
X151497594Y-108827328D01*
X151492067Y-108830520D01*
X151463888Y-108846789D01*
X151381285Y-108894479D01*
X151381282Y-108894481D01*
X148935339Y-111340425D01*
X148918744Y-111349486D01*
X148905136Y-111362618D01*
X148875633Y-111373026D01*
X148874016Y-111373910D01*
X148871852Y-111374361D01*
X148848694Y-111378968D01*
X148779102Y-111372742D01*
X148723924Y-111329880D01*
X148700678Y-111263991D01*
X148700500Y-111257351D01*
X148700500Y-107379765D01*
X148720185Y-107312726D01*
X148721398Y-107310874D01*
X148781347Y-107221155D01*
X148781348Y-107221153D01*
X156499500Y-107221153D01*
X156499500Y-107378846D01*
X156530261Y-107533489D01*
X156530264Y-107533501D01*
X156590602Y-107679172D01*
X156590609Y-107679185D01*
X156678210Y-107810288D01*
X156678213Y-107810292D01*
X156789707Y-107921786D01*
X156789711Y-107921789D01*
X156920814Y-108009390D01*
X156920827Y-108009397D01*
X157066498Y-108069735D01*
X157066503Y-108069737D01*
X157221153Y-108100499D01*
X157221156Y-108100500D01*
X157221158Y-108100500D01*
X157378844Y-108100500D01*
X157378845Y-108100499D01*
X157533497Y-108069737D01*
X157679179Y-108009394D01*
X157810289Y-107921789D01*
X157921789Y-107810289D01*
X158009394Y-107679179D01*
X158069737Y-107533497D01*
X158100500Y-107378842D01*
X158100500Y-107221158D01*
X158100500Y-107221155D01*
X158100499Y-107221153D01*
X158069738Y-107066510D01*
X158069737Y-107066503D01*
X158056062Y-107033489D01*
X158009397Y-106920827D01*
X158009390Y-106920814D01*
X157921398Y-106789125D01*
X157900520Y-106722447D01*
X157900500Y-106720234D01*
X157900500Y-104575097D01*
X157920185Y-104508058D01*
X157936819Y-104487416D01*
X158788233Y-103636002D01*
X159664662Y-102759572D01*
X159725983Y-102726089D01*
X159728150Y-102725638D01*
X159786085Y-102714113D01*
X159883497Y-102694737D01*
X160029179Y-102634394D01*
X160160289Y-102546789D01*
X160271789Y-102435289D01*
X160359394Y-102304179D01*
X160419737Y-102158497D01*
X160450500Y-102003842D01*
X160450500Y-101846158D01*
X160450500Y-101846155D01*
X160450499Y-101846153D01*
X160443471Y-101810821D01*
X160419737Y-101691503D01*
X160419735Y-101691498D01*
X160359397Y-101545827D01*
X160359390Y-101545814D01*
X160271789Y-101414711D01*
X160271786Y-101414707D01*
X160160292Y-101303213D01*
X160160288Y-101303210D01*
X160029185Y-101215609D01*
X160029172Y-101215602D01*
X159883501Y-101155264D01*
X159883489Y-101155261D01*
X159728845Y-101124500D01*
X159728842Y-101124500D01*
X159571158Y-101124500D01*
X159571155Y-101124500D01*
X159416510Y-101155261D01*
X159416498Y-101155264D01*
X159270827Y-101215602D01*
X159270814Y-101215609D01*
X159139711Y-101303210D01*
X159139707Y-101303213D01*
X159028213Y-101414707D01*
X159028210Y-101414711D01*
X158940609Y-101545814D01*
X158940602Y-101545827D01*
X158880264Y-101691498D01*
X158880261Y-101691508D01*
X158849361Y-101846850D01*
X158816976Y-101908761D01*
X158815425Y-101910339D01*
X156819481Y-103906282D01*
X156819475Y-103906290D01*
X156782405Y-103970499D01*
X156782405Y-103970500D01*
X156759753Y-104009735D01*
X156741991Y-104040500D01*
X156740423Y-104043215D01*
X156699499Y-104195943D01*
X156699499Y-104195945D01*
X156699499Y-104364046D01*
X156699500Y-104364059D01*
X156699500Y-106720234D01*
X156679815Y-106787273D01*
X156678602Y-106789125D01*
X156590609Y-106920814D01*
X156590602Y-106920827D01*
X156530264Y-107066498D01*
X156530261Y-107066510D01*
X156499500Y-107221153D01*
X148781348Y-107221153D01*
X148809394Y-107179179D01*
X148869737Y-107033497D01*
X148900500Y-106878842D01*
X148900500Y-106721158D01*
X148900500Y-106721155D01*
X148900499Y-106721153D01*
X148869738Y-106566510D01*
X148869737Y-106566503D01*
X148869735Y-106566498D01*
X148809397Y-106420827D01*
X148809390Y-106420814D01*
X148721789Y-106289711D01*
X148721786Y-106289707D01*
X148610292Y-106178213D01*
X148610288Y-106178210D01*
X148479185Y-106090609D01*
X148479172Y-106090602D01*
X148333501Y-106030264D01*
X148333489Y-106030261D01*
X148178845Y-105999500D01*
X148178842Y-105999500D01*
X148021158Y-105999500D01*
X148021155Y-105999500D01*
X147866510Y-106030261D01*
X147866498Y-106030264D01*
X147720827Y-106090602D01*
X147720814Y-106090609D01*
X147589711Y-106178210D01*
X147589707Y-106178213D01*
X147478213Y-106289707D01*
X147478210Y-106289711D01*
X147390609Y-106420814D01*
X147390602Y-106420827D01*
X147330264Y-106566498D01*
X147330261Y-106566510D01*
X147299500Y-106721153D01*
X147299500Y-106878846D01*
X147330261Y-107033489D01*
X147330264Y-107033501D01*
X147390602Y-107179172D01*
X147390609Y-107179185D01*
X147478602Y-107310874D01*
X147499480Y-107377551D01*
X147499500Y-107379765D01*
X147499500Y-111299903D01*
X147479815Y-111366942D01*
X147463181Y-111387584D01*
X145362181Y-113488584D01*
X145300858Y-113522069D01*
X145231166Y-113517085D01*
X145175233Y-113475213D01*
X145150816Y-113409749D01*
X145150500Y-113400903D01*
X145150500Y-113032790D01*
X145170185Y-112965751D01*
X145222989Y-112919996D01*
X145231146Y-112916616D01*
X145292331Y-112893796D01*
X145407546Y-112807546D01*
X145493796Y-112692331D01*
X145544091Y-112557483D01*
X145550500Y-112497873D01*
X145550499Y-111402128D01*
X145544091Y-111342517D01*
X145521434Y-111281771D01*
X145493797Y-111207671D01*
X145493793Y-111207664D01*
X145407547Y-111092455D01*
X145407544Y-111092452D01*
X145292335Y-111006206D01*
X145292328Y-111006202D01*
X145157482Y-110955908D01*
X145157483Y-110955908D01*
X145097883Y-110949501D01*
X145097881Y-110949500D01*
X145097873Y-110949500D01*
X145097864Y-110949500D01*
X144002129Y-110949500D01*
X144002123Y-110949501D01*
X143942516Y-110955908D01*
X143807671Y-111006202D01*
X143807664Y-111006206D01*
X143692455Y-111092452D01*
X143692452Y-111092455D01*
X143606206Y-111207664D01*
X143606202Y-111207671D01*
X143555908Y-111342517D01*
X143549501Y-111402116D01*
X143549501Y-111402123D01*
X143549500Y-111402135D01*
X143549500Y-112497870D01*
X143549501Y-112497876D01*
X143555908Y-112557483D01*
X143606202Y-112692328D01*
X143606206Y-112692335D01*
X143692452Y-112807544D01*
X143692455Y-112807547D01*
X143807664Y-112893793D01*
X143807669Y-112893796D01*
X143868833Y-112916608D01*
X143924766Y-112958478D01*
X143949184Y-113023942D01*
X143949500Y-113032790D01*
X143949500Y-113762052D01*
X143929815Y-113829091D01*
X143881796Y-113872536D01*
X143818182Y-113904949D01*
X143646213Y-114029890D01*
X143495890Y-114180213D01*
X143370949Y-114352182D01*
X143366484Y-114360946D01*
X143318509Y-114411742D01*
X143250688Y-114428536D01*
X143184553Y-114405998D01*
X143145516Y-114360946D01*
X143141050Y-114352182D01*
X143016109Y-114180213D01*
X142865786Y-114029890D01*
X142693815Y-113904948D01*
X142693814Y-113904947D01*
X142654205Y-113884765D01*
X142603409Y-113836791D01*
X142586500Y-113774281D01*
X142586500Y-113129201D01*
X142606185Y-113062162D01*
X142658989Y-113016407D01*
X142667162Y-113013021D01*
X142763711Y-112977011D01*
X142772326Y-112973798D01*
X142772326Y-112973797D01*
X142772331Y-112973796D01*
X142887546Y-112887546D01*
X142973796Y-112772331D01*
X143024091Y-112637483D01*
X143030500Y-112577873D01*
X143030499Y-111482128D01*
X143024091Y-111422517D01*
X143018863Y-111408501D01*
X142973797Y-111287671D01*
X142973793Y-111287664D01*
X142887547Y-111172455D01*
X142887544Y-111172452D01*
X142772335Y-111086206D01*
X142772328Y-111086202D01*
X142637482Y-111035908D01*
X142637483Y-111035908D01*
X142577883Y-111029501D01*
X142577881Y-111029500D01*
X142577873Y-111029500D01*
X142577864Y-111029500D01*
X141482129Y-111029500D01*
X141482123Y-111029501D01*
X141422516Y-111035908D01*
X141287671Y-111086202D01*
X141287664Y-111086206D01*
X141172455Y-111172452D01*
X141172452Y-111172455D01*
X141086206Y-111287664D01*
X141086202Y-111287671D01*
X141035908Y-111422517D01*
X141030533Y-111472516D01*
X141029501Y-111482123D01*
X141029500Y-111482135D01*
X141029500Y-112577870D01*
X141029501Y-112577876D01*
X141035908Y-112637483D01*
X141086202Y-112772328D01*
X141086206Y-112772335D01*
X141172452Y-112887544D01*
X141172455Y-112887547D01*
X141287666Y-112973794D01*
X141287666Y-112973795D01*
X141287669Y-112973796D01*
X141304831Y-112980197D01*
X141360765Y-113022065D01*
X141385184Y-113087529D01*
X141385500Y-113096379D01*
X141385500Y-113774281D01*
X141365815Y-113841320D01*
X141317795Y-113884765D01*
X141278185Y-113904947D01*
X141278184Y-113904948D01*
X141106213Y-114029890D01*
X140955890Y-114180213D01*
X140830949Y-114352182D01*
X140826484Y-114360946D01*
X140778509Y-114411742D01*
X140710688Y-114428536D01*
X140644553Y-114405998D01*
X140605516Y-114360946D01*
X140601050Y-114352182D01*
X140476109Y-114180213D01*
X140325786Y-114029890D01*
X140153819Y-113904950D01*
X140108203Y-113881707D01*
X140057408Y-113833731D01*
X140040500Y-113771223D01*
X140040500Y-113162790D01*
X140060185Y-113095751D01*
X140112989Y-113049996D01*
X140121146Y-113046616D01*
X140182331Y-113023796D01*
X140297546Y-112937546D01*
X140383796Y-112822331D01*
X140434091Y-112687483D01*
X140440500Y-112627873D01*
X140440499Y-111532128D01*
X140434091Y-111472517D01*
X140415442Y-111422517D01*
X140383797Y-111337671D01*
X140383793Y-111337664D01*
X140297547Y-111222455D01*
X140297544Y-111222452D01*
X140182335Y-111136206D01*
X140182328Y-111136202D01*
X140047482Y-111085908D01*
X140047483Y-111085908D01*
X139987883Y-111079501D01*
X139987881Y-111079500D01*
X139987873Y-111079500D01*
X139987864Y-111079500D01*
X138892129Y-111079500D01*
X138892123Y-111079501D01*
X138832516Y-111085908D01*
X138697671Y-111136202D01*
X138697664Y-111136206D01*
X138582455Y-111222452D01*
X138582452Y-111222455D01*
X138496206Y-111337664D01*
X138496202Y-111337671D01*
X138445908Y-111472517D01*
X138439501Y-111532116D01*
X138439501Y-111532123D01*
X138439500Y-111532135D01*
X138439500Y-112627870D01*
X138439501Y-112627876D01*
X138445908Y-112687483D01*
X138496202Y-112822328D01*
X138496206Y-112822335D01*
X138582452Y-112937544D01*
X138582455Y-112937547D01*
X138697664Y-113023793D01*
X138697669Y-113023796D01*
X138758833Y-113046608D01*
X138814766Y-113088478D01*
X138839184Y-113153942D01*
X138839500Y-113162790D01*
X138839500Y-113777338D01*
X138819815Y-113844377D01*
X138771796Y-113887822D01*
X138738182Y-113904949D01*
X138566215Y-114029889D01*
X138452673Y-114143431D01*
X138391350Y-114176915D01*
X138321658Y-114171931D01*
X138265725Y-114130059D01*
X138248810Y-114099082D01*
X138199797Y-113967671D01*
X138199793Y-113967664D01*
X138113547Y-113852455D01*
X138113544Y-113852452D01*
X137998335Y-113766206D01*
X137998328Y-113766202D01*
X137863482Y-113715908D01*
X137863483Y-113715908D01*
X137803883Y-113709501D01*
X137803881Y-113709500D01*
X137803873Y-113709500D01*
X137803865Y-113709500D01*
X137504500Y-113709500D01*
X137437461Y-113689815D01*
X137391706Y-113637011D01*
X137380500Y-113585500D01*
X137380500Y-113112790D01*
X137400185Y-113045751D01*
X137452989Y-112999996D01*
X137461146Y-112996616D01*
X137522331Y-112973796D01*
X137637546Y-112887546D01*
X137723796Y-112772331D01*
X137774091Y-112637483D01*
X137780500Y-112577873D01*
X137780499Y-111482128D01*
X137774091Y-111422517D01*
X137768863Y-111408501D01*
X137723797Y-111287671D01*
X137723793Y-111287664D01*
X137637547Y-111172455D01*
X137637544Y-111172452D01*
X137522335Y-111086206D01*
X137522328Y-111086202D01*
X137387482Y-111035908D01*
X137387483Y-111035908D01*
X137327883Y-111029501D01*
X137327881Y-111029500D01*
X137327873Y-111029500D01*
X137327864Y-111029500D01*
X136232129Y-111029500D01*
X136232123Y-111029501D01*
X136172516Y-111035908D01*
X136037671Y-111086202D01*
X136037664Y-111086206D01*
X135922455Y-111172452D01*
X135922452Y-111172455D01*
X135836206Y-111287664D01*
X135836202Y-111287671D01*
X135785908Y-111422517D01*
X135780533Y-111472516D01*
X135779501Y-111482123D01*
X135779500Y-111482135D01*
X135779500Y-112577870D01*
X135779501Y-112577876D01*
X135785908Y-112637483D01*
X135836202Y-112772328D01*
X135836206Y-112772335D01*
X135922452Y-112887544D01*
X135922455Y-112887547D01*
X136037664Y-112973793D01*
X136037669Y-112973796D01*
X136098833Y-112996608D01*
X136154766Y-113038478D01*
X136179184Y-113103942D01*
X136179500Y-113112790D01*
X136179500Y-113585500D01*
X136159815Y-113652539D01*
X136107011Y-113698294D01*
X136055502Y-113709500D01*
X136008131Y-113709500D01*
X136008123Y-113709501D01*
X135948516Y-113715908D01*
X135813671Y-113766202D01*
X135813664Y-113766206D01*
X135698455Y-113852452D01*
X135698452Y-113852455D01*
X135612206Y-113967664D01*
X135612202Y-113967671D01*
X135561908Y-114102517D01*
X135555501Y-114162116D01*
X135555500Y-114162135D01*
X135555500Y-115957870D01*
X135555501Y-115957876D01*
X135561908Y-116017483D01*
X135612202Y-116152328D01*
X135612206Y-116152335D01*
X135698452Y-116267544D01*
X135698455Y-116267547D01*
X135813664Y-116353793D01*
X135813671Y-116353797D01*
X135831726Y-116360531D01*
X135948517Y-116404091D01*
X136008127Y-116410500D01*
X136181500Y-116410499D01*
X136248539Y-116430183D01*
X136294294Y-116482987D01*
X136305500Y-116534499D01*
X136305500Y-116944330D01*
X136305499Y-116944348D01*
X136305499Y-117110054D01*
X136305498Y-117110054D01*
X136305499Y-117110057D01*
X136344118Y-117254184D01*
X136346424Y-117262787D01*
X136361943Y-117289666D01*
X136361944Y-117289668D01*
X136425477Y-117399712D01*
X136425481Y-117399717D01*
X136544349Y-117518585D01*
X136544355Y-117518590D01*
X138063584Y-119037819D01*
X138097069Y-119099142D01*
X138092085Y-119168834D01*
X138050213Y-119224767D01*
X137984749Y-119249184D01*
X137975903Y-119249500D01*
X131424499Y-119249500D01*
X131357460Y-119229815D01*
X131311705Y-119177011D01*
X131300499Y-119125500D01*
X131300499Y-118952129D01*
X131300498Y-118952123D01*
X131300497Y-118952116D01*
X131294330Y-118894737D01*
X131294091Y-118892516D01*
X131243797Y-118757671D01*
X131243793Y-118757664D01*
X131157547Y-118642455D01*
X131157544Y-118642452D01*
X131042335Y-118556206D01*
X131042328Y-118556202D01*
X130907482Y-118505908D01*
X130907483Y-118505908D01*
X130847883Y-118499501D01*
X130847881Y-118499500D01*
X130847873Y-118499500D01*
X130847864Y-118499500D01*
X129052129Y-118499500D01*
X129052123Y-118499501D01*
X128992516Y-118505908D01*
X128857671Y-118556202D01*
X128857664Y-118556206D01*
X128742455Y-118642452D01*
X128742452Y-118642455D01*
X128656206Y-118757664D01*
X128656202Y-118757671D01*
X128605908Y-118892517D01*
X128601967Y-118929179D01*
X128599501Y-118952123D01*
X128599500Y-118952135D01*
X128599500Y-120747870D01*
X128599501Y-120747876D01*
X128605908Y-120807483D01*
X128656202Y-120942328D01*
X128656206Y-120942335D01*
X128742452Y-121057544D01*
X128742455Y-121057547D01*
X128857664Y-121143793D01*
X128857671Y-121143797D01*
X128989082Y-121192810D01*
X129045016Y-121234681D01*
X129069433Y-121300145D01*
X129054582Y-121368418D01*
X129033431Y-121396673D01*
X128919889Y-121510215D01*
X128794951Y-121682179D01*
X128698444Y-121871585D01*
X128632753Y-122073760D01*
X128609408Y-122221155D01*
X128599500Y-122283713D01*
X128599500Y-122496287D01*
X128601632Y-122509749D01*
X128630812Y-122693986D01*
X128632754Y-122706243D01*
X128697208Y-122904612D01*
X128698444Y-122908414D01*
X128794951Y-123097820D01*
X128919890Y-123269786D01*
X129070213Y-123420109D01*
X129242179Y-123545048D01*
X129242181Y-123545049D01*
X129242184Y-123545051D01*
X129431588Y-123641557D01*
X129633757Y-123707246D01*
X129843713Y-123740500D01*
X129843714Y-123740500D01*
X130056286Y-123740500D01*
X130056287Y-123740500D01*
X130266243Y-123707246D01*
X130468412Y-123641557D01*
X130657816Y-123545051D01*
X130697116Y-123516498D01*
X130829786Y-123420109D01*
X130829788Y-123420106D01*
X130829792Y-123420104D01*
X130980104Y-123269792D01*
X130980106Y-123269788D01*
X130980109Y-123269786D01*
X131103101Y-123100500D01*
X131105051Y-123097816D01*
X131118764Y-123070903D01*
X131140521Y-123028204D01*
X131188495Y-122977409D01*
X131251005Y-122960500D01*
X140204331Y-122960500D01*
X140204347Y-122960501D01*
X140211943Y-122960501D01*
X140370054Y-122960501D01*
X140370057Y-122960501D01*
X140522785Y-122919577D01*
X140592756Y-122879179D01*
X140659716Y-122840520D01*
X140771520Y-122728716D01*
X140771520Y-122728714D01*
X140781724Y-122718511D01*
X140781727Y-122718506D01*
X141238416Y-122261819D01*
X141299739Y-122228334D01*
X141326097Y-122225500D01*
X148180277Y-122225500D01*
X148247316Y-122245185D01*
X148283379Y-122280609D01*
X148303210Y-122310288D01*
X148303213Y-122310292D01*
X148414707Y-122421786D01*
X148414711Y-122421789D01*
X148545814Y-122509390D01*
X148545827Y-122509397D01*
X148652880Y-122553739D01*
X148691503Y-122569737D01*
X148837642Y-122598806D01*
X148846153Y-122600499D01*
X148846156Y-122600500D01*
X148846158Y-122600500D01*
X149003844Y-122600500D01*
X149003845Y-122600499D01*
X149158497Y-122569737D01*
X149304179Y-122509394D01*
X149304184Y-122509390D01*
X149309546Y-122506525D01*
X149310780Y-122508834D01*
X149366563Y-122491319D01*
X149433958Y-122509749D01*
X149437767Y-122512195D01*
X149545814Y-122584390D01*
X149545827Y-122584397D01*
X149660246Y-122631790D01*
X149691503Y-122644737D01*
X149846153Y-122675499D01*
X149846156Y-122675500D01*
X149846158Y-122675500D01*
X150003844Y-122675500D01*
X150003845Y-122675499D01*
X150158497Y-122644737D01*
X150304179Y-122584394D01*
X150435289Y-122496789D01*
X150546789Y-122385289D01*
X150634394Y-122254179D01*
X150694737Y-122108497D01*
X150725500Y-121953842D01*
X150725500Y-121796158D01*
X150725500Y-121796155D01*
X150725499Y-121796153D01*
X150718208Y-121759500D01*
X150694737Y-121641503D01*
X150681333Y-121609142D01*
X150634397Y-121495827D01*
X150634390Y-121495814D01*
X150546789Y-121364711D01*
X150546786Y-121364707D01*
X150508583Y-121326504D01*
X150490372Y-121299256D01*
X150488642Y-121300256D01*
X150405522Y-121156287D01*
X150405518Y-121156282D01*
X150236916Y-120987680D01*
X150203431Y-120926357D01*
X150208415Y-120856665D01*
X150236916Y-120812318D01*
X151067177Y-119982058D01*
X151937416Y-119111819D01*
X151998739Y-119078334D01*
X152025097Y-119075500D01*
X155299903Y-119075500D01*
X155366942Y-119095185D01*
X155387584Y-119111819D01*
X156440139Y-120164374D01*
X156440149Y-120164385D01*
X156444479Y-120168715D01*
X156444480Y-120168716D01*
X156556284Y-120280520D01*
X156641254Y-120329577D01*
X156641255Y-120329578D01*
X156693209Y-120359574D01*
X156693210Y-120359575D01*
X156693212Y-120359575D01*
X156693215Y-120359577D01*
X156845943Y-120400501D01*
X156845946Y-120400501D01*
X157011653Y-120400501D01*
X157011669Y-120400500D01*
X160863331Y-120400500D01*
X160863347Y-120400501D01*
X160870943Y-120400501D01*
X161029054Y-120400501D01*
X161029057Y-120400501D01*
X161181785Y-120359577D01*
X161181787Y-120359575D01*
X161181789Y-120359575D01*
X161181790Y-120359574D01*
X161233745Y-120329578D01*
X161233746Y-120329577D01*
X161318716Y-120280520D01*
X161430520Y-120168716D01*
X161430520Y-120168714D01*
X161440724Y-120158511D01*
X161440727Y-120158506D01*
X163339041Y-118260193D01*
X163400362Y-118226710D01*
X163470054Y-118231694D01*
X163525987Y-118273566D01*
X163548337Y-118323682D01*
X163555262Y-118358494D01*
X163555264Y-118358501D01*
X163615602Y-118504172D01*
X163615609Y-118504185D01*
X163703210Y-118635288D01*
X163703213Y-118635292D01*
X163814707Y-118746786D01*
X163814711Y-118746789D01*
X163945814Y-118834390D01*
X163945827Y-118834397D01*
X164086141Y-118892516D01*
X164091503Y-118894737D01*
X164156147Y-118907595D01*
X164246849Y-118925638D01*
X164308760Y-118958023D01*
X164310339Y-118959574D01*
X164563181Y-119212416D01*
X164596666Y-119273739D01*
X164599500Y-119300097D01*
X164599500Y-122313330D01*
X164599499Y-122313348D01*
X164599499Y-122479054D01*
X164599498Y-122479054D01*
X164640424Y-122631789D01*
X164640425Y-122631790D01*
X164665661Y-122675499D01*
X164665662Y-122675501D01*
X164719475Y-122768709D01*
X164719481Y-122768717D01*
X164838349Y-122887585D01*
X164838355Y-122887590D01*
X164960345Y-123009580D01*
X164993830Y-123070903D01*
X164988846Y-123140595D01*
X164946974Y-123196528D01*
X164920117Y-123211822D01*
X164746325Y-123283809D01*
X164746315Y-123283814D01*
X164582537Y-123393248D01*
X164582533Y-123393251D01*
X164443251Y-123532533D01*
X164443248Y-123532537D01*
X164333814Y-123696315D01*
X164333807Y-123696328D01*
X164258430Y-123878306D01*
X164258427Y-123878318D01*
X164220000Y-124071504D01*
X164220000Y-124470000D01*
X164920000Y-124470000D01*
X164920000Y-124970000D01*
X164381784Y-124970000D01*
X164314745Y-124950315D01*
X164274397Y-124908000D01*
X164250515Y-124866635D01*
X164143365Y-124759485D01*
X164076972Y-124721153D01*
X164012136Y-124683719D01*
X163879634Y-124648216D01*
X163865766Y-124644500D01*
X163714234Y-124644500D01*
X163567863Y-124683719D01*
X163436635Y-124759485D01*
X163436632Y-124759487D01*
X163329487Y-124866632D01*
X163329485Y-124866635D01*
X163253719Y-124997863D01*
X163244170Y-125033501D01*
X163214500Y-125144234D01*
X163214500Y-125295766D01*
X163218392Y-125310292D01*
X163253719Y-125442136D01*
X163281185Y-125489707D01*
X163329485Y-125573365D01*
X163436635Y-125680515D01*
X163567865Y-125756281D01*
X163714234Y-125795500D01*
X163714236Y-125795500D01*
X163865764Y-125795500D01*
X163865766Y-125795500D01*
X164012135Y-125756281D01*
X164143365Y-125680515D01*
X164143366Y-125680513D01*
X164150403Y-125676451D01*
X164151676Y-125678656D01*
X164204956Y-125658043D01*
X164273405Y-125672063D01*
X164323407Y-125720864D01*
X164329867Y-125734157D01*
X164333809Y-125743674D01*
X164333814Y-125743684D01*
X164443248Y-125907462D01*
X164443251Y-125907466D01*
X164582533Y-126046748D01*
X164582537Y-126046751D01*
X164746315Y-126156185D01*
X164746328Y-126156192D01*
X164928308Y-126231569D01*
X164970000Y-126239862D01*
X164970000Y-125436988D01*
X164979940Y-125454205D01*
X165035795Y-125510060D01*
X165104204Y-125549556D01*
X165180504Y-125570000D01*
X165259496Y-125570000D01*
X165335796Y-125549556D01*
X165404205Y-125510060D01*
X165460060Y-125454205D01*
X165470000Y-125436988D01*
X165470000Y-126239862D01*
X165511690Y-126231569D01*
X165511692Y-126231569D01*
X165693671Y-126156192D01*
X165693684Y-126156185D01*
X165857462Y-126046751D01*
X165857466Y-126046748D01*
X165996748Y-125907466D01*
X165996751Y-125907462D01*
X166106185Y-125743684D01*
X166106192Y-125743671D01*
X166181569Y-125561693D01*
X166181572Y-125561681D01*
X166219999Y-125368495D01*
X166220000Y-125368492D01*
X166220000Y-124970000D01*
X165520000Y-124970000D01*
X165520000Y-124470000D01*
X166219999Y-124470000D01*
X166232700Y-124457299D01*
X166294023Y-124423813D01*
X166363714Y-124428797D01*
X166408061Y-124457296D01*
X167231284Y-125280520D01*
X167231286Y-125280521D01*
X167231290Y-125280524D01*
X167303904Y-125322447D01*
X167368216Y-125359577D01*
X167520943Y-125400501D01*
X167520945Y-125400501D01*
X167529002Y-125401562D01*
X167528810Y-125403018D01*
X167587275Y-125420186D01*
X167589127Y-125421399D01*
X167720814Y-125509390D01*
X167720827Y-125509397D01*
X167817781Y-125549556D01*
X167866503Y-125569737D01*
X168021153Y-125600499D01*
X168021156Y-125600500D01*
X168021158Y-125600500D01*
X168178844Y-125600500D01*
X168178845Y-125600499D01*
X168333497Y-125569737D01*
X168451592Y-125520821D01*
X168479172Y-125509397D01*
X168479172Y-125509396D01*
X168479179Y-125509394D01*
X168610289Y-125421789D01*
X168721789Y-125310289D01*
X168809394Y-125179179D01*
X168869737Y-125033497D01*
X168900500Y-124878842D01*
X168900500Y-124721158D01*
X168900500Y-124721155D01*
X168900499Y-124721153D01*
X168885989Y-124648209D01*
X168869737Y-124566503D01*
X168852014Y-124523716D01*
X168809397Y-124420827D01*
X168809390Y-124420814D01*
X168721789Y-124289711D01*
X168721786Y-124289707D01*
X168610292Y-124178213D01*
X168610288Y-124178210D01*
X168498862Y-124103757D01*
X168454057Y-124050145D01*
X168445350Y-123980820D01*
X168446136Y-123976463D01*
X168475500Y-123828844D01*
X168475500Y-123671155D01*
X168475499Y-123671153D01*
X168469612Y-123641557D01*
X168444737Y-123516503D01*
X168393685Y-123393251D01*
X168384397Y-123370827D01*
X168384390Y-123370814D01*
X168296789Y-123239711D01*
X168296786Y-123239707D01*
X168185292Y-123128213D01*
X168185288Y-123128210D01*
X168054185Y-123040609D01*
X168054172Y-123040602D01*
X167908501Y-122980264D01*
X167908489Y-122980261D01*
X167753845Y-122949500D01*
X167753842Y-122949500D01*
X167750098Y-122949500D01*
X167748207Y-122948944D01*
X167747782Y-122948903D01*
X167747789Y-122948822D01*
X167683059Y-122929815D01*
X167662417Y-122913181D01*
X166536819Y-121787583D01*
X166503334Y-121726260D01*
X166500500Y-121699902D01*
X166500500Y-118695945D01*
X166500500Y-118695943D01*
X166459577Y-118543216D01*
X166459573Y-118543209D01*
X166380524Y-118406290D01*
X166380521Y-118406286D01*
X166380520Y-118406284D01*
X166268716Y-118294480D01*
X166268715Y-118294479D01*
X166264385Y-118290149D01*
X166264374Y-118290139D01*
X166186001Y-118211766D01*
X166152516Y-118150443D01*
X166157500Y-118080751D01*
X166199372Y-118024818D01*
X166264836Y-118000401D01*
X166321134Y-118009524D01*
X166384764Y-118035880D01*
X166466503Y-118069737D01*
X166621153Y-118100499D01*
X166621156Y-118100500D01*
X166621158Y-118100500D01*
X166778844Y-118100500D01*
X166778845Y-118100499D01*
X166933497Y-118069737D01*
X167079179Y-118009394D01*
X167210289Y-117921789D01*
X167321789Y-117810289D01*
X167409394Y-117679179D01*
X167416171Y-117662819D01*
X167469735Y-117533501D01*
X167469737Y-117533497D01*
X167500500Y-117378842D01*
X167500500Y-117221158D01*
X167500500Y-117221155D01*
X167500499Y-117221153D01*
X167496463Y-117200865D01*
X167469737Y-117066503D01*
X167449371Y-117017335D01*
X167409397Y-116920827D01*
X167409390Y-116920814D01*
X167321789Y-116789711D01*
X167321786Y-116789707D01*
X167210292Y-116678213D01*
X167210288Y-116678210D01*
X167079185Y-116590609D01*
X167079172Y-116590602D01*
X166933501Y-116530264D01*
X166933489Y-116530261D01*
X166778845Y-116499500D01*
X166778842Y-116499500D01*
X166621158Y-116499500D01*
X166621155Y-116499500D01*
X166466511Y-116530260D01*
X166466506Y-116530262D01*
X166466504Y-116530262D01*
X166466503Y-116530263D01*
X166442844Y-116540062D01*
X166395396Y-116549500D01*
X163686669Y-116549500D01*
X163686653Y-116549499D01*
X163679057Y-116549499D01*
X163520943Y-116549499D01*
X163441010Y-116570917D01*
X163368216Y-116590422D01*
X163323042Y-116616504D01*
X163323041Y-116616503D01*
X163231287Y-116669477D01*
X163231282Y-116669481D01*
X163169861Y-116730903D01*
X163119480Y-116781284D01*
X163119478Y-116781286D01*
X161922264Y-117978501D01*
X160737584Y-119163181D01*
X160676261Y-119196666D01*
X160649903Y-119199500D01*
X159400950Y-119199500D01*
X159396864Y-119198300D01*
X159392707Y-119199226D01*
X159363625Y-119188540D01*
X159333911Y-119179815D01*
X159331122Y-119176597D01*
X159327124Y-119175128D01*
X159308435Y-119150414D01*
X159288156Y-119127011D01*
X159287549Y-119122796D01*
X159284981Y-119119399D01*
X159282620Y-119088515D01*
X159278212Y-119057853D01*
X159279981Y-119053978D01*
X159279657Y-119049733D01*
X159294368Y-119022475D01*
X159307237Y-118994297D01*
X159311393Y-118990930D01*
X159312842Y-118988247D01*
X159323777Y-118980901D01*
X159340993Y-118966959D01*
X159352068Y-118960840D01*
X159356785Y-118959577D01*
X159409435Y-118929179D01*
X159493716Y-118880520D01*
X159605520Y-118768716D01*
X159605520Y-118768714D01*
X159615724Y-118758511D01*
X159615727Y-118758506D01*
X159970444Y-118403790D01*
X160031763Y-118370308D01*
X160101455Y-118375292D01*
X160127012Y-118388372D01*
X160225814Y-118454390D01*
X160225827Y-118454397D01*
X160350190Y-118505909D01*
X160371503Y-118514737D01*
X160514676Y-118543216D01*
X160526153Y-118545499D01*
X160526156Y-118545500D01*
X160526158Y-118545500D01*
X160683844Y-118545500D01*
X160683845Y-118545499D01*
X160838497Y-118514737D01*
X160984179Y-118454394D01*
X161115289Y-118366789D01*
X161226789Y-118255289D01*
X161314394Y-118124179D01*
X161321806Y-118106286D01*
X161365664Y-118000401D01*
X161374737Y-117978497D01*
X161405500Y-117823842D01*
X161405500Y-117666158D01*
X161405500Y-117666155D01*
X161405499Y-117666153D01*
X161384262Y-117559390D01*
X161374737Y-117511503D01*
X161327314Y-117397015D01*
X161319846Y-117327546D01*
X161351121Y-117265067D01*
X161394422Y-117235002D01*
X161444179Y-117214393D01*
X161575289Y-117126788D01*
X161686789Y-117015288D01*
X161774394Y-116884178D01*
X161834737Y-116738496D01*
X161865500Y-116583841D01*
X161865500Y-116426157D01*
X161865500Y-116426154D01*
X161865499Y-116426152D01*
X161855674Y-116376757D01*
X161834737Y-116271502D01*
X161834735Y-116271497D01*
X161774397Y-116125826D01*
X161774390Y-116125813D01*
X161686789Y-115994710D01*
X161686786Y-115994706D01*
X161575292Y-115883212D01*
X161575288Y-115883209D01*
X161444185Y-115795608D01*
X161444175Y-115795603D01*
X161434175Y-115791461D01*
X161379772Y-115747620D01*
X161357707Y-115681326D01*
X161374986Y-115613626D01*
X161426124Y-115566016D01*
X161481628Y-115552900D01*
X168744619Y-115552900D01*
X168811658Y-115572585D01*
X168857413Y-115625389D01*
X168859155Y-115629389D01*
X168886406Y-115695179D01*
X168886407Y-115695181D01*
X168886409Y-115695185D01*
X168974010Y-115826288D01*
X168974013Y-115826292D01*
X169085507Y-115937786D01*
X169085511Y-115937789D01*
X169216614Y-116025390D01*
X169216627Y-116025397D01*
X169361221Y-116085289D01*
X169362303Y-116085737D01*
X169426947Y-116098595D01*
X169517649Y-116116638D01*
X169579560Y-116149023D01*
X169581139Y-116150574D01*
X169847981Y-116417416D01*
X169881466Y-116478739D01*
X169884300Y-116505097D01*
X169884300Y-117149502D01*
X169864615Y-117216541D01*
X169847981Y-117237183D01*
X168937481Y-118147682D01*
X168937477Y-118147687D01*
X168892542Y-118225519D01*
X168892542Y-118225520D01*
X168858423Y-118284614D01*
X168847955Y-118323682D01*
X168817499Y-118437343D01*
X168817499Y-118437345D01*
X168817499Y-118605446D01*
X168817500Y-118605459D01*
X168817500Y-119445730D01*
X168817499Y-119445748D01*
X168817499Y-119611454D01*
X168817498Y-119611454D01*
X168858424Y-119764189D01*
X168858425Y-119764190D01*
X168882146Y-119805275D01*
X168882147Y-119805277D01*
X168937475Y-119901109D01*
X168937481Y-119901117D01*
X169056349Y-120019985D01*
X169056355Y-120019990D01*
X169752781Y-120716416D01*
X169786266Y-120777739D01*
X169789100Y-120804097D01*
X169789100Y-121451870D01*
X169789101Y-121451876D01*
X169795508Y-121511483D01*
X169845802Y-121646328D01*
X169845806Y-121646335D01*
X169932052Y-121761544D01*
X169932055Y-121761547D01*
X170047264Y-121847793D01*
X170047271Y-121847797D01*
X170182117Y-121898091D01*
X170182116Y-121898091D01*
X170189044Y-121898835D01*
X170241727Y-121904500D01*
X171337472Y-121904499D01*
X171397083Y-121898091D01*
X171457167Y-121875680D01*
X171526858Y-121870697D01*
X171588181Y-121904182D01*
X171621666Y-121965505D01*
X171624500Y-121991863D01*
X171624500Y-124068330D01*
X171624499Y-124068348D01*
X171624499Y-124234054D01*
X171624498Y-124234054D01*
X171639412Y-124289711D01*
X171665423Y-124386785D01*
X171685074Y-124420821D01*
X171737306Y-124511290D01*
X171744479Y-124523714D01*
X171744481Y-124523717D01*
X171863349Y-124642585D01*
X171863355Y-124642590D01*
X172363181Y-125142416D01*
X172396666Y-125203739D01*
X172399500Y-125230097D01*
X172399500Y-125720234D01*
X172379815Y-125787273D01*
X172378602Y-125789125D01*
X172290609Y-125920814D01*
X172290602Y-125920827D01*
X172230264Y-126066498D01*
X172230261Y-126066510D01*
X172199500Y-126221153D01*
X172199500Y-126378846D01*
X172230261Y-126533489D01*
X172230264Y-126533501D01*
X172290602Y-126679172D01*
X172290609Y-126679185D01*
X172378210Y-126810288D01*
X172378213Y-126810292D01*
X172489707Y-126921786D01*
X172489711Y-126921789D01*
X172620814Y-127009390D01*
X172620827Y-127009397D01*
X172726335Y-127053099D01*
X172766503Y-127069737D01*
X172921153Y-127100499D01*
X172921156Y-127100500D01*
X172921158Y-127100500D01*
X173078844Y-127100500D01*
X173078845Y-127100499D01*
X173233497Y-127069737D01*
X173328048Y-127030572D01*
X173397517Y-127023104D01*
X173459996Y-127054379D01*
X173495648Y-127114468D01*
X173499500Y-127145134D01*
X173499500Y-127178846D01*
X173530261Y-127333489D01*
X173530264Y-127333501D01*
X173590602Y-127479172D01*
X173590609Y-127479185D01*
X173678210Y-127610288D01*
X173678213Y-127610292D01*
X173789707Y-127721786D01*
X173789711Y-127721789D01*
X173920814Y-127809390D01*
X173920827Y-127809397D01*
X174066498Y-127869735D01*
X174066503Y-127869737D01*
X174221153Y-127900499D01*
X174221156Y-127900500D01*
X174221158Y-127900500D01*
X174378844Y-127900500D01*
X174378845Y-127900499D01*
X174533497Y-127869737D01*
X174679179Y-127809394D01*
X174810289Y-127721789D01*
X174921789Y-127610289D01*
X175009394Y-127479179D01*
X175069737Y-127333497D01*
X175100500Y-127178842D01*
X175100500Y-127021158D01*
X175100500Y-127021155D01*
X175100499Y-127021153D01*
X175080839Y-126922317D01*
X175069737Y-126866503D01*
X175045162Y-126807175D01*
X175037694Y-126737708D01*
X175068969Y-126675228D01*
X175129058Y-126639576D01*
X175198883Y-126642069D01*
X175207163Y-126645157D01*
X175266503Y-126669737D01*
X175365858Y-126689500D01*
X175421153Y-126700499D01*
X175421156Y-126700500D01*
X175421158Y-126700500D01*
X175578844Y-126700500D01*
X175578845Y-126700499D01*
X175733497Y-126669737D01*
X175879179Y-126609394D01*
X176010289Y-126521789D01*
X176121789Y-126410289D01*
X176209394Y-126279179D01*
X176269737Y-126133497D01*
X176300500Y-125978842D01*
X176300500Y-125821158D01*
X176300500Y-125821155D01*
X176300499Y-125821153D01*
X176285087Y-125743671D01*
X176269737Y-125666503D01*
X176242398Y-125600500D01*
X176209397Y-125520827D01*
X176209390Y-125520814D01*
X176121398Y-125389125D01*
X176100520Y-125322447D01*
X176100500Y-125320234D01*
X176100500Y-124969060D01*
X176100501Y-124969047D01*
X176100501Y-124800944D01*
X176100501Y-124800943D01*
X176059577Y-124648216D01*
X176052247Y-124635520D01*
X175980524Y-124511290D01*
X175980518Y-124511282D01*
X173661819Y-122192583D01*
X173628334Y-122131260D01*
X173625500Y-122104902D01*
X173625500Y-120049097D01*
X173645185Y-119982058D01*
X173697989Y-119936303D01*
X173767147Y-119926359D01*
X173830703Y-119955384D01*
X173837181Y-119961416D01*
X175163181Y-121287416D01*
X175196666Y-121348739D01*
X175199500Y-121375097D01*
X175199500Y-121813330D01*
X175199499Y-121813348D01*
X175199499Y-121979054D01*
X175199498Y-121979054D01*
X175240423Y-122131785D01*
X175256881Y-122160292D01*
X175264343Y-122173215D01*
X175296166Y-122228334D01*
X175319479Y-122268714D01*
X175319481Y-122268717D01*
X175438349Y-122387585D01*
X175438355Y-122387590D01*
X175613026Y-122562261D01*
X175637521Y-122598919D01*
X175637734Y-122598806D01*
X175638884Y-122600958D01*
X175639904Y-122602484D01*
X175640606Y-122604180D01*
X175640607Y-122604181D01*
X175728207Y-122735284D01*
X175728213Y-122735292D01*
X175839707Y-122846786D01*
X175839711Y-122846789D01*
X175970814Y-122934390D01*
X175970827Y-122934397D01*
X176116498Y-122994735D01*
X176116503Y-122994737D01*
X176271153Y-123025499D01*
X176271156Y-123025500D01*
X176271158Y-123025500D01*
X176428844Y-123025500D01*
X176428845Y-123025499D01*
X176583497Y-122994737D01*
X176729179Y-122934394D01*
X176860289Y-122846789D01*
X176971789Y-122735289D01*
X177059394Y-122604179D01*
X177088670Y-122533501D01*
X177112053Y-122477049D01*
X177124595Y-122461483D01*
X177132900Y-122443300D01*
X177146070Y-122434835D01*
X177155894Y-122422645D01*
X177174859Y-122416332D01*
X177191677Y-122405524D01*
X177219240Y-122401561D01*
X177222188Y-122400580D01*
X177226612Y-122400501D01*
X177279058Y-122400501D01*
X177279061Y-122400500D01*
X177286668Y-122400500D01*
X177649903Y-122400500D01*
X177716942Y-122420185D01*
X177737584Y-122436819D01*
X177793181Y-122492416D01*
X177826666Y-122553739D01*
X177829500Y-122580097D01*
X177829500Y-125218527D01*
X177809815Y-125285566D01*
X177774391Y-125321629D01*
X177689711Y-125378210D01*
X177689707Y-125378213D01*
X177578213Y-125489707D01*
X177578210Y-125489711D01*
X177490609Y-125620814D01*
X177490602Y-125620827D01*
X177430264Y-125766498D01*
X177430261Y-125766510D01*
X177399500Y-125921153D01*
X177399500Y-126078846D01*
X177430261Y-126233489D01*
X177430264Y-126233501D01*
X177490602Y-126379172D01*
X177490609Y-126379185D01*
X177578210Y-126510288D01*
X177578213Y-126510292D01*
X177689707Y-126621786D01*
X177689711Y-126621789D01*
X177820814Y-126709390D01*
X177820827Y-126709397D01*
X177966498Y-126769735D01*
X177966503Y-126769737D01*
X178121153Y-126800499D01*
X178121156Y-126800500D01*
X178121158Y-126800500D01*
X178278844Y-126800500D01*
X178278845Y-126800499D01*
X178433497Y-126769737D01*
X178579179Y-126709394D01*
X178710289Y-126621789D01*
X178821789Y-126510289D01*
X178909394Y-126379179D01*
X178969737Y-126233497D01*
X179000500Y-126078842D01*
X179000500Y-125977343D01*
X179004725Y-125945250D01*
X179030500Y-125849057D01*
X179030500Y-125690943D01*
X179030500Y-123413670D01*
X179050185Y-123346631D01*
X179102989Y-123300876D01*
X179172147Y-123290932D01*
X179178692Y-123292053D01*
X179221156Y-123300500D01*
X179221158Y-123300500D01*
X179378844Y-123300500D01*
X179378845Y-123300499D01*
X179533497Y-123269737D01*
X179679179Y-123209394D01*
X179806609Y-123124248D01*
X179873286Y-123103370D01*
X179940666Y-123121854D01*
X179987357Y-123173833D01*
X179999500Y-123227350D01*
X179999500Y-125320234D01*
X179979815Y-125387273D01*
X179978602Y-125389125D01*
X179890609Y-125520814D01*
X179890602Y-125520827D01*
X179830264Y-125666498D01*
X179830261Y-125666510D01*
X179799500Y-125821153D01*
X179799500Y-125978846D01*
X179830261Y-126133489D01*
X179830264Y-126133501D01*
X179890602Y-126279172D01*
X179890609Y-126279185D01*
X179978210Y-126410288D01*
X179978213Y-126410292D01*
X180089707Y-126521786D01*
X180089711Y-126521789D01*
X180220814Y-126609390D01*
X180220827Y-126609397D01*
X180365931Y-126669500D01*
X180366503Y-126669737D01*
X180465858Y-126689500D01*
X180521153Y-126700499D01*
X180521156Y-126700500D01*
X180521158Y-126700500D01*
X180678844Y-126700500D01*
X180678845Y-126700499D01*
X180833497Y-126669737D01*
X180979179Y-126609394D01*
X181110289Y-126521789D01*
X181221789Y-126410289D01*
X181309394Y-126279179D01*
X181369737Y-126133497D01*
X181400500Y-125978842D01*
X181400500Y-125821158D01*
X181400500Y-125821155D01*
X181400499Y-125821153D01*
X181385087Y-125743671D01*
X181369737Y-125666503D01*
X181342398Y-125600500D01*
X181309397Y-125520827D01*
X181309390Y-125520814D01*
X181221398Y-125389125D01*
X181200520Y-125322447D01*
X181200500Y-125320234D01*
X181200500Y-123027350D01*
X181220185Y-122960311D01*
X181272989Y-122914556D01*
X181342147Y-122904612D01*
X181393391Y-122924248D01*
X181520814Y-123009390D01*
X181520827Y-123009397D01*
X181596181Y-123040609D01*
X181666503Y-123069737D01*
X181807665Y-123097816D01*
X181821153Y-123100499D01*
X181821156Y-123100500D01*
X181821158Y-123100500D01*
X181978844Y-123100500D01*
X181978845Y-123100499D01*
X182133497Y-123069737D01*
X182279179Y-123009394D01*
X182410289Y-122921789D01*
X182521789Y-122810289D01*
X182609394Y-122679179D01*
X182610918Y-122675501D01*
X182641984Y-122600499D01*
X182669737Y-122533497D01*
X182700500Y-122378842D01*
X182700500Y-122221158D01*
X182700500Y-122221155D01*
X182700499Y-122221153D01*
X182678090Y-122108497D01*
X182669737Y-122066503D01*
X182669735Y-122066498D01*
X182609397Y-121920827D01*
X182609390Y-121920814D01*
X182521399Y-121789126D01*
X182500521Y-121722448D01*
X182500501Y-121720235D01*
X182500501Y-121595945D01*
X182500501Y-121595943D01*
X182459577Y-121443215D01*
X182444152Y-121416498D01*
X182426157Y-121385330D01*
X182426157Y-121385329D01*
X182380524Y-121306290D01*
X182380521Y-121306286D01*
X182380520Y-121306284D01*
X182268716Y-121194480D01*
X182268715Y-121194479D01*
X182264385Y-121190149D01*
X182264374Y-121190139D01*
X180482590Y-119408355D01*
X180482588Y-119408352D01*
X180363717Y-119289481D01*
X180363709Y-119289475D01*
X180270967Y-119235931D01*
X180270966Y-119235931D01*
X180226785Y-119210423D01*
X180074057Y-119169499D01*
X179915943Y-119169499D01*
X179908347Y-119169499D01*
X179908331Y-119169500D01*
X177670098Y-119169500D01*
X177603059Y-119149815D01*
X177582417Y-119133181D01*
X175661819Y-117212583D01*
X175628334Y-117151260D01*
X175625500Y-117124902D01*
X175625500Y-114847621D01*
X175645185Y-114780582D01*
X175697989Y-114734827D01*
X175765065Y-114725182D01*
X175765093Y-114724903D01*
X175766229Y-114725014D01*
X175767147Y-114724883D01*
X175770200Y-114725405D01*
X175771156Y-114725500D01*
X175771158Y-114725500D01*
X175928844Y-114725500D01*
X175928845Y-114725499D01*
X176083497Y-114694737D01*
X176229179Y-114634394D01*
X176360289Y-114546789D01*
X176471789Y-114435289D01*
X176559394Y-114304179D01*
X176619737Y-114158497D01*
X176650500Y-114003842D01*
X176650500Y-113846158D01*
X176650500Y-113846155D01*
X176650499Y-113846153D01*
X176643940Y-113813181D01*
X176619737Y-113691503D01*
X176597166Y-113637011D01*
X176559397Y-113545827D01*
X176559390Y-113545814D01*
X176471398Y-113414125D01*
X176450520Y-113347447D01*
X176450500Y-113345234D01*
X176450500Y-108146153D01*
X179799500Y-108146153D01*
X179799500Y-108303846D01*
X179830261Y-108458489D01*
X179830264Y-108458501D01*
X179890602Y-108604172D01*
X179890609Y-108604185D01*
X179978210Y-108735288D01*
X179978213Y-108735292D01*
X180088181Y-108845260D01*
X180121666Y-108906583D01*
X180124500Y-108932941D01*
X180124500Y-110567059D01*
X180104815Y-110634098D01*
X180088181Y-110654740D01*
X180078213Y-110664707D01*
X180078210Y-110664711D01*
X179990609Y-110795814D01*
X179990602Y-110795827D01*
X179930264Y-110941498D01*
X179930261Y-110941510D01*
X179899500Y-111096153D01*
X179899500Y-111253846D01*
X179930261Y-111408489D01*
X179930264Y-111408501D01*
X179990602Y-111554172D01*
X179990609Y-111554185D01*
X180078210Y-111685288D01*
X180078213Y-111685292D01*
X180189707Y-111796786D01*
X180189711Y-111796789D01*
X180320814Y-111884390D01*
X180320827Y-111884397D01*
X180466498Y-111944735D01*
X180466503Y-111944737D01*
X180621153Y-111975499D01*
X180621156Y-111975500D01*
X180621158Y-111975500D01*
X180778844Y-111975500D01*
X180778845Y-111975499D01*
X180933497Y-111944737D01*
X181079179Y-111884394D01*
X181210289Y-111796789D01*
X181321789Y-111685289D01*
X181409394Y-111554179D01*
X181469737Y-111408497D01*
X181500500Y-111253842D01*
X181500500Y-111096158D01*
X181500500Y-111096155D01*
X181500499Y-111096153D01*
X181497186Y-111079500D01*
X181469737Y-110941503D01*
X181439438Y-110868353D01*
X181409397Y-110795828D01*
X181409396Y-110795827D01*
X181409394Y-110795821D01*
X181346397Y-110701539D01*
X181325520Y-110634863D01*
X181325500Y-110632650D01*
X181325500Y-108589960D01*
X181334939Y-108542508D01*
X181369735Y-108458501D01*
X181369737Y-108458497D01*
X181400500Y-108303842D01*
X181400500Y-108146158D01*
X181400500Y-108146155D01*
X181400499Y-108146153D01*
X181373296Y-108009397D01*
X181369737Y-107991503D01*
X181340861Y-107921789D01*
X181309397Y-107845827D01*
X181309390Y-107845814D01*
X181221789Y-107714711D01*
X181221786Y-107714707D01*
X181110292Y-107603213D01*
X181110288Y-107603210D01*
X180979185Y-107515609D01*
X180979172Y-107515602D01*
X180833501Y-107455264D01*
X180833489Y-107455261D01*
X180678845Y-107424500D01*
X180678842Y-107424500D01*
X180521158Y-107424500D01*
X180521155Y-107424500D01*
X180366510Y-107455261D01*
X180366498Y-107455264D01*
X180220827Y-107515602D01*
X180220814Y-107515609D01*
X180089711Y-107603210D01*
X180089707Y-107603213D01*
X179978213Y-107714707D01*
X179978210Y-107714711D01*
X179890609Y-107845814D01*
X179890602Y-107845827D01*
X179830264Y-107991498D01*
X179830261Y-107991510D01*
X179799500Y-108146153D01*
X176450500Y-108146153D01*
X176450500Y-105875097D01*
X176470185Y-105808058D01*
X176486819Y-105787416D01*
X177920178Y-104354057D01*
X179357474Y-102916760D01*
X179376260Y-102901343D01*
X179379173Y-102899396D01*
X179379179Y-102899394D01*
X179510289Y-102811789D01*
X179621789Y-102700289D01*
X179709394Y-102569179D01*
X179769737Y-102423497D01*
X179800500Y-102268842D01*
X179800500Y-102111158D01*
X179800500Y-102111155D01*
X179800499Y-102111153D01*
X179779153Y-102003842D01*
X179769737Y-101956503D01*
X179768423Y-101953330D01*
X179709397Y-101810827D01*
X179709390Y-101810814D01*
X179621789Y-101679711D01*
X179621786Y-101679707D01*
X179510292Y-101568213D01*
X179510288Y-101568210D01*
X179379185Y-101480609D01*
X179379172Y-101480602D01*
X179233501Y-101420264D01*
X179233491Y-101420261D01*
X179165319Y-101406701D01*
X179103408Y-101374316D01*
X179068834Y-101313600D01*
X179072574Y-101243831D01*
X179101828Y-101197405D01*
X184037821Y-96261413D01*
X184099142Y-96227930D01*
X184168834Y-96232914D01*
X184224767Y-96274786D01*
X184249184Y-96340250D01*
X184249500Y-96349096D01*
X184249500Y-103283330D01*
X184249499Y-103283348D01*
X184249499Y-103449054D01*
X184249498Y-103449054D01*
X184252509Y-103460292D01*
X184290423Y-103601785D01*
X184310446Y-103636465D01*
X184332888Y-103675336D01*
X184332894Y-103675363D01*
X184349500Y-103737334D01*
X184349500Y-104300234D01*
X184329815Y-104367273D01*
X184328602Y-104369125D01*
X184240609Y-104500814D01*
X184240602Y-104500827D01*
X184180264Y-104646498D01*
X184180261Y-104646510D01*
X184149500Y-104801153D01*
X184149500Y-104958846D01*
X184180261Y-105113489D01*
X184180264Y-105113501D01*
X184240602Y-105259172D01*
X184240609Y-105259185D01*
X184328210Y-105390288D01*
X184328213Y-105390292D01*
X184439707Y-105501786D01*
X184439711Y-105501789D01*
X184570814Y-105589390D01*
X184570827Y-105589397D01*
X184716498Y-105649735D01*
X184716503Y-105649737D01*
X184871153Y-105680499D01*
X184871156Y-105680500D01*
X184949500Y-105680500D01*
X185016539Y-105700185D01*
X185062294Y-105752989D01*
X185073500Y-105804500D01*
X185073500Y-120125903D01*
X185053815Y-120192942D01*
X185037181Y-120213584D01*
X184435339Y-120815425D01*
X184374016Y-120848910D01*
X184371850Y-120849361D01*
X184216508Y-120880261D01*
X184216498Y-120880264D01*
X184070827Y-120940602D01*
X184070814Y-120940609D01*
X183939711Y-121028210D01*
X183939707Y-121028213D01*
X183828213Y-121139707D01*
X183828210Y-121139711D01*
X183740609Y-121270814D01*
X183740602Y-121270827D01*
X183680264Y-121416498D01*
X183680261Y-121416510D01*
X183649500Y-121571153D01*
X183649500Y-121728846D01*
X183680261Y-121883489D01*
X183680264Y-121883501D01*
X183740602Y-122029172D01*
X183740609Y-122029185D01*
X183828210Y-122160288D01*
X183828213Y-122160292D01*
X183939707Y-122271786D01*
X183939711Y-122271789D01*
X184070814Y-122359390D01*
X184070827Y-122359397D01*
X184216498Y-122419735D01*
X184216503Y-122419737D01*
X184371153Y-122450499D01*
X184371156Y-122450500D01*
X184371158Y-122450500D01*
X184528844Y-122450500D01*
X184528845Y-122450499D01*
X184683497Y-122419737D01*
X184829179Y-122359394D01*
X184960289Y-122271789D01*
X185071789Y-122160289D01*
X185159394Y-122029179D01*
X185219737Y-121883497D01*
X185244402Y-121759500D01*
X185250638Y-121728150D01*
X185283023Y-121666239D01*
X185284520Y-121664713D01*
X186032506Y-120916727D01*
X186032511Y-120916724D01*
X186042714Y-120906520D01*
X186042716Y-120906520D01*
X186154520Y-120794716D01*
X186233577Y-120657784D01*
X186266401Y-120535284D01*
X186274500Y-120505058D01*
X186274500Y-120346943D01*
X186274500Y-96261565D01*
X186294185Y-96194526D01*
X186295398Y-96192674D01*
X186383390Y-96060985D01*
X186383390Y-96060984D01*
X186383394Y-96060979D01*
X186443737Y-95915297D01*
X186474500Y-95760642D01*
X186474500Y-95602958D01*
X186474500Y-95602955D01*
X186474499Y-95602953D01*
X186456067Y-95510289D01*
X186443737Y-95448303D01*
X186418847Y-95388213D01*
X186383397Y-95302627D01*
X186383390Y-95302614D01*
X186295789Y-95171511D01*
X186295786Y-95171507D01*
X186184292Y-95060013D01*
X186184288Y-95060010D01*
X186053185Y-94972409D01*
X186053172Y-94972402D01*
X185907501Y-94912064D01*
X185907489Y-94912061D01*
X185752845Y-94881300D01*
X185752842Y-94881300D01*
X185595158Y-94881300D01*
X185595157Y-94881300D01*
X185589095Y-94881897D01*
X185588835Y-94879261D01*
X185530642Y-94874002D01*
X185475502Y-94831090D01*
X185461583Y-94806106D01*
X185459394Y-94800821D01*
X185459392Y-94800818D01*
X185459390Y-94800814D01*
X185371789Y-94669711D01*
X185371786Y-94669707D01*
X185260292Y-94558213D01*
X185260288Y-94558210D01*
X185146576Y-94482230D01*
X185101771Y-94428618D01*
X185093064Y-94359293D01*
X185123218Y-94296265D01*
X185127763Y-94291470D01*
X185512416Y-93906819D01*
X185573739Y-93873334D01*
X185600097Y-93870500D01*
X186043331Y-93870500D01*
X186043347Y-93870501D01*
X186050943Y-93870501D01*
X186209054Y-93870501D01*
X186209057Y-93870501D01*
X186361785Y-93829577D01*
X186361787Y-93829575D01*
X186361789Y-93829575D01*
X186361790Y-93829574D01*
X186415730Y-93798432D01*
X186415731Y-93798431D01*
X186498716Y-93750520D01*
X186610520Y-93638716D01*
X186610520Y-93638714D01*
X186620724Y-93628511D01*
X186620727Y-93628506D01*
X187974662Y-92274572D01*
X188035983Y-92241089D01*
X188038150Y-92240638D01*
X188096085Y-92229113D01*
X188193497Y-92209737D01*
X188339179Y-92149394D01*
X188470289Y-92061789D01*
X188581789Y-91950289D01*
X188669394Y-91819179D01*
X188671879Y-91813181D01*
X188714498Y-91710288D01*
X188729737Y-91673497D01*
X188760500Y-91518842D01*
X188760500Y-91361158D01*
X188760500Y-91361155D01*
X188760499Y-91361153D01*
X188729738Y-91206510D01*
X188729738Y-91206508D01*
X188729737Y-91206503D01*
X188707333Y-91152415D01*
X188669397Y-91060827D01*
X188669390Y-91060814D01*
X188581789Y-90929711D01*
X188581786Y-90929707D01*
X188470292Y-90818213D01*
X188470288Y-90818210D01*
X188339185Y-90730609D01*
X188339172Y-90730602D01*
X188193501Y-90670264D01*
X188193489Y-90670261D01*
X188038845Y-90639500D01*
X188038842Y-90639500D01*
X187881158Y-90639500D01*
X187881155Y-90639500D01*
X187726510Y-90670261D01*
X187726498Y-90670264D01*
X187580827Y-90730602D01*
X187580814Y-90730609D01*
X187449711Y-90818210D01*
X187449707Y-90818213D01*
X187338213Y-90929707D01*
X187338210Y-90929711D01*
X187250609Y-91060814D01*
X187250602Y-91060827D01*
X187190264Y-91206498D01*
X187190261Y-91206508D01*
X187159361Y-91361850D01*
X187126976Y-91423761D01*
X187125425Y-91425339D01*
X185917584Y-92633181D01*
X185856261Y-92666666D01*
X185829903Y-92669500D01*
X185379057Y-92669500D01*
X185220942Y-92669500D01*
X185068215Y-92710423D01*
X185068214Y-92710423D01*
X185068212Y-92710424D01*
X185068209Y-92710425D01*
X185018096Y-92739359D01*
X185018095Y-92739360D01*
X184974689Y-92764420D01*
X184931285Y-92789479D01*
X184931282Y-92789481D01*
X184052181Y-93668583D01*
X183990858Y-93702068D01*
X183921166Y-93697084D01*
X183865233Y-93655212D01*
X183840816Y-93589748D01*
X183840500Y-93580902D01*
X183840500Y-91240096D01*
X183860185Y-91173057D01*
X183876815Y-91152419D01*
X184264713Y-90764521D01*
X184264716Y-90764520D01*
X184376520Y-90652716D01*
X184426639Y-90565904D01*
X184455577Y-90515785D01*
X184460231Y-90498413D01*
X184465889Y-90487128D01*
X184478056Y-90474075D01*
X184489057Y-90455020D01*
X184517789Y-90426289D01*
X184605394Y-90295179D01*
X184665737Y-90149497D01*
X184696500Y-89994842D01*
X184696500Y-89837158D01*
X184696500Y-89837155D01*
X184696499Y-89837153D01*
X184665737Y-89682503D01*
X184620853Y-89574142D01*
X184605397Y-89536827D01*
X184605390Y-89536814D01*
X184517789Y-89405711D01*
X184517786Y-89405707D01*
X184406292Y-89294213D01*
X184406288Y-89294210D01*
X184275185Y-89206609D01*
X184275172Y-89206602D01*
X184129501Y-89146264D01*
X184129489Y-89146261D01*
X183974845Y-89115500D01*
X183974842Y-89115500D01*
X183817158Y-89115500D01*
X183817155Y-89115500D01*
X183662510Y-89146261D01*
X183662498Y-89146264D01*
X183516827Y-89206602D01*
X183516814Y-89206609D01*
X183385711Y-89294210D01*
X183385707Y-89294213D01*
X183274213Y-89405707D01*
X183274210Y-89405711D01*
X183186609Y-89536814D01*
X183186602Y-89536827D01*
X183126264Y-89682498D01*
X183126261Y-89682510D01*
X183095500Y-89837153D01*
X183095500Y-89994846D01*
X183122457Y-90130370D01*
X183116230Y-90199962D01*
X183088521Y-90242242D01*
X182871286Y-90459478D01*
X182759481Y-90571282D01*
X182759479Y-90571284D01*
X182737521Y-90609317D01*
X182728240Y-90625394D01*
X182680423Y-90708215D01*
X182639499Y-90860943D01*
X182639499Y-90860945D01*
X182639499Y-91029046D01*
X182639500Y-91029059D01*
X182639500Y-94133330D01*
X182639499Y-94133348D01*
X182639499Y-94299054D01*
X182639498Y-94299054D01*
X182660709Y-94378213D01*
X182680423Y-94451785D01*
X182701333Y-94488001D01*
X182759480Y-94588716D01*
X182829563Y-94658799D01*
X182834955Y-94666040D01*
X182844074Y-94690679D01*
X182856666Y-94713740D01*
X182858327Y-94729192D01*
X182859206Y-94731566D01*
X182858787Y-94733468D01*
X182859500Y-94740098D01*
X182859500Y-94969902D01*
X182839815Y-95036941D01*
X182823181Y-95057583D01*
X179610864Y-98269899D01*
X179549541Y-98303384D01*
X179479849Y-98298400D01*
X179423916Y-98256528D01*
X179408626Y-98229679D01*
X179359394Y-98110821D01*
X179359392Y-98110818D01*
X179359390Y-98110814D01*
X179271789Y-97979711D01*
X179271786Y-97979707D01*
X179160289Y-97868210D01*
X179055609Y-97798266D01*
X179050518Y-97792174D01*
X179043297Y-97788877D01*
X179028433Y-97765749D01*
X179010804Y-97744654D01*
X179008852Y-97735279D01*
X179005523Y-97730099D01*
X179000500Y-97695164D01*
X179000500Y-97564834D01*
X179020185Y-97497795D01*
X179041914Y-97474457D01*
X179041275Y-97473818D01*
X179047543Y-97467549D01*
X179047544Y-97467547D01*
X179047546Y-97467546D01*
X179133796Y-97352331D01*
X179184091Y-97217483D01*
X179190500Y-97157873D01*
X179190499Y-96062128D01*
X179184091Y-96002517D01*
X179179183Y-95989359D01*
X179133797Y-95867671D01*
X179133793Y-95867664D01*
X179047547Y-95752455D01*
X179047544Y-95752452D01*
X178932335Y-95666206D01*
X178932328Y-95666202D01*
X178797482Y-95615908D01*
X178797483Y-95615908D01*
X178737883Y-95609501D01*
X178737881Y-95609500D01*
X178737873Y-95609500D01*
X178737864Y-95609500D01*
X177642129Y-95609500D01*
X177642123Y-95609501D01*
X177582516Y-95615908D01*
X177447671Y-95666202D01*
X177447664Y-95666206D01*
X177332455Y-95752452D01*
X177332452Y-95752455D01*
X177246206Y-95867664D01*
X177246202Y-95867671D01*
X177195908Y-96002517D01*
X177189624Y-96060972D01*
X177189501Y-96062123D01*
X177189500Y-96062135D01*
X177189500Y-97157870D01*
X177189501Y-97157876D01*
X177195908Y-97217483D01*
X177246202Y-97352328D01*
X177246206Y-97352335D01*
X177332452Y-97467544D01*
X177332455Y-97467547D01*
X177447664Y-97553793D01*
X177447671Y-97553797D01*
X177477263Y-97564834D01*
X177582517Y-97604091D01*
X177642127Y-97610500D01*
X177675499Y-97610499D01*
X177742537Y-97630182D01*
X177788293Y-97682984D01*
X177799500Y-97734499D01*
X177799500Y-98153330D01*
X177799499Y-98153348D01*
X177799499Y-98319054D01*
X177799498Y-98319054D01*
X177842527Y-98479636D01*
X177841832Y-98479822D01*
X177849500Y-98518363D01*
X177849500Y-98568846D01*
X177880261Y-98723489D01*
X177880264Y-98723501D01*
X177940602Y-98869172D01*
X177940609Y-98869185D01*
X178028210Y-99000288D01*
X178028213Y-99000292D01*
X178139707Y-99111786D01*
X178139711Y-99111789D01*
X178270814Y-99199390D01*
X178270827Y-99199397D01*
X178389670Y-99248623D01*
X178415209Y-99269203D01*
X178441482Y-99288870D01*
X178442284Y-99291022D01*
X178444074Y-99292464D01*
X178454434Y-99323591D01*
X178465902Y-99354333D01*
X178465413Y-99356578D01*
X178466139Y-99358758D01*
X178458027Y-99390540D01*
X178451053Y-99422606D01*
X178449216Y-99425059D01*
X178448860Y-99426457D01*
X178429903Y-99450862D01*
X178417585Y-99463179D01*
X178356266Y-99496665D01*
X178329903Y-99499500D01*
X178079766Y-99499500D01*
X178012727Y-99479815D01*
X178010875Y-99478602D01*
X177879185Y-99390609D01*
X177879172Y-99390602D01*
X177733501Y-99330264D01*
X177733489Y-99330261D01*
X177578845Y-99299500D01*
X177578842Y-99299500D01*
X177421158Y-99299500D01*
X177421155Y-99299500D01*
X177266510Y-99330261D01*
X177266498Y-99330264D01*
X177120827Y-99390602D01*
X177120814Y-99390609D01*
X176989711Y-99478210D01*
X176989707Y-99478213D01*
X176878213Y-99589707D01*
X176878210Y-99589711D01*
X176790609Y-99720814D01*
X176790602Y-99720827D01*
X176730264Y-99866498D01*
X176730261Y-99866510D01*
X176699500Y-100021153D01*
X176699500Y-100178846D01*
X176730261Y-100333489D01*
X176730264Y-100333501D01*
X176790602Y-100479172D01*
X176790609Y-100479185D01*
X176878210Y-100610288D01*
X176878213Y-100610292D01*
X176989707Y-100721786D01*
X176989711Y-100721789D01*
X177120814Y-100809390D01*
X177120827Y-100809397D01*
X177259497Y-100866835D01*
X177266503Y-100869737D01*
X177421153Y-100900499D01*
X177421156Y-100900500D01*
X177532326Y-100900500D01*
X177599365Y-100920185D01*
X177645120Y-100972989D01*
X177655064Y-101042147D01*
X177652102Y-101056587D01*
X177629499Y-101140943D01*
X177629499Y-101140945D01*
X177629499Y-101309046D01*
X177629500Y-101309059D01*
X177629500Y-101469903D01*
X177609815Y-101536942D01*
X177593181Y-101557584D01*
X177035339Y-102115425D01*
X176974016Y-102148910D01*
X176971850Y-102149361D01*
X176816508Y-102180261D01*
X176816498Y-102180264D01*
X176670827Y-102240602D01*
X176670814Y-102240609D01*
X176539711Y-102328210D01*
X176539707Y-102328213D01*
X176428213Y-102439707D01*
X176428210Y-102439711D01*
X176340609Y-102570814D01*
X176340602Y-102570827D01*
X176280264Y-102716498D01*
X176280261Y-102716510D01*
X176249500Y-102871153D01*
X176249500Y-103028846D01*
X176280261Y-103183489D01*
X176280264Y-103183501D01*
X176340602Y-103329172D01*
X176340609Y-103329185D01*
X176428210Y-103460288D01*
X176428213Y-103460292D01*
X176539707Y-103571786D01*
X176539711Y-103571789D01*
X176670814Y-103659390D01*
X176670818Y-103659392D01*
X176670821Y-103659394D01*
X176672991Y-103660292D01*
X176673952Y-103661067D01*
X176676191Y-103662264D01*
X176675964Y-103662688D01*
X176727396Y-103704130D01*
X176749465Y-103770423D01*
X176732189Y-103838123D01*
X176713225Y-103862537D01*
X175837181Y-104738582D01*
X175775858Y-104772067D01*
X175706167Y-104767083D01*
X175650233Y-104725211D01*
X175625816Y-104659747D01*
X175625500Y-104650901D01*
X175625500Y-95645945D01*
X175625500Y-95645943D01*
X175624903Y-95643716D01*
X175613981Y-95602955D01*
X175611506Y-95593716D01*
X175584577Y-95493216D01*
X175523953Y-95388211D01*
X175505524Y-95356290D01*
X175505521Y-95356286D01*
X175505520Y-95356284D01*
X175393716Y-95244480D01*
X175393715Y-95244479D01*
X175389385Y-95240149D01*
X175389374Y-95240139D01*
X170921416Y-90772181D01*
X170887931Y-90710858D01*
X170892915Y-90641166D01*
X170934787Y-90585233D01*
X171000251Y-90560816D01*
X171009097Y-90560500D01*
X171283479Y-90560500D01*
X171350518Y-90580185D01*
X171396273Y-90632989D01*
X171399661Y-90641167D01*
X171426202Y-90712328D01*
X171426206Y-90712335D01*
X171512452Y-90827544D01*
X171512455Y-90827547D01*
X171627664Y-90913793D01*
X171627671Y-90913797D01*
X171762517Y-90964091D01*
X171762516Y-90964091D01*
X171769444Y-90964835D01*
X171822127Y-90970500D01*
X172917872Y-90970499D01*
X172977483Y-90964091D01*
X173112331Y-90913796D01*
X173227546Y-90827546D01*
X173313796Y-90712331D01*
X173364091Y-90577483D01*
X173370500Y-90517873D01*
X173370499Y-89422128D01*
X173364091Y-89362517D01*
X173338615Y-89294213D01*
X173313797Y-89227671D01*
X173313793Y-89227664D01*
X173227547Y-89112455D01*
X173227544Y-89112452D01*
X173112335Y-89026206D01*
X173112328Y-89026202D01*
X172977482Y-88975908D01*
X172977483Y-88975908D01*
X172917883Y-88969501D01*
X172917881Y-88969500D01*
X172917873Y-88969500D01*
X172917864Y-88969500D01*
X171822129Y-88969500D01*
X171822123Y-88969501D01*
X171762516Y-88975908D01*
X171627671Y-89026202D01*
X171627664Y-89026206D01*
X171512455Y-89112452D01*
X171512452Y-89112455D01*
X171426206Y-89227664D01*
X171426201Y-89227673D01*
X171407121Y-89278832D01*
X171365250Y-89334766D01*
X171299786Y-89359184D01*
X171290939Y-89359500D01*
X171208874Y-89359500D01*
X171141835Y-89339815D01*
X171096080Y-89287011D01*
X171086136Y-89217853D01*
X171115161Y-89154297D01*
X171121193Y-89147819D01*
X171286019Y-88982993D01*
X171785255Y-88483755D01*
X171846576Y-88450272D01*
X171911250Y-88453506D01*
X171953534Y-88467246D01*
X172163490Y-88500500D01*
X172163491Y-88500500D01*
X172376063Y-88500500D01*
X172376064Y-88500500D01*
X172586020Y-88467246D01*
X172788189Y-88401557D01*
X172977593Y-88305051D01*
X173063915Y-88242335D01*
X173149563Y-88180109D01*
X173149565Y-88180106D01*
X173149569Y-88180104D01*
X173299881Y-88029792D01*
X173299883Y-88029788D01*
X173299886Y-88029786D01*
X173367292Y-87937007D01*
X173424828Y-87857816D01*
X173429570Y-87848508D01*
X173477540Y-87797711D01*
X173545360Y-87780911D01*
X173611496Y-87803445D01*
X173650540Y-87848500D01*
X173655150Y-87857547D01*
X173694505Y-87911716D01*
X174326814Y-87279408D01*
X174343852Y-87342993D01*
X174409678Y-87457007D01*
X174502770Y-87550099D01*
X174616784Y-87615925D01*
X174680367Y-87632962D01*
X174048059Y-88265269D01*
X174048059Y-88265270D01*
X174102226Y-88304624D01*
X174291559Y-88401095D01*
X174493647Y-88466757D01*
X174703531Y-88500000D01*
X174916023Y-88500000D01*
X175125904Y-88466757D01*
X175125907Y-88466757D01*
X175327994Y-88401095D01*
X175517331Y-88304622D01*
X175571493Y-88265270D01*
X175571494Y-88265270D01*
X174939185Y-87632962D01*
X175002770Y-87615925D01*
X175116784Y-87550099D01*
X175209876Y-87457007D01*
X175275702Y-87342993D01*
X175292739Y-87279408D01*
X175962958Y-87949628D01*
X175996443Y-88010951D01*
X175999277Y-88037300D01*
X175999277Y-88047865D01*
X175999278Y-88047876D01*
X176005685Y-88107483D01*
X176055979Y-88242328D01*
X176055983Y-88242335D01*
X176142229Y-88357544D01*
X176142232Y-88357547D01*
X176257441Y-88443793D01*
X176257448Y-88443797D01*
X176392294Y-88494091D01*
X176392293Y-88494091D01*
X176399221Y-88494835D01*
X176451904Y-88500500D01*
X178247649Y-88500499D01*
X178307260Y-88494091D01*
X178442108Y-88443796D01*
X178557323Y-88357546D01*
X178643573Y-88242331D01*
X178693868Y-88107483D01*
X178700277Y-88047873D01*
X178700276Y-86252128D01*
X178693868Y-86192517D01*
X178643573Y-86057669D01*
X178643572Y-86057668D01*
X178643570Y-86057664D01*
X178557324Y-85942455D01*
X178557321Y-85942452D01*
X178442112Y-85856206D01*
X178442105Y-85856202D01*
X178307259Y-85805908D01*
X178307260Y-85805908D01*
X178247660Y-85799501D01*
X178247658Y-85799500D01*
X178247650Y-85799500D01*
X178247641Y-85799500D01*
X176451906Y-85799500D01*
X176451900Y-85799501D01*
X176392293Y-85805908D01*
X176257448Y-85856202D01*
X176257441Y-85856206D01*
X176142232Y-85942452D01*
X176142229Y-85942455D01*
X176055983Y-86057664D01*
X176055979Y-86057671D01*
X176005685Y-86192517D01*
X175999278Y-86252116D01*
X175999278Y-86252123D01*
X175999277Y-86252135D01*
X175999277Y-86262690D01*
X175979592Y-86329729D01*
X175962958Y-86350371D01*
X175292739Y-87020590D01*
X175275702Y-86957007D01*
X175209876Y-86842993D01*
X175116784Y-86749901D01*
X175002770Y-86684075D01*
X174939186Y-86667037D01*
X175571493Y-86034728D01*
X175517327Y-85995375D01*
X175327994Y-85898904D01*
X175125906Y-85833242D01*
X174916023Y-85800000D01*
X174703531Y-85800000D01*
X174493649Y-85833242D01*
X174493646Y-85833242D01*
X174291559Y-85898904D01*
X174102216Y-85995380D01*
X174048059Y-86034727D01*
X174048059Y-86034728D01*
X174680368Y-86667037D01*
X174616784Y-86684075D01*
X174502770Y-86749901D01*
X174409678Y-86842993D01*
X174343852Y-86957007D01*
X174326814Y-87020591D01*
X173694505Y-86388282D01*
X173694504Y-86388282D01*
X173655157Y-86442440D01*
X173655153Y-86442446D01*
X173650537Y-86451505D01*
X173602558Y-86502297D01*
X173534736Y-86519087D01*
X173468603Y-86496543D01*
X173429571Y-86451493D01*
X173424828Y-86442184D01*
X173424826Y-86442181D01*
X173424825Y-86442179D01*
X173299886Y-86270213D01*
X173149563Y-86119890D01*
X172977597Y-85994951D01*
X172788191Y-85898444D01*
X172788190Y-85898443D01*
X172788189Y-85898443D01*
X172586020Y-85832754D01*
X172586018Y-85832753D01*
X172586017Y-85832753D01*
X172424734Y-85807208D01*
X172376064Y-85799500D01*
X172163490Y-85799500D01*
X172114819Y-85807208D01*
X171953537Y-85832753D01*
X171872644Y-85859037D01*
X171775873Y-85890480D01*
X171751362Y-85898444D01*
X171561956Y-85994951D01*
X171389990Y-86119890D01*
X171239667Y-86270213D01*
X171114726Y-86442182D01*
X171110261Y-86450946D01*
X171062286Y-86501742D01*
X170994465Y-86518536D01*
X170928330Y-86495998D01*
X170889293Y-86450946D01*
X170884827Y-86442182D01*
X170759886Y-86270213D01*
X170609563Y-86119890D01*
X170437597Y-85994951D01*
X170248191Y-85898444D01*
X170248190Y-85898443D01*
X170248189Y-85898443D01*
X170046020Y-85832754D01*
X170046018Y-85832753D01*
X170046017Y-85832753D01*
X169884734Y-85807208D01*
X169836064Y-85799500D01*
X169623490Y-85799500D01*
X169574819Y-85807208D01*
X169413537Y-85832753D01*
X169332644Y-85859037D01*
X169235873Y-85890480D01*
X169211362Y-85898444D01*
X169021956Y-85994951D01*
X168849990Y-86119890D01*
X168699667Y-86270213D01*
X168574726Y-86442182D01*
X168570261Y-86450946D01*
X168522286Y-86501742D01*
X168454465Y-86518536D01*
X168388330Y-86495998D01*
X168349293Y-86450946D01*
X168344827Y-86442182D01*
X168219886Y-86270213D01*
X168069563Y-86119890D01*
X167897597Y-85994951D01*
X167708191Y-85898444D01*
X167708190Y-85898443D01*
X167708189Y-85898443D01*
X167506020Y-85832754D01*
X167506018Y-85832753D01*
X167506017Y-85832753D01*
X167344734Y-85807208D01*
X167296064Y-85799500D01*
X167083490Y-85799500D01*
X167034819Y-85807208D01*
X166873537Y-85832753D01*
X166792644Y-85859037D01*
X166695873Y-85890480D01*
X166671362Y-85898444D01*
X166481956Y-85994951D01*
X166309990Y-86119890D01*
X166159667Y-86270213D01*
X166034726Y-86442182D01*
X166030261Y-86450946D01*
X165982286Y-86501742D01*
X165914465Y-86518536D01*
X165848330Y-86495998D01*
X165809293Y-86450946D01*
X165804827Y-86442182D01*
X165679886Y-86270213D01*
X165529563Y-86119890D01*
X165357597Y-85994951D01*
X165168191Y-85898444D01*
X165168190Y-85898443D01*
X165168189Y-85898443D01*
X164966020Y-85832754D01*
X164966018Y-85832753D01*
X164966017Y-85832753D01*
X164804734Y-85807208D01*
X164756064Y-85799500D01*
X164543490Y-85799500D01*
X164494819Y-85807208D01*
X164333537Y-85832753D01*
X164252644Y-85859037D01*
X164155873Y-85890480D01*
X164131362Y-85898444D01*
X163941956Y-85994951D01*
X163769990Y-86119890D01*
X163619667Y-86270213D01*
X163494726Y-86442182D01*
X163490261Y-86450946D01*
X163442286Y-86501742D01*
X163374465Y-86518536D01*
X163308330Y-86495998D01*
X163269293Y-86450946D01*
X163264827Y-86442182D01*
X163139886Y-86270213D01*
X162989563Y-86119890D01*
X162817597Y-85994951D01*
X162628191Y-85898444D01*
X162628190Y-85898443D01*
X162628189Y-85898443D01*
X162426020Y-85832754D01*
X162426018Y-85832753D01*
X162426017Y-85832753D01*
X162264734Y-85807208D01*
X162216064Y-85799500D01*
X162003490Y-85799500D01*
X161954819Y-85807208D01*
X161793537Y-85832753D01*
X161712644Y-85859037D01*
X161615873Y-85890480D01*
X161591362Y-85898444D01*
X161401956Y-85994951D01*
X161229990Y-86119890D01*
X161079667Y-86270213D01*
X160954726Y-86442182D01*
X160950261Y-86450946D01*
X160902286Y-86501742D01*
X160834465Y-86518536D01*
X160768330Y-86495998D01*
X160729293Y-86450946D01*
X160724827Y-86442182D01*
X160599886Y-86270213D01*
X160449563Y-86119890D01*
X160277597Y-85994951D01*
X160088191Y-85898444D01*
X160088190Y-85898443D01*
X160088189Y-85898443D01*
X159886020Y-85832754D01*
X159886018Y-85832753D01*
X159886017Y-85832753D01*
X159724734Y-85807208D01*
X159676064Y-85799500D01*
X159463490Y-85799500D01*
X159414819Y-85807208D01*
X159253537Y-85832753D01*
X159172644Y-85859037D01*
X159075873Y-85890480D01*
X159051362Y-85898444D01*
X158861956Y-85994951D01*
X158689990Y-86119890D01*
X158539667Y-86270213D01*
X158414726Y-86442182D01*
X158410261Y-86450946D01*
X158362286Y-86501742D01*
X158294465Y-86518536D01*
X158228330Y-86495998D01*
X158189293Y-86450946D01*
X158184827Y-86442182D01*
X158059886Y-86270213D01*
X157909563Y-86119890D01*
X157737597Y-85994951D01*
X157548191Y-85898444D01*
X157548190Y-85898443D01*
X157548189Y-85898443D01*
X157346020Y-85832754D01*
X157346018Y-85832753D01*
X157346017Y-85832753D01*
X157184734Y-85807208D01*
X157136064Y-85799500D01*
X156923490Y-85799500D01*
X156874819Y-85807208D01*
X156713537Y-85832753D01*
X156632644Y-85859037D01*
X156535873Y-85890480D01*
X156511362Y-85898444D01*
X156321956Y-85994951D01*
X156149990Y-86119890D01*
X155999667Y-86270213D01*
X155874726Y-86442182D01*
X155870261Y-86450946D01*
X155822286Y-86501742D01*
X155754465Y-86518536D01*
X155688330Y-86495998D01*
X155649293Y-86450946D01*
X155644827Y-86442182D01*
X155519886Y-86270213D01*
X155369563Y-86119890D01*
X155197597Y-85994951D01*
X155008191Y-85898444D01*
X155008190Y-85898443D01*
X155008189Y-85898443D01*
X154806020Y-85832754D01*
X154806018Y-85832753D01*
X154806017Y-85832753D01*
X154644734Y-85807208D01*
X154596064Y-85799500D01*
X154383490Y-85799500D01*
X154334819Y-85807208D01*
X154173537Y-85832753D01*
X154092644Y-85859037D01*
X153995873Y-85890480D01*
X153971362Y-85898444D01*
X153781956Y-85994951D01*
X153609990Y-86119890D01*
X153459667Y-86270213D01*
X153334726Y-86442182D01*
X153330261Y-86450946D01*
X153282286Y-86501742D01*
X153214465Y-86518536D01*
X153148330Y-86495998D01*
X153109293Y-86450946D01*
X153104827Y-86442182D01*
X152979886Y-86270213D01*
X152829563Y-86119890D01*
X152657597Y-85994951D01*
X152468191Y-85898444D01*
X152468190Y-85898443D01*
X152468189Y-85898443D01*
X152266020Y-85832754D01*
X152266018Y-85832753D01*
X152266017Y-85832753D01*
X152104734Y-85807208D01*
X152056064Y-85799500D01*
X151843490Y-85799500D01*
X151794819Y-85807208D01*
X151633537Y-85832753D01*
X151552644Y-85859037D01*
X151455873Y-85890480D01*
X151431362Y-85898444D01*
X151241956Y-85994951D01*
X151069990Y-86119890D01*
X150919667Y-86270213D01*
X150794726Y-86442182D01*
X150790261Y-86450946D01*
X150742286Y-86501742D01*
X150674465Y-86518536D01*
X150608330Y-86495998D01*
X150569293Y-86450946D01*
X150564827Y-86442182D01*
X150439886Y-86270213D01*
X150289563Y-86119890D01*
X150117597Y-85994951D01*
X149928191Y-85898444D01*
X149928190Y-85898443D01*
X149928189Y-85898443D01*
X149726020Y-85832754D01*
X149726018Y-85832753D01*
X149726017Y-85832753D01*
X149564734Y-85807208D01*
X149516064Y-85799500D01*
X149368874Y-85799500D01*
X149301835Y-85779815D01*
X149256080Y-85727011D01*
X149246136Y-85657853D01*
X149275161Y-85594297D01*
X149281193Y-85587819D01*
X149287072Y-85581940D01*
X149730520Y-85138493D01*
X149809577Y-85001561D01*
X149850501Y-84848834D01*
X149850501Y-84690719D01*
X149850501Y-84683124D01*
X149850500Y-84683106D01*
X149850500Y-84526098D01*
X149870185Y-84459059D01*
X149918204Y-84415613D01*
X149997815Y-84375051D01*
X150169791Y-84250104D01*
X150283328Y-84136566D01*
X150344647Y-84103084D01*
X150414339Y-84108068D01*
X150470273Y-84149939D01*
X150487188Y-84180917D01*
X150536201Y-84312328D01*
X150536205Y-84312335D01*
X150622451Y-84427544D01*
X150622454Y-84427547D01*
X150737663Y-84513793D01*
X150737670Y-84513797D01*
X150872516Y-84564091D01*
X150872515Y-84564091D01*
X150879443Y-84564835D01*
X150932126Y-84570500D01*
X152727871Y-84570499D01*
X152787482Y-84564091D01*
X152922330Y-84513796D01*
X153037545Y-84427546D01*
X153123795Y-84312331D01*
X153174090Y-84177483D01*
X153180499Y-84117873D01*
X153180498Y-83371051D01*
X159051718Y-83371051D01*
X159945937Y-83371051D01*
X159913024Y-83428058D01*
X159878949Y-83555225D01*
X159878949Y-83686877D01*
X159913024Y-83814044D01*
X159945937Y-83871051D01*
X159051718Y-83871051D01*
X159062191Y-83937177D01*
X159062191Y-83937180D01*
X159127853Y-84139268D01*
X159224328Y-84328608D01*
X159349221Y-84500510D01*
X159349225Y-84500515D01*
X159499484Y-84650774D01*
X159499489Y-84650778D01*
X159671391Y-84775671D01*
X159860731Y-84872146D01*
X160062820Y-84937808D01*
X160128949Y-84948282D01*
X160128949Y-84054063D01*
X160185956Y-84086976D01*
X160313123Y-84121051D01*
X160444775Y-84121051D01*
X160571942Y-84086976D01*
X160628949Y-84054063D01*
X160628949Y-84948281D01*
X160695075Y-84937808D01*
X160695078Y-84937808D01*
X160897166Y-84872146D01*
X161086506Y-84775671D01*
X161258408Y-84650778D01*
X161258413Y-84650774D01*
X161408672Y-84500515D01*
X161408676Y-84500510D01*
X161533569Y-84328608D01*
X161630044Y-84139268D01*
X161695706Y-83937180D01*
X161695706Y-83937177D01*
X161706180Y-83871051D01*
X160811961Y-83871051D01*
X160844874Y-83814044D01*
X160878949Y-83686877D01*
X160878949Y-83555225D01*
X160844874Y-83428058D01*
X160811961Y-83371051D01*
X161759795Y-83371051D01*
X161826834Y-83390736D01*
X161847475Y-83407369D01*
X161854944Y-83414838D01*
X161854948Y-83414841D01*
X161854950Y-83414843D01*
X161901626Y-83452459D01*
X162032540Y-83512246D01*
X162032541Y-83512246D01*
X162032543Y-83512247D01*
X162175000Y-83532728D01*
X162317457Y-83512247D01*
X162448373Y-83452459D01*
X162495056Y-83414840D01*
X162807063Y-83102833D01*
X162838743Y-83071153D01*
X164174500Y-83071153D01*
X164174500Y-83228846D01*
X164205261Y-83383489D01*
X164205264Y-83383501D01*
X164265602Y-83529172D01*
X164265609Y-83529185D01*
X164353210Y-83660288D01*
X164353213Y-83660292D01*
X164464707Y-83771786D01*
X164464711Y-83771789D01*
X164595814Y-83859390D01*
X164595827Y-83859397D01*
X164739849Y-83919052D01*
X164741503Y-83919737D01*
X164896153Y-83950499D01*
X164896156Y-83950500D01*
X164896158Y-83950500D01*
X165053844Y-83950500D01*
X165053845Y-83950499D01*
X165208497Y-83919737D01*
X165332770Y-83868262D01*
X165354172Y-83859397D01*
X165354172Y-83859396D01*
X165354179Y-83859394D01*
X165485289Y-83771789D01*
X165596789Y-83660289D01*
X165684394Y-83529179D01*
X165744737Y-83383497D01*
X165775500Y-83228842D01*
X165775500Y-83071158D01*
X165775500Y-83071155D01*
X165752357Y-82954813D01*
X165758584Y-82885222D01*
X165786291Y-82842942D01*
X170265891Y-78363342D01*
X170306113Y-78336466D01*
X170412141Y-78292550D01*
X170439369Y-78274356D01*
X170543838Y-78204554D01*
X170610515Y-78183676D01*
X170612728Y-78183656D01*
X172308059Y-78183656D01*
X172375098Y-78203341D01*
X172395740Y-78219975D01*
X176072488Y-81896724D01*
X176105973Y-81958047D01*
X176100989Y-82027739D01*
X176094173Y-82042844D01*
X176093568Y-82043975D01*
X176033226Y-82189654D01*
X176033223Y-82189666D01*
X176002462Y-82344309D01*
X176002462Y-82502002D01*
X176033223Y-82656645D01*
X176033226Y-82656657D01*
X176093564Y-82802328D01*
X176093571Y-82802341D01*
X176181172Y-82933444D01*
X176181175Y-82933448D01*
X176292669Y-83044942D01*
X176292673Y-83044945D01*
X176423776Y-83132546D01*
X176423789Y-83132553D01*
X176569460Y-83192891D01*
X176569465Y-83192893D01*
X176710526Y-83220952D01*
X176724115Y-83223655D01*
X176724118Y-83223656D01*
X176724120Y-83223656D01*
X176881806Y-83223656D01*
X176881807Y-83223655D01*
X177036459Y-83192893D01*
X177182141Y-83132550D01*
X177313251Y-83044945D01*
X177424751Y-82933445D01*
X177512356Y-82802335D01*
X177572699Y-82656653D01*
X177603462Y-82501998D01*
X177603462Y-82344314D01*
X177603462Y-82344311D01*
X177603461Y-82344309D01*
X177572700Y-82189666D01*
X177572699Y-82189659D01*
X177554220Y-82145046D01*
X177512359Y-82043983D01*
X177512352Y-82043970D01*
X177424361Y-81912282D01*
X177403483Y-81845604D01*
X177403463Y-81843391D01*
X177403463Y-81698906D01*
X177399079Y-81682544D01*
X177362539Y-81546178D01*
X177338733Y-81504944D01*
X177283486Y-81409252D01*
X177283480Y-81409244D01*
X173095746Y-77221511D01*
X173095744Y-77221508D01*
X172976873Y-77102637D01*
X172976872Y-77102636D01*
X172890060Y-77052516D01*
X172890060Y-77052515D01*
X172890056Y-77052514D01*
X172839941Y-77023579D01*
X172687213Y-76982655D01*
X172529099Y-76982655D01*
X172521503Y-76982655D01*
X172521487Y-76982656D01*
X170612728Y-76982656D01*
X170545689Y-76962971D01*
X170543837Y-76961758D01*
X170412147Y-76873765D01*
X170412134Y-76873758D01*
X170266463Y-76813420D01*
X170266451Y-76813417D01*
X170111807Y-76782656D01*
X170111804Y-76782656D01*
X169954120Y-76782656D01*
X169954117Y-76782656D01*
X169799472Y-76813417D01*
X169799460Y-76813420D01*
X169653789Y-76873758D01*
X169653776Y-76873765D01*
X169522673Y-76961366D01*
X169522669Y-76961369D01*
X169411175Y-77072863D01*
X169411172Y-77072867D01*
X169323571Y-77203970D01*
X169323564Y-77203983D01*
X169263226Y-77349654D01*
X169263223Y-77349666D01*
X169232462Y-77504309D01*
X169232462Y-77646940D01*
X169212777Y-77713979D01*
X169196143Y-77734621D01*
X164494481Y-82436282D01*
X164494475Y-82436290D01*
X164456417Y-82502209D01*
X164456416Y-82502213D01*
X164417735Y-82569210D01*
X164398031Y-82594889D01*
X164353212Y-82639708D01*
X164353208Y-82639714D01*
X164265609Y-82770814D01*
X164265602Y-82770827D01*
X164205264Y-82916498D01*
X164205261Y-82916510D01*
X164174500Y-83071153D01*
X162838743Y-83071153D01*
X162932511Y-82977385D01*
X163343900Y-82565995D01*
X163764838Y-82145056D01*
X163802459Y-82098373D01*
X163862247Y-81967457D01*
X163882728Y-81825000D01*
X163862247Y-81682543D01*
X163825437Y-81601942D01*
X163802460Y-81551629D01*
X163802459Y-81551628D01*
X163802459Y-81551627D01*
X163764840Y-81504944D01*
X163764835Y-81504939D01*
X163764831Y-81504934D01*
X162495059Y-80235165D01*
X162495053Y-80235160D01*
X162495049Y-80235156D01*
X162448373Y-80197540D01*
X162317459Y-80137753D01*
X162317455Y-80137752D01*
X162175000Y-80117272D01*
X162032544Y-80137752D01*
X162032540Y-80137753D01*
X161901629Y-80197539D01*
X161854934Y-80235168D01*
X160585165Y-81504940D01*
X160585156Y-81504950D01*
X160547540Y-81551626D01*
X160487753Y-81682540D01*
X160487752Y-81682544D01*
X160467272Y-81825000D01*
X160487752Y-81967455D01*
X160487753Y-81967459D01*
X160547540Y-82098372D01*
X160547541Y-82098374D01*
X160585151Y-82145045D01*
X160585151Y-82145046D01*
X160585154Y-82145049D01*
X160585160Y-82145056D01*
X160592628Y-82152524D01*
X160626114Y-82213842D01*
X160628949Y-82240206D01*
X160628949Y-83188039D01*
X160571942Y-83155126D01*
X160444775Y-83121051D01*
X160313123Y-83121051D01*
X160185956Y-83155126D01*
X160128949Y-83188039D01*
X160128949Y-82293819D01*
X160128948Y-82293819D01*
X160062824Y-82304292D01*
X159860733Y-82369954D01*
X159671391Y-82466430D01*
X159499489Y-82591323D01*
X159499484Y-82591327D01*
X159349225Y-82741586D01*
X159349221Y-82741591D01*
X159224328Y-82913493D01*
X159127853Y-83102833D01*
X159062191Y-83304921D01*
X159062191Y-83304924D01*
X159051718Y-83371051D01*
X153180498Y-83371051D01*
X153180498Y-83192894D01*
X153180498Y-82322129D01*
X153180497Y-82322123D01*
X153180474Y-82321912D01*
X153174090Y-82262517D01*
X153158371Y-82220373D01*
X153123796Y-82127671D01*
X153123794Y-82127668D01*
X153109678Y-82108811D01*
X153085261Y-82043346D01*
X153100113Y-81975073D01*
X153149518Y-81925668D01*
X153208945Y-81910500D01*
X157345849Y-81910500D01*
X157346133Y-81910480D01*
X157411991Y-81910482D01*
X157691075Y-81879040D01*
X157691082Y-81879038D01*
X157691091Y-81879037D01*
X157927855Y-81825000D01*
X157964884Y-81816549D01*
X158229974Y-81723793D01*
X158483012Y-81601940D01*
X158720815Y-81452522D01*
X158940394Y-81277417D01*
X158993096Y-81224715D01*
X158993101Y-81224713D01*
X159039691Y-81178123D01*
X159086284Y-81131531D01*
X159086284Y-81131529D01*
X159096489Y-81121325D01*
X159096493Y-81121320D01*
X168681387Y-71536425D01*
X172048700Y-71536425D01*
X172048700Y-71775974D01*
X172048701Y-71775990D01*
X172079968Y-72013491D01*
X172141972Y-72244893D01*
X172233646Y-72466213D01*
X172233651Y-72466224D01*
X172353424Y-72673675D01*
X172353430Y-72673683D01*
X172419308Y-72759537D01*
X173096536Y-72082309D01*
X173188776Y-72220355D01*
X173312045Y-72343624D01*
X173450089Y-72435862D01*
X172772861Y-73113089D01*
X172772861Y-73113090D01*
X172858716Y-73178969D01*
X172858724Y-73178975D01*
X173066175Y-73298748D01*
X173066186Y-73298753D01*
X173287506Y-73390427D01*
X173518908Y-73452431D01*
X173756409Y-73483698D01*
X173756426Y-73483700D01*
X173995974Y-73483700D01*
X173995990Y-73483698D01*
X174233491Y-73452431D01*
X174464893Y-73390427D01*
X174686213Y-73298753D01*
X174686224Y-73298748D01*
X174893689Y-73178967D01*
X174979537Y-73113092D01*
X174979537Y-73113089D01*
X174302310Y-72435862D01*
X174440355Y-72343624D01*
X174563624Y-72220355D01*
X174655862Y-72082310D01*
X175333089Y-72759537D01*
X175333092Y-72759537D01*
X175398967Y-72673689D01*
X175518748Y-72466224D01*
X175518753Y-72466213D01*
X175610427Y-72244893D01*
X175672431Y-72013491D01*
X175703698Y-71775990D01*
X175703700Y-71775974D01*
X175703700Y-71536425D01*
X181318700Y-71536425D01*
X181318700Y-71775974D01*
X181318701Y-71775990D01*
X181349968Y-72013491D01*
X181411972Y-72244893D01*
X181503646Y-72466213D01*
X181503651Y-72466224D01*
X181623424Y-72673675D01*
X181623430Y-72673683D01*
X181689308Y-72759537D01*
X182366536Y-72082309D01*
X182458776Y-72220355D01*
X182582045Y-72343624D01*
X182720089Y-72435862D01*
X182042861Y-73113089D01*
X182042861Y-73113090D01*
X182128716Y-73178969D01*
X182128724Y-73178975D01*
X182336175Y-73298748D01*
X182336186Y-73298753D01*
X182557506Y-73390427D01*
X182788908Y-73452431D01*
X183026409Y-73483698D01*
X183026426Y-73483700D01*
X183265974Y-73483700D01*
X183265990Y-73483698D01*
X183503491Y-73452431D01*
X183734893Y-73390427D01*
X183956213Y-73298753D01*
X183956224Y-73298748D01*
X184163689Y-73178967D01*
X184249537Y-73113092D01*
X184249537Y-73113089D01*
X183572310Y-72435862D01*
X183710355Y-72343624D01*
X183833624Y-72220355D01*
X183925862Y-72082310D01*
X184603089Y-72759537D01*
X184603092Y-72759537D01*
X184668967Y-72673689D01*
X184788748Y-72466224D01*
X184788753Y-72466213D01*
X184880427Y-72244893D01*
X184942431Y-72013491D01*
X184973698Y-71775990D01*
X184973700Y-71775974D01*
X184973700Y-71536425D01*
X184973698Y-71536409D01*
X184942431Y-71298908D01*
X184880427Y-71067506D01*
X184788753Y-70846186D01*
X184788748Y-70846175D01*
X184668975Y-70638724D01*
X184668969Y-70638716D01*
X184603090Y-70552861D01*
X184603089Y-70552861D01*
X183925862Y-71230088D01*
X183833624Y-71092045D01*
X183710355Y-70968776D01*
X183572308Y-70876536D01*
X184249537Y-70199308D01*
X184163683Y-70133430D01*
X184163675Y-70133424D01*
X183956224Y-70013651D01*
X183956213Y-70013646D01*
X183734893Y-69921972D01*
X183503491Y-69859968D01*
X183265990Y-69828701D01*
X183265974Y-69828700D01*
X183026426Y-69828700D01*
X183026409Y-69828701D01*
X182788908Y-69859968D01*
X182557506Y-69921972D01*
X182336186Y-70013646D01*
X182336182Y-70013648D01*
X182128709Y-70133434D01*
X182042861Y-70199307D01*
X182042861Y-70199308D01*
X182720089Y-70876536D01*
X182582045Y-70968776D01*
X182458776Y-71092045D01*
X182366536Y-71230089D01*
X181689308Y-70552861D01*
X181689307Y-70552861D01*
X181623434Y-70638709D01*
X181503648Y-70846182D01*
X181503646Y-70846186D01*
X181411972Y-71067506D01*
X181349968Y-71298908D01*
X181318701Y-71536409D01*
X181318700Y-71536425D01*
X175703700Y-71536425D01*
X175703698Y-71536409D01*
X175672431Y-71298908D01*
X175610427Y-71067506D01*
X175518753Y-70846186D01*
X175518748Y-70846175D01*
X175398975Y-70638724D01*
X175398969Y-70638716D01*
X175333090Y-70552861D01*
X175333089Y-70552861D01*
X174655862Y-71230088D01*
X174563624Y-71092045D01*
X174440355Y-70968776D01*
X174302308Y-70876536D01*
X174979537Y-70199308D01*
X174932888Y-70163513D01*
X174932886Y-70163510D01*
X174893693Y-70133436D01*
X174893675Y-70133424D01*
X174686224Y-70013651D01*
X174686213Y-70013646D01*
X174464893Y-69921972D01*
X174233491Y-69859968D01*
X173995990Y-69828701D01*
X173995974Y-69828700D01*
X173756426Y-69828700D01*
X173756409Y-69828701D01*
X173518908Y-69859968D01*
X173287506Y-69921972D01*
X173066186Y-70013646D01*
X173066182Y-70013648D01*
X172858709Y-70133434D01*
X172772861Y-70199307D01*
X172772861Y-70199308D01*
X173450089Y-70876536D01*
X173312045Y-70968776D01*
X173188776Y-71092045D01*
X173096536Y-71230089D01*
X172419308Y-70552861D01*
X172419307Y-70552861D01*
X172353434Y-70638709D01*
X172233648Y-70846182D01*
X172233646Y-70846186D01*
X172141972Y-71067506D01*
X172079968Y-71298908D01*
X172048701Y-71536409D01*
X172048700Y-71536425D01*
X168681387Y-71536425D01*
X173055243Y-67162569D01*
X173061131Y-67157054D01*
X173199492Y-67035716D01*
X173212337Y-67025860D01*
X173361935Y-66925901D01*
X173375961Y-66917803D01*
X173537317Y-66838229D01*
X173552282Y-66832030D01*
X173722658Y-66774192D01*
X173738294Y-66770002D01*
X173914764Y-66734895D01*
X173930819Y-66732781D01*
X174096383Y-66721924D01*
X174114055Y-66720766D01*
X174122168Y-66720500D01*
X177785514Y-66720500D01*
X177852553Y-66740185D01*
G37*
%TD.AperFunction*%
%TA.AperFunction,Conductor*%
G36*
X138841942Y-120470185D02*
G01*
X138862584Y-120486819D01*
X139919478Y-121543713D01*
X139919480Y-121543716D01*
X139923593Y-121547829D01*
X139941802Y-121581187D01*
X139957067Y-121609142D01*
X139957066Y-121609149D01*
X139957070Y-121609156D01*
X139954595Y-121643703D01*
X139952083Y-121678834D01*
X139952078Y-121678840D01*
X139952078Y-121678847D01*
X139930046Y-121708270D01*
X139910211Y-121734767D01*
X139910205Y-121734769D01*
X139910200Y-121734776D01*
X139877255Y-121747059D01*
X139844747Y-121759184D01*
X139844739Y-121759182D01*
X139844732Y-121759185D01*
X139835901Y-121759500D01*
X131220432Y-121759500D01*
X131153393Y-121739815D01*
X131109946Y-121691792D01*
X131105051Y-121682184D01*
X130980104Y-121510208D01*
X130866569Y-121396673D01*
X130833084Y-121335350D01*
X130838068Y-121265658D01*
X130879940Y-121209725D01*
X130910915Y-121192810D01*
X131042331Y-121143796D01*
X131157546Y-121057546D01*
X131243796Y-120942331D01*
X131294091Y-120807483D01*
X131300500Y-120747873D01*
X131300500Y-120574500D01*
X131320185Y-120507461D01*
X131372989Y-120461706D01*
X131424500Y-120450500D01*
X138774903Y-120450500D01*
X138841942Y-120470185D01*
G37*
%TD.AperFunction*%
%TA.AperFunction,Conductor*%
G36*
X152109185Y-114253050D02*
G01*
X152118147Y-114251762D01*
X152142187Y-114262740D01*
X152167539Y-114270185D01*
X152173466Y-114277025D01*
X152181703Y-114280787D01*
X152195992Y-114303021D01*
X152213294Y-114322989D01*
X152215581Y-114333503D01*
X152219477Y-114339565D01*
X152224500Y-114374500D01*
X152224500Y-114378846D01*
X152255261Y-114533489D01*
X152255264Y-114533501D01*
X152315602Y-114679172D01*
X152315609Y-114679185D01*
X152403210Y-114810288D01*
X152403213Y-114810292D01*
X152514707Y-114921786D01*
X152514711Y-114921789D01*
X152645814Y-115009390D01*
X152645818Y-115009392D01*
X152645821Y-115009394D01*
X152720406Y-115040288D01*
X152774808Y-115084127D01*
X152796873Y-115150421D01*
X152779594Y-115218120D01*
X152760633Y-115242529D01*
X149139984Y-118863181D01*
X149078661Y-118896666D01*
X149052303Y-118899500D01*
X145929766Y-118899500D01*
X145862727Y-118879815D01*
X145860875Y-118878602D01*
X145729185Y-118790609D01*
X145729172Y-118790602D01*
X145583501Y-118730264D01*
X145583489Y-118730261D01*
X145428845Y-118699500D01*
X145428842Y-118699500D01*
X145271158Y-118699500D01*
X145271155Y-118699500D01*
X145116510Y-118730261D01*
X145116498Y-118730264D01*
X144970827Y-118790602D01*
X144970814Y-118790609D01*
X144839711Y-118878210D01*
X144839707Y-118878213D01*
X144728213Y-118989707D01*
X144728210Y-118989711D01*
X144640609Y-119120814D01*
X144640602Y-119120827D01*
X144580264Y-119266498D01*
X144580261Y-119266510D01*
X144549500Y-119421153D01*
X144549500Y-119475500D01*
X144529815Y-119542539D01*
X144477011Y-119588294D01*
X144425500Y-119599500D01*
X141100097Y-119599500D01*
X141033058Y-119579815D01*
X141012416Y-119563181D01*
X140082819Y-118633584D01*
X140049334Y-118572261D01*
X140046500Y-118545903D01*
X140046500Y-116345718D01*
X140066185Y-116278679D01*
X140114207Y-116235233D01*
X140153815Y-116215052D01*
X140153815Y-116215051D01*
X140153816Y-116215051D01*
X140276633Y-116125820D01*
X140325786Y-116090109D01*
X140325788Y-116090106D01*
X140325792Y-116090104D01*
X140476104Y-115939792D01*
X140476106Y-115939788D01*
X140476109Y-115939786D01*
X140601048Y-115767820D01*
X140601047Y-115767820D01*
X140601051Y-115767816D01*
X140605514Y-115759054D01*
X140653488Y-115708259D01*
X140721308Y-115691463D01*
X140787444Y-115713999D01*
X140826486Y-115759056D01*
X140830951Y-115767820D01*
X140955890Y-115939786D01*
X141106213Y-116090109D01*
X141278179Y-116215048D01*
X141278181Y-116215049D01*
X141278184Y-116215051D01*
X141467588Y-116311557D01*
X141669757Y-116377246D01*
X141879713Y-116410500D01*
X141879714Y-116410500D01*
X142092286Y-116410500D01*
X142092287Y-116410500D01*
X142302243Y-116377246D01*
X142504412Y-116311557D01*
X142693816Y-116215051D01*
X142780138Y-116152335D01*
X142865786Y-116090109D01*
X142865788Y-116090106D01*
X142865792Y-116090104D01*
X143016104Y-115939792D01*
X143016106Y-115939788D01*
X143016109Y-115939786D01*
X143141048Y-115767820D01*
X143141047Y-115767820D01*
X143141051Y-115767816D01*
X143145514Y-115759054D01*
X143193488Y-115708259D01*
X143261308Y-115691463D01*
X143327444Y-115713999D01*
X143366486Y-115759056D01*
X143370951Y-115767820D01*
X143495890Y-115939786D01*
X143646213Y-116090109D01*
X143818179Y-116215048D01*
X143818181Y-116215049D01*
X143818184Y-116215051D01*
X144007588Y-116311557D01*
X144209757Y-116377246D01*
X144419713Y-116410500D01*
X144419714Y-116410500D01*
X144632286Y-116410500D01*
X144632287Y-116410500D01*
X144842243Y-116377246D01*
X145044412Y-116311557D01*
X145233816Y-116215051D01*
X145320138Y-116152335D01*
X145405786Y-116090109D01*
X145405788Y-116090106D01*
X145405792Y-116090104D01*
X145556104Y-115939792D01*
X145556106Y-115939788D01*
X145556109Y-115939786D01*
X145641890Y-115821717D01*
X145681051Y-115767816D01*
X145685793Y-115758508D01*
X145733763Y-115707711D01*
X145801583Y-115690911D01*
X145867719Y-115713445D01*
X145906763Y-115758500D01*
X145911373Y-115767547D01*
X145950728Y-115821716D01*
X146583036Y-115189407D01*
X146600075Y-115252993D01*
X146665901Y-115367007D01*
X146758993Y-115460099D01*
X146873007Y-115525925D01*
X146936590Y-115542962D01*
X146304282Y-116175269D01*
X146304282Y-116175270D01*
X146358449Y-116214624D01*
X146547782Y-116311095D01*
X146749870Y-116376757D01*
X146959754Y-116410000D01*
X147172246Y-116410000D01*
X147382127Y-116376757D01*
X147382130Y-116376757D01*
X147584217Y-116311095D01*
X147773554Y-116214622D01*
X147827716Y-116175270D01*
X147827717Y-116175270D01*
X147195408Y-115542962D01*
X147258993Y-115525925D01*
X147373007Y-115460099D01*
X147466099Y-115367007D01*
X147531925Y-115252993D01*
X147548962Y-115189409D01*
X148181270Y-115821717D01*
X148181270Y-115821716D01*
X148220622Y-115767554D01*
X148317095Y-115578217D01*
X148382757Y-115376130D01*
X148382757Y-115376127D01*
X148416000Y-115166246D01*
X148416000Y-114953753D01*
X148382757Y-114743872D01*
X148382757Y-114743869D01*
X148327873Y-114574954D01*
X148325878Y-114505113D01*
X148358123Y-114448954D01*
X148360285Y-114446791D01*
X148360289Y-114446789D01*
X148471789Y-114335289D01*
X148480008Y-114322989D01*
X148491621Y-114305609D01*
X148545233Y-114260804D01*
X148594723Y-114250500D01*
X152100500Y-114250500D01*
X152109185Y-114253050D01*
G37*
%TD.AperFunction*%
%TA.AperFunction,Conductor*%
G36*
X155459689Y-116170185D02*
G01*
X155505444Y-116222989D01*
X155515388Y-116292147D01*
X155495752Y-116343391D01*
X155410609Y-116470814D01*
X155410602Y-116470827D01*
X155350264Y-116616498D01*
X155350261Y-116616510D01*
X155319500Y-116771153D01*
X155319500Y-116928846D01*
X155350261Y-117083489D01*
X155350264Y-117083501D01*
X155410602Y-117229172D01*
X155410609Y-117229185D01*
X155498210Y-117360288D01*
X155498213Y-117360292D01*
X155609707Y-117471786D01*
X155609711Y-117471789D01*
X155740814Y-117559390D01*
X155740827Y-117559397D01*
X155886498Y-117619735D01*
X155886503Y-117619737D01*
X156012181Y-117644736D01*
X156041153Y-117650499D01*
X156041156Y-117650500D01*
X156174903Y-117650500D01*
X156241942Y-117670185D01*
X156262584Y-117686819D01*
X157340139Y-118764374D01*
X157340149Y-118764385D01*
X157344479Y-118768715D01*
X157344480Y-118768716D01*
X157456284Y-118880520D01*
X157540565Y-118929179D01*
X157593215Y-118959577D01*
X157597931Y-118960840D01*
X157609006Y-118966958D01*
X157628900Y-118987048D01*
X157650910Y-119004786D01*
X157653158Y-119011543D01*
X157658170Y-119016604D01*
X157664045Y-119044258D01*
X157672971Y-119071081D01*
X157671209Y-119077980D01*
X157672690Y-119084948D01*
X157662680Y-119111390D01*
X157655688Y-119138780D01*
X157650475Y-119143632D01*
X157647954Y-119150293D01*
X157625241Y-119167123D01*
X157604548Y-119186387D01*
X157596762Y-119188226D01*
X157591817Y-119191891D01*
X157577104Y-119192871D01*
X157549050Y-119199500D01*
X157225097Y-119199500D01*
X157158058Y-119179815D01*
X157137416Y-119163181D01*
X156087590Y-118113355D01*
X156087588Y-118113352D01*
X155968717Y-117994481D01*
X155968716Y-117994480D01*
X155866136Y-117935256D01*
X155866135Y-117935255D01*
X155831783Y-117915422D01*
X155775881Y-117900443D01*
X155679057Y-117874499D01*
X155520943Y-117874499D01*
X155513347Y-117874499D01*
X155513331Y-117874500D01*
X154182188Y-117874500D01*
X154115149Y-117854815D01*
X154069394Y-117802011D01*
X154059450Y-117732853D01*
X154088475Y-117669297D01*
X154134736Y-117635939D01*
X154259172Y-117584396D01*
X154259172Y-117584395D01*
X154259179Y-117584393D01*
X154390289Y-117496788D01*
X154501789Y-117385288D01*
X154589394Y-117254178D01*
X154649737Y-117108496D01*
X154680500Y-116953841D01*
X154680500Y-116796157D01*
X154680500Y-116796154D01*
X154680499Y-116796152D01*
X154657039Y-116678211D01*
X154649737Y-116641502D01*
X154628657Y-116590609D01*
X154589397Y-116495826D01*
X154589390Y-116495813D01*
X154501789Y-116364710D01*
X154501786Y-116364706D01*
X154499261Y-116362181D01*
X154498360Y-116360531D01*
X154497924Y-116360000D01*
X154498024Y-116359917D01*
X154465776Y-116300858D01*
X154470760Y-116231166D01*
X154512632Y-116175233D01*
X154578096Y-116150816D01*
X154586942Y-116150500D01*
X155392650Y-116150500D01*
X155459689Y-116170185D01*
G37*
%TD.AperFunction*%
%TA.AperFunction,Conductor*%
G36*
X158209098Y-116170185D02*
G01*
X158229740Y-116186819D01*
X158239707Y-116196786D01*
X158239711Y-116196789D01*
X158370814Y-116284390D01*
X158370827Y-116284397D01*
X158504369Y-116339711D01*
X158516503Y-116344737D01*
X158671153Y-116375499D01*
X158671156Y-116375500D01*
X158671158Y-116375500D01*
X158828844Y-116375500D01*
X158888641Y-116363605D01*
X158983497Y-116344737D01*
X158983499Y-116344735D01*
X158985193Y-116344399D01*
X159054784Y-116350626D01*
X159109962Y-116393488D01*
X159133207Y-116459378D01*
X159117140Y-116527375D01*
X159097066Y-116553697D01*
X158797600Y-116853163D01*
X158736277Y-116886648D01*
X158666585Y-116881664D01*
X158662467Y-116880043D01*
X158578501Y-116845263D01*
X158578489Y-116845260D01*
X158423845Y-116814499D01*
X158423842Y-116814499D01*
X158266158Y-116814499D01*
X158266155Y-116814499D01*
X158111510Y-116845260D01*
X158111498Y-116845263D01*
X157965827Y-116905601D01*
X157965814Y-116905608D01*
X157834711Y-116993209D01*
X157834707Y-116993212D01*
X157723213Y-117104706D01*
X157723210Y-117104710D01*
X157669260Y-117185452D01*
X157615647Y-117230257D01*
X157546322Y-117238964D01*
X157483295Y-117208809D01*
X157478477Y-117204242D01*
X156906470Y-116632235D01*
X156879590Y-116592006D01*
X156829397Y-116470827D01*
X156829390Y-116470814D01*
X156744248Y-116343391D01*
X156723370Y-116276714D01*
X156741854Y-116209334D01*
X156793833Y-116162643D01*
X156847350Y-116150500D01*
X158142059Y-116150500D01*
X158209098Y-116170185D01*
G37*
%TD.AperFunction*%
%TA.AperFunction,Conductor*%
G36*
X160659183Y-115556074D02*
G01*
X160670389Y-115554870D01*
X160692110Y-115565743D01*
X160715411Y-115572585D01*
X160722789Y-115581099D01*
X160732868Y-115586145D01*
X160745263Y-115607036D01*
X160761166Y-115625389D01*
X160762769Y-115636542D01*
X160768520Y-115646234D01*
X160767653Y-115670505D01*
X160771110Y-115694547D01*
X160766428Y-115704798D01*
X160766026Y-115716059D01*
X160752175Y-115736006D01*
X160742085Y-115758103D01*
X160731569Y-115765685D01*
X160726178Y-115773451D01*
X160695825Y-115791461D01*
X160685824Y-115795603D01*
X160685814Y-115795608D01*
X160554125Y-115883601D01*
X160487447Y-115904479D01*
X160485234Y-115904499D01*
X160074058Y-115904499D01*
X159915944Y-115904499D01*
X159763216Y-115945422D01*
X159763215Y-115945422D01*
X159763213Y-115945423D01*
X159763210Y-115945424D01*
X159726709Y-115966499D01*
X159726705Y-115966502D01*
X159685014Y-115990571D01*
X159617114Y-116007041D01*
X159551088Y-115984188D01*
X159507898Y-115929265D01*
X159501258Y-115859712D01*
X159508453Y-115835738D01*
X159519737Y-115808497D01*
X159541278Y-115700205D01*
X159550726Y-115652709D01*
X159583111Y-115590798D01*
X159643827Y-115556223D01*
X159672343Y-115552900D01*
X160648372Y-115552900D01*
X160659183Y-115556074D01*
G37*
%TD.AperFunction*%
%TA.AperFunction,Conductor*%
G36*
X168194342Y-112710385D02*
G01*
X168214984Y-112727019D01*
X168882339Y-113394374D01*
X168882349Y-113394385D01*
X168886679Y-113398715D01*
X168886680Y-113398716D01*
X168998484Y-113510520D01*
X168998486Y-113510521D01*
X168998490Y-113510524D01*
X169053552Y-113542314D01*
X169053558Y-113542316D01*
X169059628Y-113545821D01*
X169135415Y-113589577D01*
X169204626Y-113608122D01*
X169213108Y-113611817D01*
X169233094Y-113628529D01*
X169255342Y-113642090D01*
X169259466Y-113650581D01*
X169266709Y-113656637D01*
X169274487Y-113681503D01*
X169285871Y-113704937D01*
X169284750Y-113714309D01*
X169287569Y-113723320D01*
X169280668Y-113748445D01*
X169277576Y-113774313D01*
X169271565Y-113781592D01*
X169269066Y-113790695D01*
X169249680Y-113808099D01*
X169233091Y-113828191D01*
X169224098Y-113831065D01*
X169217075Y-113837371D01*
X169191358Y-113841531D01*
X169166539Y-113849465D01*
X169163588Y-113849500D01*
X164663297Y-113849500D01*
X164596258Y-113829815D01*
X164575616Y-113813181D01*
X164050790Y-113288355D01*
X164050788Y-113288352D01*
X164009398Y-113246962D01*
X163975913Y-113185639D01*
X163980897Y-113115947D01*
X164022769Y-113060014D01*
X164064983Y-113039507D01*
X164083385Y-113034577D01*
X164133504Y-113005639D01*
X164220316Y-112955520D01*
X164332120Y-112843716D01*
X164332120Y-112843714D01*
X164342328Y-112833507D01*
X164342331Y-112833503D01*
X164448818Y-112727018D01*
X164510141Y-112693534D01*
X164536498Y-112690700D01*
X168127303Y-112690700D01*
X168194342Y-112710385D01*
G37*
%TD.AperFunction*%
%TA.AperFunction,Conductor*%
G36*
X148168475Y-112483271D02*
G01*
X148224409Y-112525142D01*
X148239702Y-112551997D01*
X148240604Y-112554176D01*
X148240609Y-112554185D01*
X148328210Y-112685288D01*
X148328213Y-112685292D01*
X148439707Y-112796786D01*
X148439711Y-112796789D01*
X148478037Y-112822398D01*
X148522842Y-112876010D01*
X148531549Y-112945335D01*
X148501395Y-113008363D01*
X148441952Y-113045082D01*
X148409146Y-113049500D01*
X148066736Y-113049500D01*
X148054027Y-113048847D01*
X148048249Y-113048251D01*
X147928842Y-113024500D01*
X147817725Y-113024500D01*
X147811387Y-113023847D01*
X147784707Y-113012934D01*
X147757057Y-113004815D01*
X147752773Y-112999872D01*
X147746718Y-112997395D01*
X147730171Y-112973787D01*
X147711302Y-112952011D01*
X147710371Y-112945537D01*
X147706616Y-112940180D01*
X147705459Y-112911378D01*
X147701358Y-112882853D01*
X147704075Y-112876902D01*
X147703813Y-112870366D01*
X147718410Y-112845513D01*
X147730383Y-112819297D01*
X147736415Y-112812819D01*
X147884845Y-112664389D01*
X148037463Y-112511770D01*
X148098784Y-112478287D01*
X148168475Y-112483271D01*
G37*
%TD.AperFunction*%
%TA.AperFunction,Conductor*%
G36*
X169087273Y-109995185D02*
G01*
X169089124Y-109996398D01*
X169166514Y-110048108D01*
X169211320Y-110101720D01*
X169220027Y-110171045D01*
X169189873Y-110234072D01*
X169166516Y-110254311D01*
X169060113Y-110325408D01*
X169060107Y-110325413D01*
X168948613Y-110436907D01*
X168948607Y-110436915D01*
X168910204Y-110494390D01*
X168856592Y-110539196D01*
X168807102Y-110549500D01*
X160850939Y-110549500D01*
X160837092Y-110553210D01*
X160837093Y-110553211D01*
X160698214Y-110590423D01*
X160698209Y-110590426D01*
X160561290Y-110669475D01*
X160561282Y-110669481D01*
X160542583Y-110688181D01*
X160515655Y-110702884D01*
X160489837Y-110719477D01*
X160483636Y-110720368D01*
X160481260Y-110721666D01*
X160454902Y-110724500D01*
X160329766Y-110724500D01*
X160262727Y-110704815D01*
X160260875Y-110703602D01*
X160129185Y-110615609D01*
X160129172Y-110615602D01*
X159983501Y-110555264D01*
X159983489Y-110555261D01*
X159828845Y-110524500D01*
X159828842Y-110524500D01*
X159671158Y-110524500D01*
X159671155Y-110524500D01*
X159516510Y-110555261D01*
X159516498Y-110555264D01*
X159370827Y-110615602D01*
X159370814Y-110615609D01*
X159239711Y-110703210D01*
X159239707Y-110703213D01*
X159128213Y-110814707D01*
X159128210Y-110814711D01*
X159040609Y-110945814D01*
X159040602Y-110945827D01*
X158980264Y-111091498D01*
X158980261Y-111091510D01*
X158949500Y-111246153D01*
X158949500Y-111403846D01*
X158980261Y-111558489D01*
X158980264Y-111558501D01*
X159040602Y-111704172D01*
X159040609Y-111704185D01*
X159128210Y-111835288D01*
X159128213Y-111835292D01*
X159239707Y-111946786D01*
X159239711Y-111946789D01*
X159370814Y-112034390D01*
X159370826Y-112034397D01*
X159463560Y-112072807D01*
X159504429Y-112089735D01*
X159558832Y-112133575D01*
X159578593Y-112180101D01*
X159580262Y-112188494D01*
X159580264Y-112188500D01*
X159640602Y-112334171D01*
X159640609Y-112334184D01*
X159728210Y-112465287D01*
X159728213Y-112465291D01*
X159839707Y-112576785D01*
X159839711Y-112576788D01*
X159970814Y-112664389D01*
X159970827Y-112664396D01*
X160081856Y-112710385D01*
X160116503Y-112724736D01*
X160163105Y-112734005D01*
X160240644Y-112749430D01*
X160247678Y-112753109D01*
X160255612Y-112753393D01*
X160278195Y-112769072D01*
X160302555Y-112781815D01*
X160307944Y-112789727D01*
X160313005Y-112793241D01*
X160331014Y-112823595D01*
X160353569Y-112878048D01*
X160361038Y-112947517D01*
X160329763Y-113009996D01*
X160269674Y-113045648D01*
X160239008Y-113049500D01*
X149490854Y-113049500D01*
X149423815Y-113029815D01*
X149378060Y-112977011D01*
X149368116Y-112907853D01*
X149397141Y-112844297D01*
X149421963Y-112822398D01*
X149436298Y-112812819D01*
X149460289Y-112796789D01*
X149571789Y-112685289D01*
X149659394Y-112554179D01*
X149719737Y-112408497D01*
X149750500Y-112253842D01*
X149750638Y-112253150D01*
X149783023Y-112191239D01*
X149784518Y-112189716D01*
X151962416Y-110011819D01*
X152023739Y-109978334D01*
X152050097Y-109975500D01*
X169020234Y-109975500D01*
X169087273Y-109995185D01*
G37*
%TD.AperFunction*%
%TA.AperFunction,Conductor*%
G36*
X169667542Y-99019785D02*
G01*
X169688184Y-99036419D01*
X170783181Y-100131416D01*
X170816666Y-100192739D01*
X170819500Y-100219097D01*
X170819500Y-102721594D01*
X170799815Y-102788633D01*
X170747011Y-102834388D01*
X170677853Y-102844332D01*
X170614297Y-102815307D01*
X170592398Y-102790486D01*
X170551786Y-102729707D01*
X170440292Y-102618213D01*
X170440288Y-102618210D01*
X170309185Y-102530609D01*
X170309172Y-102530602D01*
X170163501Y-102470264D01*
X170163489Y-102470261D01*
X170008845Y-102439500D01*
X170008842Y-102439500D01*
X169851158Y-102439500D01*
X169851155Y-102439500D01*
X169696510Y-102470261D01*
X169696498Y-102470264D01*
X169550827Y-102530602D01*
X169550814Y-102530609D01*
X169419125Y-102618602D01*
X169352447Y-102639480D01*
X169350234Y-102639500D01*
X164630097Y-102639500D01*
X164563058Y-102619815D01*
X164542416Y-102603181D01*
X163335416Y-101396181D01*
X163301931Y-101334858D01*
X163306915Y-101265166D01*
X163348787Y-101209233D01*
X163414251Y-101184816D01*
X163423097Y-101184500D01*
X165597537Y-101184500D01*
X165605140Y-101184500D01*
X165605143Y-101184501D01*
X165619380Y-101184501D01*
X165655239Y-101195032D01*
X165686413Y-101204186D01*
X165686414Y-101204188D01*
X165686418Y-101204189D01*
X165715839Y-101238145D01*
X165732168Y-101256990D01*
X165732169Y-101256993D01*
X165732171Y-101256995D01*
X165732171Y-101256997D01*
X165733934Y-101261046D01*
X165736806Y-101267979D01*
X165736807Y-101267981D01*
X165736809Y-101267984D01*
X165824410Y-101399089D01*
X165935907Y-101510586D01*
X165935911Y-101510589D01*
X166067014Y-101598190D01*
X166067027Y-101598197D01*
X166212698Y-101658535D01*
X166212703Y-101658537D01*
X166367353Y-101689299D01*
X166367356Y-101689300D01*
X166367358Y-101689300D01*
X166525044Y-101689300D01*
X166525045Y-101689299D01*
X166679697Y-101658537D01*
X166825379Y-101598194D01*
X166956489Y-101510589D01*
X167067989Y-101399089D01*
X167155594Y-101267979D01*
X167189669Y-101185710D01*
X167216545Y-101145488D01*
X168389016Y-99973019D01*
X168450339Y-99939534D01*
X168476697Y-99936700D01*
X168506244Y-99936700D01*
X168506245Y-99936699D01*
X168660897Y-99905937D01*
X168806579Y-99845594D01*
X168937689Y-99757989D01*
X169049189Y-99646489D01*
X169136794Y-99515379D01*
X169197137Y-99369697D01*
X169227900Y-99215042D01*
X169227900Y-99124100D01*
X169230450Y-99115414D01*
X169229162Y-99106453D01*
X169240140Y-99082412D01*
X169247585Y-99057061D01*
X169254425Y-99051133D01*
X169258187Y-99042897D01*
X169280421Y-99028607D01*
X169300389Y-99011306D01*
X169310903Y-99009018D01*
X169316965Y-99005123D01*
X169351900Y-99000100D01*
X169600503Y-99000100D01*
X169667542Y-99019785D01*
G37*
%TD.AperFunction*%
%TA.AperFunction,Conductor*%
G36*
X166711142Y-98495185D02*
G01*
X166756897Y-98547989D01*
X166766841Y-98617147D01*
X166737816Y-98680703D01*
X166731784Y-98687181D01*
X165471784Y-99947181D01*
X165410461Y-99980666D01*
X165384103Y-99983500D01*
X164284500Y-99983500D01*
X164217461Y-99963815D01*
X164171706Y-99911011D01*
X164160500Y-99859500D01*
X164160499Y-98932129D01*
X164160498Y-98932123D01*
X164160497Y-98932116D01*
X164154091Y-98872517D01*
X164152848Y-98869185D01*
X164103797Y-98737671D01*
X164103795Y-98737668D01*
X164097435Y-98729172D01*
X164055991Y-98673810D01*
X164031574Y-98608348D01*
X164046425Y-98540075D01*
X164095830Y-98490669D01*
X164155258Y-98475500D01*
X166644103Y-98475500D01*
X166711142Y-98495185D01*
G37*
%TD.AperFunction*%
%TA.AperFunction,Conductor*%
G36*
X153291221Y-87803999D02*
G01*
X153330261Y-87849054D01*
X153334368Y-87857115D01*
X153334728Y-87857820D01*
X153459667Y-88029786D01*
X153609990Y-88180109D01*
X153781961Y-88305051D01*
X153781961Y-88305052D01*
X153821570Y-88325233D01*
X153832633Y-88335681D01*
X153846480Y-88342005D01*
X153857521Y-88359185D01*
X153872367Y-88373206D01*
X153876608Y-88388886D01*
X153884254Y-88400783D01*
X153889277Y-88435718D01*
X153889277Y-88617107D01*
X153889276Y-88617125D01*
X153889276Y-88782831D01*
X153889275Y-88782831D01*
X153889276Y-88782834D01*
X153930200Y-88935562D01*
X153949795Y-88969501D01*
X154009256Y-89072491D01*
X154009258Y-89072494D01*
X154128126Y-89191362D01*
X154128132Y-89191367D01*
X157751139Y-92814374D01*
X157751149Y-92814385D01*
X157755479Y-92818715D01*
X157755480Y-92818716D01*
X157867284Y-92930520D01*
X157867286Y-92930521D01*
X157867290Y-92930524D01*
X158004209Y-93009573D01*
X158004216Y-93009577D01*
X158116019Y-93039534D01*
X158156942Y-93050500D01*
X158156943Y-93050500D01*
X166874903Y-93050500D01*
X166941942Y-93070185D01*
X166962584Y-93086819D01*
X168138584Y-94262819D01*
X168172069Y-94324142D01*
X168167085Y-94393834D01*
X168125213Y-94449767D01*
X168059749Y-94474184D01*
X168050903Y-94474500D01*
X164982940Y-94474500D01*
X164915901Y-94454815D01*
X164895263Y-94438185D01*
X164835289Y-94378211D01*
X164835288Y-94378210D01*
X164835287Y-94378209D01*
X164704185Y-94290609D01*
X164704172Y-94290602D01*
X164558501Y-94230264D01*
X164558489Y-94230261D01*
X164403845Y-94199500D01*
X164403842Y-94199500D01*
X164246158Y-94199500D01*
X164246155Y-94199500D01*
X164091510Y-94230261D01*
X164091498Y-94230264D01*
X163945827Y-94290602D01*
X163945814Y-94290609D01*
X163814711Y-94378210D01*
X163814707Y-94378213D01*
X163703213Y-94489707D01*
X163703210Y-94489711D01*
X163615609Y-94620814D01*
X163615602Y-94620827D01*
X163555264Y-94766498D01*
X163555261Y-94766510D01*
X163524500Y-94921153D01*
X163524500Y-95078846D01*
X163555261Y-95233489D01*
X163555264Y-95233501D01*
X163615602Y-95379172D01*
X163615609Y-95379185D01*
X163703210Y-95510288D01*
X163703213Y-95510292D01*
X163814707Y-95621786D01*
X163814711Y-95621789D01*
X163945817Y-95709392D01*
X163945819Y-95709393D01*
X163945821Y-95709394D01*
X163969476Y-95719192D01*
X164009704Y-95746072D01*
X164071580Y-95807948D01*
X164071584Y-95807951D01*
X164194498Y-95890080D01*
X164194511Y-95890087D01*
X164300566Y-95934016D01*
X164331087Y-95946658D01*
X164331091Y-95946658D01*
X164331092Y-95946659D01*
X164476079Y-95975500D01*
X164476082Y-95975500D01*
X168399684Y-95975500D01*
X168447136Y-95984939D01*
X168489574Y-96002517D01*
X168591503Y-96044737D01*
X168740698Y-96074414D01*
X168746153Y-96075499D01*
X168746156Y-96075500D01*
X168746158Y-96075500D01*
X168903844Y-96075500D01*
X168903845Y-96075499D01*
X169058497Y-96044737D01*
X169204179Y-95984394D01*
X169335289Y-95896789D01*
X169446789Y-95785289D01*
X169448668Y-95782475D01*
X169450033Y-95781335D01*
X169450649Y-95780585D01*
X169450791Y-95780701D01*
X169502278Y-95737672D01*
X169571602Y-95728963D01*
X169634631Y-95759117D01*
X169639451Y-95763686D01*
X170338584Y-96462819D01*
X170372069Y-96524142D01*
X170367085Y-96593834D01*
X170325213Y-96649767D01*
X170259749Y-96674184D01*
X170250903Y-96674500D01*
X161867772Y-96674500D01*
X161800733Y-96654815D01*
X161754978Y-96602011D01*
X161745034Y-96532853D01*
X161768505Y-96476189D01*
X161823796Y-96402331D01*
X161874091Y-96267483D01*
X161880500Y-96207873D01*
X161880499Y-95112128D01*
X161874897Y-95060011D01*
X161874091Y-95052516D01*
X161823797Y-94917671D01*
X161823793Y-94917664D01*
X161737547Y-94802455D01*
X161737544Y-94802452D01*
X161622335Y-94716206D01*
X161622328Y-94716202D01*
X161487482Y-94665908D01*
X161487483Y-94665908D01*
X161427883Y-94659501D01*
X161427881Y-94659500D01*
X161427873Y-94659500D01*
X161427864Y-94659500D01*
X160332129Y-94659500D01*
X160332123Y-94659501D01*
X160272516Y-94665908D01*
X160137671Y-94716202D01*
X160137664Y-94716206D01*
X160022455Y-94802452D01*
X160022452Y-94802455D01*
X159936206Y-94917664D01*
X159936202Y-94917671D01*
X159885908Y-95052517D01*
X159883078Y-95078846D01*
X159879501Y-95112123D01*
X159879500Y-95112135D01*
X159879500Y-96207870D01*
X159879501Y-96207876D01*
X159885908Y-96267483D01*
X159936202Y-96402328D01*
X159936204Y-96402331D01*
X159991494Y-96476189D01*
X160015912Y-96541652D01*
X160001061Y-96609925D01*
X159951656Y-96659331D01*
X159892228Y-96674500D01*
X157850098Y-96674500D01*
X157783059Y-96654815D01*
X157762417Y-96638181D01*
X157573768Y-96449532D01*
X157540283Y-96388209D01*
X157545267Y-96318517D01*
X157587139Y-96262584D01*
X157592526Y-96258770D01*
X157685289Y-96196789D01*
X157796789Y-96085289D01*
X157884394Y-95954179D01*
X157885452Y-95951626D01*
X157907415Y-95898602D01*
X157944737Y-95808497D01*
X157975500Y-95653842D01*
X157975500Y-95496158D01*
X157975500Y-95496155D01*
X157975499Y-95496153D01*
X157954028Y-95388211D01*
X157944737Y-95341503D01*
X157927797Y-95300606D01*
X157884397Y-95195827D01*
X157884390Y-95195814D01*
X157796789Y-95064711D01*
X157796786Y-95064707D01*
X157685292Y-94953213D01*
X157685288Y-94953210D01*
X157554185Y-94865609D01*
X157554179Y-94865606D01*
X157509811Y-94847228D01*
X157469584Y-94820348D01*
X156286819Y-93637583D01*
X156253334Y-93576260D01*
X156250500Y-93549902D01*
X156250500Y-92883365D01*
X156270185Y-92816326D01*
X156271398Y-92814474D01*
X156288099Y-92789480D01*
X156359394Y-92682779D01*
X156419737Y-92537097D01*
X156450500Y-92382442D01*
X156450500Y-92224758D01*
X156450500Y-92224755D01*
X156450499Y-92224753D01*
X156447512Y-92209735D01*
X156419737Y-92070103D01*
X156390907Y-92000500D01*
X156359397Y-91924427D01*
X156359390Y-91924414D01*
X156271789Y-91793311D01*
X156271786Y-91793307D01*
X156160292Y-91681813D01*
X156160288Y-91681810D01*
X156029185Y-91594209D01*
X156029172Y-91594202D01*
X155883501Y-91533864D01*
X155883489Y-91533861D01*
X155728845Y-91503100D01*
X155728842Y-91503100D01*
X155571158Y-91503100D01*
X155571155Y-91503100D01*
X155416510Y-91533861D01*
X155416498Y-91533864D01*
X155270827Y-91594202D01*
X155270814Y-91594209D01*
X155139711Y-91681810D01*
X155139707Y-91681813D01*
X155028213Y-91793307D01*
X155028210Y-91793311D01*
X154940609Y-91924414D01*
X154940602Y-91924427D01*
X154880264Y-92070098D01*
X154880261Y-92070110D01*
X154849500Y-92224753D01*
X154849500Y-92382446D01*
X154880261Y-92537089D01*
X154880264Y-92537101D01*
X154940602Y-92682772D01*
X154940609Y-92682785D01*
X155028602Y-92814474D01*
X155049480Y-92881151D01*
X155049500Y-92883365D01*
X155049500Y-93625902D01*
X155029815Y-93692941D01*
X154977011Y-93738696D01*
X154907853Y-93748640D01*
X154844297Y-93719615D01*
X154837819Y-93713583D01*
X150046596Y-88922360D01*
X150013111Y-88861037D01*
X150010277Y-88834679D01*
X150010277Y-88435718D01*
X150029962Y-88368679D01*
X150077984Y-88325233D01*
X150117592Y-88305052D01*
X150117592Y-88305051D01*
X150117593Y-88305051D01*
X150233137Y-88221104D01*
X150289563Y-88180109D01*
X150289565Y-88180106D01*
X150289569Y-88180104D01*
X150439881Y-88029792D01*
X150439883Y-88029788D01*
X150439886Y-88029786D01*
X150564825Y-87857820D01*
X150564824Y-87857820D01*
X150564828Y-87857816D01*
X150569291Y-87849054D01*
X150617265Y-87798259D01*
X150685085Y-87781463D01*
X150751221Y-87803999D01*
X150790261Y-87849054D01*
X150794368Y-87857115D01*
X150794728Y-87857820D01*
X150919667Y-88029786D01*
X151069990Y-88180109D01*
X151241956Y-88305048D01*
X151241958Y-88305049D01*
X151241961Y-88305051D01*
X151431365Y-88401557D01*
X151633534Y-88467246D01*
X151843490Y-88500500D01*
X151843491Y-88500500D01*
X152056063Y-88500500D01*
X152056064Y-88500500D01*
X152266020Y-88467246D01*
X152468189Y-88401557D01*
X152657593Y-88305051D01*
X152743915Y-88242335D01*
X152829563Y-88180109D01*
X152829565Y-88180106D01*
X152829569Y-88180104D01*
X152979881Y-88029792D01*
X152979883Y-88029788D01*
X152979886Y-88029786D01*
X153104825Y-87857820D01*
X153104824Y-87857820D01*
X153104828Y-87857816D01*
X153109291Y-87849054D01*
X153157265Y-87798259D01*
X153225085Y-87781463D01*
X153291221Y-87803999D01*
G37*
%TD.AperFunction*%
%TA.AperFunction,Conductor*%
G36*
X155831221Y-87803999D02*
G01*
X155870261Y-87849054D01*
X155874368Y-87857115D01*
X155874728Y-87857820D01*
X155999667Y-88029786D01*
X156149990Y-88180109D01*
X156321959Y-88305050D01*
X156321961Y-88305051D01*
X156362363Y-88325637D01*
X156371794Y-88330442D01*
X156382857Y-88340891D01*
X156396703Y-88347214D01*
X156407744Y-88364395D01*
X156422590Y-88378416D01*
X156426831Y-88394095D01*
X156434477Y-88405992D01*
X156439500Y-88440927D01*
X156439500Y-88627330D01*
X156439499Y-88627348D01*
X156439499Y-88793054D01*
X156439498Y-88793054D01*
X156480424Y-88945789D01*
X156480425Y-88945790D01*
X156504791Y-88987992D01*
X156504792Y-88987994D01*
X156559475Y-89082709D01*
X156559481Y-89082717D01*
X156678349Y-89201585D01*
X156678355Y-89201590D01*
X159114584Y-91637819D01*
X159148069Y-91699142D01*
X159143085Y-91768834D01*
X159101213Y-91824767D01*
X159035749Y-91849184D01*
X159026903Y-91849500D01*
X158536097Y-91849500D01*
X158469058Y-91829815D01*
X158448416Y-91813181D01*
X155147820Y-88512585D01*
X155114335Y-88451262D01*
X155119319Y-88381570D01*
X155161191Y-88325637D01*
X155179202Y-88314421D01*
X155197593Y-88305051D01*
X155283915Y-88242335D01*
X155369563Y-88180109D01*
X155369565Y-88180106D01*
X155369569Y-88180104D01*
X155519881Y-88029792D01*
X155519883Y-88029788D01*
X155519886Y-88029786D01*
X155644825Y-87857820D01*
X155644824Y-87857820D01*
X155644828Y-87857816D01*
X155649291Y-87849054D01*
X155697265Y-87798259D01*
X155765085Y-87781463D01*
X155831221Y-87803999D01*
G37*
%TD.AperFunction*%
%TA.AperFunction,Conductor*%
G36*
X158371221Y-87803999D02*
G01*
X158410261Y-87849054D01*
X158414368Y-87857115D01*
X158414728Y-87857820D01*
X158539667Y-88029786D01*
X158689990Y-88180109D01*
X158861961Y-88305051D01*
X158861961Y-88305052D01*
X158901570Y-88325233D01*
X158912633Y-88335681D01*
X158926480Y-88342005D01*
X158937521Y-88359185D01*
X158952367Y-88373206D01*
X158956608Y-88388886D01*
X158964254Y-88400783D01*
X158969277Y-88435718D01*
X158969277Y-88527607D01*
X158969276Y-88527625D01*
X158969276Y-88693331D01*
X158969275Y-88693331D01*
X158969276Y-88693334D01*
X159010200Y-88846062D01*
X159029954Y-88880277D01*
X159085166Y-88975908D01*
X159089258Y-88982994D01*
X159208126Y-89101862D01*
X159208132Y-89101867D01*
X160969084Y-90862819D01*
X161002569Y-90924142D01*
X160997585Y-90993834D01*
X160955713Y-91049767D01*
X160890249Y-91074184D01*
X160881403Y-91074500D01*
X160301097Y-91074500D01*
X160234058Y-91054815D01*
X160213416Y-91038181D01*
X157687820Y-88512585D01*
X157654335Y-88451262D01*
X157659319Y-88381570D01*
X157701191Y-88325637D01*
X157719200Y-88314422D01*
X157737593Y-88305051D01*
X157853137Y-88221104D01*
X157909563Y-88180109D01*
X157909565Y-88180106D01*
X157909569Y-88180104D01*
X158059881Y-88029792D01*
X158059883Y-88029788D01*
X158059886Y-88029786D01*
X158184825Y-87857820D01*
X158184824Y-87857820D01*
X158184828Y-87857816D01*
X158189291Y-87849054D01*
X158237265Y-87798259D01*
X158305085Y-87781463D01*
X158371221Y-87803999D01*
G37*
%TD.AperFunction*%
%TA.AperFunction,Conductor*%
G36*
X160911221Y-87803999D02*
G01*
X160950261Y-87849054D01*
X160954368Y-87857115D01*
X160954728Y-87857820D01*
X161079667Y-88029786D01*
X161229990Y-88180109D01*
X161401961Y-88305051D01*
X161401961Y-88305052D01*
X161441570Y-88325233D01*
X161452633Y-88335681D01*
X161466480Y-88342005D01*
X161477521Y-88359185D01*
X161492367Y-88373206D01*
X161496608Y-88388886D01*
X161504254Y-88400783D01*
X161509277Y-88435718D01*
X161509277Y-88617107D01*
X161509276Y-88617125D01*
X161509276Y-88782831D01*
X161509275Y-88782831D01*
X161509276Y-88782834D01*
X161550200Y-88935562D01*
X161569795Y-88969501D01*
X161629256Y-89072491D01*
X161629258Y-89072494D01*
X161748126Y-89191362D01*
X161748132Y-89191367D01*
X162694583Y-90137819D01*
X162728068Y-90199142D01*
X162723084Y-90268834D01*
X162681212Y-90324767D01*
X162615748Y-90349184D01*
X162606902Y-90349500D01*
X162205597Y-90349500D01*
X162138558Y-90329815D01*
X162117916Y-90313181D01*
X160283062Y-88478327D01*
X160249577Y-88417004D01*
X160254561Y-88347312D01*
X160296433Y-88291379D01*
X160297796Y-88290372D01*
X160449569Y-88180104D01*
X160599881Y-88029792D01*
X160599883Y-88029788D01*
X160599886Y-88029786D01*
X160724825Y-87857820D01*
X160724824Y-87857820D01*
X160724828Y-87857816D01*
X160729291Y-87849054D01*
X160777265Y-87798259D01*
X160845085Y-87781463D01*
X160911221Y-87803999D01*
G37*
%TD.AperFunction*%
%TA.AperFunction,Conductor*%
G36*
X163451221Y-87803999D02*
G01*
X163490261Y-87849054D01*
X163494368Y-87857115D01*
X163494728Y-87857820D01*
X163619667Y-88029786D01*
X163619673Y-88029792D01*
X163769985Y-88180104D01*
X163941961Y-88305051D01*
X163981795Y-88325347D01*
X164032590Y-88373319D01*
X164049500Y-88435831D01*
X164049500Y-88624943D01*
X164049500Y-88783057D01*
X164086788Y-88922216D01*
X164090423Y-88935783D01*
X164090426Y-88935790D01*
X164169475Y-89072709D01*
X164169478Y-89072713D01*
X164169480Y-89072716D01*
X164234945Y-89138181D01*
X164281283Y-89184519D01*
X164287728Y-89189464D01*
X164287298Y-89190023D01*
X164302293Y-89201528D01*
X164613583Y-89512819D01*
X164647068Y-89574142D01*
X164642084Y-89643834D01*
X164600212Y-89699767D01*
X164534748Y-89724184D01*
X164525902Y-89724500D01*
X164031098Y-89724500D01*
X163964059Y-89704815D01*
X163943417Y-89688181D01*
X162767820Y-88512584D01*
X162734335Y-88451261D01*
X162739319Y-88381569D01*
X162781191Y-88325636D01*
X162799198Y-88314423D01*
X162817593Y-88305051D01*
X162817595Y-88305049D01*
X162817598Y-88305048D01*
X162989563Y-88180109D01*
X162989565Y-88180106D01*
X162989569Y-88180104D01*
X163139881Y-88029792D01*
X163139883Y-88029788D01*
X163139886Y-88029786D01*
X163264825Y-87857820D01*
X163264824Y-87857820D01*
X163264828Y-87857816D01*
X163269291Y-87849054D01*
X163317265Y-87798259D01*
X163385085Y-87781463D01*
X163451221Y-87803999D01*
G37*
%TD.AperFunction*%
%TD*%
M02*
