%TF.GenerationSoftware,KiCad,Pcbnew,9.0.6*%
%TF.CreationDate,2026-03-13T14:17:26+11:00*%
%TF.ProjectId,Cooee_brains,436f6f65-655f-4627-9261-696e732e6b69,rev?*%
%TF.SameCoordinates,Original*%
%TF.FileFunction,Legend,Bot*%
%TF.FilePolarity,Positive*%
%FSLAX46Y46*%
G04 Gerber Fmt 4.6, Leading zero omitted, Abs format (unit mm)*
G04 Created by KiCad (PCBNEW 9.0.6) date 2026-03-13 14:17:26*
%MOMM*%
%LPD*%
G01*
G04 APERTURE LIST*
%ADD10C,0.100000*%
%ADD11C,0.200000*%
%ADD12C,0.400000*%
%ADD13C,0.150000*%
%ADD14C,0.300000*%
%ADD15C,0.080211*%
%ADD16C,0.120003*%
%ADD17C,0.120000*%
%ADD18C,0.127000*%
G04 APERTURE END LIST*
D10*
X173730000Y-92830000D02*
X175600000Y-92830000D01*
X171510000Y-92830000D02*
X172410000Y-93730000D01*
X172410000Y-93730000D02*
X173710000Y-93730000D01*
X176510000Y-93740000D02*
X179460000Y-93740000D01*
X173710000Y-93730000D02*
X173710000Y-92830000D01*
X179460000Y-103540000D02*
X166830000Y-103540000D01*
X166830000Y-103540000D02*
X166830000Y-92830000D01*
D11*
X178630000Y-98410000D02*
X176086494Y-100760000D01*
X175836494Y-100750000D01*
X175956494Y-99860000D01*
X169496494Y-99860000D01*
X169496494Y-96970000D01*
X175952891Y-96970000D01*
X175840000Y-96030000D01*
X176086494Y-96020000D01*
X178630000Y-98410000D01*
D10*
X175595000Y-92830000D02*
X176505000Y-93740000D01*
X166830000Y-92830000D02*
X171510000Y-92830000D01*
X180884211Y-70615505D02*
X180784211Y-70648839D01*
X180784211Y-70648839D02*
X180750877Y-70682172D01*
X180750877Y-70682172D02*
X180717544Y-70748839D01*
X180717544Y-70748839D02*
X180717544Y-70848839D01*
X180717544Y-70848839D02*
X180750877Y-70915505D01*
X180750877Y-70915505D02*
X180784211Y-70948839D01*
X180784211Y-70948839D02*
X180850877Y-70982172D01*
X180850877Y-70982172D02*
X181117544Y-70982172D01*
X181117544Y-70982172D02*
X181117544Y-70282172D01*
X181117544Y-70282172D02*
X180884211Y-70282172D01*
X180884211Y-70282172D02*
X180817544Y-70315505D01*
X180817544Y-70315505D02*
X180784211Y-70348839D01*
X180784211Y-70348839D02*
X180750877Y-70415505D01*
X180750877Y-70415505D02*
X180750877Y-70482172D01*
X180750877Y-70482172D02*
X180784211Y-70548839D01*
X180784211Y-70548839D02*
X180817544Y-70582172D01*
X180817544Y-70582172D02*
X180884211Y-70615505D01*
X180884211Y-70615505D02*
X181117544Y-70615505D01*
X180450877Y-70782172D02*
X180117544Y-70782172D01*
X180517544Y-70982172D02*
X180284211Y-70282172D01*
X180284211Y-70282172D02*
X180050877Y-70982172D01*
X179917544Y-70282172D02*
X179517544Y-70282172D01*
X179717544Y-70982172D02*
X179717544Y-70282172D01*
X179384211Y-70282172D02*
X178984211Y-70282172D01*
X179184211Y-70982172D02*
X179184211Y-70282172D01*
X181117544Y-72109133D02*
X181117544Y-71409133D01*
X181117544Y-71409133D02*
X180717544Y-72109133D01*
X180717544Y-72109133D02*
X180717544Y-71409133D01*
X180384211Y-71742466D02*
X180150878Y-71742466D01*
X180050878Y-72109133D02*
X180384211Y-72109133D01*
X180384211Y-72109133D02*
X180384211Y-71409133D01*
X180384211Y-71409133D02*
X180050878Y-71409133D01*
X179384211Y-71442466D02*
X179450878Y-71409133D01*
X179450878Y-71409133D02*
X179550878Y-71409133D01*
X179550878Y-71409133D02*
X179650878Y-71442466D01*
X179650878Y-71442466D02*
X179717545Y-71509133D01*
X179717545Y-71509133D02*
X179750878Y-71575800D01*
X179750878Y-71575800D02*
X179784211Y-71709133D01*
X179784211Y-71709133D02*
X179784211Y-71809133D01*
X179784211Y-71809133D02*
X179750878Y-71942466D01*
X179750878Y-71942466D02*
X179717545Y-72009133D01*
X179717545Y-72009133D02*
X179650878Y-72075800D01*
X179650878Y-72075800D02*
X179550878Y-72109133D01*
X179550878Y-72109133D02*
X179484211Y-72109133D01*
X179484211Y-72109133D02*
X179384211Y-72075800D01*
X179384211Y-72075800D02*
X179350878Y-72042466D01*
X179350878Y-72042466D02*
X179350878Y-71809133D01*
X179350878Y-71809133D02*
X179484211Y-71809133D01*
X179084211Y-71909133D02*
X178750878Y-71909133D01*
X179150878Y-72109133D02*
X178917545Y-71409133D01*
X178917545Y-71409133D02*
X178684211Y-72109133D01*
X178550878Y-71409133D02*
X178150878Y-71409133D01*
X178350878Y-72109133D02*
X178350878Y-71409133D01*
X177917545Y-72109133D02*
X177917545Y-71409133D01*
X177684212Y-71409133D02*
X177450879Y-72109133D01*
X177450879Y-72109133D02*
X177217545Y-71409133D01*
X176984212Y-71742466D02*
X176750879Y-71742466D01*
X176650879Y-72109133D02*
X176984212Y-72109133D01*
X176984212Y-72109133D02*
X176984212Y-71409133D01*
X176984212Y-71409133D02*
X176650879Y-71409133D01*
D12*
X132372533Y-121889347D02*
X132372533Y-123413157D01*
D13*
X164629572Y-110376317D02*
X165196239Y-110376317D01*
X165196239Y-110376317D02*
X165262905Y-110409651D01*
X165262905Y-110409651D02*
X165296239Y-110442984D01*
X165296239Y-110442984D02*
X165329572Y-110509651D01*
X165329572Y-110509651D02*
X165329572Y-110642984D01*
X165329572Y-110642984D02*
X165296239Y-110709651D01*
X165296239Y-110709651D02*
X165262905Y-110742984D01*
X165262905Y-110742984D02*
X165196239Y-110776317D01*
X165196239Y-110776317D02*
X164629572Y-110776317D01*
X165296239Y-111076317D02*
X165329572Y-111176317D01*
X165329572Y-111176317D02*
X165329572Y-111342984D01*
X165329572Y-111342984D02*
X165296239Y-111409650D01*
X165296239Y-111409650D02*
X165262905Y-111442984D01*
X165262905Y-111442984D02*
X165196239Y-111476317D01*
X165196239Y-111476317D02*
X165129572Y-111476317D01*
X165129572Y-111476317D02*
X165062905Y-111442984D01*
X165062905Y-111442984D02*
X165029572Y-111409650D01*
X165029572Y-111409650D02*
X164996239Y-111342984D01*
X164996239Y-111342984D02*
X164962905Y-111209650D01*
X164962905Y-111209650D02*
X164929572Y-111142984D01*
X164929572Y-111142984D02*
X164896239Y-111109650D01*
X164896239Y-111109650D02*
X164829572Y-111076317D01*
X164829572Y-111076317D02*
X164762905Y-111076317D01*
X164762905Y-111076317D02*
X164696239Y-111109650D01*
X164696239Y-111109650D02*
X164662905Y-111142984D01*
X164662905Y-111142984D02*
X164629572Y-111209650D01*
X164629572Y-111209650D02*
X164629572Y-111376317D01*
X164629572Y-111376317D02*
X164662905Y-111476317D01*
X164962905Y-112009651D02*
X164996239Y-112109651D01*
X164996239Y-112109651D02*
X165029572Y-112142984D01*
X165029572Y-112142984D02*
X165096239Y-112176317D01*
X165096239Y-112176317D02*
X165196239Y-112176317D01*
X165196239Y-112176317D02*
X165262905Y-112142984D01*
X165262905Y-112142984D02*
X165296239Y-112109651D01*
X165296239Y-112109651D02*
X165329572Y-112042984D01*
X165329572Y-112042984D02*
X165329572Y-111776317D01*
X165329572Y-111776317D02*
X164629572Y-111776317D01*
X164629572Y-111776317D02*
X164629572Y-112009651D01*
X164629572Y-112009651D02*
X164662905Y-112076317D01*
X164662905Y-112076317D02*
X164696239Y-112109651D01*
X164696239Y-112109651D02*
X164762905Y-112142984D01*
X164762905Y-112142984D02*
X164829572Y-112142984D01*
X164829572Y-112142984D02*
X164896239Y-112109651D01*
X164896239Y-112109651D02*
X164929572Y-112076317D01*
X164929572Y-112076317D02*
X164962905Y-112009651D01*
X164962905Y-112009651D02*
X164962905Y-111776317D01*
X165329572Y-113009650D02*
X164629572Y-113009650D01*
X164862905Y-113342983D02*
X165329572Y-113342983D01*
X164929572Y-113342983D02*
X164896239Y-113376317D01*
X164896239Y-113376317D02*
X164862905Y-113442983D01*
X164862905Y-113442983D02*
X164862905Y-113542983D01*
X164862905Y-113542983D02*
X164896239Y-113609650D01*
X164896239Y-113609650D02*
X164962905Y-113642983D01*
X164962905Y-113642983D02*
X165329572Y-113642983D01*
X164862905Y-113876316D02*
X164862905Y-114142983D01*
X164629572Y-113976316D02*
X165229572Y-113976316D01*
X165229572Y-113976316D02*
X165296239Y-114009650D01*
X165296239Y-114009650D02*
X165329572Y-114076316D01*
X165329572Y-114076316D02*
X165329572Y-114142983D01*
X165296239Y-114642983D02*
X165329572Y-114576316D01*
X165329572Y-114576316D02*
X165329572Y-114442983D01*
X165329572Y-114442983D02*
X165296239Y-114376316D01*
X165296239Y-114376316D02*
X165229572Y-114342983D01*
X165229572Y-114342983D02*
X164962905Y-114342983D01*
X164962905Y-114342983D02*
X164896239Y-114376316D01*
X164896239Y-114376316D02*
X164862905Y-114442983D01*
X164862905Y-114442983D02*
X164862905Y-114576316D01*
X164862905Y-114576316D02*
X164896239Y-114642983D01*
X164896239Y-114642983D02*
X164962905Y-114676316D01*
X164962905Y-114676316D02*
X165029572Y-114676316D01*
X165029572Y-114676316D02*
X165096239Y-114342983D01*
X165329572Y-114976316D02*
X164862905Y-114976316D01*
X164996239Y-114976316D02*
X164929572Y-115009650D01*
X164929572Y-115009650D02*
X164896239Y-115042983D01*
X164896239Y-115042983D02*
X164862905Y-115109650D01*
X164862905Y-115109650D02*
X164862905Y-115176316D01*
X164862905Y-115309649D02*
X164862905Y-115576316D01*
X165329572Y-115409649D02*
X164729572Y-115409649D01*
X164729572Y-115409649D02*
X164662905Y-115442983D01*
X164662905Y-115442983D02*
X164629572Y-115509649D01*
X164629572Y-115509649D02*
X164629572Y-115576316D01*
X165329572Y-116109649D02*
X164962905Y-116109649D01*
X164962905Y-116109649D02*
X164896239Y-116076316D01*
X164896239Y-116076316D02*
X164862905Y-116009649D01*
X164862905Y-116009649D02*
X164862905Y-115876316D01*
X164862905Y-115876316D02*
X164896239Y-115809649D01*
X165296239Y-116109649D02*
X165329572Y-116042983D01*
X165329572Y-116042983D02*
X165329572Y-115876316D01*
X165329572Y-115876316D02*
X165296239Y-115809649D01*
X165296239Y-115809649D02*
X165229572Y-115776316D01*
X165229572Y-115776316D02*
X165162905Y-115776316D01*
X165162905Y-115776316D02*
X165096239Y-115809649D01*
X165096239Y-115809649D02*
X165062905Y-115876316D01*
X165062905Y-115876316D02*
X165062905Y-116042983D01*
X165062905Y-116042983D02*
X165029572Y-116109649D01*
X165296239Y-116742982D02*
X165329572Y-116676316D01*
X165329572Y-116676316D02*
X165329572Y-116542982D01*
X165329572Y-116542982D02*
X165296239Y-116476316D01*
X165296239Y-116476316D02*
X165262905Y-116442982D01*
X165262905Y-116442982D02*
X165196239Y-116409649D01*
X165196239Y-116409649D02*
X164996239Y-116409649D01*
X164996239Y-116409649D02*
X164929572Y-116442982D01*
X164929572Y-116442982D02*
X164896239Y-116476316D01*
X164896239Y-116476316D02*
X164862905Y-116542982D01*
X164862905Y-116542982D02*
X164862905Y-116676316D01*
X164862905Y-116676316D02*
X164896239Y-116742982D01*
X165296239Y-117309649D02*
X165329572Y-117242982D01*
X165329572Y-117242982D02*
X165329572Y-117109649D01*
X165329572Y-117109649D02*
X165296239Y-117042982D01*
X165296239Y-117042982D02*
X165229572Y-117009649D01*
X165229572Y-117009649D02*
X164962905Y-117009649D01*
X164962905Y-117009649D02*
X164896239Y-117042982D01*
X164896239Y-117042982D02*
X164862905Y-117109649D01*
X164862905Y-117109649D02*
X164862905Y-117242982D01*
X164862905Y-117242982D02*
X164896239Y-117309649D01*
X164896239Y-117309649D02*
X164962905Y-117342982D01*
X164962905Y-117342982D02*
X165029572Y-117342982D01*
X165029572Y-117342982D02*
X165096239Y-117009649D01*
X166089866Y-114242983D02*
X166123200Y-114342983D01*
X166123200Y-114342983D02*
X166156533Y-114376316D01*
X166156533Y-114376316D02*
X166223200Y-114409649D01*
X166223200Y-114409649D02*
X166323200Y-114409649D01*
X166323200Y-114409649D02*
X166389866Y-114376316D01*
X166389866Y-114376316D02*
X166423200Y-114342983D01*
X166423200Y-114342983D02*
X166456533Y-114276316D01*
X166456533Y-114276316D02*
X166456533Y-114009649D01*
X166456533Y-114009649D02*
X165756533Y-114009649D01*
X165756533Y-114009649D02*
X165756533Y-114242983D01*
X165756533Y-114242983D02*
X165789866Y-114309649D01*
X165789866Y-114309649D02*
X165823200Y-114342983D01*
X165823200Y-114342983D02*
X165889866Y-114376316D01*
X165889866Y-114376316D02*
X165956533Y-114376316D01*
X165956533Y-114376316D02*
X166023200Y-114342983D01*
X166023200Y-114342983D02*
X166056533Y-114309649D01*
X166056533Y-114309649D02*
X166089866Y-114242983D01*
X166089866Y-114242983D02*
X166089866Y-114009649D01*
X165989866Y-114642983D02*
X166456533Y-114809649D01*
X165989866Y-114976316D02*
X166456533Y-114809649D01*
X166456533Y-114809649D02*
X166623200Y-114742983D01*
X166623200Y-114742983D02*
X166656533Y-114709649D01*
X166656533Y-114709649D02*
X166689866Y-114642983D01*
X165989866Y-115242982D02*
X166689866Y-115242982D01*
X166023200Y-115242982D02*
X165989866Y-115309649D01*
X165989866Y-115309649D02*
X165989866Y-115442982D01*
X165989866Y-115442982D02*
X166023200Y-115509649D01*
X166023200Y-115509649D02*
X166056533Y-115542982D01*
X166056533Y-115542982D02*
X166123200Y-115576316D01*
X166123200Y-115576316D02*
X166323200Y-115576316D01*
X166323200Y-115576316D02*
X166389866Y-115542982D01*
X166389866Y-115542982D02*
X166423200Y-115509649D01*
X166423200Y-115509649D02*
X166456533Y-115442982D01*
X166456533Y-115442982D02*
X166456533Y-115309649D01*
X166456533Y-115309649D02*
X166423200Y-115242982D01*
X166456533Y-116176315D02*
X166089866Y-116176315D01*
X166089866Y-116176315D02*
X166023200Y-116142982D01*
X166023200Y-116142982D02*
X165989866Y-116076315D01*
X165989866Y-116076315D02*
X165989866Y-115942982D01*
X165989866Y-115942982D02*
X166023200Y-115876315D01*
X166423200Y-116176315D02*
X166456533Y-116109649D01*
X166456533Y-116109649D02*
X166456533Y-115942982D01*
X166456533Y-115942982D02*
X166423200Y-115876315D01*
X166423200Y-115876315D02*
X166356533Y-115842982D01*
X166356533Y-115842982D02*
X166289866Y-115842982D01*
X166289866Y-115842982D02*
X166223200Y-115876315D01*
X166223200Y-115876315D02*
X166189866Y-115942982D01*
X166189866Y-115942982D02*
X166189866Y-116109649D01*
X166189866Y-116109649D02*
X166156533Y-116176315D01*
X166423200Y-116476315D02*
X166456533Y-116542982D01*
X166456533Y-116542982D02*
X166456533Y-116676315D01*
X166456533Y-116676315D02*
X166423200Y-116742982D01*
X166423200Y-116742982D02*
X166356533Y-116776315D01*
X166356533Y-116776315D02*
X166323200Y-116776315D01*
X166323200Y-116776315D02*
X166256533Y-116742982D01*
X166256533Y-116742982D02*
X166223200Y-116676315D01*
X166223200Y-116676315D02*
X166223200Y-116576315D01*
X166223200Y-116576315D02*
X166189866Y-116509648D01*
X166189866Y-116509648D02*
X166123200Y-116476315D01*
X166123200Y-116476315D02*
X166089866Y-116476315D01*
X166089866Y-116476315D02*
X166023200Y-116509648D01*
X166023200Y-116509648D02*
X165989866Y-116576315D01*
X165989866Y-116576315D02*
X165989866Y-116676315D01*
X165989866Y-116676315D02*
X166023200Y-116742982D01*
X166423200Y-117042982D02*
X166456533Y-117109649D01*
X166456533Y-117109649D02*
X166456533Y-117242982D01*
X166456533Y-117242982D02*
X166423200Y-117309649D01*
X166423200Y-117309649D02*
X166356533Y-117342982D01*
X166356533Y-117342982D02*
X166323200Y-117342982D01*
X166323200Y-117342982D02*
X166256533Y-117309649D01*
X166256533Y-117309649D02*
X166223200Y-117242982D01*
X166223200Y-117242982D02*
X166223200Y-117142982D01*
X166223200Y-117142982D02*
X166189866Y-117076315D01*
X166189866Y-117076315D02*
X166123200Y-117042982D01*
X166123200Y-117042982D02*
X166089866Y-117042982D01*
X166089866Y-117042982D02*
X166023200Y-117076315D01*
X166023200Y-117076315D02*
X165989866Y-117142982D01*
X165989866Y-117142982D02*
X165989866Y-117242982D01*
X165989866Y-117242982D02*
X166023200Y-117309649D01*
D10*
X137336551Y-89143675D02*
X137812741Y-89143675D01*
X137812741Y-89143675D02*
X137812741Y-88143675D01*
X136860360Y-89143675D02*
X136955598Y-89096056D01*
X136955598Y-89096056D02*
X137003217Y-89048436D01*
X137003217Y-89048436D02*
X137050836Y-88953198D01*
X137050836Y-88953198D02*
X137050836Y-88667484D01*
X137050836Y-88667484D02*
X137003217Y-88572246D01*
X137003217Y-88572246D02*
X136955598Y-88524627D01*
X136955598Y-88524627D02*
X136860360Y-88477008D01*
X136860360Y-88477008D02*
X136717503Y-88477008D01*
X136717503Y-88477008D02*
X136622265Y-88524627D01*
X136622265Y-88524627D02*
X136574646Y-88572246D01*
X136574646Y-88572246D02*
X136527027Y-88667484D01*
X136527027Y-88667484D02*
X136527027Y-88953198D01*
X136527027Y-88953198D02*
X136574646Y-89048436D01*
X136574646Y-89048436D02*
X136622265Y-89096056D01*
X136622265Y-89096056D02*
X136717503Y-89143675D01*
X136717503Y-89143675D02*
X136860360Y-89143675D01*
X135527027Y-89143675D02*
X135860360Y-88667484D01*
X136098455Y-89143675D02*
X136098455Y-88143675D01*
X136098455Y-88143675D02*
X135717503Y-88143675D01*
X135717503Y-88143675D02*
X135622265Y-88191294D01*
X135622265Y-88191294D02*
X135574646Y-88238913D01*
X135574646Y-88238913D02*
X135527027Y-88334151D01*
X135527027Y-88334151D02*
X135527027Y-88477008D01*
X135527027Y-88477008D02*
X135574646Y-88572246D01*
X135574646Y-88572246D02*
X135622265Y-88619865D01*
X135622265Y-88619865D02*
X135717503Y-88667484D01*
X135717503Y-88667484D02*
X136098455Y-88667484D01*
X134669884Y-89143675D02*
X134669884Y-88619865D01*
X134669884Y-88619865D02*
X134717503Y-88524627D01*
X134717503Y-88524627D02*
X134812741Y-88477008D01*
X134812741Y-88477008D02*
X135003217Y-88477008D01*
X135003217Y-88477008D02*
X135098455Y-88524627D01*
X134669884Y-89096056D02*
X134765122Y-89143675D01*
X134765122Y-89143675D02*
X135003217Y-89143675D01*
X135003217Y-89143675D02*
X135098455Y-89096056D01*
X135098455Y-89096056D02*
X135146074Y-89000817D01*
X135146074Y-89000817D02*
X135146074Y-88905579D01*
X135146074Y-88905579D02*
X135098455Y-88810341D01*
X135098455Y-88810341D02*
X135003217Y-88762722D01*
X135003217Y-88762722D02*
X134765122Y-88762722D01*
X134765122Y-88762722D02*
X134669884Y-88715103D01*
X140146075Y-90467904D02*
X139669885Y-90467904D01*
X140241313Y-90753619D02*
X139907980Y-89753619D01*
X139907980Y-89753619D02*
X139574647Y-90753619D01*
X139241313Y-90086952D02*
X139241313Y-90753619D01*
X139241313Y-90182190D02*
X139193694Y-90134571D01*
X139193694Y-90134571D02*
X139098456Y-90086952D01*
X139098456Y-90086952D02*
X138955599Y-90086952D01*
X138955599Y-90086952D02*
X138860361Y-90134571D01*
X138860361Y-90134571D02*
X138812742Y-90229809D01*
X138812742Y-90229809D02*
X138812742Y-90753619D01*
X138479408Y-90086952D02*
X138098456Y-90086952D01*
X138336551Y-89753619D02*
X138336551Y-90610761D01*
X138336551Y-90610761D02*
X138288932Y-90706000D01*
X138288932Y-90706000D02*
X138193694Y-90753619D01*
X138193694Y-90753619D02*
X138098456Y-90753619D01*
X137384170Y-90706000D02*
X137479408Y-90753619D01*
X137479408Y-90753619D02*
X137669884Y-90753619D01*
X137669884Y-90753619D02*
X137765122Y-90706000D01*
X137765122Y-90706000D02*
X137812741Y-90610761D01*
X137812741Y-90610761D02*
X137812741Y-90229809D01*
X137812741Y-90229809D02*
X137765122Y-90134571D01*
X137765122Y-90134571D02*
X137669884Y-90086952D01*
X137669884Y-90086952D02*
X137479408Y-90086952D01*
X137479408Y-90086952D02*
X137384170Y-90134571D01*
X137384170Y-90134571D02*
X137336551Y-90229809D01*
X137336551Y-90229809D02*
X137336551Y-90325047D01*
X137336551Y-90325047D02*
X137812741Y-90420285D01*
X136907979Y-90086952D02*
X136907979Y-90753619D01*
X136907979Y-90182190D02*
X136860360Y-90134571D01*
X136860360Y-90134571D02*
X136765122Y-90086952D01*
X136765122Y-90086952D02*
X136622265Y-90086952D01*
X136622265Y-90086952D02*
X136527027Y-90134571D01*
X136527027Y-90134571D02*
X136479408Y-90229809D01*
X136479408Y-90229809D02*
X136479408Y-90753619D01*
X136003217Y-90086952D02*
X136003217Y-90753619D01*
X136003217Y-90182190D02*
X135955598Y-90134571D01*
X135955598Y-90134571D02*
X135860360Y-90086952D01*
X135860360Y-90086952D02*
X135717503Y-90086952D01*
X135717503Y-90086952D02*
X135622265Y-90134571D01*
X135622265Y-90134571D02*
X135574646Y-90229809D01*
X135574646Y-90229809D02*
X135574646Y-90753619D01*
X134669884Y-90753619D02*
X134669884Y-90229809D01*
X134669884Y-90229809D02*
X134717503Y-90134571D01*
X134717503Y-90134571D02*
X134812741Y-90086952D01*
X134812741Y-90086952D02*
X135003217Y-90086952D01*
X135003217Y-90086952D02*
X135098455Y-90134571D01*
X134669884Y-90706000D02*
X134765122Y-90753619D01*
X134765122Y-90753619D02*
X135003217Y-90753619D01*
X135003217Y-90753619D02*
X135098455Y-90706000D01*
X135098455Y-90706000D02*
X135146074Y-90610761D01*
X135146074Y-90610761D02*
X135146074Y-90515523D01*
X135146074Y-90515523D02*
X135098455Y-90420285D01*
X135098455Y-90420285D02*
X135003217Y-90372666D01*
X135003217Y-90372666D02*
X134765122Y-90372666D01*
X134765122Y-90372666D02*
X134669884Y-90325047D01*
D11*
X155217219Y-92974435D02*
X155217219Y-93593482D01*
X155217219Y-93593482D02*
X155598171Y-93260149D01*
X155598171Y-93260149D02*
X155598171Y-93403006D01*
X155598171Y-93403006D02*
X155645790Y-93498244D01*
X155645790Y-93498244D02*
X155693409Y-93545863D01*
X155693409Y-93545863D02*
X155788647Y-93593482D01*
X155788647Y-93593482D02*
X156026742Y-93593482D01*
X156026742Y-93593482D02*
X156121980Y-93545863D01*
X156121980Y-93545863D02*
X156169600Y-93498244D01*
X156169600Y-93498244D02*
X156217219Y-93403006D01*
X156217219Y-93403006D02*
X156217219Y-93117292D01*
X156217219Y-93117292D02*
X156169600Y-93022054D01*
X156169600Y-93022054D02*
X156121980Y-92974435D01*
X156121980Y-94022054D02*
X156169600Y-94069673D01*
X156169600Y-94069673D02*
X156217219Y-94022054D01*
X156217219Y-94022054D02*
X156169600Y-93974435D01*
X156169600Y-93974435D02*
X156121980Y-94022054D01*
X156121980Y-94022054D02*
X156217219Y-94022054D01*
X155217219Y-94403006D02*
X155217219Y-95022053D01*
X155217219Y-95022053D02*
X155598171Y-94688720D01*
X155598171Y-94688720D02*
X155598171Y-94831577D01*
X155598171Y-94831577D02*
X155645790Y-94926815D01*
X155645790Y-94926815D02*
X155693409Y-94974434D01*
X155693409Y-94974434D02*
X155788647Y-95022053D01*
X155788647Y-95022053D02*
X156026742Y-95022053D01*
X156026742Y-95022053D02*
X156121980Y-94974434D01*
X156121980Y-94974434D02*
X156169600Y-94926815D01*
X156169600Y-94926815D02*
X156217219Y-94831577D01*
X156217219Y-94831577D02*
X156217219Y-94545863D01*
X156217219Y-94545863D02*
X156169600Y-94450625D01*
X156169600Y-94450625D02*
X156121980Y-94403006D01*
X155217219Y-95307768D02*
X156217219Y-95641101D01*
X156217219Y-95641101D02*
X155217219Y-95974434D01*
D10*
X191542544Y-67134133D02*
X191142544Y-67134133D01*
X191342544Y-67834133D02*
X191342544Y-67134133D01*
X190909211Y-67834133D02*
X190909211Y-67134133D01*
X190609211Y-67834133D02*
X190609211Y-67467466D01*
X190609211Y-67467466D02*
X190642544Y-67400800D01*
X190642544Y-67400800D02*
X190709211Y-67367466D01*
X190709211Y-67367466D02*
X190809211Y-67367466D01*
X190809211Y-67367466D02*
X190875878Y-67400800D01*
X190875878Y-67400800D02*
X190909211Y-67434133D01*
X190009211Y-67800800D02*
X190075878Y-67834133D01*
X190075878Y-67834133D02*
X190209211Y-67834133D01*
X190209211Y-67834133D02*
X190275878Y-67800800D01*
X190275878Y-67800800D02*
X190309211Y-67734133D01*
X190309211Y-67734133D02*
X190309211Y-67467466D01*
X190309211Y-67467466D02*
X190275878Y-67400800D01*
X190275878Y-67400800D02*
X190209211Y-67367466D01*
X190209211Y-67367466D02*
X190075878Y-67367466D01*
X190075878Y-67367466D02*
X190009211Y-67400800D01*
X190009211Y-67400800D02*
X189975878Y-67467466D01*
X189975878Y-67467466D02*
X189975878Y-67534133D01*
X189975878Y-67534133D02*
X190309211Y-67600800D01*
X189675878Y-67834133D02*
X189675878Y-67367466D01*
X189675878Y-67500800D02*
X189642545Y-67434133D01*
X189642545Y-67434133D02*
X189609211Y-67400800D01*
X189609211Y-67400800D02*
X189542545Y-67367466D01*
X189542545Y-67367466D02*
X189475878Y-67367466D01*
X189242545Y-67834133D02*
X189242545Y-67367466D01*
X189242545Y-67434133D02*
X189209212Y-67400800D01*
X189209212Y-67400800D02*
X189142545Y-67367466D01*
X189142545Y-67367466D02*
X189042545Y-67367466D01*
X189042545Y-67367466D02*
X188975878Y-67400800D01*
X188975878Y-67400800D02*
X188942545Y-67467466D01*
X188942545Y-67467466D02*
X188942545Y-67834133D01*
X188942545Y-67467466D02*
X188909212Y-67400800D01*
X188909212Y-67400800D02*
X188842545Y-67367466D01*
X188842545Y-67367466D02*
X188742545Y-67367466D01*
X188742545Y-67367466D02*
X188675878Y-67400800D01*
X188675878Y-67400800D02*
X188642545Y-67467466D01*
X188642545Y-67467466D02*
X188642545Y-67834133D01*
X188309212Y-67834133D02*
X188309212Y-67367466D01*
X188309212Y-67134133D02*
X188342545Y-67167466D01*
X188342545Y-67167466D02*
X188309212Y-67200800D01*
X188309212Y-67200800D02*
X188275879Y-67167466D01*
X188275879Y-67167466D02*
X188309212Y-67134133D01*
X188309212Y-67134133D02*
X188309212Y-67200800D01*
X188009212Y-67800800D02*
X187942546Y-67834133D01*
X187942546Y-67834133D02*
X187809212Y-67834133D01*
X187809212Y-67834133D02*
X187742546Y-67800800D01*
X187742546Y-67800800D02*
X187709212Y-67734133D01*
X187709212Y-67734133D02*
X187709212Y-67700800D01*
X187709212Y-67700800D02*
X187742546Y-67634133D01*
X187742546Y-67634133D02*
X187809212Y-67600800D01*
X187809212Y-67600800D02*
X187909212Y-67600800D01*
X187909212Y-67600800D02*
X187975879Y-67567466D01*
X187975879Y-67567466D02*
X188009212Y-67500800D01*
X188009212Y-67500800D02*
X188009212Y-67467466D01*
X188009212Y-67467466D02*
X187975879Y-67400800D01*
X187975879Y-67400800D02*
X187909212Y-67367466D01*
X187909212Y-67367466D02*
X187809212Y-67367466D01*
X187809212Y-67367466D02*
X187742546Y-67400800D01*
X187509212Y-67367466D02*
X187242545Y-67367466D01*
X187409212Y-67134133D02*
X187409212Y-67734133D01*
X187409212Y-67734133D02*
X187375879Y-67800800D01*
X187375879Y-67800800D02*
X187309212Y-67834133D01*
X187309212Y-67834133D02*
X187242545Y-67834133D01*
X186742545Y-67800800D02*
X186809212Y-67834133D01*
X186809212Y-67834133D02*
X186942545Y-67834133D01*
X186942545Y-67834133D02*
X187009212Y-67800800D01*
X187009212Y-67800800D02*
X187042545Y-67734133D01*
X187042545Y-67734133D02*
X187042545Y-67467466D01*
X187042545Y-67467466D02*
X187009212Y-67400800D01*
X187009212Y-67400800D02*
X186942545Y-67367466D01*
X186942545Y-67367466D02*
X186809212Y-67367466D01*
X186809212Y-67367466D02*
X186742545Y-67400800D01*
X186742545Y-67400800D02*
X186709212Y-67467466D01*
X186709212Y-67467466D02*
X186709212Y-67534133D01*
X186709212Y-67534133D02*
X187042545Y-67600800D01*
X186409212Y-67834133D02*
X186409212Y-67367466D01*
X186409212Y-67500800D02*
X186375879Y-67434133D01*
X186375879Y-67434133D02*
X186342545Y-67400800D01*
X186342545Y-67400800D02*
X186275879Y-67367466D01*
X186275879Y-67367466D02*
X186209212Y-67367466D01*
X190492544Y-71442466D02*
X189959211Y-71442466D01*
X189625877Y-71442466D02*
X189092544Y-71442466D01*
X188225877Y-71442466D02*
X187692544Y-71442466D01*
X187959210Y-71709133D02*
X187959210Y-71175800D01*
X187359210Y-71442466D02*
X186825877Y-71442466D01*
X187092543Y-71709133D02*
X187092543Y-71175800D01*
X174256115Y-95692419D02*
X174256115Y-94692419D01*
X174256115Y-94692419D02*
X173922782Y-95406704D01*
X173922782Y-95406704D02*
X173589449Y-94692419D01*
X173589449Y-94692419D02*
X173589449Y-95692419D01*
X173113258Y-95692419D02*
X173113258Y-95025752D01*
X173113258Y-94692419D02*
X173160877Y-94740038D01*
X173160877Y-94740038D02*
X173113258Y-94787657D01*
X173113258Y-94787657D02*
X173065639Y-94740038D01*
X173065639Y-94740038D02*
X173113258Y-94692419D01*
X173113258Y-94692419D02*
X173113258Y-94787657D01*
X172208497Y-95644800D02*
X172303735Y-95692419D01*
X172303735Y-95692419D02*
X172494211Y-95692419D01*
X172494211Y-95692419D02*
X172589449Y-95644800D01*
X172589449Y-95644800D02*
X172637068Y-95597180D01*
X172637068Y-95597180D02*
X172684687Y-95501942D01*
X172684687Y-95501942D02*
X172684687Y-95216228D01*
X172684687Y-95216228D02*
X172637068Y-95120990D01*
X172637068Y-95120990D02*
X172589449Y-95073371D01*
X172589449Y-95073371D02*
X172494211Y-95025752D01*
X172494211Y-95025752D02*
X172303735Y-95025752D01*
X172303735Y-95025752D02*
X172208497Y-95073371D01*
X171779925Y-95692419D02*
X171779925Y-95025752D01*
X171779925Y-95216228D02*
X171732306Y-95120990D01*
X171732306Y-95120990D02*
X171684687Y-95073371D01*
X171684687Y-95073371D02*
X171589449Y-95025752D01*
X171589449Y-95025752D02*
X171494211Y-95025752D01*
X171018020Y-95692419D02*
X171113258Y-95644800D01*
X171113258Y-95644800D02*
X171160877Y-95597180D01*
X171160877Y-95597180D02*
X171208496Y-95501942D01*
X171208496Y-95501942D02*
X171208496Y-95216228D01*
X171208496Y-95216228D02*
X171160877Y-95120990D01*
X171160877Y-95120990D02*
X171113258Y-95073371D01*
X171113258Y-95073371D02*
X171018020Y-95025752D01*
X171018020Y-95025752D02*
X170875163Y-95025752D01*
X170875163Y-95025752D02*
X170779925Y-95073371D01*
X170779925Y-95073371D02*
X170732306Y-95120990D01*
X170732306Y-95120990D02*
X170684687Y-95216228D01*
X170684687Y-95216228D02*
X170684687Y-95501942D01*
X170684687Y-95501942D02*
X170732306Y-95597180D01*
X170732306Y-95597180D02*
X170779925Y-95644800D01*
X170779925Y-95644800D02*
X170875163Y-95692419D01*
X170875163Y-95692419D02*
X171018020Y-95692419D01*
X170494211Y-95787657D02*
X169732306Y-95787657D01*
X169541829Y-95644800D02*
X169398972Y-95692419D01*
X169398972Y-95692419D02*
X169160877Y-95692419D01*
X169160877Y-95692419D02*
X169065639Y-95644800D01*
X169065639Y-95644800D02*
X169018020Y-95597180D01*
X169018020Y-95597180D02*
X168970401Y-95501942D01*
X168970401Y-95501942D02*
X168970401Y-95406704D01*
X168970401Y-95406704D02*
X169018020Y-95311466D01*
X169018020Y-95311466D02*
X169065639Y-95263847D01*
X169065639Y-95263847D02*
X169160877Y-95216228D01*
X169160877Y-95216228D02*
X169351353Y-95168609D01*
X169351353Y-95168609D02*
X169446591Y-95120990D01*
X169446591Y-95120990D02*
X169494210Y-95073371D01*
X169494210Y-95073371D02*
X169541829Y-94978133D01*
X169541829Y-94978133D02*
X169541829Y-94882895D01*
X169541829Y-94882895D02*
X169494210Y-94787657D01*
X169494210Y-94787657D02*
X169446591Y-94740038D01*
X169446591Y-94740038D02*
X169351353Y-94692419D01*
X169351353Y-94692419D02*
X169113258Y-94692419D01*
X169113258Y-94692419D02*
X168970401Y-94740038D01*
X168541829Y-95692419D02*
X168541829Y-94692419D01*
X168541829Y-94692419D02*
X168303734Y-94692419D01*
X168303734Y-94692419D02*
X168160877Y-94740038D01*
X168160877Y-94740038D02*
X168065639Y-94835276D01*
X168065639Y-94835276D02*
X168018020Y-94930514D01*
X168018020Y-94930514D02*
X167970401Y-95120990D01*
X167970401Y-95120990D02*
X167970401Y-95263847D01*
X167970401Y-95263847D02*
X168018020Y-95454323D01*
X168018020Y-95454323D02*
X168065639Y-95549561D01*
X168065639Y-95549561D02*
X168160877Y-95644800D01*
X168160877Y-95644800D02*
X168303734Y-95692419D01*
X168303734Y-95692419D02*
X168541829Y-95692419D01*
X134268734Y-125174800D02*
X134125877Y-125222419D01*
X134125877Y-125222419D02*
X133887782Y-125222419D01*
X133887782Y-125222419D02*
X133792544Y-125174800D01*
X133792544Y-125174800D02*
X133744925Y-125127180D01*
X133744925Y-125127180D02*
X133697306Y-125031942D01*
X133697306Y-125031942D02*
X133697306Y-124936704D01*
X133697306Y-124936704D02*
X133744925Y-124841466D01*
X133744925Y-124841466D02*
X133792544Y-124793847D01*
X133792544Y-124793847D02*
X133887782Y-124746228D01*
X133887782Y-124746228D02*
X134078258Y-124698609D01*
X134078258Y-124698609D02*
X134173496Y-124650990D01*
X134173496Y-124650990D02*
X134221115Y-124603371D01*
X134221115Y-124603371D02*
X134268734Y-124508133D01*
X134268734Y-124508133D02*
X134268734Y-124412895D01*
X134268734Y-124412895D02*
X134221115Y-124317657D01*
X134221115Y-124317657D02*
X134173496Y-124270038D01*
X134173496Y-124270038D02*
X134078258Y-124222419D01*
X134078258Y-124222419D02*
X133840163Y-124222419D01*
X133840163Y-124222419D02*
X133697306Y-124270038D01*
X133268734Y-124555752D02*
X133268734Y-125555752D01*
X133268734Y-124603371D02*
X133173496Y-124555752D01*
X133173496Y-124555752D02*
X132983020Y-124555752D01*
X132983020Y-124555752D02*
X132887782Y-124603371D01*
X132887782Y-124603371D02*
X132840163Y-124650990D01*
X132840163Y-124650990D02*
X132792544Y-124746228D01*
X132792544Y-124746228D02*
X132792544Y-125031942D01*
X132792544Y-125031942D02*
X132840163Y-125127180D01*
X132840163Y-125127180D02*
X132887782Y-125174800D01*
X132887782Y-125174800D02*
X132983020Y-125222419D01*
X132983020Y-125222419D02*
X133173496Y-125222419D01*
X133173496Y-125222419D02*
X133268734Y-125174800D01*
X131983020Y-125174800D02*
X132078258Y-125222419D01*
X132078258Y-125222419D02*
X132268734Y-125222419D01*
X132268734Y-125222419D02*
X132363972Y-125174800D01*
X132363972Y-125174800D02*
X132411591Y-125079561D01*
X132411591Y-125079561D02*
X132411591Y-124698609D01*
X132411591Y-124698609D02*
X132363972Y-124603371D01*
X132363972Y-124603371D02*
X132268734Y-124555752D01*
X132268734Y-124555752D02*
X132078258Y-124555752D01*
X132078258Y-124555752D02*
X131983020Y-124603371D01*
X131983020Y-124603371D02*
X131935401Y-124698609D01*
X131935401Y-124698609D02*
X131935401Y-124793847D01*
X131935401Y-124793847D02*
X132411591Y-124889085D01*
X131078258Y-125222419D02*
X131078258Y-124698609D01*
X131078258Y-124698609D02*
X131125877Y-124603371D01*
X131125877Y-124603371D02*
X131221115Y-124555752D01*
X131221115Y-124555752D02*
X131411591Y-124555752D01*
X131411591Y-124555752D02*
X131506829Y-124603371D01*
X131078258Y-125174800D02*
X131173496Y-125222419D01*
X131173496Y-125222419D02*
X131411591Y-125222419D01*
X131411591Y-125222419D02*
X131506829Y-125174800D01*
X131506829Y-125174800D02*
X131554448Y-125079561D01*
X131554448Y-125079561D02*
X131554448Y-124984323D01*
X131554448Y-124984323D02*
X131506829Y-124889085D01*
X131506829Y-124889085D02*
X131411591Y-124841466D01*
X131411591Y-124841466D02*
X131173496Y-124841466D01*
X131173496Y-124841466D02*
X131078258Y-124793847D01*
X130602067Y-125222419D02*
X130602067Y-124222419D01*
X130506829Y-124841466D02*
X130221115Y-125222419D01*
X130221115Y-124555752D02*
X130602067Y-124936704D01*
X129411591Y-125174800D02*
X129506829Y-125222419D01*
X129506829Y-125222419D02*
X129697305Y-125222419D01*
X129697305Y-125222419D02*
X129792543Y-125174800D01*
X129792543Y-125174800D02*
X129840162Y-125079561D01*
X129840162Y-125079561D02*
X129840162Y-124698609D01*
X129840162Y-124698609D02*
X129792543Y-124603371D01*
X129792543Y-124603371D02*
X129697305Y-124555752D01*
X129697305Y-124555752D02*
X129506829Y-124555752D01*
X129506829Y-124555752D02*
X129411591Y-124603371D01*
X129411591Y-124603371D02*
X129363972Y-124698609D01*
X129363972Y-124698609D02*
X129363972Y-124793847D01*
X129363972Y-124793847D02*
X129840162Y-124889085D01*
X128935400Y-125222419D02*
X128935400Y-124555752D01*
X128935400Y-124746228D02*
X128887781Y-124650990D01*
X128887781Y-124650990D02*
X128840162Y-124603371D01*
X128840162Y-124603371D02*
X128744924Y-124555752D01*
X128744924Y-124555752D02*
X128649686Y-124555752D01*
D11*
X145355326Y-117467219D02*
X145355326Y-116467219D01*
X144783898Y-117467219D02*
X145212469Y-116895790D01*
X144783898Y-116467219D02*
X145355326Y-117038647D01*
X144355326Y-116943409D02*
X144021993Y-116943409D01*
X143879136Y-117467219D02*
X144355326Y-117467219D01*
X144355326Y-117467219D02*
X144355326Y-116467219D01*
X144355326Y-116467219D02*
X143879136Y-116467219D01*
X143260088Y-116991028D02*
X143260088Y-117467219D01*
X143593421Y-116467219D02*
X143260088Y-116991028D01*
X143260088Y-116991028D02*
X142926755Y-116467219D01*
X142260088Y-116943409D02*
X142117231Y-116991028D01*
X142117231Y-116991028D02*
X142069612Y-117038647D01*
X142069612Y-117038647D02*
X142021993Y-117133885D01*
X142021993Y-117133885D02*
X142021993Y-117276742D01*
X142021993Y-117276742D02*
X142069612Y-117371980D01*
X142069612Y-117371980D02*
X142117231Y-117419600D01*
X142117231Y-117419600D02*
X142212469Y-117467219D01*
X142212469Y-117467219D02*
X142593421Y-117467219D01*
X142593421Y-117467219D02*
X142593421Y-116467219D01*
X142593421Y-116467219D02*
X142260088Y-116467219D01*
X142260088Y-116467219D02*
X142164850Y-116514838D01*
X142164850Y-116514838D02*
X142117231Y-116562457D01*
X142117231Y-116562457D02*
X142069612Y-116657695D01*
X142069612Y-116657695D02*
X142069612Y-116752933D01*
X142069612Y-116752933D02*
X142117231Y-116848171D01*
X142117231Y-116848171D02*
X142164850Y-116895790D01*
X142164850Y-116895790D02*
X142260088Y-116943409D01*
X142260088Y-116943409D02*
X142593421Y-116943409D01*
X141402945Y-116467219D02*
X141212469Y-116467219D01*
X141212469Y-116467219D02*
X141117231Y-116514838D01*
X141117231Y-116514838D02*
X141021993Y-116610076D01*
X141021993Y-116610076D02*
X140974374Y-116800552D01*
X140974374Y-116800552D02*
X140974374Y-117133885D01*
X140974374Y-117133885D02*
X141021993Y-117324361D01*
X141021993Y-117324361D02*
X141117231Y-117419600D01*
X141117231Y-117419600D02*
X141212469Y-117467219D01*
X141212469Y-117467219D02*
X141402945Y-117467219D01*
X141402945Y-117467219D02*
X141498183Y-117419600D01*
X141498183Y-117419600D02*
X141593421Y-117324361D01*
X141593421Y-117324361D02*
X141641040Y-117133885D01*
X141641040Y-117133885D02*
X141641040Y-116800552D01*
X141641040Y-116800552D02*
X141593421Y-116610076D01*
X141593421Y-116610076D02*
X141498183Y-116514838D01*
X141498183Y-116514838D02*
X141402945Y-116467219D01*
X140593421Y-117181504D02*
X140117231Y-117181504D01*
X140688659Y-117467219D02*
X140355326Y-116467219D01*
X140355326Y-116467219D02*
X140021993Y-117467219D01*
X139117231Y-117467219D02*
X139450564Y-116991028D01*
X139688659Y-117467219D02*
X139688659Y-116467219D01*
X139688659Y-116467219D02*
X139307707Y-116467219D01*
X139307707Y-116467219D02*
X139212469Y-116514838D01*
X139212469Y-116514838D02*
X139164850Y-116562457D01*
X139164850Y-116562457D02*
X139117231Y-116657695D01*
X139117231Y-116657695D02*
X139117231Y-116800552D01*
X139117231Y-116800552D02*
X139164850Y-116895790D01*
X139164850Y-116895790D02*
X139212469Y-116943409D01*
X139212469Y-116943409D02*
X139307707Y-116991028D01*
X139307707Y-116991028D02*
X139688659Y-116991028D01*
X138688659Y-117467219D02*
X138688659Y-116467219D01*
X138688659Y-116467219D02*
X138450564Y-116467219D01*
X138450564Y-116467219D02*
X138307707Y-116514838D01*
X138307707Y-116514838D02*
X138212469Y-116610076D01*
X138212469Y-116610076D02*
X138164850Y-116705314D01*
X138164850Y-116705314D02*
X138117231Y-116895790D01*
X138117231Y-116895790D02*
X138117231Y-117038647D01*
X138117231Y-117038647D02*
X138164850Y-117229123D01*
X138164850Y-117229123D02*
X138212469Y-117324361D01*
X138212469Y-117324361D02*
X138307707Y-117419600D01*
X138307707Y-117419600D02*
X138450564Y-117467219D01*
X138450564Y-117467219D02*
X138688659Y-117467219D01*
X192000564Y-79512541D02*
X192143422Y-79441112D01*
X192143422Y-79441112D02*
X192357707Y-79441112D01*
X192357707Y-79441112D02*
X192571993Y-79512541D01*
X192571993Y-79512541D02*
X192714850Y-79655398D01*
X192714850Y-79655398D02*
X192786279Y-79798255D01*
X192786279Y-79798255D02*
X192857707Y-80083969D01*
X192857707Y-80083969D02*
X192857707Y-80298255D01*
X192857707Y-80298255D02*
X192786279Y-80583969D01*
X192786279Y-80583969D02*
X192714850Y-80726826D01*
X192714850Y-80726826D02*
X192571993Y-80869684D01*
X192571993Y-80869684D02*
X192357707Y-80941112D01*
X192357707Y-80941112D02*
X192214850Y-80941112D01*
X192214850Y-80941112D02*
X192000564Y-80869684D01*
X192000564Y-80869684D02*
X191929136Y-80798255D01*
X191929136Y-80798255D02*
X191929136Y-80298255D01*
X191929136Y-80298255D02*
X192214850Y-80298255D01*
X191286279Y-80941112D02*
X191286279Y-79441112D01*
X191286279Y-79441112D02*
X190714850Y-79441112D01*
X190714850Y-79441112D02*
X190571993Y-79512541D01*
X190571993Y-79512541D02*
X190500564Y-79583969D01*
X190500564Y-79583969D02*
X190429136Y-79726826D01*
X190429136Y-79726826D02*
X190429136Y-79941112D01*
X190429136Y-79941112D02*
X190500564Y-80083969D01*
X190500564Y-80083969D02*
X190571993Y-80155398D01*
X190571993Y-80155398D02*
X190714850Y-80226826D01*
X190714850Y-80226826D02*
X191286279Y-80226826D01*
X189857707Y-80869684D02*
X189643422Y-80941112D01*
X189643422Y-80941112D02*
X189286279Y-80941112D01*
X189286279Y-80941112D02*
X189143422Y-80869684D01*
X189143422Y-80869684D02*
X189071993Y-80798255D01*
X189071993Y-80798255D02*
X189000564Y-80655398D01*
X189000564Y-80655398D02*
X189000564Y-80512541D01*
X189000564Y-80512541D02*
X189071993Y-80369684D01*
X189071993Y-80369684D02*
X189143422Y-80298255D01*
X189143422Y-80298255D02*
X189286279Y-80226826D01*
X189286279Y-80226826D02*
X189571993Y-80155398D01*
X189571993Y-80155398D02*
X189714850Y-80083969D01*
X189714850Y-80083969D02*
X189786279Y-80012541D01*
X189786279Y-80012541D02*
X189857707Y-79869684D01*
X189857707Y-79869684D02*
X189857707Y-79726826D01*
X189857707Y-79726826D02*
X189786279Y-79583969D01*
X189786279Y-79583969D02*
X189714850Y-79512541D01*
X189714850Y-79512541D02*
X189571993Y-79441112D01*
X189571993Y-79441112D02*
X189214850Y-79441112D01*
X189214850Y-79441112D02*
X189000564Y-79512541D01*
X192786279Y-83356028D02*
X192786279Y-81856028D01*
X192786279Y-81856028D02*
X192286279Y-82927457D01*
X192286279Y-82927457D02*
X191786279Y-81856028D01*
X191786279Y-81856028D02*
X191786279Y-83356028D01*
X190857707Y-83356028D02*
X191000564Y-83284600D01*
X191000564Y-83284600D02*
X191071993Y-83213171D01*
X191071993Y-83213171D02*
X191143421Y-83070314D01*
X191143421Y-83070314D02*
X191143421Y-82641742D01*
X191143421Y-82641742D02*
X191071993Y-82498885D01*
X191071993Y-82498885D02*
X191000564Y-82427457D01*
X191000564Y-82427457D02*
X190857707Y-82356028D01*
X190857707Y-82356028D02*
X190643421Y-82356028D01*
X190643421Y-82356028D02*
X190500564Y-82427457D01*
X190500564Y-82427457D02*
X190429136Y-82498885D01*
X190429136Y-82498885D02*
X190357707Y-82641742D01*
X190357707Y-82641742D02*
X190357707Y-83070314D01*
X190357707Y-83070314D02*
X190429136Y-83213171D01*
X190429136Y-83213171D02*
X190500564Y-83284600D01*
X190500564Y-83284600D02*
X190643421Y-83356028D01*
X190643421Y-83356028D02*
X190857707Y-83356028D01*
X189071993Y-83356028D02*
X189071993Y-81856028D01*
X189071993Y-83284600D02*
X189214850Y-83356028D01*
X189214850Y-83356028D02*
X189500564Y-83356028D01*
X189500564Y-83356028D02*
X189643421Y-83284600D01*
X189643421Y-83284600D02*
X189714850Y-83213171D01*
X189714850Y-83213171D02*
X189786278Y-83070314D01*
X189786278Y-83070314D02*
X189786278Y-82641742D01*
X189786278Y-82641742D02*
X189714850Y-82498885D01*
X189714850Y-82498885D02*
X189643421Y-82427457D01*
X189643421Y-82427457D02*
X189500564Y-82356028D01*
X189500564Y-82356028D02*
X189214850Y-82356028D01*
X189214850Y-82356028D02*
X189071993Y-82427457D01*
X187714850Y-82356028D02*
X187714850Y-83356028D01*
X188357707Y-82356028D02*
X188357707Y-83141742D01*
X188357707Y-83141742D02*
X188286278Y-83284600D01*
X188286278Y-83284600D02*
X188143421Y-83356028D01*
X188143421Y-83356028D02*
X187929135Y-83356028D01*
X187929135Y-83356028D02*
X187786278Y-83284600D01*
X187786278Y-83284600D02*
X187714850Y-83213171D01*
X186786278Y-83356028D02*
X186929135Y-83284600D01*
X186929135Y-83284600D02*
X187000564Y-83141742D01*
X187000564Y-83141742D02*
X187000564Y-81856028D01*
X185643421Y-83284600D02*
X185786278Y-83356028D01*
X185786278Y-83356028D02*
X186071993Y-83356028D01*
X186071993Y-83356028D02*
X186214850Y-83284600D01*
X186214850Y-83284600D02*
X186286278Y-83141742D01*
X186286278Y-83141742D02*
X186286278Y-82570314D01*
X186286278Y-82570314D02*
X186214850Y-82427457D01*
X186214850Y-82427457D02*
X186071993Y-82356028D01*
X186071993Y-82356028D02*
X185786278Y-82356028D01*
X185786278Y-82356028D02*
X185643421Y-82427457D01*
X185643421Y-82427457D02*
X185571993Y-82570314D01*
X185571993Y-82570314D02*
X185571993Y-82713171D01*
X185571993Y-82713171D02*
X186286278Y-82856028D01*
X191898831Y-109619019D02*
X191232164Y-109619019D01*
X190946450Y-110666638D02*
X191898831Y-110666638D01*
X191898831Y-110666638D02*
X191898831Y-108666638D01*
X191898831Y-108666638D02*
X190946450Y-108666638D01*
X190184545Y-110571400D02*
X189898831Y-110666638D01*
X189898831Y-110666638D02*
X189422640Y-110666638D01*
X189422640Y-110666638D02*
X189232164Y-110571400D01*
X189232164Y-110571400D02*
X189136926Y-110476161D01*
X189136926Y-110476161D02*
X189041688Y-110285685D01*
X189041688Y-110285685D02*
X189041688Y-110095209D01*
X189041688Y-110095209D02*
X189136926Y-109904733D01*
X189136926Y-109904733D02*
X189232164Y-109809495D01*
X189232164Y-109809495D02*
X189422640Y-109714257D01*
X189422640Y-109714257D02*
X189803593Y-109619019D01*
X189803593Y-109619019D02*
X189994069Y-109523780D01*
X189994069Y-109523780D02*
X190089307Y-109428542D01*
X190089307Y-109428542D02*
X190184545Y-109238066D01*
X190184545Y-109238066D02*
X190184545Y-109047590D01*
X190184545Y-109047590D02*
X190089307Y-108857114D01*
X190089307Y-108857114D02*
X189994069Y-108761876D01*
X189994069Y-108761876D02*
X189803593Y-108666638D01*
X189803593Y-108666638D02*
X189327402Y-108666638D01*
X189327402Y-108666638D02*
X189041688Y-108761876D01*
X188184545Y-110666638D02*
X188184545Y-108666638D01*
X188184545Y-108666638D02*
X187422640Y-108666638D01*
X187422640Y-108666638D02*
X187232164Y-108761876D01*
X187232164Y-108761876D02*
X187136926Y-108857114D01*
X187136926Y-108857114D02*
X187041688Y-109047590D01*
X187041688Y-109047590D02*
X187041688Y-109333304D01*
X187041688Y-109333304D02*
X187136926Y-109523780D01*
X187136926Y-109523780D02*
X187232164Y-109619019D01*
X187232164Y-109619019D02*
X187422640Y-109714257D01*
X187422640Y-109714257D02*
X188184545Y-109714257D01*
X186375021Y-108666638D02*
X185136926Y-108666638D01*
X185136926Y-108666638D02*
X185803593Y-109428542D01*
X185803593Y-109428542D02*
X185517878Y-109428542D01*
X185517878Y-109428542D02*
X185327402Y-109523780D01*
X185327402Y-109523780D02*
X185232164Y-109619019D01*
X185232164Y-109619019D02*
X185136926Y-109809495D01*
X185136926Y-109809495D02*
X185136926Y-110285685D01*
X185136926Y-110285685D02*
X185232164Y-110476161D01*
X185232164Y-110476161D02*
X185327402Y-110571400D01*
X185327402Y-110571400D02*
X185517878Y-110666638D01*
X185517878Y-110666638D02*
X186089307Y-110666638D01*
X186089307Y-110666638D02*
X186279783Y-110571400D01*
X186279783Y-110571400D02*
X186375021Y-110476161D01*
X184375021Y-108857114D02*
X184279783Y-108761876D01*
X184279783Y-108761876D02*
X184089307Y-108666638D01*
X184089307Y-108666638D02*
X183613116Y-108666638D01*
X183613116Y-108666638D02*
X183422640Y-108761876D01*
X183422640Y-108761876D02*
X183327402Y-108857114D01*
X183327402Y-108857114D02*
X183232164Y-109047590D01*
X183232164Y-109047590D02*
X183232164Y-109238066D01*
X183232164Y-109238066D02*
X183327402Y-109523780D01*
X183327402Y-109523780D02*
X184470259Y-110666638D01*
X184470259Y-110666638D02*
X183232164Y-110666638D01*
X182375021Y-109904733D02*
X180851212Y-109904733D01*
X179994069Y-110571400D02*
X179708355Y-110666638D01*
X179708355Y-110666638D02*
X179232164Y-110666638D01*
X179232164Y-110666638D02*
X179041688Y-110571400D01*
X179041688Y-110571400D02*
X178946450Y-110476161D01*
X178946450Y-110476161D02*
X178851212Y-110285685D01*
X178851212Y-110285685D02*
X178851212Y-110095209D01*
X178851212Y-110095209D02*
X178946450Y-109904733D01*
X178946450Y-109904733D02*
X179041688Y-109809495D01*
X179041688Y-109809495D02*
X179232164Y-109714257D01*
X179232164Y-109714257D02*
X179613117Y-109619019D01*
X179613117Y-109619019D02*
X179803593Y-109523780D01*
X179803593Y-109523780D02*
X179898831Y-109428542D01*
X179898831Y-109428542D02*
X179994069Y-109238066D01*
X179994069Y-109238066D02*
X179994069Y-109047590D01*
X179994069Y-109047590D02*
X179898831Y-108857114D01*
X179898831Y-108857114D02*
X179803593Y-108761876D01*
X179803593Y-108761876D02*
X179613117Y-108666638D01*
X179613117Y-108666638D02*
X179136926Y-108666638D01*
X179136926Y-108666638D02*
X178851212Y-108761876D01*
X178184545Y-108666638D02*
X176946450Y-108666638D01*
X176946450Y-108666638D02*
X177613117Y-109428542D01*
X177613117Y-109428542D02*
X177327402Y-109428542D01*
X177327402Y-109428542D02*
X177136926Y-109523780D01*
X177136926Y-109523780D02*
X177041688Y-109619019D01*
X177041688Y-109619019D02*
X176946450Y-109809495D01*
X176946450Y-109809495D02*
X176946450Y-110285685D01*
X176946450Y-110285685D02*
X177041688Y-110476161D01*
X177041688Y-110476161D02*
X177136926Y-110571400D01*
X177136926Y-110571400D02*
X177327402Y-110666638D01*
X177327402Y-110666638D02*
X177898831Y-110666638D01*
X177898831Y-110666638D02*
X178089307Y-110571400D01*
X178089307Y-110571400D02*
X178184545Y-110476161D01*
X143781736Y-99536819D02*
X144257926Y-99536819D01*
X144257926Y-99536819D02*
X144257926Y-98536819D01*
X143305545Y-99536819D02*
X143400783Y-99489200D01*
X143400783Y-99489200D02*
X143448402Y-99441580D01*
X143448402Y-99441580D02*
X143496021Y-99346342D01*
X143496021Y-99346342D02*
X143496021Y-99060628D01*
X143496021Y-99060628D02*
X143448402Y-98965390D01*
X143448402Y-98965390D02*
X143400783Y-98917771D01*
X143400783Y-98917771D02*
X143305545Y-98870152D01*
X143305545Y-98870152D02*
X143162688Y-98870152D01*
X143162688Y-98870152D02*
X143067450Y-98917771D01*
X143067450Y-98917771D02*
X143019831Y-98965390D01*
X143019831Y-98965390D02*
X142972212Y-99060628D01*
X142972212Y-99060628D02*
X142972212Y-99346342D01*
X142972212Y-99346342D02*
X143019831Y-99441580D01*
X143019831Y-99441580D02*
X143067450Y-99489200D01*
X143067450Y-99489200D02*
X143162688Y-99536819D01*
X143162688Y-99536819D02*
X143305545Y-99536819D01*
X141972212Y-99536819D02*
X142305545Y-99060628D01*
X142543640Y-99536819D02*
X142543640Y-98536819D01*
X142543640Y-98536819D02*
X142162688Y-98536819D01*
X142162688Y-98536819D02*
X142067450Y-98584438D01*
X142067450Y-98584438D02*
X142019831Y-98632057D01*
X142019831Y-98632057D02*
X141972212Y-98727295D01*
X141972212Y-98727295D02*
X141972212Y-98870152D01*
X141972212Y-98870152D02*
X142019831Y-98965390D01*
X142019831Y-98965390D02*
X142067450Y-99013009D01*
X142067450Y-99013009D02*
X142162688Y-99060628D01*
X142162688Y-99060628D02*
X142543640Y-99060628D01*
X141115069Y-99536819D02*
X141115069Y-99013009D01*
X141115069Y-99013009D02*
X141162688Y-98917771D01*
X141162688Y-98917771D02*
X141257926Y-98870152D01*
X141257926Y-98870152D02*
X141448402Y-98870152D01*
X141448402Y-98870152D02*
X141543640Y-98917771D01*
X141115069Y-99489200D02*
X141210307Y-99536819D01*
X141210307Y-99536819D02*
X141448402Y-99536819D01*
X141448402Y-99536819D02*
X141543640Y-99489200D01*
X141543640Y-99489200D02*
X141591259Y-99393961D01*
X141591259Y-99393961D02*
X141591259Y-99298723D01*
X141591259Y-99298723D02*
X141543640Y-99203485D01*
X141543640Y-99203485D02*
X141448402Y-99155866D01*
X141448402Y-99155866D02*
X141210307Y-99155866D01*
X141210307Y-99155866D02*
X141115069Y-99108247D01*
X139876973Y-99536819D02*
X139876973Y-98536819D01*
X139876973Y-98536819D02*
X139543640Y-99251104D01*
X139543640Y-99251104D02*
X139210307Y-98536819D01*
X139210307Y-98536819D02*
X139210307Y-99536819D01*
X138591259Y-99536819D02*
X138686497Y-99489200D01*
X138686497Y-99489200D02*
X138734116Y-99441580D01*
X138734116Y-99441580D02*
X138781735Y-99346342D01*
X138781735Y-99346342D02*
X138781735Y-99060628D01*
X138781735Y-99060628D02*
X138734116Y-98965390D01*
X138734116Y-98965390D02*
X138686497Y-98917771D01*
X138686497Y-98917771D02*
X138591259Y-98870152D01*
X138591259Y-98870152D02*
X138448402Y-98870152D01*
X138448402Y-98870152D02*
X138353164Y-98917771D01*
X138353164Y-98917771D02*
X138305545Y-98965390D01*
X138305545Y-98965390D02*
X138257926Y-99060628D01*
X138257926Y-99060628D02*
X138257926Y-99346342D01*
X138257926Y-99346342D02*
X138305545Y-99441580D01*
X138305545Y-99441580D02*
X138353164Y-99489200D01*
X138353164Y-99489200D02*
X138448402Y-99536819D01*
X138448402Y-99536819D02*
X138591259Y-99536819D01*
X137400783Y-99536819D02*
X137400783Y-98536819D01*
X137400783Y-99489200D02*
X137496021Y-99536819D01*
X137496021Y-99536819D02*
X137686497Y-99536819D01*
X137686497Y-99536819D02*
X137781735Y-99489200D01*
X137781735Y-99489200D02*
X137829354Y-99441580D01*
X137829354Y-99441580D02*
X137876973Y-99346342D01*
X137876973Y-99346342D02*
X137876973Y-99060628D01*
X137876973Y-99060628D02*
X137829354Y-98965390D01*
X137829354Y-98965390D02*
X137781735Y-98917771D01*
X137781735Y-98917771D02*
X137686497Y-98870152D01*
X137686497Y-98870152D02*
X137496021Y-98870152D01*
X137496021Y-98870152D02*
X137400783Y-98917771D01*
X136496021Y-98870152D02*
X136496021Y-99536819D01*
X136924592Y-98870152D02*
X136924592Y-99393961D01*
X136924592Y-99393961D02*
X136876973Y-99489200D01*
X136876973Y-99489200D02*
X136781735Y-99536819D01*
X136781735Y-99536819D02*
X136638878Y-99536819D01*
X136638878Y-99536819D02*
X136543640Y-99489200D01*
X136543640Y-99489200D02*
X136496021Y-99441580D01*
X135876973Y-99536819D02*
X135972211Y-99489200D01*
X135972211Y-99489200D02*
X136019830Y-99393961D01*
X136019830Y-99393961D02*
X136019830Y-98536819D01*
X135115068Y-99489200D02*
X135210306Y-99536819D01*
X135210306Y-99536819D02*
X135400782Y-99536819D01*
X135400782Y-99536819D02*
X135496020Y-99489200D01*
X135496020Y-99489200D02*
X135543639Y-99393961D01*
X135543639Y-99393961D02*
X135543639Y-99013009D01*
X135543639Y-99013009D02*
X135496020Y-98917771D01*
X135496020Y-98917771D02*
X135400782Y-98870152D01*
X135400782Y-98870152D02*
X135210306Y-98870152D01*
X135210306Y-98870152D02*
X135115068Y-98917771D01*
X135115068Y-98917771D02*
X135067449Y-99013009D01*
X135067449Y-99013009D02*
X135067449Y-99108247D01*
X135067449Y-99108247D02*
X135543639Y-99203485D01*
X191857526Y-112414619D02*
X191857526Y-111414619D01*
X191857526Y-111414619D02*
X191524193Y-112128904D01*
X191524193Y-112128904D02*
X191190860Y-111414619D01*
X191190860Y-111414619D02*
X191190860Y-112414619D01*
X190714669Y-112414619D02*
X190714669Y-111747952D01*
X190714669Y-111414619D02*
X190762288Y-111462238D01*
X190762288Y-111462238D02*
X190714669Y-111509857D01*
X190714669Y-111509857D02*
X190667050Y-111462238D01*
X190667050Y-111462238D02*
X190714669Y-111414619D01*
X190714669Y-111414619D02*
X190714669Y-111509857D01*
X189809908Y-112367000D02*
X189905146Y-112414619D01*
X189905146Y-112414619D02*
X190095622Y-112414619D01*
X190095622Y-112414619D02*
X190190860Y-112367000D01*
X190190860Y-112367000D02*
X190238479Y-112319380D01*
X190238479Y-112319380D02*
X190286098Y-112224142D01*
X190286098Y-112224142D02*
X190286098Y-111938428D01*
X190286098Y-111938428D02*
X190238479Y-111843190D01*
X190238479Y-111843190D02*
X190190860Y-111795571D01*
X190190860Y-111795571D02*
X190095622Y-111747952D01*
X190095622Y-111747952D02*
X189905146Y-111747952D01*
X189905146Y-111747952D02*
X189809908Y-111795571D01*
X189381336Y-112414619D02*
X189381336Y-111747952D01*
X189381336Y-111938428D02*
X189333717Y-111843190D01*
X189333717Y-111843190D02*
X189286098Y-111795571D01*
X189286098Y-111795571D02*
X189190860Y-111747952D01*
X189190860Y-111747952D02*
X189095622Y-111747952D01*
X188619431Y-112414619D02*
X188714669Y-112367000D01*
X188714669Y-112367000D02*
X188762288Y-112319380D01*
X188762288Y-112319380D02*
X188809907Y-112224142D01*
X188809907Y-112224142D02*
X188809907Y-111938428D01*
X188809907Y-111938428D02*
X188762288Y-111843190D01*
X188762288Y-111843190D02*
X188714669Y-111795571D01*
X188714669Y-111795571D02*
X188619431Y-111747952D01*
X188619431Y-111747952D02*
X188476574Y-111747952D01*
X188476574Y-111747952D02*
X188381336Y-111795571D01*
X188381336Y-111795571D02*
X188333717Y-111843190D01*
X188333717Y-111843190D02*
X188286098Y-111938428D01*
X188286098Y-111938428D02*
X188286098Y-112224142D01*
X188286098Y-112224142D02*
X188333717Y-112319380D01*
X188333717Y-112319380D02*
X188381336Y-112367000D01*
X188381336Y-112367000D02*
X188476574Y-112414619D01*
X188476574Y-112414619D02*
X188619431Y-112414619D01*
X187286098Y-112319380D02*
X187333717Y-112367000D01*
X187333717Y-112367000D02*
X187476574Y-112414619D01*
X187476574Y-112414619D02*
X187571812Y-112414619D01*
X187571812Y-112414619D02*
X187714669Y-112367000D01*
X187714669Y-112367000D02*
X187809907Y-112271761D01*
X187809907Y-112271761D02*
X187857526Y-112176523D01*
X187857526Y-112176523D02*
X187905145Y-111986047D01*
X187905145Y-111986047D02*
X187905145Y-111843190D01*
X187905145Y-111843190D02*
X187857526Y-111652714D01*
X187857526Y-111652714D02*
X187809907Y-111557476D01*
X187809907Y-111557476D02*
X187714669Y-111462238D01*
X187714669Y-111462238D02*
X187571812Y-111414619D01*
X187571812Y-111414619D02*
X187476574Y-111414619D01*
X187476574Y-111414619D02*
X187333717Y-111462238D01*
X187333717Y-111462238D02*
X187286098Y-111509857D01*
X186714669Y-112414619D02*
X186809907Y-112367000D01*
X186809907Y-112367000D02*
X186857526Y-112319380D01*
X186857526Y-112319380D02*
X186905145Y-112224142D01*
X186905145Y-112224142D02*
X186905145Y-111938428D01*
X186905145Y-111938428D02*
X186857526Y-111843190D01*
X186857526Y-111843190D02*
X186809907Y-111795571D01*
X186809907Y-111795571D02*
X186714669Y-111747952D01*
X186714669Y-111747952D02*
X186571812Y-111747952D01*
X186571812Y-111747952D02*
X186476574Y-111795571D01*
X186476574Y-111795571D02*
X186428955Y-111843190D01*
X186428955Y-111843190D02*
X186381336Y-111938428D01*
X186381336Y-111938428D02*
X186381336Y-112224142D01*
X186381336Y-112224142D02*
X186428955Y-112319380D01*
X186428955Y-112319380D02*
X186476574Y-112367000D01*
X186476574Y-112367000D02*
X186571812Y-112414619D01*
X186571812Y-112414619D02*
X186714669Y-112414619D01*
X185952764Y-111747952D02*
X185952764Y-112414619D01*
X185952764Y-111843190D02*
X185905145Y-111795571D01*
X185905145Y-111795571D02*
X185809907Y-111747952D01*
X185809907Y-111747952D02*
X185667050Y-111747952D01*
X185667050Y-111747952D02*
X185571812Y-111795571D01*
X185571812Y-111795571D02*
X185524193Y-111890809D01*
X185524193Y-111890809D02*
X185524193Y-112414619D01*
X185190859Y-111747952D02*
X184809907Y-111747952D01*
X185048002Y-111414619D02*
X185048002Y-112271761D01*
X185048002Y-112271761D02*
X185000383Y-112367000D01*
X185000383Y-112367000D02*
X184905145Y-112414619D01*
X184905145Y-112414619D02*
X184809907Y-112414619D01*
X184476573Y-112414619D02*
X184476573Y-111747952D01*
X184476573Y-111938428D02*
X184428954Y-111843190D01*
X184428954Y-111843190D02*
X184381335Y-111795571D01*
X184381335Y-111795571D02*
X184286097Y-111747952D01*
X184286097Y-111747952D02*
X184190859Y-111747952D01*
X183714668Y-112414619D02*
X183809906Y-112367000D01*
X183809906Y-112367000D02*
X183857525Y-112319380D01*
X183857525Y-112319380D02*
X183905144Y-112224142D01*
X183905144Y-112224142D02*
X183905144Y-111938428D01*
X183905144Y-111938428D02*
X183857525Y-111843190D01*
X183857525Y-111843190D02*
X183809906Y-111795571D01*
X183809906Y-111795571D02*
X183714668Y-111747952D01*
X183714668Y-111747952D02*
X183571811Y-111747952D01*
X183571811Y-111747952D02*
X183476573Y-111795571D01*
X183476573Y-111795571D02*
X183428954Y-111843190D01*
X183428954Y-111843190D02*
X183381335Y-111938428D01*
X183381335Y-111938428D02*
X183381335Y-112224142D01*
X183381335Y-112224142D02*
X183428954Y-112319380D01*
X183428954Y-112319380D02*
X183476573Y-112367000D01*
X183476573Y-112367000D02*
X183571811Y-112414619D01*
X183571811Y-112414619D02*
X183714668Y-112414619D01*
X182809906Y-112414619D02*
X182905144Y-112367000D01*
X182905144Y-112367000D02*
X182952763Y-112271761D01*
X182952763Y-112271761D02*
X182952763Y-111414619D01*
X182286096Y-112414619D02*
X182381334Y-112367000D01*
X182381334Y-112367000D02*
X182428953Y-112271761D01*
X182428953Y-112271761D02*
X182428953Y-111414619D01*
X181524191Y-112367000D02*
X181619429Y-112414619D01*
X181619429Y-112414619D02*
X181809905Y-112414619D01*
X181809905Y-112414619D02*
X181905143Y-112367000D01*
X181905143Y-112367000D02*
X181952762Y-112271761D01*
X181952762Y-112271761D02*
X181952762Y-111890809D01*
X181952762Y-111890809D02*
X181905143Y-111795571D01*
X181905143Y-111795571D02*
X181809905Y-111747952D01*
X181809905Y-111747952D02*
X181619429Y-111747952D01*
X181619429Y-111747952D02*
X181524191Y-111795571D01*
X181524191Y-111795571D02*
X181476572Y-111890809D01*
X181476572Y-111890809D02*
X181476572Y-111986047D01*
X181476572Y-111986047D02*
X181952762Y-112081285D01*
X181048000Y-112414619D02*
X181048000Y-111747952D01*
X181048000Y-111938428D02*
X181000381Y-111843190D01*
X181000381Y-111843190D02*
X180952762Y-111795571D01*
X180952762Y-111795571D02*
X180857524Y-111747952D01*
X180857524Y-111747952D02*
X180762286Y-111747952D01*
D12*
X178664347Y-73227466D02*
X180188157Y-73227466D01*
D11*
X137098183Y-112692219D02*
X136526755Y-112692219D01*
X136812469Y-113692219D02*
X136812469Y-112692219D01*
X135764850Y-113692219D02*
X135764850Y-113168409D01*
X135764850Y-113168409D02*
X135812469Y-113073171D01*
X135812469Y-113073171D02*
X135907707Y-113025552D01*
X135907707Y-113025552D02*
X136098183Y-113025552D01*
X136098183Y-113025552D02*
X136193421Y-113073171D01*
X135764850Y-113644600D02*
X135860088Y-113692219D01*
X135860088Y-113692219D02*
X136098183Y-113692219D01*
X136098183Y-113692219D02*
X136193421Y-113644600D01*
X136193421Y-113644600D02*
X136241040Y-113549361D01*
X136241040Y-113549361D02*
X136241040Y-113454123D01*
X136241040Y-113454123D02*
X136193421Y-113358885D01*
X136193421Y-113358885D02*
X136098183Y-113311266D01*
X136098183Y-113311266D02*
X135860088Y-113311266D01*
X135860088Y-113311266D02*
X135764850Y-113263647D01*
X135145802Y-113692219D02*
X135241040Y-113644600D01*
X135241040Y-113644600D02*
X135288659Y-113549361D01*
X135288659Y-113549361D02*
X135288659Y-112692219D01*
X134764849Y-113692219D02*
X134764849Y-112692219D01*
X134669611Y-113311266D02*
X134383897Y-113692219D01*
X134383897Y-113025552D02*
X134764849Y-113406504D01*
X133241039Y-113644600D02*
X133098182Y-113692219D01*
X133098182Y-113692219D02*
X132860087Y-113692219D01*
X132860087Y-113692219D02*
X132764849Y-113644600D01*
X132764849Y-113644600D02*
X132717230Y-113596980D01*
X132717230Y-113596980D02*
X132669611Y-113501742D01*
X132669611Y-113501742D02*
X132669611Y-113406504D01*
X132669611Y-113406504D02*
X132717230Y-113311266D01*
X132717230Y-113311266D02*
X132764849Y-113263647D01*
X132764849Y-113263647D02*
X132860087Y-113216028D01*
X132860087Y-113216028D02*
X133050563Y-113168409D01*
X133050563Y-113168409D02*
X133145801Y-113120790D01*
X133145801Y-113120790D02*
X133193420Y-113073171D01*
X133193420Y-113073171D02*
X133241039Y-112977933D01*
X133241039Y-112977933D02*
X133241039Y-112882695D01*
X133241039Y-112882695D02*
X133193420Y-112787457D01*
X133193420Y-112787457D02*
X133145801Y-112739838D01*
X133145801Y-112739838D02*
X133050563Y-112692219D01*
X133050563Y-112692219D02*
X132812468Y-112692219D01*
X132812468Y-112692219D02*
X132669611Y-112739838D01*
X132336277Y-112692219D02*
X132098182Y-113692219D01*
X132098182Y-113692219D02*
X131907706Y-112977933D01*
X131907706Y-112977933D02*
X131717230Y-113692219D01*
X131717230Y-113692219D02*
X131479135Y-112692219D01*
D10*
X166834211Y-85417466D02*
X167367544Y-85617466D01*
X167367544Y-85617466D02*
X166834211Y-85817466D01*
X165967544Y-85617466D02*
X165434211Y-85617466D01*
X165100877Y-85617466D02*
X164567544Y-85617466D01*
X164234210Y-85617466D02*
X163700877Y-85617466D01*
X162834210Y-85884133D02*
X162834210Y-85184133D01*
X162834210Y-85184133D02*
X162667543Y-85184133D01*
X162667543Y-85184133D02*
X162567543Y-85217466D01*
X162567543Y-85217466D02*
X162500877Y-85284133D01*
X162500877Y-85284133D02*
X162467543Y-85350800D01*
X162467543Y-85350800D02*
X162434210Y-85484133D01*
X162434210Y-85484133D02*
X162434210Y-85584133D01*
X162434210Y-85584133D02*
X162467543Y-85717466D01*
X162467543Y-85717466D02*
X162500877Y-85784133D01*
X162500877Y-85784133D02*
X162567543Y-85850800D01*
X162567543Y-85850800D02*
X162667543Y-85884133D01*
X162667543Y-85884133D02*
X162834210Y-85884133D01*
X162134210Y-85884133D02*
X162134210Y-85417466D01*
X162134210Y-85184133D02*
X162167543Y-85217466D01*
X162167543Y-85217466D02*
X162134210Y-85250800D01*
X162134210Y-85250800D02*
X162100877Y-85217466D01*
X162100877Y-85217466D02*
X162134210Y-85184133D01*
X162134210Y-85184133D02*
X162134210Y-85250800D01*
X161834210Y-85850800D02*
X161767544Y-85884133D01*
X161767544Y-85884133D02*
X161634210Y-85884133D01*
X161634210Y-85884133D02*
X161567544Y-85850800D01*
X161567544Y-85850800D02*
X161534210Y-85784133D01*
X161534210Y-85784133D02*
X161534210Y-85750800D01*
X161534210Y-85750800D02*
X161567544Y-85684133D01*
X161567544Y-85684133D02*
X161634210Y-85650800D01*
X161634210Y-85650800D02*
X161734210Y-85650800D01*
X161734210Y-85650800D02*
X161800877Y-85617466D01*
X161800877Y-85617466D02*
X161834210Y-85550800D01*
X161834210Y-85550800D02*
X161834210Y-85517466D01*
X161834210Y-85517466D02*
X161800877Y-85450800D01*
X161800877Y-85450800D02*
X161734210Y-85417466D01*
X161734210Y-85417466D02*
X161634210Y-85417466D01*
X161634210Y-85417466D02*
X161567544Y-85450800D01*
X160934210Y-85884133D02*
X160934210Y-85517466D01*
X160934210Y-85517466D02*
X160967543Y-85450800D01*
X160967543Y-85450800D02*
X161034210Y-85417466D01*
X161034210Y-85417466D02*
X161167543Y-85417466D01*
X161167543Y-85417466D02*
X161234210Y-85450800D01*
X160934210Y-85850800D02*
X161000877Y-85884133D01*
X161000877Y-85884133D02*
X161167543Y-85884133D01*
X161167543Y-85884133D02*
X161234210Y-85850800D01*
X161234210Y-85850800D02*
X161267543Y-85784133D01*
X161267543Y-85784133D02*
X161267543Y-85717466D01*
X161267543Y-85717466D02*
X161234210Y-85650800D01*
X161234210Y-85650800D02*
X161167543Y-85617466D01*
X161167543Y-85617466D02*
X161000877Y-85617466D01*
X161000877Y-85617466D02*
X160934210Y-85584133D01*
X160600877Y-85884133D02*
X160600877Y-85184133D01*
X160600877Y-85450800D02*
X160534210Y-85417466D01*
X160534210Y-85417466D02*
X160400877Y-85417466D01*
X160400877Y-85417466D02*
X160334210Y-85450800D01*
X160334210Y-85450800D02*
X160300877Y-85484133D01*
X160300877Y-85484133D02*
X160267544Y-85550800D01*
X160267544Y-85550800D02*
X160267544Y-85750800D01*
X160267544Y-85750800D02*
X160300877Y-85817466D01*
X160300877Y-85817466D02*
X160334210Y-85850800D01*
X160334210Y-85850800D02*
X160400877Y-85884133D01*
X160400877Y-85884133D02*
X160534210Y-85884133D01*
X160534210Y-85884133D02*
X160600877Y-85850800D01*
X159867544Y-85884133D02*
X159934211Y-85850800D01*
X159934211Y-85850800D02*
X159967544Y-85784133D01*
X159967544Y-85784133D02*
X159967544Y-85184133D01*
X159334210Y-85850800D02*
X159400877Y-85884133D01*
X159400877Y-85884133D02*
X159534210Y-85884133D01*
X159534210Y-85884133D02*
X159600877Y-85850800D01*
X159600877Y-85850800D02*
X159634210Y-85784133D01*
X159634210Y-85784133D02*
X159634210Y-85517466D01*
X159634210Y-85517466D02*
X159600877Y-85450800D01*
X159600877Y-85450800D02*
X159534210Y-85417466D01*
X159534210Y-85417466D02*
X159400877Y-85417466D01*
X159400877Y-85417466D02*
X159334210Y-85450800D01*
X159334210Y-85450800D02*
X159300877Y-85517466D01*
X159300877Y-85517466D02*
X159300877Y-85584133D01*
X159300877Y-85584133D02*
X159634210Y-85650800D01*
X158567544Y-85184133D02*
X158167544Y-85184133D01*
X158367544Y-85884133D02*
X158367544Y-85184133D01*
X157934211Y-85884133D02*
X157934211Y-85184133D01*
X157634211Y-85884133D02*
X157634211Y-85517466D01*
X157634211Y-85517466D02*
X157667544Y-85450800D01*
X157667544Y-85450800D02*
X157734211Y-85417466D01*
X157734211Y-85417466D02*
X157834211Y-85417466D01*
X157834211Y-85417466D02*
X157900878Y-85450800D01*
X157900878Y-85450800D02*
X157934211Y-85484133D01*
X157034211Y-85850800D02*
X157100878Y-85884133D01*
X157100878Y-85884133D02*
X157234211Y-85884133D01*
X157234211Y-85884133D02*
X157300878Y-85850800D01*
X157300878Y-85850800D02*
X157334211Y-85784133D01*
X157334211Y-85784133D02*
X157334211Y-85517466D01*
X157334211Y-85517466D02*
X157300878Y-85450800D01*
X157300878Y-85450800D02*
X157234211Y-85417466D01*
X157234211Y-85417466D02*
X157100878Y-85417466D01*
X157100878Y-85417466D02*
X157034211Y-85450800D01*
X157034211Y-85450800D02*
X157000878Y-85517466D01*
X157000878Y-85517466D02*
X157000878Y-85584133D01*
X157000878Y-85584133D02*
X157334211Y-85650800D01*
X156700878Y-85884133D02*
X156700878Y-85417466D01*
X156700878Y-85550800D02*
X156667545Y-85484133D01*
X156667545Y-85484133D02*
X156634211Y-85450800D01*
X156634211Y-85450800D02*
X156567545Y-85417466D01*
X156567545Y-85417466D02*
X156500878Y-85417466D01*
X156267545Y-85884133D02*
X156267545Y-85417466D01*
X156267545Y-85484133D02*
X156234212Y-85450800D01*
X156234212Y-85450800D02*
X156167545Y-85417466D01*
X156167545Y-85417466D02*
X156067545Y-85417466D01*
X156067545Y-85417466D02*
X156000878Y-85450800D01*
X156000878Y-85450800D02*
X155967545Y-85517466D01*
X155967545Y-85517466D02*
X155967545Y-85884133D01*
X155967545Y-85517466D02*
X155934212Y-85450800D01*
X155934212Y-85450800D02*
X155867545Y-85417466D01*
X155867545Y-85417466D02*
X155767545Y-85417466D01*
X155767545Y-85417466D02*
X155700878Y-85450800D01*
X155700878Y-85450800D02*
X155667545Y-85517466D01*
X155667545Y-85517466D02*
X155667545Y-85884133D01*
X155034212Y-85884133D02*
X155034212Y-85517466D01*
X155034212Y-85517466D02*
X155067545Y-85450800D01*
X155067545Y-85450800D02*
X155134212Y-85417466D01*
X155134212Y-85417466D02*
X155267545Y-85417466D01*
X155267545Y-85417466D02*
X155334212Y-85450800D01*
X155034212Y-85850800D02*
X155100879Y-85884133D01*
X155100879Y-85884133D02*
X155267545Y-85884133D01*
X155267545Y-85884133D02*
X155334212Y-85850800D01*
X155334212Y-85850800D02*
X155367545Y-85784133D01*
X155367545Y-85784133D02*
X155367545Y-85717466D01*
X155367545Y-85717466D02*
X155334212Y-85650800D01*
X155334212Y-85650800D02*
X155267545Y-85617466D01*
X155267545Y-85617466D02*
X155100879Y-85617466D01*
X155100879Y-85617466D02*
X155034212Y-85584133D01*
X154600879Y-85884133D02*
X154667546Y-85850800D01*
X154667546Y-85850800D02*
X154700879Y-85784133D01*
X154700879Y-85784133D02*
X154700879Y-85184133D01*
D11*
X143130974Y-97712638D02*
X143797641Y-96760257D01*
X144273831Y-97712638D02*
X144273831Y-95712638D01*
X144273831Y-95712638D02*
X143511926Y-95712638D01*
X143511926Y-95712638D02*
X143321450Y-95807876D01*
X143321450Y-95807876D02*
X143226212Y-95903114D01*
X143226212Y-95903114D02*
X143130974Y-96093590D01*
X143130974Y-96093590D02*
X143130974Y-96379304D01*
X143130974Y-96379304D02*
X143226212Y-96569780D01*
X143226212Y-96569780D02*
X143321450Y-96665019D01*
X143321450Y-96665019D02*
X143511926Y-96760257D01*
X143511926Y-96760257D02*
X144273831Y-96760257D01*
X142369069Y-97141209D02*
X141416688Y-97141209D01*
X142559545Y-97712638D02*
X141892879Y-95712638D01*
X141892879Y-95712638D02*
X141226212Y-97712638D01*
X140559545Y-96950733D02*
X139035736Y-96950733D01*
X137702403Y-95712638D02*
X137511926Y-95712638D01*
X137511926Y-95712638D02*
X137321450Y-95807876D01*
X137321450Y-95807876D02*
X137226212Y-95903114D01*
X137226212Y-95903114D02*
X137130974Y-96093590D01*
X137130974Y-96093590D02*
X137035736Y-96474542D01*
X137035736Y-96474542D02*
X137035736Y-96950733D01*
X137035736Y-96950733D02*
X137130974Y-97331685D01*
X137130974Y-97331685D02*
X137226212Y-97522161D01*
X137226212Y-97522161D02*
X137321450Y-97617400D01*
X137321450Y-97617400D02*
X137511926Y-97712638D01*
X137511926Y-97712638D02*
X137702403Y-97712638D01*
X137702403Y-97712638D02*
X137892879Y-97617400D01*
X137892879Y-97617400D02*
X137988117Y-97522161D01*
X137988117Y-97522161D02*
X138083355Y-97331685D01*
X138083355Y-97331685D02*
X138178593Y-96950733D01*
X138178593Y-96950733D02*
X138178593Y-96474542D01*
X138178593Y-96474542D02*
X138083355Y-96093590D01*
X138083355Y-96093590D02*
X137988117Y-95903114D01*
X137988117Y-95903114D02*
X137892879Y-95807876D01*
X137892879Y-95807876D02*
X137702403Y-95712638D01*
X135130974Y-97712638D02*
X136273831Y-97712638D01*
X135702403Y-97712638D02*
X135702403Y-95712638D01*
X135702403Y-95712638D02*
X135892879Y-95998352D01*
X135892879Y-95998352D02*
X136083355Y-96188828D01*
X136083355Y-96188828D02*
X136273831Y-96284066D01*
X134273831Y-97712638D02*
X134273831Y-95712638D01*
X134273831Y-96665019D02*
X133130974Y-96665019D01*
X133130974Y-97712638D02*
X133130974Y-95712638D01*
D10*
X158052887Y-83044162D02*
X158100027Y-82949881D01*
X158100027Y-82949881D02*
X158100027Y-82902741D01*
X158100027Y-82902741D02*
X158076457Y-82832030D01*
X158076457Y-82832030D02*
X158005747Y-82761319D01*
X158005747Y-82761319D02*
X157935036Y-82737749D01*
X157935036Y-82737749D02*
X157887895Y-82737749D01*
X157887895Y-82737749D02*
X157817185Y-82761319D01*
X157817185Y-82761319D02*
X157628623Y-82949881D01*
X157628623Y-82949881D02*
X158123598Y-83444856D01*
X158123598Y-83444856D02*
X158288589Y-83279864D01*
X158288589Y-83279864D02*
X158312159Y-83209153D01*
X158312159Y-83209153D02*
X158312159Y-83162013D01*
X158312159Y-83162013D02*
X158288589Y-83091302D01*
X158288589Y-83091302D02*
X158241449Y-83044162D01*
X158241449Y-83044162D02*
X158170738Y-83020592D01*
X158170738Y-83020592D02*
X158123598Y-83020592D01*
X158123598Y-83020592D02*
X158052887Y-83044162D01*
X158052887Y-83044162D02*
X157887895Y-83209153D01*
X158241449Y-82619898D02*
X158477151Y-82384196D01*
X158052887Y-82525617D02*
X158712853Y-82855600D01*
X158712853Y-82855600D02*
X158382870Y-82195634D01*
X158972126Y-82596328D02*
X159254969Y-82313485D01*
X158618572Y-81959931D02*
X159113547Y-82454906D01*
X159349249Y-82219204D02*
X159632092Y-81936361D01*
X158995696Y-81582808D02*
X159490671Y-82077783D01*
X159561381Y-81535668D02*
X159726373Y-81370676D01*
X159537811Y-81040693D02*
X159302108Y-81276395D01*
X159302108Y-81276395D02*
X159797083Y-81771370D01*
X159797083Y-81771370D02*
X160032785Y-81535668D01*
X160032785Y-80545719D02*
X160103496Y-80946412D01*
X159749943Y-80828561D02*
X160244917Y-81323536D01*
X160244917Y-81323536D02*
X160433479Y-81134974D01*
X160433479Y-81134974D02*
X160457049Y-81064264D01*
X160457049Y-81064264D02*
X160457049Y-81017123D01*
X160457049Y-81017123D02*
X160433479Y-80946412D01*
X160433479Y-80946412D02*
X160362768Y-80875702D01*
X160362768Y-80875702D02*
X160292058Y-80852132D01*
X160292058Y-80852132D02*
X160244917Y-80852132D01*
X160244917Y-80852132D02*
X160174207Y-80875702D01*
X160174207Y-80875702D02*
X159985645Y-81064264D01*
X160574900Y-80475008D02*
X160339198Y-80239306D01*
X160669181Y-80899272D02*
X160574900Y-80475008D01*
X160574900Y-80475008D02*
X160999165Y-80569289D01*
X161046305Y-79532199D02*
X161541279Y-80027174D01*
X161541279Y-80027174D02*
X161729841Y-79838612D01*
X161729841Y-79838612D02*
X161753412Y-79767901D01*
X161753412Y-79767901D02*
X161753412Y-79720761D01*
X161753412Y-79720761D02*
X161729841Y-79650050D01*
X161729841Y-79650050D02*
X161659131Y-79579340D01*
X161659131Y-79579340D02*
X161588420Y-79555769D01*
X161588420Y-79555769D02*
X161541279Y-79555769D01*
X161541279Y-79555769D02*
X161470569Y-79579340D01*
X161470569Y-79579340D02*
X161282007Y-79767901D01*
X162130535Y-79437918D02*
X162224816Y-79343637D01*
X162224816Y-79343637D02*
X162248386Y-79272927D01*
X162248386Y-79272927D02*
X162248386Y-79178646D01*
X162248386Y-79178646D02*
X162177676Y-79060795D01*
X162177676Y-79060795D02*
X162012684Y-78895803D01*
X162012684Y-78895803D02*
X161894833Y-78825092D01*
X161894833Y-78825092D02*
X161800552Y-78825092D01*
X161800552Y-78825092D02*
X161729841Y-78848663D01*
X161729841Y-78848663D02*
X161635560Y-78942943D01*
X161635560Y-78942943D02*
X161611990Y-79013654D01*
X161611990Y-79013654D02*
X161611990Y-79107935D01*
X161611990Y-79107935D02*
X161682701Y-79225786D01*
X161682701Y-79225786D02*
X161847692Y-79390778D01*
X161847692Y-79390778D02*
X161965544Y-79461488D01*
X161965544Y-79461488D02*
X162059824Y-79461488D01*
X162059824Y-79461488D02*
X162130535Y-79437918D01*
X162059824Y-78565820D02*
X162106965Y-78471539D01*
X162106965Y-78471539D02*
X162224816Y-78353688D01*
X162224816Y-78353688D02*
X162295526Y-78330118D01*
X162295526Y-78330118D02*
X162342667Y-78330118D01*
X162342667Y-78330118D02*
X162413378Y-78353688D01*
X162413378Y-78353688D02*
X162460518Y-78400829D01*
X162460518Y-78400829D02*
X162484088Y-78471539D01*
X162484088Y-78471539D02*
X162484088Y-78518680D01*
X162484088Y-78518680D02*
X162460518Y-78589390D01*
X162460518Y-78589390D02*
X162389807Y-78707241D01*
X162389807Y-78707241D02*
X162366237Y-78777952D01*
X162366237Y-78777952D02*
X162366237Y-78825093D01*
X162366237Y-78825093D02*
X162389807Y-78895803D01*
X162389807Y-78895803D02*
X162436948Y-78942944D01*
X162436948Y-78942944D02*
X162507659Y-78966514D01*
X162507659Y-78966514D02*
X162554799Y-78966514D01*
X162554799Y-78966514D02*
X162625510Y-78942944D01*
X162625510Y-78942944D02*
X162743361Y-78825093D01*
X162743361Y-78825093D02*
X162790501Y-78730812D01*
X162531229Y-78047275D02*
X163026204Y-78542250D01*
X163191195Y-78377258D02*
X163474038Y-78094416D01*
X162837642Y-77740862D02*
X163332616Y-78235837D01*
X163144054Y-77434449D02*
X163639029Y-77929424D01*
X163804020Y-77764433D02*
X163474037Y-77104467D01*
X163474037Y-77104467D02*
X164134004Y-77434450D01*
X164063293Y-77033756D02*
X164228285Y-76868764D01*
X164039723Y-76538781D02*
X163804020Y-76774483D01*
X163804020Y-76774483D02*
X164298995Y-77269458D01*
X164298995Y-77269458D02*
X164534697Y-77033756D01*
X164817540Y-76138088D02*
X165194663Y-75760964D01*
X164817540Y-75760964D02*
X165194663Y-76138088D01*
X165807489Y-75148138D02*
X166184613Y-74771015D01*
X166420315Y-74535312D02*
X166797439Y-74158189D01*
X167033141Y-73922486D02*
X167410265Y-73545362D01*
X167787389Y-73451081D02*
X168023091Y-72932536D01*
X168023091Y-72932536D02*
X167504546Y-73168239D01*
D11*
X192095669Y-94143512D02*
X191809955Y-94238750D01*
X191809955Y-94238750D02*
X191333764Y-94238750D01*
X191333764Y-94238750D02*
X191143288Y-94143512D01*
X191143288Y-94143512D02*
X191048050Y-94048273D01*
X191048050Y-94048273D02*
X190952812Y-93857797D01*
X190952812Y-93857797D02*
X190952812Y-93667321D01*
X190952812Y-93667321D02*
X191048050Y-93476845D01*
X191048050Y-93476845D02*
X191143288Y-93381607D01*
X191143288Y-93381607D02*
X191333764Y-93286369D01*
X191333764Y-93286369D02*
X191714717Y-93191131D01*
X191714717Y-93191131D02*
X191905193Y-93095892D01*
X191905193Y-93095892D02*
X192000431Y-93000654D01*
X192000431Y-93000654D02*
X192095669Y-92810178D01*
X192095669Y-92810178D02*
X192095669Y-92619702D01*
X192095669Y-92619702D02*
X192000431Y-92429226D01*
X192000431Y-92429226D02*
X191905193Y-92333988D01*
X191905193Y-92333988D02*
X191714717Y-92238750D01*
X191714717Y-92238750D02*
X191238526Y-92238750D01*
X191238526Y-92238750D02*
X190952812Y-92333988D01*
X190095669Y-94238750D02*
X190095669Y-92238750D01*
X190095669Y-92238750D02*
X189619479Y-92238750D01*
X189619479Y-92238750D02*
X189333764Y-92333988D01*
X189333764Y-92333988D02*
X189143288Y-92524464D01*
X189143288Y-92524464D02*
X189048050Y-92714940D01*
X189048050Y-92714940D02*
X188952812Y-93095892D01*
X188952812Y-93095892D02*
X188952812Y-93381607D01*
X188952812Y-93381607D02*
X189048050Y-93762559D01*
X189048050Y-93762559D02*
X189143288Y-93953035D01*
X189143288Y-93953035D02*
X189333764Y-94143512D01*
X189333764Y-94143512D02*
X189619479Y-94238750D01*
X189619479Y-94238750D02*
X190095669Y-94238750D01*
X186952812Y-94048273D02*
X187048050Y-94143512D01*
X187048050Y-94143512D02*
X187333764Y-94238750D01*
X187333764Y-94238750D02*
X187524240Y-94238750D01*
X187524240Y-94238750D02*
X187809955Y-94143512D01*
X187809955Y-94143512D02*
X188000431Y-93953035D01*
X188000431Y-93953035D02*
X188095669Y-93762559D01*
X188095669Y-93762559D02*
X188190907Y-93381607D01*
X188190907Y-93381607D02*
X188190907Y-93095892D01*
X188190907Y-93095892D02*
X188095669Y-92714940D01*
X188095669Y-92714940D02*
X188000431Y-92524464D01*
X188000431Y-92524464D02*
X187809955Y-92333988D01*
X187809955Y-92333988D02*
X187524240Y-92238750D01*
X187524240Y-92238750D02*
X187333764Y-92238750D01*
X187333764Y-92238750D02*
X187048050Y-92333988D01*
X187048050Y-92333988D02*
X186952812Y-92429226D01*
X185238526Y-94238750D02*
X185238526Y-93191131D01*
X185238526Y-93191131D02*
X185333764Y-93000654D01*
X185333764Y-93000654D02*
X185524240Y-92905416D01*
X185524240Y-92905416D02*
X185905193Y-92905416D01*
X185905193Y-92905416D02*
X186095669Y-93000654D01*
X185238526Y-94143512D02*
X185429002Y-94238750D01*
X185429002Y-94238750D02*
X185905193Y-94238750D01*
X185905193Y-94238750D02*
X186095669Y-94143512D01*
X186095669Y-94143512D02*
X186190907Y-93953035D01*
X186190907Y-93953035D02*
X186190907Y-93762559D01*
X186190907Y-93762559D02*
X186095669Y-93572083D01*
X186095669Y-93572083D02*
X185905193Y-93476845D01*
X185905193Y-93476845D02*
X185429002Y-93476845D01*
X185429002Y-93476845D02*
X185238526Y-93381607D01*
X184286145Y-94238750D02*
X184286145Y-92905416D01*
X184286145Y-93286369D02*
X184190907Y-93095892D01*
X184190907Y-93095892D02*
X184095669Y-93000654D01*
X184095669Y-93000654D02*
X183905193Y-92905416D01*
X183905193Y-92905416D02*
X183714716Y-92905416D01*
X182190907Y-94238750D02*
X182190907Y-92238750D01*
X182190907Y-94143512D02*
X182381383Y-94238750D01*
X182381383Y-94238750D02*
X182762336Y-94238750D01*
X182762336Y-94238750D02*
X182952812Y-94143512D01*
X182952812Y-94143512D02*
X183048050Y-94048273D01*
X183048050Y-94048273D02*
X183143288Y-93857797D01*
X183143288Y-93857797D02*
X183143288Y-93286369D01*
X183143288Y-93286369D02*
X183048050Y-93095892D01*
X183048050Y-93095892D02*
X182952812Y-93000654D01*
X182952812Y-93000654D02*
X182762336Y-92905416D01*
X182762336Y-92905416D02*
X182381383Y-92905416D01*
X182381383Y-92905416D02*
X182190907Y-93000654D01*
X192095669Y-97363400D02*
X191809955Y-97458638D01*
X191809955Y-97458638D02*
X191333764Y-97458638D01*
X191333764Y-97458638D02*
X191143288Y-97363400D01*
X191143288Y-97363400D02*
X191048050Y-97268161D01*
X191048050Y-97268161D02*
X190952812Y-97077685D01*
X190952812Y-97077685D02*
X190952812Y-96887209D01*
X190952812Y-96887209D02*
X191048050Y-96696733D01*
X191048050Y-96696733D02*
X191143288Y-96601495D01*
X191143288Y-96601495D02*
X191333764Y-96506257D01*
X191333764Y-96506257D02*
X191714717Y-96411019D01*
X191714717Y-96411019D02*
X191905193Y-96315780D01*
X191905193Y-96315780D02*
X192000431Y-96220542D01*
X192000431Y-96220542D02*
X192095669Y-96030066D01*
X192095669Y-96030066D02*
X192095669Y-95839590D01*
X192095669Y-95839590D02*
X192000431Y-95649114D01*
X192000431Y-95649114D02*
X191905193Y-95553876D01*
X191905193Y-95553876D02*
X191714717Y-95458638D01*
X191714717Y-95458638D02*
X191238526Y-95458638D01*
X191238526Y-95458638D02*
X190952812Y-95553876D01*
X189809955Y-97458638D02*
X190000431Y-97363400D01*
X190000431Y-97363400D02*
X190095669Y-97172923D01*
X190095669Y-97172923D02*
X190095669Y-95458638D01*
X188762336Y-97458638D02*
X188952812Y-97363400D01*
X188952812Y-97363400D02*
X189048050Y-97268161D01*
X189048050Y-97268161D02*
X189143288Y-97077685D01*
X189143288Y-97077685D02*
X189143288Y-96506257D01*
X189143288Y-96506257D02*
X189048050Y-96315780D01*
X189048050Y-96315780D02*
X188952812Y-96220542D01*
X188952812Y-96220542D02*
X188762336Y-96125304D01*
X188762336Y-96125304D02*
X188476621Y-96125304D01*
X188476621Y-96125304D02*
X188286145Y-96220542D01*
X188286145Y-96220542D02*
X188190907Y-96315780D01*
X188190907Y-96315780D02*
X188095669Y-96506257D01*
X188095669Y-96506257D02*
X188095669Y-97077685D01*
X188095669Y-97077685D02*
X188190907Y-97268161D01*
X188190907Y-97268161D02*
X188286145Y-97363400D01*
X188286145Y-97363400D02*
X188476621Y-97458638D01*
X188476621Y-97458638D02*
X188762336Y-97458638D01*
X187524240Y-96125304D02*
X186762336Y-96125304D01*
X187238526Y-95458638D02*
X187238526Y-97172923D01*
X187238526Y-97172923D02*
X187143288Y-97363400D01*
X187143288Y-97363400D02*
X186952812Y-97458638D01*
X186952812Y-97458638D02*
X186762336Y-97458638D01*
D14*
G36*
X133545781Y-121008978D02*
G01*
X131283292Y-121008978D01*
X131283292Y-119848469D01*
X131505514Y-119848469D01*
X131505514Y-119906997D01*
X131527912Y-119961069D01*
X131569296Y-120002453D01*
X131623368Y-120024851D01*
X131652632Y-120027733D01*
X132264536Y-120027733D01*
X132264536Y-120639638D01*
X132267418Y-120668902D01*
X132289816Y-120722974D01*
X132331200Y-120764358D01*
X132385272Y-120786756D01*
X132443800Y-120786756D01*
X132497872Y-120764358D01*
X132539256Y-120722974D01*
X132561654Y-120668902D01*
X132564536Y-120639638D01*
X132564536Y-120027733D01*
X133176441Y-120027733D01*
X133205705Y-120024851D01*
X133259777Y-120002453D01*
X133301161Y-119961069D01*
X133323559Y-119906997D01*
X133323559Y-119848469D01*
X133301161Y-119794397D01*
X133259777Y-119753013D01*
X133205705Y-119730615D01*
X133176441Y-119727733D01*
X132564536Y-119727733D01*
X132564536Y-119115828D01*
X132561654Y-119086564D01*
X132539256Y-119032492D01*
X132497872Y-118991108D01*
X132443800Y-118968710D01*
X132385272Y-118968710D01*
X132331200Y-118991108D01*
X132289816Y-119032492D01*
X132267418Y-119086564D01*
X132264536Y-119115828D01*
X132264536Y-119727733D01*
X131652632Y-119727733D01*
X131623368Y-119730615D01*
X131569296Y-119753013D01*
X131527912Y-119794397D01*
X131505514Y-119848469D01*
X131283292Y-119848469D01*
X131283292Y-118746488D01*
X133545781Y-118746488D01*
X133545781Y-121008978D01*
G37*
D10*
X187667474Y-73180094D02*
X187762712Y-73132475D01*
X187762712Y-73132475D02*
X187905569Y-73132475D01*
X187905569Y-73132475D02*
X188048426Y-73180094D01*
X188048426Y-73180094D02*
X188143664Y-73275332D01*
X188143664Y-73275332D02*
X188191283Y-73370570D01*
X188191283Y-73370570D02*
X188238902Y-73561046D01*
X188238902Y-73561046D02*
X188238902Y-73703903D01*
X188238902Y-73703903D02*
X188191283Y-73894379D01*
X188191283Y-73894379D02*
X188143664Y-73989617D01*
X188143664Y-73989617D02*
X188048426Y-74084856D01*
X188048426Y-74084856D02*
X187905569Y-74132475D01*
X187905569Y-74132475D02*
X187810331Y-74132475D01*
X187810331Y-74132475D02*
X187667474Y-74084856D01*
X187667474Y-74084856D02*
X187619855Y-74037236D01*
X187619855Y-74037236D02*
X187619855Y-73703903D01*
X187619855Y-73703903D02*
X187810331Y-73703903D01*
X187191283Y-74132475D02*
X187191283Y-73132475D01*
X187191283Y-73132475D02*
X186810331Y-73132475D01*
X186810331Y-73132475D02*
X186715093Y-73180094D01*
X186715093Y-73180094D02*
X186667474Y-73227713D01*
X186667474Y-73227713D02*
X186619855Y-73322951D01*
X186619855Y-73322951D02*
X186619855Y-73465808D01*
X186619855Y-73465808D02*
X186667474Y-73561046D01*
X186667474Y-73561046D02*
X186715093Y-73608665D01*
X186715093Y-73608665D02*
X186810331Y-73656284D01*
X186810331Y-73656284D02*
X187191283Y-73656284D01*
X186238902Y-74084856D02*
X186096045Y-74132475D01*
X186096045Y-74132475D02*
X185857950Y-74132475D01*
X185857950Y-74132475D02*
X185762712Y-74084856D01*
X185762712Y-74084856D02*
X185715093Y-74037236D01*
X185715093Y-74037236D02*
X185667474Y-73941998D01*
X185667474Y-73941998D02*
X185667474Y-73846760D01*
X185667474Y-73846760D02*
X185715093Y-73751522D01*
X185715093Y-73751522D02*
X185762712Y-73703903D01*
X185762712Y-73703903D02*
X185857950Y-73656284D01*
X185857950Y-73656284D02*
X186048426Y-73608665D01*
X186048426Y-73608665D02*
X186143664Y-73561046D01*
X186143664Y-73561046D02*
X186191283Y-73513427D01*
X186191283Y-73513427D02*
X186238902Y-73418189D01*
X186238902Y-73418189D02*
X186238902Y-73322951D01*
X186238902Y-73322951D02*
X186191283Y-73227713D01*
X186191283Y-73227713D02*
X186143664Y-73180094D01*
X186143664Y-73180094D02*
X186048426Y-73132475D01*
X186048426Y-73132475D02*
X185810331Y-73132475D01*
X185810331Y-73132475D02*
X185667474Y-73180094D01*
X188238902Y-75456704D02*
X187762712Y-75456704D01*
X188334140Y-75742419D02*
X188000807Y-74742419D01*
X188000807Y-74742419D02*
X187667474Y-75742419D01*
X187334140Y-75075752D02*
X187334140Y-75742419D01*
X187334140Y-75170990D02*
X187286521Y-75123371D01*
X187286521Y-75123371D02*
X187191283Y-75075752D01*
X187191283Y-75075752D02*
X187048426Y-75075752D01*
X187048426Y-75075752D02*
X186953188Y-75123371D01*
X186953188Y-75123371D02*
X186905569Y-75218609D01*
X186905569Y-75218609D02*
X186905569Y-75742419D01*
X186572235Y-75075752D02*
X186191283Y-75075752D01*
X186429378Y-74742419D02*
X186429378Y-75599561D01*
X186429378Y-75599561D02*
X186381759Y-75694800D01*
X186381759Y-75694800D02*
X186286521Y-75742419D01*
X186286521Y-75742419D02*
X186191283Y-75742419D01*
X185476997Y-75694800D02*
X185572235Y-75742419D01*
X185572235Y-75742419D02*
X185762711Y-75742419D01*
X185762711Y-75742419D02*
X185857949Y-75694800D01*
X185857949Y-75694800D02*
X185905568Y-75599561D01*
X185905568Y-75599561D02*
X185905568Y-75218609D01*
X185905568Y-75218609D02*
X185857949Y-75123371D01*
X185857949Y-75123371D02*
X185762711Y-75075752D01*
X185762711Y-75075752D02*
X185572235Y-75075752D01*
X185572235Y-75075752D02*
X185476997Y-75123371D01*
X185476997Y-75123371D02*
X185429378Y-75218609D01*
X185429378Y-75218609D02*
X185429378Y-75313847D01*
X185429378Y-75313847D02*
X185905568Y-75409085D01*
X185000806Y-75075752D02*
X185000806Y-75742419D01*
X185000806Y-75170990D02*
X184953187Y-75123371D01*
X184953187Y-75123371D02*
X184857949Y-75075752D01*
X184857949Y-75075752D02*
X184715092Y-75075752D01*
X184715092Y-75075752D02*
X184619854Y-75123371D01*
X184619854Y-75123371D02*
X184572235Y-75218609D01*
X184572235Y-75218609D02*
X184572235Y-75742419D01*
X184096044Y-75075752D02*
X184096044Y-75742419D01*
X184096044Y-75170990D02*
X184048425Y-75123371D01*
X184048425Y-75123371D02*
X183953187Y-75075752D01*
X183953187Y-75075752D02*
X183810330Y-75075752D01*
X183810330Y-75075752D02*
X183715092Y-75123371D01*
X183715092Y-75123371D02*
X183667473Y-75218609D01*
X183667473Y-75218609D02*
X183667473Y-75742419D01*
X182762711Y-75742419D02*
X182762711Y-75218609D01*
X182762711Y-75218609D02*
X182810330Y-75123371D01*
X182810330Y-75123371D02*
X182905568Y-75075752D01*
X182905568Y-75075752D02*
X183096044Y-75075752D01*
X183096044Y-75075752D02*
X183191282Y-75123371D01*
X182762711Y-75694800D02*
X182857949Y-75742419D01*
X182857949Y-75742419D02*
X183096044Y-75742419D01*
X183096044Y-75742419D02*
X183191282Y-75694800D01*
X183191282Y-75694800D02*
X183238901Y-75599561D01*
X183238901Y-75599561D02*
X183238901Y-75504323D01*
X183238901Y-75504323D02*
X183191282Y-75409085D01*
X183191282Y-75409085D02*
X183096044Y-75361466D01*
X183096044Y-75361466D02*
X182857949Y-75361466D01*
X182857949Y-75361466D02*
X182762711Y-75313847D01*
D11*
X152352780Y-109480326D02*
X153352780Y-109480326D01*
X153352780Y-109480326D02*
X152638495Y-109146993D01*
X152638495Y-109146993D02*
X153352780Y-108813660D01*
X153352780Y-108813660D02*
X152352780Y-108813660D01*
X152352780Y-108337469D02*
X153352780Y-108337469D01*
X152448019Y-107289851D02*
X152400400Y-107337470D01*
X152400400Y-107337470D02*
X152352780Y-107480327D01*
X152352780Y-107480327D02*
X152352780Y-107575565D01*
X152352780Y-107575565D02*
X152400400Y-107718422D01*
X152400400Y-107718422D02*
X152495638Y-107813660D01*
X152495638Y-107813660D02*
X152590876Y-107861279D01*
X152590876Y-107861279D02*
X152781352Y-107908898D01*
X152781352Y-107908898D02*
X152924209Y-107908898D01*
X152924209Y-107908898D02*
X153114685Y-107861279D01*
X153114685Y-107861279D02*
X153209923Y-107813660D01*
X153209923Y-107813660D02*
X153305161Y-107718422D01*
X153305161Y-107718422D02*
X153352780Y-107575565D01*
X153352780Y-107575565D02*
X153352780Y-107480327D01*
X153352780Y-107480327D02*
X153305161Y-107337470D01*
X153305161Y-107337470D02*
X153257542Y-107289851D01*
X152733733Y-106861279D02*
X152733733Y-106099375D01*
X153019447Y-105623184D02*
X152733733Y-104861280D01*
X152733733Y-104861280D02*
X152448019Y-105623184D01*
D13*
X163706133Y-129020219D02*
X163706133Y-129734504D01*
X163706133Y-129734504D02*
X163753752Y-129877361D01*
X163753752Y-129877361D02*
X163848990Y-129972600D01*
X163848990Y-129972600D02*
X163991847Y-130020219D01*
X163991847Y-130020219D02*
X164087085Y-130020219D01*
X162706133Y-130020219D02*
X163277561Y-130020219D01*
X162991847Y-130020219D02*
X162991847Y-129020219D01*
X162991847Y-129020219D02*
X163087085Y-129163076D01*
X163087085Y-129163076D02*
X163182323Y-129258314D01*
X163182323Y-129258314D02*
X163277561Y-129305933D01*
D15*
X155221487Y-103809543D02*
X154994617Y-103582673D01*
X154994617Y-103582673D02*
X155081044Y-103820346D01*
X155081044Y-103820346D02*
X154843371Y-103733920D01*
X154843371Y-103733920D02*
X155070240Y-103960789D01*
X154962207Y-104068823D02*
X154735337Y-103841953D01*
X154832567Y-104198462D02*
X154800157Y-103971593D01*
X154605698Y-103971593D02*
X154864977Y-103971593D01*
X154540878Y-104079626D02*
X154519271Y-104079626D01*
X154519271Y-104079626D02*
X154486861Y-104090429D01*
X154486861Y-104090429D02*
X154432845Y-104144446D01*
X154432845Y-104144446D02*
X154422041Y-104176856D01*
X154422041Y-104176856D02*
X154422041Y-104198462D01*
X154422041Y-104198462D02*
X154432845Y-104230872D01*
X154432845Y-104230872D02*
X154454451Y-104252479D01*
X154454451Y-104252479D02*
X154497664Y-104274086D01*
X154497664Y-104274086D02*
X154756944Y-104274086D01*
X154756944Y-104274086D02*
X154616501Y-104414529D01*
D13*
X149931667Y-104445271D02*
X149860956Y-104044577D01*
X150214510Y-104162428D02*
X149719535Y-103667453D01*
X149719535Y-103667453D02*
X149530973Y-103856015D01*
X149530973Y-103856015D02*
X149507403Y-103926726D01*
X149507403Y-103926726D02*
X149507403Y-103973866D01*
X149507403Y-103973866D02*
X149530973Y-104044577D01*
X149530973Y-104044577D02*
X149601684Y-104115287D01*
X149601684Y-104115287D02*
X149672395Y-104138858D01*
X149672395Y-104138858D02*
X149719535Y-104138858D01*
X149719535Y-104138858D02*
X149790246Y-104115287D01*
X149790246Y-104115287D02*
X149978808Y-103926726D01*
X149295271Y-104185998D02*
X149248131Y-104185998D01*
X149248131Y-104185998D02*
X149177420Y-104209568D01*
X149177420Y-104209568D02*
X149059569Y-104327419D01*
X149059569Y-104327419D02*
X149035999Y-104398130D01*
X149035999Y-104398130D02*
X149035999Y-104445271D01*
X149035999Y-104445271D02*
X149059569Y-104515981D01*
X149059569Y-104515981D02*
X149106709Y-104563122D01*
X149106709Y-104563122D02*
X149200990Y-104610262D01*
X149200990Y-104610262D02*
X149766676Y-104610262D01*
X149766676Y-104610262D02*
X149460263Y-104916675D01*
X148800296Y-104586692D02*
X148493883Y-104893105D01*
X148493883Y-104893105D02*
X148847436Y-104916675D01*
X148847436Y-104916675D02*
X148776726Y-104987386D01*
X148776726Y-104987386D02*
X148753156Y-105058097D01*
X148753156Y-105058097D02*
X148753156Y-105105237D01*
X148753156Y-105105237D02*
X148776726Y-105175948D01*
X148776726Y-105175948D02*
X148894577Y-105293799D01*
X148894577Y-105293799D02*
X148965288Y-105317369D01*
X148965288Y-105317369D02*
X149012428Y-105317369D01*
X149012428Y-105317369D02*
X149083139Y-105293799D01*
X149083139Y-105293799D02*
X149224560Y-105152378D01*
X149224560Y-105152378D02*
X149248130Y-105081667D01*
X149248130Y-105081667D02*
X149248130Y-105034526D01*
X147569366Y-98739999D02*
X147602700Y-98706666D01*
X147602700Y-98706666D02*
X147636033Y-98606666D01*
X147636033Y-98606666D02*
X147636033Y-98539999D01*
X147636033Y-98539999D02*
X147602700Y-98439999D01*
X147602700Y-98439999D02*
X147536033Y-98373333D01*
X147536033Y-98373333D02*
X147469366Y-98339999D01*
X147469366Y-98339999D02*
X147336033Y-98306666D01*
X147336033Y-98306666D02*
X147236033Y-98306666D01*
X147236033Y-98306666D02*
X147102700Y-98339999D01*
X147102700Y-98339999D02*
X147036033Y-98373333D01*
X147036033Y-98373333D02*
X146969366Y-98439999D01*
X146969366Y-98439999D02*
X146936033Y-98539999D01*
X146936033Y-98539999D02*
X146936033Y-98606666D01*
X146936033Y-98606666D02*
X146969366Y-98706666D01*
X146969366Y-98706666D02*
X147002700Y-98739999D01*
X147636033Y-99406666D02*
X147636033Y-99006666D01*
X147636033Y-99206666D02*
X146936033Y-99206666D01*
X146936033Y-99206666D02*
X147036033Y-99139999D01*
X147036033Y-99139999D02*
X147102700Y-99073333D01*
X147102700Y-99073333D02*
X147136033Y-99006666D01*
X147002700Y-99673333D02*
X146969366Y-99706666D01*
X146969366Y-99706666D02*
X146936033Y-99773333D01*
X146936033Y-99773333D02*
X146936033Y-99940000D01*
X146936033Y-99940000D02*
X146969366Y-100006666D01*
X146969366Y-100006666D02*
X147002700Y-100040000D01*
X147002700Y-100040000D02*
X147069366Y-100073333D01*
X147069366Y-100073333D02*
X147136033Y-100073333D01*
X147136033Y-100073333D02*
X147236033Y-100040000D01*
X147236033Y-100040000D02*
X147636033Y-99640000D01*
X147636033Y-99640000D02*
X147636033Y-100073333D01*
D10*
X192989104Y-85792019D02*
X192989104Y-86601542D01*
X192989104Y-86601542D02*
X192941485Y-86696780D01*
X192941485Y-86696780D02*
X192893866Y-86744400D01*
X192893866Y-86744400D02*
X192798628Y-86792019D01*
X192798628Y-86792019D02*
X192608152Y-86792019D01*
X192608152Y-86792019D02*
X192512914Y-86744400D01*
X192512914Y-86744400D02*
X192465295Y-86696780D01*
X192465295Y-86696780D02*
X192417676Y-86601542D01*
X192417676Y-86601542D02*
X192417676Y-85792019D01*
X191465295Y-85792019D02*
X191941485Y-85792019D01*
X191941485Y-85792019D02*
X191989104Y-86268209D01*
X191989104Y-86268209D02*
X191941485Y-86220590D01*
X191941485Y-86220590D02*
X191846247Y-86172971D01*
X191846247Y-86172971D02*
X191608152Y-86172971D01*
X191608152Y-86172971D02*
X191512914Y-86220590D01*
X191512914Y-86220590D02*
X191465295Y-86268209D01*
X191465295Y-86268209D02*
X191417676Y-86363447D01*
X191417676Y-86363447D02*
X191417676Y-86601542D01*
X191417676Y-86601542D02*
X191465295Y-86696780D01*
X191465295Y-86696780D02*
X191512914Y-86744400D01*
X191512914Y-86744400D02*
X191608152Y-86792019D01*
X191608152Y-86792019D02*
X191846247Y-86792019D01*
X191846247Y-86792019D02*
X191941485Y-86744400D01*
X191941485Y-86744400D02*
X191989104Y-86696780D01*
D13*
X148451866Y-116767780D02*
X148499485Y-116815400D01*
X148499485Y-116815400D02*
X148642342Y-116863019D01*
X148642342Y-116863019D02*
X148737580Y-116863019D01*
X148737580Y-116863019D02*
X148880437Y-116815400D01*
X148880437Y-116815400D02*
X148975675Y-116720161D01*
X148975675Y-116720161D02*
X149023294Y-116624923D01*
X149023294Y-116624923D02*
X149070913Y-116434447D01*
X149070913Y-116434447D02*
X149070913Y-116291590D01*
X149070913Y-116291590D02*
X149023294Y-116101114D01*
X149023294Y-116101114D02*
X148975675Y-116005876D01*
X148975675Y-116005876D02*
X148880437Y-115910638D01*
X148880437Y-115910638D02*
X148737580Y-115863019D01*
X148737580Y-115863019D02*
X148642342Y-115863019D01*
X148642342Y-115863019D02*
X148499485Y-115910638D01*
X148499485Y-115910638D02*
X148451866Y-115958257D01*
X147594723Y-115863019D02*
X147785199Y-115863019D01*
X147785199Y-115863019D02*
X147880437Y-115910638D01*
X147880437Y-115910638D02*
X147928056Y-115958257D01*
X147928056Y-115958257D02*
X148023294Y-116101114D01*
X148023294Y-116101114D02*
X148070913Y-116291590D01*
X148070913Y-116291590D02*
X148070913Y-116672542D01*
X148070913Y-116672542D02*
X148023294Y-116767780D01*
X148023294Y-116767780D02*
X147975675Y-116815400D01*
X147975675Y-116815400D02*
X147880437Y-116863019D01*
X147880437Y-116863019D02*
X147689961Y-116863019D01*
X147689961Y-116863019D02*
X147594723Y-116815400D01*
X147594723Y-116815400D02*
X147547104Y-116767780D01*
X147547104Y-116767780D02*
X147499485Y-116672542D01*
X147499485Y-116672542D02*
X147499485Y-116434447D01*
X147499485Y-116434447D02*
X147547104Y-116339209D01*
X147547104Y-116339209D02*
X147594723Y-116291590D01*
X147594723Y-116291590D02*
X147689961Y-116243971D01*
X147689961Y-116243971D02*
X147880437Y-116243971D01*
X147880437Y-116243971D02*
X147975675Y-116291590D01*
X147975675Y-116291590D02*
X148023294Y-116339209D01*
X148023294Y-116339209D02*
X148070913Y-116434447D01*
X173464285Y-74636104D02*
X173502381Y-74674200D01*
X173502381Y-74674200D02*
X173616666Y-74712295D01*
X173616666Y-74712295D02*
X173692857Y-74712295D01*
X173692857Y-74712295D02*
X173807143Y-74674200D01*
X173807143Y-74674200D02*
X173883333Y-74598009D01*
X173883333Y-74598009D02*
X173921428Y-74521819D01*
X173921428Y-74521819D02*
X173959524Y-74369438D01*
X173959524Y-74369438D02*
X173959524Y-74255152D01*
X173959524Y-74255152D02*
X173921428Y-74102771D01*
X173921428Y-74102771D02*
X173883333Y-74026580D01*
X173883333Y-74026580D02*
X173807143Y-73950390D01*
X173807143Y-73950390D02*
X173692857Y-73912295D01*
X173692857Y-73912295D02*
X173616666Y-73912295D01*
X173616666Y-73912295D02*
X173502381Y-73950390D01*
X173502381Y-73950390D02*
X173464285Y-73988485D01*
X172702381Y-74712295D02*
X173159524Y-74712295D01*
X172930952Y-74712295D02*
X172930952Y-73912295D01*
X172930952Y-73912295D02*
X173007143Y-74026580D01*
X173007143Y-74026580D02*
X173083333Y-74102771D01*
X173083333Y-74102771D02*
X173159524Y-74140866D01*
X172207142Y-73912295D02*
X172130952Y-73912295D01*
X172130952Y-73912295D02*
X172054761Y-73950390D01*
X172054761Y-73950390D02*
X172016666Y-73988485D01*
X172016666Y-73988485D02*
X171978571Y-74064676D01*
X171978571Y-74064676D02*
X171940476Y-74217057D01*
X171940476Y-74217057D02*
X171940476Y-74407533D01*
X171940476Y-74407533D02*
X171978571Y-74559914D01*
X171978571Y-74559914D02*
X172016666Y-74636104D01*
X172016666Y-74636104D02*
X172054761Y-74674200D01*
X172054761Y-74674200D02*
X172130952Y-74712295D01*
X172130952Y-74712295D02*
X172207142Y-74712295D01*
X172207142Y-74712295D02*
X172283333Y-74674200D01*
X172283333Y-74674200D02*
X172321428Y-74636104D01*
X172321428Y-74636104D02*
X172359523Y-74559914D01*
X172359523Y-74559914D02*
X172397619Y-74407533D01*
X172397619Y-74407533D02*
X172397619Y-74217057D01*
X172397619Y-74217057D02*
X172359523Y-74064676D01*
X172359523Y-74064676D02*
X172321428Y-73988485D01*
X172321428Y-73988485D02*
X172283333Y-73950390D01*
X172283333Y-73950390D02*
X172207142Y-73912295D01*
X172269066Y-129711895D02*
X172269066Y-130283323D01*
X172269066Y-130283323D02*
X172307161Y-130397609D01*
X172307161Y-130397609D02*
X172383352Y-130473800D01*
X172383352Y-130473800D02*
X172497637Y-130511895D01*
X172497637Y-130511895D02*
X172573828Y-130511895D01*
X171888113Y-130511895D02*
X171888113Y-129711895D01*
X171888113Y-129711895D02*
X171583351Y-129711895D01*
X171583351Y-129711895D02*
X171507161Y-129749990D01*
X171507161Y-129749990D02*
X171469066Y-129788085D01*
X171469066Y-129788085D02*
X171430970Y-129864276D01*
X171430970Y-129864276D02*
X171430970Y-129978561D01*
X171430970Y-129978561D02*
X171469066Y-130054752D01*
X171469066Y-130054752D02*
X171507161Y-130092847D01*
X171507161Y-130092847D02*
X171583351Y-130130942D01*
X171583351Y-130130942D02*
X171888113Y-130130942D01*
X171164304Y-129711895D02*
X170669066Y-129711895D01*
X170669066Y-129711895D02*
X170935732Y-130016657D01*
X170935732Y-130016657D02*
X170821447Y-130016657D01*
X170821447Y-130016657D02*
X170745256Y-130054752D01*
X170745256Y-130054752D02*
X170707161Y-130092847D01*
X170707161Y-130092847D02*
X170669066Y-130169038D01*
X170669066Y-130169038D02*
X170669066Y-130359514D01*
X170669066Y-130359514D02*
X170707161Y-130435704D01*
X170707161Y-130435704D02*
X170745256Y-130473800D01*
X170745256Y-130473800D02*
X170821447Y-130511895D01*
X170821447Y-130511895D02*
X171050018Y-130511895D01*
X171050018Y-130511895D02*
X171126209Y-130473800D01*
X171126209Y-130473800D02*
X171164304Y-130435704D01*
X162050000Y-109291033D02*
X162283333Y-108957700D01*
X162450000Y-109291033D02*
X162450000Y-108591033D01*
X162450000Y-108591033D02*
X162183333Y-108591033D01*
X162183333Y-108591033D02*
X162116667Y-108624366D01*
X162116667Y-108624366D02*
X162083333Y-108657700D01*
X162083333Y-108657700D02*
X162050000Y-108724366D01*
X162050000Y-108724366D02*
X162050000Y-108824366D01*
X162050000Y-108824366D02*
X162083333Y-108891033D01*
X162083333Y-108891033D02*
X162116667Y-108924366D01*
X162116667Y-108924366D02*
X162183333Y-108957700D01*
X162183333Y-108957700D02*
X162450000Y-108957700D01*
X161383333Y-109291033D02*
X161783333Y-109291033D01*
X161583333Y-109291033D02*
X161583333Y-108591033D01*
X161583333Y-108591033D02*
X161650000Y-108691033D01*
X161650000Y-108691033D02*
X161716667Y-108757700D01*
X161716667Y-108757700D02*
X161783333Y-108791033D01*
X161050000Y-109291033D02*
X160916666Y-109291033D01*
X160916666Y-109291033D02*
X160850000Y-109257700D01*
X160850000Y-109257700D02*
X160816666Y-109224366D01*
X160816666Y-109224366D02*
X160750000Y-109124366D01*
X160750000Y-109124366D02*
X160716666Y-108991033D01*
X160716666Y-108991033D02*
X160716666Y-108724366D01*
X160716666Y-108724366D02*
X160750000Y-108657700D01*
X160750000Y-108657700D02*
X160783333Y-108624366D01*
X160783333Y-108624366D02*
X160850000Y-108591033D01*
X160850000Y-108591033D02*
X160983333Y-108591033D01*
X160983333Y-108591033D02*
X161050000Y-108624366D01*
X161050000Y-108624366D02*
X161083333Y-108657700D01*
X161083333Y-108657700D02*
X161116666Y-108724366D01*
X161116666Y-108724366D02*
X161116666Y-108891033D01*
X161116666Y-108891033D02*
X161083333Y-108957700D01*
X161083333Y-108957700D02*
X161050000Y-108991033D01*
X161050000Y-108991033D02*
X160983333Y-109024366D01*
X160983333Y-109024366D02*
X160850000Y-109024366D01*
X160850000Y-109024366D02*
X160783333Y-108991033D01*
X160783333Y-108991033D02*
X160750000Y-108957700D01*
X160750000Y-108957700D02*
X160716666Y-108891033D01*
X151861904Y-124979819D02*
X151861904Y-125789342D01*
X151861904Y-125789342D02*
X151814285Y-125884580D01*
X151814285Y-125884580D02*
X151766666Y-125932200D01*
X151766666Y-125932200D02*
X151671428Y-125979819D01*
X151671428Y-125979819D02*
X151480952Y-125979819D01*
X151480952Y-125979819D02*
X151385714Y-125932200D01*
X151385714Y-125932200D02*
X151338095Y-125884580D01*
X151338095Y-125884580D02*
X151290476Y-125789342D01*
X151290476Y-125789342D02*
X151290476Y-124979819D01*
X150909523Y-124979819D02*
X150290476Y-124979819D01*
X150290476Y-124979819D02*
X150623809Y-125360771D01*
X150623809Y-125360771D02*
X150480952Y-125360771D01*
X150480952Y-125360771D02*
X150385714Y-125408390D01*
X150385714Y-125408390D02*
X150338095Y-125456009D01*
X150338095Y-125456009D02*
X150290476Y-125551247D01*
X150290476Y-125551247D02*
X150290476Y-125789342D01*
X150290476Y-125789342D02*
X150338095Y-125884580D01*
X150338095Y-125884580D02*
X150385714Y-125932200D01*
X150385714Y-125932200D02*
X150480952Y-125979819D01*
X150480952Y-125979819D02*
X150766666Y-125979819D01*
X150766666Y-125979819D02*
X150861904Y-125932200D01*
X150861904Y-125932200D02*
X150909523Y-125884580D01*
X148477266Y-118774380D02*
X148524885Y-118822000D01*
X148524885Y-118822000D02*
X148667742Y-118869619D01*
X148667742Y-118869619D02*
X148762980Y-118869619D01*
X148762980Y-118869619D02*
X148905837Y-118822000D01*
X148905837Y-118822000D02*
X149001075Y-118726761D01*
X149001075Y-118726761D02*
X149048694Y-118631523D01*
X149048694Y-118631523D02*
X149096313Y-118441047D01*
X149096313Y-118441047D02*
X149096313Y-118298190D01*
X149096313Y-118298190D02*
X149048694Y-118107714D01*
X149048694Y-118107714D02*
X149001075Y-118012476D01*
X149001075Y-118012476D02*
X148905837Y-117917238D01*
X148905837Y-117917238D02*
X148762980Y-117869619D01*
X148762980Y-117869619D02*
X148667742Y-117869619D01*
X148667742Y-117869619D02*
X148524885Y-117917238D01*
X148524885Y-117917238D02*
X148477266Y-117964857D01*
X147905837Y-118298190D02*
X148001075Y-118250571D01*
X148001075Y-118250571D02*
X148048694Y-118202952D01*
X148048694Y-118202952D02*
X148096313Y-118107714D01*
X148096313Y-118107714D02*
X148096313Y-118060095D01*
X148096313Y-118060095D02*
X148048694Y-117964857D01*
X148048694Y-117964857D02*
X148001075Y-117917238D01*
X148001075Y-117917238D02*
X147905837Y-117869619D01*
X147905837Y-117869619D02*
X147715361Y-117869619D01*
X147715361Y-117869619D02*
X147620123Y-117917238D01*
X147620123Y-117917238D02*
X147572504Y-117964857D01*
X147572504Y-117964857D02*
X147524885Y-118060095D01*
X147524885Y-118060095D02*
X147524885Y-118107714D01*
X147524885Y-118107714D02*
X147572504Y-118202952D01*
X147572504Y-118202952D02*
X147620123Y-118250571D01*
X147620123Y-118250571D02*
X147715361Y-118298190D01*
X147715361Y-118298190D02*
X147905837Y-118298190D01*
X147905837Y-118298190D02*
X148001075Y-118345809D01*
X148001075Y-118345809D02*
X148048694Y-118393428D01*
X148048694Y-118393428D02*
X148096313Y-118488666D01*
X148096313Y-118488666D02*
X148096313Y-118679142D01*
X148096313Y-118679142D02*
X148048694Y-118774380D01*
X148048694Y-118774380D02*
X148001075Y-118822000D01*
X148001075Y-118822000D02*
X147905837Y-118869619D01*
X147905837Y-118869619D02*
X147715361Y-118869619D01*
X147715361Y-118869619D02*
X147620123Y-118822000D01*
X147620123Y-118822000D02*
X147572504Y-118774380D01*
X147572504Y-118774380D02*
X147524885Y-118679142D01*
X147524885Y-118679142D02*
X147524885Y-118488666D01*
X147524885Y-118488666D02*
X147572504Y-118393428D01*
X147572504Y-118393428D02*
X147620123Y-118345809D01*
X147620123Y-118345809D02*
X147715361Y-118298190D01*
X163748933Y-116726619D02*
X163748933Y-117440904D01*
X163748933Y-117440904D02*
X163796552Y-117583761D01*
X163796552Y-117583761D02*
X163891790Y-117679000D01*
X163891790Y-117679000D02*
X164034647Y-117726619D01*
X164034647Y-117726619D02*
X164129885Y-117726619D01*
X163272742Y-117726619D02*
X163272742Y-116726619D01*
X163272742Y-116726619D02*
X162891790Y-116726619D01*
X162891790Y-116726619D02*
X162796552Y-116774238D01*
X162796552Y-116774238D02*
X162748933Y-116821857D01*
X162748933Y-116821857D02*
X162701314Y-116917095D01*
X162701314Y-116917095D02*
X162701314Y-117059952D01*
X162701314Y-117059952D02*
X162748933Y-117155190D01*
X162748933Y-117155190D02*
X162796552Y-117202809D01*
X162796552Y-117202809D02*
X162891790Y-117250428D01*
X162891790Y-117250428D02*
X163272742Y-117250428D01*
X161748933Y-117726619D02*
X162320361Y-117726619D01*
X162034647Y-117726619D02*
X162034647Y-116726619D01*
X162034647Y-116726619D02*
X162129885Y-116869476D01*
X162129885Y-116869476D02*
X162225123Y-116964714D01*
X162225123Y-116964714D02*
X162320361Y-117012333D01*
X173565713Y-90934819D02*
X172994285Y-90934819D01*
X173279999Y-91934819D02*
X173279999Y-90934819D01*
X172660951Y-91934819D02*
X172660951Y-90934819D01*
X172660951Y-91411009D02*
X172089523Y-91411009D01*
X172089523Y-91934819D02*
X172089523Y-90934819D01*
X171089523Y-91934819D02*
X171660951Y-91934819D01*
X171375237Y-91934819D02*
X171375237Y-90934819D01*
X171375237Y-90934819D02*
X171470475Y-91077676D01*
X171470475Y-91077676D02*
X171565713Y-91172914D01*
X171565713Y-91172914D02*
X171660951Y-91220533D01*
X154566666Y-120816033D02*
X154799999Y-120482700D01*
X154966666Y-120816033D02*
X154966666Y-120116033D01*
X154966666Y-120116033D02*
X154699999Y-120116033D01*
X154699999Y-120116033D02*
X154633333Y-120149366D01*
X154633333Y-120149366D02*
X154599999Y-120182700D01*
X154599999Y-120182700D02*
X154566666Y-120249366D01*
X154566666Y-120249366D02*
X154566666Y-120349366D01*
X154566666Y-120349366D02*
X154599999Y-120416033D01*
X154599999Y-120416033D02*
X154633333Y-120449366D01*
X154633333Y-120449366D02*
X154699999Y-120482700D01*
X154699999Y-120482700D02*
X154966666Y-120482700D01*
X153933333Y-120116033D02*
X154266666Y-120116033D01*
X154266666Y-120116033D02*
X154299999Y-120449366D01*
X154299999Y-120449366D02*
X154266666Y-120416033D01*
X154266666Y-120416033D02*
X154199999Y-120382700D01*
X154199999Y-120382700D02*
X154033333Y-120382700D01*
X154033333Y-120382700D02*
X153966666Y-120416033D01*
X153966666Y-120416033D02*
X153933333Y-120449366D01*
X153933333Y-120449366D02*
X153899999Y-120516033D01*
X153899999Y-120516033D02*
X153899999Y-120682700D01*
X153899999Y-120682700D02*
X153933333Y-120749366D01*
X153933333Y-120749366D02*
X153966666Y-120782700D01*
X153966666Y-120782700D02*
X154033333Y-120816033D01*
X154033333Y-120816033D02*
X154199999Y-120816033D01*
X154199999Y-120816033D02*
X154266666Y-120782700D01*
X154266666Y-120782700D02*
X154299999Y-120749366D01*
X160746266Y-121093033D02*
X160979599Y-120759700D01*
X161146266Y-121093033D02*
X161146266Y-120393033D01*
X161146266Y-120393033D02*
X160879599Y-120393033D01*
X160879599Y-120393033D02*
X160812933Y-120426366D01*
X160812933Y-120426366D02*
X160779599Y-120459700D01*
X160779599Y-120459700D02*
X160746266Y-120526366D01*
X160746266Y-120526366D02*
X160746266Y-120626366D01*
X160746266Y-120626366D02*
X160779599Y-120693033D01*
X160779599Y-120693033D02*
X160812933Y-120726366D01*
X160812933Y-120726366D02*
X160879599Y-120759700D01*
X160879599Y-120759700D02*
X161146266Y-120759700D01*
X160146266Y-120626366D02*
X160146266Y-121093033D01*
X160312933Y-120359700D02*
X160479599Y-120859700D01*
X160479599Y-120859700D02*
X160046266Y-120859700D01*
X148477266Y-114710380D02*
X148524885Y-114758000D01*
X148524885Y-114758000D02*
X148667742Y-114805619D01*
X148667742Y-114805619D02*
X148762980Y-114805619D01*
X148762980Y-114805619D02*
X148905837Y-114758000D01*
X148905837Y-114758000D02*
X149001075Y-114662761D01*
X149001075Y-114662761D02*
X149048694Y-114567523D01*
X149048694Y-114567523D02*
X149096313Y-114377047D01*
X149096313Y-114377047D02*
X149096313Y-114234190D01*
X149096313Y-114234190D02*
X149048694Y-114043714D01*
X149048694Y-114043714D02*
X149001075Y-113948476D01*
X149001075Y-113948476D02*
X148905837Y-113853238D01*
X148905837Y-113853238D02*
X148762980Y-113805619D01*
X148762980Y-113805619D02*
X148667742Y-113805619D01*
X148667742Y-113805619D02*
X148524885Y-113853238D01*
X148524885Y-113853238D02*
X148477266Y-113900857D01*
X148143932Y-113805619D02*
X147477266Y-113805619D01*
X147477266Y-113805619D02*
X147905837Y-114805619D01*
X182293419Y-84326505D02*
X181293419Y-84326505D01*
X181293419Y-84326505D02*
X181293419Y-84564600D01*
X181293419Y-84564600D02*
X181341038Y-84707457D01*
X181341038Y-84707457D02*
X181436276Y-84802695D01*
X181436276Y-84802695D02*
X181531514Y-84850314D01*
X181531514Y-84850314D02*
X181721990Y-84897933D01*
X181721990Y-84897933D02*
X181864847Y-84897933D01*
X181864847Y-84897933D02*
X182055323Y-84850314D01*
X182055323Y-84850314D02*
X182150561Y-84802695D01*
X182150561Y-84802695D02*
X182245800Y-84707457D01*
X182245800Y-84707457D02*
X182293419Y-84564600D01*
X182293419Y-84564600D02*
X182293419Y-84326505D01*
X181626752Y-85755076D02*
X182293419Y-85755076D01*
X181245800Y-85516981D02*
X181960085Y-85278886D01*
X181960085Y-85278886D02*
X181960085Y-85897933D01*
X139642857Y-125704819D02*
X139976190Y-125228628D01*
X140214285Y-125704819D02*
X140214285Y-124704819D01*
X140214285Y-124704819D02*
X139833333Y-124704819D01*
X139833333Y-124704819D02*
X139738095Y-124752438D01*
X139738095Y-124752438D02*
X139690476Y-124800057D01*
X139690476Y-124800057D02*
X139642857Y-124895295D01*
X139642857Y-124895295D02*
X139642857Y-125038152D01*
X139642857Y-125038152D02*
X139690476Y-125133390D01*
X139690476Y-125133390D02*
X139738095Y-125181009D01*
X139738095Y-125181009D02*
X139833333Y-125228628D01*
X139833333Y-125228628D02*
X140214285Y-125228628D01*
X138690476Y-125704819D02*
X139261904Y-125704819D01*
X138976190Y-125704819D02*
X138976190Y-124704819D01*
X138976190Y-124704819D02*
X139071428Y-124847676D01*
X139071428Y-124847676D02*
X139166666Y-124942914D01*
X139166666Y-124942914D02*
X139261904Y-124990533D01*
X138357142Y-124704819D02*
X137738095Y-124704819D01*
X137738095Y-124704819D02*
X138071428Y-125085771D01*
X138071428Y-125085771D02*
X137928571Y-125085771D01*
X137928571Y-125085771D02*
X137833333Y-125133390D01*
X137833333Y-125133390D02*
X137785714Y-125181009D01*
X137785714Y-125181009D02*
X137738095Y-125276247D01*
X137738095Y-125276247D02*
X137738095Y-125514342D01*
X137738095Y-125514342D02*
X137785714Y-125609580D01*
X137785714Y-125609580D02*
X137833333Y-125657200D01*
X137833333Y-125657200D02*
X137928571Y-125704819D01*
X137928571Y-125704819D02*
X138214285Y-125704819D01*
X138214285Y-125704819D02*
X138309523Y-125657200D01*
X138309523Y-125657200D02*
X138357142Y-125609580D01*
X157207304Y-99002867D02*
X157245400Y-98964771D01*
X157245400Y-98964771D02*
X157283495Y-98850486D01*
X157283495Y-98850486D02*
X157283495Y-98774295D01*
X157283495Y-98774295D02*
X157245400Y-98660009D01*
X157245400Y-98660009D02*
X157169209Y-98583819D01*
X157169209Y-98583819D02*
X157093019Y-98545724D01*
X157093019Y-98545724D02*
X156940638Y-98507628D01*
X156940638Y-98507628D02*
X156826352Y-98507628D01*
X156826352Y-98507628D02*
X156673971Y-98545724D01*
X156673971Y-98545724D02*
X156597780Y-98583819D01*
X156597780Y-98583819D02*
X156521590Y-98660009D01*
X156521590Y-98660009D02*
X156483495Y-98774295D01*
X156483495Y-98774295D02*
X156483495Y-98850486D01*
X156483495Y-98850486D02*
X156521590Y-98964771D01*
X156521590Y-98964771D02*
X156559685Y-99002867D01*
X157283495Y-99764771D02*
X157283495Y-99307628D01*
X157283495Y-99536200D02*
X156483495Y-99536200D01*
X156483495Y-99536200D02*
X156597780Y-99460009D01*
X156597780Y-99460009D02*
X156673971Y-99383819D01*
X156673971Y-99383819D02*
X156712066Y-99307628D01*
X147722295Y-108385714D02*
X147341342Y-108119047D01*
X147722295Y-107928571D02*
X146922295Y-107928571D01*
X146922295Y-107928571D02*
X146922295Y-108233333D01*
X146922295Y-108233333D02*
X146960390Y-108309523D01*
X146960390Y-108309523D02*
X146998485Y-108347618D01*
X146998485Y-108347618D02*
X147074676Y-108385714D01*
X147074676Y-108385714D02*
X147188961Y-108385714D01*
X147188961Y-108385714D02*
X147265152Y-108347618D01*
X147265152Y-108347618D02*
X147303247Y-108309523D01*
X147303247Y-108309523D02*
X147341342Y-108233333D01*
X147341342Y-108233333D02*
X147341342Y-107928571D01*
X147722295Y-109147618D02*
X147722295Y-108690475D01*
X147722295Y-108919047D02*
X146922295Y-108919047D01*
X146922295Y-108919047D02*
X147036580Y-108842856D01*
X147036580Y-108842856D02*
X147112771Y-108766666D01*
X147112771Y-108766666D02*
X147150866Y-108690475D01*
X147722295Y-109909523D02*
X147722295Y-109452380D01*
X147722295Y-109680952D02*
X146922295Y-109680952D01*
X146922295Y-109680952D02*
X147036580Y-109604761D01*
X147036580Y-109604761D02*
X147112771Y-109528571D01*
X147112771Y-109528571D02*
X147150866Y-109452380D01*
X155201904Y-89434819D02*
X155201904Y-90244342D01*
X155201904Y-90244342D02*
X155154285Y-90339580D01*
X155154285Y-90339580D02*
X155106666Y-90387200D01*
X155106666Y-90387200D02*
X155011428Y-90434819D01*
X155011428Y-90434819D02*
X154820952Y-90434819D01*
X154820952Y-90434819D02*
X154725714Y-90387200D01*
X154725714Y-90387200D02*
X154678095Y-90339580D01*
X154678095Y-90339580D02*
X154630476Y-90244342D01*
X154630476Y-90244342D02*
X154630476Y-89434819D01*
X153630476Y-90434819D02*
X154201904Y-90434819D01*
X153916190Y-90434819D02*
X153916190Y-89434819D01*
X153916190Y-89434819D02*
X154011428Y-89577676D01*
X154011428Y-89577676D02*
X154106666Y-89672914D01*
X154106666Y-89672914D02*
X154201904Y-89720533D01*
X159969367Y-103833334D02*
X160002701Y-103800001D01*
X160002701Y-103800001D02*
X160036034Y-103700001D01*
X160036034Y-103700001D02*
X160036034Y-103633334D01*
X160036034Y-103633334D02*
X160002701Y-103533334D01*
X160002701Y-103533334D02*
X159936034Y-103466668D01*
X159936034Y-103466668D02*
X159869367Y-103433334D01*
X159869367Y-103433334D02*
X159736034Y-103400001D01*
X159736034Y-103400001D02*
X159636034Y-103400001D01*
X159636034Y-103400001D02*
X159502701Y-103433334D01*
X159502701Y-103433334D02*
X159436034Y-103466668D01*
X159436034Y-103466668D02*
X159369367Y-103533334D01*
X159369367Y-103533334D02*
X159336034Y-103633334D01*
X159336034Y-103633334D02*
X159336034Y-103700001D01*
X159336034Y-103700001D02*
X159369367Y-103800001D01*
X159369367Y-103800001D02*
X159402701Y-103833334D01*
X159336034Y-104066668D02*
X159336034Y-104500001D01*
X159336034Y-104500001D02*
X159602701Y-104266668D01*
X159602701Y-104266668D02*
X159602701Y-104366668D01*
X159602701Y-104366668D02*
X159636034Y-104433334D01*
X159636034Y-104433334D02*
X159669367Y-104466668D01*
X159669367Y-104466668D02*
X159736034Y-104500001D01*
X159736034Y-104500001D02*
X159902701Y-104500001D01*
X159902701Y-104500001D02*
X159969367Y-104466668D01*
X159969367Y-104466668D02*
X160002701Y-104433334D01*
X160002701Y-104433334D02*
X160036034Y-104366668D01*
X160036034Y-104366668D02*
X160036034Y-104166668D01*
X160036034Y-104166668D02*
X160002701Y-104100001D01*
X160002701Y-104100001D02*
X159969367Y-104066668D01*
X162066868Y-84838807D02*
X162561843Y-84343832D01*
X162561843Y-84343832D02*
X162443992Y-84225981D01*
X162443992Y-84225981D02*
X162349711Y-84178841D01*
X162349711Y-84178841D02*
X162255430Y-84178841D01*
X162255430Y-84178841D02*
X162184720Y-84202411D01*
X162184720Y-84202411D02*
X162066868Y-84273122D01*
X162066868Y-84273122D02*
X161996158Y-84343832D01*
X161996158Y-84343832D02*
X161925447Y-84461683D01*
X161925447Y-84461683D02*
X161901877Y-84532394D01*
X161901877Y-84532394D02*
X161901877Y-84626675D01*
X161901877Y-84626675D02*
X161949017Y-84720956D01*
X161949017Y-84720956D02*
X162066868Y-84838807D01*
X162043298Y-83919568D02*
X162043298Y-83872428D01*
X162043298Y-83872428D02*
X162019728Y-83801717D01*
X162019728Y-83801717D02*
X161901877Y-83683866D01*
X161901877Y-83683866D02*
X161831166Y-83660296D01*
X161831166Y-83660296D02*
X161784026Y-83660296D01*
X161784026Y-83660296D02*
X161713315Y-83683866D01*
X161713315Y-83683866D02*
X161666175Y-83731006D01*
X161666175Y-83731006D02*
X161619034Y-83825287D01*
X161619034Y-83825287D02*
X161619034Y-84390973D01*
X161619034Y-84390973D02*
X161312621Y-84084560D01*
X155284466Y-117224980D02*
X155332085Y-117272600D01*
X155332085Y-117272600D02*
X155474942Y-117320219D01*
X155474942Y-117320219D02*
X155570180Y-117320219D01*
X155570180Y-117320219D02*
X155713037Y-117272600D01*
X155713037Y-117272600D02*
X155808275Y-117177361D01*
X155808275Y-117177361D02*
X155855894Y-117082123D01*
X155855894Y-117082123D02*
X155903513Y-116891647D01*
X155903513Y-116891647D02*
X155903513Y-116748790D01*
X155903513Y-116748790D02*
X155855894Y-116558314D01*
X155855894Y-116558314D02*
X155808275Y-116463076D01*
X155808275Y-116463076D02*
X155713037Y-116367838D01*
X155713037Y-116367838D02*
X155570180Y-116320219D01*
X155570180Y-116320219D02*
X155474942Y-116320219D01*
X155474942Y-116320219D02*
X155332085Y-116367838D01*
X155332085Y-116367838D02*
X155284466Y-116415457D01*
X154808275Y-117320219D02*
X154617799Y-117320219D01*
X154617799Y-117320219D02*
X154522561Y-117272600D01*
X154522561Y-117272600D02*
X154474942Y-117224980D01*
X154474942Y-117224980D02*
X154379704Y-117082123D01*
X154379704Y-117082123D02*
X154332085Y-116891647D01*
X154332085Y-116891647D02*
X154332085Y-116510695D01*
X154332085Y-116510695D02*
X154379704Y-116415457D01*
X154379704Y-116415457D02*
X154427323Y-116367838D01*
X154427323Y-116367838D02*
X154522561Y-116320219D01*
X154522561Y-116320219D02*
X154713037Y-116320219D01*
X154713037Y-116320219D02*
X154808275Y-116367838D01*
X154808275Y-116367838D02*
X154855894Y-116415457D01*
X154855894Y-116415457D02*
X154903513Y-116510695D01*
X154903513Y-116510695D02*
X154903513Y-116748790D01*
X154903513Y-116748790D02*
X154855894Y-116844028D01*
X154855894Y-116844028D02*
X154808275Y-116891647D01*
X154808275Y-116891647D02*
X154713037Y-116939266D01*
X154713037Y-116939266D02*
X154522561Y-116939266D01*
X154522561Y-116939266D02*
X154427323Y-116891647D01*
X154427323Y-116891647D02*
X154379704Y-116844028D01*
X154379704Y-116844028D02*
X154332085Y-116748790D01*
X145110104Y-106490419D02*
X145110104Y-107299942D01*
X145110104Y-107299942D02*
X145062485Y-107395180D01*
X145062485Y-107395180D02*
X145014866Y-107442800D01*
X145014866Y-107442800D02*
X144919628Y-107490419D01*
X144919628Y-107490419D02*
X144729152Y-107490419D01*
X144729152Y-107490419D02*
X144633914Y-107442800D01*
X144633914Y-107442800D02*
X144586295Y-107395180D01*
X144586295Y-107395180D02*
X144538676Y-107299942D01*
X144538676Y-107299942D02*
X144538676Y-106490419D01*
X143919628Y-106918990D02*
X144014866Y-106871371D01*
X144014866Y-106871371D02*
X144062485Y-106823752D01*
X144062485Y-106823752D02*
X144110104Y-106728514D01*
X144110104Y-106728514D02*
X144110104Y-106680895D01*
X144110104Y-106680895D02*
X144062485Y-106585657D01*
X144062485Y-106585657D02*
X144014866Y-106538038D01*
X144014866Y-106538038D02*
X143919628Y-106490419D01*
X143919628Y-106490419D02*
X143729152Y-106490419D01*
X143729152Y-106490419D02*
X143633914Y-106538038D01*
X143633914Y-106538038D02*
X143586295Y-106585657D01*
X143586295Y-106585657D02*
X143538676Y-106680895D01*
X143538676Y-106680895D02*
X143538676Y-106728514D01*
X143538676Y-106728514D02*
X143586295Y-106823752D01*
X143586295Y-106823752D02*
X143633914Y-106871371D01*
X143633914Y-106871371D02*
X143729152Y-106918990D01*
X143729152Y-106918990D02*
X143919628Y-106918990D01*
X143919628Y-106918990D02*
X144014866Y-106966609D01*
X144014866Y-106966609D02*
X144062485Y-107014228D01*
X144062485Y-107014228D02*
X144110104Y-107109466D01*
X144110104Y-107109466D02*
X144110104Y-107299942D01*
X144110104Y-107299942D02*
X144062485Y-107395180D01*
X144062485Y-107395180D02*
X144014866Y-107442800D01*
X144014866Y-107442800D02*
X143919628Y-107490419D01*
X143919628Y-107490419D02*
X143729152Y-107490419D01*
X143729152Y-107490419D02*
X143633914Y-107442800D01*
X143633914Y-107442800D02*
X143586295Y-107395180D01*
X143586295Y-107395180D02*
X143538676Y-107299942D01*
X143538676Y-107299942D02*
X143538676Y-107109466D01*
X143538676Y-107109466D02*
X143586295Y-107014228D01*
X143586295Y-107014228D02*
X143633914Y-106966609D01*
X143633914Y-106966609D02*
X143729152Y-106918990D01*
X159716666Y-107266033D02*
X159949999Y-106932700D01*
X160116666Y-107266033D02*
X160116666Y-106566033D01*
X160116666Y-106566033D02*
X159849999Y-106566033D01*
X159849999Y-106566033D02*
X159783333Y-106599366D01*
X159783333Y-106599366D02*
X159749999Y-106632700D01*
X159749999Y-106632700D02*
X159716666Y-106699366D01*
X159716666Y-106699366D02*
X159716666Y-106799366D01*
X159716666Y-106799366D02*
X159749999Y-106866033D01*
X159749999Y-106866033D02*
X159783333Y-106899366D01*
X159783333Y-106899366D02*
X159849999Y-106932700D01*
X159849999Y-106932700D02*
X160116666Y-106932700D01*
X159383333Y-107266033D02*
X159249999Y-107266033D01*
X159249999Y-107266033D02*
X159183333Y-107232700D01*
X159183333Y-107232700D02*
X159149999Y-107199366D01*
X159149999Y-107199366D02*
X159083333Y-107099366D01*
X159083333Y-107099366D02*
X159049999Y-106966033D01*
X159049999Y-106966033D02*
X159049999Y-106699366D01*
X159049999Y-106699366D02*
X159083333Y-106632700D01*
X159083333Y-106632700D02*
X159116666Y-106599366D01*
X159116666Y-106599366D02*
X159183333Y-106566033D01*
X159183333Y-106566033D02*
X159316666Y-106566033D01*
X159316666Y-106566033D02*
X159383333Y-106599366D01*
X159383333Y-106599366D02*
X159416666Y-106632700D01*
X159416666Y-106632700D02*
X159449999Y-106699366D01*
X159449999Y-106699366D02*
X159449999Y-106866033D01*
X159449999Y-106866033D02*
X159416666Y-106932700D01*
X159416666Y-106932700D02*
X159383333Y-106966033D01*
X159383333Y-106966033D02*
X159316666Y-106999366D01*
X159316666Y-106999366D02*
X159183333Y-106999366D01*
X159183333Y-106999366D02*
X159116666Y-106966033D01*
X159116666Y-106966033D02*
X159083333Y-106932700D01*
X159083333Y-106932700D02*
X159049999Y-106866033D01*
X192811304Y-123000419D02*
X192811304Y-123809942D01*
X192811304Y-123809942D02*
X192763685Y-123905180D01*
X192763685Y-123905180D02*
X192716066Y-123952800D01*
X192716066Y-123952800D02*
X192620828Y-124000419D01*
X192620828Y-124000419D02*
X192430352Y-124000419D01*
X192430352Y-124000419D02*
X192335114Y-123952800D01*
X192335114Y-123952800D02*
X192287495Y-123905180D01*
X192287495Y-123905180D02*
X192239876Y-123809942D01*
X192239876Y-123809942D02*
X192239876Y-123000419D01*
X191811304Y-123095657D02*
X191763685Y-123048038D01*
X191763685Y-123048038D02*
X191668447Y-123000419D01*
X191668447Y-123000419D02*
X191430352Y-123000419D01*
X191430352Y-123000419D02*
X191335114Y-123048038D01*
X191335114Y-123048038D02*
X191287495Y-123095657D01*
X191287495Y-123095657D02*
X191239876Y-123190895D01*
X191239876Y-123190895D02*
X191239876Y-123286133D01*
X191239876Y-123286133D02*
X191287495Y-123428990D01*
X191287495Y-123428990D02*
X191858923Y-124000419D01*
X191858923Y-124000419D02*
X191239876Y-124000419D01*
X164969580Y-93853334D02*
X165017200Y-93805715D01*
X165017200Y-93805715D02*
X165064819Y-93662858D01*
X165064819Y-93662858D02*
X165064819Y-93567620D01*
X165064819Y-93567620D02*
X165017200Y-93424763D01*
X165017200Y-93424763D02*
X164921961Y-93329525D01*
X164921961Y-93329525D02*
X164826723Y-93281906D01*
X164826723Y-93281906D02*
X164636247Y-93234287D01*
X164636247Y-93234287D02*
X164493390Y-93234287D01*
X164493390Y-93234287D02*
X164302914Y-93281906D01*
X164302914Y-93281906D02*
X164207676Y-93329525D01*
X164207676Y-93329525D02*
X164112438Y-93424763D01*
X164112438Y-93424763D02*
X164064819Y-93567620D01*
X164064819Y-93567620D02*
X164064819Y-93662858D01*
X164064819Y-93662858D02*
X164112438Y-93805715D01*
X164112438Y-93805715D02*
X164160057Y-93853334D01*
X164160057Y-94234287D02*
X164112438Y-94281906D01*
X164112438Y-94281906D02*
X164064819Y-94377144D01*
X164064819Y-94377144D02*
X164064819Y-94615239D01*
X164064819Y-94615239D02*
X164112438Y-94710477D01*
X164112438Y-94710477D02*
X164160057Y-94758096D01*
X164160057Y-94758096D02*
X164255295Y-94805715D01*
X164255295Y-94805715D02*
X164350533Y-94805715D01*
X164350533Y-94805715D02*
X164493390Y-94758096D01*
X164493390Y-94758096D02*
X165064819Y-94186668D01*
X165064819Y-94186668D02*
X165064819Y-94805715D01*
X166275000Y-103716033D02*
X166275000Y-103016033D01*
X166275000Y-103016033D02*
X166108333Y-103016033D01*
X166108333Y-103016033D02*
X166008333Y-103049366D01*
X166008333Y-103049366D02*
X165941667Y-103116033D01*
X165941667Y-103116033D02*
X165908333Y-103182700D01*
X165908333Y-103182700D02*
X165875000Y-103316033D01*
X165875000Y-103316033D02*
X165875000Y-103416033D01*
X165875000Y-103416033D02*
X165908333Y-103549366D01*
X165908333Y-103549366D02*
X165941667Y-103616033D01*
X165941667Y-103616033D02*
X166008333Y-103682700D01*
X166008333Y-103682700D02*
X166108333Y-103716033D01*
X166108333Y-103716033D02*
X166275000Y-103716033D01*
X165641667Y-103016033D02*
X165175000Y-103016033D01*
X165175000Y-103016033D02*
X165475000Y-103716033D01*
X164608333Y-103249366D02*
X164608333Y-103716033D01*
X164775000Y-102982700D02*
X164941666Y-103482700D01*
X164941666Y-103482700D02*
X164508333Y-103482700D01*
X180261419Y-84402705D02*
X179261419Y-84402705D01*
X179261419Y-84402705D02*
X179261419Y-84640800D01*
X179261419Y-84640800D02*
X179309038Y-84783657D01*
X179309038Y-84783657D02*
X179404276Y-84878895D01*
X179404276Y-84878895D02*
X179499514Y-84926514D01*
X179499514Y-84926514D02*
X179689990Y-84974133D01*
X179689990Y-84974133D02*
X179832847Y-84974133D01*
X179832847Y-84974133D02*
X180023323Y-84926514D01*
X180023323Y-84926514D02*
X180118561Y-84878895D01*
X180118561Y-84878895D02*
X180213800Y-84783657D01*
X180213800Y-84783657D02*
X180261419Y-84640800D01*
X180261419Y-84640800D02*
X180261419Y-84402705D01*
X179261419Y-85878895D02*
X179261419Y-85402705D01*
X179261419Y-85402705D02*
X179737609Y-85355086D01*
X179737609Y-85355086D02*
X179689990Y-85402705D01*
X179689990Y-85402705D02*
X179642371Y-85497943D01*
X179642371Y-85497943D02*
X179642371Y-85736038D01*
X179642371Y-85736038D02*
X179689990Y-85831276D01*
X179689990Y-85831276D02*
X179737609Y-85878895D01*
X179737609Y-85878895D02*
X179832847Y-85926514D01*
X179832847Y-85926514D02*
X180070942Y-85926514D01*
X180070942Y-85926514D02*
X180166180Y-85878895D01*
X180166180Y-85878895D02*
X180213800Y-85831276D01*
X180213800Y-85831276D02*
X180261419Y-85736038D01*
X180261419Y-85736038D02*
X180261419Y-85497943D01*
X180261419Y-85497943D02*
X180213800Y-85402705D01*
X180213800Y-85402705D02*
X180166180Y-85355086D01*
X155691666Y-105374366D02*
X155724999Y-105407700D01*
X155724999Y-105407700D02*
X155824999Y-105441033D01*
X155824999Y-105441033D02*
X155891666Y-105441033D01*
X155891666Y-105441033D02*
X155991666Y-105407700D01*
X155991666Y-105407700D02*
X156058333Y-105341033D01*
X156058333Y-105341033D02*
X156091666Y-105274366D01*
X156091666Y-105274366D02*
X156124999Y-105141033D01*
X156124999Y-105141033D02*
X156124999Y-105041033D01*
X156124999Y-105041033D02*
X156091666Y-104907700D01*
X156091666Y-104907700D02*
X156058333Y-104841033D01*
X156058333Y-104841033D02*
X155991666Y-104774366D01*
X155991666Y-104774366D02*
X155891666Y-104741033D01*
X155891666Y-104741033D02*
X155824999Y-104741033D01*
X155824999Y-104741033D02*
X155724999Y-104774366D01*
X155724999Y-104774366D02*
X155691666Y-104807700D01*
X155058333Y-104741033D02*
X155391666Y-104741033D01*
X155391666Y-104741033D02*
X155424999Y-105074366D01*
X155424999Y-105074366D02*
X155391666Y-105041033D01*
X155391666Y-105041033D02*
X155324999Y-105007700D01*
X155324999Y-105007700D02*
X155158333Y-105007700D01*
X155158333Y-105007700D02*
X155091666Y-105041033D01*
X155091666Y-105041033D02*
X155058333Y-105074366D01*
X155058333Y-105074366D02*
X155024999Y-105141033D01*
X155024999Y-105141033D02*
X155024999Y-105307700D01*
X155024999Y-105307700D02*
X155058333Y-105374366D01*
X155058333Y-105374366D02*
X155091666Y-105407700D01*
X155091666Y-105407700D02*
X155158333Y-105441033D01*
X155158333Y-105441033D02*
X155324999Y-105441033D01*
X155324999Y-105441033D02*
X155391666Y-105407700D01*
X155391666Y-105407700D02*
X155424999Y-105374366D01*
D16*
X159520707Y-112065294D02*
X159909289Y-112065294D01*
X159909289Y-112065294D02*
X159955005Y-112088152D01*
X159955005Y-112088152D02*
X159977863Y-112111010D01*
X159977863Y-112111010D02*
X160000720Y-112156725D01*
X160000720Y-112156725D02*
X160000720Y-112248156D01*
X160000720Y-112248156D02*
X159977863Y-112293872D01*
X159977863Y-112293872D02*
X159955005Y-112316730D01*
X159955005Y-112316730D02*
X159909289Y-112339587D01*
X159909289Y-112339587D02*
X159520707Y-112339587D01*
X159520707Y-112773885D02*
X159520707Y-112682454D01*
X159520707Y-112682454D02*
X159543565Y-112636739D01*
X159543565Y-112636739D02*
X159566423Y-112613881D01*
X159566423Y-112613881D02*
X159634996Y-112568165D01*
X159634996Y-112568165D02*
X159726427Y-112545308D01*
X159726427Y-112545308D02*
X159909289Y-112545308D01*
X159909289Y-112545308D02*
X159955005Y-112568165D01*
X159955005Y-112568165D02*
X159977863Y-112591023D01*
X159977863Y-112591023D02*
X160000720Y-112636739D01*
X160000720Y-112636739D02*
X160000720Y-112728170D01*
X160000720Y-112728170D02*
X159977863Y-112773885D01*
X159977863Y-112773885D02*
X159955005Y-112796743D01*
X159955005Y-112796743D02*
X159909289Y-112819601D01*
X159909289Y-112819601D02*
X159795000Y-112819601D01*
X159795000Y-112819601D02*
X159749285Y-112796743D01*
X159749285Y-112796743D02*
X159726427Y-112773885D01*
X159726427Y-112773885D02*
X159703569Y-112728170D01*
X159703569Y-112728170D02*
X159703569Y-112636739D01*
X159703569Y-112636739D02*
X159726427Y-112591023D01*
X159726427Y-112591023D02*
X159749285Y-112568165D01*
X159749285Y-112568165D02*
X159795000Y-112545308D01*
D13*
X153937619Y-82648466D02*
X154651904Y-82648466D01*
X154651904Y-82648466D02*
X154794761Y-82600847D01*
X154794761Y-82600847D02*
X154890000Y-82505609D01*
X154890000Y-82505609D02*
X154937619Y-82362752D01*
X154937619Y-82362752D02*
X154937619Y-82267514D01*
X153937619Y-83029419D02*
X153937619Y-83696085D01*
X153937619Y-83696085D02*
X154937619Y-83267514D01*
X184089285Y-126362295D02*
X184355952Y-125981342D01*
X184546428Y-126362295D02*
X184546428Y-125562295D01*
X184546428Y-125562295D02*
X184241666Y-125562295D01*
X184241666Y-125562295D02*
X184165476Y-125600390D01*
X184165476Y-125600390D02*
X184127381Y-125638485D01*
X184127381Y-125638485D02*
X184089285Y-125714676D01*
X184089285Y-125714676D02*
X184089285Y-125828961D01*
X184089285Y-125828961D02*
X184127381Y-125905152D01*
X184127381Y-125905152D02*
X184165476Y-125943247D01*
X184165476Y-125943247D02*
X184241666Y-125981342D01*
X184241666Y-125981342D02*
X184546428Y-125981342D01*
X183327381Y-126362295D02*
X183784524Y-126362295D01*
X183555952Y-126362295D02*
X183555952Y-125562295D01*
X183555952Y-125562295D02*
X183632143Y-125676580D01*
X183632143Y-125676580D02*
X183708333Y-125752771D01*
X183708333Y-125752771D02*
X183784524Y-125790866D01*
X182832142Y-125562295D02*
X182755952Y-125562295D01*
X182755952Y-125562295D02*
X182679761Y-125600390D01*
X182679761Y-125600390D02*
X182641666Y-125638485D01*
X182641666Y-125638485D02*
X182603571Y-125714676D01*
X182603571Y-125714676D02*
X182565476Y-125867057D01*
X182565476Y-125867057D02*
X182565476Y-126057533D01*
X182565476Y-126057533D02*
X182603571Y-126209914D01*
X182603571Y-126209914D02*
X182641666Y-126286104D01*
X182641666Y-126286104D02*
X182679761Y-126324200D01*
X182679761Y-126324200D02*
X182755952Y-126362295D01*
X182755952Y-126362295D02*
X182832142Y-126362295D01*
X182832142Y-126362295D02*
X182908333Y-126324200D01*
X182908333Y-126324200D02*
X182946428Y-126286104D01*
X182946428Y-126286104D02*
X182984523Y-126209914D01*
X182984523Y-126209914D02*
X183022619Y-126057533D01*
X183022619Y-126057533D02*
X183022619Y-125867057D01*
X183022619Y-125867057D02*
X182984523Y-125714676D01*
X182984523Y-125714676D02*
X182946428Y-125638485D01*
X182946428Y-125638485D02*
X182908333Y-125600390D01*
X182908333Y-125600390D02*
X182832142Y-125562295D01*
X161054819Y-96573333D02*
X160578628Y-96240000D01*
X161054819Y-96001905D02*
X160054819Y-96001905D01*
X160054819Y-96001905D02*
X160054819Y-96382857D01*
X160054819Y-96382857D02*
X160102438Y-96478095D01*
X160102438Y-96478095D02*
X160150057Y-96525714D01*
X160150057Y-96525714D02*
X160245295Y-96573333D01*
X160245295Y-96573333D02*
X160388152Y-96573333D01*
X160388152Y-96573333D02*
X160483390Y-96525714D01*
X160483390Y-96525714D02*
X160531009Y-96478095D01*
X160531009Y-96478095D02*
X160578628Y-96382857D01*
X160578628Y-96382857D02*
X160578628Y-96001905D01*
X160054819Y-97430476D02*
X160054819Y-97240000D01*
X160054819Y-97240000D02*
X160102438Y-97144762D01*
X160102438Y-97144762D02*
X160150057Y-97097143D01*
X160150057Y-97097143D02*
X160292914Y-97001905D01*
X160292914Y-97001905D02*
X160483390Y-96954286D01*
X160483390Y-96954286D02*
X160864342Y-96954286D01*
X160864342Y-96954286D02*
X160959580Y-97001905D01*
X160959580Y-97001905D02*
X161007200Y-97049524D01*
X161007200Y-97049524D02*
X161054819Y-97144762D01*
X161054819Y-97144762D02*
X161054819Y-97335238D01*
X161054819Y-97335238D02*
X161007200Y-97430476D01*
X161007200Y-97430476D02*
X160959580Y-97478095D01*
X160959580Y-97478095D02*
X160864342Y-97525714D01*
X160864342Y-97525714D02*
X160626247Y-97525714D01*
X160626247Y-97525714D02*
X160531009Y-97478095D01*
X160531009Y-97478095D02*
X160483390Y-97430476D01*
X160483390Y-97430476D02*
X160435771Y-97335238D01*
X160435771Y-97335238D02*
X160435771Y-97144762D01*
X160435771Y-97144762D02*
X160483390Y-97049524D01*
X160483390Y-97049524D02*
X160531009Y-97001905D01*
X160531009Y-97001905D02*
X160626247Y-96954286D01*
X163926733Y-114415219D02*
X163926733Y-115129504D01*
X163926733Y-115129504D02*
X163974352Y-115272361D01*
X163974352Y-115272361D02*
X164069590Y-115367600D01*
X164069590Y-115367600D02*
X164212447Y-115415219D01*
X164212447Y-115415219D02*
X164307685Y-115415219D01*
X163450542Y-115415219D02*
X163450542Y-114415219D01*
X163450542Y-114415219D02*
X163069590Y-114415219D01*
X163069590Y-114415219D02*
X162974352Y-114462838D01*
X162974352Y-114462838D02*
X162926733Y-114510457D01*
X162926733Y-114510457D02*
X162879114Y-114605695D01*
X162879114Y-114605695D02*
X162879114Y-114748552D01*
X162879114Y-114748552D02*
X162926733Y-114843790D01*
X162926733Y-114843790D02*
X162974352Y-114891409D01*
X162974352Y-114891409D02*
X163069590Y-114939028D01*
X163069590Y-114939028D02*
X163450542Y-114939028D01*
X162498161Y-114510457D02*
X162450542Y-114462838D01*
X162450542Y-114462838D02*
X162355304Y-114415219D01*
X162355304Y-114415219D02*
X162117209Y-114415219D01*
X162117209Y-114415219D02*
X162021971Y-114462838D01*
X162021971Y-114462838D02*
X161974352Y-114510457D01*
X161974352Y-114510457D02*
X161926733Y-114605695D01*
X161926733Y-114605695D02*
X161926733Y-114700933D01*
X161926733Y-114700933D02*
X161974352Y-114843790D01*
X161974352Y-114843790D02*
X162545780Y-115415219D01*
X162545780Y-115415219D02*
X161926733Y-115415219D01*
X158722219Y-114228714D02*
X157722219Y-114228714D01*
X157722219Y-114228714D02*
X157722219Y-114466809D01*
X157722219Y-114466809D02*
X157769838Y-114609666D01*
X157769838Y-114609666D02*
X157865076Y-114704904D01*
X157865076Y-114704904D02*
X157960314Y-114752523D01*
X157960314Y-114752523D02*
X158150790Y-114800142D01*
X158150790Y-114800142D02*
X158293647Y-114800142D01*
X158293647Y-114800142D02*
X158484123Y-114752523D01*
X158484123Y-114752523D02*
X158579361Y-114704904D01*
X158579361Y-114704904D02*
X158674600Y-114609666D01*
X158674600Y-114609666D02*
X158722219Y-114466809D01*
X158722219Y-114466809D02*
X158722219Y-114228714D01*
X157722219Y-115133476D02*
X157722219Y-115800142D01*
X157722219Y-115800142D02*
X158722219Y-115371571D01*
X157817457Y-116133476D02*
X157769838Y-116181095D01*
X157769838Y-116181095D02*
X157722219Y-116276333D01*
X157722219Y-116276333D02*
X157722219Y-116514428D01*
X157722219Y-116514428D02*
X157769838Y-116609666D01*
X157769838Y-116609666D02*
X157817457Y-116657285D01*
X157817457Y-116657285D02*
X157912695Y-116704904D01*
X157912695Y-116704904D02*
X158007933Y-116704904D01*
X158007933Y-116704904D02*
X158150790Y-116657285D01*
X158150790Y-116657285D02*
X158722219Y-116085857D01*
X158722219Y-116085857D02*
X158722219Y-116704904D01*
D14*
X178084524Y-127460804D02*
X178517857Y-126841757D01*
X178827381Y-127460804D02*
X178827381Y-126160804D01*
X178827381Y-126160804D02*
X178332143Y-126160804D01*
X178332143Y-126160804D02*
X178208333Y-126222709D01*
X178208333Y-126222709D02*
X178146428Y-126284614D01*
X178146428Y-126284614D02*
X178084524Y-126408423D01*
X178084524Y-126408423D02*
X178084524Y-126594138D01*
X178084524Y-126594138D02*
X178146428Y-126717947D01*
X178146428Y-126717947D02*
X178208333Y-126779852D01*
X178208333Y-126779852D02*
X178332143Y-126841757D01*
X178332143Y-126841757D02*
X178827381Y-126841757D01*
X177032143Y-127398900D02*
X177155952Y-127460804D01*
X177155952Y-127460804D02*
X177403571Y-127460804D01*
X177403571Y-127460804D02*
X177527381Y-127398900D01*
X177527381Y-127398900D02*
X177589285Y-127275090D01*
X177589285Y-127275090D02*
X177589285Y-126779852D01*
X177589285Y-126779852D02*
X177527381Y-126656042D01*
X177527381Y-126656042D02*
X177403571Y-126594138D01*
X177403571Y-126594138D02*
X177155952Y-126594138D01*
X177155952Y-126594138D02*
X177032143Y-126656042D01*
X177032143Y-126656042D02*
X176970238Y-126779852D01*
X176970238Y-126779852D02*
X176970238Y-126903661D01*
X176970238Y-126903661D02*
X177589285Y-127027471D01*
X176474999Y-127398900D02*
X176351190Y-127460804D01*
X176351190Y-127460804D02*
X176103571Y-127460804D01*
X176103571Y-127460804D02*
X175979761Y-127398900D01*
X175979761Y-127398900D02*
X175917857Y-127275090D01*
X175917857Y-127275090D02*
X175917857Y-127213185D01*
X175917857Y-127213185D02*
X175979761Y-127089376D01*
X175979761Y-127089376D02*
X176103571Y-127027471D01*
X176103571Y-127027471D02*
X176289285Y-127027471D01*
X176289285Y-127027471D02*
X176413095Y-126965566D01*
X176413095Y-126965566D02*
X176474999Y-126841757D01*
X176474999Y-126841757D02*
X176474999Y-126779852D01*
X176474999Y-126779852D02*
X176413095Y-126656042D01*
X176413095Y-126656042D02*
X176289285Y-126594138D01*
X176289285Y-126594138D02*
X176103571Y-126594138D01*
X176103571Y-126594138D02*
X175979761Y-126656042D01*
X174865476Y-127398900D02*
X174989285Y-127460804D01*
X174989285Y-127460804D02*
X175236904Y-127460804D01*
X175236904Y-127460804D02*
X175360714Y-127398900D01*
X175360714Y-127398900D02*
X175422618Y-127275090D01*
X175422618Y-127275090D02*
X175422618Y-126779852D01*
X175422618Y-126779852D02*
X175360714Y-126656042D01*
X175360714Y-126656042D02*
X175236904Y-126594138D01*
X175236904Y-126594138D02*
X174989285Y-126594138D01*
X174989285Y-126594138D02*
X174865476Y-126656042D01*
X174865476Y-126656042D02*
X174803571Y-126779852D01*
X174803571Y-126779852D02*
X174803571Y-126903661D01*
X174803571Y-126903661D02*
X175422618Y-127027471D01*
X174432142Y-126594138D02*
X173936904Y-126594138D01*
X174246428Y-126160804D02*
X174246428Y-127275090D01*
X174246428Y-127275090D02*
X174184523Y-127398900D01*
X174184523Y-127398900D02*
X174060713Y-127460804D01*
X174060713Y-127460804D02*
X173936904Y-127460804D01*
D13*
X157266466Y-120788233D02*
X157499799Y-120454900D01*
X157666466Y-120788233D02*
X157666466Y-120088233D01*
X157666466Y-120088233D02*
X157399799Y-120088233D01*
X157399799Y-120088233D02*
X157333133Y-120121566D01*
X157333133Y-120121566D02*
X157299799Y-120154900D01*
X157299799Y-120154900D02*
X157266466Y-120221566D01*
X157266466Y-120221566D02*
X157266466Y-120321566D01*
X157266466Y-120321566D02*
X157299799Y-120388233D01*
X157299799Y-120388233D02*
X157333133Y-120421566D01*
X157333133Y-120421566D02*
X157399799Y-120454900D01*
X157399799Y-120454900D02*
X157666466Y-120454900D01*
X157033133Y-120088233D02*
X156599799Y-120088233D01*
X156599799Y-120088233D02*
X156833133Y-120354900D01*
X156833133Y-120354900D02*
X156733133Y-120354900D01*
X156733133Y-120354900D02*
X156666466Y-120388233D01*
X156666466Y-120388233D02*
X156633133Y-120421566D01*
X156633133Y-120421566D02*
X156599799Y-120488233D01*
X156599799Y-120488233D02*
X156599799Y-120654900D01*
X156599799Y-120654900D02*
X156633133Y-120721566D01*
X156633133Y-120721566D02*
X156666466Y-120754900D01*
X156666466Y-120754900D02*
X156733133Y-120788233D01*
X156733133Y-120788233D02*
X156933133Y-120788233D01*
X156933133Y-120788233D02*
X156999799Y-120754900D01*
X156999799Y-120754900D02*
X157033133Y-120721566D01*
X192504819Y-71816666D02*
X193219104Y-71816666D01*
X193219104Y-71816666D02*
X193361961Y-71769047D01*
X193361961Y-71769047D02*
X193457200Y-71673809D01*
X193457200Y-71673809D02*
X193504819Y-71530952D01*
X193504819Y-71530952D02*
X193504819Y-71435714D01*
X192504819Y-72721428D02*
X192504819Y-72530952D01*
X192504819Y-72530952D02*
X192552438Y-72435714D01*
X192552438Y-72435714D02*
X192600057Y-72388095D01*
X192600057Y-72388095D02*
X192742914Y-72292857D01*
X192742914Y-72292857D02*
X192933390Y-72245238D01*
X192933390Y-72245238D02*
X193314342Y-72245238D01*
X193314342Y-72245238D02*
X193409580Y-72292857D01*
X193409580Y-72292857D02*
X193457200Y-72340476D01*
X193457200Y-72340476D02*
X193504819Y-72435714D01*
X193504819Y-72435714D02*
X193504819Y-72626190D01*
X193504819Y-72626190D02*
X193457200Y-72721428D01*
X193457200Y-72721428D02*
X193409580Y-72769047D01*
X193409580Y-72769047D02*
X193314342Y-72816666D01*
X193314342Y-72816666D02*
X193076247Y-72816666D01*
X193076247Y-72816666D02*
X192981009Y-72769047D01*
X192981009Y-72769047D02*
X192933390Y-72721428D01*
X192933390Y-72721428D02*
X192885771Y-72626190D01*
X192885771Y-72626190D02*
X192885771Y-72435714D01*
X192885771Y-72435714D02*
X192933390Y-72340476D01*
X192933390Y-72340476D02*
X192981009Y-72292857D01*
X192981009Y-72292857D02*
X193076247Y-72245238D01*
X139592857Y-121554819D02*
X139926190Y-121078628D01*
X140164285Y-121554819D02*
X140164285Y-120554819D01*
X140164285Y-120554819D02*
X139783333Y-120554819D01*
X139783333Y-120554819D02*
X139688095Y-120602438D01*
X139688095Y-120602438D02*
X139640476Y-120650057D01*
X139640476Y-120650057D02*
X139592857Y-120745295D01*
X139592857Y-120745295D02*
X139592857Y-120888152D01*
X139592857Y-120888152D02*
X139640476Y-120983390D01*
X139640476Y-120983390D02*
X139688095Y-121031009D01*
X139688095Y-121031009D02*
X139783333Y-121078628D01*
X139783333Y-121078628D02*
X140164285Y-121078628D01*
X139211904Y-120650057D02*
X139164285Y-120602438D01*
X139164285Y-120602438D02*
X139069047Y-120554819D01*
X139069047Y-120554819D02*
X138830952Y-120554819D01*
X138830952Y-120554819D02*
X138735714Y-120602438D01*
X138735714Y-120602438D02*
X138688095Y-120650057D01*
X138688095Y-120650057D02*
X138640476Y-120745295D01*
X138640476Y-120745295D02*
X138640476Y-120840533D01*
X138640476Y-120840533D02*
X138688095Y-120983390D01*
X138688095Y-120983390D02*
X139259523Y-121554819D01*
X139259523Y-121554819D02*
X138640476Y-121554819D01*
X137688095Y-121554819D02*
X138259523Y-121554819D01*
X137973809Y-121554819D02*
X137973809Y-120554819D01*
X137973809Y-120554819D02*
X138069047Y-120697676D01*
X138069047Y-120697676D02*
X138164285Y-120792914D01*
X138164285Y-120792914D02*
X138259523Y-120840533D01*
X180961104Y-129491667D02*
X180999200Y-129453571D01*
X180999200Y-129453571D02*
X181037295Y-129339286D01*
X181037295Y-129339286D02*
X181037295Y-129263095D01*
X181037295Y-129263095D02*
X180999200Y-129148809D01*
X180999200Y-129148809D02*
X180923009Y-129072619D01*
X180923009Y-129072619D02*
X180846819Y-129034524D01*
X180846819Y-129034524D02*
X180694438Y-128996428D01*
X180694438Y-128996428D02*
X180580152Y-128996428D01*
X180580152Y-128996428D02*
X180427771Y-129034524D01*
X180427771Y-129034524D02*
X180351580Y-129072619D01*
X180351580Y-129072619D02*
X180275390Y-129148809D01*
X180275390Y-129148809D02*
X180237295Y-129263095D01*
X180237295Y-129263095D02*
X180237295Y-129339286D01*
X180237295Y-129339286D02*
X180275390Y-129453571D01*
X180275390Y-129453571D02*
X180313485Y-129491667D01*
X180503961Y-130177381D02*
X181037295Y-130177381D01*
X180199200Y-129986905D02*
X180770628Y-129796428D01*
X180770628Y-129796428D02*
X180770628Y-130291667D01*
D14*
X166059047Y-97435804D02*
X166059047Y-96135804D01*
X166059047Y-96135804D02*
X165563809Y-96135804D01*
X165563809Y-96135804D02*
X165439999Y-96197709D01*
X165439999Y-96197709D02*
X165378094Y-96259614D01*
X165378094Y-96259614D02*
X165316190Y-96383423D01*
X165316190Y-96383423D02*
X165316190Y-96569138D01*
X165316190Y-96569138D02*
X165378094Y-96692947D01*
X165378094Y-96692947D02*
X165439999Y-96754852D01*
X165439999Y-96754852D02*
X165563809Y-96816757D01*
X165563809Y-96816757D02*
X166059047Y-96816757D01*
X164759047Y-97435804D02*
X164759047Y-96569138D01*
X164759047Y-96816757D02*
X164697142Y-96692947D01*
X164697142Y-96692947D02*
X164635237Y-96631042D01*
X164635237Y-96631042D02*
X164511428Y-96569138D01*
X164511428Y-96569138D02*
X164387618Y-96569138D01*
X163768570Y-97435804D02*
X163892380Y-97373900D01*
X163892380Y-97373900D02*
X163954285Y-97311995D01*
X163954285Y-97311995D02*
X164016189Y-97188185D01*
X164016189Y-97188185D02*
X164016189Y-96816757D01*
X164016189Y-96816757D02*
X163954285Y-96692947D01*
X163954285Y-96692947D02*
X163892380Y-96631042D01*
X163892380Y-96631042D02*
X163768570Y-96569138D01*
X163768570Y-96569138D02*
X163582856Y-96569138D01*
X163582856Y-96569138D02*
X163459047Y-96631042D01*
X163459047Y-96631042D02*
X163397142Y-96692947D01*
X163397142Y-96692947D02*
X163335237Y-96816757D01*
X163335237Y-96816757D02*
X163335237Y-97188185D01*
X163335237Y-97188185D02*
X163397142Y-97311995D01*
X163397142Y-97311995D02*
X163459047Y-97373900D01*
X163459047Y-97373900D02*
X163582856Y-97435804D01*
X163582856Y-97435804D02*
X163768570Y-97435804D01*
X162220952Y-96569138D02*
X162220952Y-97621519D01*
X162220952Y-97621519D02*
X162282857Y-97745328D01*
X162282857Y-97745328D02*
X162344761Y-97807233D01*
X162344761Y-97807233D02*
X162468571Y-97869138D01*
X162468571Y-97869138D02*
X162654285Y-97869138D01*
X162654285Y-97869138D02*
X162778095Y-97807233D01*
X162220952Y-97373900D02*
X162344761Y-97435804D01*
X162344761Y-97435804D02*
X162592380Y-97435804D01*
X162592380Y-97435804D02*
X162716190Y-97373900D01*
X162716190Y-97373900D02*
X162778095Y-97311995D01*
X162778095Y-97311995D02*
X162839999Y-97188185D01*
X162839999Y-97188185D02*
X162839999Y-96816757D01*
X162839999Y-96816757D02*
X162778095Y-96692947D01*
X162778095Y-96692947D02*
X162716190Y-96631042D01*
X162716190Y-96631042D02*
X162592380Y-96569138D01*
X162592380Y-96569138D02*
X162344761Y-96569138D01*
X162344761Y-96569138D02*
X162220952Y-96631042D01*
D13*
X162964019Y-99515705D02*
X161964019Y-99515705D01*
X161964019Y-99515705D02*
X161964019Y-99753800D01*
X161964019Y-99753800D02*
X162011638Y-99896657D01*
X162011638Y-99896657D02*
X162106876Y-99991895D01*
X162106876Y-99991895D02*
X162202114Y-100039514D01*
X162202114Y-100039514D02*
X162392590Y-100087133D01*
X162392590Y-100087133D02*
X162535447Y-100087133D01*
X162535447Y-100087133D02*
X162725923Y-100039514D01*
X162725923Y-100039514D02*
X162821161Y-99991895D01*
X162821161Y-99991895D02*
X162916400Y-99896657D01*
X162916400Y-99896657D02*
X162964019Y-99753800D01*
X162964019Y-99753800D02*
X162964019Y-99515705D01*
X162964019Y-101039514D02*
X162964019Y-100468086D01*
X162964019Y-100753800D02*
X161964019Y-100753800D01*
X161964019Y-100753800D02*
X162106876Y-100658562D01*
X162106876Y-100658562D02*
X162202114Y-100563324D01*
X162202114Y-100563324D02*
X162249733Y-100468086D01*
X177911904Y-82104819D02*
X177911904Y-82914342D01*
X177911904Y-82914342D02*
X177864285Y-83009580D01*
X177864285Y-83009580D02*
X177816666Y-83057200D01*
X177816666Y-83057200D02*
X177721428Y-83104819D01*
X177721428Y-83104819D02*
X177530952Y-83104819D01*
X177530952Y-83104819D02*
X177435714Y-83057200D01*
X177435714Y-83057200D02*
X177388095Y-83009580D01*
X177388095Y-83009580D02*
X177340476Y-82914342D01*
X177340476Y-82914342D02*
X177340476Y-82104819D01*
X176959523Y-82104819D02*
X176292857Y-82104819D01*
X176292857Y-82104819D02*
X176721428Y-83104819D01*
X177513706Y-91906438D02*
X178228481Y-91906438D01*
X178228481Y-91906438D02*
X178371436Y-91858786D01*
X178371436Y-91858786D02*
X178466740Y-91763483D01*
X178466740Y-91763483D02*
X178514391Y-91620528D01*
X178514391Y-91620528D02*
X178514391Y-91525225D01*
X177513706Y-92287652D02*
X177513706Y-92907123D01*
X177513706Y-92907123D02*
X177894920Y-92573562D01*
X177894920Y-92573562D02*
X177894920Y-92716517D01*
X177894920Y-92716517D02*
X177942571Y-92811820D01*
X177942571Y-92811820D02*
X177990223Y-92859472D01*
X177990223Y-92859472D02*
X178085526Y-92907123D01*
X178085526Y-92907123D02*
X178323785Y-92907123D01*
X178323785Y-92907123D02*
X178419088Y-92859472D01*
X178419088Y-92859472D02*
X178466740Y-92811820D01*
X178466740Y-92811820D02*
X178514391Y-92716517D01*
X178514391Y-92716517D02*
X178514391Y-92430607D01*
X178514391Y-92430607D02*
X178466740Y-92335303D01*
X178466740Y-92335303D02*
X178419088Y-92287652D01*
X168589285Y-75511104D02*
X168627381Y-75549200D01*
X168627381Y-75549200D02*
X168741666Y-75587295D01*
X168741666Y-75587295D02*
X168817857Y-75587295D01*
X168817857Y-75587295D02*
X168932143Y-75549200D01*
X168932143Y-75549200D02*
X169008333Y-75473009D01*
X169008333Y-75473009D02*
X169046428Y-75396819D01*
X169046428Y-75396819D02*
X169084524Y-75244438D01*
X169084524Y-75244438D02*
X169084524Y-75130152D01*
X169084524Y-75130152D02*
X169046428Y-74977771D01*
X169046428Y-74977771D02*
X169008333Y-74901580D01*
X169008333Y-74901580D02*
X168932143Y-74825390D01*
X168932143Y-74825390D02*
X168817857Y-74787295D01*
X168817857Y-74787295D02*
X168741666Y-74787295D01*
X168741666Y-74787295D02*
X168627381Y-74825390D01*
X168627381Y-74825390D02*
X168589285Y-74863485D01*
X167827381Y-75587295D02*
X168284524Y-75587295D01*
X168055952Y-75587295D02*
X168055952Y-74787295D01*
X168055952Y-74787295D02*
X168132143Y-74901580D01*
X168132143Y-74901580D02*
X168208333Y-74977771D01*
X168208333Y-74977771D02*
X168284524Y-75015866D01*
X167065476Y-75587295D02*
X167522619Y-75587295D01*
X167294047Y-75587295D02*
X167294047Y-74787295D01*
X167294047Y-74787295D02*
X167370238Y-74901580D01*
X167370238Y-74901580D02*
X167446428Y-74977771D01*
X167446428Y-74977771D02*
X167522619Y-75015866D01*
X174480457Y-86357619D02*
X174813790Y-85881428D01*
X175051885Y-86357619D02*
X175051885Y-85357619D01*
X175051885Y-85357619D02*
X174670933Y-85357619D01*
X174670933Y-85357619D02*
X174575695Y-85405238D01*
X174575695Y-85405238D02*
X174528076Y-85452857D01*
X174528076Y-85452857D02*
X174480457Y-85548095D01*
X174480457Y-85548095D02*
X174480457Y-85690952D01*
X174480457Y-85690952D02*
X174528076Y-85786190D01*
X174528076Y-85786190D02*
X174575695Y-85833809D01*
X174575695Y-85833809D02*
X174670933Y-85881428D01*
X174670933Y-85881428D02*
X175051885Y-85881428D01*
X173528076Y-86357619D02*
X174099504Y-86357619D01*
X173813790Y-86357619D02*
X173813790Y-85357619D01*
X173813790Y-85357619D02*
X173909028Y-85500476D01*
X173909028Y-85500476D02*
X174004266Y-85595714D01*
X174004266Y-85595714D02*
X174099504Y-85643333D01*
X172623314Y-85357619D02*
X173099504Y-85357619D01*
X173099504Y-85357619D02*
X173147123Y-85833809D01*
X173147123Y-85833809D02*
X173099504Y-85786190D01*
X173099504Y-85786190D02*
X173004266Y-85738571D01*
X173004266Y-85738571D02*
X172766171Y-85738571D01*
X172766171Y-85738571D02*
X172670933Y-85786190D01*
X172670933Y-85786190D02*
X172623314Y-85833809D01*
X172623314Y-85833809D02*
X172575695Y-85929047D01*
X172575695Y-85929047D02*
X172575695Y-86167142D01*
X172575695Y-86167142D02*
X172623314Y-86262380D01*
X172623314Y-86262380D02*
X172670933Y-86310000D01*
X172670933Y-86310000D02*
X172766171Y-86357619D01*
X172766171Y-86357619D02*
X173004266Y-86357619D01*
X173004266Y-86357619D02*
X173099504Y-86310000D01*
X173099504Y-86310000D02*
X173147123Y-86262380D01*
X161840832Y-89662295D02*
X162107499Y-89281342D01*
X162297975Y-89662295D02*
X162297975Y-88862295D01*
X162297975Y-88862295D02*
X161993213Y-88862295D01*
X161993213Y-88862295D02*
X161917023Y-88900390D01*
X161917023Y-88900390D02*
X161878928Y-88938485D01*
X161878928Y-88938485D02*
X161840832Y-89014676D01*
X161840832Y-89014676D02*
X161840832Y-89128961D01*
X161840832Y-89128961D02*
X161878928Y-89205152D01*
X161878928Y-89205152D02*
X161917023Y-89243247D01*
X161917023Y-89243247D02*
X161993213Y-89281342D01*
X161993213Y-89281342D02*
X162297975Y-89281342D01*
X161574166Y-88862295D02*
X161040832Y-88862295D01*
X161040832Y-88862295D02*
X161383690Y-89662295D01*
X167966033Y-79924999D02*
X167632700Y-79691666D01*
X167966033Y-79524999D02*
X167266033Y-79524999D01*
X167266033Y-79524999D02*
X167266033Y-79791666D01*
X167266033Y-79791666D02*
X167299366Y-79858333D01*
X167299366Y-79858333D02*
X167332700Y-79891666D01*
X167332700Y-79891666D02*
X167399366Y-79924999D01*
X167399366Y-79924999D02*
X167499366Y-79924999D01*
X167499366Y-79924999D02*
X167566033Y-79891666D01*
X167566033Y-79891666D02*
X167599366Y-79858333D01*
X167599366Y-79858333D02*
X167632700Y-79791666D01*
X167632700Y-79791666D02*
X167632700Y-79524999D01*
X167966033Y-80591666D02*
X167966033Y-80191666D01*
X167966033Y-80391666D02*
X167266033Y-80391666D01*
X167266033Y-80391666D02*
X167366033Y-80324999D01*
X167366033Y-80324999D02*
X167432700Y-80258333D01*
X167432700Y-80258333D02*
X167466033Y-80191666D01*
X167266033Y-81191666D02*
X167266033Y-81058333D01*
X167266033Y-81058333D02*
X167299366Y-80991666D01*
X167299366Y-80991666D02*
X167332700Y-80958333D01*
X167332700Y-80958333D02*
X167432700Y-80891666D01*
X167432700Y-80891666D02*
X167566033Y-80858333D01*
X167566033Y-80858333D02*
X167832700Y-80858333D01*
X167832700Y-80858333D02*
X167899366Y-80891666D01*
X167899366Y-80891666D02*
X167932700Y-80925000D01*
X167932700Y-80925000D02*
X167966033Y-80991666D01*
X167966033Y-80991666D02*
X167966033Y-81125000D01*
X167966033Y-81125000D02*
X167932700Y-81191666D01*
X167932700Y-81191666D02*
X167899366Y-81225000D01*
X167899366Y-81225000D02*
X167832700Y-81258333D01*
X167832700Y-81258333D02*
X167666033Y-81258333D01*
X167666033Y-81258333D02*
X167599366Y-81225000D01*
X167599366Y-81225000D02*
X167566033Y-81191666D01*
X167566033Y-81191666D02*
X167532700Y-81125000D01*
X167532700Y-81125000D02*
X167532700Y-80991666D01*
X167532700Y-80991666D02*
X167566033Y-80925000D01*
X167566033Y-80925000D02*
X167599366Y-80891666D01*
X167599366Y-80891666D02*
X167666033Y-80858333D01*
X181667495Y-74999914D02*
X181286542Y-74733247D01*
X181667495Y-74542771D02*
X180867495Y-74542771D01*
X180867495Y-74542771D02*
X180867495Y-74847533D01*
X180867495Y-74847533D02*
X180905590Y-74923723D01*
X180905590Y-74923723D02*
X180943685Y-74961818D01*
X180943685Y-74961818D02*
X181019876Y-74999914D01*
X181019876Y-74999914D02*
X181134161Y-74999914D01*
X181134161Y-74999914D02*
X181210352Y-74961818D01*
X181210352Y-74961818D02*
X181248447Y-74923723D01*
X181248447Y-74923723D02*
X181286542Y-74847533D01*
X181286542Y-74847533D02*
X181286542Y-74542771D01*
X181667495Y-75761818D02*
X181667495Y-75304675D01*
X181667495Y-75533247D02*
X180867495Y-75533247D01*
X180867495Y-75533247D02*
X180981780Y-75457056D01*
X180981780Y-75457056D02*
X181057971Y-75380866D01*
X181057971Y-75380866D02*
X181096066Y-75304675D01*
X181210352Y-76218961D02*
X181172257Y-76142771D01*
X181172257Y-76142771D02*
X181134161Y-76104676D01*
X181134161Y-76104676D02*
X181057971Y-76066580D01*
X181057971Y-76066580D02*
X181019876Y-76066580D01*
X181019876Y-76066580D02*
X180943685Y-76104676D01*
X180943685Y-76104676D02*
X180905590Y-76142771D01*
X180905590Y-76142771D02*
X180867495Y-76218961D01*
X180867495Y-76218961D02*
X180867495Y-76371342D01*
X180867495Y-76371342D02*
X180905590Y-76447533D01*
X180905590Y-76447533D02*
X180943685Y-76485628D01*
X180943685Y-76485628D02*
X181019876Y-76523723D01*
X181019876Y-76523723D02*
X181057971Y-76523723D01*
X181057971Y-76523723D02*
X181134161Y-76485628D01*
X181134161Y-76485628D02*
X181172257Y-76447533D01*
X181172257Y-76447533D02*
X181210352Y-76371342D01*
X181210352Y-76371342D02*
X181210352Y-76218961D01*
X181210352Y-76218961D02*
X181248447Y-76142771D01*
X181248447Y-76142771D02*
X181286542Y-76104676D01*
X181286542Y-76104676D02*
X181362733Y-76066580D01*
X181362733Y-76066580D02*
X181515114Y-76066580D01*
X181515114Y-76066580D02*
X181591304Y-76104676D01*
X181591304Y-76104676D02*
X181629400Y-76142771D01*
X181629400Y-76142771D02*
X181667495Y-76218961D01*
X181667495Y-76218961D02*
X181667495Y-76371342D01*
X181667495Y-76371342D02*
X181629400Y-76447533D01*
X181629400Y-76447533D02*
X181591304Y-76485628D01*
X181591304Y-76485628D02*
X181515114Y-76523723D01*
X181515114Y-76523723D02*
X181362733Y-76523723D01*
X181362733Y-76523723D02*
X181286542Y-76485628D01*
X181286542Y-76485628D02*
X181248447Y-76447533D01*
X181248447Y-76447533D02*
X181210352Y-76371342D01*
X165491667Y-80680271D02*
X165420956Y-80279577D01*
X165774510Y-80397428D02*
X165279535Y-79902453D01*
X165279535Y-79902453D02*
X165090973Y-80091015D01*
X165090973Y-80091015D02*
X165067403Y-80161726D01*
X165067403Y-80161726D02*
X165067403Y-80208866D01*
X165067403Y-80208866D02*
X165090973Y-80279577D01*
X165090973Y-80279577D02*
X165161684Y-80350287D01*
X165161684Y-80350287D02*
X165232395Y-80373858D01*
X165232395Y-80373858D02*
X165279535Y-80373858D01*
X165279535Y-80373858D02*
X165350246Y-80350287D01*
X165350246Y-80350287D02*
X165538808Y-80161726D01*
X164855271Y-80420998D02*
X164808131Y-80420998D01*
X164808131Y-80420998D02*
X164737420Y-80444568D01*
X164737420Y-80444568D02*
X164619569Y-80562419D01*
X164619569Y-80562419D02*
X164595999Y-80633130D01*
X164595999Y-80633130D02*
X164595999Y-80680271D01*
X164595999Y-80680271D02*
X164619569Y-80750981D01*
X164619569Y-80750981D02*
X164666709Y-80798122D01*
X164666709Y-80798122D02*
X164760990Y-80845262D01*
X164760990Y-80845262D02*
X165326676Y-80845262D01*
X165326676Y-80845262D02*
X165020263Y-81151675D01*
X164383866Y-80892403D02*
X164336726Y-80892403D01*
X164336726Y-80892403D02*
X164266015Y-80915973D01*
X164266015Y-80915973D02*
X164148164Y-81033824D01*
X164148164Y-81033824D02*
X164124594Y-81104535D01*
X164124594Y-81104535D02*
X164124594Y-81151675D01*
X164124594Y-81151675D02*
X164148164Y-81222386D01*
X164148164Y-81222386D02*
X164195304Y-81269526D01*
X164195304Y-81269526D02*
X164289585Y-81316667D01*
X164289585Y-81316667D02*
X164855271Y-81316667D01*
X164855271Y-81316667D02*
X164548858Y-81623080D01*
X166757695Y-123640867D02*
X166376742Y-123374200D01*
X166757695Y-123183724D02*
X165957695Y-123183724D01*
X165957695Y-123183724D02*
X165957695Y-123488486D01*
X165957695Y-123488486D02*
X165995790Y-123564676D01*
X165995790Y-123564676D02*
X166033885Y-123602771D01*
X166033885Y-123602771D02*
X166110076Y-123640867D01*
X166110076Y-123640867D02*
X166224361Y-123640867D01*
X166224361Y-123640867D02*
X166300552Y-123602771D01*
X166300552Y-123602771D02*
X166338647Y-123564676D01*
X166338647Y-123564676D02*
X166376742Y-123488486D01*
X166376742Y-123488486D02*
X166376742Y-123183724D01*
X166033885Y-123945628D02*
X165995790Y-123983724D01*
X165995790Y-123983724D02*
X165957695Y-124059914D01*
X165957695Y-124059914D02*
X165957695Y-124250390D01*
X165957695Y-124250390D02*
X165995790Y-124326581D01*
X165995790Y-124326581D02*
X166033885Y-124364676D01*
X166033885Y-124364676D02*
X166110076Y-124402771D01*
X166110076Y-124402771D02*
X166186266Y-124402771D01*
X166186266Y-124402771D02*
X166300552Y-124364676D01*
X166300552Y-124364676D02*
X166757695Y-123907533D01*
X166757695Y-123907533D02*
X166757695Y-124402771D01*
X165004666Y-126460695D02*
X165004666Y-127032123D01*
X165004666Y-127032123D02*
X165042761Y-127146409D01*
X165042761Y-127146409D02*
X165118952Y-127222600D01*
X165118952Y-127222600D02*
X165233237Y-127260695D01*
X165233237Y-127260695D02*
X165309428Y-127260695D01*
X164623713Y-127260695D02*
X164623713Y-126460695D01*
X164623713Y-126460695D02*
X164318951Y-126460695D01*
X164318951Y-126460695D02*
X164242761Y-126498790D01*
X164242761Y-126498790D02*
X164204666Y-126536885D01*
X164204666Y-126536885D02*
X164166570Y-126613076D01*
X164166570Y-126613076D02*
X164166570Y-126727361D01*
X164166570Y-126727361D02*
X164204666Y-126803552D01*
X164204666Y-126803552D02*
X164242761Y-126841647D01*
X164242761Y-126841647D02*
X164318951Y-126879742D01*
X164318951Y-126879742D02*
X164623713Y-126879742D01*
X163480856Y-126727361D02*
X163480856Y-127260695D01*
X163671332Y-126422600D02*
X163861809Y-126994028D01*
X163861809Y-126994028D02*
X163366570Y-126994028D01*
X172191666Y-105179819D02*
X172524999Y-104703628D01*
X172763094Y-105179819D02*
X172763094Y-104179819D01*
X172763094Y-104179819D02*
X172382142Y-104179819D01*
X172382142Y-104179819D02*
X172286904Y-104227438D01*
X172286904Y-104227438D02*
X172239285Y-104275057D01*
X172239285Y-104275057D02*
X172191666Y-104370295D01*
X172191666Y-104370295D02*
X172191666Y-104513152D01*
X172191666Y-104513152D02*
X172239285Y-104608390D01*
X172239285Y-104608390D02*
X172286904Y-104656009D01*
X172286904Y-104656009D02*
X172382142Y-104703628D01*
X172382142Y-104703628D02*
X172763094Y-104703628D01*
X171239285Y-105179819D02*
X171810713Y-105179819D01*
X171524999Y-105179819D02*
X171524999Y-104179819D01*
X171524999Y-104179819D02*
X171620237Y-104322676D01*
X171620237Y-104322676D02*
X171715475Y-104417914D01*
X171715475Y-104417914D02*
X171810713Y-104465533D01*
X151746033Y-111243333D02*
X151412700Y-111010000D01*
X151746033Y-110843333D02*
X151046033Y-110843333D01*
X151046033Y-110843333D02*
X151046033Y-111110000D01*
X151046033Y-111110000D02*
X151079366Y-111176667D01*
X151079366Y-111176667D02*
X151112700Y-111210000D01*
X151112700Y-111210000D02*
X151179366Y-111243333D01*
X151179366Y-111243333D02*
X151279366Y-111243333D01*
X151279366Y-111243333D02*
X151346033Y-111210000D01*
X151346033Y-111210000D02*
X151379366Y-111176667D01*
X151379366Y-111176667D02*
X151412700Y-111110000D01*
X151412700Y-111110000D02*
X151412700Y-110843333D01*
X151346033Y-111643333D02*
X151312700Y-111576667D01*
X151312700Y-111576667D02*
X151279366Y-111543333D01*
X151279366Y-111543333D02*
X151212700Y-111510000D01*
X151212700Y-111510000D02*
X151179366Y-111510000D01*
X151179366Y-111510000D02*
X151112700Y-111543333D01*
X151112700Y-111543333D02*
X151079366Y-111576667D01*
X151079366Y-111576667D02*
X151046033Y-111643333D01*
X151046033Y-111643333D02*
X151046033Y-111776667D01*
X151046033Y-111776667D02*
X151079366Y-111843333D01*
X151079366Y-111843333D02*
X151112700Y-111876667D01*
X151112700Y-111876667D02*
X151179366Y-111910000D01*
X151179366Y-111910000D02*
X151212700Y-111910000D01*
X151212700Y-111910000D02*
X151279366Y-111876667D01*
X151279366Y-111876667D02*
X151312700Y-111843333D01*
X151312700Y-111843333D02*
X151346033Y-111776667D01*
X151346033Y-111776667D02*
X151346033Y-111643333D01*
X151346033Y-111643333D02*
X151379366Y-111576667D01*
X151379366Y-111576667D02*
X151412700Y-111543333D01*
X151412700Y-111543333D02*
X151479366Y-111510000D01*
X151479366Y-111510000D02*
X151612700Y-111510000D01*
X151612700Y-111510000D02*
X151679366Y-111543333D01*
X151679366Y-111543333D02*
X151712700Y-111576667D01*
X151712700Y-111576667D02*
X151746033Y-111643333D01*
X151746033Y-111643333D02*
X151746033Y-111776667D01*
X151746033Y-111776667D02*
X151712700Y-111843333D01*
X151712700Y-111843333D02*
X151679366Y-111876667D01*
X151679366Y-111876667D02*
X151612700Y-111910000D01*
X151612700Y-111910000D02*
X151479366Y-111910000D01*
X151479366Y-111910000D02*
X151412700Y-111876667D01*
X151412700Y-111876667D02*
X151379366Y-111843333D01*
X151379366Y-111843333D02*
X151346033Y-111776667D01*
X135359733Y-86526019D02*
X135359733Y-87240304D01*
X135359733Y-87240304D02*
X135407352Y-87383161D01*
X135407352Y-87383161D02*
X135502590Y-87478400D01*
X135502590Y-87478400D02*
X135645447Y-87526019D01*
X135645447Y-87526019D02*
X135740685Y-87526019D01*
X134931161Y-86621257D02*
X134883542Y-86573638D01*
X134883542Y-86573638D02*
X134788304Y-86526019D01*
X134788304Y-86526019D02*
X134550209Y-86526019D01*
X134550209Y-86526019D02*
X134454971Y-86573638D01*
X134454971Y-86573638D02*
X134407352Y-86621257D01*
X134407352Y-86621257D02*
X134359733Y-86716495D01*
X134359733Y-86716495D02*
X134359733Y-86811733D01*
X134359733Y-86811733D02*
X134407352Y-86954590D01*
X134407352Y-86954590D02*
X134978780Y-87526019D01*
X134978780Y-87526019D02*
X134359733Y-87526019D01*
X141442857Y-129279819D02*
X141776190Y-128803628D01*
X142014285Y-129279819D02*
X142014285Y-128279819D01*
X142014285Y-128279819D02*
X141633333Y-128279819D01*
X141633333Y-128279819D02*
X141538095Y-128327438D01*
X141538095Y-128327438D02*
X141490476Y-128375057D01*
X141490476Y-128375057D02*
X141442857Y-128470295D01*
X141442857Y-128470295D02*
X141442857Y-128613152D01*
X141442857Y-128613152D02*
X141490476Y-128708390D01*
X141490476Y-128708390D02*
X141538095Y-128756009D01*
X141538095Y-128756009D02*
X141633333Y-128803628D01*
X141633333Y-128803628D02*
X142014285Y-128803628D01*
X140490476Y-129279819D02*
X141061904Y-129279819D01*
X140776190Y-129279819D02*
X140776190Y-128279819D01*
X140776190Y-128279819D02*
X140871428Y-128422676D01*
X140871428Y-128422676D02*
X140966666Y-128517914D01*
X140966666Y-128517914D02*
X141061904Y-128565533D01*
X139633333Y-128613152D02*
X139633333Y-129279819D01*
X139871428Y-128232200D02*
X140109523Y-128946485D01*
X140109523Y-128946485D02*
X139490476Y-128946485D01*
X166691033Y-119274999D02*
X166357700Y-119041666D01*
X166691033Y-118874999D02*
X165991033Y-118874999D01*
X165991033Y-118874999D02*
X165991033Y-119141666D01*
X165991033Y-119141666D02*
X166024366Y-119208333D01*
X166024366Y-119208333D02*
X166057700Y-119241666D01*
X166057700Y-119241666D02*
X166124366Y-119274999D01*
X166124366Y-119274999D02*
X166224366Y-119274999D01*
X166224366Y-119274999D02*
X166291033Y-119241666D01*
X166291033Y-119241666D02*
X166324366Y-119208333D01*
X166324366Y-119208333D02*
X166357700Y-119141666D01*
X166357700Y-119141666D02*
X166357700Y-118874999D01*
X166057700Y-119541666D02*
X166024366Y-119574999D01*
X166024366Y-119574999D02*
X165991033Y-119641666D01*
X165991033Y-119641666D02*
X165991033Y-119808333D01*
X165991033Y-119808333D02*
X166024366Y-119874999D01*
X166024366Y-119874999D02*
X166057700Y-119908333D01*
X166057700Y-119908333D02*
X166124366Y-119941666D01*
X166124366Y-119941666D02*
X166191033Y-119941666D01*
X166191033Y-119941666D02*
X166291033Y-119908333D01*
X166291033Y-119908333D02*
X166691033Y-119508333D01*
X166691033Y-119508333D02*
X166691033Y-119941666D01*
X165991033Y-120375000D02*
X165991033Y-120441666D01*
X165991033Y-120441666D02*
X166024366Y-120508333D01*
X166024366Y-120508333D02*
X166057700Y-120541666D01*
X166057700Y-120541666D02*
X166124366Y-120575000D01*
X166124366Y-120575000D02*
X166257700Y-120608333D01*
X166257700Y-120608333D02*
X166424366Y-120608333D01*
X166424366Y-120608333D02*
X166557700Y-120575000D01*
X166557700Y-120575000D02*
X166624366Y-120541666D01*
X166624366Y-120541666D02*
X166657700Y-120508333D01*
X166657700Y-120508333D02*
X166691033Y-120441666D01*
X166691033Y-120441666D02*
X166691033Y-120375000D01*
X166691033Y-120375000D02*
X166657700Y-120308333D01*
X166657700Y-120308333D02*
X166624366Y-120275000D01*
X166624366Y-120275000D02*
X166557700Y-120241666D01*
X166557700Y-120241666D02*
X166424366Y-120208333D01*
X166424366Y-120208333D02*
X166257700Y-120208333D01*
X166257700Y-120208333D02*
X166124366Y-120241666D01*
X166124366Y-120241666D02*
X166057700Y-120275000D01*
X166057700Y-120275000D02*
X166024366Y-120308333D01*
X166024366Y-120308333D02*
X165991033Y-120375000D01*
X177493514Y-73235409D02*
X177350657Y-73283028D01*
X177350657Y-73283028D02*
X177303038Y-73330647D01*
X177303038Y-73330647D02*
X177255419Y-73425885D01*
X177255419Y-73425885D02*
X177255419Y-73568742D01*
X177255419Y-73568742D02*
X177303038Y-73663980D01*
X177303038Y-73663980D02*
X177350657Y-73711600D01*
X177350657Y-73711600D02*
X177445895Y-73759219D01*
X177445895Y-73759219D02*
X177826847Y-73759219D01*
X177826847Y-73759219D02*
X177826847Y-72759219D01*
X177826847Y-72759219D02*
X177493514Y-72759219D01*
X177493514Y-72759219D02*
X177398276Y-72806838D01*
X177398276Y-72806838D02*
X177350657Y-72854457D01*
X177350657Y-72854457D02*
X177303038Y-72949695D01*
X177303038Y-72949695D02*
X177303038Y-73044933D01*
X177303038Y-73044933D02*
X177350657Y-73140171D01*
X177350657Y-73140171D02*
X177398276Y-73187790D01*
X177398276Y-73187790D02*
X177493514Y-73235409D01*
X177493514Y-73235409D02*
X177826847Y-73235409D01*
X176969704Y-72759219D02*
X176398276Y-72759219D01*
X176683990Y-73759219D02*
X176683990Y-72759219D01*
X175541133Y-73759219D02*
X176112561Y-73759219D01*
X175826847Y-73759219D02*
X175826847Y-72759219D01*
X175826847Y-72759219D02*
X175922085Y-72902076D01*
X175922085Y-72902076D02*
X176017323Y-72997314D01*
X176017323Y-72997314D02*
X176112561Y-73044933D01*
X180067295Y-74999914D02*
X179686342Y-74733247D01*
X180067295Y-74542771D02*
X179267295Y-74542771D01*
X179267295Y-74542771D02*
X179267295Y-74847533D01*
X179267295Y-74847533D02*
X179305390Y-74923723D01*
X179305390Y-74923723D02*
X179343485Y-74961818D01*
X179343485Y-74961818D02*
X179419676Y-74999914D01*
X179419676Y-74999914D02*
X179533961Y-74999914D01*
X179533961Y-74999914D02*
X179610152Y-74961818D01*
X179610152Y-74961818D02*
X179648247Y-74923723D01*
X179648247Y-74923723D02*
X179686342Y-74847533D01*
X179686342Y-74847533D02*
X179686342Y-74542771D01*
X180067295Y-75761818D02*
X180067295Y-75304675D01*
X180067295Y-75533247D02*
X179267295Y-75533247D01*
X179267295Y-75533247D02*
X179381580Y-75457056D01*
X179381580Y-75457056D02*
X179457771Y-75380866D01*
X179457771Y-75380866D02*
X179495866Y-75304675D01*
X179267295Y-76028485D02*
X179267295Y-76561819D01*
X179267295Y-76561819D02*
X180067295Y-76218961D01*
D17*
%TO.C,J1*%
X165570000Y-127725000D02*
X165570000Y-126025000D01*
X156230000Y-127725000D02*
X156230000Y-126025000D01*
D18*
%TO.C,MK2*%
X153762256Y-104344738D02*
X151287383Y-101869865D01*
X151287383Y-101869865D02*
X153161216Y-99996032D01*
X155636089Y-102470905D02*
X153762256Y-104344738D01*
X153161216Y-99996032D02*
X155636089Y-102470905D01*
D11*
X153287732Y-104353577D02*
G75*
G02*
X153087732Y-104353577I-100000J0D01*
G01*
X153087732Y-104353577D02*
G75*
G02*
X153287732Y-104353577I100000J0D01*
G01*
D17*
%TO.C,R23*%
X150918633Y-104151920D02*
X150549166Y-104521387D01*
X151958080Y-105191367D02*
X151588613Y-105560834D01*
%TO.C,C12*%
X149463746Y-99960000D02*
X149986252Y-99960000D01*
X149463746Y-98490000D02*
X149986252Y-98490000D01*
D10*
%TO.C,U5*%
X193499201Y-88060000D02*
X183399200Y-88060000D01*
X183399200Y-78360000D01*
X193499200Y-78360000D01*
X193499201Y-88060000D01*
D17*
%TO.C,C6*%
X151131250Y-115619999D02*
X150608744Y-115619999D01*
X151131250Y-117089999D02*
X150608744Y-117089999D01*
%TO.C,C10*%
X172068747Y-75215000D02*
X172591253Y-75215000D01*
X172068747Y-76685000D02*
X172591253Y-76685000D01*
%TO.C,JP3*%
X168072918Y-129727817D02*
X168497183Y-130152082D01*
X169062868Y-127747918D02*
X168072918Y-128737868D01*
X169487132Y-130152082D02*
X170477082Y-129162132D01*
X170477082Y-128172183D02*
X170052817Y-127747918D01*
X168072918Y-129727817D02*
G75*
G02*
X168072918Y-128737868I494975J494974D01*
G01*
X169062868Y-127747918D02*
G75*
G02*
X170052818Y-127747917I494975J-494974D01*
G01*
X169487132Y-130152082D02*
G75*
G02*
X168497183Y-130152083I-494975J494975D01*
G01*
X170477082Y-128172183D02*
G75*
G02*
X170477082Y-129162131I-494974J-494974D01*
G01*
%TO.C,R19*%
X165096253Y-108065000D02*
X164573747Y-108065000D01*
X165096253Y-109535000D02*
X164573747Y-109535000D01*
%TO.C,U3*%
X145551698Y-124442418D02*
X145887574Y-124778294D01*
X145887574Y-124106542D02*
X145551698Y-124442418D01*
X147492706Y-126383426D02*
X147828582Y-126719302D01*
X147828582Y-122165534D02*
X147492706Y-122501410D01*
X147828582Y-126719302D02*
X148164458Y-126383426D01*
X148164458Y-122501410D02*
X147828582Y-122165534D01*
X149769590Y-124778294D02*
X150105466Y-124442418D01*
X150105466Y-124442418D02*
X149769590Y-124106542D01*
X146782064Y-126889007D02*
X146442653Y-126549596D01*
X146845704Y-126485957D01*
X146782064Y-126889007D01*
G36*
X146782064Y-126889007D02*
G01*
X146442653Y-126549596D01*
X146845704Y-126485957D01*
X146782064Y-126889007D01*
G37*
%TO.C,C8*%
X150638747Y-117719999D02*
X151161253Y-117719999D01*
X150638747Y-119189999D02*
X151161253Y-119189999D01*
%TO.C,JP1*%
X161524999Y-116949999D02*
X161524999Y-117550001D01*
X162224999Y-118250000D02*
X163624999Y-118250000D01*
X163624999Y-116250000D02*
X162224999Y-116250000D01*
X164324999Y-117550001D02*
X164324999Y-116949999D01*
X161524999Y-116949999D02*
G75*
G02*
X162224999Y-116250000I700000J-1D01*
G01*
X162224999Y-118250000D02*
G75*
G02*
X161524999Y-117550001I0J700000D01*
G01*
X163624999Y-116250000D02*
G75*
G02*
X164324999Y-116949999I1J-699999D01*
G01*
X164324999Y-117550001D02*
G75*
G02*
X163624999Y-118250000I-699999J0D01*
G01*
%TO.C,TH1*%
X172507064Y-88925000D02*
X172052936Y-88925000D01*
X172507064Y-90395000D02*
X172052936Y-90395000D01*
%TO.C,R5*%
X154719563Y-121310000D02*
X154265435Y-121310000D01*
X154719563Y-122780000D02*
X154265435Y-122780000D01*
%TO.C,R4*%
X161165436Y-121310000D02*
X161619564Y-121310000D01*
X161165436Y-122780000D02*
X161619564Y-122780000D01*
%TO.C,C7*%
X151131249Y-113589999D02*
X150608743Y-113589999D01*
X151131249Y-115059999D02*
X150608743Y-115059999D01*
%TO.C,D4*%
X180980000Y-82128748D02*
X180980000Y-82651254D01*
X182450000Y-82128748D02*
X182450000Y-82651254D01*
%TO.C,R13*%
X142211247Y-124445000D02*
X142733753Y-124445000D01*
X142211247Y-125915000D02*
X142733753Y-125915000D01*
%TO.C,C1*%
X157774999Y-99921250D02*
X157774999Y-99398744D01*
X159244999Y-99921250D02*
X159244999Y-99398744D01*
%TO.C,R11*%
X148515000Y-108401247D02*
X148515000Y-108923753D01*
X149985000Y-108401247D02*
X149985000Y-108923753D01*
%TO.C,U1*%
X153450000Y-90899996D02*
X153450000Y-92159995D01*
X153450000Y-97719996D02*
X153450000Y-96459997D01*
X157210000Y-90899995D02*
X153450000Y-90899996D01*
X157210000Y-97719997D02*
X153450000Y-97719996D01*
X158490000Y-90999996D02*
X158250000Y-90669996D01*
X158730000Y-90669996D01*
X158490000Y-90999996D01*
G36*
X158490000Y-90999996D02*
G01*
X158250000Y-90669996D01*
X158730000Y-90669996D01*
X158490000Y-90999996D01*
G37*
%TO.C,C3*%
X160665000Y-103688748D02*
X160665000Y-104211254D01*
X162135000Y-103688748D02*
X162135000Y-104211254D01*
%TO.C,D2*%
X163846716Y-82614071D02*
X165869041Y-84636396D01*
X164511396Y-85994041D02*
X162489071Y-83971716D01*
X165869041Y-84636396D02*
X164511396Y-85994041D01*
%TO.C,C9*%
X154658747Y-117699999D02*
X155181253Y-117699999D01*
X154658747Y-119169999D02*
X155181253Y-119169999D01*
D13*
%TO.C,U8*%
X128710000Y-93480000D02*
X128710000Y-109980000D01*
X128710000Y-109980000D02*
X129460000Y-109980000D01*
X129460000Y-93480000D02*
X128710000Y-93480000D01*
X145460000Y-93480000D02*
X146210000Y-93480000D01*
X146210000Y-93480000D02*
X146210000Y-109980000D01*
X146210000Y-109980000D02*
X145460000Y-109980000D01*
D17*
X129460000Y-93180000D02*
X128959999Y-93180000D01*
X129460000Y-92680000D01*
X129460000Y-93180000D01*
G36*
X129460000Y-93180000D02*
G01*
X128959999Y-93180000D01*
X129460000Y-92680000D01*
X129460000Y-93180000D01*
G37*
%TO.C,R9*%
X162138747Y-106065000D02*
X162661253Y-106065000D01*
X162138747Y-107535000D02*
X162661253Y-107535000D01*
%TO.C,U2*%
X167530000Y-106220000D02*
X167530000Y-107720000D01*
X167530000Y-106220000D02*
X168530000Y-106220001D01*
X167530000Y-124620000D02*
X167530000Y-123120000D01*
X168530000Y-124619999D02*
X167530000Y-124620000D01*
X193380000Y-106220000D02*
X187180000Y-106220000D01*
X193380000Y-124620000D02*
X187180000Y-124620000D01*
X193380000Y-124620000D02*
X193380000Y-106220000D01*
X186505000Y-125120000D02*
X186505000Y-124620000D01*
X187005000Y-124620000D01*
X186505000Y-125120000D01*
G36*
X186505000Y-125120000D02*
G01*
X186505000Y-124620000D01*
X187005000Y-124620000D01*
X186505000Y-125120000D01*
G37*
%TO.C,C2*%
X162075000Y-93758748D02*
X162075000Y-94281254D01*
X163545000Y-93758748D02*
X163545000Y-94281254D01*
%TO.C,D74*%
X165288746Y-104065000D02*
X165811252Y-104065000D01*
X165288746Y-105535000D02*
X165811252Y-105535000D01*
%TO.C,D5*%
X178890000Y-82158748D02*
X178890000Y-82681254D01*
X180360000Y-82158748D02*
X180360000Y-82681254D01*
%TO.C,C5*%
X154708746Y-105899999D02*
X155231252Y-105899999D01*
X154708746Y-107369999D02*
X155231252Y-107369999D01*
D18*
%TO.C,U6*%
X153480000Y-108954999D02*
X154230000Y-108954999D01*
X153480000Y-109704999D02*
X153480000Y-108954999D01*
X153480000Y-113954999D02*
X153480000Y-113204999D01*
X154230000Y-113954999D02*
X153480000Y-113954999D01*
X158126450Y-113954999D02*
X157730000Y-113954999D01*
X158480000Y-108954999D02*
X157730000Y-108954999D01*
X158480000Y-109704999D02*
X158480000Y-108954999D01*
X158480000Y-113204999D02*
X158480000Y-113601449D01*
X158480000Y-113601449D02*
X158126450Y-113954999D01*
X158480000Y-114454999D02*
G75*
G02*
X157980000Y-114454999I-250000J0D01*
G01*
X157980000Y-114454999D02*
G75*
G02*
X158480000Y-114454999I250000J0D01*
G01*
D17*
%TO.C,J7*%
X151829999Y-84490001D02*
X153099999Y-84490000D01*
X153099999Y-84490000D02*
X153100000Y-83220000D01*
%TO.C,R10*%
X182131247Y-126825000D02*
X182653753Y-126825000D01*
X182131247Y-128295000D02*
X182653753Y-128295000D01*
%TO.C,R6*%
X160075000Y-93708747D02*
X160075000Y-94231253D01*
X161545000Y-93708747D02*
X161545000Y-94231253D01*
%TO.C,JP2*%
X161474999Y-114599999D02*
X161474999Y-115200001D01*
X162174999Y-115900000D02*
X163574999Y-115900000D01*
X163574999Y-113900000D02*
X162174999Y-113900000D01*
X164274999Y-115200001D02*
X164274999Y-114599999D01*
X161474999Y-114599999D02*
G75*
G02*
X162174999Y-113900000I700000J-1D01*
G01*
X162174999Y-115900000D02*
G75*
G02*
X161474999Y-115200001I0J700000D01*
G01*
X163574999Y-113900000D02*
G75*
G02*
X164274999Y-114599999I1J-699999D01*
G01*
X164274999Y-115200001D02*
G75*
G02*
X163574999Y-115900000I-699999J0D01*
G01*
%TO.C,D72*%
X158075000Y-117085000D02*
X158075000Y-118545000D01*
X158075000Y-117085000D02*
X159005000Y-117085000D01*
X161235000Y-117085000D02*
X160305000Y-117085000D01*
X161235000Y-117885000D02*
X161235000Y-117085000D01*
X161235000Y-117885000D02*
X161235000Y-118685000D01*
X161595000Y-119425000D02*
X161265000Y-119185000D01*
X161595000Y-118945000D01*
X161595000Y-119425000D01*
G36*
X161595000Y-119425000D02*
G01*
X161265000Y-119185000D01*
X161595000Y-118945000D01*
X161595000Y-119425000D01*
G37*
%TO.C,SW2*%
X176359999Y-127880000D02*
X176359999Y-128180000D01*
X176359999Y-130680000D02*
X176359999Y-130380000D01*
X179659999Y-127880000D02*
X176359999Y-127880000D01*
X179659999Y-128180000D02*
X179659999Y-127880000D01*
X179659999Y-130380000D02*
X179659999Y-130680000D01*
X179659999Y-130680000D02*
X176359999Y-130680000D01*
%TO.C,JP5*%
X168480000Y-83780000D02*
X168480000Y-85180000D01*
X169179999Y-85880000D02*
X169780001Y-85880000D01*
X169780001Y-83080000D02*
X169179999Y-83080000D01*
X170480000Y-85180000D02*
X170480000Y-83780000D01*
X168480000Y-83780000D02*
G75*
G02*
X169179999Y-83080000I700000J0D01*
G01*
X169179999Y-85880000D02*
G75*
G02*
X168480000Y-85180000I0J699999D01*
G01*
X169780001Y-83080000D02*
G75*
G02*
X170480000Y-83780000I-1J-700000D01*
G01*
X170480000Y-85180000D02*
G75*
G02*
X169780001Y-85880000I-699999J-1D01*
G01*
%TO.C,R3*%
X158144564Y-121310000D02*
X157690436Y-121310000D01*
X158144564Y-122780000D02*
X157690436Y-122780000D01*
%TO.C,J6*%
X189550000Y-73052729D02*
X189550000Y-73852729D01*
X189550000Y-75252729D02*
X189550000Y-76052729D01*
X189550000Y-76052729D02*
X189750000Y-76052729D01*
X189750000Y-73052729D02*
X189550000Y-73052729D01*
X192350000Y-76052729D02*
X192550000Y-76052729D01*
X192550000Y-73252729D02*
X192350000Y-73052729D01*
X192550000Y-73852729D02*
X192550000Y-73252729D01*
X192550000Y-73852729D02*
X193050000Y-73852729D01*
X192550000Y-75252729D02*
X193050000Y-75252729D01*
X192550000Y-76052729D02*
X192550000Y-75252729D01*
%TO.C,R21*%
X142636253Y-120365000D02*
X142113747Y-120365000D01*
X142636253Y-121835000D02*
X142113747Y-121835000D01*
%TO.C,C4*%
X182811247Y-128935000D02*
X183333753Y-128935000D01*
X182811247Y-130405000D02*
X183333753Y-130405000D01*
%TO.C,SW1*%
X163200000Y-98750001D02*
X163500000Y-98750001D01*
X163200000Y-102050001D02*
X163200000Y-98750001D01*
X163500000Y-102050001D02*
X163200000Y-102050001D01*
X165700000Y-102050001D02*
X166000000Y-102050001D01*
X166000000Y-98750001D02*
X165700000Y-98750001D01*
X166000000Y-102050001D02*
X166000000Y-98750001D01*
%TO.C,D1*%
X159850000Y-97924999D02*
X161770000Y-97924999D01*
X159850000Y-100784999D02*
X159850000Y-97924999D01*
X161770000Y-97924999D02*
X161770000Y-100784999D01*
D18*
%TO.C,U7*%
X170390000Y-77975000D02*
X174390000Y-77975000D01*
X170390000Y-83075000D02*
X174390000Y-83075000D01*
D11*
X168045000Y-83030000D02*
G75*
G02*
X167845000Y-83030000I-100000J0D01*
G01*
X167845000Y-83030000D02*
G75*
G02*
X168045000Y-83030000I100000J0D01*
G01*
D18*
%TO.C,J3*%
X179449999Y-90750000D02*
X179449999Y-103850000D01*
X182150000Y-90750000D02*
X185050000Y-90750000D01*
X188050000Y-90750000D02*
X190150000Y-90750000D01*
X193500000Y-98174000D02*
X193500001Y-103176000D01*
X193500001Y-91424000D02*
X193500001Y-92426000D01*
D11*
X179100000Y-94920000D02*
G75*
G02*
X178900000Y-94920000I-100000J0D01*
G01*
X178900000Y-94920000D02*
G75*
G02*
X179100000Y-94920000I100000J0D01*
G01*
D17*
%TO.C,C11*%
X168396252Y-75945000D02*
X167873746Y-75945000D01*
X168396252Y-77415000D02*
X167873746Y-77415000D01*
%TO.C,R15*%
X172726247Y-83675000D02*
X173248753Y-83675000D01*
X172726247Y-85145000D02*
X173248753Y-85145000D01*
%TO.C,R7*%
X161446247Y-90335004D02*
X161968753Y-90335004D01*
X161446247Y-91805004D02*
X161968753Y-91805004D01*
%TO.C,R16*%
X166065000Y-83311253D02*
X166065000Y-82788747D01*
X167535000Y-83311253D02*
X167535000Y-82788747D01*
%TO.C,R18*%
X180970000Y-78968753D02*
X180970000Y-78446247D01*
X182440000Y-78968753D02*
X182440000Y-78446247D01*
%TO.C,R22*%
X163845543Y-78915010D02*
X164215010Y-78545543D01*
X164884990Y-79954457D02*
X165254457Y-79584990D01*
%TO.C,R2*%
X165164564Y-121265000D02*
X164710436Y-121265000D01*
X165164564Y-122735000D02*
X164710436Y-122735000D01*
%TO.C,JP4*%
X166800000Y-126200000D02*
X166800000Y-127600000D01*
X167499999Y-128300000D02*
X168100001Y-128300000D01*
X168100001Y-125500000D02*
X167499999Y-125500000D01*
X168800000Y-127600000D02*
X168800000Y-126200000D01*
X166800000Y-126200000D02*
G75*
G02*
X167499999Y-125500000I699999J1D01*
G01*
X167499999Y-128300000D02*
G75*
G02*
X166800000Y-127600000I1J700000D01*
G01*
X168100001Y-125500000D02*
G75*
G02*
X168800000Y-126200000I0J-699999D01*
G01*
X168800000Y-127600000D02*
G75*
G02*
X168100001Y-128300000I-700000J0D01*
G01*
%TO.C,R1*%
X168901247Y-104065000D02*
X169423753Y-104065000D01*
X168901247Y-105535000D02*
X169423753Y-105535000D01*
%TO.C,R8*%
X150615000Y-108401247D02*
X150615000Y-108923753D01*
X152085000Y-108401247D02*
X152085000Y-108923753D01*
%TO.C,J2*%
X129994999Y-90260000D02*
X129994999Y-90460000D01*
X129994999Y-90460000D02*
X130794999Y-90460000D01*
X130194999Y-87460000D02*
X129994999Y-87660000D01*
X130794999Y-87460000D02*
X130194999Y-87460000D01*
X130794999Y-87460000D02*
X130794999Y-86960000D01*
X132194999Y-87460000D02*
X132194999Y-86960000D01*
X132194999Y-90460000D02*
X132994999Y-90460000D01*
X132994999Y-87460000D02*
X132194999Y-87460000D01*
X132994999Y-87660000D02*
X132994999Y-87460000D01*
X132994999Y-90460000D02*
X132994999Y-90260000D01*
%TO.C,R14*%
X144113291Y-128085000D02*
X144635797Y-128085000D01*
X144113291Y-129555000D02*
X144635797Y-129555000D01*
%TO.C,R20*%
X164236253Y-118740000D02*
X163713747Y-118740000D01*
X164236253Y-120210000D02*
X163713747Y-120210000D01*
D18*
%TO.C,BT1*%
X173686200Y-61096200D02*
X173686200Y-70008700D01*
X175523700Y-72426200D02*
X181498700Y-72426200D01*
X183336200Y-61096200D02*
X173686200Y-61096200D01*
X183336200Y-61096200D02*
X183336200Y-70008700D01*
D17*
%TO.C,R17*%
X178870000Y-78958753D02*
X178870000Y-78436247D01*
X180340000Y-78958753D02*
X180340000Y-78436247D01*
%TD*%
M02*
