%TF.GenerationSoftware,KiCad,Pcbnew,9.0.6*%
%TF.CreationDate,2026-03-13T14:17:26+11:00*%
%TF.ProjectId,Cooee_brains,436f6f65-655f-4627-9261-696e732e6b69,rev?*%
%TF.SameCoordinates,Original*%
%TF.FileFunction,Profile,NP*%
%FSLAX46Y46*%
G04 Gerber Fmt 4.6, Leading zero omitted, Abs format (unit mm)*
G04 Created by KiCad (PCBNEW 9.0.6) date 2026-03-13 14:17:26*
%MOMM*%
%LPD*%
G01*
G04 APERTURE LIST*
%TA.AperFunction,Profile*%
%ADD10C,0.050000*%
%TD*%
G04 APERTURE END LIST*
D10*
X127450000Y-87804214D02*
G75*
G02*
X127742886Y-87097100I1000000J14D01*
G01*
X191542893Y-66512893D02*
X193957107Y-68927107D01*
X174118427Y-66220000D02*
X190835786Y-66220000D01*
X190835786Y-66220000D02*
G75*
G02*
X191542879Y-66512907I14J-999900D01*
G01*
X172704214Y-66805786D02*
G75*
G02*
X174118427Y-66219978I1414286J-1414314D01*
G01*
X143858427Y-81410000D02*
X157271573Y-81410000D01*
X139635787Y-84804213D02*
X142444214Y-81995786D01*
X127450000Y-127725786D02*
X127450000Y-87804214D01*
X191192893Y-131197107D02*
G75*
G02*
X190485786Y-131489961I-707093J707207D01*
G01*
X158685787Y-80824213D02*
G75*
G02*
X157271573Y-81409981I-1414187J1414213D01*
G01*
X142444214Y-81995786D02*
G75*
G02*
X143858427Y-81410019I1414186J-1414214D01*
G01*
X127742893Y-128432893D02*
G75*
G02*
X127450039Y-127725786I707207J707093D01*
G01*
X158685787Y-80824213D02*
X172704214Y-66805786D01*
X129157107Y-85682893D02*
G75*
G02*
X129864214Y-85390039I707093J-707207D01*
G01*
X130507107Y-131197107D02*
X129950000Y-130640000D01*
X194250000Y-127725786D02*
G75*
G02*
X193957114Y-128432900I-1000000J-14D01*
G01*
X131214214Y-131490000D02*
G75*
G02*
X130507100Y-131197114I-14J1000000D01*
G01*
X194250000Y-127725786D02*
X194250000Y-69634214D01*
X139635787Y-84804213D02*
G75*
G02*
X138221573Y-85389981I-1414187J1414213D01*
G01*
X127742893Y-87097107D02*
X129157107Y-85682893D01*
X193957107Y-128432893D02*
X191750000Y-130640000D01*
X193957107Y-68927107D02*
G75*
G02*
X194249990Y-69634214I-707107J-707093D01*
G01*
X138221573Y-85390000D02*
X129864214Y-85390000D01*
X131214214Y-131490000D02*
X190480000Y-131490000D01*
X127742893Y-128432893D02*
X129950000Y-130640000D01*
X191192893Y-131197107D02*
X191750000Y-130640000D01*
M02*
