  0
SECTION
  2
HEADER
  9
$ACADVER
  1
AC1027
  9
$ACADMAINTVER
 70
    81
  9
$DWGCODEPAGE
  3
ANSI_1252
  9
$REQUIREDVERSIONS
160
                 0
  9
$INSBASE
 10
0.0
 20
0.0
 30
0.0
  9
$EXTMIN
 10
1.000000000000000E+20
 20
1.000000000000000E+20
 30
1.000000000000000E+20
  9
$EXTMAX
 10
-1.000000000000000E+20
 20
-1.000000000000000E+20
 30
-1.000000000000000E+20
  9
$LIMMIN
 10
0.0
 20
0.0
  9
$LIMMAX
 10
12.0
 20
9.0
  9
$ORTHOMODE
 70
     0
  9
$REGENMODE
 70
     1
  9
$FILLMODE
 70
     1
  9
$QTEXTMODE
 70
     0
  9
$MIRRTEXT
 70
     1
  9
$LTSCALE
 40
1.0
  9
$ATTMODE
 70
     1
  9
$TEXTSIZE
 40
0.2
  9
$TRACEWID
 40
0.05
  9
$TEXTSTYLE
  7
Standard
  9
$CLAYER
  8
0
  9
$CELTYPE
  6
ByLayer
  9
$CECOLOR
 62
   256
  9
$CELTSCALE
 40
1.0
  9
$DISPSILH
 70
     0
  9
$DIMSCALE
 40
1.0
  9
$DIMASZ
 40
0.18
  9
$DIMEXO
 40
0.0625
  9
$DIMDLI
 40
0.38
  9
$DIMRND
 40
0.0
  9
$DIMDLE
 40
0.0
  9
$DIMEXE
 40
0.18
  9
$DIMTP
 40
0.0
  9
$DIMTM
 40
0.0
  9
$DIMTXT
 40
0.18
  9
$DIMCEN
 40
0.09
  9
$DIMTSZ
 40
0.0
  9
$DIMTOL
 70
     0
  9
$DIMLIM
 70
     0
  9
$DIMTIH
 70
     1
  9
$DIMTOH
 70
     1
  9
$DIMSE1
 70
     0
  9
$DIMSE2
 70
     0
  9
$DIMTAD
 70
     0
  9
$DIMZIN
 70
     0
  9
$DIMBLK
  1

  9
$DIMASO
 70
     1
  9
$DIMSHO
 70
     1
  9
$DIMPOST
  1

  9
$DIMAPOST
  1

  9
$DIMALT
 70
     0
  9
$DIMALTD
 70
     2
  9
$DIMALTF
 40
25.4
  9
$DIMLFAC
 40
1.0
  9
$DIMTOFL
 70
     0
  9
$DIMTVP
 40
0.0
  9
$DIMTIX
 70
     0
  9
$DIMSOXD
 70
     0
  9
$DIMSAH
 70
     0
  9
$DIMBLK1
  1

  9
$DIMBLK2
  1

  9
$DIMSTYLE
  2
Standard
  9
$DIMCLRD
 70
     0
  9
$DIMCLRE
 70
     0
  9
$DIMCLRT
 70
     0
  9
$DIMTFAC
 40
1.0
  9
$DIMGAP
 40
0.09
  9
$DIMJUST
 70
     0
  9
$DIMSD1
 70
     0
  9
$DIMSD2
 70
     0
  9
$DIMTOLJ
 70
     1
  9
$DIMTZIN
 70
     0
  9
$DIMALTZ
 70
     0
  9
$DIMALTTZ
 70
     0
  9
$DIMUPT
 70
     0
  9
$DIMDEC
 70
     4
  9
$DIMTDEC
 70
     4
  9
$DIMALTU
 70
     2
  9
$DIMALTTD
 70
     2
  9
$DIMTXSTY
  7
Standard
  9
$DIMAUNIT
 70
     0
  9
$DIMADEC
 70
     0
  9
$DIMALTRND
 40
0.0
  9
$DIMAZIN
 70
     0
  9
$DIMDSEP
 70
    46
  9
$DIMATFIT
 70
     3
  9
$DIMFRAC
 70
     0
  9
$DIMLDRBLK
  1

  9
$DIMLUNIT
 70
     2
  9
$DIMLWD
 70
    -2
  9
$DIMLWE
 70
    -2
  9
$DIMTMOVE
 70
     0
  9
$DIMFXL
 40
1.0
  9
$DIMFXLON
 70
     0
  9
$DIMJOGANG
 40
0.7853981633974483
  9
$DIMTFILL
 70
     0
  9
$DIMTFILLCLR
 70
     0
  9
$DIMARCSYM
 70
     0
  9
$DIMLTYPE
  6

  9
$DIMLTEX1
  6

  9
$DIMLTEX2
  6

  9
$DIMTXTDIRECTION
 70
     0
  9
$LUNITS
 70
     2
  9
$LUPREC
 70
     4
  9
$SKETCHINC
 40
0.1
  9
$FILLETRAD
 40
0.5
  9
$AUNITS
 70
     0
  9
$AUPREC
 70
     0
  9
$MENU
  1
.
  9
$ELEVATION
 40
0.0
  9
$PELEVATION
 40
0.0
  9
$THICKNESS
 40
0.0
  9
$LIMCHECK
 70
     0
  9
$CHAMFERA
 40
0.5
  9
$CHAMFERB
 40
0.5
  9
$CHAMFERC
 40
1.0
  9
$CHAMFERD
 40
0.0
  9
$SKPOLY
 70
     0
  9
$TDCREATE
 40
2451381.263765729
  9
$TDUCREATE
 40
2451380.805432396
  9
$TDUPDATE
 40
2451381.299513889
  9
$TDUUPDATE
 40
2451380.841180556
  9
$TDINDWG
 40
0.0075622338
  9
$TDUSRTIMER
 40
0.0075531944
  9
$USRTIMER
 70
     1
  9
$ANGBASE
 50
0.0
  9
$ANGDIR
 70
     0
  9
$PDMODE
 70
     0
  9
$PDSIZE
 40
0.0
  9
$PLINEWID
 40
0.0
  9
$SPLFRAME
 70
     0
  9
$SPLINETYPE
 70
     6
  9
$SPLINESEGS
 70
     8
  9
$HANDSEED
  5
10A
  9
$SURFTAB1
 70
     6
  9
$SURFTAB2
 70
     6
  9
$SURFTYPE
 70
     6
  9
$SURFU
 70
     6
  9
$SURFV
 70
     6
  9
$UCSBASE
  2

  9
$UCSNAME
  2

  9
$UCSORG
 10
0.0
 20
0.0
 30
0.0
  9
$UCSXDIR
 10
1.0
 20
0.0
 30
0.0
  9
$UCSYDIR
 10
0.0
 20
1.0
 30
0.0
  9
$UCSORTHOREF
  2

  9
$UCSORTHOVIEW
 70
     0
  9
$UCSORGTOP
 10
0.0
 20
0.0
 30
0.0
  9
$UCSORGBOTTOM
 10
0.0
 20
0.0
 30
0.0
  9
$UCSORGLEFT
 10
0.0
 20
0.0
 30
0.0
  9
$UCSORGRIGHT
 10
0.0
 20
0.0
 30
0.0
  9
$UCSORGFRONT
 10
0.0
 20
0.0
 30
0.0
  9
$UCSORGBACK
 10
0.0
 20
0.0
 30
0.0
  9
$PUCSBASE
  2

  9
$PUCSNAME
  2

  9
$PUCSORG
 10
0.0
 20
0.0
 30
0.0
  9
$PUCSXDIR
 10
1.0
 20
0.0
 30
0.0
  9
$PUCSYDIR
 10
0.0
 20
1.0
 30
0.0
  9
$PUCSORTHOREF
  2

  9
$PUCSORTHOVIEW
 70
     0
  9
$PUCSORGTOP
 10
0.0
 20
0.0
 30
0.0
  9
$PUCSORGBOTTOM
 10
0.0
 20
0.0
 30
0.0
  9
$PUCSORGLEFT
 10
0.0
 20
0.0
 30
0.0
  9
$PUCSORGRIGHT
 10
0.0
 20
0.0
 30
0.0
  9
$PUCSORGFRONT
 10
0.0
 20
0.0
 30
0.0
  9
$PUCSORGBACK
 10
0.0
 20
0.0
 30
0.0
  9
$USERI1
 70
     0
  9
$USERI2
 70
     0
  9
$USERI3
 70
     0
  9
$USERI4
 70
     0
  9
$USERI5
 70
     0
  9
$USERR1
 40
0.0
  9
$USERR2
 40
0.0
  9
$USERR3
 40
0.0
  9
$USERR4
 40
0.0
  9
$USERR5
 40
0.0
  9
$WORLDVIEW
 70
     1
  9
$SHADEDGE
 70
     3
  9
$SHADEDIF
 70
    70
  9
$TILEMODE
 70
     1
  9
$MAXACTVP
 70
    64
  9
$PINSBASE
 10
0.0
 20
0.0
 30
0.0
  9
$PLIMCHECK
 70
     0
  9
$PEXTMIN
 10
1.000000000000000E+20
 20
1.000000000000000E+20
 30
1.000000000000000E+20
  9
$PEXTMAX
 10
-1.000000000000000E+20
 20
-1.000000000000000E+20
 30
-1.000000000000000E+20
  9
$PLIMMIN
 10
0.0
 20
0.0
  9
$PLIMMAX
 10
12.0
 20
9.0
  9
$UNITMODE
 70
     0
  9
$VISRETAIN
 70
     1
  9
$PLINEGEN
 70
     0
  9
$PSLTSCALE
 70
     1
  9
$TREEDEPTH
 70
  3020
  9
$CMLSTYLE
  2
Standard
  9
$CMLJUST
 70
     0
  9
$CMLSCALE
 40
1.0
  9
$PROXYGRAPHICS
 70
     1
  9
$MEASUREMENT
 70
     1
  9
$CELWEIGHT
370
    -1
  9
$ENDCAPS
280
     0
  9
$JOINSTYLE
280
     0
  9
$LWDISPLAY
290
     0
  9
$INSUNITS
 70
     5
  9
$HYPERLINKBASE
  1

  9
$STYLESHEET
  1

  9
$XEDIT
290
     1
  9
$CEPSNTYPE
380
     0
  9
$PSTYLEMODE
290
     1
  9
$FINGERPRINTGUID
  2
{12F50282-3ED8-11D3-A8B7-0060B0F84BC6}
  9
$VERSIONGUID
  2
{12F50293-3ED8-11D3-A8B7-0060B0F84BC6}
  9
$EXTNAMES
290
     1
  9
$PSVPSCALE
 40
0.0
  9
$OLESTARTUP
290
     0
  9
$SORTENTS
280
   127
  9
$INDEXCTL
280
     0
  9
$HIDETEXT
280
     0
  9
$XCLIPFRAME
280
     2
  9
$HALOGAP
280
     0
  9
$OBSCOLOR
 70
   257
  9
$OBSLTYPE
280
     0
  9
$INTERSECTIONDISPLAY
280
     0
  9
$INTERSECTIONCOLOR
 70
   257
  9
$DIMASSOC
280
     1
  9
$PROJECTNAME
  1

  9
$CAMERADISPLAY
290
     0
  9
$LENSLENGTH
 40
50.0
  9
$CAMERAHEIGHT
 40
0.0
  9
$STEPSPERSEC
 40
2.0
  9
$STEPSIZE
 40
6.0
  9
$3DDWFPREC
 40
2.0
  9
$PSOLWIDTH
 40
0.25
  9
$PSOLHEIGHT
 40
4.0
  9
$LOFTANG1
 40
1.570796326794896
  9
$LOFTANG2
 40
1.570796326794896
  9
$LOFTMAG1
 40
0.0
  9
$LOFTMAG2
 40
0.0
  9
$LOFTPARAM
 70
     7
  9
$LOFTNORMALS
280
     1
  9
$LATITUDE
 40
37.795
  9
$LONGITUDE
 40
-122.394
  9
$NORTHDIRECTION
 40
0.0
  9
$TIMEZONE
 70
 -8000
  9
$LIGHTGLYPHDISPLAY
280
     1
  9
$TILEMODELIGHTSYNCH
280
     1
  9
$CMATERIAL
347
AB
  9
$SOLIDHIST
280
     0
  9
$SHOWHIST
280
     1
  9
$DWFFRAME
280
     2
  9
$DGNFRAME
280
     0
  9
$REALWORLDSCALE
290
     1
  9
$INTERFERECOLOR
 62
     1
  9
$INTERFEREOBJVS
345
CD
  9
$INTERFEREVPVS
346
CA
  9
$CSHADOW
280
     0
  9
$SHADOWPLANELOCATION
 40
0.0
  0
ENDSEC
  0
SECTION
  2
CLASSES
  0
CLASS
  1
ACDBDICTIONARYWDFLT
  2
AcDbDictionaryWithDefault
  3
ObjectDBX Classes
 90
        0
 91
        1
280
     0
281
     0
  0
CLASS
  1
ACDBPLACEHOLDER
  2
AcDbPlaceHolder
  3
ObjectDBX Classes
 90
        0
 91
        2
280
     0
281
     0
  0
CLASS
  1
LAYOUT
  2
AcDbLayout
  3
ObjectDBX Classes
 90
        0
 91
        3
280
     0
281
     0
  0
CLASS
  1
MATERIAL
  2
AcDbMaterial
  3
ObjectDBX Classes
 90
     1153
 91
        3
280
     0
281
     0
  0
CLASS
  1
VISUALSTYLE
  2
AcDbVisualStyle
  3
ObjectDBX Classes
 90
     4095
 91
       24
280
     0
281
     0
  0
CLASS
  1
TABLESTYLE
  2
AcDbTableStyle
  3
ObjectDBX Classes
 90
     4095
 91
        1
280
     0
281
     0
  0
CLASS
  1
SCALE
  2
AcDbScale
  3
ObjectDBX Classes
 90
     1153
 91
       17
280
     0
281
     0
  0
CLASS
  1
MLEADERSTYLE
  2
AcDbMLeaderStyle
  3
ACDB_MLEADERSTYLE_CLASS
 90
     4095
 91
        1
280
     0
281
     0
  0
CLASS
  1
ACDBSECTIONVIEWSTYLE
  2
AcDbSectionViewStyle
  3
ObjectDBX Classes
 90
     1025
 91
        1
280
     0
281
     0
  0
CLASS
  1
ACDBDETAILVIEWSTYLE
  2
AcDbDetailViewStyle
  3
ObjectDBX Classes
 90
     1025
 91
        1
280
     0
281
     0
  0
CLASS
  1
MESH
  2
AcDbSubDMesh
  3
ObjectDBX Classes
 90
        0
 91
        1
280
     0
281
     1
  0
CLASS
  1
DICTIONARYVAR
  2
AcDbDictionaryVar
  3
ObjectDBX Classes
 90
        0
 91
        9
280
     0
281
     0
  0
CLASS
  1
CELLSTYLEMAP
  2
AcDbCellStyleMap
  3
ObjectDBX Classes
 90
     1152
 91
        1
280
     0
281
     0
  0
ENDSEC
  0
SECTION
  2
TABLES
  0
TABLE
  2
VPORT
  5
8
330
0
100
AcDbSymbolTable
 70
     1
  0
VPORT
  5
A8
330
8
100
AcDbSymbolTableRecord
100
AcDbViewportTableRecord
  2
*Active
 70
     0
 10
0.0
 20
0.0
 11
1.0
 21
1.0
 12
64.93125915527343
 22
40.5556526184082
 13
0.0
 23
0.0
 14
0.5
 24
0.5
 15
0.5
 25
0.5
 16
-1.0
 26
-1.0
 36
1.0
 17
0.0
 27
0.0
 37
0.0
 40
63.83635139302453
 41
1.704918135258964
 42
50.0
 43
0.0
 44
0.0
 50
0.0
 51
0.0
 71
     0
 72
   100
 73
     1
 74
     3
 75
     0
 76
     0
 77
     0
 78
     0
281
     0
 65
     1
110
0.0
120
0.0
130
0.0
111
1.0
121
0.0
131
0.0
112
0.0
122
1.0
132
0.0
 79
     0
146
0.0
348
C9
 60
     3
 61
     5
292
     1
282
     1
141
0.0
142
0.0
 63
   250
421
  3355443
  0
ENDTAB
  0
TABLE
  2
LTYPE
  5
5
330
0
100
AcDbSymbolTable
 70
     1
  0
LTYPE
  5
14
330
5
100
AcDbSymbolTableRecord
100
AcDbLinetypeTableRecord
  2
ByBlock
 70
     0
  3

 72
    65
 73
     0
 40
0.0
  0
LTYPE
  5
15
330
5
100
AcDbSymbolTableRecord
100
AcDbLinetypeTableRecord
  2
ByLayer
 70
     0
  3

 72
    65
 73
     0
 40
0.0
  0
LTYPE
  5
16
330
5
100
AcDbSymbolTableRecord
100
AcDbLinetypeTableRecord
  2
Continuous
 70
     0
  3
Solid line
 72
    65
 73
     0
 40
0.0
  0
ENDTAB
  0
TABLE
  2
LAYER
  5
2
330
0
100
AcDbSymbolTable
 70
     2
  0
LAYER
  5
10
330
2
100
AcDbSymbolTableRecord
100
AcDbLayerTableRecord
  2
0
 70
     0
 62
   176
420
   526472
  6
Continuous
370
    -3
390
F
347
BB
348
0
  0
LAYER
  5
2B
330
2
100
AcDbSymbolTableRecord
100
AcDbLayerTableRecord
  2
ASHADE
 70
     4
 62
     7
  6
Continuous
370
    -3
390
2D
347
BB
348
0
  0
ENDTAB
  0
TABLE
  2
STYLE
  5
3
330
0
100
AcDbSymbolTable
 70
     2
  0
STYLE
  5
11
330
3
100
AcDbSymbolTableRecord
100
AcDbTextStyleTableRecord
  2
Standard
 70
     0
 40
0.0
 41
1.0
 50
0.0
 71
     0
 42
0.2
  3
txt
  4

  0
STYLE
  5
2C
330
3
100
AcDbSymbolTableRecord
100
AcDbTextStyleTableRecord
  2
ASHADE
 70
     0
 40
0.2
 41
1.0
 50
0.0
 71
     0
 42
0.2
  3
simplex
  4

  0
ENDTAB
  0
TABLE
  2
VIEW
  5
6
330
0
100
AcDbSymbolTable
 70
     0
  0
ENDTAB
  0
TABLE
  2
UCS
  5
7
330
0
100
AcDbSymbolTable
 70
     0
  0
ENDTAB
  0
TABLE
  2
APPID
  5
9
330
0
100
AcDbSymbolTable
 70
     6
  0
APPID
  5
12
330
9
100
AcDbSymbolTableRecord
100
AcDbRegAppTableRecord
  2
ACAD
 70
     0
  0
APPID
  5
8F
330
9
100
AcDbSymbolTableRecord
100
AcDbRegAppTableRecord
  2
AVE_RENDER
 70
     0
  0
APPID
  5
90
330
9
100
AcDbSymbolTableRecord
100
AcDbRegAppTableRecord
  2
AVE_ENTITY_MATERIAL
 70
     0
  0
APPID
  5
9C
330
9
100
AcDbSymbolTableRecord
100
AcDbRegAppTableRecord
  2
AVE_FINISH
 70
     0
  0
APPID
  5
9D
330
9
100
AcDbSymbolTableRecord
100
AcDbRegAppTableRecord
  2
AVE_MATERIAL
 70
     0
  0
APPID
  5
9E
330
9
100
AcDbSymbolTableRecord
100
AcDbRegAppTableRecord
  2
AVE_GLOBAL
 70
     0
  0
ENDTAB
  0
TABLE
  2
DIMSTYLE
  5
A
330
0
100
AcDbSymbolTable
 70
     1
100
AcDbDimStyleTable
 71
     0
  0
DIMSTYLE
105
27
330
A
100
AcDbSymbolTableRecord
100
AcDbDimStyleTableRecord
  2
Standard
 70
     0
340
11
  0
ENDTAB
  0
TABLE
  2
BLOCK_RECORD
  5
1
330
0
100
AcDbSymbolTable
 70
     6
  0
BLOCK_RECORD
  5
1F
330
1
100
AcDbSymbolTableRecord
100
AcDbBlockTableRecord
  2
*Model_Space
340
22
 70
     0
280
     1
281
     0
  0
BLOCK_RECORD
  5
1B
330
1
100
AcDbSymbolTableRecord
100
AcDbBlockTableRecord
  2
*Paper_Space
340
1E
 70
     0
280
     1
281
     0
  0
BLOCK_RECORD
  5
23
330
1
100
AcDbSymbolTableRecord
100
AcDbBlockTableRecord
  2
*Paper_Space0
340
26
 70
     0
280
     1
281
     0
  0
BLOCK_RECORD
  5
2E
330
1
100
AcDbSymbolTableRecord
100
AcDbBlockTableRecord
  2
direct
340
0
 70
     0
280
     1
281
     0
  0
BLOCK_RECORD
  5
42
330
1
100
AcDbSymbolTableRecord
100
AcDbBlockTableRecord
  2
overhead
340
0
 70
     0
280
     1
281
     0
  0
BLOCK_RECORD
  5
5F
330
1
100
AcDbSymbolTableRecord
100
AcDbBlockTableRecord
  2
sh_spot
340
0
 70
     0
280
     1
281
     0
  0
BLOCK_RECORD
  5
91
330
1
100
AcDbSymbolTableRecord
100
AcDbBlockTableRecord
  2
AVE_RENDER
340
0
102
{BLKREFS
331
94
331
95
331
96
331
97
331
98
331
99
331
9A
331
9B
102
}
 70
     0
280
     1
281
     0
  0
BLOCK_RECORD
  5
9F
330
1
100
AcDbSymbolTableRecord
100
AcDbBlockTableRecord
  2
AVE_GLOBAL
340
0
102
{BLKREFS
331
A2
102
}
 70
     0
280
     1
281
     0
  0
ENDTAB
  0
ENDSEC
  0
SECTION
  2
BLOCKS
  0
BLOCK
  5
20
330
1F
100
AcDbEntity
  8
0
100
AcDbBlockBegin
  2
*Model_Space
 70
     0
 10
0.0
 20
0.0
 30
0.0
  3
*Model_Space
  1

  0
ENDBLK
  5
21
330
1F
100
AcDbEntity
  8
0
100
AcDbBlockEnd
  0
BLOCK
  5
1C
330
1B
100
AcDbEntity
 67
     1
  8
0
100
AcDbBlockBegin
  2
*Paper_Space
 70
     0
 10
0.0
 20
0.0
 30
0.0
  3
*Paper_Space
  1

  0
ENDBLK
  5
1D
330
1B
100
AcDbEntity
 67
     1
  8
0
100
AcDbBlockEnd
  0
BLOCK
  5
24
330
23
100
AcDbEntity
 67
     1
  8
0
100
AcDbBlockBegin
  2
*Paper_Space0
 70
     0
 10
0.0
 20
0.0
 30
0.0
  3
*Paper_Space0
  1

  0
ENDBLK
  5
25
330
23
100
AcDbEntity
 67
     1
  8
0
100
AcDbBlockEnd
  0
BLOCK
  5
40
330
2E
100
AcDbEntity
  8
0
100
AcDbBlockBegin
  2
direct
 70
     2
 10
0.0
 20
0.0
 30
0.0
  3
direct
  1

  0
ATTDEF
  5
2F
330
2E
100
AcDbEntity
  8
ASHADE
  6
Continuous
 62
     1
100
AcDbText
 10
0.0
 20
-0.1
 30
0.0
 40
0.2
  1

  7
ASHADE
 72
     1
 11
0.0
 21
-0.1
 31
0.0
100
AcDbAttributeDefinition
280
     0
  3
Light Name
  2
SNAME
 70
     0
280
     0
  0
ARC
  5
30
330
2E
100
AcDbEntity
  8
ASHADE
  6
Continuous
 62
     7
100
AcDbCircle
 10
0.0
 20
0.0
 30
0.0
 40
0.3
100
AcDbArc
 50
205.6792886194569
 51
334.3207113805431
  0
ARC
  5
31
330
2E
100
AcDbEntity
  8
ASHADE
  6
Continuous
 62
     7
100
AcDbCircle
 10
0.0
 20
0.0
 30
0.0
 40
0.3
100
AcDbArc
 50
25.67928861945685
 51
154.3207113805431
  0
LINE
  5
32
330
2E
100
AcDbEntity
  8
ASHADE
  6
Continuous
 62
     7
100
AcDbLine
 10
-0.21
 20
0.2142428528562855
 30
0.0
 11
-0.21
 21
0.5
 31
0.0
  0
LINE
  5
33
330
2E
100
AcDbEntity
  8
ASHADE
  6
Continuous
 62
     7
100
AcDbLine
 10
-0.11
 20
0.2791057147390572
 30
0.0
 11
-0.11
 21
0.5
 31
0.0
  0
LINE
  5
34
330
2E
100
AcDbEntity
  8
ASHADE
  6
Continuous
 62
     7
100
AcDbLine
 10
0.21
 20
0.2142428528562855
 30
0.0
 11
0.21
 21
0.5
 31
0.0
  0
ATTDEF
  5
35
330
2E
100
AcDbEntity
  8
ASHADE
  6
Continuous
 62
     7
100
AcDbText
 10
0.0
 20
0.25
 30
0.0
 40
0.01
  1

100
AcDbAttributeDefinition
280
     0
  3
Look-at Y
  2
LAY
 70
     1
280
     0
  0
ATTDEF
  5
36
330
2E
100
AcDbEntity
  8
ASHADE
  6
Continuous
 62
     7
100
AcDbText
 10
0.0
 20
0.22
 30
0.0
 40
0.01
  1
1
100
AcDbAttributeDefinition
280
     0
  3
Light Intensity
  2
INTENSITY
 70
     1
280
     0
  0
ATTDEF
  5
37
330
2E
100
AcDbEntity
  8
ASHADE
  6
Continuous
 62
     7
100
AcDbText
 10
0.0
 20
0.16
 30
0.0
 40
0.01
  1
-1
100
AcDbAttributeDefinition
280
     0
  3
*not used*
  2
BEAMD
 70
     1
280
     0
  0
ATTDEF
  5
38
330
2E
100
AcDbEntity
  8
ASHADE
  6
Continuous
 62
     7
100
AcDbText
 10
0.0
 20
0.175
 30
0.0
 40
0.01
  1
-1
100
AcDbAttributeDefinition
280
     0
  3
*not used*
  2
CONED
 70
     1
280
     0
  0
ATTDEF
  5
39
330
2E
100
AcDbEntity
  8
ASHADE
  6
Continuous
 62
     7
100
AcDbText
 10
0.0
 20
0.19
 30
0.0
 40
0.01
  1
0
100
AcDbAttributeDefinition
280
     0
  3
Depth Map Size
  2
CONEA
 70
     1
280
     0
  0
ATTDEF
  5
3A
330
2E
100
AcDbEntity
  8
ASHADE
  6
Continuous
 62
     7
100
AcDbText
 10
0.0
 20
0.2050000000000001
 30
0.0
 40
0.01
  1
1,1,1
100
AcDbAttributeDefinition
280
     0
  3
Light Color (RGB)
  2
COLOR
 70
     1
280
     0
  0
ATTDEF
  5
3B
330
2E
100
AcDbEntity
  8
ASHADE
  6
Continuous
 62
     7
100
AcDbText
 10
0.0
 20
0.235
 30
0.0
 40
0.01
  1

100
AcDbAttributeDefinition
280
     0
  3
Look-at Z
  2
LAZ
 70
     1
280
     0
  0
LINE
  5
3C
330
2E
100
AcDbEntity
  8
ASHADE
  6
Continuous
 62
     7
100
AcDbLine
 10
0.0
 20
0.3
 30
0.0
 11
0.0
 21
0.5
 31
0.0
  0
LINE
  5
3D
330
2E
100
AcDbEntity
  8
ASHADE
  6
Continuous
 62
     7
100
AcDbLine
 10
0.11
 20
0.2791057147390572
 30
0.0
 11
0.11
 21
0.5
 31
0.0
  0
ATTDEF
  5
3E
330
2E
100
AcDbEntity
  8
ASHADE
  6
Continuous
 62
     7
100
AcDbText
 10
0.0
 20
0.265
 30
0.0
 40
0.01
  1

100
AcDbAttributeDefinition
280
     0
  3
Look-at X
  2
LAX
 70
     1
280
     0
  0
ATTDEF
  5
3F
330
2E
100
AcDbEntity
  8
ASHADE
  6
Continuous
 62
     7
100
AcDbText
 10
0.0
 20
0.28
 30
0.0
 40
0.01
  1

100
AcDbAttributeDefinition
280
     0
  3

  2
GNAME
 70
     1
280
     0
  0
ENDBLK
  5
41
330
2E
100
AcDbEntity
  8
0
100
AcDbBlockEnd
  0
BLOCK
  5
5D
330
42
100
AcDbEntity
  8
0
100
AcDbBlockBegin
  2
overhead
 70
     2
 10
0.0
 20
0.0
 30
0.0
  3
overhead
  1

  0
ATTDEF
  5
43
330
42
100
AcDbEntity
  8
ASHADE
  6
Continuous
 62
     1
100
AcDbText
 10
0.0
 20
-0.1
 30
0.0
 40
0.2
  1

  7
ASHADE
 72
     1
 11
0.0
 21
-0.1
 31
0.0
100
AcDbAttributeDefinition
280
     0
  3
Light Name
  2
SNAME
 70
     0
280
     0
  0
ARC
  5
44
330
42
100
AcDbEntity
  8
ASHADE
  6
Continuous
 62
     7
100
AcDbCircle
 10
0.0
 20
0.0
 30
0.0
 40
0.3
100
AcDbArc
 50
205.6792886194569
 51
334.3207113805431
  0
LINE
  5
45
330
42
100
AcDbEntity
  8
ASHADE
  6
Continuous
 62
     7
100
AcDbLine
 10
-0.2041413561583015
 20
-0.2198324514393848
 30
0.0
 11
-0.2721884748777353
 21
-0.2931099352525131
 31
0.0
  0
LINE
  5
46
330
42
100
AcDbEntity
  8
ASHADE
  6
Continuous
 62
     7
100
AcDbLine
 10
-0.1096591641591904
 20
-0.2792398032442862
 30
0.0
 11
-0.1279356915190555
 21
-0.3257797704516673
 31
0.0
  0
LINE
  5
47
330
42
100
AcDbEntity
  8
ASHADE
  6
Continuous
 62
     7
100
AcDbLine
 10
0.0
 20
-0.2999999999999999
 30
0.0
 11
0.0
 21
-0.4
 31
0.0
  0
LINE
  5
48
330
42
100
AcDbEntity
  8
ASHADE
  6
Continuous
 62
     7
100
AcDbLine
 10
0.1096591641591904
 20
-0.2792398032442862
 30
0.0
 11
0.1279356915190555
 21
-0.3257797704516673
 31
0.0
  0
LINE
  5
49
330
42
100
AcDbEntity
  8
ASHADE
  6
Continuous
 62
     7
100
AcDbLine
 10
0.2041413561583015
 20
-0.2198324514393848
 30
0.0
 11
0.2721884748777353
 21
-0.2931099352525131
 31
0.0
  0
ARC
  5
4A
330
42
100
AcDbEntity
  8
ASHADE
  6
Continuous
 62
     7
100
AcDbCircle
 10
0.0
 20
0.0
 30
0.0
 40
0.3
100
AcDbArc
 50
25.67928861945685
 51
154.3207113805431
  0
LINE
  5
4B
330
42
100
AcDbEntity
  8
ASHADE
  6
Continuous
 62
     7
100
AcDbLine
 10
-0.2703701166919155
 20
0.13
 30
0.0
 11
-0.3154318028072347
 21
0.1516666666666666
 31
0.0
  0
LINE
  5
4C
330
42
100
AcDbEntity
  8
ASHADE
  6
Continuous
 62
     7
100
AcDbLine
 10
-0.2703701166919155
 20
-0.13
 30
0.0
 11
-0.3154318028072347
 21
-0.1516666666666666
 31
0.0
  0
LINE
  5
4D
330
42
100
AcDbEntity
  8
ASHADE
  6
Continuous
 62
     7
100
AcDbLine
 10
-0.2041413561583015
 20
0.2198324514393849
 30
0.0
 11
-0.2721884748777353
 21
0.2931099352525131
 31
0.0
  0
LINE
  5
4E
330
42
100
AcDbEntity
  8
ASHADE
  6
Continuous
 62
     7
100
AcDbLine
 10
-0.1096591641591904
 20
0.2792398032442862
 30
0.0
 11
-0.1279356915190555
 21
0.3257797704516674
 31
0.0
  0
LINE
  5
4F
330
42
100
AcDbEntity
  8
ASHADE
  6
Continuous
 62
     7
100
AcDbLine
 10
0.2703701166919155
 20
-0.13
 30
0.0
 11
0.3154318028072347
 21
-0.1516666666666666
 31
0.0
  0
LINE
  5
50
330
42
100
AcDbEntity
  8
ASHADE
  6
Continuous
 62
     7
100
AcDbLine
 10
0.2703701166919155
 20
0.13
 30
0.0
 11
0.3154318028072347
 21
0.1516666666666666
 31
0.0
  0
LINE
  5
51
330
42
100
AcDbEntity
  8
ASHADE
  6
Continuous
 62
     7
100
AcDbLine
 10
0.0
 20
0.3
 30
0.0
 11
0.0
 21
0.4
 31
0.0
  0
ATTDEF
  5
52
330
42
100
AcDbEntity
  8
ASHADE
  6
Continuous
 62
     7
100
AcDbText
 10
0.0
 20
0.22
 30
0.0
 40
0.01
  1
1
100
AcDbAttributeDefinition
280
     0
  3
Light Intensity
  2
INTENSITY
 70
     1
280
     0
  0
ATTDEF
  5
53
330
42
100
AcDbEntity
  8
ASHADE
  6
Continuous
 62
     7
100
AcDbText
 10
0.0
 20
0.16
 30
0.0
 40
0.01
  1
-1
100
AcDbAttributeDefinition
280
     0
  3
*not used*
  2
BEAMD
 70
     1
280
     0
  0
ATTDEF
  5
54
330
42
100
AcDbEntity
  8
ASHADE
  6
Continuous
 62
     7
100
AcDbText
 10
0.0
 20
0.175
 30
0.0
 40
0.01
  1
-1
100
AcDbAttributeDefinition
280
     0
  3
*not used*
  2
CONED
 70
     1
280
     0
  0
ATTDEF
  5
55
330
42
100
AcDbEntity
  8
ASHADE
  6
Continuous
 62
     7
100
AcDbText
 10
0.0
 20
0.19
 30
0.0
 40
0.01
  1
0
100
AcDbAttributeDefinition
280
     0
  3
Depth Map Size
  2
CONEA
 70
     1
280
     0
  0
ATTDEF
  5
56
330
42
100
AcDbEntity
  8
ASHADE
  6
Continuous
 62
     7
100
AcDbText
 10
0.0
 20
0.2050000000000001
 30
0.0
 40
0.01
  1
1,1,1
100
AcDbAttributeDefinition
280
     0
  3
Light Color (RGB)
  2
COLOR
 70
     1
280
     0
  0
ATTDEF
  5
57
330
42
100
AcDbEntity
  8
ASHADE
  6
Continuous
 62
     7
100
AcDbText
 10
0.0
 20
0.235
 30
0.0
 40
0.01
  1

100
AcDbAttributeDefinition
280
     0
  3
Look-at Z
  2
LAZ
 70
     1
280
     0
  0
ATTDEF
  5
58
330
42
100
AcDbEntity
  8
ASHADE
  6
Continuous
 62
     7
100
AcDbText
 10
0.0
 20
0.25
 30
0.0
 40
0.01
  1

100
AcDbAttributeDefinition
280
     0
  3
Look-at Y
  2
LAY
 70
     1
280
     0
  0
ATTDEF
  5
59
330
42
100
AcDbEntity
  8
ASHADE
  6
Continuous
 62
     7
100
AcDbText
 10
0.0
 20
0.265
 30
0.0
 40
0.01
  1

100
AcDbAttributeDefinition
280
     0
  3
Look-at X
  2
LAX
 70
     1
280
     0
  0
ATTDEF
  5
5A
330
42
100
AcDbEntity
  8
ASHADE
  6
Continuous
 62
     7
100
AcDbText
 10
0.0
 20
0.28
 30
0.0
 40
0.01
  1

100
AcDbAttributeDefinition
280
     0
  3

  2
GNAME
 70
     1
280
     0
  0
LINE
  5
5B
330
42
100
AcDbEntity
  8
ASHADE
  6
Continuous
 62
     7
100
AcDbLine
 10
0.1096591641591904
 20
0.2792398032442862
 30
0.0
 11
0.1279356915190555
 21
0.3257797704516674
 31
0.0
  0
LINE
  5
5C
330
42
100
AcDbEntity
  8
ASHADE
  6
Continuous
 62
     7
100
AcDbLine
 10
0.2041413561583015
 20
0.2198324514393849
 30
0.0
 11
0.2721884748777353
 21
0.2931099352525131
 31
0.0
  0
ENDBLK
  5
5E
330
42
100
AcDbEntity
  8
0
100
AcDbBlockEnd
  0
BLOCK
  5
85
330
5F
100
AcDbEntity
  8
0
100
AcDbBlockBegin
  2
sh_spot
 70
     2
 10
0.0
 20
0.0
 30
0.0
  3
sh_spot
  1

  0
LINE
  5
60
330
5F
100
AcDbEntity
  8
ASHADE
  6
Continuous
 62
     7
100
AcDbLine
 10
0.25
 20
0.26
 30
0.0
 11
-0.25
 21
0.26
 31
0.0
  0
LINE
  5
61
330
5F
100
AcDbEntity
  8
ASHADE
  6
Continuous
 62
     7
100
AcDbLine
 10
-0.25
 20
-0.3399999999999999
 30
0.0
 11
0.25
 21
-0.3399999999999999
 31
0.0
  0
ATTDEF
  5
62
330
5F
100
AcDbEntity
  8
ASHADE
  6
Continuous
 62
     1
100
AcDbText
 10
0.0
 20
-0.1
 30
0.0
 40
0.2
  1

  7
ASHADE
 72
     1
 11
0.0
 21
-0.1
 31
0.0
100
AcDbAttributeDefinition
280
     0
  3
Light Name
  2
SNAME
 70
     0
280
     0
  0
LINE
  5
63
330
5F
100
AcDbEntity
  8
ASHADE
  6
Continuous
 62
     7
100
AcDbLine
 10
-0.25
 20
-0.13
 30
0.0
 11
-0.25
 21
-0.3399999999999999
 31
0.0
  0
LINE
  5
64
330
5F
100
AcDbEntity
  8
ASHADE
  6
Continuous
 62
     7
100
AcDbLine
 10
-0.25
 20
-0.18
 30
0.0
 11
-0.29
 21
-0.18
 31
0.0
  0
LINE
  5
65
330
5F
100
AcDbEntity
  8
ASHADE
  6
Continuous
 62
     7
100
AcDbLine
 10
-0.29
 20
-0.22
 30
0.0
 11
-0.25
 21
-0.22
 31
0.0
  0
LINE
  5
66
330
5F
100
AcDbEntity
  8
ASHADE
  6
Continuous
 62
     7
100
AcDbLine
 10
-0.29
 20
-0.18
 30
0.0
 11
-0.29
 21
-0.22
 31
0.0
  0
LINE
  5
67
330
5F
100
AcDbEntity
  8
ASHADE
  6
Continuous
 62
     7
100
AcDbLine
 10
-0.1045454545454545
 20
0.26
 30
0.0
 11
-0.15
 21
0.46
 31
0.0
  0
LINE
  5
68
330
5F
100
AcDbEntity
  8
ASHADE
  6
Continuous
 62
     7
100
AcDbLine
 10
-0.21
 20
0.26
 30
0.0
 11
-0.301304347826087
 21
0.46
 31
0.0
  0
LINE
  5
69
330
5F
100
AcDbEntity
  8
ASHADE
  6
Continuous
 62
     7
100
AcDbLine
 10
-0.25
 20
0.26
 30
0.0
 11
-0.25
 21
0.13
 31
0.0
  0
LINE
  5
6A
330
5F
100
AcDbEntity
  8
ASHADE
  6
Continuous
 62
     7
100
AcDbLine
 10
-0.25
 20
0.22
 30
0.0
 11
-0.29
 21
0.22
 31
0.0
  0
LINE
  5
6B
330
5F
100
AcDbEntity
  8
ASHADE
  6
Continuous
 62
     7
100
AcDbLine
 10
-0.29
 20
0.1799999999999999
 30
0.0
 11
-0.25
 21
0.1799999999999999
 31
0.0
  0
LINE
  5
6C
330
5F
100
AcDbEntity
  8
ASHADE
  6
Continuous
 62
     7
100
AcDbLine
 10
-0.29
 20
0.22
 30
0.0
 11
-0.29
 21
0.1799999999999999
 31
0.0
  0
ATTDEF
  5
6D
330
5F
100
AcDbEntity
  8
ASHADE
  6
Continuous
 62
     7
100
AcDbText
 10
0.0
 20
-0.24
 30
0.0
 40
0.01
  1
0
100
AcDbAttributeDefinition
280
     0
  3
Depth Map Size
  2
ZSIZE
 70
     1
280
     0
  0
ATTDEF
  5
6E
330
5F
100
AcDbEntity
  8
ASHADE
  6
Continuous
 62
     7
100
AcDbText
 10
0.0
 20
-0.3300000000000001
 30
0.0
 40
0.01
  1
0,0,0
100
AcDbAttributeDefinition
280
     0
  3
Look-from XYZ
  2
LFXYZ
 70
     1
280
     0
  0
ATTDEF
  5
6F
330
5F
100
AcDbEntity
  8
ASHADE
  6
Continuous
 62
     7
100
AcDbText
 10
0.0
 20
-0.315
 30
0.0
 40
0.01
  1
0.0
100
AcDbAttributeDefinition
280
     0
  3
Beam Distribution
  2
BEAMDI
 70
     1
280
     0
  0
ATTDEF
  5
70
330
5F
100
AcDbEntity
  8
ASHADE
  6
Continuous
 62
     7
100
AcDbText
 10
0.0
 20
-0.3
 30
0.0
 40
0.01
  1
0.0
100
AcDbAttributeDefinition
280
     0
  3
Cone Delta
  2
CONEDE
 70
     1
280
     0
  0
ATTDEF
  5
71
330
5F
100
AcDbEntity
  8
ASHADE
  6
Continuous
 62
     7
100
AcDbText
 10
0.0
 20
-0.2850000000000001
 30
0.0
 40
0.01
  1
10.0
100
AcDbAttributeDefinition
280
     0
  3
Cone Angle
  2
CONEAN
 70
     1
280
     0
  0
ATTDEF
  5
72
330
5F
100
AcDbEntity
  8
ASHADE
  6
Continuous
 62
     7
100
AcDbText
 10
0.0
 20
-0.27
 30
0.0
 40
0.01
  1
-1
100
AcDbAttributeDefinition
280
     0
  3
*not used*
  2
BIASMAX
 70
     1
280
     0
  0
ATTDEF
  5
73
330
5F
100
AcDbEntity
  8
ASHADE
  6
Continuous
 62
     7
100
AcDbText
 10
0.0
 20
-0.255
 30
0.0
 40
0.01
  1
-1
100
AcDbAttributeDefinition
280
     0
  3
*not used*
  2
BIASMIN
 70
     1
280
     0
  0
ATTDEF
  5
74
330
5F
100
AcDbEntity
  8
ASHADE
  6
Continuous
 62
     7
100
AcDbText
 10
0.0
 20
-0.225
 30
0.0
 40
0.01
  1
1,1,1
100
AcDbAttributeDefinition
280
     0
  3
Light Color (RGB)
  2
COLOR
 70
     1
280
     0
  0
ATTDEF
  5
75
330
5F
100
AcDbEntity
  8
ASHADE
  6
Continuous
 62
     7
100
AcDbText
 10
0.0
 20
-0.21
 30
0.0
 40
0.01
  1
1
100
AcDbAttributeDefinition
280
     0
  3
Light Intensity
  2
INTENSITY
 70
     1
280
     0
  0
ATTDEF
  5
76
330
5F
100
AcDbEntity
  8
ASHADE
  6
Continuous
 62
     7
100
AcDbText
 10
0.0
 20
-0.15
 30
0.0
 40
0.01
  1

100
AcDbAttributeDefinition
280
     0
  3

  2
GNAME
 70
     1
280
     0
  0
ATTDEF
  5
77
330
5F
100
AcDbEntity
  8
ASHADE
  6
Continuous
 62
     7
100
AcDbText
 10
0.0
 20
-0.195
 30
0.0
 40
0.01
  1

100
AcDbAttributeDefinition
280
     0
  3
Look-at Z
  2
LAZ
 70
     1
280
     0
  0
ATTDEF
  5
78
330
5F
100
AcDbEntity
  8
ASHADE
  6
Continuous
 62
     7
100
AcDbText
 10
0.0
 20
-0.18
 30
0.0
 40
0.01
  1

100
AcDbAttributeDefinition
280
     0
  3
Look-at Y
  2
LAY
 70
     1
280
     0
  0
ATTDEF
  5
79
330
5F
100
AcDbEntity
  8
ASHADE
  6
Continuous
 62
     7
100
AcDbText
 10
0.0
 20
-0.165
 30
0.0
 40
0.01
  1

100
AcDbAttributeDefinition
280
     0
  3
Look-at X
  2
LAX
 70
     1
280
     0
  0
LINE
  5
7A
330
5F
100
AcDbEntity
  8
ASHADE
  6
Continuous
 62
     7
100
AcDbLine
 10
0.25
 20
-0.3399999999999999
 30
0.0
 11
0.25
 21
-0.13
 31
0.0
  0
LINE
  5
7B
330
5F
100
AcDbEntity
  8
ASHADE
  6
Continuous
 62
     7
100
AcDbLine
 10
0.25
 20
-0.18
 30
0.0
 11
0.29
 21
-0.18
 31
0.0
  0
LINE
  5
7C
330
5F
100
AcDbEntity
  8
ASHADE
  6
Continuous
 62
     7
100
AcDbLine
 10
0.29
 20
-0.22
 30
0.0
 11
0.25
 21
-0.22
 31
0.0
  0
LINE
  5
7D
330
5F
100
AcDbEntity
  8
ASHADE
  6
Continuous
 62
     7
100
AcDbLine
 10
0.29
 20
-0.18
 30
0.0
 11
0.29
 21
-0.22
 31
0.0
  0
LINE
  5
7E
330
5F
100
AcDbEntity
  8
ASHADE
  6
Continuous
 62
     7
100
AcDbLine
 10
0.21
 20
0.26
 30
0.0
 11
0.301304347826087
 21
0.46
 31
0.0
  0
LINE
  5
7F
330
5F
100
AcDbEntity
  8
ASHADE
  6
Continuous
 62
     7
100
AcDbLine
 10
0.1045454545454545
 20
0.26
 30
0.0
 11
0.15
 21
0.46
 31
0.0
  0
LINE
  5
80
330
5F
100
AcDbEntity
  8
ASHADE
  6
Continuous
 62
     7
100
AcDbLine
 10
0.0
 20
0.26
 30
0.0
 11
0.0
 21
0.46
 31
0.0
  0
LINE
  5
81
330
5F
100
AcDbEntity
  8
ASHADE
  6
Continuous
 62
     7
100
AcDbLine
 10
0.25
 20
0.13
 30
0.0
 11
0.25
 21
0.26
 31
0.0
  0
LINE
  5
82
330
5F
100
AcDbEntity
  8
ASHADE
  6
Continuous
 62
     7
100
AcDbLine
 10
0.25
 20
0.22
 30
0.0
 11
0.29
 21
0.22
 31
0.0
  0
LINE
  5
83
330
5F
100
AcDbEntity
  8
ASHADE
  6
Continuous
 62
     7
100
AcDbLine
 10
0.29
 20
0.1799999999999999
 30
0.0
 11
0.25
 21
0.1799999999999999
 31
0.0
  0
LINE
  5
84
330
5F
100
AcDbEntity
  8
ASHADE
  6
Continuous
 62
     7
100
AcDbLine
 10
0.29
 20
0.22
 30
0.0
 11
0.29
 21
0.1799999999999999
 31
0.0
  0
ENDBLK
  5
86
330
5F
100
AcDbEntity
  8
0
100
AcDbBlockEnd
  0
BLOCK
  5
92
330
91
100
AcDbEntity
  8
ASHADE
100
AcDbBlockBegin
  2
AVE_RENDER
 70
     0
 10
0.0
 20
0.0
 30
0.0
  3
AVE_RENDER
  1
AVE_RENDER
  0
ENDBLK
  5
93
330
91
100
AcDbEntity
  8
0
100
AcDbBlockEnd
  0
BLOCK
  5
A0
330
9F
100
AcDbEntity
  8
ASHADE
100
AcDbBlockBegin
  2
AVE_GLOBAL
 70
     0
 10
0.0
 20
0.0
 30
0.0
  3
AVE_GLOBAL
  1
AVE_GLOBAL
  0
ENDBLK
  5
A1
330
9F
100
AcDbEntity
  8
0
100
AcDbBlockEnd
  0
ENDSEC
  0
SECTION
  2
ENTITIES
  0
INSERT
  5
94
330
1F
100
AcDbEntity
  8
ASHADE
 62
     1
100
AcDbBlockReference
  2
AVE_RENDER
 10
0.0
 20
0.0
 30
0.0
1001
AVE_RENDER
1002
{
1070
     7
1000
Pref
1070
    30
1070
    20
1070
     1
1070
     0
1000

1070
    10
1070
     1
1070
    10
1040
1.0
1070
     1
1040
0.3
1040
0.7
1040
0.0
1040
10.0
1010
-1.0
1020
-1.0
1030
-1.0
1040
0.3
1070
    49
1070
     0
1070
     0
1010
1.0
1020
1.0
1030
1.0
1040
45.0
1070
     1
1070
     0
1000
WCS
1040
0.0
1070
     0
1040
10.0
1002
}
  0
INSERT
  5
95
330
1F
100
AcDbEntity
  8
ASHADE
 62
     3
100
AcDbBlockReference
  2
AVE_RENDER
 10
0.0
 20
0.0
 30
0.0
1001
AVE_RENDER
1002
{
1070
     0
1000
Full Opt
1070
     0
1070
     1
1070
     1
1070
     1
1070
     0
1070
     0
1070
     0
1070
     1
1070
     1
1040
0.0001
1040
0.0001
1002
}
  0
INSERT
  5
96
330
1F
100
AcDbEntity
  8
ASHADE
 62
     4
100
AcDbBlockReference
  2
AVE_RENDER
 10
0.0
 20
0.0
 30
0.0
1001
AVE_RENDER
1002
{
1070
     0
1000
Quick Opt
1070
     0
1070
     1
1070
     1
1070
     1
1070
     0
1070
     0
1070
     1
1002
}
  0
INSERT
  5
97
330
1F
100
AcDbEntity
  8
ASHADE
 62
     5
100
AcDbBlockReference
  2
AVE_RENDER
 10
0.0
 20
0.0
 30
0.0
1001
AVE_RENDER
1002
{
1070
     1
1000
Scanl Opt
1070
     2
1070
     0
1070
     2
1040
2.0
1040
4.0
1070
     0
1070
     1
1070
     0
1040
0.03
1002
}
  0
INSERT
  5
98
330
1F
100
AcDbEntity
  8
ASHADE
 62
     6
100
AcDbBlockReference
  2
AVE_RENDER
 10
0.0
 20
0.0
 30
0.0
1001
AVE_RENDER
1002
{
1070
     2
1000
Raytr Opt
1070
     2
1070
     0
1070
     2
1040
2.0
1040
4.0
1070
     0
1070
     1
1070
     1
1040
0.03
1070
     3
1040
0.03
1002
}
  0
INSERT
  5
99
330
1F
100
AcDbEntity
  8
ASHADE
 62
     7
100
AcDbBlockReference
  2
AVE_RENDER
 10
0.0
 20
0.0
 30
0.0
1001
AVE_RENDER
1002
{
1070
     0
1000
RFile Opt
1070
     1
1070
   640
1070
   480
1070
 10000
1070
     1
1070
     8
1070
     8
1070
     0
1070
     0
1070
     0
1070
     0
1070
     0
1070
     0
1070
     0
1002
}
  0
INSERT
  5
9A
330
1F
100
AcDbEntity
  8
ASHADE
 62
     8
100
AcDbBlockReference
  2
AVE_RENDER
 10
0.0
 20
0.0
 30
0.0
1001
AVE_RENDER
1002
{
1070
     0
1000
Fog Opt
1070
     0
1070
     0
1040
0.0
1040
1.0
1040
0.0
1040
1.0
1010
0.5
1020
0.5
1030
0.5
1002
}
  0
INSERT
  5
9B
330
1F
100
AcDbEntity
  8
ASHADE
 62
     9
100
AcDbBlockReference
  2
AVE_RENDER
 10
0.0
 20
0.0
 30
0.0
1001
AVE_RENDER
1002
{
1070
     0
1000
BG Opt
1070
     0
1070
     1
1010
0.0
1020
0.0
1030
0.0
1010
1.0
1020
0.0
1030
0.0
1010
0.0
1020
1.0
1030
0.0
1010
0.0
1020
0.0
1030
1.0
1040
0.5
1040
0.33
1040
0.0
1000

1070
     1
1000

1070
     1
1070
     1
1040
1.0
1040
1.0
1040
0.0
1040
0.0
1070
     0
1002
}
  0
INSERT
  5
A2
330
1F
100
AcDbEntity
  8
ASHADE
 62
     1
100
AcDbBlockReference
  2
AVE_GLOBAL
 10
0.0
 20
0.0
 30
0.0
1001
AVE_MATERIAL
1002
{
1000
*GLOBAL*
1000
2
1000
Global finish.
1002
{
1002
}
1002
{
1070
    63
1002
{
1002
{
1010
-1.0
1020
-1.0
1030
-1.0
1002
}
1040
0.1000000014901161
1000

1040
0.0
1002
{
1002
}
1040
0.0
1002
{
1002
}
1040
0.0
1002
}
1002
{
1002
{
1010
-1.0
1020
-1.0
1030
-1.0
1002
}
1040
0.6999999880790711
1000

1040
0.0
1002
{
1002
}
1040
0.0
1002
{
1002
}
1040
0.0
1002
}
1002
{
1002
{
1010
-1.0
1020
-1.0
1030
-1.0
1002
}
1040
0.2000000029802322
1000

1040
0.0
1002
{
1002
}
1040
0.0
1002
{
1002
}
1040
0.0
1002
}
1002
{
1070
     0
1002
{
1070
     1
1002
{
1040
1.0
1040
1.0
1000

1040
0.0
1002
{
1002
}
1040
0.0
1002
{
1002
}
1040
0.0
1002
}
1002
}
1040
1.0
1040
0.0
1040
0.0
1002
}
1002
{
1040
1.0
1040
1.0
1000

1040
0.0
1002
{
1002
}
1040
0.0
1002
{
1002
}
1040
0.0
1002
}
1002
{
1040
0.5
1040
1.0
1000

1040
0.0
1002
{
1002
}
1040
0.0
1002
{
1002
}
1040
0.0
1002
}
1002
{
1070
     0
1040
0.0
1002
{
1002
}
1040
1.0
1002
{
1002
}
1040
0.0
1002
}
1002
{
1040
0.0
1002
{
1002
{
1010
0.0
1020
0.0
1030
0.0
1002
}
1040
1.0
1000

1040
0.0
1002
{
1002
}
1040
0.0
1002
{
1002
}
1040
0.0
1002
}
1002
}
1002
{
1002
{
1070
     1
1002
{
1040
0.0
1040
1.0
1000

1040
0.0
1002
{
1002
}
1040
0.0
1002
{
1002
}
1040
0.0
1002
}
1002
}
1040
0.0
1002
{
1002
}
1010
1.0
1020
0.0
1030
0.0
1010
0.0
1020
1.0
1030
0.0
1010
0.0
1020
0.0
1030
1.0
1070
     0
1002
}
1002
{
1002
{
1040
1.0
1040
1.0
1002
{
1070
     1
1002
{
1040
1.0
1040
1.0
1000

1040
0.0
1002
{
1002
}
1040
0.0
1002
{
1002
}
1040
0.0
1002
}
1002
}
1002
}
1070
     0
1040
0.0
1002
{
1002
}
1002
}
1002
{
1002
}
1002
}
1002
{
1071
        3
1070
     3
1070
     0
1002
{
1070
     2
1070
     0
1070
     0
1040
0.0
1002
}
1070
     0
1070
     2
1002
{
1002
}
1002
}
1002
{
1040
8030.0
1040
190.3000030517578
1040
0.3050000071525574
1040
228.0
1040
545.0
1040
14.0
1040
17.39999961853027
1040
0.4560000002384186
1002
}
1002
}
  0
MESH
  5
F8
330
1F
100
AcDbEntity
  8
0
 62
    73
420
  9429335
160
             10376
310
88280000200100000C00000013000000020000003C0000000600000002000000000000C0BC4A4E40000000E0C37C2EC00000000000000000000000C0BC4A4E40000000006CFD0BC000000000000000000C000000130000000A0000003C0000000600000002000000000000C0BC4A4E40000000E0C37C2EC000000000000000
310
00000000A0A5C45140000000E0C37C2EC000000000000000000C00000013000000120000003C0000000600000002000000000000A0A5C45140000000E0C37C2EC00000000000000000000000A0A5C45140000000006CFD0BC000000000000000000C000000130000001A0000003C0000000600000002000000000000C0BC4A
310
4E40000000006CFD0BC00000000000000000000000A0A5C45140000000006CFD0BC000000000000000000C00000013000000220000003C0000000600000002000000000000A0A5C45140000000E0C37C2EC00000000000000000000000009984534000000060C16529C000000000000000000C000000130000002A0000003C
310
0000000600000002000000000000009984534000000060C16529C000000000000000000000000099845340000000006CFD0BC000000000000000000C00000013000000320000003C0000000600000002000000000000A0A5C45140000000006CFD0BC000000000000000000000000099845340000000006CFD0BC000000000
310
000000000C000000130000003A0000003C0000000600000002000000000000800FAB5840000000C0CBBD35C00000000000000000000000800FAB584000000060564D2CC000000000000000000C00000013000000420000003C0000000600000002000000000000800F6B5A40000000C0ECF637C00000000000000000000000
310
800FAB5840000000C0CBBD35C000000000000000000C000000130000004A0000003C0000000600000002000000000000800F6B5A40000000C0ECF637C00000000000000000000000800F6B5A40000000E0AC4D2AC000000000000000000C00000013000000520000003C0000000600000002000000000000800F6B5A400000
310
00E0AC4D2AC00000000000000000000000800FAB584000000060564D2CC000000000000000000C000000130000005A0000003C0000000600000002000000000000800F6B5A40000000802E9C30C00000000000000000000000800F6B5A40000000E036C320C000000000000000000C00000013000000620000003C00000006
310
00000002000000000000800F2B5C40000000802E9C30C00000000000000000000000800F6B5A40000000802E9C30C000000000000000000C000000130000006A0000003C0000000600000002000000000000800F2B5C40000000802E9C30C00000000000000000000000800F2B5C40000000E036C320C00000000000000000
310
0C00000013000000720000003C0000000600000002000000000000800F2B5C40000000E036C320C00000000000000000000000800F6B5A40000000E036C320C000000000000000000C000000130000007A0000003C0000000600000002000000000000402484534000000060C16529C0000000000000000000000040248453
310
40000000006CFD0BC000000000000000000C00000013000000820000003C0000000600000002000000000000402484534000000060C16529C000000000000000000000008067535A4000000060C16529C000000000000000000C000000130000008A0000003C00000006000000020000000000008067535A4000000060C165
310
29C000000000000000000000008067535A40000000006CFD0BC000000000000000000C00000013000000920000003C00000006000000020000000000004024845340000000006CFD0BC000000000000000000000008067535A40000000006CFD0BC000000000000000000C000000130000009A0000003C0000000600000002
310
00000000000020CE6C5A40000000C074FF37C0000000000000000000000020CE6C5A4000000040ECA430C000000000000000000C00000013000000A20000003C000000060000000200000000000020CE2C5C40000000C074FF37C0000000000000000000000020CE6C5A40000000C074FF37C000000000000000000C000000
310
13000000AA0000003C000000060000000200000000000020CE2C5C40000000C074FF37C0000000000000000000000020CE2C5C4000000040ECA430C000000000000000000C00000013000000B20000003C000000060000000200000000000020CE2C5C4000000040ECA430C0000000000000000000000020CE6C5A40000000
310
40ECA430C000000000000000000C00000013000000BA0000003C000000060000000200000000000020CE2C5C40000000C0411438C0000000000000000000000020CE2C5C400000006056882AC000000000000000000C00000013000000C20000003C000000060000000200000000000020CEEC5D40000000C020DB35C00000
310
00000000000000000020CE2C5C40000000C0411438C000000000000000000C00000013000000CA0000003C000000060000000200000000000020CEEC5D40000000C020DB35C0000000000000000000000020CEEC5D40000000E0FF872CC000000000000000000C00000013000000D20000003C000000060000000200000000
310
000020CEEC5D40000000E0FF872CC0000000000000000000000020CE2C5C400000006056882AC000000000000000000C00000013000000DA0000003C0000000600000002000000000000A051435C4000000060C16529C00000000000000000000000A051435C40000000006CFD0BC000000000000000000C00000013000000
310
E20000003C0000000600000002000000000000A051435C4000000060C16529C00000000000000000000000A051035E40000000E06A652BC000000000000000000C00000013000000EA0000003C0000000600000002000000000000A051035E40000000E06A652BC00000000000000000000000A051035E40000000006CFD0B
310
C000000000000000000C00000013000000F20000003C0000000600000002000000000000A051435C40000000006CFD0BC00000000000000000000000A051035E40000000006CFD0BC000000000000000000C00000013000000FA0000003C0000000600000002000000000000A051035E40000000E06A652BC0000000000000
310
000000000040AF526040000000E06A652BC000000000000000000C00000013000000020100003C000000060000000200000000000040AF526040000000E06A652BC0000000000000000000000040AF526040000000006CFD0BC000000000000000000C000000130000000A0100003C0000000600000002000000000000A051
310
035E40000000006CFD0BC0000000000000000000000040AF526040000000006CFD0BC000000000000000000C00000013000000120100003C000000060000000200000000000080AD4A4E40000000C016CE1640000000000000000000000080AD4A4E40000000006CFD0BC000000000000000000C000000130000001A010000
310
3C000000060000000200000000000080AD4A4E40000000006CFD0BC00000000000000000000000009EC55140000000006CFD0BC000000000000000000C00000013000000220100003C0000000600000002000000000000009EC55140000000C016CE16400000000000000000000000009EC55140000000006CFD0BC0000000
310
00000000000C000000130000002A0100003C000000060000000200000000000080AD4A4E40000000C016CE16400000000000000000000000009EC55140000000C016CE164000000000000000000C00000013000000320100003C0000000600000002000000000000605EC55140000000C016CE164000000000000000000000
310
00605EC55140000000006CFD0BC000000000000000000C000000130000003A0100003C0000000600000002000000000000605EC55140000000006CFD0BC0000000000000000000000060CA845340000000006CFD0BC000000000000000000C00000013000000420100003C000000060000000200000000000060CA84534000
310
0000C016CE1640000000000000000000000060CA845340000000006CFD0BC000000000000000000C000000130000004A0100003C0000000600000002000000000000605EC55140000000C016CE1640000000000000000000000060CA845340000000C016CE164000000000000000000C00000013000000520100003C000000
310
060000000200000000000060CA845340000000006CFD0BC00000000000000000000000605E455540000000006CFD0BC000000000000000000C000000130000005A0100003C0000000600000002000000000000605E455540000000C016CE16400000000000000000000000605E455540000000006CFD0BC000000000000000
310
000C00000013000000620100003C000000060000000200000000000060CA845340000000C016CE16400000000000000000000000605E455540000000C016CE164000000000000000000C000000130000006A0100003C0000000600000002000000000000605E455540000000006CFD0BC00000000000000000000000605E05
310
5740000000006CFD0BC000000000000000000C00000013000000720100003C0000000600000002000000000000605E055740000000C016CE16400000000000000000000000605E055740000000006CFD0BC000000000000000000C000000130000007A0100003C0000000600000002000000000000605E455540000000C016
310
CE16400000000000000000000000605E055740000000C016CE164000000000000000000C00000013000000820100003C0000000600000002000000000000605E055740000000006CFD0BC00000000000000000000000605EC55840000000006CFD0BC000000000000000000C000000130000008A0100003C00000006000000
310
02000000000000605EC55840000000C016CE16400000000000000000000000605EC55840000000006CFD0BC000000000000000000C00000013000000920100003C0000000600000002000000000000605E055740000000C016CE16400000000000000000000000605EC55840000000C016CE164000000000000000000C0000
310
00130000009A0100003C0000000600000002000000000000605EC55840000000006CFD0BC00000000000000000000000605E855A40000000006CFD0BC000000000000000000C00000013000000A20100003C0000000600000002000000000000605E855A40000000C016CE16400000000000000000000000605E855A400000
310
00006CFD0BC000000000000000000C00000013000000AA0100003C0000000600000002000000000000605EC55840000000C016CE16400000000000000000000000605E855A40000000C016CE164000000000000000000C00000013000000B20100003C0000000600000002000000000000605E855A40000000006CFD0BC000
310
00000000000000000000605E455C40000000006CFD0BC000000000000000000C00000013000000BA0100003C0000000600000002000000000000605E455C40000000C016CE16400000000000000000000000605E455C40000000006CFD0BC000000000000000000C00000013000000C20100003C0000000600000002000000
310
000000605E855A40000000C016CE16400000000000000000000000605E455C40000000C016CE164000000000000000000C00000013000000CA0100003C0000000600000002000000000000605E455C40000000006CFD0BC00000000000000000000000605E055E40000000006CFD0BC000000000000000000C000000130000
310
00D20100003C0000000600000002000000000000605E055E40000000C016CE16400000000000000000000000605E055E40000000006CFD0BC000000000000000000C00000013000000DA0100003C0000000600000002000000000000605E455C40000000C016CE16400000000000000000000000605E055E40000000C016CE
310
164000000000000000000C00000013000000E20100003C0000000600000002000000000000801C065E40000000C016CE16400000000000000000000000801C065E40000000006CFD0BC000000000000000000C00000013000000EA0100003C0000000600000002000000000000207B526040000000006CFD0BC00000000000
310
000000000000801C065E40000000006CFD0BC000000000000000000C00000013000000F20100003C0000000600000002000000000000207B526040000000C016CE16400000000000000000000000207B526040000000006CFD0BC000000000000000000C00000013000000FA0100003C000000060000000200000000000020
310
7B526040000000C016CE16400000000000000000000000801C065E40000000C016CE164000000000000000000C00000013000000020200003C0000000600000002000000000000605E055040000000C016CE16400000000000000000000000605E055040000000C071CD2D4000000000000000000C000000130000000A0200
310
003C0000000600000002000000000000605E055040000000C016CE16400000000000000000000000605EC55140000000C016CE164000000000000000000C00000013000000120200003C0000000600000002000000000000605EC55140000000C016CE16400000000000000000000000605EC55140000000C071CD2D400000
310
0000000000000C000000130000001A0200003C0000000600000002000000000000605E055040000000C071CD2D400000000000000000000000605EC55140000000C071CD2D4000000000000000000C00000013000000220200003C0000000600000002000000000000605EC55140000000C016CE1640000000000000000000
310
000060CA845340000000C016CE164000000000000000000C000000130000002A0200003C000000060000000200000000000060CA845340000000C016CE1640000000000000000000000060CA845340000000A071CD2D4000000000000000000C00000013000000320200003C0000000600000002000000000000605EC55140
310
000000C071CD2D40000000000000000000000060CA845340000000A071CD2D4000000000000000000C000000130000003A0200003C000000060000000200000000000060CA845340000000C016CE16400000000000000000000000605E455540000000C016CE164000000000000000000C00000013000000420200003C0000
310
000600000002000000000000605E455540000000C016CE16400000000000000000000000605E455540000000C071CD2D4000000000000000000C000000130000004A0200003C000000060000000200000000000060CA845340000000A071CD2D400000000000000000000000605E455540000000C071CD2D40000000000000
310
00000C00000013000000520200003C0000000600000002000000000000605E455540000000C016CE16400000000000000000000000605E055740000000C016CE164000000000000000000C000000130000005A0200003C0000000600000002000000000000605E055740000000C016CE16400000000000000000000000605E
310
055740000000C071CD2D4000000000000000000C00000013000000620200003C0000000600000002000000000000605E455540000000C071CD2D400000000000000000000000605E055740000000C071CD2D4000000000000000000C000000130000006A0200003C0000000600000002000000000000605E055740000000C0
310
16CE16400000000000000000000000605EC55840000000C016CE164000000000000000000C00000013000000720200003C0000000600000002000000000000605EC55840000000C016CE16400000000000000000000000605EC55840000000C071CD2D4000000000000000000C000000130000007A0200003C000000060000
310
0002000000000000605E055740000000C071CD2D400000000000000000000000605EC55840000000C071CD2D4000000000000000000C00000013000000820200003C0000000600000002000000000000605EC55840000000C016CE16400000000000000000000000605E855A40000000C016CE164000000000000000000C00
310
0000130000008A0200003C0000000600000002000000000000605E855A40000000C016CE16400000000000000000000000605E855A40000000C071CD2D4000000000000000000C00000013000000920200003C0000000600000002000000000000605EC55840000000C071CD2D400000000000000000000000605E855A4000
310
0000C071CD2D4000000000000000000C000000130000009A0200003C0000000600000002000000000000605E855A40000000C016CE16400000000000000000000000605E455C40000000C016CE164000000000000000000C00000013000000A20200003C0000000600000002000000000000605E455C40000000C016CE1640
310
0000000000000000000000605E455C40000000C071CD2D4000000000000000000C00000013000000AA0200003C0000000600000002000000000000605E855A40000000C071CD2D400000000000000000000000605E455C40000000C071CD2D4000000000000000000C00000013000000B20200003C00000006000000020000
310
00000000605E455C40000000C016CE16400000000000000000000000605E055E40000000C016CE164000000000000000000C00000013000000BA0200003C0000000600000002000000000000605E055E40000000C016CE16400000000000000000000000605E055E40000000C071CD2D4000000000000000000C0000001300
310
0000C20200003C0000000600000002000000000000605E455C40000000C071CD2D400000000000000000000000605E055E40000000C071CD2D4000000000000000000C00000013000000CA0200003C0000000600000002000000000000605E055E40000000C016CE16400000000000000000000000605EC55F40000000C016
310
CE164000000000000000000C00000013000000D20200003C0000000600000002000000000000605EC55F40000000C016CE16400000000000000000000000605EC55F40000000C071CD2D4000000000000000000C00000013000000DA0200003C0000000600000002000000000000605E055E40000000C071CD2D4000000000
310
00000000000000605EC55F40000000C071CD2D4000000000000000000C00000013000000E20200003C0000000600000002000000000000C0BC4A4E40000000C071CD2D400000000000000000000000C0BC4A4E4000000000EC19384000000000000000000C00000013000000EA0200003C0000000600000002000000000000
310
C0BC4A4E40000000C071CD2D400000000000000000000000605EE55040000000C071CD2D4000000000000000000C00000013000000F20200003C0000000600000002000000000000605EE55040000000C071CD2D400000000000000000000000605EE5504000000000EC19384000000000000000000C00000013000000FA02
310
00003C0000000600000002000000000000C0BC4A4E4000000000EC1938400000000000000000000000605EE5504000000000EC19384000000000000000000C00000013000000020300003C0000000600000002000000000000605EE55040000000C071CD2D400000000000000000000000605EA55240000000C071CD2D4000
310
000000000000000C000000130000000A0300003C0000000600000002000000000000605EA55240000000C071CD2D400000000000000000000000605EA5524000000000EC19384000000000000000000C00000013000000120300003C0000000600000002000000000000605EE5504000000000EC1938400000000000000000
310
000000605EA5524000000000EC19384000000000000000000C000000130000001A0300003C0000000600000002000000000000605EA55240000000C071CD2D400000000000000000000000605E655440000000C071CD2D4000000000000000000C00000013000000220300003C0000000600000002000000000000605E6554
310
40000000C071CD2D400000000000000000000000605E65544000000000EC19384000000000000000000C000000130000002A0300003C0000000600000002000000000000605EA5524000000000EC1938400000000000000000000000605E65544000000000EC19384000000000000000000C00000013000000320300003C00
310
00000600000002000000000000605E655440000000C071CD2D400000000000000000000000605E255640000000C071CD2D4000000000000000000C000000130000003A0300003C0000000600000002000000000000605E255640000000C071CD2D400000000000000000000000605E25564000000000EC1938400000000000
310
0000000C00000013000000420300003C0000000600000002000000000000605E65544000000000EC1938400000000000000000000000605E25564000000000EC19384000000000000000000C000000130000004A0300003C0000000600000002000000000000605E255640000000C071CD2D40000000000000000000000060
310
5EE55740000000C071CD2D4000000000000000000C00000013000000520300003C0000000600000002000000000000605EE55740000000C071CD2D400000000000000000000000605EE5574000000000EC19384000000000000000000C000000130000005A0300003C0000000600000002000000000000605E255640000000
310
00EC1938400000000000000000000000605EE5574000000000EC19384000000000000000000C00000013000000620300003C0000000600000002000000000000605EE55740000000C071CD2D400000000000000000000000605EA55940000000C071CD2D4000000000000000000C000000130000006A0300003C0000000600
310
000002000000000000605EA55940000000C071CD2D400000000000000000000000605EA5594000000000EC19384000000000000000000C00000013000000720300003C0000000600000002000000000000605EE5574000000000EC1938400000000000000000000000605EA5594000000000EC19384000000000000000000C
310
000000130000007A0300003C0000000600000002000000000000605EA55940000000C071CD2D400000000000000000000000605E655B40000000C071CD2D4000000000000000000C00000013000000820300003C0000000600000002000000000000605E655B40000000C071CD2D400000000000000000000000605E655B40
310
00000000EC19384000000000000000000C000000130000008A0300003C0000000600000002000000000000605EA5594000000000EC1938400000000000000000000000605E655B4000000000EC19384000000000000000000C00000013000000920300003C0000000600000002000000000000605E655B40000000C071CD2D
310
400000000000000000000000605E255D40000000C071CD2D4000000000000000000C000000130000009A0300003C0000000600000002000000000000605E255D40000000C071CD2D400000000000000000000000605E255D4000000000EC19384000000000000000000C00000013000000A20300003C000000060000000200
310
0000000000605E655B4000000000EC1938400000000000000000000000605E255D4000000000EC19384000000000000000000C00000013000000AA0300003C0000000600000002000000000000605E255D40000000C071CD2D400000000000000000000000605EE55E40000000C071CD2D4000000000000000000C00000013
310
000000B20300003C0000000600000002000000000000605EE55E40000000C071CD2D400000000000000000000000605EE55E4000000000EC19384000000000000000000C00000013000000BA0300003C0000000600000002000000000000605E255D4000000000EC1938400000000000000000000000605EE55E4000000000
310
EC19384000000000000000000C00000013000000C20300003C0000000600000002000000000000605EE55E40000000C071CD2D40000000000000000000000040AF526040000000C071CD2D4000000000000000000C00000013000000CA0300003C000000060000000200000000000040AF526040000000C071CD2D40000000
310
000000000000000040AF52604000000000EC19384000000000000000000C00000013000000D20300003C0000000600000002000000000000605EE55E4000000000EC193840000000000000000000000040AF52604000000000EC19384000000000000000000C00000013000000DA0300003C00000006000000020000000000
310
00C0BC4A4E4000000000EC1938400000000000000000000000C0BC4A4E4000000080D5973F4000000000000000000C00000013000000E20300003C0000000600000002000000000000605EE5504000000000EC1938400000000000000000000000605EE5504000000080D5973F4000000000000000000C00000013000000EA
310
0300003C0000000600000002000000000000C0BC4A4E4000000080D5973F400000000000000000000000605EE5504000000080D5973F4000000000000000000C00000013000000F20300003C0000000600000002000000000000605EA5524000000000EC1938400000000000000000000000605EA5524000000080D5973F40
310
00000000000000000C00000013000000FA0300003C0000000600000002000000000000605EE5504000000080D5973F400000000000000000000000605EA5524000000080D5973F4000000000000000000C00000013000000020400003C0000000600000002000000000000605E65544000000000EC19384000000000000000
310
00000000605E65544000000080D5973F4000000000000000000C000000130000000A0400003C0000000600000002000000000000605EA5524000000080D5973F400000000000000000000000605E65544000000080D5973F4000000000000000000C00000013000000120400003C0000000600000002000000000000605E25
310
564000000000EC1938400000000000000000000000605E25564000000080D5973F4000000000000000000C000000130000001A0400003C0000000600000002000000000000605E65544000000080D5973F400000000000000000000000605E25564000000080D5973F4000000000000000000C00000013000000220400003C
310
0000000600000002000000000000605EE5574000000000EC1938400000000000000000000000605EE5574000000080D5973F4000000000000000000C000000130000002A0400003C0000000600000002000000000000605E25564000000080D5973F400000000000000000000000605EE5574000000080D5973F4000000000
310
000000000C00000013000000320400003C0000000600000002000000000000605EA5594000000000EC1938400000000000000000000000605EA5594000000080D5973F4000000000000000000C000000130000003A0400003C0000000600000002000000000000605EE5574000000080D5973F400000000000000000000000
310
605EA5594000000080D5973F4000000000000000000C00000013000000420400003C0000000600000002000000000000605E655B4000000000EC1938400000000000000000000000605E655B4000000080D5973F4000000000000000000C000000130000004A0400003C0000000600000002000000000000605EA559400000
310
0080D5973F400000000000000000000000605E655B4000000080D5973F4000000000000000000C00000013000000520400003C0000000600000002000000000000605E255D4000000000EC1938400000000000000000000000605E255D4000000080D5973F4000000000000000000C000000130000005A0400003C00000006
310
00000002000000000000605E655B4000000080D5973F400000000000000000000000605E255D4000000080D5973F4000000000000000000C00000013000000620400003C0000000600000002000000000000605EE55E4000000000EC1938400000000000000000000000605EE55E4000000080D5973F400000000000000000
310
0C000000130000006A0400003C0000000600000002000000000000605E255D4000000080D5973F400000000000000000000000605EE55E4000000080D5973F4000000000000000000C00000013000000720400003C000000060000000200000000000040AF52604000000000EC193840000000000000000000000040AF5260
310
4000000080D5973F4000000000000000000C000000130000007A0400003C0000000600000002000000000000605EE55E4000000080D5973F40000000000000000000000040AF52604000000080D5973F400000000000000000
100
AcDbSubDMesh
 71
     2
 72
     0
 91
        0
 92
      109
 10
60.5838851928711
 20
-15.24368190765381
 30
0.0
 10
71.0726089477539
 20
-15.24368190765381
 30
0.0
 10
78.07183837890625
 20
-12.69874095916748
 30
0.0
 10
105.6728210449219
 20
-23.96455001831055
 30
0.0
 10
78.06471252441406
 20
-12.69874095916748
 30
0.0
 10
105.3031921386718
 20
-12.69874095916748
 30
0.0
 10
112.700080871582
 20
-23.99787521362305
 30
0.0
 10
113.0518569946289
 20
-12.69874095916748
 30
0.0
 10
120.0518569946289
 20
-13.69808101654053
 30
0.0
 10
130.5838928222656
 20
-13.69808101654053
 30
0.0
 10
60.5838851928711
 20
-3.498741149902343
 30
0.0
 10
71.0726089477539
 20
-3.498741149902343
 30
0.0
 10
78.07183837890625
 20
-3.498741149902343
 30
0.0
 10
105.6728210449219
 20
-13.15170955657959
 30
0.0
 10
78.06471252441406
 20
-3.498741149902343
 30
0.0
 10
105.3031921386718
 20
-3.498741149902343
 30
0.0
 10
112.700080871582
 20
-16.64422988891601
 30
0.0
 10
113.0518569946289
 20
-3.498741149902343
 30
0.0
 10
120.0518569946289
 20
-3.498741149902343
 30
0.0
 10
130.5838928222656
 20
-3.498741149902343
 30
0.0
 10
60.58341979980468
 20
5.701258659362792
 30
0.0
 10
71.08388519287109
 20
5.701258659362792
 30
0.0
 10
78.07485198974609
 20
5.701258659362792
 30
0.0
 10
85.08388519287109
 20
5.701258659362792
 30
0.0
 10
92.0838851928711
 20
5.701258659362792
 30
0.0
 10
99.08388519287109
 20
5.701258659362792
 30
0.0
 10
106.0838851928711
 20
5.701258659362792
 30
0.0
 10
113.0838851928711
 20
5.701258659362792
 30
0.0
 10
120.0838851928711
 20
5.701258659362792
 30
0.0
 10
130.5775299072265
 20
5.701258659362792
 30
0.0
 10
60.5838851928711
 20
14.90125846862793
 30
0.0
 10
67.58388519287109
 20
14.90125846862793
 30
0.0
 10
74.58388519287109
 20
14.90125846862793
 30
0.0
 10
81.58388519287109
 20
14.90125846862793
 30
0.0
 10
88.58388519287109
 20
14.90125846862793
 30
0.0
 10
95.5838851928711
 20
14.90125846862793
 30
0.0
 10
102.5838851928711
 20
14.90125846862793
 30
0.0
 10
109.5838851928711
 20
14.90125846862793
 30
0.0
 10
116.5838851928711
 20
14.90125846862793
 30
0.0
 10
123.5838851928711
 20
14.90125846862793
 30
0.0
 10
130.5838928222656
 20
14.90125846862793
 30
0.0
 10
60.5838851928711
 20
24.10125732421875
 30
0.0
 10
67.58388519287109
 20
24.10125732421875
 30
0.0
 10
74.58388519287109
 20
24.10125732421875
 30
0.0
 10
81.58388519287109
 20
24.10125732421875
 30
0.0
 10
88.58388519287109
 20
24.10125732421875
 30
0.0
 10
95.5838851928711
 20
24.10125732421875
 30
0.0
 10
102.5838851928711
 20
24.10125732421875
 30
0.0
 10
109.5838851928711
 20
24.10125732421875
 30
0.0
 10
116.5838851928711
 20
24.10125732421875
 30
0.0
 10
123.5838851928711
 20
24.10125732421875
 30
0.0
 10
130.5838928222656
 20
24.10125732421875
 30
0.0
 10
60.5838851928711
 20
31.59310150146485
 30
0.0
 10
67.58388519287109
 20
31.59310150146485
 30
0.0
 10
74.58388519287109
 20
31.59310150146485
 30
0.0
 10
81.58388519287109
 20
31.59310150146485
 30
0.0
 10
88.58388519287109
 20
31.59310150146485
 30
0.0
 10
95.5838851928711
 20
31.59310150146485
 30
0.0
 10
102.5838851928711
 20
31.59310150146485
 30
0.0
 10
109.5838851928711
 20
31.59310150146485
 30
0.0
 10
116.5838851928711
 20
31.59310150146485
 30
0.0
 10
123.5838851928711
 20
31.59310150146485
 30
0.0
 10
130.5838928222656
 20
31.59310150146485
 30
0.0
 10
64.08388519287109
 20
5.701258659362792
 30
0.0
 10
71.08388519287109
 20
5.701258659362792
 30
0.0
 10
78.07485198974609
 20
5.701258659362792
 30
0.0
 10
85.08388519287109
 20
5.701258659362792
 30
0.0
 10
92.0838851928711
 20
5.701258659362792
 30
0.0
 10
99.08388519287109
 20
5.701258659362792
 30
0.0
 10
106.0838851928711
 20
5.701258659362792
 30
0.0
 10
113.0838851928711
 20
5.701258659362792
 30
0.0
 10
120.0838851928711
 20
5.701258659362792
 30
0.0
 10
127.0838851928711
 20
5.701258659362792
 30
0.0
 10
64.08388519287109
 20
14.90125846862793
 30
0.0
 10
71.08388519287109
 20
14.90125846862793
 30
0.0
 10
78.07485198974609
 20
14.90125751495361
 30
0.0
 10
85.08388519287109
 20
14.90125846862793
 30
0.0
 10
92.0838851928711
 20
14.90125846862793
 30
0.0
 10
99.08388519287109
 20
14.90125846862793
 30
0.0
 10
106.0838851928711
 20
14.90125846862793
 30
0.0
 10
113.0838851928711
 20
14.90125846862793
 30
0.0
 10
120.0838851928711
 20
14.90125846862793
 30
0.0
 10
127.0838851928711
 20
14.90125846862793
 30
0.0
 10
60.58341979980468
 20
-3.498741149902343
 30
0.0
 10
71.08388519287109
 20
-3.498741149902343
 30
0.0
 10
78.07485198974609
 20
-3.498741149902343
 30
0.0
 10
85.08388519287109
 20
-3.498741149902343
 30
0.0
 10
92.0838851928711
 20
-3.498741149902343
 30
0.0
 10
99.08388519287109
 20
-3.498741149902343
 30
0.0
 10
106.0838851928711
 20
-3.498741149902343
 30
0.0
 10
113.0838851928711
 20
-3.498741149902343
 30
0.0
 10
120.0838851928711
 20
-3.498741149902343
 30
0.0
 10
130.5775299072265
 20
-3.498741149902343
 30
0.0
 10
120.0954895019531
 20
5.701258659362792
 30
0.0
 10
120.0954895019531
 20
-3.498741149902343
 30
0.0
 10
71.0877685546875
 20
5.701258659362792
 30
0.0
 10
71.0877685546875
 20
-3.498741149902343
 30
0.0
 10
98.67282104492188
 20
-21.74139022827148
 30
0.0
 10
112.6728210449218
 20
-16.6100845336914
 30
0.0
 10
105.700080871582
 20
-23.99787521362305
 30
0.0
 10
119.700080871582
 20
-21.8559684753418
 30
0.0
 10
98.67282104492188
 20
-14.15104961395264
 30
0.0
 10
112.6728210449218
 20
-8.381278038024902
 30
0.0
 10
105.700080871582
 20
-16.64422988891601
 30
0.0
 10
119.700080871582
 20
-14.26562404632568
 30
0.0
 10
105.6728210449219
 20
-16.6100845336914
 30
0.0
 10
112.700080871582
 20
-24.07912826538086
 30
0.0
 10
105.6728210449219
 20
-8.381278038024902
 30
0.0
 10
112.700080871582
 20
-13.26628398895264
 30
0.0
 93
      235
 90
        4
 90
       10
 90
        0
 90
        1
 90
       11
 90
        4
 90
       11
 90
        1
 90
        2
 90
       12
 90
        4
 90
      101
 90
       97
 90
        3
 90
       13
 90
        4
 90
      107
 90
      105
 90
       98
 90
      102
 90
        4
 90
       14
 90
        4
 90
        5
 90
       15
 90
        4
 90
      103
 90
       99
 90
        6
 90
       16
 90
        4
 90
      108
 90
      106
 90
      100
 90
      104
 90
        4
 90
       17
 90
        7
 90
        8
 90
       18
 90
        4
 90
       18
 90
        8
 90
        9
 90
       19
 90
        4
 90
       20
 90
       83
 90
       96
 90
       95
 90
        4
 90
       21
 90
       84
 90
       85
 90
       22
 90
        4
 90
       22
 90
       85
 90
       86
 90
       23
 90
        4
 90
       23
 90
       86
 90
       87
 90
       24
 90
        4
 90
       24
 90
       87
 90
       88
 90
       25
 90
        4
 90
       25
 90
       88
 90
       89
 90
       26
 90
        4
 90
       26
 90
       89
 90
       90
 90
       27
 90
        4
 90
       27
 90
       90
 90
       91
 90
       28
 90
        4
 90
       93
 90
       94
 90
       92
 90
       29
 90
        4
 90
       73
 90
       63
 90
       64
 90
       74
 90
        4
 90
       74
 90
       64
 90
       65
 90
       75
 90
        4
 90
       75
 90
       65
 90
       66
 90
       76
 90
        4
 90
       76
 90
       66
 90
       67
 90
       77
 90
        4
 90
       77
 90
       67
 90
       68
 90
       78
 90
        4
 90
       78
 90
       68
 90
       69
 90
       79
 90
        4
 90
       79
 90
       69
 90
       70
 90
       80
 90
        4
 90
       80
 90
       70
 90
       71
 90
       81
 90
        4
 90
       81
 90
       71
 90
       72
 90
       82
 90
        4
 90
       41
 90
       30
 90
       31
 90
       42
 90
        4
 90
       42
 90
       31
 90
       32
 90
       43
 90
        4
 90
       43
 90
       32
 90
       33
 90
       44
 90
        4
 90
       44
 90
       33
 90
       34
 90
       45
 90
        4
 90
       45
 90
       34
 90
       35
 90
       46
 90
        4
 90
       46
 90
       35
 90
       36
 90
       47
 90
        4
 90
       47
 90
       36
 90
       37
 90
       48
 90
        4
 90
       48
 90
       37
 90
       38
 90
       49
 90
        4
 90
       49
 90
       38
 90
       39
 90
       50
 90
        4
 90
       50
 90
       39
 90
       40
 90
       51
 90
        4
 90
       52
 90
       41
 90
       42
 90
       53
 90
        4
 90
       53
 90
       42
 90
       43
 90
       54
 90
        4
 90
       54
 90
       43
 90
       44
 90
       55
 90
        4
 90
       55
 90
       44
 90
       45
 90
       56
 90
        4
 90
       56
 90
       45
 90
       46
 90
       57
 90
        4
 90
       57
 90
       46
 90
       47
 90
       58
 90
        4
 90
       58
 90
       47
 90
       48
 90
       59
 90
        4
 90
       59
 90
       48
 90
       49
 90
       60
 90
        4
 90
       60
 90
       49
 90
       50
 90
       61
 90
        4
 90
       61
 90
       50
 90
       51
 90
       62
 94
      144
 90
        0
 90
       10
 90
        0
 90
        1
 90
        1
 90
       11
 90
       10
 90
       11
 90
        1
 90
        2
 90
        2
 90
       12
 90
       11
 90
       12
 90
       97
 90
      101
 90
        3
 90
       97
 90
        3
 90
       13
 90
       13
 90
      101
 90
      105
 90
      107
 90
       98
 90
      105
 90
       98
 90
      102
 90
      102
 90
      107
 90
        4
 90
       14
 90
        4
 90
        5
 90
        5
 90
       15
 90
       14
 90
       15
 90
       99
 90
      103
 90
        6
 90
       99
 90
        6
 90
       16
 90
       16
 90
      103
 90
      106
 90
      108
 90
      100
 90
      106
 90
      100
 90
      104
 90
      104
 90
      108
 90
        7
 90
       17
 90
        7
 90
        8
 90
        8
 90
       18
 90
       17
 90
       18
 90
        8
 90
        9
 90
        9
 90
       19
 90
       18
 90
       19
 90
       20
 90
       83
 90
       83
 90
       96
 90
       95
 90
       96
 90
       20
 90
       95
 90
       21
 90
       84
 90
       84
 90
       85
 90
       22
 90
       85
 90
       21
 90
       22
 90
       85
 90
       86
 90
       23
 90
       86
 90
       22
 90
       23
 90
       86
 90
       87
 90
       24
 90
       87
 90
       23
 90
       24
 90
       87
 90
       88
 90
       25
 90
       88
 90
       24
 90
       25
 90
       88
 90
       89
 90
       26
 90
       89
 90
       25
 90
       26
 90
       89
 90
       90
 90
       27
 90
       90
 90
       26
 90
       27
 90
       90
 90
       91
 90
       28
 90
       91
 90
       27
 90
       28
 90
       93
 90
       94
 90
       92
 90
       94
 90
       29
 90
       92
 90
       29
 90
       93
 90
       63
 90
       73
 90
       63
 90
       64
 90
       64
 90
       74
 90
       73
 90
       74
 90
       64
 90
       65
 90
       65
 90
       75
 90
       74
 90
       75
 90
       65
 90
       66
 90
       66
 90
       76
 90
       75
 90
       76
 90
       66
 90
       67
 90
       67
 90
       77
 90
       76
 90
       77
 90
       67
 90
       68
 90
       68
 90
       78
 90
       77
 90
       78
 90
       68
 90
       69
 90
       69
 90
       79
 90
       78
 90
       79
 90
       69
 90
       70
 90
       70
 90
       80
 90
       79
 90
       80
 90
       70
 90
       71
 90
       71
 90
       81
 90
       80
 90
       81
 90
       71
 90
       72
 90
       72
 90
       82
 90
       81
 90
       82
 90
       30
 90
       41
 90
       30
 90
       31
 90
       31
 90
       42
 90
       41
 90
       42
 90
       31
 90
       32
 90
       32
 90
       43
 90
       42
 90
       43
 90
       32
 90
       33
 90
       33
 90
       44
 90
       43
 90
       44
 90
       33
 90
       34
 90
       34
 90
       45
 90
       44
 90
       45
 90
       34
 90
       35
 90
       35
 90
       46
 90
       45
 90
       46
 90
       35
 90
       36
 90
       36
 90
       47
 90
       46
 90
       47
 90
       36
 90
       37
 90
       37
 90
       48
 90
       47
 90
       48
 90
       37
 90
       38
 90
       38
 90
       49
 90
       48
 90
       49
 90
       38
 90
       39
 90
       39
 90
       50
 90
       49
 90
       50
 90
       39
 90
       40
 90
       40
 90
       51
 90
       50
 90
       51
 90
       41
 90
       52
 90
       42
 90
       53
 90
       52
 90
       53
 90
       43
 90
       54
 90
       53
 90
       54
 90
       44
 90
       55
 90
       54
 90
       55
 90
       45
 90
       56
 90
       55
 90
       56
 90
       46
 90
       57
 90
       56
 90
       57
 90
       47
 90
       58
 90
       57
 90
       58
 90
       48
 90
       59
 90
       58
 90
       59
 90
       49
 90
       60
 90
       59
 90
       60
 90
       50
 90
       61
 90
       60
 90
       61
 90
       51
 90
       62
 90
       61
 90
       62
 95
      144
140
0.0
140
0.0
140
0.0
140
0.0
140
0.0
140
0.0
140
0.0
140
0.0
140
0.0
140
0.0
140
0.0
140
0.0
140
0.0
140
0.0
140
0.0
140
0.0
140
0.0
140
0.0
140
0.0
140
0.0
140
0.0
140
0.0
140
0.0
140
0.0
140
0.0
140
0.0
140
0.0
140
0.0
140
0.0
140
0.0
140
0.0
140
0.0
140
0.0
140
0.0
140
0.0
140
0.0
140
0.0
140
0.0
140
0.0
140
0.0
140
0.0
140
0.0
140
0.0
140
0.0
140
0.0
140
0.0
140
0.0
140
0.0
140
0.0
140
0.0
140
0.0
140
0.0
140
0.0
140
0.0
140
0.0
140
0.0
140
0.0
140
0.0
140
0.0
140
0.0
140
0.0
140
0.0
140
0.0
140
0.0
140
0.0
140
0.0
140
0.0
140
0.0
140
0.0
140
0.0
140
0.0
140
0.0
140
0.0
140
0.0
140
0.0
140
0.0
140
0.0
140
0.0
140
0.0
140
0.0
140
0.0
140
0.0
140
0.0
140
0.0
140
0.0
140
0.0
140
0.0
140
0.0
140
0.0
140
0.0
140
0.0
140
0.0
140
0.0
140
0.0
140
0.0
140
0.0
140
0.0
140
0.0
140
0.0
140
0.0
140
0.0
140
0.0
140
0.0
140
0.0
140
0.0
140
0.0
140
0.0
140
0.0
140
0.0
140
0.0
140
0.0
140
0.0
140
0.0
140
0.0
140
0.0
140
0.0
140
0.0
140
0.0
140
0.0
140
0.0
140
0.0
140
0.0
140
0.0
140
0.0
140
0.0
140
0.0
140
0.0
140
0.0
140
0.0
140
0.0
140
0.0
140
0.0
140
0.0
140
0.0
140
0.0
140
0.0
140
0.0
140
0.0
140
0.0
140
0.0
140
0.0
140
0.0
140
0.0
140
0.0
 90
        0
  0
ENDSEC
  0
SECTION
  2
OBJECTS
  0
DICTIONARY
  5
C
330
0
100
AcDbDictionary
281
     1
  3
ACAD_COLOR
350
DC
  3
ACAD_DETAILVIEWSTYLE
350
F5
  3
ACAD_GROUP
350
D
  3
ACAD_LAYOUT
350
1A
  3
ACAD_MATERIAL
350
AA
  3
ACAD_MLEADERSTYLE
350
F1
  3
ACAD_MLINESTYLE
350
17
  3
ACAD_PLOTSETTINGS
350
19
  3
ACAD_PLOTSTYLENAME
350
E
  3
ACAD_SCALELIST
350
DF
  3
ACAD_SECTIONVIEWSTYLE
350
F3
  3
ACAD_TABLESTYLE
350
DD
  3
ACAD_VISUALSTYLE
350
C3
  3
ACDB_RECOMPOSE_DATA
350
109
  3
AcDbVariableDictionary
350
F9
  0
DICTIONARY
  5
DC
102
{ACAD_REACTORS
330
C
102
}
330
C
100
AcDbDictionary
281
     1
  0
DICTIONARY
  5
F5
102
{ACAD_REACTORS
330
C
102
}
330
C
100
AcDbDictionary
281
     1
  3
Imperial24
350
F6
  0
DICTIONARY
  5
D
102
{ACAD_REACTORS
330
C
102
}
330
C
100
AcDbDictionary
281
     1
  0
DICTIONARY
  5
1A
102
{ACAD_REACTORS
330
C
102
}
330
C
100
AcDbDictionary
281
     1
  3
Layout1
350
1E
  3
Layout2
350
26
  3
Model
350
22
  0
DICTIONARY
  5
AA
102
{ACAD_REACTORS
330
C
102
}
330
C
100
AcDbDictionary
281
     1
  3
ByBlock
350
B3
  3
ByLayer
350
AB
  3
Global
350
BB
  0
DICTIONARY
  5
F1
102
{ACAD_REACTORS
330
C
102
}
330
C
100
AcDbDictionary
281
     1
  3
Standard
350
F2
  0
DICTIONARY
  5
17
102
{ACAD_REACTORS
330
C
102
}
330
C
100
AcDbDictionary
281
     1
  3
Standard
350
18
  0
DICTIONARY
  5
19
102
{ACAD_REACTORS
330
C
102
}
330
C
100
AcDbDictionary
281
     1
  0
ACDBDICTIONARYWDFLT
  5
E
102
{ACAD_REACTORS
330
C
102
}
330
C
100
AcDbDictionary
281
     1
  3
ByLayer
350
2D
  3
Normal
350
F
100
AcDbDictionaryWithDefault
340
F
  0
DICTIONARY
  5
DF
102
{ACAD_REACTORS
330
C
102
}
330
C
100
AcDbDictionary
281
     1
  3
A0
350
E0
  3
A1
350
E1
  3
A2
350
E2
  3
A3
350
E3
  3
A4
350
E4
  3
A5
350
E5
  3
A6
350
E6
  3
A7
350
E7
  3
A8
350
E8
  3
A9
350
E9
  3
B0
350
EA
  3
B1
350
EB
  3
B2
350
EC
  3
B3
350
ED
  3
B4
350
EE
  3
B5
350
EF
  3
B6
350
F0
  0
DICTIONARY
  5
F3
102
{ACAD_REACTORS
330
C
102
}
330
C
100
AcDbDictionary
281
     1
  3
Imperial24
350
F4
  0
DICTIONARY
  5
DD
102
{ACAD_REACTORS
330
C
102
}
330
C
100
AcDbDictionary
281
     1
  3
Standard
350
DE
  0
DICTIONARY
  5
C3
102
{ACAD_REACTORS
330
C
102
}
330
C
100
AcDbDictionary
281
     1
  3
2dWireframe
350
C9
  3
Basic
350
C8
  3
Brighten
350
CF
  3
ColorChange
350
D3
  3
Conceptual
350
CC
  3
Dim
350
CE
  3
EdgeColorOff
350
DB
  3
Facepattern
350
D2
  3
Flat
350
C4
  3
FlatWithEdges
350
C5
  3
Gouraud
350
C6
  3
GouraudWithEdges
350
C7
  3
Hidden
350
CB
  3
JitterOff
350
D9
  3
Linepattern
350
D1
  3
OverhangOff
350
DA
  3
Realistic
350
CD
  3
Shaded
350
D8
  3
Shaded with edges
350
D7
  3
Shades of Gray
350
D4
  3
Sketchy
350
D5
  3
Thicken
350
D0
  3
Wireframe
350
CA
  3
X-Ray
350
D6
  0
XRECORD
  5
109
102
{ACAD_REACTORS
330
C
102
}
330
C
100
AcDbXrecord
280
     1
 90
        1
330
DE
330
F4
330
F6
330
F8
  0
DICTIONARY
  5
F9
102
{ACAD_REACTORS
330
C
102
}
330
C
100
AcDbDictionary
281
     1
  3
CANNOSCALE
350
FF
  3
CMLEADERSTYLE
350
FB
  3
CTABLESTYLE
350
FA
  3
CVIEWDETAILSTYLE
350
FC
  3
CVIEWSECTIONSTYLE
350
FD
  3
LAYEREVAL
350
101
  3
LAYERNOTIFY
350
102
  3
LIGHTINGUNITS
350
100
  3
MSLTSCALE
350
FE
  0
ACDBDETAILVIEWSTYLE
  5
F6
102
{ACAD_XDICTIONARY
360
107
102
}
102
{ACAD_REACTORS
330
F5
102
}
330
F5
100
AcDbModelDocViewStyle
 70
     0
  3
Imperial24
290
     0
100
AcDbDetailViewStyle
 70
     0
 71
     0
 90
        3
 71
     1
340
11
 62
   256
 40
0.24
340
0
 62
   256
 40
0.24
300

 40
0.36
280
     3
 71
     2
340
16
 90
       25
 62
   256
 71
     3
340
11
 62
   256
 40
0.24
 90
        1
 40
0.75
 90
        1
300
%<\AcVar ViewType \f "%tc1">% %<\AcVar ViewDetailId>%\PSCALE %<\AcVar ViewScale \f "%sn">%
 71
     4
340
16
 90
       25
 62
   256
340
16
 90
       25
 62
   256
280
     0
  0
LAYOUT
  5
1E
102
{ACAD_REACTORS
330
1A
102
}
330
1A
100
AcDbPlotSettings
  1

  2
\\KTXNTBDC\CASF2PN1
  4

  6

 40
0.0
 41
0.0
 42
0.0
 43
0.0
 44
0.0
 45
0.0
 46
0.0
 47
0.0
 48
0.0
 49
0.0
140
0.0
141
0.0
142
1.0
143
1.0
 70
   688
 72
     0
 73
     0
 74
     5
  7

 75
    16
147
1.0
 76
     0
 77
     2
 78
   300
148
0.0
149
0.0
100
AcDbLayout
  1
Layout1
 70
     1
 71
     1
 10
0.0
 20
0.0
 11
12.0
 21
9.0
 12
0.0
 22
0.0
 32
0.0
 14
1.000000000000000E+20
 24
1.000000000000000E+20
 34
1.000000000000000E+20
 15
-1.000000000000000E+20
 25
-1.000000000000000E+20
 35
-1.000000000000000E+20
146
0.0
 13
0.0
 23
0.0
 33
0.0
 16
1.0
 26
0.0
 36
0.0
 17
0.0
 27
1.0
 37
0.0
 76
     0
330
1B
  0
LAYOUT
  5
26
102
{ACAD_REACTORS
330
1A
102
}
330
1A
100
AcDbPlotSettings
  1

  2
\\KTXNTBDC\CASF2PN1
  4

  6

 40
0.0
 41
0.0
 42
0.0
 43
0.0
 44
0.0
 45
0.0
 46
0.0
 47
0.0
 48
0.0
 49
0.0
140
0.0
141
0.0
142
1.0
143
1.0
 70
   688
 72
     0
 73
     0
 74
     5
  7

 75
    16
147
1.0
 76
     0
 77
     2
 78
   300
148
0.0
149
0.0
100
AcDbLayout
  1
Layout2
 70
     1
 71
     2
 10
0.0
 20
0.0
 11
12.0
 21
9.0
 12
0.0
 22
0.0
 32
0.0
 14
0.0
 24
0.0
 34
0.0
 15
0.0
 25
0.0
 35
0.0
146
0.0
 13
0.0
 23
0.0
 33
0.0
 16
1.0
 26
0.0
 36
0.0
 17
0.0
 27
1.0
 37
0.0
 76
     0
330
23
  0
LAYOUT
  5
22
102
{ACAD_REACTORS
330
1A
102
}
330
1A
100
AcDbPlotSettings
  1

  2
\\KTXNTBDC\CASF2PN1
  4

  6

 40
0.0
 41
0.0
 42
0.0
 43
0.0
 44
0.0
 45
0.0
 46
0.0
 47
0.0
 48
0.0
 49
0.0
140
0.0
141
0.0
142
1.0
143
1.0
 70
  1712
 72
     0
 73
     0
 74
     0
  7

 75
     0
147
1.0
 76
     0
 77
     2
 78
   300
148
0.0
149
0.0
100
AcDbLayout
  1
Model
 70
     1
 71
     0
 10
0.0
 20
0.0
 11
12.0
 21
9.0
 12
0.0
 22
0.0
 32
0.0
 14
0.0
 24
0.0
 34
0.0
 15
0.0
 25
0.0
 35
0.0
146
0.0
 13
0.0
 23
0.0
 33
0.0
 16
1.0
 26
0.0
 36
0.0
 17
0.0
 27
1.0
 37
0.0
 76
     0
330
1F
  0
MATERIAL
  5
B3
102
{ACAD_XDICTIONARY
360
B4
102
}
102
{ACAD_REACTORS
330
AA
102
}
330
AA
100
AcDbMaterial
  1
ByBlock
 72
     0
 43
0.0208333333333333
 43
0.0
 43
0.0
 43
0.0
 43
0.0
 43
0.0208333333333333
 43
0.0
 43
0.0
 43
0.0
 43
0.0
 43
1.0
 43
0.0
 43
0.0
 43
0.0
 43
0.0
 43
1.0
 77
     0
 47
0.0208333333333333
 47
0.0
 47
0.0
 47
0.0
 47
0.0
 47
0.0208333333333333
 47
0.0
 47
0.0
 47
0.0
 47
0.0
 47
1.0
 47
0.0
 47
0.0
 47
0.0
 47
0.0
 47
1.0
171
     0
 49
0.0208333333333333
 49
0.0
 49
0.0
 49
0.0
 49
0.0
 49
0.0208333333333333
 49
0.0
 49
0.0
 49
0.0
 49
0.0
 49
1.0
 49
0.0
 49
0.0
 49
0.0
 49
0.0
 49
1.0
175
     0
142
0.0208333333333333
142
0.0
142
0.0
142
0.0
142
0.0
142
0.0208333333333333
142
0.0
142
0.0
142
0.0
142
0.0
142
1.0
142
0.0
142
0.0
142
0.0
142
0.0
142
1.0
179
     0
144
0.0208333333333333
144
0.0
144
0.0
144
0.0
144
0.0
144
0.0208333333333333
144
0.0
144
0.0
144
0.0
144
0.0
144
1.0
144
0.0
144
0.0
144
0.0
144
0.0
144
1.0
147
0.0208333333333333
147
0.0
147
0.0
147
0.0
147
0.0
147
0.0208333333333333
147
0.0
147
0.0
147
0.0
147
0.0
147
1.0
147
0.0
147
0.0
147
0.0
147
0.0
147
1.0
  0
MATERIAL
  5
AB
102
{ACAD_XDICTIONARY
360
AC
102
}
102
{ACAD_REACTORS
330
AA
102
}
330
AA
100
AcDbMaterial
  1
ByLayer
 72
     0
 43
0.0208333333333333
 43
0.0
 43
0.0
 43
0.0
 43
0.0
 43
0.0208333333333333
 43
0.0
 43
0.0
 43
0.0
 43
0.0
 43
1.0
 43
0.0
 43
0.0
 43
0.0
 43
0.0
 43
1.0
 77
     0
 47
0.0208333333333333
 47
0.0
 47
0.0
 47
0.0
 47
0.0
 47
0.0208333333333333
 47
0.0
 47
0.0
 47
0.0
 47
0.0
 47
1.0
 47
0.0
 47
0.0
 47
0.0
 47
0.0
 47
1.0
171
     0
 49
0.0208333333333333
 49
0.0
 49
0.0
 49
0.0
 49
0.0
 49
0.0208333333333333
 49
0.0
 49
0.0
 49
0.0
 49
0.0
 49
1.0
 49
0.0
 49
0.0
 49
0.0
 49
0.0
 49
1.0
175
     0
142
0.0208333333333333
142
0.0
142
0.0
142
0.0
142
0.0
142
0.0208333333333333
142
0.0
142
0.0
142
0.0
142
0.0
142
1.0
142
0.0
142
0.0
142
0.0
142
0.0
142
1.0
179
     0
144
0.0208333333333333
144
0.0
144
0.0
144
0.0
144
0.0
144
0.0208333333333333
144
0.0
144
0.0
144
0.0
144
0.0
144
1.0
144
0.0
144
0.0
144
0.0
144
0.0
144
1.0
147
0.0208333333333333
147
0.0
147
0.0
147
0.0
147
0.0
147
0.0208333333333333
147
0.0
147
0.0
147
0.0
147
0.0
147
1.0
147
0.0
147
0.0
147
0.0
147
0.0
147
1.0
  0
MATERIAL
  5
BB
102
{ACAD_XDICTIONARY
360
BC
102
}
102
{ACAD_REACTORS
330
AA
102
}
330
AA
100
AcDbMaterial
  1
Global
 72
     0
 43
0.0208333333333333
 43
0.0
 43
0.0
 43
0.0
 43
0.0
 43
0.0208333333333333
 43
0.0
 43
0.0
 43
0.0
 43
0.0
 43
1.0
 43
0.0
 43
0.0
 43
0.0
 43
0.0
 43
1.0
 77
     0
 47
0.0208333333333333
 47
0.0
 47
0.0
 47
0.0
 47
0.0
 47
0.0208333333333333
 47
0.0
 47
0.0
 47
0.0
 47
0.0
 47
1.0
 47
0.0
 47
0.0
 47
0.0
 47
0.0
 47
1.0
171
     0
 49
0.0208333333333333
 49
0.0
 49
0.0
 49
0.0
 49
0.0
 49
0.0208333333333333
 49
0.0
 49
0.0
 49
0.0
 49
0.0
 49
1.0
 49
0.0
 49
0.0
 49
0.0
 49
0.0
 49
1.0
175
     0
142
0.0208333333333333
142
0.0
142
0.0
142
0.0
142
0.0
142
0.0208333333333333
142
0.0
142
0.0
142
0.0
142
0.0
142
1.0
142
0.0
142
0.0
142
0.0
142
0.0
142
1.0
179
     0
144
0.0208333333333333
144
0.0
144
0.0
144
0.0
144
0.0
144
0.0208333333333333
144
0.0
144
0.0
144
0.0
144
0.0
144
1.0
144
0.0
144
0.0
144
0.0
144
0.0
144
1.0
147
0.0208333333333333
147
0.0
147
0.0
147
0.0
147
0.0
147
0.0208333333333333
147
0.0
147
0.0
147
0.0
147
0.0
147
1.0
147
0.0
147
0.0
147
0.0
147
0.0
147
1.0
  0
MLEADERSTYLE
  5
F2
102
{ACAD_REACTORS
330
F1
102
}
330
F1
100
AcDbMLeaderStyle
179
     2
170
     2
171
     1
172
     0
 90
        2
 40
0.0
 41
0.0
173
     1
 91
-1056964608
340
14
 92
       -2
290
     1
 42
0.09
291
     1
 43
0.36
  3
Standard
 44
0.18
300

342
11
174
     1
178
     6
175
     1
176
     0
 93
-1056964608
 45
0.18
292
     0
297
     0
 46
0.18
 94
-1056964608
 47
1.0
 49
1.0
140
1.0
293
     1
141
0.0
294
     1
177
     0
142
1.0
295
     1
296
     0
143
0.125
271
     0
272
     9
273
     9
298
     1
  0
MLINESTYLE
  5
18
102
{ACAD_REACTORS
330
17
102
}
330
17
100
AcDbMlineStyle
  2
STANDARD
 70
     0
  3

 62
   256
 51
90.0
 52
90.0
 71
     2
 49
0.5
 62
   256
  6
BYLAYER
 49
-0.5
 62
   256
  6
BYLAYER
  0
ACDBPLACEHOLDER
  5
2D
102
{ACAD_REACTORS
330
E
102
}
330
E
  0
ACDBPLACEHOLDER
  5
F
102
{ACAD_REACTORS
330
E
102
}
330
E
  0
SCALE
  5
E0
102
{ACAD_REACTORS
330
DF
102
}
330
DF
100
AcDbScale
 70
     0
300
1:1
140
1.0
141
1.0
290
     1
  0
SCALE
  5
E1
102
{ACAD_REACTORS
330
DF
102
}
330
DF
100
AcDbScale
 70
     0
300
1/128" = 1'-0"
140
0.0078125
141
12.0
290
     0
  0
SCALE
  5
E2
102
{ACAD_REACTORS
330
DF
102
}
330
DF
100
AcDbScale
 70
     0
300
1/64" = 1'-0"
140
0.015625
141
12.0
290
     0
  0
SCALE
  5
E3
102
{ACAD_REACTORS
330
DF
102
}
330
DF
100
AcDbScale
 70
     0
300
1/32" = 1'-0"
140
0.03125
141
12.0
290
     0
  0
SCALE
  5
E4
102
{ACAD_REACTORS
330
DF
102
}
330
DF
100
AcDbScale
 70
     0
300
1/16" = 1'-0"
140
0.0625
141
12.0
290
     0
  0
SCALE
  5
E5
102
{ACAD_REACTORS
330
DF
102
}
330
DF
100
AcDbScale
 70
     0
300
3/32" = 1'-0"
140
0.09375
141
12.0
290
     0
  0
SCALE
  5
E6
102
{ACAD_REACTORS
330
DF
102
}
330
DF
100
AcDbScale
 70
     0
300
1/8" = 1'-0"
140
0.125
141
12.0
290
     0
  0
SCALE
  5
E7
102
{ACAD_REACTORS
330
DF
102
}
330
DF
100
AcDbScale
 70
     0
300
3/16" = 1'-0"
140
0.1875
141
12.0
290
     0
  0
SCALE
  5
E8
102
{ACAD_REACTORS
330
DF
102
}
330
DF
100
AcDbScale
 70
     0
300
1/4" = 1'-0"
140
0.25
141
12.0
290
     0
  0
SCALE
  5
E9
102
{ACAD_REACTORS
330
DF
102
}
330
DF
100
AcDbScale
 70
     0
300
3/8" = 1'-0"
140
0.375
141
12.0
290
     0
  0
SCALE
  5
EA
102
{ACAD_REACTORS
330
DF
102
}
330
DF
100
AcDbScale
 70
     0
300
1/2" = 1'-0"
140
0.5
141
12.0
290
     0
  0
SCALE
  5
EB
102
{ACAD_REACTORS
330
DF
102
}
330
DF
100
AcDbScale
 70
     0
300
3/4" = 1'-0"
140
0.75
141
12.0
290
     0
  0
SCALE
  5
EC
102
{ACAD_REACTORS
330
DF
102
}
330
DF
100
AcDbScale
 70
     0
300
1" = 1'-0"
140
1.0
141
12.0
290
     0
  0
SCALE
  5
ED
102
{ACAD_REACTORS
330
DF
102
}
330
DF
100
AcDbScale
 70
     0
300
1-1/2" = 1'-0"
140
1.5
141
12.0
290
     0
  0
SCALE
  5
EE
102
{ACAD_REACTORS
330
DF
102
}
330
DF
100
AcDbScale
 70
     0
300
3" = 1'-0"
140
3.0
141
12.0
290
     0
  0
SCALE
  5
EF
102
{ACAD_REACTORS
330
DF
102
}
330
DF
100
AcDbScale
 70
     0
300
6" = 1'-0"
140
6.0
141
12.0
290
     0
  0
SCALE
  5
F0
102
{ACAD_REACTORS
330
DF
102
}
330
DF
100
AcDbScale
 70
     0
300
1'-0" = 1'-0"
140
12.0
141
12.0
290
     0
  0
ACDBSECTIONVIEWSTYLE
  5
F4
102
{ACAD_XDICTIONARY
360
105
102
}
102
{ACAD_REACTORS
330
F3
102
}
330
F3
100
AcDbModelDocViewStyle
 70
     0
  3
Imperial24
290
     0
100
AcDbSectionViewStyle
 70
     0
 71
     0
 90
       78
 71
     1
340
11
 62
   256
 40
0.24
340
0
340
0
 62
   256
 40
0.24
300
I, O, Q, S, X, Z
 40
0.48
 90
        3
 40
0.18
 90
        1
 71
     2
340
16
 90
       25
 62
   256
340
16
 90
       50
 62
   256
 40
0.24
 40
0.0
 40
0.24
 71
     3
340
11
 62
   256
 40
0.24
 90
        1
 40
0.75
 90
        1
300
%<\AcVar ViewType \f "%tc1">% %<\AcVar ViewSectionStartId>%-%<\AcVar ViewSectionEndId>%\PSCALE %<\AcVar ViewScale \f "%sn">%
 71
     4
 62
   256
 62
   257
300
ANSI31
 40
1.0
 90
        0
290
     0
290
     0
 90
        6
 40
0.0
 40
1.570796326794896
 40
0.2617993877991494
 40
1.308996938995747
 40
-0.2617993877991494
 40
1.832595714594046
  0
TABLESTYLE
  5
DE
102
{ACAD_XDICTIONARY
360
103
102
}
102
{ACAD_REACTORS
330
DD
102
}
330
DD
100
AcDbTableStyle
280
     0
  3
Standard
 70
     0
 71
     0
 40
0.06
 41
0.06
280
     0
281
     0
  7
Standard
140
0.18
170
     2
 62
     0
 63
     7
283
     0
 90
      512
 91
        0
  1

274
    -2
284
     1
 64
     0
275
    -2
285
     1
 65
     0
276
    -2
286
     1
 66
     0
277
    -2
287
     1
 67
     0
278
    -2
288
     1
 68
     0
279
    -2
289
     1
 69
     0
  7
Standard
140
0.25
170
     5
 62
     0
 63
     7
283
     0
 90
      512
 91
        0
  1

274
    -2
284
     1
 64
     0
275
    -2
285
     1
 65
     0
276
    -2
286
     1
 66
     0
277
    -2
287
     1
 67
     0
278
    -2
288
     1
 68
     0
279
    -2
289
     1
 69
     0
  7
Standard
140
0.18
170
     5
 62
     0
 63
     7
283
     0
 90
      512
 91
        0
  1

274
    -2
284
     1
 64
     0
275
    -2
285
     1
 65
     0
276
    -2
286
     1
 66
     0
277
    -2
287
     1
 67
     0
278
    -2
288
     1
 68
     0
279
    -2
289
     1
 69
     0
  0
VISUALSTYLE
  5
C9
102
{ACAD_REACTORS
330
C3
102
}
330
C3
100
AcDbVisualStyle
  2
2dWireframe
 70
     4
177
     3
291
     0
 70
    58
 90
        0
176
     1
 90
        2
176
     1
 90
        0
176
     1
 90
        0
176
     1
 40
0.6
176
     1
 40
30.0
176
     1
 62
     7
420
 16777215
176
     1
 90
        1
176
     1
 90
        4
176
     1
 62
     7
176
     1
 62
   257
176
     1
 90
        1
176
     1
 90
        1
176
     1
 40
1.0
176
     1
 90
        0
176
     1
 62
   257
176
     1
 40
1.0
176
     1
 90
        1
176
     1
 90
        6
176
     1
 90
        2
176
     1
 62
     7
176
     1
 90
        5
176
     1
 90
        0
176
     1
 90
        0
176
     1
290
     0
176
     1
 90
        1
176
     1
 40
0.0
176
     1
 90
        0
176
     1
290
     1
176
     1
290
     1
176
     1
290
     0
176
     1
290
     0
176
     1
290
     0
176
     1
290
     0
176
     1
290
     0
176
     1
290
     0
176
     1
290
     0
176
     1
 90
       50
176
     1
 40
0.0
176
     1
 40
1.0
176
     1
 90
        0
176
     1
 62
    18
420
        0
176
     1
 90
       50
176
     1
 90
        3
176
     1
 62
     5
420
      255
176
     1
290
     0
176
     1
 90
       50
176
     1
 90
       50
176
     1
 90
       50
176
     1
290
     0
176
     1
 90
       50
176
     1
 62
   256
176
     0
 40
1.0
176
     0
 90
        2
176
     1
  1
strokes_ogs.tif
176
     1
290
     0
176
     1
 40
1.0
176
     1
 40
1.0
176
     1
  0
VISUALSTYLE
  5
C8
102
{ACAD_REACTORS
330
C3
102
}
330
C3
100
AcDbVisualStyle
  2
Basic
 70
     7
177
     3
291
     1
 70
    58
 90
        1
176
     1
 90
        0
176
     1
 90
        1
176
     1
 90
        0
176
     1
 40
0.6
176
     1
 40
30.0
176
     1
 62
     7
420
 16777215
176
     1
 90
        0
176
     1
 90
        4
176
     1
 62
     7
176
     1
 62
   257
176
     1
 90
        1
176
     1
 90
        1
176
     1
 40
1.0
176
     1
 90
        8
176
     1
 62
     7
176
     1
 40
1.0
176
     1
 90
        1
176
     1
 90
        6
176
     1
 90
        2
176
     1
 62
     7
176
     1
 90
        5
176
     1
 90
        0
176
     1
 90
        0
176
     1
290
     0
176
     1
 90
        1
176
     1
 40
0.0
176
     1
 90
        0
176
     1
290
     0
176
     1
290
     1
176
     1
290
     1
176
     1
290
     0
176
     1
290
     0
176
     1
290
     0
176
     1
290
     0
176
     1
290
     0
176
     1
290
     0
176
     1
 90
       50
176
     1
 40
0.0
176
     1
 40
1.0
176
     1
 90
        0
176
     1
 62
    18
420
        0
176
     1
 90
       50
176
     1
 90
        3
176
     1
 62
     5
420
      255
176
     1
290
     0
176
     1
 90
       50
176
     1
 90
       50
176
     1
 90
       50
176
     1
290
     0
176
     1
 90
       50
176
     1
 62
   256
176
     0
 40
1.0
176
     0
 90
        2
176
     1
  1
strokes_ogs.tif
176
     1
290
     0
176
     1
 40
1.0
176
     1
 40
1.0
176
     1
  0
VISUALSTYLE
  5
CF
102
{ACAD_REACTORS
330
C3
102
}
330
C3
100
AcDbVisualStyle
  2
Brighten
 70
    12
177
     3
291
     1
 70
    58
 90
        2
176
     1
 90
        2
176
     1
 90
        0
176
     1
 90
        0
176
     1
 40
0.6
176
     1
 40
30.0
176
     1
 62
     7
420
 16777215
176
     1
 90
        1
176
     1
 90
        4
176
     1
 62
     7
176
     1
 62
   257
176
     1
 90
        1
176
     1
 90
        1
176
     1
 40
1.0
176
     1
 90
        8
176
     1
 62
     7
176
     1
 40
1.0
176
     1
 90
        1
176
     1
 90
        6
176
     1
 90
        2
176
     1
 62
     7
176
     1
 90
        5
176
     1
 90
        0
176
     1
 90
        0
176
     1
290
     0
176
     1
 90
        1
176
     1
 40
50.0
176
     1
 90
        0
176
     1
290
     0
176
     1
290
     1
176
     1
290
     1
176
     1
290
     0
176
     1
290
     0
176
     1
290
     0
176
     1
290
     0
176
     1
290
     0
176
     1
290
     0
176
     1
 90
       50
176
     1
 40
0.0
176
     1
 40
1.0
176
     1
 90
        0
176
     1
 62
    18
420
        0
176
     1
 90
       50
176
     1
 90
        3
176
     1
 62
     5
420
      255
176
     1
290
     0
176
     1
 90
       50
176
     1
 90
       50
176
     1
 90
       50
176
     1
290
     0
176
     1
 90
       50
176
     1
 62
   256
176
     0
 40
1.0
176
     0
 90
        2
176
     1
  1
strokes_ogs.tif
176
     1
290
     0
176
     1
 40
1.0
176
     1
 40
1.0
176
     1
  0
VISUALSTYLE
  5
D3
102
{ACAD_REACTORS
330
C3
102
}
330
C3
100
AcDbVisualStyle
  2
ColorChange
 70
    16
177
     3
291
     1
 70
    58
 90
        2
176
     1
 90
        2
176
     1
 90
        3
176
     1
 90
        0
176
     1
 40
0.6
176
     1
 40
30.0
176
     1
 62
     8
420
  8421504
176
     1
 90
        1
176
     1
 90
        4
176
     1
 62
     7
176
     1
 62
   257
176
     1
 90
        1
176
     1
 90
        1
176
     1
 40
1.0
176
     1
 90
        8
176
     1
 62
     8
420
  8421504
176
     1
 40
1.0
176
     1
 90
        1
176
     1
 90
        6
176
     1
 90
        2
176
     1
 62
     7
176
     1
 90
        5
176
     1
 90
        0
176
     1
 90
        0
176
     1
290
     0
176
     1
 90
        1
176
     1
 40
0.0
176
     1
 90
        0
176
     1
290
     0
176
     1
290
     1
176
     1
290
     1
176
     1
290
     0
176
     1
290
     0
176
     1
290
     0
176
     1
290
     0
176
     1
290
     0
176
     1
290
     0
176
     1
 90
       50
176
     1
 40
0.0
176
     1
 40
1.0
176
     1
 90
        0
176
     1
 62
    18
420
        0
176
     1
 90
       50
176
     1
 90
        3
176
     1
 62
     5
420
      255
176
     1
290
     0
176
     1
 90
       50
176
     1
 90
       50
176
     1
 90
       50
176
     1
290
     0
176
     1
 90
       50
176
     1
 62
   256
176
     0
 40
1.0
176
     0
 90
        2
176
     1
  1
strokes_ogs.tif
176
     1
290
     0
176
     1
 40
1.0
176
     1
 40
1.0
176
     1
  0
VISUALSTYLE
  5
CC
102
{ACAD_REACTORS
330
C3
102
}
330
C3
100
AcDbVisualStyle
  2
Conceptual
 70
     9
177
     3
291
     0
 70
    58
 90
        3
176
     1
 90
        2
176
     1
 90
        0
176
     1
 90
        0
176
     1
 40
0.6
176
     1
 40
30.0
176
     1
 62
     7
420
 16777215
176
     1
 90
        2
176
     1
 90
        2
176
     1
 62
     7
176
     1
 62
   257
176
     1
 90
        1
176
     1
 90
        1
176
     1
 40
179.0
176
     1
 90
        8
176
     1
 62
     7
176
     1
 40
1.0
176
     1
 90
        1
176
     1
 90
        6
176
     1
 90
        2
176
     1
 62
     7
176
     1
 90
        3
176
     1
 90
        0
176
     1
 90
        0
176
     1
290
     0
176
     1
 90
        1
176
     1
 40
0.0
176
     1
 90
        0
176
     1
290
     0
176
     1
290
     1
176
     1
290
     1
176
     1
290
     0
176
     1
290
     0
176
     1
290
     0
176
     1
290
     0
176
     1
290
     0
176
     1
290
     0
176
     1
 90
       50
176
     1
 40
0.0
176
     1
 40
1.0
176
     1
 90
        0
176
     1
 62
    18
420
        0
176
     1
 90
       50
176
     1
 90
        3
176
     1
 62
     5
420
      255
176
     1
290
     0
176
     1
 90
       50
176
     1
 90
       50
176
     1
 90
       50
176
     1
290
     0
176
     1
 90
       50
176
     1
 62
   256
176
     0
 40
1.0
176
     0
 90
        2
176
     1
  1
strokes_ogs.tif
176
     1
290
     0
176
     1
 40
1.0
176
     1
 40
1.0
176
     1
  0
VISUALSTYLE
  5
CE
102
{ACAD_REACTORS
330
C3
102
}
330
C3
100
AcDbVisualStyle
  2
Dim
 70
    11
177
     3
291
     1
 70
    58
 90
        2
176
     1
 90
        2
176
     1
 90
        0
176
     1
 90
        0
176
     1
 40
0.6
176
     1
 40
30.0
176
     1
 62
     7
420
 16777215
176
     1
 90
        1
176
     1
 90
        4
176
     1
 62
     7
176
     1
 62
   257
176
     1
 90
        1
176
     1
 90
        1
176
     1
 40
1.0
176
     1
 90
        8
176
     1
 62
     7
176
     1
 40
1.0
176
     1
 90
        1
176
     1
 90
        6
176
     1
 90
        2
176
     1
 62
     7
176
     1
 90
        5
176
     1
 90
        0
176
     1
 90
        0
176
     1
290
     0
176
     1
 90
        1
176
     1
 40
-50.0
176
     1
 90
        0
176
     1
290
     0
176
     1
290
     1
176
     1
290
     1
176
     1
290
     0
176
     1
290
     0
176
     1
290
     0
176
     1
290
     0
176
     1
290
     0
176
     1
290
     0
176
     1
 90
       50
176
     1
 40
0.0
176
     1
 40
1.0
176
     1
 90
        0
176
     1
 62
    18
420
        0
176
     1
 90
       50
176
     1
 90
        3
176
     1
 62
     5
420
      255
176
     1
290
     0
176
     1
 90
       50
176
     1
 90
       50
176
     1
 90
       50
176
     1
290
     0
176
     1
 90
       50
176
     1
 62
   256
176
     0
 40
1.0
176
     0
 90
        2
176
     1
  1
strokes_ogs.tif
176
     1
290
     0
176
     1
 40
1.0
176
     1
 40
1.0
176
     1
  0
VISUALSTYLE
  5
DB
102
{ACAD_REACTORS
330
C3
102
}
330
C3
100
AcDbVisualStyle
  2
EdgeColorOff
 70
    22
177
     3
291
     1
 70
    58
 90
        2
176
     0
 90
        2
176
     0
 90
        0
176
     0
 90
        0
176
     0
 40
0.6
176
     0
 40
30.0
176
     0
 62
     7
420
 16777215
176
     0
 90
        1
176
     0
 90
        4
176
     0
 62
     7
176
     0
 62
   257
176
     0
 90
        1
176
     0
 90
        1
176
     0
 40
1.0
176
     0
 90
        8
176
     2
 62
     7
176
     0
 40
1.0
176
     0
 90
        1
176
     0
 90
        6
176
     0
 90
        2
176
     0
 62
     7
176
     0
 90
        5
176
     0
 90
        0
176
     0
 90
        0
176
     0
290
     0
176
     0
 90
        1
176
     0
 40
0.0
176
     0
 90
        0
176
     0
290
     0
176
     0
290
     1
176
     0
290
     1
176
     0
290
     0
176
     0
290
     0
176
     0
290
     0
176
     0
290
     0
176
     0
290
     0
176
     0
290
     0
176
     0
 90
       50
176
     0
 40
0.0
176
     0
 40
1.0
176
     0
 90
        0
176
     0
 62
    18
420
        0
176
     0
 90
       50
176
     0
 90
        3
176
     0
 62
     5
420
      255
176
     0
290
     0
176
     0
 90
       50
176
     0
 90
       50
176
     0
 90
       50
176
     0
290
     0
176
     0
 90
       50
176
     0
 62
   256
176
     0
 40
1.0
176
     0
 90
        2
176
     0
  1
strokes_ogs.tif
176
     0
290
     0
176
     0
 40
1.0
176
     0
 40
1.0
176
     0
  0
VISUALSTYLE
  5
D2
102
{ACAD_REACTORS
330
C3
102
}
330
C3
100
AcDbVisualStyle
  2
Facepattern
 70
    15
177
     3
291
     1
 70
    58
 90
        2
176
     1
 90
        2
176
     1
 90
        0
176
     1
 90
        0
176
     1
 40
0.6
176
     1
 40
30.0
176
     1
 62
     7
420
 16777215
176
     1
 90
        1
176
     1
 90
        4
176
     1
 62
     7
176
     1
 62
   257
176
     1
 90
        1
176
     1
 90
        1
176
     1
 40
1.0
176
     1
 90
        8
176
     1
 62
     7
176
     1
 40
1.0
176
     1
 90
        1
176
     1
 90
        6
176
     1
 90
        2
176
     1
 62
     7
176
     1
 90
        5
176
     1
 90
        0
176
     1
 90
        0
176
     1
290
     0
176
     1
 90
        1
176
     1
 40
0.0
176
     1
 90
        0
176
     1
290
     0
176
     1
290
     1
176
     1
290
     1
176
     1
290
     0
176
     1
290
     0
176
     1
290
     0
176
     1
290
     0
176
     1
290
     0
176
     1
290
     0
176
     1
 90
       50
176
     1
 40
0.0
176
     1
 40
1.0
176
     1
 90
        0
176
     1
 62
    18
420
        0
176
     1
 90
       50
176
     1
 90
        3
176
     1
 62
     5
420
      255
176
     1
290
     0
176
     1
 90
       50
176
     1
 90
       50
176
     1
 90
       50
176
     1
290
     0
176
     1
 90
       50
176
     1
 62
   256
176
     0
 40
1.0
176
     0
 90
        2
176
     1
  1
strokes_ogs.tif
176
     1
290
     0
176
     1
 40
1.0
176
     1
 40
1.0
176
     1
  0
VISUALSTYLE
  5
C4
102
{ACAD_REACTORS
330
C3
102
}
330
C3
100
AcDbVisualStyle
  2
Flat
 70
     0
177
     3
291
     1
 70
    58
 90
        2
176
     1
 90
        1
176
     1
 90
        1
176
     1
 90
        2
176
     1
 40
0.6
176
     1
 40
30.0
176
     1
 62
     7
420
 16777215
176
     1
 90
        0
176
     1
 90
        0
176
     1
 62
     7
176
     1
 62
   257
176
     1
 90
        1
176
     1
 90
        1
176
     1
 40
1.0
176
     1
 90
        8
176
     1
 62
     7
176
     1
 40
1.0
176
     1
 90
        1
176
     1
 90
        6
176
     1
 90
        2
176
     1
 62
     7
176
     1
 90
        5
176
     1
 90
        0
176
     1
 90
        0
176
     1
290
     0
176
     1
 90
       13
176
     1
 40
0.0
176
     1
 90
        0
176
     1
290
     0
176
     1
290
     1
176
     1
290
     1
176
     1
290
     0
176
     1
290
     0
176
     1
290
     0
176
     1
290
     0
176
     1
290
     0
176
     1
290
     0
176
     1
 90
       50
176
     1
 40
0.0
176
     1
 40
1.0
176
     1
 90
        0
176
     1
 62
    18
420
        0
176
     1
 90
       50
176
     1
 90
        3
176
     1
 62
     5
420
      255
176
     1
290
     0
176
     1
 90
       50
176
     1
 90
       50
176
     1
 90
       50
176
     1
290
     0
176
     1
 90
       50
176
     1
 62
   256
176
     0
 40
1.0
176
     0
 90
        2
176
     1
  1
strokes_ogs.tif
176
     1
290
     0
176
     1
 40
1.0
176
     1
 40
1.0
176
     1
  0
VISUALSTYLE
  5
C5
102
{ACAD_REACTORS
330
C3
102
}
330
C3
100
AcDbVisualStyle
  2
FlatWithEdges
 70
     1
177
     3
291
     1
 70
    58
 90
        2
176
     1
 90
        1
176
     1
 90
        1
176
     1
 90
        2
176
     1
 40
0.6
176
     1
 40
30.0
176
     1
 62
     7
420
 16777215
176
     1
 90
        1
176
     1
 90
        0
176
     1
 62
     7
176
     1
 62
   257
176
     1
 90
        1
176
     1
 90
        1
176
     1
 40
1.0
176
     1
 90
        0
176
     1
 62
   257
176
     1
 40
1.0
176
     1
 90
        1
176
     1
 90
        6
176
     1
 90
        2
176
     1
 62
     7
176
     1
 90
        5
176
     1
 90
        0
176
     1
 90
        0
176
     1
290
     0
176
     1
 90
       13
176
     1
 40
0.0
176
     1
 90
        0
176
     1
290
     0
176
     1
290
     1
176
     1
290
     1
176
     1
290
     0
176
     1
290
     0
176
     1
290
     0
176
     1
290
     0
176
     1
290
     0
176
     1
290
     0
176
     1
 90
       50
176
     1
 40
0.0
176
     1
 40
1.0
176
     1
 90
        0
176
     1
 62
    18
420
        0
176
     1
 90
       50
176
     1
 90
        3
176
     1
 62
     5
420
      255
176
     1
290
     0
176
     1
 90
       50
176
     1
 90
       50
176
     1
 90
       50
176
     1
290
     0
176
     1
 90
       50
176
     1
 62
   256
176
     0
 40
1.0
176
     0
 90
        2
176
     1
  1
strokes_ogs.tif
176
     1
290
     0
176
     1
 40
1.0
176
     1
 40
1.0
176
     1
  0
VISUALSTYLE
  5
C6
102
{ACAD_REACTORS
330
C3
102
}
330
C3
100
AcDbVisualStyle
  2
Gouraud
 70
     2
177
     3
291
     1
 70
    58
 90
        2
176
     1
 90
        2
176
     1
 90
        1
176
     1
 90
        2
176
     1
 40
0.6
176
     1
 40
30.0
176
     1
 62
     7
420
 16777215
176
     1
 90
        0
176
     1
 90
        0
176
     1
 62
     7
176
     1
 62
   257
176
     1
 90
        1
176
     1
 90
        1
176
     1
 40
1.0
176
     1
 90
        0
176
     1
 62
     7
176
     1
 40
1.0
176
     1
 90
        1
176
     1
 90
        6
176
     1
 90
        2
176
     1
 62
     7
176
     1
 90
        5
176
     1
 90
        0
176
     1
 90
        0
176
     1
290
     0
176
     1
 90
       13
176
     1
 40
0.0
176
     1
 90
        0
176
     1
290
     0
176
     1
290
     1
176
     1
290
     1
176
     1
290
     0
176
     1
290
     0
176
     1
290
     0
176
     1
290
     0
176
     1
290
     0
176
     1
290
     0
176
     1
 90
       50
176
     1
 40
0.0
176
     1
 40
1.0
176
     1
 90
        0
176
     1
 62
    18
420
        0
176
     1
 90
       50
176
     1
 90
        3
176
     1
 62
     5
420
      255
176
     1
290
     0
176
     1
 90
       50
176
     1
 90
       50
176
     1
 90
       50
176
     1
290
     0
176
     1
 90
       50
176
     1
 62
   256
176
     0
 40
1.0
176
     0
 90
        2
176
     1
  1
strokes_ogs.tif
176
     1
290
     0
176
     1
 40
1.0
176
     1
 40
1.0
176
     1
  0
VISUALSTYLE
  5
C7
102
{ACAD_REACTORS
330
C3
102
}
330
C3
100
AcDbVisualStyle
  2
GouraudWithEdges
 70
     3
177
     3
291
     1
 70
    58
 90
        2
176
     1
 90
        2
176
     1
 90
        1
176
     1
 90
        2
176
     1
 40
0.6
176
     1
 40
30.0
176
     1
 62
     7
420
 16777215
176
     1
 90
        1
176
     1
 90
        0
176
     1
 62
     7
176
     1
 62
   257
176
     1
 90
        1
176
     1
 90
        1
176
     1
 40
1.0
176
     1
 90
        0
176
     1
 62
   257
176
     1
 40
1.0
176
     1
 90
        1
176
     1
 90
        6
176
     1
 90
        2
176
     1
 62
     7
176
     1
 90
        5
176
     1
 90
        0
176
     1
 90
        0
176
     1
290
     0
176
     1
 90
       13
176
     1
 40
0.0
176
     1
 90
        0
176
     1
290
     0
176
     1
290
     1
176
     1
290
     1
176
     1
290
     0
176
     1
290
     0
176
     1
290
     0
176
     1
290
     0
176
     1
290
     0
176
     1
290
     0
176
     1
 90
       50
176
     1
 40
0.0
176
     1
 40
1.0
176
     1
 90
        0
176
     1
 62
    18
420
        0
176
     1
 90
       50
176
     1
 90
        3
176
     1
 62
     5
420
      255
176
     1
290
     0
176
     1
 90
       50
176
     1
 90
       50
176
     1
 90
       50
176
     1
290
     0
176
     1
 90
       50
176
     1
 62
   256
176
     0
 40
1.0
176
     0
 90
        2
176
     1
  1
strokes_ogs.tif
176
     1
290
     0
176
     1
 40
1.0
176
     1
 40
1.0
176
     1
  0
VISUALSTYLE
  5
CB
102
{ACAD_REACTORS
330
C3
102
}
330
C3
100
AcDbVisualStyle
  2
Hidden
 70
     6
177
     3
291
     0
 70
    58
 90
        1
176
     1
 90
        2
176
     1
 90
        2
176
     1
 90
        0
176
     1
 40
0.6
176
     1
 40
30.0
176
     1
 62
     7
420
 16777215
176
     1
 90
        2
176
     1
 90
        2
176
     1
 62
     7
176
     1
 62
   257
176
     1
 90
        2
176
     1
 90
        1
176
     1
 40
40.0
176
     1
 90
        0
176
     1
 62
   257
176
     1
 40
1.0
176
     1
 90
        1
176
     1
 90
        6
176
     1
 90
        2
176
     1
 62
     7
176
     1
 90
        3
176
     1
 90
        0
176
     1
 90
        0
176
     1
290
     0
176
     1
 90
        1
176
     1
 40
0.0
176
     1
 90
        0
176
     1
290
     0
176
     1
290
     1
176
     1
290
     1
176
     1
290
     0
176
     1
290
     0
176
     1
290
     0
176
     1
290
     0
176
     1
290
     0
176
     1
290
     0
176
     1
 90
       50
176
     1
 40
0.0
176
     1
 40
1.0
176
     1
 90
        0
176
     1
 62
    18
420
        0
176
     1
 90
       50
176
     1
 90
        3
176
     1
 62
     5
420
      255
176
     1
290
     0
176
     1
 90
       50
176
     1
 90
       50
176
     1
 90
       50
176
     1
290
     0
176
     1
 90
       50
176
     1
 62
   256
176
     0
 40
1.0
176
     0
 90
        2
176
     1
  1
strokes_ogs.tif
176
     1
290
     0
176
     1
 40
1.0
176
     1
 40
1.0
176
     1
  0
VISUALSTYLE
  5
D9
102
{ACAD_REACTORS
330
C3
102
}
330
C3
100
AcDbVisualStyle
  2
JitterOff
 70
    20
177
     3
291
     1
 70
    58
 90
        2
176
     0
 90
        2
176
     0
 90
        0
176
     0
 90
        0
176
     0
 40
0.6
176
     0
 40
30.0
176
     0
 62
     7
420
 16777215
176
     0
 90
        1
176
     0
 90
        4
176
     0
 62
     7
176
     0
 62
   257
176
     0
 90
        1
176
     0
 90
        1
176
     0
 40
1.0
176
     0
 90
       10
176
     2
 62
     7
176
     0
 40
1.0
176
     0
 90
        1
176
     0
 90
        6
176
     0
 90
        2
176
     0
 62
     7
176
     0
 90
        5
176
     0
 90
        0
176
     0
 90
        0
176
     0
290
     0
176
     0
 90
        1
176
     0
 40
0.0
176
     0
 90
        0
176
     0
290
     0
176
     0
290
     1
176
     0
290
     1
176
     0
290
     0
176
     0
290
     0
176
     0
290
     0
176
     0
290
     0
176
     0
290
     0
176
     0
290
     0
176
     0
 90
       50
176
     0
 40
0.0
176
     0
 40
1.0
176
     0
 90
        0
176
     0
 62
    18
420
        0
176
     0
 90
       50
176
     0
 90
        3
176
     0
 62
     5
420
      255
176
     0
290
     0
176
     0
 90
       50
176
     0
 90
       50
176
     0
 90
       50
176
     0
290
     0
176
     0
 90
       50
176
     0
 62
   256
176
     0
 40
1.0
176
     0
 90
        2
176
     0
  1
strokes_ogs.tif
176
     0
290
     0
176
     0
 40
1.0
176
     0
 40
1.0
176
     0
  0
VISUALSTYLE
  5
D1
102
{ACAD_REACTORS
330
C3
102
}
330
C3
100
AcDbVisualStyle
  2
Linepattern
 70
    14
177
     3
291
     1
 70
    58
 90
        2
176
     1
 90
        2
176
     1
 90
        0
176
     1
 90
        0
176
     1
 40
0.6
176
     1
 40
30.0
176
     1
 62
     7
420
 16777215
176
     1
 90
        1
176
     1
 90
        4
176
     1
 62
     7
176
     1
 62
   257
176
     1
 90
        7
176
     1
 90
        7
176
     1
 40
1.0
176
     1
 90
        8
176
     1
 62
     7
176
     1
 40
1.0
176
     1
 90
        1
176
     1
 90
        6
176
     1
 90
        2
176
     1
 62
     7
176
     1
 90
        5
176
     1
 90
        0
176
     1
 90
        0
176
     1
290
     0
176
     1
 90
        1
176
     1
 40
0.0
176
     1
 90
        0
176
     1
290
     0
176
     1
290
     1
176
     1
290
     1
176
     1
290
     0
176
     1
290
     0
176
     1
290
     0
176
     1
290
     0
176
     1
290
     0
176
     1
290
     0
176
     1
 90
       50
176
     1
 40
0.0
176
     1
 40
1.0
176
     1
 90
        0
176
     1
 62
    18
420
        0
176
     1
 90
       50
176
     1
 90
        3
176
     1
 62
     5
420
      255
176
     1
290
     0
176
     1
 90
       50
176
     1
 90
       50
176
     1
 90
       50
176
     1
290
     0
176
     1
 90
       50
176
     1
 62
   256
176
     0
 40
1.0
176
     0
 90
        2
176
     1
  1
strokes_ogs.tif
176
     1
290
     0
176
     1
 40
1.0
176
     1
 40
1.0
176
     1
  0
VISUALSTYLE
  5
DA
102
{ACAD_REACTORS
330
C3
102
}
330
C3
100
AcDbVisualStyle
  2
OverhangOff
 70
    21
177
     3
291
     1
 70
    58
 90
        2
176
     0
 90
        2
176
     0
 90
        0
176
     0
 90
        0
176
     0
 40
0.6
176
     0
 40
30.0
176
     0
 62
     7
420
 16777215
176
     0
 90
        1
176
     0
 90
        4
176
     0
 62
     7
176
     0
 62
   257
176
     0
 90
        1
176
     0
 90
        1
176
     0
 40
1.0
176
     0
 90
        9
176
     2
 62
     7
176
     0
 40
1.0
176
     0
 90
        1
176
     0
 90
        6
176
     0
 90
        2
176
     0
 62
     7
176
     0
 90
        5
176
     0
 90
        0
176
     0
 90
        0
176
     0
290
     0
176
     0
 90
        1
176
     0
 40
0.0
176
     0
 90
        0
176
     0
290
     0
176
     0
290
     1
176
     0
290
     1
176
     0
290
     0
176
     0
290
     0
176
     0
290
     0
176
     0
290
     0
176
     0
290
     0
176
     0
290
     0
176
     0
 90
       50
176
     0
 40
0.0
176
     0
 40
1.0
176
     0
 90
        0
176
     0
 62
    18
420
        0
176
     0
 90
       50
176
     0
 90
        3
176
     0
 62
     5
420
      255
176
     0
290
     0
176
     0
 90
       50
176
     0
 90
       50
176
     0
 90
       50
176
     0
290
     0
176
     0
 90
       50
176
     0
 62
   256
176
     0
 40
1.0
176
     0
 90
        2
176
     0
  1
strokes_ogs.tif
176
     0
290
     0
176
     0
 40
1.0
176
     0
 40
1.0
176
     0
  0
VISUALSTYLE
  5
CD
102
{ACAD_REACTORS
330
C3
102
}
330
C3
100
AcDbVisualStyle
  2
Realistic
 70
     8
177
     3
291
     0
 70
    58
 90
        2
176
     1
 90
        3
176
     1
 90
        0
176
     1
 90
        2
176
     1
 40
0.6
176
     1
 40
30.0
176
     1
 62
     7
420
 16777215
176
     1
 90
        0
176
     1
 90
        0
176
     1
 62
     7
176
     1
 62
   257
176
     1
 90
        1
176
     1
 90
        1
176
     1
 40
1.0
176
     1
 90
        8
176
     1
 62
   257
176
     1
 40
1.0
176
     1
 90
        1
176
     1
 90
        6
176
     1
 90
        2
176
     1
 62
     7
176
     1
 90
        3
176
     1
 90
        0
176
     1
 90
        0
176
     1
290
     0
176
     1
 90
       13
176
     1
 40
0.0
176
     1
 90
        0
176
     1
290
     0
176
     1
290
     1
176
     1
290
     1
176
     1
290
     0
176
     1
290
     0
176
     1
290
     0
176
     1
290
     0
176
     1
290
     0
176
     1
290
     0
176
     1
 90
       50
176
     1
 40
0.0
176
     1
 40
1.0
176
     1
 90
        0
176
     1
 62
    18
420
        0
176
     1
 90
       50
176
     1
 90
        3
176
     1
 62
     5
420
      255
176
     1
290
     0
176
     1
 90
       50
176
     1
 90
       50
176
     1
 90
       50
176
     1
290
     0
176
     1
 90
       50
176
     1
 62
   256
176
     0
 40
1.0
176
     0
 90
        2
176
     1
  1
strokes_ogs.tif
176
     1
290
     0
176
     1
 40
1.0
176
     1
 40
1.0
176
     1
  0
VISUALSTYLE
  5
D8
102
{ACAD_REACTORS
330
C3
102
}
330
C3
100
AcDbVisualStyle
  2
Shaded
 70
    27
177
     3
291
     0
 70
    58
 90
        2
176
     1
 90
        2
176
     1
 90
        1
176
     1
 90
        2
176
     1
 40
0.6
176
     1
 40
30.0
176
     1
 62
     7
420
 16777215
176
     1
 90
        0
176
     1
 90
        4
176
     1
 62
     7
176
     1
 62
   257
176
     1
 90
        1
176
     1
 90
        1
176
     1
 40
1.0
176
     1
 90
        8
176
     1
 62
   257
176
     1
 40
1.0
176
     1
 90
        1
176
     1
 90
        6
176
     1
 90
        2
176
     1
 62
     8
420
  7895160
176
     1
 90
        3
176
     1
 90
        0
176
     1
 90
        0
176
     1
290
     0
176
     1
 90
        5
176
     1
 40
0.0
176
     1
 90
        0
176
     1
290
     0
176
     1
290
     1
176
     1
290
     1
176
     1
290
     0
176
     1
290
     0
176
     1
290
     0
176
     1
290
     0
176
     1
290
     0
176
     1
290
     0
176
     1
 90
       50
176
     1
 40
0.0
176
     1
 40
1.0
176
     1
 90
        0
176
     1
 62
    18
420
        0
176
     1
 90
       50
176
     1
 90
        3
176
     1
 62
     5
420
      255
176
     1
290
     0
176
     1
 90
       50
176
     1
 90
       50
176
     1
 90
       50
176
     1
290
     0
176
     1
 90
       50
176
     1
 62
   256
176
     0
 40
1.0
176
     0
 90
        2
176
     1
  1
strokes_ogs.tif
176
     1
290
     0
176
     1
 40
1.0
176
     1
 40
1.0
176
     1
  0
VISUALSTYLE
  5
D7
102
{ACAD_REACTORS
330
C3
102
}
330
C3
100
AcDbVisualStyle
  2
Shaded with edges
 70
    26
177
     3
291
     0
 70
    58
 90
        2
176
     1
 90
        2
176
     1
 90
        1
176
     1
 90
        2
176
     1
 40
0.6
176
     1
 40
30.0
176
     1
 62
     7
420
 16777215
176
     1
 90
        1
176
     1
 90
       10
176
     1
 62
     7
176
     1
 62
   257
176
     1
 90
        2
176
     1
 90
        1
176
     1
 40
1.0
176
     1
 90
        8
176
     1
 62
   257
176
     1
 40
1.0
176
     1
 90
        1
176
     1
 90
        6
176
     1
 90
        2
176
     1
 62
     7
176
     1
 90
        3
176
     1
 90
        0
176
     1
 90
        0
176
     1
290
     0
176
     1
 90
        5
176
     1
 40
0.0
176
     1
 90
        0
176
     1
290
     0
176
     1
290
     1
176
     1
290
     1
176
     1
290
     0
176
     1
290
     0
176
     1
290
     0
176
     1
290
     0
176
     1
290
     0
176
     1
290
     0
176
     1
 90
       50
176
     1
 40
0.0
176
     1
 40
1.0
176
     1
 90
        0
176
     1
 62
    18
420
        0
176
     1
 90
       50
176
     1
 90
        3
176
     1
 62
     5
420
      255
176
     1
290
     0
176
     1
 90
       50
176
     1
 90
       50
176
     1
 90
       50
176
     1
290
     0
176
     1
 90
       50
176
     1
 62
   256
176
     0
 40
1.0
176
     0
 90
        2
176
     1
  1
strokes_ogs.tif
176
     1
290
     0
176
     1
 40
1.0
176
     1
 40
1.0
176
     1
  0
VISUALSTYLE
  5
D4
102
{ACAD_REACTORS
330
C3
102
}
330
C3
100
AcDbVisualStyle
  2
Shades of Gray
 70
    23
177
     3
291
     0
 70
    58
 90
        2
176
     1
 90
        2
176
     1
 90
        3
176
     1
 90
        0
176
     1
 40
0.6
176
     1
 40
30.0
176
     1
 62
     7
420
 16777215
176
     1
 90
        2
176
     1
 90
        2
176
     1
 62
     7
176
     1
 62
     7
176
     1
 90
        1
176
     1
 90
        1
176
     1
 40
40.0
176
     1
 90
        8
176
     1
 62
     7
176
     1
 40
1.0
176
     1
 90
        1
176
     1
 90
        6
176
     1
 90
        2
176
     1
 62
     7
176
     1
 90
        3
176
     1
 90
        0
176
     1
 90
        0
176
     1
290
     0
176
     1
 90
        1
176
     1
 40
0.0
176
     1
 90
        0
176
     1
290
     0
176
     1
290
     1
176
     1
290
     1
176
     1
290
     0
176
     1
290
     0
176
     1
290
     0
176
     1
290
     0
176
     1
290
     0
176
     1
290
     0
176
     1
 90
       50
176
     1
 40
0.0
176
     1
 40
1.0
176
     1
 90
        0
176
     1
 62
    18
420
        0
176
     1
 90
       50
176
     1
 90
        3
176
     1
 62
     5
420
      255
176
     1
290
     0
176
     1
 90
       50
176
     1
 90
       50
176
     1
 90
       50
176
     1
290
     0
176
     1
 90
       50
176
     1
 62
   256
176
     0
 40
1.0
176
     0
 90
        2
176
     1
  1
strokes_ogs.tif
176
     1
290
     0
176
     1
 40
1.0
176
     1
 40
1.0
176
     1
  0
VISUALSTYLE
  5
D5
102
{ACAD_REACTORS
330
C3
102
}
330
C3
100
AcDbVisualStyle
  2
Sketchy
 70
    24
177
     3
291
     0
 70
    58
 90
        1
176
     1
 90
        2
176
     1
 90
        2
176
     1
 90
        0
176
     1
 40
0.6
176
     1
 40
30.0
176
     1
 62
     7
420
 16777215
176
     1
 90
        2
176
     1
 90
        2
176
     1
 62
     7
176
     1
 62
     7
176
     1
 90
        1
176
     1
 90
        1
176
     1
 40
40.0
176
     1
 90
       11
176
     1
 62
     7
176
     1
 40
1.0
176
     1
 90
        1
176
     1
 90
        6
176
     1
 90
        2
176
     1
 62
     7
176
     1
 90
        6
176
     1
 90
        0
176
     1
 90
        0
176
     1
290
     0
176
     1
 90
        1
176
     1
 40
0.0
176
     1
 90
        0
176
     1
290
     0
176
     1
290
     1
176
     1
290
     1
176
     1
290
     0
176
     1
290
     0
176
     1
290
     0
176
     1
290
     0
176
     1
290
     0
176
     1
290
     0
176
     1
 90
       50
176
     1
 40
0.0
176
     1
 40
1.0
176
     1
 90
        0
176
     1
 62
    18
420
        0
176
     1
 90
       50
176
     1
 90
        3
176
     1
 62
     5
420
      255
176
     1
290
     0
176
     1
 90
       50
176
     1
 90
       50
176
     1
 90
       50
176
     1
290
     0
176
     1
 90
       50
176
     1
 62
   256
176
     0
 40
1.0
176
     0
 90
        2
176
     1
  1
strokes_ogs.tif
176
     1
290
     0
176
     1
 40
1.0
176
     1
 40
1.0
176
     1
  0
VISUALSTYLE
  5
D0
102
{ACAD_REACTORS
330
C3
102
}
330
C3
100
AcDbVisualStyle
  2
Thicken
 70
    13
177
     3
291
     1
 70
    58
 90
        2
176
     1
 90
        2
176
     1
 90
        0
176
     1
 90
        0
176
     1
 40
0.6
176
     1
 40
30.0
176
     1
 62
     7
420
 16777215
176
     1
 90
        1
176
     1
 90
        4
176
     1
 62
     7
176
     1
 62
   257
176
     1
 90
        1
176
     1
 90
        1
176
     1
 40
1.0
176
     1
 90
       12
176
     1
 62
     7
176
     1
 40
1.0
176
     1
 90
        1
176
     1
 90
        6
176
     1
 90
        2
176
     1
 62
     7
176
     1
 90
        5
176
     1
 90
        0
176
     1
 90
        0
176
     1
290
     0
176
     1
 90
        1
176
     1
 40
0.0
176
     1
 90
        0
176
     1
290
     0
176
     1
290
     1
176
     1
290
     1
176
     1
290
     0
176
     1
290
     0
176
     1
290
     0
176
     1
290
     0
176
     1
290
     0
176
     1
290
     0
176
     1
 90
       50
176
     1
 40
0.0
176
     1
 40
1.0
176
     1
 90
        0
176
     1
 62
    18
420
        0
176
     1
 90
       50
176
     1
 90
        3
176
     1
 62
     5
420
      255
176
     1
290
     0
176
     1
 90
       50
176
     1
 90
       50
176
     1
 90
       50
176
     1
290
     0
176
     1
 90
       50
176
     1
 62
   256
176
     0
 40
1.0
176
     0
 90
        2
176
     1
  1
strokes_ogs.tif
176
     1
290
     0
176
     1
 40
1.0
176
     1
 40
1.0
176
     1
  0
VISUALSTYLE
  5
CA
102
{ACAD_REACTORS
330
C3
102
}
330
C3
100
AcDbVisualStyle
  2
Wireframe
 70
     5
177
     3
291
     0
 70
    58
 90
        0
176
     1
 90
        2
176
     1
 90
        0
176
     1
 90
        0
176
     1
 40
0.6
176
     1
 40
30.0
176
     1
 62
     7
420
 16777215
176
     1
 90
        1
176
     1
 90
        4
176
     1
 62
     7
176
     1
 62
   257
176
     1
 90
        1
176
     1
 90
        1
176
     1
 40
1.0
176
     1
 90
        0
176
     1
 62
   257
176
     1
 40
1.0
176
     1
 90
        1
176
     1
 90
        6
176
     1
 90
        2
176
     1
 62
     7
176
     1
 90
        3
176
     1
 90
        0
176
     1
 90
        0
176
     1
290
     0
176
     1
 90
        1
176
     1
 40
0.0
176
     1
 90
        0
176
     1
290
     0
176
     1
290
     1
176
     1
290
     1
176
     1
290
     0
176
     1
290
     0
176
     1
290
     0
176
     1
290
     0
176
     1
290
     0
176
     1
290
     0
176
     1
 90
       50
176
     1
 40
0.0
176
     1
 40
1.0
176
     1
 90
        0
176
     1
 62
    18
420
        0
176
     1
 90
       50
176
     1
 90
        3
176
     1
 62
     5
420
      255
176
     1
290
     0
176
     1
 90
       50
176
     1
 90
       50
176
     1
 90
       50
176
     1
290
     0
176
     1
 90
       50
176
     1
 62
   256
176
     0
 40
1.0
176
     0
 90
        2
176
     1
  1
strokes_ogs.tif
176
     1
290
     0
176
     1
 40
1.0
176
     1
 40
1.0
176
     1
  0
VISUALSTYLE
  5
D6
102
{ACAD_REACTORS
330
C3
102
}
330
C3
100
AcDbVisualStyle
  2
X-Ray
 70
    25
177
     3
291
     0
 70
    58
 90
        2
176
     1
 90
        2
176
     1
 90
        1
176
     1
 90
        1
176
     1
 40
0.5
176
     1
 40
30.0
176
     1
 62
     7
420
 16777215
176
     1
 90
        1
176
     1
 90
        0
176
     1
 62
     7
176
     1
 62
   257
176
     1
 90
        1
176
     1
 90
        1
176
     1
 40
1.0
176
     1
 90
        8
176
     1
 62
     7
176
     1
 40
1.0
176
     1
 90
        1
176
     1
 90
        6
176
     1
 90
        2
176
     1
 62
     7
176
     1
 90
        3
176
     1
 90
        0
176
     1
 90
        0
176
     1
290
     0
176
     1
 90
       13
176
     1
 40
0.0
176
     1
 90
        0
176
     1
290
     0
176
     1
290
     1
176
     1
290
     1
176
     1
290
     0
176
     1
290
     0
176
     1
290
     0
176
     1
290
     0
176
     1
290
     0
176
     1
290
     0
176
     1
 90
       50
176
     1
 40
0.0
176
     1
 40
1.0
176
     1
 90
        0
176
     1
 62
    18
420
        0
176
     1
 90
       50
176
     1
 90
        3
176
     1
 62
     5
420
      255
176
     1
290
     0
176
     1
 90
       50
176
     1
 90
       50
176
     1
 90
       50
176
     1
290
     0
176
     1
 90
       50
176
     1
 62
   256
176
     0
 40
1.0
176
     0
 90
        2
176
     1
  1
strokes_ogs.tif
176
     1
290
     0
176
     1
 40
1.0
176
     1
 40
1.0
176
     1
  0
DICTIONARYVAR
  5
FF
102
{ACAD_REACTORS
330
F9
102
}
330
F9
100
DictionaryVariables
280
     0
  1
1:1
  0
DICTIONARYVAR
  5
FB
102
{ACAD_REACTORS
330
F9
102
}
330
F9
100
DictionaryVariables
280
     0
  1
STANDARD
  0
DICTIONARYVAR
  5
FA
102
{ACAD_REACTORS
330
F9
102
}
330
F9
100
DictionaryVariables
280
     0
  1
STANDARD
  0
DICTIONARYVAR
  5
FC
102
{ACAD_REACTORS
330
F9
102
}
330
F9
100
DictionaryVariables
280
     0
  1
Imperial24
  0
DICTIONARYVAR
  5
FD
102
{ACAD_REACTORS
330
F9
102
}
330
F9
100
DictionaryVariables
280
     0
  1
Imperial24
  0
DICTIONARYVAR
  5
101
102
{ACAD_REACTORS
330
F9
102
}
330
F9
100
DictionaryVariables
280
     0
  1
1
  0
DICTIONARYVAR
  5
102
102
{ACAD_REACTORS
330
F9
102
}
330
F9
100
DictionaryVariables
280
     0
  1
15
  0
DICTIONARYVAR
  5
100
102
{ACAD_REACTORS
330
F9
102
}
330
F9
100
DictionaryVariables
280
     0
  1
0
  0
DICTIONARYVAR
  5
FE
102
{ACAD_REACTORS
330
F9
102
}
330
F9
100
DictionaryVariables
280
     0
  1
0
  0
DICTIONARY
  5
107
330
F6
100
AcDbDictionary
280
     1
281
     1
  3
ACAD_XREC_ROUNDTRIP
360
108
  0
DICTIONARY
  5
B4
330
B3
100
AcDbDictionary
280
     1
281
     1
  3
BUMPTILE
360
B6
  3
DIFFUSETILE
360
B5
  3
OPACITYTILE
360
B9
  3
REFLECTIONTILE
360
B8
  3
REFRACTIONTILE
360
BA
  3
SPECULARTILE
360
B7
  0
DICTIONARY
  5
AC
330
AB
100
AcDbDictionary
280
     1
281
     1
  3
BUMPTILE
360
AE
  3
DIFFUSETILE
360
AD
  3
OPACITYTILE
360
B1
  3
REFLECTIONTILE
360
B0
  3
REFRACTIONTILE
360
B2
  3
SPECULARTILE
360
AF
  0
DICTIONARY
  5
BC
330
BB
100
AcDbDictionary
280
     1
281
     1
  3
BUMPTILE
360
BE
  3
DIFFUSETILE
360
BD
  3
OPACITYTILE
360
C1
  3
REFLECTIONTILE
360
C0
  3
REFRACTIONTILE
360
C2
  3
SPECULARTILE
360
BF
  0
DICTIONARY
  5
105
330
F4
100
AcDbDictionary
280
     1
281
     1
  3
ACAD_XREC_ROUNDTRIP
360
106
  0
DICTIONARY
  5
103
330
DE
100
AcDbDictionary
280
     1
281
     1
  3
ACAD_ROUNDTRIP_2008_TABLESTYLE_CELLSTYLEMAP
360
104
  0
XRECORD
  5
108
102
{ACAD_REACTORS
330
107
102
}
330
107
100
AcDbXrecord
280
     1
102
DISPLAYNAME
  1
Imperial24
102
FLAGS
 90
        0
  0
XRECORD
  5
B6
102
{ACAD_REACTORS
330
B4
102
}
330
B4
100
AcDbXrecord
280
     1
270
     1
271
     1
  0
XRECORD
  5
B5
102
{ACAD_REACTORS
330
B4
102
}
330
B4
100
AcDbXrecord
280
     1
270
     1
271
     1
  0
XRECORD
  5
B9
102
{ACAD_REACTORS
330
B4
102
}
330
B4
100
AcDbXrecord
280
     1
270
     1
271
     1
  0
XRECORD
  5
B8
102
{ACAD_REACTORS
330
B4
102
}
330
B4
100
AcDbXrecord
280
     1
270
     1
271
     1
  0
XRECORD
  5
BA
102
{ACAD_REACTORS
330
B4
102
}
330
B4
100
AcDbXrecord
280
     1
270
     1
271
     1
  0
XRECORD
  5
B7
102
{ACAD_REACTORS
330
B4
102
}
330
B4
100
AcDbXrecord
280
     1
270
     1
271
     1
  0
XRECORD
  5
AE
102
{ACAD_REACTORS
330
AC
102
}
330
AC
100
AcDbXrecord
280
     1
270
     1
271
     1
  0
XRECORD
  5
AD
102
{ACAD_REACTORS
330
AC
102
}
330
AC
100
AcDbXrecord
280
     1
270
     1
271
     1
  0
XRECORD
  5
B1
102
{ACAD_REACTORS
330
AC
102
}
330
AC
100
AcDbXrecord
280
     1
270
     1
271
     1
  0
XRECORD
  5
B0
102
{ACAD_REACTORS
330
AC
102
}
330
AC
100
AcDbXrecord
280
     1
270
     1
271
     1
  0
XRECORD
  5
B2
102
{ACAD_REACTORS
330
AC
102
}
330
AC
100
AcDbXrecord
280
     1
270
     1
271
     1
  0
XRECORD
  5
AF
102
{ACAD_REACTORS
330
AC
102
}
330
AC
100
AcDbXrecord
280
     1
270
     1
271
     1
  0
XRECORD
  5
BE
102
{ACAD_REACTORS
330
BC
102
}
330
BC
100
AcDbXrecord
280
     1
270
     1
271
     1
  0
XRECORD
  5
BD
102
{ACAD_REACTORS
330
BC
102
}
330
BC
100
AcDbXrecord
280
     1
270
     1
271
     1
  0
XRECORD
  5
C1
102
{ACAD_REACTORS
330
BC
102
}
330
BC
100
AcDbXrecord
280
     1
270
     1
271
     1
  0
XRECORD
  5
C0
102
{ACAD_REACTORS
330
BC
102
}
330
BC
100
AcDbXrecord
280
     1
270
     1
271
     1
  0
XRECORD
  5
C2
102
{ACAD_REACTORS
330
BC
102
}
330
BC
100
AcDbXrecord
280
     1
270
     1
271
     1
  0
XRECORD
  5
BF
102
{ACAD_REACTORS
330
BC
102
}
330
BC
100
AcDbXrecord
280
     1
270
     1
271
     1
  0
XRECORD
  5
106
102
{ACAD_REACTORS
330
105
102
}
330
105
100
AcDbXrecord
280
     1
102
DISPLAYNAME
  1
Imperial24
102
FLAGS
 90
        0
  0
CELLSTYLEMAP
  5
104
102
{ACAD_REACTORS
330
103
102
}
330
103
100
AcDbCellStyleMap
 90
        3
300
CELLSTYLE
  1
TABLEFORMAT_BEGIN
 90
        5
170
     1
 91
        0
 92
    32768
 62
   257
 93
        1
300
CONTENTFORMAT
  1
CONTENTFORMAT_BEGIN
 90
        0
 91
        0
 92
      512
 93
        0
300

 40
0.0
140
1.0
 94
        5
 62
     0
340
11
144
0.25
309
CONTENTFORMAT_END
171
     0
 94
        0
309
TABLEFORMAT_END
  1
CELLSTYLE_BEGIN
 90
        1
 91
        1
300
_TITLE
309
CELLSTYLE_END
300
CELLSTYLE
  1
TABLEFORMAT_BEGIN
 90
        5
170
     1
 91
        0
 92
        0
 62
   257
 93
        1
300
CONTENTFORMAT
  1
CONTENTFORMAT_BEGIN
 90
        0
 91
        0
 92
      512
 93
        0
300

 40
0.0
140
1.0
 94
        5
 62
     0
340
11
144
0.18
309
CONTENTFORMAT_END
171
     0
 94
        0
309
TABLEFORMAT_END
  1
CELLSTYLE_BEGIN
 90
        2
 91
        1
300
_HEADER
309
CELLSTYLE_END
300
CELLSTYLE
  1
TABLEFORMAT_BEGIN
 90
        5
170
     1
 91
        0
 92
        0
 62
   257
 93
        1
300
CONTENTFORMAT
  1
CONTENTFORMAT_BEGIN
 90
        0
 91
        0
 92
      512
 93
        0
300

 40
0.0
140
1.0
 94
        2
 62
     0
340
11
144
0.18
309
CONTENTFORMAT_END
171
     0
 94
        0
309
TABLEFORMAT_END
  1
CELLSTYLE_BEGIN
 90
        3
 91
        2
300
_DATA
309
CELLSTYLE_END
  0
ENDSEC
  0
EOF
