<?xml version="1.0" encoding="UTF-8" standalone="no"?>
<!-- Created with Inkscape (http://www.inkscape.org/) -->

<svg
   width="70mm"
   height="48mm"
   viewBox="0 0 70 48"
   version="1.1"
   id="svg1"
   xml:space="preserve"
   inkscape:version="1.4 (86a8ad7, 2024-10-11)"
   sodipodi:docname="key_layout.svg"
   xmlns:inkscape="http://www.inkscape.org/namespaces/inkscape"
   xmlns:sodipodi="http://sodipodi.sourceforge.net/DTD/sodipodi-0.dtd"
   xmlns="http://www.w3.org/2000/svg"
   xmlns:svg="http://www.w3.org/2000/svg"><sodipodi:namedview
     id="namedview1"
     pagecolor="#ffffff"
     bordercolor="#999999"
     borderopacity="1"
     inkscape:showpageshadow="2"
     inkscape:pageopacity="0"
     inkscape:pagecheckerboard="0"
     inkscape:deskcolor="#d1d1d1"
     inkscape:document-units="mm"
     showguides="true"
     inkscape:zoom="2.955623"
     inkscape:cx="106.74568"
     inkscape:cy="125.35428"
     inkscape:window-width="2560"
     inkscape:window-height="1377"
     inkscape:window-x="-8"
     inkscape:window-y="-8"
     inkscape:window-maximized="1"
     inkscape:current-layer="layer1"><sodipodi:guide
       position="70.135549,298.5192"
       orientation="1,0"
       id="guide1"
       inkscape:locked="false" /></sodipodi:namedview><defs
     id="defs1" /><g
     inkscape:label="Layer 1"
     inkscape:groupmode="layer"
     id="layer1"><path
       style="fill:none;stroke-width:0.2;stroke-dasharray:none"
       d="M -4.0508207,26.284587 V -3.1922847 H 35.60887 75.268561 V 26.284587 55.761459 H 35.60887 -4.0508207 Z M 54.472878,51.840948 c 1.195224,-0.358813 2.723208,-0.818645 3.395522,-1.02185 l 1.222387,-0.369462 v -3.566555 c 0,-2.800891 -0.0162,-3.572315 -0.07546,-3.593383 -0.06908,-0.02456 -6.767915,-0.939788 -6.878594,-0.939788 -0.02655,0 -0.04827,-1.040108 -0.04827,-2.311352 V 37.727206 H 48.55712 45.025778 v 2.247148 2.247148 l -0.166003,0.02951 c -0.0913,0.01623 -1.653242,0.22934 -3.470978,0.473577 l -3.304974,0.444068 0.0011,3.599824 0.0011,3.599824 3.484927,1.055361 3.484927,1.05536 3.50116,0.02898 c 1.925638,0.01594 3.555489,0.01916 3.62189,0.0072 0.0664,-0.012 1.09864,-0.315396 2.293863,-0.674209 z m -2.38441,-4.389215 c 0,-2.774614 0.02172,-5.044753 0.04827,-5.044753 0.02655,0 1.566767,0.205454 3.422708,0.456564 1.855941,0.25111 3.396365,0.456563 3.423165,0.456563 0.0268,0 0.04173,1.598195 0.03318,3.551543 l -0.01555,3.551543 -2.897511,0.871789 c -1.593632,0.479483 -3.148781,0.945974 -3.455887,1.036645 l -0.558374,0.164858 z m -6.941955,1.546881 v -3.45276 h 3.440795 3.440795 v 3.45276 3.45276 H 48.587308 45.146513 Z M 41.569897,51.348511 38.144193,50.3203 v -3.557167 c 0,-1.956442 0.02172,-3.557167 0.04827,-3.557167 0.02655,0 1.565966,-0.205345 3.420928,-0.456322 1.854963,-0.250978 3.381748,-0.44773 3.392856,-0.437228 0.01111,0.0105 0.01326,2.279267 0.0048,5.0417 l -0.01542,5.022606 z m 3.516251,-9.711981 v -3.852253 h 3.470977 3.470978 v 3.852253 3.852253 h -3.470978 -3.470977 z m -30.922647,1.398225 3.485845,-1.198479 H 31.186652 44.723959 V 37.52746 33.218643 h 3.833166 3.833167 v 4.307729 4.30773 l 0.135821,0.02867 c 0.0747,0.01577 1.670596,0.234615 3.546433,0.486331 l 3.410613,0.457666 5.206466,-1.46e-4 5.206466,-1.46e-4 v -9.159806 -9.159802 h -1.75058 -1.75058 v -4.308817 -4.308816 h 1.75058 1.75058 V 7.9935178 0.11779984 H 35.035404 0.17471731 V 7.9935178 15.869236 h 1.72039699 1.720398 v 4.308816 4.308817 H 1.8951143 0.17471731 v 9.873182 9.873183 H 5.4261863 10.677655 Z M 0.23508231,38.697403 v -5.47876 H 5.4264573 10.617832 v 5.47876 5.47876 H 5.4264573 0.23508231 Z M 10.678197,38.696804 v -5.478161 h 3.440795 3.440795 v 4.296033 4.296033 l -2.972968,1.021324 c -1.635132,0.561728 -3.18349,1.093685 -3.440795,1.182127 l -0.467827,0.160804 z m 45.213255,3.573901 -3.410613,-0.466159 -0.01547,-4.292952 -0.01547,-4.292951 h 3.441177 3.441177 v 4.76538 c 0,2.620959 -0.0068,4.762559 -0.01509,4.759111 -0.0083,-0.0034 -1.549867,-0.216042 -3.425704,-0.472429 z m 3.50116,-4.286682 v -4.76538 h 5.221557 5.221558 v 4.76538 4.76538 h -5.221558 -5.221557 z m -41.77246,-0.485099 v -4.280281 h 13.521721 13.521721 v 4.280281 4.280282 H 31.141873 17.620152 Z M 0.23508231,28.852756 V 24.543939 H 5.4264573 10.617832 v 4.308817 4.308817 H 5.4264573 0.23508231 Z m 10.44311469,0 v -4.308817 h 3.440795 3.440795 v 4.308817 4.308817 h -3.440795 -3.440795 z m 6.941955,0 v -4.308817 h 3.470977 3.470978 v 4.308817 4.308817 h -3.470978 -3.470977 z m 7.00232,0 v -4.308817 h 3.440795 3.440795 v 4.308817 4.308817 h -3.440795 -3.440795 z m 6.941955,0 v -4.308817 h 3.470977 3.470978 v 4.308817 4.308817 h -3.470978 -3.470977 z m 7.00232,0 v -4.308817 h 3.440795 3.440795 v 4.308817 4.308817 h -3.440795 -3.440795 z m 6.941955,0 v -4.308817 h 3.440795 3.440795 v 4.308817 4.308817 h -3.440795 -3.440795 z m 6.941955,0 v -4.308817 h 3.470977 3.470978 v 4.308817 4.308817 h -3.470978 -3.470977 z m 7.002319,0 v -4.308817 h 5.191375 5.191376 v 4.308817 4.308817 H 64.644351 59.452976 Z M 3.6758773,20.178052 v -4.308816 h 3.470977 3.4709777 v 4.308816 4.308817 H 7.1468543 3.6758773 Z m 7.0023197,0 v -4.308816 h 3.440795 3.440795 v 4.308816 4.308817 h -3.440795 -3.440795 z m 6.941955,0 v -4.308816 h 3.470977 3.470978 v 4.308816 4.308817 h -3.470978 -3.470977 z m 7.00232,0 v -4.308816 h 3.440795 3.440795 v 4.308816 4.308817 h -3.440795 -3.440795 z m 6.941955,0 v -4.308816 h 3.470977 3.470978 v 4.308816 4.308817 h -3.470978 -3.470977 z m 7.00232,0 v -4.308816 h 3.440795 3.440795 v 4.308816 4.308817 h -3.440795 -3.440795 z m 6.941955,0 v -4.308816 h 3.440795 3.440795 v 4.308816 4.308817 h -3.440795 -3.440795 z m 6.941955,0 v -4.308816 h 3.470977 3.470978 v 4.308816 4.308817 h -3.470978 -3.470977 z m 7.002319,0 v -4.308816 h 3.440796 3.440795 v 4.308816 4.308817 H 62.893772 59.452976 Z M 0.23508231,11.503349 V 7.1945318 h 3.44079499 3.440795 v 4.3088172 4.308816 H 3.6758773 0.23508231 Z m 6.94195499,0 V 7.1945318 h 3.4709767 3.470978 v 4.3088172 4.308816 H 10.648014 7.1770373 Z m 7.0023197,0 V 7.1945318 h 3.440795 3.440795 v 4.3088172 4.308816 h -3.440795 -3.440795 z m 6.941955,0 V 7.1945318 h 3.440795 3.440795 v 4.3088172 4.308816 h -3.440795 -3.440795 z m 6.941955,0 V 7.1945318 h 3.470977 3.470978 v 4.3088172 4.308816 h -3.470978 -3.470977 z m 7.00232,0 V 7.1945318 h 3.440795 3.440795 v 4.3088172 4.308816 h -3.440795 -3.440795 z m 6.941955,0 V 7.1945318 h 3.470977 3.470978 v 4.3088172 4.308816 h -3.470978 -3.470977 z m 7.002319,0 V 7.1945318 h 3.440796 3.440795 v 4.3088172 4.308816 h -3.440795 -3.440796 z m 6.941955,0 V 7.1945318 h 3.470978 3.470978 v 4.3088172 4.308816 h -3.470978 -3.470978 z m 7.00232,0 V 7.1945318 h 3.440795 3.440796 v 4.3088172 4.308816 H 66.394931 62.954136 Z M 0.23508231,3.6561658 V 0.17486984 H 3.6758773 7.1166723 V 3.6561658 7.1374608 H 3.6758773 0.23508231 Z m 6.94195499,0 V 0.17486984 h 3.4709767 3.470978 V 3.6561658 7.1374608 H 10.648014 7.1770373 Z m 7.0023197,0 V 0.17486984 h 3.440795 3.440795 v 3.48129596 3.481295 h -3.440795 -3.440795 z m 6.941955,0 V 0.17486984 h 3.440795 3.440795 v 3.48129596 3.481295 h -3.440795 -3.440795 z m 6.941955,0 V 0.17486984 h 3.470977 3.470978 v 3.48129596 3.481295 h -3.470978 -3.470977 z m 7.00232,0 V 0.17486984 h 3.440795 3.440795 v 3.48129596 3.481295 h -3.440795 -3.440795 z m 6.941955,0 V 0.17486984 h 3.470977 3.470978 v 3.48129596 3.481295 h -3.470978 -3.470977 z m 7.002319,0 V 0.17486984 h 3.440796 3.440795 v 3.48129596 3.481295 h -3.440795 -3.440796 z m 6.941955,0 V 0.17486984 h 3.470978 3.470978 v 3.48129596 3.481295 h -3.470978 -3.470978 z m 7.00232,0 V 0.17486984 h 3.440795 3.440796 v 3.48129596 3.481295 h -3.440796 -3.440795 z"
       id="path1" /><path
       style="fill:#000000;stroke-width:1.4;stroke-dasharray:none"
       d="m 48.358477,50.710924 -3.466837,-0.02776 -3.450764,-1.011213 -3.450763,-1.011213 -0.0011,-3.449235 -0.0011,-3.449235 3.272575,-0.425492 3.272575,-0.425491 0.164375,-0.02828 0.164376,-0.02827 V 38.701585 36.54844 h 3.496724 3.496724 v 2.214663 2.214664 h 0.0478 0.0478 l 3.344325,0.437385 3.344324,0.437385 0.07472,0.0257 0.07472,0.0257 v 3.417359 3.417358 l -1.210404,0.354007 -1.210405,0.354007 -2.15183,0.625096 -2.15183,0.625097 -0.119546,0.02091 -0.119546,0.02091 z m 7.471632,-1.162278 2.869107,-0.83532 0.01539,-3.402974 0.0154,-3.402974 h -0.04825 -0.04825 L 55.292151,41.469914 51.950793,41.03245 h -0.0478 -0.0478 v 4.833719 4.833719 l 0.5529,-0.157961 0.552901,-0.157961 z m -4.034681,-2.200305 v -3.308324 h -3.407064 -3.407065 v 3.308324 3.308323 h 3.407065 3.407064 z m -6.95302,-6.4065 -0.02,-0.0183 -3.339596,0.437234 -3.339595,0.437233 h -0.0478 -0.0478 v 3.408363 3.408363 l 3.392121,0.985198 3.392121,0.985199 0.01527,-4.8125 0.01527,-4.812499 z m 6.95302,-0.647612 v -3.691106 h -3.436951 -3.436951 v 3.691106 3.691105 h 3.436951 3.436951 z M 0.45037373,33.322141 V 23.861975 H 2.1539058 3.8574379 v -4.128569 -4.12857 H 2.1539058 0.45037373 V 8.058577 0.51231761 H 34.969313 69.488252 V 8.058577 15.604836 h -1.733419 -1.733418 v 4.12857 4.128569 h 1.733418 1.733419 v 8.776628 8.776628 l -5.155426,1.4e-4 -5.155426,1.39e-4 -3.377178,-0.43852 -3.377177,-0.438521 -0.13449,-0.02747 -0.134489,-0.02747 0,-4.127528 V 32.22848 h -3.795589 -3.795589 v 4.12857 4.128569 H 31.158291 17.753694 l -3.451672,1.148344 -3.451673,1.148344 H 5.6503615 0.45037373 Z M 10.791112,37.478052 V 32.22848 H 5.6506295 0.51014679 v 5.249572 5.249572 H 5.6506295 10.791112 Z m 3.930079,3.961669 2.943822,-0.978599 V 36.344801 32.22848 h -3.407064 -3.407064 v 5.248997 5.248998 l 0.463241,-0.154078 0.463242,-0.154077 z M 59.027967,36.794514 V 32.22848 h -3.407442 -3.407442 l 0.01532,4.113368 0.01532,4.113368 3.377177,0.446659 3.377178,0.446658 0.01494,0.006 0.01494,0.006 z m 10.400512,0 V 32.22848 H 64.25811 59.08774 v 4.566034 4.566034 h 5.17037 5.170369 z M 44.503115,36.329708 V 32.22848 H 31.113951 17.724787 v 4.101228 4.101228 h 13.389164 13.389164 z m -33.712003,-8.28448 v -4.12857 H 5.6506295 0.51014679 v 4.12857 4.128569 H 5.6506295 10.791112 Z m 6.873901,0 v -4.12857 h -3.407064 -3.407064 v 4.12857 4.128569 h 3.407064 3.407064 z m 6.933675,0 v -4.12857 h -3.436951 -3.43695 v 4.12857 4.128569 h 3.43695 3.436951 z m 6.873901,0 v -4.12857 h -3.407064 -3.407064 v 4.12857 4.128569 h 3.407064 3.407064 z m 6.933674,0 v -4.12857 h -3.43695 -3.436951 v 4.12857 4.128569 h 3.436951 3.43695 z m 6.873902,0 v -4.12857 h -3.407064 -3.407065 v 4.12857 4.128569 h 3.407065 3.407064 z m 6.873901,0 v -4.12857 h -3.407064 -3.407064 v 4.12857 4.128569 h 3.407064 3.407064 z m 6.933674,0 v -4.12857 h -3.43695 -3.436951 v 4.12857 4.128569 h 3.436951 3.43695 z m 10.340739,0 v -4.12857 h -5.140483 -5.140483 v 4.12857 4.128569 h 5.140483 5.140483 z M 10.791112,19.733406 v -4.12857 H 7.3541615 3.9172109 v 4.12857 4.128569 h 3.4369506 3.4369505 z m 6.873901,0 v -4.12857 h -3.407064 -3.407064 v 4.12857 4.128569 h 3.407064 3.407064 z m 6.933675,0 v -4.12857 h -3.436951 -3.43695 v 4.12857 4.128569 h 3.43695 3.436951 z m 6.873901,0 v -4.12857 h -3.407064 -3.407064 v 4.12857 4.128569 h 3.407064 3.407064 z m 6.933674,0 v -4.12857 h -3.43695 -3.436951 v 4.12857 4.128569 h 3.436951 3.43695 z m 6.873902,0 v -4.12857 h -3.407064 -3.407065 v 4.12857 4.128569 h 3.407065 3.407064 z m 6.873901,0 v -4.12857 h -3.407064 -3.407064 v 4.12857 4.128569 h 3.407064 3.407064 z m 6.933674,0 v -4.12857 h -3.43695 -3.436951 v 4.12857 4.128569 h 3.436951 3.43695 z m 6.873902,0 v -4.12857 h -3.407064 -3.407065 v 4.12857 4.128569 h 3.407065 3.407064 z M 7.324275,11.421584 V 7.2930144 H 3.9172109 0.51014679 v 4.1285696 4.128569 H 3.9172109 7.324275 Z m 6.933674,0 V 7.2930144 h -3.43695 -3.4369509 v 4.1285696 4.128569 h 3.4369509 3.43695 z m 6.873902,0 V 7.2930144 h -3.407064 -3.407065 v 4.1285696 4.128569 h 3.407065 3.407064 z m 6.873901,0 V 7.2930144 h -3.407064 -3.407064 v 4.1285696 4.128569 h 3.407064 3.407064 z m 6.933674,0 V 7.2930144 h -3.43695 -3.436951 v 4.1285696 4.128569 h 3.436951 3.43695 z m 6.873902,0 V 7.2930144 h -3.407065 -3.407064 v 4.1285696 4.128569 h 3.407064 3.407065 z m 6.933674,0 V 7.2930144 h -3.436951 -3.43695 v 4.1285696 4.128569 h 3.43695 3.436951 z m 6.873901,0 V 7.2930144 h -3.407064 -3.407064 v 4.1285696 4.128569 h 3.407064 3.407064 z m 6.933675,0 V 7.2930144 h -3.436951 -3.436951 v 4.1285696 4.128569 h 3.436951 3.436951 z m 6.873901,0 V 7.2930144 h -3.407064 -3.407064 v 4.1285696 4.128569 h 3.407064 3.407064 z M 7.324275,3.902666 V 0.56700065 H 3.9172109 0.51014679 V 3.902666 7.2383314 H 3.9172109 7.324275 Z m 6.933674,0 V 0.56700065 H 10.820999 7.3840481 V 3.902666 7.2383314 h 3.4369509 3.43695 z m 6.873902,0 V 0.56700065 H 17.724787 14.317722 V 3.902666 7.2383314 h 3.407065 3.407064 z m 6.873901,0 V 0.56700065 H 24.598688 21.191624 V 3.902666 7.2383314 h 3.407064 3.407064 z m 6.933674,0 V 0.56700065 h -3.43695 -3.436951 V 3.902666 7.2383314 h 3.436951 3.43695 z m 6.873902,0 V 0.56700065 H 38.406263 34.999199 V 3.902666 7.2383314 h 3.407064 3.407065 z m 6.933674,0 V 0.56700065 h -3.436951 -3.43695 V 3.902666 7.2383314 h 3.43695 3.436951 z m 6.873901,0 V 0.56700065 H 52.213839 48.806775 V 3.902666 7.2383314 h 3.407064 3.407064 z m 6.933675,0 V 0.56700065 H 59.117627 55.680676 V 3.902666 7.2383314 h 3.436951 3.436951 z m 6.873901,0 V 0.56700065 H 66.021415 62.614351 V 3.902666 7.2383314 h 3.407064 3.407064 z"
       id="path2" /></g></svg>
