%TF.GenerationSoftware,KiCad,Pcbnew,9.0.6*%
%TF.CreationDate,2026-02-19T22:08:45+11:00*%
%TF.ProjectId,Cooee_keyboard_68mm,436f6f65-655f-46b6-9579-626f6172645f,rev?*%
%TF.SameCoordinates,Original*%
%TF.FileFunction,Legend,Bot*%
%TF.FilePolarity,Positive*%
%FSLAX46Y46*%
G04 Gerber Fmt 4.6, Leading zero omitted, Abs format (unit mm)*
G04 Created by KiCad (PCBNEW 9.0.6) date 2026-02-19 22:08:45*
%MOMM*%
%LPD*%
G01*
G04 APERTURE LIST*
%ADD10C,0.050000*%
%ADD11C,0.000000*%
%ADD12C,0.200000*%
%ADD13C,0.500000*%
%ADD14C,0.100000*%
%ADD15C,0.125000*%
%ADD16C,0.150000*%
%ADD17C,0.120000*%
G04 APERTURE END LIST*
D10*
X117650408Y-117700000D02*
G75*
G02*
X119300000Y-119349592I1649592J0D01*
G01*
D11*
G36*
X125263463Y-92509049D02*
G01*
X125281888Y-92510368D01*
X125299929Y-92512566D01*
X125317569Y-92515643D01*
X125334793Y-92519598D01*
X125351582Y-92524432D01*
X125367922Y-92530145D01*
X125383795Y-92536735D01*
X125399185Y-92544204D01*
X125414076Y-92552550D01*
X125428450Y-92561775D01*
X125442292Y-92571877D01*
X125455585Y-92582856D01*
X125468312Y-92594713D01*
X125480457Y-92607447D01*
X125492003Y-92621058D01*
X125495813Y-92621058D01*
X125495813Y-92519881D01*
X125686895Y-92519881D01*
X125686895Y-93470000D01*
X125495813Y-93470000D01*
X125495813Y-92898341D01*
X125495547Y-92885578D01*
X125494760Y-92873272D01*
X125493467Y-92861419D01*
X125491687Y-92850016D01*
X125489435Y-92839059D01*
X125486727Y-92828546D01*
X125483580Y-92818472D01*
X125480011Y-92808835D01*
X125476035Y-92799631D01*
X125471670Y-92790857D01*
X125466931Y-92782509D01*
X125461836Y-92774584D01*
X125456400Y-92767079D01*
X125450640Y-92759990D01*
X125444572Y-92753313D01*
X125438213Y-92747046D01*
X125431580Y-92741185D01*
X125424688Y-92735727D01*
X125417555Y-92730668D01*
X125410196Y-92726004D01*
X125402628Y-92721734D01*
X125394867Y-92717852D01*
X125386931Y-92714356D01*
X125378834Y-92711242D01*
X125362228Y-92706149D01*
X125345181Y-92702544D01*
X125327823Y-92700401D01*
X125310287Y-92699693D01*
X125301331Y-92699848D01*
X125292729Y-92700322D01*
X125284436Y-92701126D01*
X125276409Y-92702271D01*
X125268604Y-92703768D01*
X125260975Y-92705628D01*
X125253480Y-92707862D01*
X125246073Y-92710481D01*
X125238711Y-92713496D01*
X125231350Y-92716919D01*
X125223945Y-92720760D01*
X125216451Y-92725030D01*
X125208826Y-92729742D01*
X125201025Y-92734904D01*
X125193003Y-92740530D01*
X125184716Y-92746629D01*
X125046021Y-92581688D01*
X125056984Y-92573455D01*
X125068090Y-92565634D01*
X125079350Y-92558241D01*
X125090775Y-92551294D01*
X125102376Y-92544807D01*
X125114163Y-92538799D01*
X125126148Y-92533285D01*
X125138341Y-92528281D01*
X125150753Y-92523805D01*
X125163394Y-92519872D01*
X125176276Y-92516499D01*
X125189410Y-92513703D01*
X125202805Y-92511499D01*
X125216473Y-92509905D01*
X125230425Y-92508936D01*
X125244671Y-92508610D01*
X125263463Y-92509049D01*
G37*
G36*
X130502735Y-93190759D02*
G01*
X130502373Y-93206105D01*
X130501294Y-93221203D01*
X130499503Y-93236040D01*
X130497007Y-93250598D01*
X130493813Y-93264863D01*
X130489926Y-93278818D01*
X130485354Y-93292448D01*
X130480103Y-93305736D01*
X130474179Y-93318668D01*
X130467590Y-93331227D01*
X130460340Y-93343397D01*
X130452438Y-93355163D01*
X130443890Y-93366509D01*
X130434701Y-93377419D01*
X130424879Y-93387877D01*
X130414430Y-93397868D01*
X130403361Y-93407376D01*
X130391677Y-93416385D01*
X130379387Y-93424879D01*
X130366495Y-93432842D01*
X130353009Y-93440259D01*
X130338935Y-93447114D01*
X130324280Y-93453391D01*
X130309050Y-93459074D01*
X130293251Y-93464147D01*
X130276891Y-93468596D01*
X130259976Y-93472403D01*
X130242511Y-93475554D01*
X130224505Y-93478031D01*
X130205962Y-93479821D01*
X130186890Y-93480906D01*
X130167296Y-93481271D01*
X130143784Y-93480919D01*
X130121711Y-93479856D01*
X130101022Y-93478075D01*
X130081661Y-93475566D01*
X130063574Y-93472321D01*
X130046707Y-93468332D01*
X130031004Y-93463590D01*
X130016411Y-93458088D01*
X130002872Y-93451815D01*
X129990334Y-93444765D01*
X129978740Y-93436928D01*
X129968037Y-93428296D01*
X129958170Y-93418861D01*
X129949084Y-93408614D01*
X129940723Y-93397547D01*
X129933034Y-93385651D01*
X129929277Y-93385651D01*
X129929277Y-93470000D01*
X129738089Y-93470000D01*
X129738089Y-93066986D01*
X129929277Y-93066986D01*
X129929277Y-93136359D01*
X129929438Y-93149864D01*
X129929926Y-93162620D01*
X129930751Y-93174649D01*
X129931923Y-93185972D01*
X129933450Y-93196609D01*
X129935342Y-93206581D01*
X129937608Y-93215911D01*
X129940257Y-93224617D01*
X129943299Y-93232722D01*
X129946742Y-93240247D01*
X129950597Y-93247211D01*
X129954872Y-93253637D01*
X129959576Y-93259546D01*
X129964719Y-93264957D01*
X129970311Y-93269893D01*
X129976359Y-93274373D01*
X129982875Y-93278420D01*
X129989866Y-93282054D01*
X129997343Y-93285296D01*
X130005314Y-93288166D01*
X130013788Y-93290687D01*
X130022776Y-93292878D01*
X130032285Y-93294762D01*
X130042327Y-93296358D01*
X130064041Y-93298772D01*
X130087992Y-93300289D01*
X130114254Y-93301076D01*
X130142901Y-93301302D01*
X130166235Y-93300654D01*
X130187766Y-93298760D01*
X130207534Y-93295691D01*
X130225582Y-93291518D01*
X130233973Y-93289040D01*
X130241950Y-93286312D01*
X130249516Y-93283345D01*
X130256679Y-93280146D01*
X130263441Y-93276726D01*
X130269810Y-93273091D01*
X130275789Y-93269253D01*
X130281384Y-93265219D01*
X130286601Y-93260998D01*
X130291443Y-93256600D01*
X130295917Y-93252034D01*
X130300028Y-93247307D01*
X130303780Y-93242430D01*
X130307179Y-93237411D01*
X130310230Y-93232259D01*
X130312937Y-93226984D01*
X130317345Y-93216097D01*
X130320442Y-93204821D01*
X130322271Y-93193229D01*
X130322871Y-93181392D01*
X130322717Y-93174960D01*
X130322254Y-93168675D01*
X130321481Y-93162539D01*
X130320396Y-93156558D01*
X130318998Y-93150735D01*
X130317285Y-93145073D01*
X130315257Y-93139576D01*
X130312911Y-93134249D01*
X130310247Y-93129094D01*
X130307263Y-93124117D01*
X130303957Y-93119319D01*
X130300329Y-93114707D01*
X130296377Y-93110282D01*
X130292099Y-93106049D01*
X130287494Y-93102011D01*
X130282562Y-93098174D01*
X130277299Y-93094539D01*
X130271706Y-93091112D01*
X130265780Y-93087895D01*
X130259521Y-93084893D01*
X130252926Y-93082109D01*
X130245995Y-93079548D01*
X130238727Y-93077212D01*
X130231118Y-93075106D01*
X130223170Y-93073234D01*
X130214879Y-93071599D01*
X130206245Y-93070205D01*
X130197267Y-93069057D01*
X130187942Y-93068156D01*
X130178269Y-93067509D01*
X130168248Y-93067117D01*
X130157877Y-93066986D01*
X129929277Y-93066986D01*
X129738089Y-93066986D01*
X129738089Y-92821559D01*
X129738559Y-92800055D01*
X129739956Y-92779448D01*
X129742266Y-92759724D01*
X129745473Y-92740869D01*
X129749558Y-92722868D01*
X129754508Y-92705708D01*
X129760306Y-92689375D01*
X129766934Y-92673854D01*
X129774379Y-92659132D01*
X129782622Y-92645194D01*
X129791649Y-92632027D01*
X129801442Y-92619616D01*
X129811987Y-92607948D01*
X129823266Y-92597008D01*
X129835264Y-92586782D01*
X129847964Y-92577256D01*
X129861350Y-92568417D01*
X129875407Y-92560249D01*
X129890118Y-92552740D01*
X129905466Y-92545875D01*
X129921437Y-92539639D01*
X129938013Y-92534020D01*
X129955179Y-92529002D01*
X129972918Y-92524572D01*
X129991214Y-92520716D01*
X130010051Y-92517420D01*
X130049285Y-92512451D01*
X130090489Y-92509551D01*
X130133535Y-92508610D01*
X130159807Y-92509055D01*
X130185207Y-92510415D01*
X130209745Y-92512730D01*
X130233428Y-92516038D01*
X130256265Y-92520378D01*
X130278264Y-92525788D01*
X130299434Y-92532308D01*
X130319782Y-92539976D01*
X130339317Y-92548831D01*
X130358048Y-92558912D01*
X130375982Y-92570257D01*
X130393129Y-92582905D01*
X130409495Y-92596895D01*
X130425090Y-92612266D01*
X130439922Y-92629056D01*
X130453998Y-92647305D01*
X130304086Y-92761605D01*
X130300886Y-92756614D01*
X130297601Y-92751827D01*
X130294226Y-92747243D01*
X130290751Y-92742857D01*
X130287170Y-92738668D01*
X130283476Y-92734671D01*
X130279662Y-92730863D01*
X130275721Y-92727243D01*
X130271644Y-92723806D01*
X130267426Y-92720550D01*
X130263059Y-92717471D01*
X130258535Y-92714567D01*
X130253848Y-92711834D01*
X130248990Y-92709269D01*
X130243954Y-92706870D01*
X130238734Y-92704633D01*
X130233321Y-92702556D01*
X130227708Y-92700634D01*
X130221889Y-92698866D01*
X130215856Y-92697247D01*
X130209603Y-92695776D01*
X130203121Y-92694449D01*
X130196403Y-92693262D01*
X130189443Y-92692214D01*
X130174767Y-92690518D01*
X130159034Y-92689336D01*
X130142187Y-92688646D01*
X130124169Y-92688421D01*
X130099438Y-92688802D01*
X130076521Y-92689970D01*
X130055388Y-92691963D01*
X130036009Y-92694820D01*
X130018353Y-92698578D01*
X130002391Y-92703275D01*
X129988092Y-92708950D01*
X129981557Y-92712166D01*
X129975427Y-92715640D01*
X129969697Y-92719378D01*
X129964364Y-92723384D01*
X129959424Y-92727663D01*
X129954874Y-92732220D01*
X129950710Y-92737059D01*
X129946927Y-92742185D01*
X129943523Y-92747603D01*
X129940493Y-92753318D01*
X129937833Y-92759334D01*
X129935540Y-92765657D01*
X129933611Y-92772290D01*
X129932041Y-92779239D01*
X129930826Y-92786509D01*
X129929963Y-92794104D01*
X129929277Y-92810288D01*
X129929277Y-92909612D01*
X130193543Y-92909612D01*
X130212401Y-92909988D01*
X130230676Y-92911102D01*
X130248367Y-92912936D01*
X130265473Y-92915468D01*
X130281993Y-92918680D01*
X130297925Y-92922553D01*
X130313270Y-92927066D01*
X130328025Y-92932199D01*
X130342191Y-92937935D01*
X130355765Y-92944252D01*
X130368746Y-92951131D01*
X130381135Y-92958553D01*
X130392929Y-92966497D01*
X130404128Y-92974946D01*
X130414730Y-92983878D01*
X130424736Y-92993274D01*
X130434142Y-93003115D01*
X130442949Y-93013380D01*
X130451156Y-93024052D01*
X130458762Y-93035109D01*
X130465764Y-93046532D01*
X130472164Y-93058302D01*
X130477958Y-93070399D01*
X130483147Y-93082804D01*
X130487730Y-93095496D01*
X130491704Y-93108457D01*
X130495071Y-93121667D01*
X130497827Y-93135105D01*
X130499972Y-93148754D01*
X130501506Y-93162592D01*
X130502427Y-93176600D01*
X130502531Y-93181392D01*
X130502735Y-93190759D01*
G37*
G36*
X129137757Y-91008227D02*
G01*
X129156184Y-91009546D01*
X129174227Y-91011744D01*
X129191870Y-91014820D01*
X129209097Y-91018776D01*
X129225890Y-91023610D01*
X129242233Y-91029322D01*
X129258109Y-91035913D01*
X129273501Y-91043381D01*
X129288393Y-91051728D01*
X129302767Y-91060952D01*
X129316608Y-91071054D01*
X129329898Y-91082034D01*
X129342621Y-91093891D01*
X129354759Y-91106625D01*
X129366297Y-91120235D01*
X129370107Y-91120235D01*
X129370107Y-91019058D01*
X129561242Y-91019058D01*
X129561242Y-91969177D01*
X129370107Y-91969177D01*
X129370107Y-91403340D01*
X129369872Y-91391371D01*
X129369175Y-91379724D01*
X129368025Y-91368404D01*
X129366431Y-91357414D01*
X129364404Y-91346759D01*
X129361953Y-91336441D01*
X129359087Y-91326464D01*
X129355816Y-91316833D01*
X129352150Y-91307551D01*
X129348098Y-91298622D01*
X129343670Y-91290050D01*
X129338875Y-91281837D01*
X129333724Y-91273989D01*
X129328225Y-91266509D01*
X129322389Y-91259400D01*
X129316224Y-91252666D01*
X129309741Y-91246312D01*
X129302950Y-91240340D01*
X129295859Y-91234755D01*
X129288479Y-91229560D01*
X129280818Y-91224759D01*
X129272887Y-91220356D01*
X129264696Y-91216354D01*
X129256253Y-91212758D01*
X129247569Y-91209571D01*
X129238653Y-91206796D01*
X129229514Y-91204439D01*
X129220163Y-91202501D01*
X129210609Y-91200988D01*
X129200861Y-91199902D01*
X129190929Y-91199248D01*
X129180824Y-91199029D01*
X129170886Y-91199248D01*
X129161112Y-91199902D01*
X129151512Y-91200988D01*
X129142096Y-91202501D01*
X129132873Y-91204439D01*
X129123853Y-91206797D01*
X129115047Y-91209571D01*
X129106465Y-91212758D01*
X129098116Y-91216354D01*
X129090010Y-91220356D01*
X129082158Y-91224759D01*
X129074569Y-91229560D01*
X129067253Y-91234755D01*
X129060220Y-91240340D01*
X129053480Y-91246312D01*
X129047044Y-91252667D01*
X129040920Y-91259400D01*
X129035119Y-91266509D01*
X129029652Y-91273990D01*
X129024527Y-91281838D01*
X129019755Y-91290050D01*
X129015345Y-91298623D01*
X129011309Y-91307552D01*
X129007655Y-91316834D01*
X129004393Y-91326465D01*
X129001535Y-91336441D01*
X128999088Y-91346759D01*
X128997064Y-91357415D01*
X128995473Y-91368404D01*
X128994324Y-91379724D01*
X128993627Y-91391371D01*
X128993393Y-91403340D01*
X128993393Y-91969177D01*
X128802258Y-91969177D01*
X128802258Y-91337669D01*
X128802746Y-91317756D01*
X128804188Y-91298438D01*
X128806549Y-91279718D01*
X128809794Y-91261599D01*
X128813888Y-91244083D01*
X128818797Y-91227172D01*
X128824487Y-91210869D01*
X128830922Y-91195177D01*
X128838068Y-91180096D01*
X128845891Y-91165631D01*
X128854355Y-91151783D01*
X128863426Y-91138554D01*
X128873070Y-91125948D01*
X128883251Y-91113966D01*
X128893935Y-91102611D01*
X128905088Y-91091885D01*
X128916675Y-91081791D01*
X128928660Y-91072330D01*
X128941011Y-91063506D01*
X128953691Y-91055321D01*
X128966666Y-91047777D01*
X128979901Y-91040876D01*
X128993363Y-91034622D01*
X129007016Y-91029015D01*
X129034756Y-91019757D01*
X129062846Y-91013120D01*
X129091008Y-91009124D01*
X129105029Y-91008122D01*
X129118964Y-91007787D01*
X129137757Y-91008227D01*
G37*
G36*
X124441884Y-91009429D02*
G01*
X124462209Y-91011502D01*
X124482379Y-91014427D01*
X124502355Y-91018216D01*
X124522100Y-91022883D01*
X124541577Y-91028441D01*
X124560749Y-91034903D01*
X124579577Y-91042282D01*
X124598025Y-91050590D01*
X124616056Y-91059842D01*
X124633631Y-91070049D01*
X124650713Y-91081225D01*
X124667266Y-91093383D01*
X124683251Y-91106536D01*
X124698631Y-91120698D01*
X124713368Y-91135880D01*
X124727426Y-91152096D01*
X124740767Y-91169359D01*
X124753354Y-91187683D01*
X124765148Y-91207079D01*
X124776114Y-91227562D01*
X124786212Y-91249144D01*
X124795406Y-91271838D01*
X124803659Y-91295657D01*
X124810933Y-91320614D01*
X124817190Y-91346723D01*
X124822394Y-91373996D01*
X124826506Y-91402446D01*
X124829489Y-91432086D01*
X124831307Y-91462930D01*
X124831921Y-91494991D01*
X124831307Y-91526901D01*
X124829489Y-91557605D01*
X124826506Y-91587113D01*
X124822394Y-91615439D01*
X124817190Y-91642596D01*
X124810933Y-91668596D01*
X124803659Y-91693453D01*
X124795406Y-91717178D01*
X124786212Y-91739785D01*
X124776114Y-91761287D01*
X124765148Y-91781696D01*
X124753354Y-91801024D01*
X124740767Y-91819286D01*
X124727426Y-91836493D01*
X124713368Y-91852658D01*
X124698631Y-91867794D01*
X124683251Y-91881915D01*
X124667266Y-91895031D01*
X124650713Y-91907157D01*
X124633631Y-91918305D01*
X124616056Y-91928488D01*
X124598025Y-91937718D01*
X124579577Y-91946009D01*
X124560749Y-91953373D01*
X124522100Y-91965371D01*
X124482379Y-91973815D01*
X124441884Y-91978806D01*
X124400915Y-91980447D01*
X124374209Y-91979645D01*
X124348206Y-91977280D01*
X124322911Y-91973416D01*
X124298327Y-91968116D01*
X124274455Y-91961444D01*
X124251301Y-91953463D01*
X124228866Y-91944236D01*
X124207154Y-91933828D01*
X124186168Y-91922300D01*
X124165912Y-91909718D01*
X124146388Y-91896143D01*
X124127599Y-91881640D01*
X124109550Y-91866272D01*
X124092242Y-91850103D01*
X124075680Y-91833195D01*
X124059866Y-91815612D01*
X124200413Y-91690041D01*
X124209434Y-91700732D01*
X124218924Y-91710991D01*
X124228870Y-91720783D01*
X124239258Y-91730073D01*
X124250075Y-91738824D01*
X124261305Y-91747002D01*
X124272936Y-91754570D01*
X124284954Y-91761492D01*
X124297345Y-91767734D01*
X124310094Y-91773259D01*
X124323188Y-91778032D01*
X124336613Y-91782017D01*
X124350356Y-91785179D01*
X124364401Y-91787481D01*
X124371534Y-91788299D01*
X124378736Y-91788889D01*
X124386008Y-91789246D01*
X124393347Y-91789366D01*
X124407740Y-91789107D01*
X124421755Y-91788326D01*
X124435387Y-91787017D01*
X124448631Y-91785175D01*
X124461481Y-91782795D01*
X124473933Y-91779871D01*
X124485981Y-91776398D01*
X124497620Y-91772369D01*
X124508845Y-91767780D01*
X124519651Y-91762626D01*
X124530031Y-91756900D01*
X124539983Y-91750597D01*
X124549499Y-91743712D01*
X124558575Y-91736240D01*
X124567206Y-91728174D01*
X124575387Y-91719509D01*
X124583112Y-91710241D01*
X124590376Y-91700363D01*
X124597174Y-91689869D01*
X124603501Y-91678755D01*
X124609352Y-91667015D01*
X124614721Y-91654644D01*
X124619603Y-91641635D01*
X124623993Y-91627984D01*
X124627887Y-91613685D01*
X124631278Y-91598733D01*
X124634161Y-91583122D01*
X124636532Y-91566846D01*
X124638385Y-91549901D01*
X124639715Y-91532280D01*
X124640517Y-91513978D01*
X124640785Y-91494991D01*
X124639716Y-91457395D01*
X124636534Y-91422563D01*
X124634164Y-91406169D01*
X124631282Y-91390448D01*
X124627893Y-91375395D01*
X124624001Y-91361004D01*
X124619612Y-91347269D01*
X124614731Y-91334183D01*
X124609364Y-91321742D01*
X124603515Y-91309940D01*
X124597190Y-91298770D01*
X124590393Y-91288226D01*
X124583131Y-91278304D01*
X124575407Y-91268997D01*
X124567228Y-91260299D01*
X124558598Y-91252204D01*
X124549522Y-91244707D01*
X124540006Y-91237802D01*
X124530055Y-91231483D01*
X124519674Y-91225744D01*
X124508868Y-91220579D01*
X124497643Y-91215982D01*
X124486003Y-91211949D01*
X124473953Y-91208471D01*
X124461499Y-91205545D01*
X124448646Y-91203164D01*
X124421764Y-91200014D01*
X124393347Y-91198975D01*
X124378736Y-91199452D01*
X124364399Y-91200859D01*
X124350351Y-91203162D01*
X124336606Y-91206323D01*
X124323177Y-91210309D01*
X124310080Y-91215082D01*
X124297327Y-91220607D01*
X124284934Y-91226849D01*
X124272915Y-91233771D01*
X124261282Y-91241339D01*
X124250051Y-91249517D01*
X124239236Y-91258268D01*
X124228850Y-91267558D01*
X124218909Y-91277350D01*
X124209425Y-91287609D01*
X124200413Y-91298299D01*
X124059866Y-91172728D01*
X124075689Y-91155118D01*
X124092259Y-91138187D01*
X124109574Y-91121999D01*
X124127629Y-91106616D01*
X124146421Y-91092101D01*
X124165948Y-91078519D01*
X124186207Y-91065930D01*
X124207193Y-91054399D01*
X124228904Y-91043989D01*
X124251337Y-91034763D01*
X124274489Y-91026782D01*
X124298356Y-91020112D01*
X124322935Y-91014814D01*
X124348224Y-91010952D01*
X124361133Y-91009579D01*
X124374218Y-91008588D01*
X124387479Y-91007988D01*
X124400915Y-91007787D01*
X124441884Y-91009429D01*
G37*
G36*
X127060559Y-93185149D02*
G01*
X127064422Y-93185149D01*
X127279898Y-92519881D01*
X127418593Y-92519881D01*
X127634069Y-93185149D01*
X127637826Y-93185149D01*
X127819648Y-92519881D01*
X128022002Y-92519881D01*
X127718419Y-93470000D01*
X127549773Y-93470000D01*
X127351124Y-92804678D01*
X127347367Y-92804678D01*
X127148718Y-93470000D01*
X126979967Y-93470000D01*
X126676437Y-92519881D01*
X126878896Y-92519881D01*
X127060559Y-93185149D01*
G37*
G36*
X128234627Y-83903722D02*
G01*
X128236637Y-83903872D01*
X128238637Y-83904119D01*
X128240624Y-83904459D01*
X128242596Y-83904892D01*
X128244550Y-83905414D01*
X128246481Y-83906022D01*
X128248388Y-83906716D01*
X128250267Y-83907491D01*
X128252116Y-83908345D01*
X128255709Y-83910283D01*
X128259143Y-83912509D01*
X128262395Y-83915003D01*
X128265441Y-83917746D01*
X128268256Y-83920717D01*
X128270816Y-83923898D01*
X128271994Y-83925561D01*
X128273098Y-83927269D01*
X128274128Y-83929019D01*
X128275078Y-83930809D01*
X128275947Y-83932636D01*
X128276732Y-83934498D01*
X128277429Y-83936393D01*
X128278035Y-83938318D01*
X128278548Y-83940271D01*
X128278965Y-83942248D01*
X128446393Y-84841990D01*
X128447329Y-84845984D01*
X128448616Y-84849992D01*
X128450229Y-84853987D01*
X128452148Y-84857944D01*
X128454349Y-84861836D01*
X128456811Y-84865636D01*
X128459511Y-84869320D01*
X128462427Y-84872861D01*
X128465536Y-84876232D01*
X128468817Y-84879408D01*
X128472246Y-84882362D01*
X128475801Y-84885069D01*
X128479461Y-84887501D01*
X128483203Y-84889634D01*
X128487004Y-84891441D01*
X128490843Y-84892896D01*
X129093934Y-85139752D01*
X129097690Y-85141402D01*
X129101671Y-85142779D01*
X129105843Y-85143888D01*
X129110171Y-85144729D01*
X129114619Y-85145306D01*
X129119152Y-85145621D01*
X129123737Y-85145676D01*
X129128337Y-85145474D01*
X129132917Y-85145017D01*
X129137444Y-85144308D01*
X129141882Y-85143348D01*
X129146195Y-85142141D01*
X129150349Y-85140689D01*
X129154310Y-85138994D01*
X129158041Y-85137058D01*
X129161509Y-85134884D01*
X129913137Y-84619052D01*
X129914835Y-84617950D01*
X129916583Y-84616932D01*
X129918378Y-84616001D01*
X129920215Y-84615154D01*
X129922090Y-84614393D01*
X129924001Y-84613716D01*
X129927910Y-84612613D01*
X129931912Y-84611844D01*
X129935976Y-84611406D01*
X129940071Y-84611297D01*
X129944166Y-84611512D01*
X129948231Y-84612050D01*
X129952235Y-84612907D01*
X129956147Y-84614081D01*
X129959936Y-84615570D01*
X129963572Y-84617370D01*
X129965322Y-84618385D01*
X129967023Y-84619478D01*
X129968670Y-84620647D01*
X129970260Y-84621892D01*
X129971788Y-84623213D01*
X129973250Y-84624609D01*
X130606346Y-85257651D01*
X130607737Y-85259118D01*
X130609054Y-85260651D01*
X130610295Y-85262244D01*
X130611461Y-85263895D01*
X130612551Y-85265599D01*
X130613565Y-85267353D01*
X130614502Y-85269153D01*
X130615362Y-85270995D01*
X130616145Y-85272874D01*
X130616849Y-85274788D01*
X130618024Y-85278703D01*
X130618883Y-85282709D01*
X130619423Y-85286775D01*
X130619641Y-85290869D01*
X130619534Y-85294963D01*
X130619099Y-85299023D01*
X130618758Y-85301032D01*
X130618334Y-85303021D01*
X130617826Y-85304986D01*
X130617234Y-85306925D01*
X130616558Y-85308831D01*
X130615798Y-85310703D01*
X130614952Y-85312536D01*
X130614021Y-85314327D01*
X130613005Y-85316071D01*
X130611902Y-85317764D01*
X130105013Y-86056481D01*
X130102852Y-86059972D01*
X130100933Y-86063718D01*
X130099260Y-86067683D01*
X130097834Y-86071834D01*
X130096657Y-86076136D01*
X130095733Y-86080556D01*
X130095062Y-86085060D01*
X130094648Y-86089613D01*
X130094492Y-86094182D01*
X130094598Y-86098732D01*
X130094966Y-86103229D01*
X130095600Y-86107640D01*
X130096501Y-86111931D01*
X130097672Y-86116066D01*
X130099115Y-86120013D01*
X130100833Y-86123738D01*
X130367533Y-86745826D01*
X130368244Y-86747739D01*
X130369046Y-86749646D01*
X130370909Y-86753431D01*
X130373095Y-86757158D01*
X130375578Y-86760806D01*
X130378332Y-86764350D01*
X130381331Y-86767770D01*
X130384549Y-86771042D01*
X130387959Y-86774143D01*
X130391535Y-86777052D01*
X130395251Y-86779745D01*
X130399081Y-86782200D01*
X130402998Y-86784395D01*
X130406977Y-86786306D01*
X130410992Y-86787912D01*
X130415015Y-86789190D01*
X130417021Y-86789699D01*
X130419021Y-86790117D01*
X131288865Y-86951883D01*
X131290847Y-86952309D01*
X131292804Y-86952831D01*
X131294732Y-86953445D01*
X131296630Y-86954149D01*
X131298495Y-86954940D01*
X131300324Y-86955814D01*
X131302116Y-86956770D01*
X131303867Y-86957804D01*
X131305575Y-86958912D01*
X131307238Y-86960093D01*
X131308853Y-86961343D01*
X131310419Y-86962659D01*
X131311932Y-86964038D01*
X131313389Y-86965477D01*
X131314790Y-86966974D01*
X131316130Y-86968526D01*
X131317408Y-86970129D01*
X131318622Y-86971780D01*
X131319768Y-86973477D01*
X131320844Y-86975216D01*
X131321849Y-86976996D01*
X131322779Y-86978812D01*
X131323631Y-86980661D01*
X131324405Y-86982542D01*
X131325097Y-86984451D01*
X131325704Y-86986384D01*
X131326225Y-86988340D01*
X131326656Y-86990314D01*
X131326996Y-86992305D01*
X131327242Y-86994309D01*
X131327391Y-86996323D01*
X131327441Y-86998344D01*
X131327388Y-87893641D01*
X131327338Y-87895663D01*
X131327188Y-87897679D01*
X131326942Y-87899684D01*
X131326601Y-87901678D01*
X131326168Y-87903656D01*
X131325646Y-87905615D01*
X131325038Y-87907553D01*
X131324345Y-87909466D01*
X131322715Y-87913206D01*
X131320777Y-87916811D01*
X131318552Y-87920257D01*
X131316057Y-87923519D01*
X131313314Y-87926574D01*
X131310343Y-87929397D01*
X131307162Y-87931963D01*
X131305499Y-87933143D01*
X131303791Y-87934249D01*
X131302041Y-87935279D01*
X131300252Y-87936230D01*
X131298424Y-87937099D01*
X131296562Y-87937882D01*
X131294667Y-87938577D01*
X131292742Y-87939181D01*
X131290790Y-87939690D01*
X131288812Y-87940102D01*
X130440293Y-88098006D01*
X130438300Y-88098415D01*
X130436302Y-88098917D01*
X130432301Y-88100187D01*
X130428318Y-88101793D01*
X130424378Y-88103711D01*
X130420507Y-88105918D01*
X130416731Y-88108390D01*
X130413076Y-88111105D01*
X130409568Y-88114039D01*
X130406234Y-88117170D01*
X130403098Y-88120472D01*
X130400187Y-88123925D01*
X130397527Y-88127503D01*
X130395144Y-88131185D01*
X130393064Y-88134946D01*
X130391313Y-88138764D01*
X130390569Y-88140686D01*
X130389917Y-88142614D01*
X130125016Y-88804337D01*
X130123376Y-88808101D01*
X130122009Y-88812087D01*
X130120910Y-88816261D01*
X130120079Y-88820588D01*
X130119512Y-88825034D01*
X130119207Y-88829564D01*
X130119161Y-88834144D01*
X130119373Y-88838740D01*
X130119840Y-88843316D01*
X130120560Y-88847838D01*
X130121529Y-88852272D01*
X130122746Y-88856583D01*
X130124208Y-88860737D01*
X130125914Y-88864700D01*
X130127859Y-88868436D01*
X130130043Y-88871912D01*
X130612008Y-89574275D01*
X130613106Y-89575968D01*
X130614118Y-89577713D01*
X130615046Y-89579504D01*
X130615888Y-89581338D01*
X130616646Y-89583211D01*
X130617320Y-89585119D01*
X130618417Y-89589026D01*
X130619182Y-89593028D01*
X130619616Y-89597093D01*
X130619725Y-89601191D01*
X130619509Y-89605291D01*
X130618971Y-89609361D01*
X130618116Y-89613372D01*
X130616945Y-89617291D01*
X130615461Y-89621089D01*
X130613666Y-89624733D01*
X130612654Y-89626489D01*
X130611565Y-89628194D01*
X130610400Y-89629846D01*
X130609159Y-89631440D01*
X130607843Y-89632973D01*
X130606452Y-89634441D01*
X129973304Y-90267483D01*
X129971841Y-90268870D01*
X129970313Y-90270181D01*
X129968723Y-90271418D01*
X129967076Y-90272579D01*
X129965376Y-90273665D01*
X129963625Y-90274674D01*
X129961828Y-90275607D01*
X129959989Y-90276462D01*
X129958112Y-90277241D01*
X129956200Y-90277942D01*
X129952288Y-90279110D01*
X129948284Y-90279964D01*
X129944219Y-90280501D01*
X129940124Y-90280717D01*
X129936029Y-90280611D01*
X129931965Y-90280179D01*
X129929954Y-90279840D01*
X129927963Y-90279419D01*
X129925995Y-90278915D01*
X129924054Y-90278328D01*
X129922144Y-90277657D01*
X129920268Y-90276903D01*
X129918431Y-90276064D01*
X129916637Y-90275141D01*
X129914888Y-90274133D01*
X129913190Y-90273040D01*
X129223263Y-89799488D01*
X129219794Y-89797338D01*
X129216077Y-89795451D01*
X129212148Y-89793829D01*
X129208038Y-89792473D01*
X129203784Y-89791382D01*
X129199418Y-89790560D01*
X129194974Y-89790005D01*
X129190487Y-89789719D01*
X129185991Y-89789702D01*
X129181520Y-89789957D01*
X129177107Y-89790482D01*
X129172788Y-89791280D01*
X129168595Y-89792352D01*
X129164562Y-89793697D01*
X129160725Y-89795317D01*
X129157117Y-89797213D01*
X128852846Y-89959667D01*
X128851031Y-89960537D01*
X128849201Y-89961302D01*
X128847358Y-89961962D01*
X128845506Y-89962520D01*
X128843647Y-89962976D01*
X128841786Y-89963332D01*
X128839925Y-89963589D01*
X128838067Y-89963747D01*
X128836217Y-89963809D01*
X128834375Y-89963776D01*
X128832548Y-89963647D01*
X128830736Y-89963426D01*
X128828943Y-89963112D01*
X128827174Y-89962708D01*
X128825430Y-89962214D01*
X128823715Y-89961632D01*
X128822033Y-89960962D01*
X128820386Y-89960206D01*
X128818777Y-89959365D01*
X128817211Y-89958441D01*
X128815689Y-89957434D01*
X128814216Y-89956346D01*
X128812794Y-89955177D01*
X128811427Y-89953930D01*
X128810118Y-89952605D01*
X128808869Y-89951203D01*
X128807685Y-89949726D01*
X128806568Y-89948175D01*
X128805522Y-89946551D01*
X128804550Y-89944855D01*
X128803655Y-89943088D01*
X128802840Y-89941252D01*
X128175460Y-88425348D01*
X128174730Y-88423462D01*
X128174095Y-88421548D01*
X128173556Y-88419608D01*
X128173111Y-88417647D01*
X128172758Y-88415669D01*
X128172496Y-88413676D01*
X128172243Y-88409661D01*
X128172341Y-88405634D01*
X128172780Y-88401621D01*
X128173552Y-88397652D01*
X128174646Y-88393757D01*
X128176054Y-88389963D01*
X128177765Y-88386299D01*
X128179771Y-88382795D01*
X128182061Y-88379479D01*
X128184625Y-88376380D01*
X128186008Y-88374921D01*
X128187456Y-88373527D01*
X128188968Y-88372202D01*
X128190542Y-88370949D01*
X128192178Y-88369772D01*
X128193875Y-88368674D01*
X128270022Y-88322055D01*
X128275518Y-88318564D01*
X128281379Y-88314580D01*
X128287495Y-88310189D01*
X128293762Y-88305478D01*
X128300070Y-88300535D01*
X128306314Y-88295444D01*
X128312385Y-88290294D01*
X128318177Y-88285172D01*
X128368576Y-88250669D01*
X128416677Y-88213206D01*
X128462348Y-88172916D01*
X128505458Y-88129928D01*
X128545875Y-88084372D01*
X128583467Y-88036380D01*
X128618104Y-87986081D01*
X128649653Y-87933607D01*
X128677983Y-87879087D01*
X128690900Y-87851102D01*
X128702963Y-87822653D01*
X128714155Y-87793759D01*
X128724460Y-87764435D01*
X128733862Y-87734698D01*
X128742344Y-87704564D01*
X128749890Y-87674049D01*
X128756483Y-87643169D01*
X128762107Y-87611941D01*
X128766745Y-87580382D01*
X128770381Y-87548507D01*
X128772998Y-87516333D01*
X128774581Y-87483876D01*
X128775112Y-87451152D01*
X128773824Y-87400200D01*
X128770000Y-87349916D01*
X128763703Y-87300364D01*
X128754995Y-87251605D01*
X128743938Y-87203701D01*
X128730594Y-87156716D01*
X128715027Y-87110710D01*
X128697297Y-87065747D01*
X128677468Y-87021888D01*
X128655601Y-86979196D01*
X128631759Y-86937733D01*
X128606003Y-86897560D01*
X128578397Y-86858741D01*
X128549002Y-86821337D01*
X128517881Y-86785411D01*
X128485096Y-86751025D01*
X128450708Y-86718241D01*
X128414781Y-86687121D01*
X128377377Y-86657728D01*
X128338557Y-86630123D01*
X128298385Y-86604370D01*
X128256921Y-86580529D01*
X128214230Y-86558664D01*
X128170371Y-86538836D01*
X128125409Y-86521108D01*
X128079405Y-86505542D01*
X128032422Y-86492200D01*
X127984521Y-86481144D01*
X127935765Y-86472437D01*
X127886216Y-86466140D01*
X127835936Y-86462317D01*
X127784988Y-86461029D01*
X127734041Y-86462317D01*
X127683762Y-86466140D01*
X127634213Y-86472437D01*
X127585458Y-86481144D01*
X127537559Y-86492200D01*
X127490577Y-86505542D01*
X127444574Y-86521108D01*
X127399614Y-86538836D01*
X127355758Y-86558664D01*
X127313068Y-86580529D01*
X127271607Y-86604370D01*
X127231436Y-86630123D01*
X127192619Y-86657728D01*
X127155217Y-86687121D01*
X127119292Y-86718241D01*
X127084908Y-86751025D01*
X127052125Y-86785411D01*
X127021006Y-86821337D01*
X126991614Y-86858741D01*
X126964010Y-86897560D01*
X126938257Y-86937733D01*
X126914416Y-86979196D01*
X126892552Y-87021888D01*
X126872724Y-87065747D01*
X126854996Y-87110710D01*
X126839430Y-87156716D01*
X126826088Y-87203701D01*
X126815033Y-87251605D01*
X126806326Y-87300364D01*
X126800029Y-87349916D01*
X126796206Y-87400200D01*
X126794918Y-87451152D01*
X126797031Y-87516333D01*
X126803283Y-87580382D01*
X126813542Y-87643169D01*
X126827678Y-87704564D01*
X126845559Y-87764435D01*
X126867053Y-87822653D01*
X126892029Y-87879087D01*
X126920357Y-87933607D01*
X126951904Y-87986081D01*
X126986539Y-88036380D01*
X127024131Y-88084372D01*
X127064550Y-88129927D01*
X127107662Y-88172916D01*
X127153338Y-88213206D01*
X127201445Y-88250669D01*
X127251853Y-88285172D01*
X127257612Y-88290294D01*
X127263662Y-88295444D01*
X127269893Y-88300535D01*
X127276195Y-88305479D01*
X127282457Y-88310190D01*
X127288569Y-88314580D01*
X127294421Y-88318564D01*
X127299902Y-88322055D01*
X127376049Y-88368674D01*
X127377736Y-88369772D01*
X127379363Y-88370949D01*
X127380930Y-88372202D01*
X127382435Y-88373527D01*
X127383877Y-88374921D01*
X127385254Y-88376380D01*
X127386566Y-88377901D01*
X127387811Y-88379479D01*
X127388988Y-88381112D01*
X127390096Y-88382795D01*
X127391133Y-88384525D01*
X127392098Y-88386299D01*
X127392990Y-88388113D01*
X127393809Y-88389963D01*
X127394552Y-88391845D01*
X127395218Y-88393757D01*
X127395806Y-88395694D01*
X127396316Y-88397652D01*
X127396745Y-88399629D01*
X127397092Y-88401621D01*
X127397357Y-88403624D01*
X127397538Y-88405634D01*
X127397634Y-88407647D01*
X127397644Y-88409661D01*
X127397566Y-88411672D01*
X127397399Y-88413676D01*
X127397142Y-88415669D01*
X127396793Y-88417647D01*
X127396353Y-88419608D01*
X127395818Y-88421548D01*
X127395189Y-88423462D01*
X127394464Y-88425348D01*
X126767136Y-89941305D01*
X126766321Y-89943141D01*
X126765427Y-89944907D01*
X126764455Y-89946602D01*
X126763410Y-89948225D01*
X126762294Y-89949775D01*
X126761111Y-89951251D01*
X126759864Y-89952651D01*
X126758556Y-89953975D01*
X126757191Y-89955221D01*
X126755771Y-89956387D01*
X126754299Y-89957474D01*
X126752779Y-89958479D01*
X126751214Y-89959402D01*
X126749607Y-89960241D01*
X126747962Y-89960996D01*
X126746281Y-89961664D01*
X126744567Y-89962246D01*
X126742824Y-89962739D01*
X126741055Y-89963142D01*
X126739264Y-89963455D01*
X126737452Y-89963676D01*
X126735624Y-89963805D01*
X126733783Y-89963839D01*
X126731931Y-89963778D01*
X126730072Y-89963620D01*
X126728210Y-89963365D01*
X126726347Y-89963011D01*
X126724486Y-89962557D01*
X126722630Y-89962002D01*
X126720784Y-89961345D01*
X126718950Y-89960585D01*
X126717130Y-89959719D01*
X126412859Y-89797266D01*
X126409242Y-89795369D01*
X126405399Y-89793747D01*
X126401362Y-89792400D01*
X126397166Y-89791326D01*
X126392845Y-89790524D01*
X126388433Y-89789995D01*
X126383963Y-89789738D01*
X126379469Y-89789751D01*
X126374985Y-89790035D01*
X126370545Y-89790589D01*
X126366182Y-89791411D01*
X126361930Y-89792503D01*
X126357824Y-89793862D01*
X126353897Y-89795488D01*
X126350182Y-89797382D01*
X126346714Y-89799541D01*
X125656733Y-90273092D01*
X125655039Y-90274185D01*
X125653295Y-90275193D01*
X125651504Y-90276116D01*
X125649670Y-90276955D01*
X125647797Y-90277710D01*
X125645889Y-90278380D01*
X125641983Y-90279472D01*
X125637983Y-90280232D01*
X125633921Y-90280663D01*
X125629826Y-90280770D01*
X125625731Y-90280553D01*
X125621666Y-90280017D01*
X125617662Y-90279163D01*
X125613751Y-90277995D01*
X125609964Y-90276515D01*
X125606331Y-90274726D01*
X125604583Y-90273717D01*
X125602885Y-90272632D01*
X125601241Y-90271470D01*
X125599655Y-90270234D01*
X125598131Y-90268922D01*
X125596673Y-90267535D01*
X124963525Y-89634494D01*
X124962128Y-89633026D01*
X124960808Y-89631493D01*
X124959563Y-89629899D01*
X124958394Y-89628247D01*
X124957301Y-89626541D01*
X124956286Y-89624786D01*
X124955347Y-89622985D01*
X124954486Y-89621141D01*
X124953703Y-89619260D01*
X124952998Y-89617344D01*
X124951823Y-89613424D01*
X124950966Y-89609414D01*
X124950428Y-89605343D01*
X124950213Y-89601243D01*
X124950323Y-89597145D01*
X124950761Y-89593080D01*
X124951104Y-89591070D01*
X124951530Y-89589079D01*
X124952039Y-89587111D01*
X124952632Y-89585172D01*
X124953309Y-89583263D01*
X124954071Y-89581390D01*
X124954917Y-89579556D01*
X124955849Y-89577765D01*
X124956866Y-89576021D01*
X124957969Y-89574327D01*
X125439986Y-88871964D01*
X125442152Y-88868489D01*
X125444083Y-88864752D01*
X125445776Y-88860790D01*
X125447230Y-88856636D01*
X125448441Y-88852324D01*
X125449406Y-88847890D01*
X125450123Y-88843368D01*
X125450589Y-88838792D01*
X125450802Y-88834197D01*
X125450758Y-88829617D01*
X125450455Y-88825087D01*
X125449891Y-88820641D01*
X125449061Y-88816314D01*
X125447965Y-88812140D01*
X125446599Y-88808153D01*
X125444960Y-88804390D01*
X125180060Y-88142667D01*
X125179403Y-88140739D01*
X125178656Y-88138816D01*
X125176901Y-88134999D01*
X125174822Y-88131238D01*
X125172442Y-88127556D01*
X125169789Y-88123978D01*
X125166886Y-88120525D01*
X125163759Y-88117222D01*
X125160434Y-88114092D01*
X125156936Y-88111158D01*
X125153291Y-88108443D01*
X125149523Y-88105970D01*
X125145658Y-88103763D01*
X125141721Y-88101845D01*
X125137739Y-88100240D01*
X125135738Y-88099561D01*
X125133735Y-88098969D01*
X125131733Y-88098467D01*
X125129735Y-88098058D01*
X124281216Y-87940155D01*
X124279243Y-87939743D01*
X124277295Y-87939233D01*
X124275374Y-87938630D01*
X124273482Y-87937935D01*
X124271622Y-87937151D01*
X124269797Y-87936283D01*
X124268008Y-87935332D01*
X124266259Y-87934302D01*
X124264553Y-87933195D01*
X124262890Y-87932016D01*
X124261275Y-87930766D01*
X124259709Y-87929449D01*
X124258195Y-87928069D01*
X124256736Y-87926627D01*
X124255334Y-87925127D01*
X124253991Y-87923572D01*
X124252710Y-87921965D01*
X124251494Y-87920310D01*
X124250345Y-87918608D01*
X124249265Y-87916864D01*
X124248258Y-87915079D01*
X124247324Y-87913259D01*
X124246468Y-87911404D01*
X124245692Y-87909518D01*
X124244997Y-87907605D01*
X124244387Y-87905668D01*
X124243864Y-87903708D01*
X124243430Y-87901731D01*
X124243088Y-87899737D01*
X124242841Y-87897731D01*
X124242691Y-87895716D01*
X124242641Y-87893694D01*
X124242535Y-86998397D01*
X124242580Y-86996371D01*
X124242725Y-86994352D01*
X124242968Y-86992344D01*
X124243304Y-86990349D01*
X124243733Y-86988371D01*
X124244251Y-86986412D01*
X124244857Y-86984476D01*
X124245547Y-86982564D01*
X124246319Y-86980681D01*
X124247171Y-86978829D01*
X124249103Y-86975229D01*
X124251323Y-86971789D01*
X124253813Y-86968532D01*
X124256551Y-86965482D01*
X124259517Y-86962661D01*
X124262693Y-86960094D01*
X124266057Y-86957804D01*
X124267804Y-86956771D01*
X124269590Y-86955815D01*
X124271414Y-86954940D01*
X124273273Y-86954149D01*
X124275164Y-86953445D01*
X124277084Y-86952831D01*
X124279032Y-86952309D01*
X124281005Y-86951883D01*
X125150902Y-86790117D01*
X125154890Y-86789190D01*
X125158898Y-86787912D01*
X125162901Y-86786306D01*
X125166872Y-86784395D01*
X125170784Y-86782200D01*
X125174611Y-86779745D01*
X125178326Y-86777052D01*
X125181904Y-86774143D01*
X125185318Y-86771042D01*
X125188540Y-86767770D01*
X125191546Y-86764350D01*
X125194308Y-86760806D01*
X125196799Y-86757158D01*
X125198995Y-86753431D01*
X125200867Y-86749646D01*
X125202390Y-86745826D01*
X125469038Y-86123738D01*
X125470764Y-86120013D01*
X125472216Y-86116066D01*
X125473393Y-86111931D01*
X125474300Y-86107640D01*
X125474937Y-86103229D01*
X125475307Y-86098732D01*
X125475412Y-86094182D01*
X125475255Y-86089613D01*
X125474838Y-86085060D01*
X125474162Y-86080556D01*
X125473230Y-86076136D01*
X125472044Y-86071834D01*
X125470606Y-86067683D01*
X125468919Y-86063718D01*
X125466984Y-86059972D01*
X125464804Y-86056481D01*
X124957968Y-85317764D01*
X124956874Y-85316071D01*
X124955865Y-85314327D01*
X124954941Y-85312536D01*
X124954100Y-85310703D01*
X124953343Y-85308831D01*
X124952670Y-85306925D01*
X124951573Y-85303021D01*
X124950806Y-85299023D01*
X124950368Y-85294963D01*
X124950256Y-85290869D01*
X124950467Y-85286775D01*
X124950999Y-85282709D01*
X124951850Y-85278703D01*
X124953018Y-85274788D01*
X124954500Y-85270995D01*
X124956294Y-85267353D01*
X124957307Y-85265599D01*
X124958397Y-85263895D01*
X124959564Y-85262244D01*
X124960808Y-85260651D01*
X124962128Y-85259118D01*
X124963524Y-85257651D01*
X125596566Y-84624609D01*
X125598033Y-84623212D01*
X125599565Y-84621892D01*
X125601158Y-84620647D01*
X125602808Y-84619478D01*
X125604511Y-84618385D01*
X125606264Y-84617370D01*
X125608062Y-84616431D01*
X125609902Y-84615570D01*
X125611780Y-84614786D01*
X125613691Y-84614081D01*
X125617602Y-84612907D01*
X125621603Y-84612050D01*
X125625664Y-84611512D01*
X125629754Y-84611296D01*
X125633842Y-84611406D01*
X125637898Y-84611844D01*
X125639905Y-84612187D01*
X125641892Y-84612613D01*
X125643856Y-84613122D01*
X125645792Y-84613715D01*
X125647698Y-84614393D01*
X125649568Y-84615154D01*
X125651401Y-84616001D01*
X125653190Y-84616932D01*
X125654934Y-84617949D01*
X125656627Y-84619052D01*
X126408308Y-85134884D01*
X126411785Y-85137058D01*
X126415524Y-85138993D01*
X126419491Y-85140689D01*
X126423651Y-85142141D01*
X126427969Y-85143348D01*
X126432410Y-85144308D01*
X126436938Y-85145017D01*
X126441520Y-85145474D01*
X126446119Y-85145676D01*
X126450702Y-85145621D01*
X126455232Y-85145306D01*
X126459676Y-85144729D01*
X126463998Y-85143888D01*
X126468163Y-85142779D01*
X126472136Y-85141402D01*
X126475882Y-85139752D01*
X127078920Y-84892896D01*
X127080838Y-84892214D01*
X127082750Y-84891441D01*
X127084653Y-84890580D01*
X127086545Y-84889634D01*
X127090282Y-84887501D01*
X127093940Y-84885069D01*
X127097494Y-84882362D01*
X127100924Y-84879408D01*
X127104205Y-84876232D01*
X127107317Y-84872861D01*
X127110235Y-84869320D01*
X127112938Y-84865636D01*
X127115404Y-84861836D01*
X127117608Y-84857944D01*
X127119530Y-84853987D01*
X127121146Y-84849992D01*
X127122433Y-84845984D01*
X127122947Y-84843984D01*
X127123370Y-84841990D01*
X127290852Y-83942248D01*
X127291268Y-83940271D01*
X127291781Y-83938318D01*
X127292388Y-83936393D01*
X127293085Y-83934498D01*
X127293869Y-83932636D01*
X127294739Y-83930809D01*
X127295690Y-83929019D01*
X127296719Y-83927269D01*
X127297824Y-83925561D01*
X127299002Y-83923898D01*
X127300250Y-83922283D01*
X127301564Y-83920717D01*
X127302942Y-83919204D01*
X127304380Y-83917746D01*
X127305877Y-83916344D01*
X127307428Y-83915003D01*
X127309031Y-83913723D01*
X127310683Y-83912509D01*
X127312380Y-83911361D01*
X127314121Y-83910283D01*
X127315901Y-83909277D01*
X127317718Y-83908345D01*
X127319569Y-83907491D01*
X127321451Y-83906716D01*
X127323361Y-83906022D01*
X127325296Y-83905414D01*
X127327252Y-83904892D01*
X127329228Y-83904459D01*
X127331219Y-83904119D01*
X127333224Y-83903872D01*
X127335238Y-83903722D01*
X127337260Y-83903672D01*
X128232610Y-83903672D01*
X128234627Y-83903722D01*
G37*
G36*
X126661673Y-93190759D02*
G01*
X126661312Y-93206105D01*
X126660232Y-93221203D01*
X126658441Y-93236040D01*
X126655944Y-93250598D01*
X126652748Y-93264863D01*
X126648860Y-93278818D01*
X126644286Y-93292448D01*
X126639033Y-93305736D01*
X126633108Y-93318668D01*
X126626516Y-93331227D01*
X126619265Y-93343397D01*
X126611360Y-93355163D01*
X126602809Y-93366509D01*
X126593618Y-93377419D01*
X126583794Y-93387877D01*
X126573342Y-93397868D01*
X126562270Y-93407376D01*
X126550584Y-93416385D01*
X126538291Y-93424879D01*
X126525397Y-93432842D01*
X126511909Y-93440259D01*
X126497833Y-93447114D01*
X126483176Y-93453391D01*
X126467944Y-93459074D01*
X126452143Y-93464147D01*
X126435782Y-93468596D01*
X126418865Y-93472403D01*
X126401399Y-93475554D01*
X126383391Y-93478031D01*
X126364848Y-93479821D01*
X126345776Y-93480906D01*
X126326181Y-93481271D01*
X126302678Y-93480919D01*
X126280612Y-93479856D01*
X126259926Y-93478075D01*
X126240568Y-93475566D01*
X126222482Y-93472321D01*
X126205613Y-93468332D01*
X126189907Y-93463590D01*
X126175309Y-93458088D01*
X126161765Y-93451815D01*
X126149220Y-93444765D01*
X126137619Y-93436928D01*
X126126908Y-93428296D01*
X126117032Y-93418861D01*
X126107936Y-93408614D01*
X126099565Y-93397547D01*
X126091866Y-93385651D01*
X126088162Y-93385651D01*
X126088162Y-93470000D01*
X126088109Y-93470000D01*
X125896921Y-93470000D01*
X125896921Y-93136359D01*
X126088109Y-93136359D01*
X126088270Y-93149864D01*
X126088758Y-93162620D01*
X126089584Y-93174649D01*
X126090755Y-93185972D01*
X126092283Y-93196609D01*
X126094174Y-93206581D01*
X126096440Y-93215911D01*
X126099089Y-93224617D01*
X126102131Y-93232722D01*
X126105575Y-93240247D01*
X126109429Y-93247211D01*
X126113704Y-93253637D01*
X126118408Y-93259546D01*
X126123552Y-93264957D01*
X126129143Y-93269893D01*
X126135192Y-93274373D01*
X126141707Y-93278420D01*
X126148699Y-93282054D01*
X126156175Y-93285296D01*
X126164146Y-93288166D01*
X126172621Y-93290687D01*
X126181608Y-93292878D01*
X126191118Y-93294762D01*
X126201159Y-93296358D01*
X126222873Y-93298772D01*
X126246824Y-93300289D01*
X126273087Y-93301076D01*
X126301734Y-93301302D01*
X126325059Y-93300654D01*
X126346581Y-93298760D01*
X126366343Y-93295691D01*
X126384384Y-93291518D01*
X126392773Y-93289040D01*
X126400747Y-93286312D01*
X126408311Y-93283345D01*
X126415471Y-93280146D01*
X126422232Y-93276726D01*
X126428599Y-93273091D01*
X126434577Y-93269253D01*
X126440171Y-93265219D01*
X126445386Y-93260998D01*
X126450228Y-93256600D01*
X126454701Y-93252034D01*
X126458810Y-93247307D01*
X126462562Y-93242430D01*
X126465960Y-93237411D01*
X126469011Y-93232259D01*
X126471718Y-93226984D01*
X126476125Y-93216097D01*
X126479222Y-93204821D01*
X126481051Y-93193229D01*
X126481651Y-93181392D01*
X126481497Y-93174960D01*
X126481034Y-93168675D01*
X126480261Y-93162539D01*
X126479176Y-93156558D01*
X126477778Y-93150735D01*
X126476065Y-93145073D01*
X126474037Y-93139576D01*
X126471692Y-93134249D01*
X126469028Y-93129094D01*
X126466044Y-93124117D01*
X126462739Y-93119319D01*
X126459112Y-93114707D01*
X126455160Y-93110282D01*
X126450883Y-93106049D01*
X126446280Y-93102011D01*
X126441348Y-93098174D01*
X126436087Y-93094539D01*
X126430495Y-93091112D01*
X126424571Y-93087895D01*
X126418314Y-93084893D01*
X126411721Y-93082109D01*
X126404792Y-93079548D01*
X126397526Y-93077212D01*
X126389921Y-93075106D01*
X126381975Y-93073234D01*
X126373688Y-93071599D01*
X126365057Y-93070205D01*
X126356082Y-93069057D01*
X126346761Y-93068156D01*
X126337093Y-93067509D01*
X126327076Y-93067117D01*
X126316710Y-93066986D01*
X126088110Y-93066986D01*
X126088110Y-93136359D01*
X126088109Y-93136359D01*
X125896921Y-93136359D01*
X125896921Y-92821559D01*
X125897391Y-92800055D01*
X125898789Y-92779448D01*
X125901100Y-92759724D01*
X125904307Y-92740869D01*
X125908394Y-92722868D01*
X125913345Y-92705708D01*
X125919144Y-92689375D01*
X125925774Y-92673854D01*
X125933220Y-92659132D01*
X125941465Y-92645194D01*
X125950494Y-92632027D01*
X125960289Y-92619616D01*
X125970835Y-92607948D01*
X125982115Y-92597008D01*
X125994115Y-92586782D01*
X126006816Y-92577256D01*
X126020204Y-92568417D01*
X126034261Y-92560249D01*
X126048973Y-92552740D01*
X126064322Y-92545875D01*
X126080293Y-92539639D01*
X126096869Y-92534020D01*
X126114034Y-92529002D01*
X126131772Y-92524572D01*
X126150067Y-92520716D01*
X126168903Y-92517420D01*
X126208132Y-92512451D01*
X126249330Y-92509551D01*
X126292368Y-92508610D01*
X126318631Y-92509055D01*
X126344027Y-92510415D01*
X126368563Y-92512730D01*
X126392246Y-92516038D01*
X126415086Y-92520378D01*
X126437090Y-92525788D01*
X126458266Y-92532308D01*
X126478621Y-92539976D01*
X126498164Y-92548831D01*
X126516903Y-92558912D01*
X126534845Y-92570257D01*
X126551998Y-92582905D01*
X126568371Y-92596895D01*
X126583971Y-92612266D01*
X126598806Y-92629056D01*
X126612884Y-92647305D01*
X126462918Y-92761605D01*
X126459718Y-92756614D01*
X126456435Y-92751827D01*
X126453061Y-92747243D01*
X126449588Y-92742857D01*
X126446010Y-92738668D01*
X126442319Y-92734671D01*
X126438508Y-92730863D01*
X126434570Y-92727243D01*
X126430497Y-92723806D01*
X126426283Y-92720550D01*
X126421920Y-92717471D01*
X126417401Y-92714567D01*
X126412718Y-92711834D01*
X126407865Y-92709269D01*
X126402835Y-92706870D01*
X126397619Y-92704633D01*
X126392211Y-92702556D01*
X126386603Y-92700634D01*
X126380789Y-92698866D01*
X126374761Y-92697247D01*
X126368512Y-92695776D01*
X126362034Y-92694449D01*
X126355321Y-92693262D01*
X126348365Y-92692214D01*
X126333695Y-92690518D01*
X126317968Y-92689336D01*
X126301124Y-92688646D01*
X126283107Y-92688421D01*
X126258367Y-92688802D01*
X126235442Y-92689970D01*
X126214302Y-92691963D01*
X126194916Y-92694820D01*
X126177256Y-92698578D01*
X126161289Y-92703275D01*
X126146987Y-92708950D01*
X126140451Y-92712166D01*
X126134319Y-92715640D01*
X126128588Y-92719378D01*
X126123254Y-92723384D01*
X126118313Y-92727663D01*
X126113762Y-92732220D01*
X126109597Y-92737059D01*
X126105814Y-92742185D01*
X126102409Y-92747603D01*
X126099379Y-92753318D01*
X126096719Y-92759334D01*
X126094426Y-92765657D01*
X126092496Y-92772290D01*
X126090926Y-92779239D01*
X126089711Y-92786509D01*
X126088848Y-92794104D01*
X126088162Y-92810288D01*
X126088162Y-92909612D01*
X126352428Y-92909612D01*
X126371282Y-92909988D01*
X126389553Y-92911102D01*
X126407242Y-92912936D01*
X126424345Y-92915468D01*
X126440864Y-92918680D01*
X126456796Y-92922553D01*
X126472141Y-92927066D01*
X126486897Y-92932199D01*
X126501063Y-92937935D01*
X126514639Y-92944252D01*
X126527623Y-92951131D01*
X126540014Y-92958553D01*
X126551811Y-92966497D01*
X126563013Y-92974946D01*
X126573619Y-92983878D01*
X126583628Y-92993274D01*
X126593038Y-93003115D01*
X126601849Y-93013380D01*
X126610060Y-93024052D01*
X126617669Y-93035109D01*
X126624676Y-93046532D01*
X126631079Y-93058302D01*
X126636878Y-93070399D01*
X126642070Y-93082804D01*
X126646656Y-93095496D01*
X126650634Y-93108457D01*
X126654002Y-93121667D01*
X126656761Y-93135105D01*
X126658909Y-93148754D01*
X126660444Y-93162592D01*
X126661366Y-93176600D01*
X126661470Y-93181392D01*
X126661673Y-93190759D01*
G37*
G36*
X125040094Y-92931287D02*
G01*
X125041873Y-92963731D01*
X125042475Y-92997613D01*
X125041819Y-93033299D01*
X125039881Y-93067287D01*
X125036709Y-93099615D01*
X125032351Y-93130319D01*
X125026854Y-93159436D01*
X125020265Y-93187004D01*
X125012631Y-93213059D01*
X125004000Y-93237639D01*
X124994419Y-93260780D01*
X124983935Y-93282520D01*
X124972597Y-93302895D01*
X124960450Y-93321944D01*
X124947543Y-93339702D01*
X124933923Y-93356207D01*
X124919637Y-93371495D01*
X124904733Y-93385605D01*
X124889258Y-93398572D01*
X124873258Y-93410434D01*
X124856783Y-93421228D01*
X124839878Y-93430992D01*
X124822591Y-93439761D01*
X124804970Y-93447574D01*
X124768914Y-93460476D01*
X124732089Y-93469995D01*
X124694872Y-93476428D01*
X124657644Y-93480070D01*
X124620782Y-93481219D01*
X124596962Y-93480687D01*
X124573308Y-93479074D01*
X124549852Y-93476351D01*
X124526626Y-93472492D01*
X124503665Y-93467469D01*
X124481000Y-93461255D01*
X124458665Y-93453822D01*
X124436692Y-93445142D01*
X124415114Y-93435189D01*
X124393964Y-93423935D01*
X124373274Y-93411352D01*
X124353078Y-93397413D01*
X124333408Y-93382091D01*
X124314297Y-93365357D01*
X124295778Y-93347186D01*
X124277883Y-93327548D01*
X124416578Y-93209438D01*
X124427381Y-93220062D01*
X124438671Y-93230098D01*
X124450404Y-93239531D01*
X124462541Y-93248349D01*
X124475039Y-93256538D01*
X124487857Y-93264084D01*
X124500954Y-93270976D01*
X124514288Y-93277198D01*
X124527818Y-93282738D01*
X124541503Y-93287583D01*
X124555301Y-93291719D01*
X124569171Y-93295133D01*
X124583071Y-93297812D01*
X124596960Y-93299742D01*
X124610797Y-93300909D01*
X124624540Y-93301302D01*
X124636736Y-93301071D01*
X124648713Y-93300379D01*
X124660458Y-93299227D01*
X124671961Y-93297615D01*
X124683211Y-93295542D01*
X124694197Y-93293010D01*
X124704908Y-93290019D01*
X124715333Y-93286569D01*
X124725461Y-93282661D01*
X124735281Y-93278294D01*
X124744783Y-93273470D01*
X124753955Y-93268189D01*
X124762786Y-93262451D01*
X124771266Y-93256256D01*
X124779383Y-93249605D01*
X124787126Y-93242498D01*
X124794485Y-93234935D01*
X124801449Y-93226918D01*
X124808006Y-93218445D01*
X124814146Y-93209519D01*
X124819857Y-93200138D01*
X124825130Y-93190304D01*
X124829952Y-93180016D01*
X124834313Y-93169276D01*
X124838202Y-93158083D01*
X124841608Y-93146438D01*
X124844520Y-93134341D01*
X124846927Y-93121792D01*
X124848819Y-93108793D01*
X124850183Y-93095343D01*
X124851010Y-93081442D01*
X124851288Y-93067092D01*
X124259203Y-93067092D01*
X124259203Y-92909611D01*
X124450285Y-92909611D01*
X124851288Y-92909611D01*
X124850706Y-92896281D01*
X124849661Y-92883347D01*
X124848163Y-92870811D01*
X124846221Y-92858676D01*
X124843845Y-92846943D01*
X124841045Y-92835613D01*
X124837830Y-92824689D01*
X124834209Y-92814172D01*
X124830194Y-92804064D01*
X124825792Y-92794367D01*
X124821014Y-92785081D01*
X124815869Y-92776210D01*
X124810367Y-92767755D01*
X124804518Y-92759717D01*
X124798331Y-92752099D01*
X124791816Y-92744902D01*
X124784982Y-92738127D01*
X124777839Y-92731777D01*
X124770397Y-92725853D01*
X124762665Y-92720358D01*
X124754653Y-92715291D01*
X124746371Y-92710657D01*
X124737827Y-92706455D01*
X124729033Y-92702688D01*
X124719997Y-92699359D01*
X124710729Y-92696467D01*
X124701238Y-92694015D01*
X124691535Y-92692006D01*
X124681628Y-92690440D01*
X124671528Y-92689319D01*
X124661245Y-92688645D01*
X124650787Y-92688420D01*
X124640334Y-92688645D01*
X124630065Y-92689319D01*
X124619989Y-92690440D01*
X124610114Y-92692006D01*
X124600449Y-92694015D01*
X124591003Y-92696467D01*
X124581784Y-92699359D01*
X124572800Y-92702689D01*
X124564061Y-92706455D01*
X124555575Y-92710657D01*
X124547350Y-92715292D01*
X124539396Y-92720358D01*
X124531720Y-92725854D01*
X124524332Y-92731777D01*
X124517239Y-92738128D01*
X124510451Y-92744902D01*
X124503976Y-92752099D01*
X124497823Y-92759718D01*
X124492001Y-92767755D01*
X124486517Y-92776211D01*
X124481381Y-92785082D01*
X124476601Y-92794367D01*
X124472186Y-92804064D01*
X124468144Y-92814172D01*
X124464485Y-92824689D01*
X124461216Y-92835614D01*
X124458346Y-92846943D01*
X124455884Y-92858676D01*
X124453838Y-92870812D01*
X124452217Y-92883347D01*
X124451030Y-92896281D01*
X124450285Y-92909611D01*
X124259203Y-92909611D01*
X124259203Y-92909559D01*
X124259731Y-92886811D01*
X124261295Y-92864601D01*
X124263868Y-92842943D01*
X124267421Y-92821849D01*
X124271927Y-92801329D01*
X124277356Y-92781396D01*
X124283682Y-92762063D01*
X124290876Y-92743340D01*
X124298909Y-92725241D01*
X124307754Y-92707777D01*
X124317383Y-92690960D01*
X124327767Y-92674802D01*
X124338878Y-92659315D01*
X124350689Y-92644512D01*
X124363170Y-92630404D01*
X124376295Y-92617002D01*
X124390034Y-92604321D01*
X124404360Y-92592370D01*
X124419245Y-92581162D01*
X124434660Y-92570710D01*
X124450578Y-92561025D01*
X124466970Y-92552119D01*
X124483808Y-92544004D01*
X124501064Y-92536692D01*
X124518710Y-92530196D01*
X124536718Y-92524527D01*
X124555059Y-92519697D01*
X124573706Y-92515718D01*
X124592630Y-92512603D01*
X124611804Y-92510363D01*
X124631199Y-92509010D01*
X124650787Y-92508556D01*
X124685454Y-92509993D01*
X124720351Y-92514430D01*
X124737780Y-92517832D01*
X124755138Y-92522056D01*
X124772384Y-92527124D01*
X124789475Y-92533060D01*
X124806368Y-92539889D01*
X124823021Y-92547633D01*
X124839390Y-92556317D01*
X124855435Y-92565963D01*
X124871111Y-92576597D01*
X124886378Y-92588241D01*
X124901191Y-92600919D01*
X124915508Y-92614655D01*
X124929288Y-92629472D01*
X124942486Y-92645394D01*
X124955062Y-92662446D01*
X124966972Y-92680650D01*
X124978173Y-92700030D01*
X124988624Y-92720610D01*
X124998281Y-92742413D01*
X125007103Y-92765464D01*
X125015046Y-92789786D01*
X125022068Y-92815402D01*
X125028126Y-92842337D01*
X125033178Y-92870613D01*
X125037182Y-92900255D01*
X125038060Y-92909611D01*
X125040094Y-92931287D01*
G37*
G36*
X132341764Y-91530430D02*
G01*
X132340688Y-91564818D01*
X132338872Y-91596600D01*
X132336296Y-91625965D01*
X132332941Y-91653101D01*
X132328788Y-91678199D01*
X132323816Y-91701447D01*
X132318008Y-91723035D01*
X132311343Y-91743153D01*
X132303803Y-91761988D01*
X132295367Y-91779731D01*
X132286017Y-91796572D01*
X132275734Y-91812698D01*
X132264498Y-91828300D01*
X132252289Y-91843567D01*
X132239089Y-91858688D01*
X132228823Y-91869630D01*
X132217687Y-91880601D01*
X132205645Y-91891500D01*
X132192661Y-91902225D01*
X132178700Y-91912674D01*
X132163726Y-91922747D01*
X132147704Y-91932341D01*
X132130597Y-91941356D01*
X132121626Y-91945615D01*
X132112370Y-91949690D01*
X132102825Y-91953570D01*
X132092988Y-91957242D01*
X132082852Y-91960693D01*
X132072414Y-91963911D01*
X132061669Y-91966882D01*
X132050613Y-91969594D01*
X132039242Y-91972034D01*
X132027550Y-91974190D01*
X132015534Y-91976050D01*
X132003189Y-91977599D01*
X131990510Y-91978827D01*
X131977494Y-91979719D01*
X131964135Y-91980264D01*
X131950429Y-91980448D01*
X131923373Y-91979719D01*
X131897686Y-91977599D01*
X131873332Y-91974190D01*
X131850275Y-91969594D01*
X131828480Y-91963910D01*
X131807910Y-91957242D01*
X131788531Y-91949690D01*
X131770307Y-91941356D01*
X131753202Y-91932341D01*
X131737181Y-91922746D01*
X131722209Y-91912674D01*
X131708248Y-91902224D01*
X131695265Y-91891500D01*
X131683223Y-91880601D01*
X131672087Y-91869630D01*
X131661821Y-91858688D01*
X131648621Y-91843566D01*
X131636411Y-91828298D01*
X131625172Y-91812694D01*
X131614885Y-91796564D01*
X131605531Y-91779721D01*
X131597091Y-91761975D01*
X131589546Y-91743136D01*
X131582876Y-91723016D01*
X131577063Y-91701426D01*
X131572087Y-91678176D01*
X131567929Y-91653078D01*
X131564570Y-91625943D01*
X131561990Y-91596581D01*
X131560172Y-91564803D01*
X131559095Y-91530421D01*
X131558758Y-91495097D01*
X131749928Y-91495097D01*
X131750479Y-91541972D01*
X131751198Y-91562327D01*
X131752237Y-91580846D01*
X131753616Y-91597695D01*
X131755355Y-91613039D01*
X131757473Y-91627042D01*
X131759988Y-91639870D01*
X131762921Y-91651688D01*
X131766291Y-91662661D01*
X131770117Y-91672954D01*
X131774417Y-91682732D01*
X131779213Y-91692160D01*
X131784522Y-91701402D01*
X131790364Y-91710625D01*
X131796759Y-91719993D01*
X131799490Y-91723656D01*
X131802404Y-91727260D01*
X131808755Y-91734277D01*
X131815776Y-91741015D01*
X131823426Y-91747442D01*
X131831669Y-91753528D01*
X131840465Y-91759244D01*
X131849776Y-91764560D01*
X131859564Y-91769444D01*
X131869791Y-91773866D01*
X131880417Y-91777797D01*
X131891406Y-91781206D01*
X131902717Y-91784064D01*
X131914314Y-91786338D01*
X131926157Y-91788001D01*
X131938208Y-91789020D01*
X131950429Y-91789367D01*
X131962659Y-91789021D01*
X131974719Y-91788003D01*
X131986568Y-91786343D01*
X131998170Y-91784071D01*
X132009486Y-91781217D01*
X132020478Y-91777811D01*
X132031106Y-91773883D01*
X132041333Y-91769464D01*
X132051121Y-91764582D01*
X132060430Y-91759268D01*
X132069223Y-91753552D01*
X132077461Y-91747464D01*
X132085106Y-91741034D01*
X132092120Y-91734293D01*
X132098463Y-91727269D01*
X132104099Y-91719993D01*
X132110494Y-91710625D01*
X132116338Y-91701399D01*
X132121650Y-91692147D01*
X132126449Y-91682703D01*
X132130754Y-91672898D01*
X132134584Y-91662564D01*
X132137958Y-91651533D01*
X132140896Y-91639639D01*
X132143416Y-91626712D01*
X132145539Y-91612586D01*
X132147282Y-91597093D01*
X132148665Y-91580065D01*
X132149708Y-91561333D01*
X132150429Y-91540731D01*
X132150848Y-91518091D01*
X132150983Y-91493245D01*
X132150429Y-91446365D01*
X132149708Y-91426006D01*
X132148665Y-91407481D01*
X132147282Y-91390626D01*
X132145539Y-91375275D01*
X132143416Y-91361266D01*
X132140896Y-91348432D01*
X132137958Y-91336609D01*
X132134584Y-91325634D01*
X132130754Y-91315341D01*
X132126449Y-91305565D01*
X132121650Y-91296143D01*
X132116338Y-91286909D01*
X132110494Y-91277699D01*
X132104099Y-91268349D01*
X132101372Y-91264686D01*
X132098463Y-91261082D01*
X132092120Y-91254064D01*
X132085106Y-91247327D01*
X132077461Y-91240900D01*
X132069223Y-91234813D01*
X132060430Y-91229097D01*
X132051121Y-91223782D01*
X132041333Y-91218898D01*
X132031106Y-91214475D01*
X132020478Y-91210544D01*
X132009486Y-91207135D01*
X131998170Y-91204278D01*
X131986568Y-91202003D01*
X131974719Y-91200341D01*
X131962659Y-91199321D01*
X131950429Y-91198975D01*
X131938208Y-91199321D01*
X131926157Y-91200339D01*
X131914314Y-91201998D01*
X131902717Y-91204270D01*
X131891406Y-91207124D01*
X131880417Y-91210530D01*
X131869791Y-91214458D01*
X131859564Y-91218878D01*
X131849776Y-91223760D01*
X131840465Y-91229074D01*
X131831669Y-91234789D01*
X131823426Y-91240877D01*
X131815776Y-91247307D01*
X131808755Y-91254049D01*
X131802404Y-91261073D01*
X131796759Y-91268349D01*
X131790364Y-91277699D01*
X131784522Y-91286912D01*
X131779213Y-91296155D01*
X131774417Y-91305594D01*
X131770117Y-91315397D01*
X131766291Y-91325731D01*
X131762921Y-91336764D01*
X131759988Y-91348663D01*
X131757473Y-91361595D01*
X131755355Y-91375728D01*
X131753616Y-91391228D01*
X131752237Y-91408263D01*
X131751198Y-91427000D01*
X131750479Y-91447606D01*
X131750062Y-91470250D01*
X131749928Y-91495097D01*
X131558758Y-91495097D01*
X131558740Y-91493245D01*
X131559095Y-91456377D01*
X131560172Y-91422267D01*
X131561990Y-91390728D01*
X131564570Y-91361573D01*
X131567929Y-91334615D01*
X131572087Y-91309667D01*
X131577063Y-91286542D01*
X131582876Y-91265054D01*
X131589546Y-91245017D01*
X131597091Y-91226242D01*
X131605531Y-91208543D01*
X131614885Y-91191734D01*
X131625172Y-91175627D01*
X131636411Y-91160036D01*
X131648621Y-91144774D01*
X131661821Y-91129654D01*
X131672087Y-91118710D01*
X131683223Y-91107736D01*
X131695265Y-91096832D01*
X131708248Y-91086100D01*
X131722209Y-91075643D01*
X131737181Y-91065561D01*
X131753202Y-91055957D01*
X131770307Y-91046932D01*
X131779277Y-91042669D01*
X131788531Y-91038588D01*
X131798074Y-91034703D01*
X131807910Y-91031027D01*
X131818044Y-91027571D01*
X131828480Y-91024349D01*
X131839222Y-91021374D01*
X131850275Y-91018658D01*
X131861644Y-91016214D01*
X131873332Y-91014055D01*
X131885345Y-91012193D01*
X131897686Y-91010641D01*
X131910361Y-91009411D01*
X131923373Y-91008518D01*
X131936728Y-91007972D01*
X131950429Y-91007787D01*
X131977494Y-91008518D01*
X132003189Y-91010641D01*
X132027550Y-91014055D01*
X132050613Y-91018658D01*
X132072414Y-91024350D01*
X132092988Y-91031027D01*
X132112370Y-91038588D01*
X132130597Y-91046932D01*
X132147704Y-91055957D01*
X132163726Y-91065562D01*
X132178700Y-91075643D01*
X132192661Y-91086101D01*
X132205645Y-91096832D01*
X132217687Y-91107736D01*
X132228823Y-91118710D01*
X132239089Y-91129654D01*
X132252289Y-91144782D01*
X132264498Y-91160051D01*
X132275734Y-91175646D01*
X132286017Y-91191756D01*
X132295367Y-91208566D01*
X132303803Y-91226265D01*
X132311343Y-91245038D01*
X132318008Y-91265074D01*
X132323816Y-91286559D01*
X132328788Y-91309681D01*
X132332941Y-91334625D01*
X132336296Y-91361580D01*
X132338872Y-91390733D01*
X132340688Y-91422270D01*
X132341764Y-91456378D01*
X132342118Y-91493245D01*
X132341764Y-91530430D01*
G37*
G36*
X130505328Y-91430621D02*
G01*
X130507107Y-91463067D01*
X130507709Y-91496948D01*
X130507052Y-91532625D01*
X130505115Y-91566604D01*
X130501943Y-91598923D01*
X130497585Y-91629619D01*
X130492088Y-91658729D01*
X130485499Y-91686290D01*
X130477865Y-91712339D01*
X130469234Y-91736913D01*
X130459654Y-91760049D01*
X130449171Y-91781784D01*
X130437833Y-91802155D01*
X130425687Y-91821199D01*
X130412781Y-91838953D01*
X130399162Y-91855455D01*
X130384877Y-91870740D01*
X130369973Y-91884847D01*
X130354499Y-91897812D01*
X130338501Y-91909672D01*
X130322027Y-91920465D01*
X130305124Y-91930226D01*
X130287840Y-91938994D01*
X130270221Y-91946806D01*
X130234170Y-91959707D01*
X130197351Y-91969225D01*
X130160142Y-91975657D01*
X130122921Y-91979299D01*
X130086069Y-91980447D01*
X130062240Y-91979916D01*
X130038577Y-91978302D01*
X130015114Y-91975580D01*
X129991882Y-91971721D01*
X129968916Y-91966698D01*
X129946247Y-91960484D01*
X129923908Y-91953051D01*
X129901932Y-91944371D01*
X129880352Y-91934418D01*
X129859200Y-91923164D01*
X129838509Y-91910581D01*
X129818312Y-91896642D01*
X129798642Y-91881320D01*
X129779530Y-91864587D01*
X129761011Y-91846415D01*
X129743116Y-91826778D01*
X129881811Y-91708773D01*
X129892604Y-91719380D01*
X129903884Y-91729402D01*
X129915609Y-91738827D01*
X129927737Y-91747639D01*
X129940227Y-91755826D01*
X129953039Y-91763373D01*
X129966131Y-91770267D01*
X129979462Y-91776493D01*
X129992990Y-91782039D01*
X130006676Y-91786890D01*
X130020477Y-91791033D01*
X130034352Y-91794453D01*
X130048260Y-91797138D01*
X130062161Y-91799072D01*
X130076012Y-91800243D01*
X130089773Y-91800636D01*
X130101970Y-91800406D01*
X130113947Y-91799714D01*
X130125693Y-91798562D01*
X130137197Y-91796949D01*
X130148448Y-91794876D01*
X130159435Y-91792344D01*
X130170148Y-91789353D01*
X130180575Y-91785902D01*
X130190705Y-91781993D01*
X130200527Y-91777626D01*
X130210031Y-91772801D01*
X130219205Y-91767518D01*
X130228039Y-91761778D01*
X130236521Y-91755582D01*
X130244640Y-91748928D01*
X130252386Y-91741819D01*
X130259748Y-91734254D01*
X130266714Y-91726234D01*
X130273273Y-91717758D01*
X130279415Y-91708828D01*
X130285129Y-91699443D01*
X130290404Y-91689604D01*
X130295228Y-91679312D01*
X130299591Y-91668566D01*
X130303482Y-91657367D01*
X130306889Y-91645716D01*
X130309803Y-91633612D01*
X130312211Y-91621057D01*
X130314104Y-91608049D01*
X130315469Y-91594591D01*
X130316296Y-91580681D01*
X130316574Y-91566322D01*
X129724383Y-91566322D01*
X129724383Y-91408948D01*
X129915518Y-91408948D01*
X130316574Y-91408948D01*
X130315987Y-91395608D01*
X130314938Y-91382666D01*
X130313436Y-91370124D01*
X130311490Y-91357983D01*
X130309110Y-91346245D01*
X130306307Y-91334911D01*
X130303089Y-91323984D01*
X130299465Y-91313464D01*
X130295447Y-91303355D01*
X130291043Y-91293657D01*
X130286262Y-91284371D01*
X130281116Y-91275501D01*
X130275612Y-91267047D01*
X130269761Y-91259010D01*
X130263573Y-91251394D01*
X130257056Y-91244199D01*
X130250221Y-91237427D01*
X130243077Y-91231080D01*
X130235634Y-91225159D01*
X130227901Y-91219667D01*
X130219889Y-91214604D01*
X130211606Y-91209972D01*
X130203062Y-91205774D01*
X130194267Y-91202011D01*
X130185231Y-91198684D01*
X130175962Y-91195795D01*
X130166471Y-91193346D01*
X130156768Y-91191338D01*
X130146862Y-91189774D01*
X130136762Y-91188655D01*
X130126478Y-91187982D01*
X130116020Y-91187757D01*
X130105567Y-91187982D01*
X130095299Y-91188655D01*
X130085223Y-91189774D01*
X130075350Y-91191338D01*
X130065686Y-91193346D01*
X130056241Y-91195795D01*
X130047023Y-91198684D01*
X130038041Y-91202011D01*
X130029304Y-91205774D01*
X130020819Y-91209972D01*
X130012596Y-91214604D01*
X130004643Y-91219667D01*
X129996969Y-91225159D01*
X129989582Y-91231080D01*
X129982491Y-91237427D01*
X129975705Y-91244199D01*
X129969231Y-91251394D01*
X129963079Y-91259011D01*
X129957257Y-91267047D01*
X129951774Y-91275501D01*
X129946638Y-91284372D01*
X129941858Y-91293657D01*
X129937443Y-91303355D01*
X129933400Y-91313465D01*
X129929739Y-91323984D01*
X129926469Y-91334911D01*
X129923597Y-91346245D01*
X129921132Y-91357983D01*
X129919083Y-91370124D01*
X129917459Y-91382667D01*
X129916268Y-91395609D01*
X129915518Y-91408948D01*
X129724383Y-91408948D01*
X129724383Y-91408895D01*
X129724911Y-91386137D01*
X129726476Y-91363919D01*
X129729050Y-91342253D01*
X129732604Y-91321150D01*
X129737110Y-91300623D01*
X129742541Y-91280683D01*
X129748869Y-91261343D01*
X129756064Y-91242615D01*
X129764099Y-91224510D01*
X129772946Y-91207041D01*
X129782577Y-91190220D01*
X129792963Y-91174058D01*
X129804077Y-91158568D01*
X129815890Y-91143761D01*
X129828374Y-91129650D01*
X129841501Y-91116246D01*
X129855243Y-91103562D01*
X129869572Y-91091609D01*
X129884459Y-91080399D01*
X129899877Y-91069946D01*
X129915797Y-91060259D01*
X129932191Y-91051352D01*
X129949031Y-91043236D01*
X129966289Y-91035924D01*
X129983936Y-91029427D01*
X130001946Y-91023758D01*
X130020289Y-91018928D01*
X130038937Y-91014949D01*
X130057862Y-91011833D01*
X130077036Y-91009593D01*
X130096432Y-91008240D01*
X130116020Y-91007787D01*
X130150696Y-91009224D01*
X130185600Y-91013664D01*
X130203031Y-91017069D01*
X130220392Y-91021296D01*
X130237639Y-91026367D01*
X130254731Y-91032307D01*
X130271625Y-91039139D01*
X130288278Y-91046888D01*
X130304648Y-91055576D01*
X130320692Y-91065227D01*
X130336368Y-91075865D01*
X130351633Y-91087514D01*
X130366445Y-91100197D01*
X130380762Y-91113938D01*
X130394540Y-91128760D01*
X130407737Y-91144687D01*
X130420311Y-91161743D01*
X130432220Y-91179952D01*
X130443419Y-91199337D01*
X130453868Y-91219921D01*
X130463524Y-91241729D01*
X130472344Y-91264783D01*
X130480285Y-91289108D01*
X130487306Y-91314728D01*
X130493363Y-91341665D01*
X130498414Y-91369944D01*
X130502417Y-91399588D01*
X130503295Y-91408948D01*
X130505328Y-91430621D01*
G37*
G36*
X124008855Y-91430621D02*
G01*
X124010633Y-91463067D01*
X124011235Y-91496948D01*
X124010579Y-91532625D01*
X124008641Y-91566604D01*
X124005469Y-91598923D01*
X124001111Y-91629619D01*
X123995614Y-91658729D01*
X123989024Y-91686290D01*
X123981391Y-91712339D01*
X123972760Y-91736913D01*
X123963179Y-91760049D01*
X123952695Y-91781784D01*
X123941357Y-91802155D01*
X123929210Y-91821199D01*
X123916303Y-91838953D01*
X123902683Y-91855455D01*
X123888397Y-91870740D01*
X123873493Y-91884847D01*
X123858017Y-91897812D01*
X123842018Y-91909672D01*
X123825542Y-91920465D01*
X123808638Y-91930226D01*
X123791351Y-91938994D01*
X123773730Y-91946806D01*
X123737674Y-91959707D01*
X123700849Y-91969225D01*
X123663632Y-91975657D01*
X123626404Y-91979299D01*
X123589542Y-91980447D01*
X123565721Y-91979916D01*
X123542063Y-91978302D01*
X123518602Y-91975580D01*
X123495371Y-91971721D01*
X123472403Y-91966698D01*
X123449732Y-91960484D01*
X123427390Y-91953051D01*
X123405412Y-91944371D01*
X123383830Y-91934418D01*
X123362677Y-91923164D01*
X123341987Y-91910581D01*
X123321793Y-91896642D01*
X123302128Y-91881320D01*
X123283026Y-91864587D01*
X123264520Y-91846415D01*
X123246642Y-91826778D01*
X123385337Y-91708773D01*
X123396139Y-91719380D01*
X123407426Y-91729402D01*
X123419155Y-91738827D01*
X123431285Y-91747639D01*
X123443777Y-91755826D01*
X123456589Y-91763373D01*
X123469679Y-91770267D01*
X123483008Y-91776493D01*
X123496534Y-91782039D01*
X123510216Y-91786890D01*
X123524014Y-91791033D01*
X123537886Y-91794453D01*
X123551791Y-91797138D01*
X123565689Y-91799072D01*
X123579539Y-91800243D01*
X123593299Y-91800636D01*
X123605496Y-91800406D01*
X123617472Y-91799714D01*
X123629217Y-91798562D01*
X123640720Y-91796949D01*
X123651970Y-91794876D01*
X123662956Y-91792344D01*
X123673667Y-91789353D01*
X123684093Y-91785902D01*
X123694221Y-91781993D01*
X123704041Y-91777626D01*
X123713543Y-91772801D01*
X123722715Y-91767518D01*
X123731546Y-91761778D01*
X123740025Y-91755582D01*
X123748142Y-91748928D01*
X123755886Y-91741819D01*
X123763245Y-91734254D01*
X123770208Y-91726234D01*
X123776766Y-91717758D01*
X123782906Y-91708828D01*
X123788617Y-91699443D01*
X123793890Y-91689604D01*
X123798712Y-91679312D01*
X123803073Y-91668566D01*
X123806962Y-91657367D01*
X123810368Y-91645716D01*
X123813280Y-91633612D01*
X123815687Y-91621057D01*
X123817578Y-91608049D01*
X123818943Y-91594591D01*
X123819770Y-91580681D01*
X123820048Y-91566322D01*
X123227857Y-91566322D01*
X123227857Y-91408948D01*
X123419045Y-91408948D01*
X123820048Y-91408948D01*
X123819466Y-91395608D01*
X123818422Y-91382666D01*
X123816923Y-91370124D01*
X123814982Y-91357983D01*
X123812606Y-91346245D01*
X123809805Y-91334911D01*
X123806590Y-91323984D01*
X123802970Y-91313464D01*
X123798954Y-91303355D01*
X123794553Y-91293657D01*
X123789774Y-91284371D01*
X123784630Y-91275501D01*
X123779128Y-91267047D01*
X123773279Y-91259010D01*
X123767092Y-91251394D01*
X123760576Y-91244199D01*
X123753742Y-91237427D01*
X123746600Y-91231080D01*
X123739157Y-91225159D01*
X123731426Y-91219667D01*
X123723414Y-91214604D01*
X123715131Y-91209972D01*
X123706588Y-91205774D01*
X123697793Y-91202011D01*
X123688757Y-91198684D01*
X123679489Y-91195795D01*
X123669998Y-91193346D01*
X123660295Y-91191338D01*
X123650389Y-91189774D01*
X123640289Y-91188655D01*
X123630005Y-91187982D01*
X123619547Y-91187757D01*
X123609095Y-91187982D01*
X123598827Y-91188655D01*
X123588752Y-91189774D01*
X123578879Y-91191338D01*
X123569217Y-91193346D01*
X123559773Y-91195795D01*
X123550556Y-91198684D01*
X123541576Y-91202011D01*
X123532840Y-91205774D01*
X123524357Y-91209972D01*
X123516136Y-91214604D01*
X123508184Y-91219667D01*
X123500512Y-91225159D01*
X123493127Y-91231080D01*
X123486037Y-91237427D01*
X123479252Y-91244199D01*
X123472779Y-91251394D01*
X123466628Y-91259011D01*
X123460807Y-91267047D01*
X123455324Y-91275501D01*
X123450189Y-91284372D01*
X123445409Y-91293657D01*
X123440993Y-91303355D01*
X123436949Y-91313465D01*
X123433287Y-91323984D01*
X123430015Y-91334911D01*
X123427141Y-91346245D01*
X123424674Y-91357983D01*
X123422622Y-91370124D01*
X123420995Y-91382667D01*
X123419799Y-91395609D01*
X123419045Y-91408948D01*
X123227857Y-91408948D01*
X123227857Y-91408895D01*
X123228385Y-91386137D01*
X123229951Y-91363919D01*
X123232527Y-91342253D01*
X123236084Y-91321150D01*
X123240594Y-91300623D01*
X123246029Y-91280683D01*
X123252361Y-91261343D01*
X123259561Y-91242615D01*
X123267601Y-91224510D01*
X123276454Y-91207041D01*
X123286090Y-91190220D01*
X123296482Y-91174058D01*
X123307601Y-91158568D01*
X123319420Y-91143761D01*
X123331909Y-91129650D01*
X123345041Y-91116246D01*
X123358788Y-91103562D01*
X123373121Y-91091609D01*
X123388012Y-91080399D01*
X123403433Y-91069946D01*
X123419356Y-91060259D01*
X123435752Y-91051352D01*
X123452593Y-91043236D01*
X123469852Y-91035924D01*
X123487499Y-91029427D01*
X123505507Y-91023758D01*
X123523847Y-91018928D01*
X123542491Y-91014949D01*
X123561412Y-91011833D01*
X123580580Y-91009593D01*
X123599968Y-91008240D01*
X123619546Y-91007787D01*
X123654231Y-91009224D01*
X123689142Y-91013664D01*
X123706575Y-91017069D01*
X123723938Y-91021296D01*
X123741187Y-91026367D01*
X123758280Y-91032307D01*
X123775174Y-91039139D01*
X123791828Y-91046888D01*
X123808198Y-91055576D01*
X123824242Y-91065227D01*
X123839917Y-91075865D01*
X123855182Y-91087514D01*
X123869993Y-91100197D01*
X123884308Y-91113938D01*
X123898085Y-91128760D01*
X123911281Y-91144687D01*
X123923853Y-91161743D01*
X123935760Y-91179952D01*
X123946958Y-91199337D01*
X123957405Y-91219921D01*
X123967059Y-91241729D01*
X123975878Y-91264783D01*
X123983818Y-91289108D01*
X123990837Y-91314728D01*
X123996892Y-91341665D01*
X124001942Y-91369944D01*
X124005944Y-91399588D01*
X124006822Y-91408948D01*
X124008855Y-91430621D01*
G37*
D12*
X171795000Y-88390000D02*
X144065000Y-88390000D01*
D13*
X121190000Y-82090000D02*
X178690000Y-82090000D01*
X178690000Y-113910000D01*
X121190000Y-113910000D01*
X121190000Y-82090000D01*
D11*
G36*
X127364897Y-91530430D02*
G01*
X127363818Y-91564818D01*
X127361997Y-91596600D01*
X127359414Y-91625965D01*
X127356051Y-91653101D01*
X127351889Y-91678199D01*
X127346908Y-91701447D01*
X127341090Y-91723035D01*
X127334415Y-91743153D01*
X127326865Y-91761988D01*
X127318420Y-91779731D01*
X127309063Y-91796572D01*
X127298773Y-91812698D01*
X127287531Y-91828300D01*
X127275319Y-91843567D01*
X127262118Y-91858688D01*
X127251853Y-91869630D01*
X127240719Y-91880601D01*
X127228680Y-91891500D01*
X127215700Y-91902225D01*
X127201744Y-91912674D01*
X127186775Y-91922747D01*
X127170759Y-91932341D01*
X127153659Y-91941356D01*
X127144692Y-91945615D01*
X127135440Y-91949690D01*
X127125899Y-91953570D01*
X127116066Y-91957242D01*
X127105934Y-91960693D01*
X127095501Y-91963911D01*
X127084761Y-91966882D01*
X127073709Y-91969594D01*
X127062343Y-91972034D01*
X127050656Y-91974190D01*
X127038644Y-91976050D01*
X127026304Y-91977599D01*
X127013630Y-91978827D01*
X127000619Y-91979719D01*
X126987265Y-91980264D01*
X126973564Y-91980448D01*
X126946490Y-91979719D01*
X126920788Y-91977599D01*
X126896423Y-91974190D01*
X126873357Y-91969594D01*
X126851555Y-91963910D01*
X126830982Y-91957242D01*
X126811600Y-91949690D01*
X126793376Y-91941356D01*
X126776271Y-91932341D01*
X126760252Y-91922746D01*
X126745281Y-91912674D01*
X126731323Y-91902224D01*
X126718342Y-91891500D01*
X126706303Y-91880601D01*
X126695168Y-91869630D01*
X126684903Y-91858688D01*
X126671703Y-91843566D01*
X126659495Y-91828298D01*
X126648258Y-91812694D01*
X126637975Y-91796564D01*
X126628625Y-91779721D01*
X126620190Y-91761975D01*
X126612649Y-91743136D01*
X126605985Y-91723016D01*
X126600176Y-91701426D01*
X126595205Y-91678176D01*
X126591051Y-91653078D01*
X126587696Y-91625943D01*
X126585120Y-91596581D01*
X126583304Y-91564803D01*
X126582229Y-91530421D01*
X126581892Y-91495097D01*
X126773062Y-91495097D01*
X126773612Y-91541972D01*
X126774328Y-91562327D01*
X126775364Y-91580846D01*
X126776741Y-91597695D01*
X126778476Y-91613039D01*
X126780591Y-91627042D01*
X126783103Y-91639870D01*
X126786034Y-91651688D01*
X126789403Y-91662661D01*
X126793228Y-91672954D01*
X126797530Y-91682732D01*
X126802328Y-91692160D01*
X126807642Y-91701402D01*
X126813490Y-91710625D01*
X126819894Y-91719993D01*
X126822621Y-91723656D01*
X126825529Y-91727260D01*
X126831873Y-91734277D01*
X126838887Y-91741015D01*
X126846532Y-91747442D01*
X126854770Y-91753528D01*
X126863563Y-91759244D01*
X126872872Y-91764560D01*
X126882660Y-91769444D01*
X126892887Y-91773866D01*
X126903515Y-91777797D01*
X126914507Y-91781206D01*
X126925822Y-91784064D01*
X126937425Y-91786338D01*
X126949274Y-91788001D01*
X126961334Y-91789020D01*
X126973564Y-91789367D01*
X126985777Y-91789021D01*
X126997823Y-91788003D01*
X127009663Y-91786343D01*
X127021259Y-91784071D01*
X127032571Y-91781217D01*
X127043561Y-91777811D01*
X127054188Y-91773883D01*
X127064415Y-91769464D01*
X127074203Y-91764582D01*
X127083511Y-91759268D01*
X127092302Y-91753552D01*
X127100537Y-91747464D01*
X127108175Y-91741034D01*
X127115180Y-91734293D01*
X127121510Y-91727269D01*
X127127128Y-91719993D01*
X127133533Y-91710625D01*
X127139385Y-91701399D01*
X127144704Y-91692147D01*
X127149509Y-91682703D01*
X127153819Y-91672898D01*
X127157653Y-91662564D01*
X127161031Y-91651533D01*
X127163971Y-91639639D01*
X127166494Y-91626712D01*
X127168618Y-91612586D01*
X127170363Y-91597093D01*
X127171747Y-91580065D01*
X127172790Y-91561333D01*
X127173511Y-91540731D01*
X127173930Y-91518091D01*
X127174065Y-91493245D01*
X127173511Y-91446365D01*
X127172790Y-91426006D01*
X127171747Y-91407481D01*
X127170363Y-91390626D01*
X127168618Y-91375275D01*
X127166494Y-91361266D01*
X127163971Y-91348432D01*
X127161031Y-91336609D01*
X127157653Y-91325634D01*
X127153819Y-91315341D01*
X127149509Y-91305565D01*
X127144704Y-91296143D01*
X127139385Y-91286909D01*
X127133533Y-91277699D01*
X127127128Y-91268349D01*
X127124411Y-91264686D01*
X127121510Y-91261082D01*
X127115180Y-91254064D01*
X127108175Y-91247327D01*
X127100537Y-91240900D01*
X127092302Y-91234813D01*
X127083511Y-91229097D01*
X127074203Y-91223782D01*
X127064415Y-91218898D01*
X127054188Y-91214475D01*
X127043561Y-91210544D01*
X127032571Y-91207135D01*
X127021259Y-91204278D01*
X127009663Y-91202003D01*
X126997823Y-91200341D01*
X126985777Y-91199321D01*
X126973564Y-91198975D01*
X126961334Y-91199321D01*
X126949274Y-91200339D01*
X126937425Y-91201998D01*
X126925822Y-91204270D01*
X126914507Y-91207124D01*
X126903515Y-91210530D01*
X126892887Y-91214458D01*
X126882660Y-91218878D01*
X126872872Y-91223760D01*
X126863563Y-91229074D01*
X126854770Y-91234789D01*
X126846532Y-91240877D01*
X126838887Y-91247307D01*
X126831873Y-91254049D01*
X126825529Y-91261073D01*
X126819894Y-91268349D01*
X126813490Y-91277699D01*
X126807642Y-91286912D01*
X126802328Y-91296155D01*
X126797530Y-91305594D01*
X126793228Y-91315397D01*
X126789403Y-91325731D01*
X126786034Y-91336764D01*
X126783103Y-91348663D01*
X126780591Y-91361595D01*
X126778476Y-91375728D01*
X126776741Y-91391228D01*
X126775364Y-91408263D01*
X126774328Y-91427000D01*
X126773612Y-91447606D01*
X126773197Y-91470250D01*
X126773062Y-91495097D01*
X126581892Y-91495097D01*
X126581874Y-91493245D01*
X126582229Y-91456377D01*
X126583304Y-91422267D01*
X126585120Y-91390728D01*
X126587696Y-91361573D01*
X126591051Y-91334615D01*
X126595205Y-91309667D01*
X126600176Y-91286542D01*
X126605985Y-91265054D01*
X126612649Y-91245017D01*
X126620190Y-91226242D01*
X126628625Y-91208543D01*
X126637975Y-91191734D01*
X126648258Y-91175627D01*
X126659495Y-91160036D01*
X126671703Y-91144774D01*
X126684903Y-91129654D01*
X126695168Y-91118710D01*
X126706303Y-91107736D01*
X126718342Y-91096832D01*
X126731323Y-91086100D01*
X126745281Y-91075643D01*
X126760252Y-91065561D01*
X126776271Y-91055957D01*
X126793376Y-91046932D01*
X126802346Y-91042669D01*
X126811600Y-91038588D01*
X126821144Y-91034703D01*
X126830981Y-91031027D01*
X126841117Y-91027571D01*
X126851555Y-91024349D01*
X126862300Y-91021374D01*
X126873357Y-91018658D01*
X126884729Y-91016214D01*
X126896423Y-91014055D01*
X126908441Y-91012193D01*
X126920788Y-91010641D01*
X126933470Y-91009411D01*
X126946490Y-91008518D01*
X126959853Y-91007972D01*
X126973564Y-91007787D01*
X127000618Y-91008518D01*
X127026304Y-91010641D01*
X127050655Y-91014055D01*
X127073709Y-91018658D01*
X127095501Y-91024350D01*
X127116066Y-91031027D01*
X127135440Y-91038588D01*
X127153659Y-91046932D01*
X127170759Y-91055957D01*
X127186775Y-91065562D01*
X127201743Y-91075643D01*
X127215700Y-91086101D01*
X127228680Y-91096832D01*
X127240719Y-91107736D01*
X127251853Y-91118710D01*
X127262118Y-91129654D01*
X127275319Y-91144782D01*
X127287531Y-91160051D01*
X127298773Y-91175646D01*
X127309063Y-91191756D01*
X127318420Y-91208566D01*
X127326865Y-91226265D01*
X127334415Y-91245038D01*
X127341090Y-91265074D01*
X127346908Y-91286559D01*
X127351889Y-91309681D01*
X127356051Y-91334625D01*
X127359414Y-91361580D01*
X127361997Y-91390733D01*
X127363818Y-91422270D01*
X127364897Y-91456378D01*
X127365253Y-91493245D01*
X127364897Y-91530430D01*
G37*
G36*
X125850883Y-91585002D02*
G01*
X125851118Y-91596962D01*
X125851815Y-91608600D01*
X125852964Y-91619913D01*
X125854555Y-91630897D01*
X125856579Y-91641548D01*
X125859025Y-91651862D01*
X125861885Y-91661835D01*
X125865146Y-91671463D01*
X125868800Y-91680744D01*
X125872838Y-91689672D01*
X125877247Y-91698245D01*
X125882020Y-91706457D01*
X125887146Y-91714307D01*
X125892615Y-91721789D01*
X125898416Y-91728900D01*
X125904541Y-91735635D01*
X125910979Y-91741993D01*
X125917720Y-91747967D01*
X125924755Y-91753556D01*
X125932072Y-91758754D01*
X125939664Y-91763558D01*
X125947518Y-91767964D01*
X125955626Y-91771969D01*
X125963978Y-91775568D01*
X125972563Y-91778759D01*
X125981372Y-91781536D01*
X125990395Y-91783896D01*
X125999622Y-91785836D01*
X126009042Y-91787351D01*
X126018646Y-91788438D01*
X126028425Y-91789094D01*
X126038367Y-91789313D01*
X126048468Y-91789094D01*
X126058395Y-91788438D01*
X126068139Y-91787351D01*
X126077689Y-91785836D01*
X126087036Y-91783896D01*
X126096172Y-91781536D01*
X126105085Y-91778759D01*
X126113766Y-91775568D01*
X126122206Y-91771969D01*
X126130395Y-91767964D01*
X126138323Y-91763558D01*
X126145982Y-91758754D01*
X126153360Y-91753556D01*
X126160450Y-91747967D01*
X126167240Y-91741993D01*
X126173721Y-91735635D01*
X126179884Y-91728900D01*
X126185720Y-91721789D01*
X126191218Y-91714307D01*
X126196368Y-91706457D01*
X126201162Y-91698245D01*
X126205590Y-91689672D01*
X126209641Y-91680744D01*
X126213307Y-91671463D01*
X126216578Y-91661835D01*
X126219443Y-91651862D01*
X126221895Y-91641548D01*
X126223922Y-91630897D01*
X126225515Y-91619913D01*
X126226665Y-91608600D01*
X126227362Y-91596962D01*
X126227597Y-91585002D01*
X126227597Y-91019057D01*
X126418679Y-91019057D01*
X126418679Y-91650671D01*
X126418191Y-91670576D01*
X126416748Y-91689884D01*
X126414386Y-91708596D01*
X126411138Y-91726707D01*
X126407039Y-91744216D01*
X126402123Y-91761120D01*
X126396424Y-91777416D01*
X126389978Y-91793103D01*
X126382817Y-91808178D01*
X126374978Y-91822639D01*
X126366492Y-91836482D01*
X126357397Y-91849707D01*
X126347724Y-91862309D01*
X126337509Y-91874288D01*
X126326787Y-91885640D01*
X126315591Y-91896363D01*
X126303956Y-91906455D01*
X126291916Y-91915913D01*
X126279505Y-91924736D01*
X126266758Y-91932919D01*
X126253710Y-91940462D01*
X126240393Y-91947362D01*
X126226844Y-91953616D01*
X126213095Y-91959221D01*
X126199183Y-91964177D01*
X126185139Y-91968479D01*
X126156800Y-91975115D01*
X126128351Y-91979111D01*
X126114171Y-91980113D01*
X126100068Y-91980447D01*
X126081619Y-91980008D01*
X126063492Y-91978689D01*
X126045708Y-91976491D01*
X126028285Y-91973414D01*
X126011243Y-91969459D01*
X125994603Y-91964625D01*
X125978383Y-91958913D01*
X125962604Y-91952322D01*
X125947285Y-91944854D01*
X125932445Y-91936507D01*
X125918105Y-91927283D01*
X125904285Y-91917181D01*
X125891003Y-91906202D01*
X125878280Y-91894345D01*
X125866135Y-91881611D01*
X125854587Y-91868000D01*
X125850883Y-91868000D01*
X125850883Y-91969283D01*
X125659801Y-91969283D01*
X125659801Y-91019057D01*
X125850883Y-91019057D01*
X125850883Y-91585002D01*
G37*
G36*
X128882527Y-93074162D02*
G01*
X128880113Y-93140181D01*
X128878198Y-93168564D01*
X128875767Y-93194210D01*
X128872786Y-93217381D01*
X128869224Y-93238337D01*
X128865046Y-93257339D01*
X128860220Y-93274648D01*
X128854713Y-93290524D01*
X128848492Y-93305229D01*
X128841524Y-93319024D01*
X128833775Y-93332168D01*
X128825213Y-93344924D01*
X128815805Y-93357552D01*
X128805263Y-93370679D01*
X128794017Y-93383317D01*
X128782063Y-93395418D01*
X128769399Y-93406931D01*
X128756021Y-93417807D01*
X128741927Y-93427997D01*
X128727114Y-93437452D01*
X128711578Y-93446121D01*
X128695318Y-93453955D01*
X128686915Y-93457544D01*
X128678330Y-93460905D01*
X128669562Y-93464033D01*
X128660611Y-93466922D01*
X128651477Y-93469565D01*
X128642159Y-93471956D01*
X128632657Y-93474088D01*
X128622970Y-93475957D01*
X128613099Y-93477555D01*
X128603043Y-93478876D01*
X128592801Y-93479914D01*
X128582373Y-93480664D01*
X128571758Y-93481118D01*
X128560958Y-93481271D01*
X128542796Y-93480748D01*
X128524881Y-93479205D01*
X128507241Y-93476678D01*
X128489903Y-93473202D01*
X128472894Y-93468815D01*
X128456243Y-93463551D01*
X128439976Y-93457447D01*
X128424122Y-93450539D01*
X128408707Y-93442864D01*
X128393759Y-93434457D01*
X128379306Y-93425354D01*
X128365375Y-93415593D01*
X128351994Y-93405208D01*
X128339190Y-93394236D01*
X128326991Y-93382713D01*
X128315424Y-93370675D01*
X128315424Y-93470000D01*
X128124289Y-93470000D01*
X128124289Y-92994067D01*
X128315424Y-92994067D01*
X128316175Y-93046607D01*
X128317462Y-93072888D01*
X128319670Y-93098832D01*
X128323031Y-93124181D01*
X128327778Y-93148678D01*
X128334145Y-93172066D01*
X128338009Y-93183263D01*
X128342366Y-93194085D01*
X128347244Y-93204502D01*
X128352673Y-93214480D01*
X128358682Y-93223987D01*
X128365300Y-93232991D01*
X128372557Y-93241460D01*
X128380481Y-93249362D01*
X128389102Y-93256664D01*
X128398448Y-93263334D01*
X128408550Y-93269340D01*
X128419436Y-93274650D01*
X128431136Y-93279231D01*
X128443678Y-93283052D01*
X128457091Y-93286079D01*
X128471406Y-93288282D01*
X128486651Y-93289627D01*
X128502855Y-93290083D01*
X128519228Y-93289653D01*
X128534630Y-93288384D01*
X128549093Y-93286302D01*
X128562644Y-93283434D01*
X128575315Y-93279807D01*
X128587133Y-93275448D01*
X128598129Y-93270385D01*
X128608333Y-93264644D01*
X128617773Y-93258252D01*
X128626480Y-93251238D01*
X128634483Y-93243627D01*
X128641811Y-93235447D01*
X128648493Y-93226725D01*
X128654560Y-93217488D01*
X128660041Y-93207763D01*
X128664966Y-93197578D01*
X128669363Y-93186959D01*
X128673262Y-93175933D01*
X128676694Y-93164528D01*
X128679687Y-93152771D01*
X128682271Y-93140688D01*
X128684475Y-93128307D01*
X128687864Y-93102760D01*
X128690088Y-93076346D01*
X128691384Y-93049281D01*
X128691989Y-93021783D01*
X128692138Y-92994067D01*
X128691384Y-92939425D01*
X128690088Y-92912588D01*
X128687864Y-92886367D01*
X128684475Y-92860981D01*
X128679687Y-92836650D01*
X128673262Y-92813593D01*
X128669363Y-92802612D01*
X128664966Y-92792031D01*
X128660041Y-92781879D01*
X128654560Y-92772183D01*
X128648493Y-92762970D01*
X128641811Y-92754269D01*
X128634483Y-92746105D01*
X128626480Y-92738508D01*
X128617773Y-92731503D01*
X128608333Y-92725120D01*
X128598129Y-92719384D01*
X128587133Y-92714325D01*
X128575315Y-92709968D01*
X128562644Y-92706342D01*
X128549093Y-92703474D01*
X128534630Y-92701391D01*
X128519228Y-92700121D01*
X128502855Y-92699692D01*
X128486651Y-92700148D01*
X128471406Y-92701494D01*
X128457091Y-92703699D01*
X128443678Y-92706728D01*
X128431136Y-92710550D01*
X128419436Y-92715132D01*
X128408550Y-92720441D01*
X128398448Y-92726444D01*
X128389102Y-92733110D01*
X128380481Y-92740405D01*
X128372557Y-92748297D01*
X128365300Y-92756753D01*
X128358682Y-92765740D01*
X128352673Y-92775226D01*
X128347244Y-92785178D01*
X128342366Y-92795564D01*
X128338009Y-92806350D01*
X128334145Y-92817505D01*
X128330745Y-92828996D01*
X128327778Y-92840789D01*
X128325217Y-92852853D01*
X128323031Y-92865155D01*
X128319670Y-92890341D01*
X128317462Y-92916086D01*
X128316175Y-92942130D01*
X128315573Y-92968210D01*
X128315424Y-92994067D01*
X128124289Y-92994067D01*
X128124289Y-92135600D01*
X128315424Y-92135600D01*
X128315424Y-92621058D01*
X128328849Y-92608677D01*
X128342426Y-92596855D01*
X128356180Y-92585627D01*
X128370130Y-92575025D01*
X128384301Y-92565081D01*
X128398712Y-92555829D01*
X128413388Y-92547302D01*
X128428348Y-92539533D01*
X128443617Y-92532555D01*
X128459215Y-92526400D01*
X128475165Y-92521101D01*
X128491488Y-92516692D01*
X128508207Y-92513205D01*
X128525343Y-92510674D01*
X128542920Y-92509131D01*
X128560958Y-92508610D01*
X128582373Y-92509216D01*
X128603043Y-92511000D01*
X128622970Y-92513915D01*
X128642159Y-92517910D01*
X128660611Y-92522937D01*
X128678330Y-92528947D01*
X128695318Y-92535891D01*
X128711578Y-92543720D01*
X128727114Y-92552385D01*
X128741927Y-92561837D01*
X128756021Y-92572026D01*
X128769399Y-92582905D01*
X128782063Y-92594423D01*
X128794017Y-92606533D01*
X128805263Y-92619184D01*
X128815805Y-92632329D01*
X128825213Y-92644937D01*
X128833775Y-92657674D01*
X128841524Y-92670797D01*
X128848492Y-92684564D01*
X128851694Y-92691770D01*
X128854713Y-92699235D01*
X128857554Y-92706989D01*
X128860220Y-92715066D01*
X128862716Y-92723498D01*
X128865046Y-92732317D01*
X128869224Y-92751246D01*
X128872786Y-92772110D01*
X128875767Y-92795169D01*
X128878198Y-92820681D01*
X128880113Y-92848904D01*
X128881545Y-92880095D01*
X128882527Y-92914514D01*
X128883092Y-92952419D01*
X128883273Y-92994067D01*
X128882527Y-93074162D01*
G37*
G36*
X129104631Y-92509049D02*
G01*
X129123058Y-92510368D01*
X129141101Y-92512566D01*
X129158745Y-92515643D01*
X129175972Y-92519598D01*
X129192767Y-92524432D01*
X129209111Y-92530145D01*
X129224989Y-92536735D01*
X129240384Y-92544204D01*
X129255280Y-92552550D01*
X129269658Y-92561775D01*
X129283504Y-92571877D01*
X129296800Y-92582856D01*
X129309530Y-92594713D01*
X129321677Y-92607447D01*
X129333224Y-92621058D01*
X129336981Y-92621058D01*
X129336981Y-92519881D01*
X129528116Y-92519881D01*
X129528116Y-93470000D01*
X129336981Y-93470000D01*
X129336981Y-92898341D01*
X129336714Y-92885578D01*
X129335926Y-92873272D01*
X129334633Y-92861419D01*
X129332850Y-92850016D01*
X129330596Y-92839059D01*
X129327885Y-92828546D01*
X129324735Y-92818472D01*
X129321163Y-92808835D01*
X129317183Y-92799631D01*
X129312814Y-92790857D01*
X129308072Y-92782509D01*
X129302972Y-92774584D01*
X129297532Y-92767079D01*
X129291768Y-92759990D01*
X129285697Y-92753313D01*
X129279334Y-92747046D01*
X129272697Y-92741185D01*
X129265802Y-92735727D01*
X129258666Y-92730668D01*
X129251304Y-92726004D01*
X129243733Y-92721734D01*
X129235971Y-92717852D01*
X129228032Y-92714356D01*
X129219935Y-92711242D01*
X129203328Y-92706149D01*
X129186283Y-92702544D01*
X129168930Y-92700401D01*
X129151402Y-92699693D01*
X129142454Y-92699848D01*
X129133858Y-92700322D01*
X129125570Y-92701126D01*
X129117546Y-92702271D01*
X129109741Y-92703768D01*
X129102113Y-92705628D01*
X129094616Y-92707862D01*
X129087207Y-92710481D01*
X129079843Y-92713496D01*
X129072478Y-92716919D01*
X129065069Y-92720760D01*
X129057573Y-92725030D01*
X129049945Y-92729742D01*
X129042141Y-92734904D01*
X129034118Y-92740530D01*
X129025830Y-92746629D01*
X128887189Y-92581688D01*
X128898150Y-92573455D01*
X128909253Y-92565634D01*
X128920508Y-92558241D01*
X128931928Y-92551294D01*
X128943522Y-92544807D01*
X128955303Y-92538799D01*
X128967281Y-92533285D01*
X128979469Y-92528281D01*
X128991877Y-92523805D01*
X129004516Y-92519872D01*
X129017397Y-92516499D01*
X129030533Y-92513703D01*
X129043933Y-92511499D01*
X129057610Y-92509905D01*
X129071575Y-92508936D01*
X129085838Y-92508610D01*
X129104631Y-92509049D01*
G37*
G36*
X125026608Y-91008227D02*
G01*
X125045037Y-91009546D01*
X125063083Y-91011744D01*
X125080730Y-91014820D01*
X125097961Y-91018776D01*
X125114760Y-91023610D01*
X125131109Y-91029322D01*
X125146992Y-91035913D01*
X125162392Y-91043381D01*
X125177292Y-91051728D01*
X125191676Y-91060952D01*
X125205525Y-91071054D01*
X125218825Y-91082034D01*
X125231557Y-91093891D01*
X125243705Y-91106625D01*
X125255253Y-91120235D01*
X125258958Y-91120235D01*
X125258958Y-91019058D01*
X125450146Y-91019058D01*
X125450146Y-91969177D01*
X125258958Y-91969177D01*
X125258958Y-91397625D01*
X125258692Y-91384852D01*
X125257904Y-91372538D01*
X125256612Y-91360678D01*
X125254832Y-91349269D01*
X125252579Y-91338307D01*
X125249872Y-91327790D01*
X125246725Y-91317713D01*
X125243155Y-91308074D01*
X125239180Y-91298869D01*
X125234814Y-91290094D01*
X125230076Y-91281746D01*
X125224980Y-91273821D01*
X125219544Y-91266317D01*
X125213784Y-91259229D01*
X125207717Y-91252554D01*
X125201358Y-91246290D01*
X125194725Y-91240431D01*
X125187833Y-91234976D01*
X125180699Y-91229920D01*
X125173340Y-91225259D01*
X125165772Y-91220992D01*
X125158012Y-91217114D01*
X125150075Y-91213621D01*
X125141979Y-91210510D01*
X125125373Y-91205423D01*
X125108326Y-91201822D01*
X125090968Y-91199683D01*
X125073432Y-91198975D01*
X125064476Y-91199131D01*
X125055873Y-91199605D01*
X125047581Y-91200409D01*
X125039554Y-91201553D01*
X125031748Y-91203048D01*
X125024120Y-91204905D01*
X125016624Y-91207136D01*
X125009218Y-91209751D01*
X125001856Y-91212761D01*
X124994494Y-91216176D01*
X124987089Y-91220009D01*
X124979596Y-91224269D01*
X124971971Y-91228968D01*
X124964169Y-91234117D01*
X124956147Y-91239726D01*
X124947861Y-91245807D01*
X124809166Y-91080865D01*
X124820145Y-91072632D01*
X124831260Y-91064811D01*
X124842524Y-91057419D01*
X124853949Y-91050471D01*
X124865546Y-91043985D01*
X124877326Y-91037977D01*
X124889302Y-91032462D01*
X124901485Y-91027459D01*
X124913887Y-91022983D01*
X124926520Y-91019050D01*
X124939395Y-91015677D01*
X124952524Y-91012880D01*
X124965919Y-91010677D01*
X124979591Y-91009082D01*
X124993552Y-91008114D01*
X125007815Y-91007787D01*
X125026608Y-91008227D01*
G37*
G36*
X131396338Y-93470000D02*
G01*
X131205151Y-93470000D01*
X131205151Y-92904056D01*
X131204916Y-92892086D01*
X131204220Y-92880440D01*
X131203070Y-92869120D01*
X131201478Y-92858130D01*
X131199452Y-92847475D01*
X131197002Y-92837157D01*
X131194137Y-92827181D01*
X131190868Y-92817550D01*
X131187204Y-92808268D01*
X131183154Y-92799339D01*
X131178728Y-92790766D01*
X131173936Y-92782554D01*
X131168787Y-92774706D01*
X131163291Y-92767225D01*
X131157457Y-92760116D01*
X131151295Y-92753383D01*
X131144814Y-92747028D01*
X131138025Y-92741056D01*
X131130937Y-92735471D01*
X131123559Y-92730276D01*
X131115901Y-92725475D01*
X131107972Y-92721072D01*
X131099783Y-92717071D01*
X131091342Y-92713475D01*
X131082659Y-92710287D01*
X131073745Y-92707513D01*
X131064608Y-92705155D01*
X131055258Y-92703217D01*
X131045705Y-92701704D01*
X131035958Y-92700618D01*
X131026026Y-92699964D01*
X131015921Y-92699745D01*
X131005983Y-92699964D01*
X130996209Y-92700618D01*
X130986609Y-92701704D01*
X130977193Y-92703217D01*
X130967970Y-92705155D01*
X130958950Y-92707513D01*
X130950145Y-92710287D01*
X130941562Y-92713474D01*
X130933213Y-92717071D01*
X130925107Y-92721072D01*
X130917255Y-92725475D01*
X130909666Y-92730276D01*
X130902350Y-92735471D01*
X130895317Y-92741056D01*
X130888577Y-92747028D01*
X130882141Y-92753382D01*
X130876017Y-92760116D01*
X130870217Y-92767225D01*
X130864749Y-92774705D01*
X130859624Y-92782553D01*
X130854852Y-92790766D01*
X130850442Y-92799338D01*
X130846406Y-92808267D01*
X130842752Y-92817549D01*
X130839490Y-92827180D01*
X130836632Y-92837157D01*
X130834185Y-92847474D01*
X130832162Y-92858130D01*
X130830570Y-92869120D01*
X130829421Y-92880440D01*
X130828724Y-92892086D01*
X130828490Y-92904056D01*
X130828490Y-93469999D01*
X130637355Y-93469999D01*
X130637355Y-92838386D01*
X130637843Y-92818482D01*
X130639285Y-92799173D01*
X130641646Y-92780462D01*
X130644891Y-92762350D01*
X130648985Y-92744842D01*
X130653894Y-92727938D01*
X130659584Y-92711641D01*
X130666019Y-92695954D01*
X130673165Y-92680879D01*
X130680988Y-92666419D01*
X130689452Y-92652575D01*
X130698523Y-92639351D01*
X130708167Y-92626748D01*
X130718348Y-92614769D01*
X130729033Y-92603417D01*
X130740185Y-92592694D01*
X130751772Y-92582602D01*
X130763758Y-92573143D01*
X130776108Y-92564321D01*
X130788788Y-92556137D01*
X130801763Y-92548595D01*
X130814998Y-92541695D01*
X130828460Y-92535441D01*
X130842113Y-92529835D01*
X130855922Y-92524880D01*
X130869853Y-92520578D01*
X130883872Y-92516931D01*
X130897943Y-92513941D01*
X130912032Y-92511612D01*
X130926105Y-92509945D01*
X130940126Y-92508943D01*
X130954061Y-92508609D01*
X130972855Y-92509049D01*
X130991286Y-92510367D01*
X131009344Y-92512565D01*
X131027018Y-92515642D01*
X131044298Y-92519597D01*
X131061171Y-92524431D01*
X131077627Y-92530144D01*
X131093655Y-92536734D01*
X131109244Y-92544203D01*
X131124384Y-92552549D01*
X131139062Y-92561774D01*
X131153268Y-92571876D01*
X131166991Y-92582855D01*
X131180219Y-92594712D01*
X131192943Y-92607446D01*
X131205151Y-92621057D01*
X131204463Y-91868053D01*
X131191039Y-91880434D01*
X131177461Y-91892255D01*
X131163708Y-91903484D01*
X131149757Y-91914086D01*
X131135587Y-91924030D01*
X131121175Y-91933281D01*
X131106500Y-91941808D01*
X131091539Y-91949578D01*
X131076270Y-91956556D01*
X131060672Y-91962711D01*
X131044722Y-91968010D01*
X131028399Y-91972419D01*
X131011680Y-91975905D01*
X130994544Y-91978436D01*
X130976967Y-91979979D01*
X130958930Y-91980501D01*
X130948133Y-91980348D01*
X130937523Y-91979894D01*
X130927098Y-91979144D01*
X130916858Y-91978106D01*
X130906802Y-91976785D01*
X130896931Y-91975187D01*
X130887245Y-91973319D01*
X130877742Y-91971186D01*
X130868423Y-91968795D01*
X130859287Y-91966152D01*
X130850334Y-91963264D01*
X130841564Y-91960136D01*
X130832976Y-91956774D01*
X130824570Y-91953185D01*
X130808302Y-91945351D01*
X130792759Y-91936682D01*
X130777938Y-91927228D01*
X130763836Y-91917038D01*
X130750451Y-91906161D01*
X130737780Y-91894648D01*
X130725822Y-91882547D01*
X130714572Y-91869909D01*
X130704030Y-91856782D01*
X130694631Y-91844172D01*
X130686077Y-91831433D01*
X130678335Y-91818306D01*
X130671373Y-91804534D01*
X130665157Y-91789858D01*
X130659654Y-91774023D01*
X130654832Y-91756769D01*
X130650657Y-91737839D01*
X130647097Y-91716975D01*
X130644118Y-91693921D01*
X130641688Y-91668417D01*
X130639773Y-91640207D01*
X130637360Y-91574637D01*
X130636614Y-91495149D01*
X130636614Y-91495096D01*
X130827749Y-91495096D01*
X130827898Y-91522486D01*
X130828503Y-91549703D01*
X130829799Y-91576526D01*
X130832024Y-91602735D01*
X130835412Y-91628111D01*
X130837616Y-91640418D01*
X130840200Y-91652434D01*
X130843193Y-91664131D01*
X130846625Y-91675483D01*
X130850524Y-91686462D01*
X130854922Y-91697040D01*
X130859846Y-91707189D01*
X130865327Y-91716883D01*
X130871394Y-91726094D01*
X130878077Y-91734794D01*
X130885404Y-91742957D01*
X130893407Y-91750553D01*
X130902114Y-91757557D01*
X130911554Y-91763940D01*
X130921758Y-91769675D01*
X130932754Y-91774734D01*
X130944572Y-91779090D01*
X130957243Y-91782716D01*
X130970794Y-91785584D01*
X130985257Y-91787667D01*
X131000659Y-91788937D01*
X131017032Y-91789366D01*
X131033236Y-91788910D01*
X131048481Y-91787565D01*
X131062796Y-91785362D01*
X131076209Y-91782334D01*
X131088752Y-91778515D01*
X131100451Y-91773936D01*
X131111337Y-91768630D01*
X131121439Y-91762630D01*
X131130786Y-91755968D01*
X131139406Y-91748677D01*
X131147331Y-91740790D01*
X131154587Y-91732339D01*
X131161205Y-91723357D01*
X131167214Y-91713875D01*
X131172643Y-91703928D01*
X131177521Y-91693547D01*
X131181878Y-91682766D01*
X131185742Y-91671616D01*
X131192109Y-91648341D01*
X131196856Y-91623985D01*
X131200217Y-91598807D01*
X131202425Y-91573068D01*
X131203712Y-91547029D01*
X131204463Y-91495096D01*
X131204313Y-91468914D01*
X131203710Y-91442552D01*
X131202420Y-91416266D01*
X131200209Y-91390316D01*
X131196846Y-91364958D01*
X131194658Y-91352583D01*
X131192095Y-91340452D01*
X131189127Y-91328599D01*
X131185725Y-91317055D01*
X131181859Y-91305853D01*
X131177502Y-91295025D01*
X131172622Y-91284604D01*
X131167192Y-91274621D01*
X131161183Y-91265109D01*
X131154564Y-91256100D01*
X131147307Y-91247626D01*
X131139383Y-91239720D01*
X131130763Y-91232414D01*
X131121417Y-91225740D01*
X131111316Y-91219730D01*
X131100431Y-91214417D01*
X131088734Y-91209833D01*
X131076194Y-91206010D01*
X131062783Y-91202980D01*
X131048472Y-91200776D01*
X131033231Y-91199430D01*
X131017032Y-91198975D01*
X131000659Y-91199404D01*
X130985257Y-91200673D01*
X130970794Y-91202755D01*
X130957243Y-91205624D01*
X130944572Y-91209251D01*
X130932754Y-91213610D01*
X130921758Y-91218674D01*
X130911554Y-91224415D01*
X130902114Y-91230807D01*
X130893407Y-91237823D01*
X130885404Y-91245435D01*
X130878077Y-91253616D01*
X130871394Y-91262339D01*
X130865327Y-91271578D01*
X130859846Y-91281305D01*
X130854922Y-91291493D01*
X130850524Y-91302114D01*
X130846625Y-91313143D01*
X130840200Y-91336312D01*
X130835412Y-91360784D01*
X130832024Y-91386342D01*
X130829799Y-91412768D01*
X130828503Y-91439847D01*
X130827749Y-91495096D01*
X130636614Y-91495096D01*
X130636795Y-91453193D01*
X130637360Y-91415019D01*
X130638342Y-91380367D01*
X130639773Y-91348974D01*
X130641688Y-91320581D01*
X130644118Y-91294926D01*
X130647097Y-91271748D01*
X130650657Y-91250786D01*
X130654832Y-91231780D01*
X130657160Y-91222929D01*
X130659654Y-91214468D01*
X130662318Y-91206366D01*
X130665157Y-91198589D01*
X130668174Y-91191106D01*
X130671373Y-91183882D01*
X130678335Y-91170087D01*
X130686077Y-91156942D01*
X130694631Y-91144186D01*
X130704030Y-91131559D01*
X130714572Y-91118432D01*
X130725822Y-91105793D01*
X130737780Y-91093693D01*
X130750451Y-91082180D01*
X130763836Y-91071303D01*
X130777938Y-91061113D01*
X130792759Y-91051659D01*
X130808302Y-91042990D01*
X130824569Y-91035155D01*
X130841564Y-91028205D01*
X130859287Y-91022189D01*
X130877742Y-91017155D01*
X130896931Y-91013154D01*
X130916857Y-91010235D01*
X130937523Y-91008447D01*
X130958929Y-91007840D01*
X130977091Y-91008361D01*
X130995004Y-91009901D01*
X131012641Y-91012423D01*
X131029977Y-91015893D01*
X131046982Y-91020274D01*
X131063630Y-91025532D01*
X131079894Y-91031629D01*
X131095745Y-91038531D01*
X131111158Y-91046202D01*
X131126105Y-91054607D01*
X131140558Y-91063709D01*
X131154490Y-91073473D01*
X131167873Y-91083863D01*
X131180682Y-91094844D01*
X131192887Y-91106380D01*
X131204463Y-91118436D01*
X131204463Y-91019111D01*
X131396338Y-91019111D01*
X131396338Y-91495096D01*
X131396338Y-93470000D01*
G37*
G36*
X127906461Y-91009056D02*
G01*
X127942226Y-91012538D01*
X127976581Y-91018332D01*
X128009368Y-91026429D01*
X128040432Y-91036821D01*
X128055268Y-91042875D01*
X128069615Y-91049500D01*
X128083453Y-91056694D01*
X128096762Y-91064457D01*
X128109523Y-91072788D01*
X128121716Y-91081685D01*
X128133322Y-91091148D01*
X128144320Y-91101175D01*
X128154692Y-91111766D01*
X128164418Y-91122919D01*
X128173478Y-91134634D01*
X128181854Y-91146909D01*
X128189524Y-91159744D01*
X128196470Y-91173137D01*
X128202672Y-91187087D01*
X128208111Y-91201593D01*
X128212766Y-91216655D01*
X128216619Y-91232271D01*
X128219650Y-91248440D01*
X128221839Y-91265162D01*
X128223167Y-91282434D01*
X128223614Y-91300257D01*
X128223276Y-91315334D01*
X128222270Y-91330003D01*
X128220611Y-91344262D01*
X128218313Y-91358109D01*
X128215389Y-91371543D01*
X128211852Y-91384560D01*
X128207717Y-91397159D01*
X128202998Y-91409338D01*
X128197707Y-91421095D01*
X128191859Y-91432428D01*
X128185468Y-91443333D01*
X128178547Y-91453811D01*
X128171109Y-91463857D01*
X128163170Y-91473471D01*
X128154742Y-91482650D01*
X128145839Y-91491392D01*
X128136476Y-91499695D01*
X128126664Y-91507557D01*
X128116420Y-91514976D01*
X128105755Y-91521949D01*
X128094685Y-91528475D01*
X128083222Y-91534552D01*
X128071380Y-91540176D01*
X128059173Y-91545348D01*
X128046616Y-91550063D01*
X128033721Y-91554320D01*
X128020502Y-91558118D01*
X128006973Y-91561453D01*
X127979041Y-91566730D01*
X127950035Y-91570132D01*
X127781336Y-91585108D01*
X127769209Y-91586335D01*
X127757489Y-91587963D01*
X127746227Y-91590038D01*
X127735475Y-91592608D01*
X127725285Y-91595717D01*
X127715709Y-91599413D01*
X127706800Y-91603741D01*
X127702611Y-91606157D01*
X127698607Y-91608749D01*
X127694797Y-91611522D01*
X127691185Y-91614482D01*
X127687778Y-91617636D01*
X127684584Y-91620988D01*
X127681607Y-91624544D01*
X127678856Y-91628311D01*
X127676336Y-91632294D01*
X127674053Y-91636499D01*
X127672015Y-91640932D01*
X127670227Y-91645598D01*
X127668697Y-91650503D01*
X127667431Y-91655654D01*
X127666434Y-91661056D01*
X127665714Y-91666714D01*
X127665278Y-91672635D01*
X127665131Y-91678824D01*
X127665360Y-91686264D01*
X127666042Y-91693472D01*
X127667168Y-91700449D01*
X127668729Y-91707194D01*
X127670715Y-91713707D01*
X127673118Y-91719987D01*
X127675930Y-91726034D01*
X127679140Y-91731848D01*
X127682740Y-91737429D01*
X127686721Y-91742776D01*
X127691074Y-91747888D01*
X127695790Y-91752766D01*
X127700861Y-91757409D01*
X127706276Y-91761817D01*
X127712028Y-91765989D01*
X127718107Y-91769926D01*
X127724504Y-91773627D01*
X127731211Y-91777091D01*
X127738218Y-91780318D01*
X127745516Y-91783308D01*
X127753097Y-91786061D01*
X127760951Y-91788576D01*
X127769070Y-91790854D01*
X127777444Y-91792892D01*
X127786065Y-91794693D01*
X127794923Y-91796254D01*
X127804010Y-91797576D01*
X127813317Y-91798658D01*
X127822835Y-91799500D01*
X127832554Y-91800102D01*
X127842466Y-91800464D01*
X127852562Y-91800584D01*
X127876022Y-91800103D01*
X127898648Y-91798660D01*
X127920483Y-91796258D01*
X127941573Y-91792900D01*
X127961959Y-91788587D01*
X127981687Y-91783322D01*
X128000800Y-91777108D01*
X128019342Y-91769946D01*
X128037357Y-91761839D01*
X128054888Y-91752789D01*
X128071981Y-91742799D01*
X128088678Y-91731871D01*
X128105023Y-91720007D01*
X128121060Y-91707210D01*
X128136834Y-91693481D01*
X128152388Y-91678824D01*
X128285421Y-91809951D01*
X128262341Y-91830702D01*
X128238791Y-91850096D01*
X128214785Y-91868134D01*
X128190337Y-91884820D01*
X128165461Y-91900155D01*
X128140170Y-91914144D01*
X128114478Y-91926787D01*
X128088398Y-91938089D01*
X128061946Y-91948051D01*
X128035134Y-91956676D01*
X128007976Y-91963967D01*
X127980487Y-91969926D01*
X127952679Y-91974557D01*
X127924567Y-91977861D01*
X127896164Y-91979842D01*
X127867485Y-91980502D01*
X127826622Y-91979257D01*
X127787084Y-91975551D01*
X127749049Y-91969424D01*
X127712701Y-91960917D01*
X127678219Y-91950071D01*
X127645786Y-91936928D01*
X127615581Y-91921527D01*
X127601372Y-91912994D01*
X127587787Y-91903911D01*
X127574850Y-91894285D01*
X127562584Y-91884121D01*
X127551012Y-91873423D01*
X127540154Y-91862196D01*
X127530036Y-91850447D01*
X127520678Y-91838179D01*
X127512104Y-91825399D01*
X127504337Y-91812110D01*
X127497398Y-91798319D01*
X127491312Y-91784031D01*
X127486099Y-91769250D01*
X127481783Y-91753982D01*
X127478388Y-91738231D01*
X127475934Y-91722004D01*
X127474445Y-91705304D01*
X127473944Y-91688138D01*
X127474875Y-91660081D01*
X127477707Y-91632878D01*
X127482498Y-91606638D01*
X127485646Y-91593914D01*
X127489306Y-91581472D01*
X127493484Y-91569325D01*
X127498189Y-91557488D01*
X127503427Y-91545975D01*
X127509205Y-91534799D01*
X127515531Y-91523974D01*
X127522411Y-91513513D01*
X127529854Y-91503431D01*
X127537867Y-91493742D01*
X127546456Y-91484458D01*
X127555629Y-91475594D01*
X127565394Y-91467164D01*
X127575757Y-91459181D01*
X127586725Y-91451659D01*
X127598307Y-91444612D01*
X127610508Y-91438053D01*
X127623337Y-91431997D01*
X127636801Y-91426457D01*
X127650907Y-91421447D01*
X127665662Y-91416981D01*
X127681073Y-91413072D01*
X127697148Y-91409735D01*
X127713894Y-91406982D01*
X127731318Y-91404829D01*
X127749428Y-91403287D01*
X127906855Y-91392122D01*
X127924014Y-91390317D01*
X127939687Y-91387772D01*
X127953926Y-91384537D01*
X127966785Y-91380662D01*
X127978314Y-91376195D01*
X127983597Y-91373755D01*
X127988567Y-91371185D01*
X127993231Y-91368493D01*
X127997596Y-91365683D01*
X128001667Y-91362762D01*
X128005452Y-91359737D01*
X128008957Y-91356613D01*
X128012188Y-91353396D01*
X128017857Y-91346710D01*
X128022510Y-91339729D01*
X128026200Y-91332501D01*
X128028979Y-91325076D01*
X128030900Y-91317503D01*
X128032014Y-91309831D01*
X128032373Y-91302110D01*
X128032251Y-91296019D01*
X128031881Y-91290031D01*
X128031254Y-91284153D01*
X128030364Y-91278390D01*
X128029204Y-91272749D01*
X128027767Y-91267236D01*
X128026044Y-91261855D01*
X128024030Y-91256614D01*
X128021716Y-91251517D01*
X128019097Y-91246572D01*
X128016163Y-91241783D01*
X128012909Y-91237156D01*
X128009327Y-91232698D01*
X128005410Y-91228415D01*
X128001151Y-91224311D01*
X127996542Y-91220394D01*
X127991577Y-91216668D01*
X127986247Y-91213141D01*
X127980546Y-91209817D01*
X127974467Y-91206702D01*
X127968003Y-91203803D01*
X127961146Y-91201126D01*
X127953888Y-91198675D01*
X127946224Y-91196457D01*
X127938145Y-91194479D01*
X127929645Y-91192745D01*
X127920717Y-91191262D01*
X127911352Y-91190035D01*
X127901544Y-91189071D01*
X127891286Y-91188374D01*
X127880570Y-91187952D01*
X127869390Y-91187810D01*
X127850354Y-91188224D01*
X127831897Y-91189445D01*
X127813985Y-91191447D01*
X127796581Y-91194202D01*
X127779649Y-91197681D01*
X127763155Y-91201858D01*
X127747063Y-91206704D01*
X127731337Y-91212192D01*
X127715941Y-91218293D01*
X127700840Y-91224981D01*
X127685999Y-91232227D01*
X127671381Y-91240004D01*
X127656952Y-91248284D01*
X127642675Y-91257039D01*
X127628516Y-91266241D01*
X127614437Y-91275864D01*
X127496433Y-91137275D01*
X127514232Y-91122846D01*
X127532522Y-91109108D01*
X127551354Y-91096096D01*
X127570782Y-91083840D01*
X127590857Y-91072376D01*
X127611632Y-91061735D01*
X127633160Y-91051951D01*
X127655494Y-91043056D01*
X127678685Y-91035085D01*
X127702786Y-91028069D01*
X127727849Y-91022042D01*
X127753928Y-91017036D01*
X127781074Y-91013086D01*
X127809340Y-91010223D01*
X127838779Y-91008481D01*
X127869442Y-91007893D01*
X127906461Y-91009056D01*
G37*
D12*
G36*
X124603086Y-105575529D02*
G01*
X123181108Y-105575529D01*
X123181108Y-104794911D01*
X123292219Y-104794911D01*
X123292219Y-105366339D01*
X123294140Y-105385848D01*
X123309072Y-105421896D01*
X123336662Y-105449486D01*
X123372710Y-105464418D01*
X123411728Y-105464418D01*
X123447776Y-105449486D01*
X123475366Y-105421896D01*
X123490298Y-105385848D01*
X123492219Y-105366339D01*
X123492219Y-105180625D01*
X124392219Y-105180625D01*
X124411728Y-105178704D01*
X124447776Y-105163772D01*
X124475366Y-105136182D01*
X124490298Y-105100134D01*
X124490298Y-105061116D01*
X124475366Y-105025068D01*
X124447776Y-104997478D01*
X124411728Y-104982546D01*
X124392219Y-104980625D01*
X123492219Y-104980625D01*
X123492219Y-104794911D01*
X123490298Y-104775402D01*
X123475366Y-104739354D01*
X123447776Y-104711764D01*
X123411728Y-104696832D01*
X123372710Y-104696832D01*
X123336662Y-104711764D01*
X123309072Y-104739354D01*
X123294140Y-104775402D01*
X123292219Y-104794911D01*
X123181108Y-104794911D01*
X123181108Y-103897134D01*
X123292463Y-103897134D01*
X123294140Y-103903282D01*
X123294140Y-103909658D01*
X123299231Y-103921948D01*
X123302730Y-103934777D01*
X123306632Y-103939815D01*
X123309072Y-103945706D01*
X123318477Y-103955111D01*
X123326620Y-103965626D01*
X123334795Y-103971429D01*
X123336662Y-103973296D01*
X123338494Y-103974054D01*
X123342605Y-103976973D01*
X124015663Y-104361577D01*
X123392219Y-104361577D01*
X123372710Y-104363498D01*
X123336662Y-104378430D01*
X123309072Y-104406020D01*
X123294140Y-104442068D01*
X123294140Y-104481086D01*
X123309072Y-104517134D01*
X123336662Y-104544724D01*
X123372710Y-104559656D01*
X123392219Y-104561577D01*
X124392219Y-104561577D01*
X124397236Y-104561082D01*
X124399204Y-104561333D01*
X124401750Y-104560638D01*
X124411728Y-104559656D01*
X124424014Y-104554566D01*
X124436847Y-104551067D01*
X124441888Y-104547162D01*
X124447776Y-104544724D01*
X124457179Y-104535320D01*
X124467696Y-104527176D01*
X124470858Y-104521641D01*
X124475366Y-104517134D01*
X124480454Y-104504848D01*
X124487055Y-104493299D01*
X124487858Y-104486974D01*
X124490298Y-104481086D01*
X124490298Y-104467786D01*
X124491975Y-104454593D01*
X124490298Y-104448443D01*
X124490298Y-104442068D01*
X124485208Y-104429781D01*
X124481709Y-104416949D01*
X124477804Y-104411907D01*
X124475366Y-104406020D01*
X124465962Y-104396616D01*
X124457818Y-104386100D01*
X124449642Y-104380296D01*
X124447776Y-104378430D01*
X124445943Y-104377671D01*
X124441833Y-104374753D01*
X123768775Y-103990149D01*
X124392219Y-103990149D01*
X124411728Y-103988228D01*
X124447776Y-103973296D01*
X124475366Y-103945706D01*
X124490298Y-103909658D01*
X124490298Y-103870640D01*
X124475366Y-103834592D01*
X124447776Y-103807002D01*
X124411728Y-103792070D01*
X124392219Y-103790149D01*
X123392219Y-103790149D01*
X123387201Y-103790643D01*
X123385234Y-103790393D01*
X123382687Y-103791087D01*
X123372710Y-103792070D01*
X123360419Y-103797161D01*
X123347591Y-103800660D01*
X123342552Y-103804562D01*
X123336662Y-103807002D01*
X123327256Y-103816407D01*
X123316742Y-103824550D01*
X123313579Y-103830084D01*
X123309072Y-103834592D01*
X123303983Y-103846877D01*
X123297383Y-103858427D01*
X123296579Y-103864751D01*
X123294140Y-103870640D01*
X123294140Y-103883940D01*
X123292463Y-103897134D01*
X123181108Y-103897134D01*
X123181108Y-103394450D01*
X123294140Y-103394450D01*
X123294140Y-103433468D01*
X123309072Y-103469516D01*
X123336662Y-103497106D01*
X123372710Y-103512038D01*
X123392219Y-103513959D01*
X124392219Y-103513959D01*
X124411728Y-103512038D01*
X124447776Y-103497106D01*
X124475366Y-103469516D01*
X124490298Y-103433468D01*
X124490298Y-103394450D01*
X124475366Y-103358402D01*
X124447776Y-103330812D01*
X124411728Y-103315880D01*
X124392219Y-103313959D01*
X123392219Y-103313959D01*
X123372710Y-103315880D01*
X123336662Y-103330812D01*
X123309072Y-103358402D01*
X123294140Y-103394450D01*
X123181108Y-103394450D01*
X123181108Y-102687166D01*
X123816813Y-102687166D01*
X123817701Y-102699673D01*
X123816813Y-102712180D01*
X123819072Y-102718958D01*
X123819579Y-102726086D01*
X123826585Y-102744394D01*
X123899462Y-102890149D01*
X123881461Y-102926151D01*
X123845317Y-102962295D01*
X123832881Y-102977449D01*
X123817949Y-103013497D01*
X123817949Y-103052515D01*
X123832881Y-103088563D01*
X123860471Y-103116153D01*
X123896519Y-103131085D01*
X123935537Y-103131085D01*
X123971585Y-103116153D01*
X123986739Y-103103717D01*
X124034357Y-103056098D01*
X124040649Y-103048431D01*
X124042647Y-103046699D01*
X124044540Y-103043690D01*
X124046794Y-103040945D01*
X124047804Y-103038504D01*
X124053090Y-103030108D01*
X124100709Y-102934871D01*
X124107715Y-102916562D01*
X124108221Y-102909435D01*
X124110481Y-102902657D01*
X124109592Y-102890149D01*
X124110481Y-102877642D01*
X124108221Y-102870863D01*
X124107715Y-102863736D01*
X124100709Y-102845428D01*
X124027831Y-102699673D01*
X124045833Y-102663670D01*
X124081976Y-102627527D01*
X124094413Y-102612374D01*
X124109344Y-102576325D01*
X124109344Y-102537307D01*
X124094413Y-102501259D01*
X124066823Y-102473669D01*
X124030775Y-102458738D01*
X123991757Y-102458738D01*
X123955708Y-102473669D01*
X123940555Y-102486106D01*
X123892936Y-102533724D01*
X123886641Y-102541394D01*
X123884647Y-102543124D01*
X123882753Y-102546131D01*
X123880500Y-102548878D01*
X123879489Y-102551317D01*
X123874204Y-102559714D01*
X123826585Y-102654952D01*
X123819579Y-102673260D01*
X123819072Y-102680387D01*
X123816813Y-102687166D01*
X123181108Y-102687166D01*
X123181108Y-102347627D01*
X124603086Y-102347627D01*
X124603086Y-105575529D01*
G37*
D14*
X133720038Y-101317693D02*
X133672419Y-101222455D01*
X133672419Y-101222455D02*
X133672419Y-101079598D01*
X133672419Y-101079598D02*
X133720038Y-100936741D01*
X133720038Y-100936741D02*
X133815276Y-100841503D01*
X133815276Y-100841503D02*
X133910514Y-100793884D01*
X133910514Y-100793884D02*
X134100990Y-100746265D01*
X134100990Y-100746265D02*
X134243847Y-100746265D01*
X134243847Y-100746265D02*
X134434323Y-100793884D01*
X134434323Y-100793884D02*
X134529561Y-100841503D01*
X134529561Y-100841503D02*
X134624800Y-100936741D01*
X134624800Y-100936741D02*
X134672419Y-101079598D01*
X134672419Y-101079598D02*
X134672419Y-101174836D01*
X134672419Y-101174836D02*
X134624800Y-101317693D01*
X134624800Y-101317693D02*
X134577180Y-101365312D01*
X134577180Y-101365312D02*
X134243847Y-101365312D01*
X134243847Y-101365312D02*
X134243847Y-101174836D01*
X134672419Y-102365312D02*
X134196228Y-102031979D01*
X134672419Y-101793884D02*
X133672419Y-101793884D01*
X133672419Y-101793884D02*
X133672419Y-102174836D01*
X133672419Y-102174836D02*
X133720038Y-102270074D01*
X133720038Y-102270074D02*
X133767657Y-102317693D01*
X133767657Y-102317693D02*
X133862895Y-102365312D01*
X133862895Y-102365312D02*
X134005752Y-102365312D01*
X134005752Y-102365312D02*
X134100990Y-102317693D01*
X134100990Y-102317693D02*
X134148609Y-102270074D01*
X134148609Y-102270074D02*
X134196228Y-102174836D01*
X134196228Y-102174836D02*
X134196228Y-101793884D01*
X133672419Y-102984360D02*
X133672419Y-103174836D01*
X133672419Y-103174836D02*
X133720038Y-103270074D01*
X133720038Y-103270074D02*
X133815276Y-103365312D01*
X133815276Y-103365312D02*
X134005752Y-103412931D01*
X134005752Y-103412931D02*
X134339085Y-103412931D01*
X134339085Y-103412931D02*
X134529561Y-103365312D01*
X134529561Y-103365312D02*
X134624800Y-103270074D01*
X134624800Y-103270074D02*
X134672419Y-103174836D01*
X134672419Y-103174836D02*
X134672419Y-102984360D01*
X134672419Y-102984360D02*
X134624800Y-102889122D01*
X134624800Y-102889122D02*
X134529561Y-102793884D01*
X134529561Y-102793884D02*
X134339085Y-102746265D01*
X134339085Y-102746265D02*
X134005752Y-102746265D01*
X134005752Y-102746265D02*
X133815276Y-102793884D01*
X133815276Y-102793884D02*
X133720038Y-102889122D01*
X133720038Y-102889122D02*
X133672419Y-102984360D01*
X133672419Y-103841503D02*
X134481942Y-103841503D01*
X134481942Y-103841503D02*
X134577180Y-103889122D01*
X134577180Y-103889122D02*
X134624800Y-103936741D01*
X134624800Y-103936741D02*
X134672419Y-104031979D01*
X134672419Y-104031979D02*
X134672419Y-104222455D01*
X134672419Y-104222455D02*
X134624800Y-104317693D01*
X134624800Y-104317693D02*
X134577180Y-104365312D01*
X134577180Y-104365312D02*
X134481942Y-104412931D01*
X134481942Y-104412931D02*
X133672419Y-104412931D01*
X134672419Y-104889122D02*
X133672419Y-104889122D01*
X133672419Y-104889122D02*
X134672419Y-105460550D01*
X134672419Y-105460550D02*
X133672419Y-105460550D01*
X134672419Y-105936741D02*
X133672419Y-105936741D01*
X133672419Y-105936741D02*
X133672419Y-106174836D01*
X133672419Y-106174836D02*
X133720038Y-106317693D01*
X133720038Y-106317693D02*
X133815276Y-106412931D01*
X133815276Y-106412931D02*
X133910514Y-106460550D01*
X133910514Y-106460550D02*
X134100990Y-106508169D01*
X134100990Y-106508169D02*
X134243847Y-106508169D01*
X134243847Y-106508169D02*
X134434323Y-106460550D01*
X134434323Y-106460550D02*
X134529561Y-106412931D01*
X134529561Y-106412931D02*
X134624800Y-106317693D01*
X134624800Y-106317693D02*
X134672419Y-106174836D01*
X134672419Y-106174836D02*
X134672419Y-105936741D01*
X131841466Y-102033884D02*
X131841466Y-102795789D01*
X132222419Y-102414836D02*
X131460514Y-102414836D01*
X131222419Y-103176741D02*
X131222419Y-103795788D01*
X131222419Y-103795788D02*
X131603371Y-103462455D01*
X131603371Y-103462455D02*
X131603371Y-103605312D01*
X131603371Y-103605312D02*
X131650990Y-103700550D01*
X131650990Y-103700550D02*
X131698609Y-103748169D01*
X131698609Y-103748169D02*
X131793847Y-103795788D01*
X131793847Y-103795788D02*
X132031942Y-103795788D01*
X132031942Y-103795788D02*
X132127180Y-103748169D01*
X132127180Y-103748169D02*
X132174800Y-103700550D01*
X132174800Y-103700550D02*
X132222419Y-103605312D01*
X132222419Y-103605312D02*
X132222419Y-103319598D01*
X132222419Y-103319598D02*
X132174800Y-103224360D01*
X132174800Y-103224360D02*
X132127180Y-103176741D01*
X132127180Y-104224360D02*
X132174800Y-104271979D01*
X132174800Y-104271979D02*
X132222419Y-104224360D01*
X132222419Y-104224360D02*
X132174800Y-104176741D01*
X132174800Y-104176741D02*
X132127180Y-104224360D01*
X132127180Y-104224360D02*
X132222419Y-104224360D01*
X131222419Y-104605312D02*
X131222419Y-105224359D01*
X131222419Y-105224359D02*
X131603371Y-104891026D01*
X131603371Y-104891026D02*
X131603371Y-105033883D01*
X131603371Y-105033883D02*
X131650990Y-105129121D01*
X131650990Y-105129121D02*
X131698609Y-105176740D01*
X131698609Y-105176740D02*
X131793847Y-105224359D01*
X131793847Y-105224359D02*
X132031942Y-105224359D01*
X132031942Y-105224359D02*
X132127180Y-105176740D01*
X132127180Y-105176740D02*
X132174800Y-105129121D01*
X132174800Y-105129121D02*
X132222419Y-105033883D01*
X132222419Y-105033883D02*
X132222419Y-104748169D01*
X132222419Y-104748169D02*
X132174800Y-104652931D01*
X132174800Y-104652931D02*
X132127180Y-104605312D01*
X131222419Y-105510074D02*
X132222419Y-105843407D01*
X132222419Y-105843407D02*
X131222419Y-106176740D01*
D12*
G36*
X159917573Y-101927676D02*
G01*
X160164322Y-102028497D01*
X160387529Y-102199228D01*
X160560929Y-102418833D01*
X160663716Y-102665532D01*
X160698939Y-102948443D01*
X160698939Y-109787243D01*
X160663975Y-110065832D01*
X160561417Y-110311682D01*
X160387529Y-110533405D01*
X160164106Y-110705966D01*
X159917372Y-110807720D01*
X159638925Y-110842372D01*
X159356678Y-110807402D01*
X159110570Y-110705386D01*
X158891542Y-110533405D01*
X158721314Y-110312115D01*
X158620621Y-110066237D01*
X158586238Y-109787243D01*
X158586238Y-102948443D01*
X158620877Y-102665120D01*
X158721795Y-102418396D01*
X158891542Y-102199228D01*
X159110351Y-102029074D01*
X159356472Y-101927992D01*
X159638925Y-101893314D01*
X159917573Y-101927676D01*
G37*
G36*
X167489101Y-101927676D02*
G01*
X167735850Y-102028497D01*
X167959057Y-102199228D01*
X168132457Y-102418833D01*
X168235244Y-102665532D01*
X168270467Y-102948443D01*
X168270467Y-109787243D01*
X168235504Y-110065832D01*
X168132945Y-110311682D01*
X167959057Y-110533405D01*
X167735634Y-110705966D01*
X167488901Y-110807720D01*
X167210453Y-110842372D01*
X166928206Y-110807402D01*
X166682098Y-110705386D01*
X166463070Y-110533405D01*
X166292842Y-110312115D01*
X166192149Y-110066237D01*
X166157766Y-109787243D01*
X166157766Y-102948443D01*
X166192405Y-102665120D01*
X166293323Y-102418396D01*
X166463070Y-102199228D01*
X166681880Y-102029074D01*
X166928000Y-101927992D01*
X167210453Y-101893314D01*
X167489101Y-101927676D01*
G37*
G36*
X178722035Y-113907426D02*
G01*
X141839311Y-113907426D01*
X141839311Y-102049630D01*
X142950422Y-102049630D01*
X146420502Y-102049630D01*
X146420502Y-105449490D01*
X143885872Y-105449490D01*
X143885872Y-107364354D01*
X146420502Y-107364354D01*
X146420502Y-110725136D01*
X142950422Y-110725136D01*
X142950422Y-112640000D01*
X148331092Y-112640000D01*
X148331092Y-102049630D01*
X149593827Y-102049630D01*
X153063907Y-102049630D01*
X153063907Y-105449490D01*
X150529277Y-105449490D01*
X150529277Y-107364354D01*
X153063907Y-107364354D01*
X153063907Y-110725136D01*
X149593827Y-110725136D01*
X149593827Y-112640000D01*
X154974497Y-112640000D01*
X154974497Y-102985690D01*
X156586500Y-102985690D01*
X156586500Y-109789075D01*
X156642764Y-110398275D01*
X156807047Y-110948726D01*
X157079048Y-111452697D01*
X157466995Y-111918872D01*
X157934264Y-112305827D01*
X158437815Y-112576873D01*
X158986160Y-112740383D01*
X159591297Y-112796315D01*
X160196310Y-112740053D01*
X160742809Y-112575759D01*
X161243094Y-112303625D01*
X161705830Y-111915209D01*
X162088971Y-111447829D01*
X162357637Y-110943909D01*
X162519832Y-110394957D01*
X162575334Y-109789075D01*
X162575334Y-102985690D01*
X164158028Y-102985690D01*
X164158028Y-109789075D01*
X164214293Y-110398275D01*
X164378576Y-110948726D01*
X164650577Y-111452697D01*
X165038524Y-111918872D01*
X165505793Y-112305827D01*
X166009344Y-112576873D01*
X166557688Y-112740383D01*
X167162826Y-112796315D01*
X167767839Y-112740053D01*
X168314338Y-112575759D01*
X168814622Y-112303625D01*
X169277358Y-111915209D01*
X169660500Y-111447829D01*
X169929165Y-110943909D01*
X170091361Y-110394957D01*
X170146863Y-109789075D01*
X170146863Y-102993628D01*
X171622090Y-102993628D01*
X171622090Y-104434050D01*
X173607784Y-104434050D01*
X173607784Y-102959434D01*
X173642903Y-102677172D01*
X173745762Y-102428720D01*
X173919804Y-102205334D01*
X174143567Y-102031271D01*
X174392232Y-101928421D01*
X174674515Y-101893314D01*
X174952598Y-101928389D01*
X175198035Y-102031312D01*
X175419455Y-102205945D01*
X175591249Y-102429862D01*
X175693018Y-102679341D01*
X175727812Y-102963098D01*
X175727812Y-109818995D01*
X175692970Y-110102250D01*
X175591176Y-110350463D01*
X175419455Y-110572484D01*
X175198295Y-110744918D01*
X174952842Y-110846723D01*
X174674515Y-110881451D01*
X174391989Y-110846693D01*
X174143307Y-110744964D01*
X173919804Y-110573094D01*
X173745900Y-110351579D01*
X173642984Y-110104003D01*
X173607784Y-109821437D01*
X173607784Y-108087313D01*
X171622090Y-108087313D01*
X171622090Y-109842198D01*
X171678621Y-110449322D01*
X171843235Y-110993947D01*
X172115180Y-111488937D01*
X172502585Y-111943297D01*
X172968551Y-112319210D01*
X173469553Y-112582842D01*
X174013833Y-112741926D01*
X174612843Y-112796315D01*
X175221793Y-112740379D01*
X175771338Y-112577171D01*
X176273754Y-112307199D01*
X176737756Y-111922536D01*
X177122462Y-111458497D01*
X177392217Y-110957104D01*
X177555136Y-110409759D01*
X177610924Y-109804340D01*
X177610924Y-102977142D01*
X177554820Y-102372114D01*
X177390851Y-101824376D01*
X177119075Y-101321823D01*
X176731039Y-100855893D01*
X176263396Y-100468579D01*
X175760653Y-100197567D01*
X175214416Y-100034259D01*
X174612843Y-99978450D01*
X174004666Y-100035227D01*
X173456236Y-100200928D01*
X172955014Y-100475295D01*
X172492205Y-100866884D01*
X172108204Y-101337951D01*
X171839382Y-101843364D01*
X171677410Y-102391399D01*
X171622090Y-102993628D01*
X170146863Y-102993628D01*
X170146863Y-102985690D01*
X170090631Y-102376457D01*
X169926448Y-101825991D01*
X169654631Y-101322032D01*
X169266978Y-100855893D01*
X168799170Y-100467860D01*
X168298559Y-100196922D01*
X167756962Y-100034017D01*
X167162826Y-99978450D01*
X166554302Y-100034735D01*
X166004378Y-100199095D01*
X165500789Y-100471273D01*
X165034860Y-100859556D01*
X164648193Y-101327377D01*
X164377326Y-101831425D01*
X164213922Y-102380206D01*
X164161466Y-102948443D01*
X164158028Y-102985690D01*
X162575334Y-102985690D01*
X162519102Y-102376457D01*
X162354920Y-101825991D01*
X162083103Y-101322032D01*
X161695450Y-100855893D01*
X161227642Y-100467860D01*
X160727030Y-100196922D01*
X160185434Y-100034017D01*
X159591297Y-99978450D01*
X158982774Y-100034735D01*
X158432849Y-100199095D01*
X157929261Y-100471273D01*
X157463332Y-100859556D01*
X157076665Y-101327377D01*
X156805798Y-101831425D01*
X156642393Y-102380206D01*
X156589938Y-102948443D01*
X156586500Y-102985690D01*
X154974497Y-102985690D01*
X154974497Y-100134766D01*
X149593827Y-100134766D01*
X149593827Y-102049630D01*
X148331092Y-102049630D01*
X148331092Y-100134766D01*
X142950422Y-100134766D01*
X142950422Y-102049630D01*
X141839311Y-102049630D01*
X141839311Y-98867339D01*
X178722035Y-98867339D01*
X178722035Y-113907426D01*
G37*
G36*
X132290768Y-115783875D02*
G01*
X131110483Y-115783875D01*
X131110483Y-115174224D01*
X131221594Y-115174224D01*
X131221594Y-115213242D01*
X131236526Y-115249290D01*
X131264116Y-115276880D01*
X131300164Y-115291812D01*
X131319673Y-115293733D01*
X131600625Y-115293733D01*
X131600625Y-115574685D01*
X131602546Y-115594194D01*
X131617478Y-115630242D01*
X131645068Y-115657832D01*
X131681116Y-115672764D01*
X131720134Y-115672764D01*
X131756182Y-115657832D01*
X131783772Y-115630242D01*
X131798704Y-115594194D01*
X131800625Y-115574685D01*
X131800625Y-115293733D01*
X132081578Y-115293733D01*
X132101087Y-115291812D01*
X132137135Y-115276880D01*
X132164725Y-115249290D01*
X132179657Y-115213242D01*
X132179657Y-115174224D01*
X132164725Y-115138176D01*
X132137135Y-115110586D01*
X132101087Y-115095654D01*
X132081578Y-115093733D01*
X131800625Y-115093733D01*
X131800625Y-114812780D01*
X131798704Y-114793271D01*
X131783772Y-114757223D01*
X131756182Y-114729633D01*
X131720134Y-114714701D01*
X131681116Y-114714701D01*
X131645068Y-114729633D01*
X131617478Y-114757223D01*
X131602546Y-114793271D01*
X131600625Y-114812780D01*
X131600625Y-115093733D01*
X131319673Y-115093733D01*
X131300164Y-115095654D01*
X131264116Y-115110586D01*
X131236526Y-115138176D01*
X131221594Y-115174224D01*
X131110483Y-115174224D01*
X131110483Y-114603590D01*
X132290768Y-114603590D01*
X132290768Y-115783875D01*
G37*
G36*
X126813236Y-104489493D02*
G01*
X126877414Y-104553670D01*
X126907219Y-104613280D01*
X126907219Y-104756542D01*
X126877414Y-104816151D01*
X126813236Y-104880328D01*
X126661575Y-104918244D01*
X126352861Y-104918244D01*
X126201202Y-104880329D01*
X126137023Y-104816150D01*
X126107219Y-104756541D01*
X126107219Y-104613280D01*
X126137023Y-104553671D01*
X126201202Y-104489492D01*
X126352861Y-104451578D01*
X126661575Y-104451578D01*
X126813236Y-104489493D01*
G37*
G36*
X127218330Y-107229207D02*
G01*
X125796108Y-107229207D01*
X125796108Y-106427307D01*
X125909140Y-106427307D01*
X125909140Y-106466325D01*
X125924072Y-106502373D01*
X125951662Y-106529963D01*
X125987710Y-106544895D01*
X126007219Y-106546816D01*
X126337225Y-106546816D01*
X125936508Y-106947533D01*
X125924072Y-106962687D01*
X125909140Y-106998735D01*
X125909140Y-107037753D01*
X125924072Y-107073801D01*
X125951662Y-107101391D01*
X125987710Y-107116323D01*
X126026728Y-107116323D01*
X126062776Y-107101391D01*
X126077930Y-107088955D01*
X126445174Y-106721710D01*
X126947219Y-107098244D01*
X126963979Y-107108413D01*
X127001777Y-107118096D01*
X127040403Y-107112578D01*
X127073977Y-107092699D01*
X127097388Y-107061484D01*
X127107071Y-107023687D01*
X127101553Y-106985061D01*
X127081674Y-106951486D01*
X127067219Y-106938244D01*
X126588031Y-106578853D01*
X126620069Y-106546816D01*
X127007219Y-106546816D01*
X127026728Y-106544895D01*
X127062776Y-106529963D01*
X127090366Y-106502373D01*
X127105298Y-106466325D01*
X127105298Y-106427307D01*
X127090366Y-106391259D01*
X127062776Y-106363669D01*
X127026728Y-106348737D01*
X127007219Y-106346816D01*
X126007219Y-106346816D01*
X125987710Y-106348737D01*
X125951662Y-106363669D01*
X125924072Y-106391259D01*
X125909140Y-106427307D01*
X125796108Y-106427307D01*
X125796108Y-105732530D01*
X125907219Y-105732530D01*
X125907219Y-105827768D01*
X125908191Y-105837641D01*
X125908004Y-105840275D01*
X125908791Y-105843738D01*
X125909140Y-105847277D01*
X125910151Y-105849719D01*
X125912351Y-105859391D01*
X125959970Y-106002247D01*
X125967961Y-106020148D01*
X125970316Y-106022863D01*
X125971691Y-106026182D01*
X125984127Y-106041336D01*
X126031746Y-106088954D01*
X126046899Y-106101391D01*
X126082948Y-106116322D01*
X126121966Y-106116322D01*
X126158014Y-106101391D01*
X126185604Y-106073801D01*
X126200535Y-106037753D01*
X126200535Y-105998735D01*
X126185604Y-105962686D01*
X126173167Y-105947533D01*
X126142240Y-105916606D01*
X126107219Y-105811541D01*
X126107219Y-105748757D01*
X126142240Y-105643692D01*
X126209313Y-105576620D01*
X126280218Y-105541167D01*
X126448099Y-105499197D01*
X126566337Y-105499197D01*
X126734218Y-105541167D01*
X126805127Y-105576621D01*
X126872197Y-105643691D01*
X126907219Y-105748756D01*
X126907219Y-105811541D01*
X126872197Y-105916606D01*
X126841270Y-105947533D01*
X126828833Y-105962686D01*
X126813902Y-105998734D01*
X126813901Y-106037752D01*
X126828832Y-106073801D01*
X126856422Y-106101391D01*
X126892470Y-106116322D01*
X126931488Y-106116323D01*
X126967537Y-106101392D01*
X126982690Y-106088955D01*
X127030310Y-106041337D01*
X127042747Y-106026183D01*
X127044122Y-106022863D01*
X127046477Y-106020148D01*
X127054468Y-106002248D01*
X127102087Y-105859391D01*
X127104286Y-105849718D01*
X127105298Y-105847277D01*
X127105646Y-105843739D01*
X127106434Y-105840276D01*
X127106246Y-105837641D01*
X127107219Y-105827768D01*
X127107219Y-105732530D01*
X127106246Y-105722656D01*
X127106434Y-105720022D01*
X127105646Y-105716558D01*
X127105298Y-105713021D01*
X127104286Y-105710579D01*
X127102087Y-105700907D01*
X127054468Y-105558050D01*
X127046477Y-105540150D01*
X127044122Y-105537434D01*
X127042747Y-105534115D01*
X127030311Y-105518962D01*
X126935071Y-105423724D01*
X126927401Y-105417429D01*
X126925672Y-105415435D01*
X126922667Y-105413543D01*
X126919918Y-105411287D01*
X126917474Y-105410274D01*
X126909082Y-105404992D01*
X126813844Y-105357373D01*
X126812417Y-105356827D01*
X126811837Y-105356397D01*
X126803660Y-105353475D01*
X126795536Y-105350367D01*
X126794813Y-105350315D01*
X126793376Y-105349802D01*
X126602901Y-105302183D01*
X126599519Y-105301682D01*
X126598156Y-105301118D01*
X126590805Y-105300394D01*
X126583508Y-105299315D01*
X126582049Y-105299532D01*
X126578647Y-105299197D01*
X126435790Y-105299197D01*
X126432387Y-105299532D01*
X126430929Y-105299315D01*
X126423631Y-105300394D01*
X126416281Y-105301118D01*
X126414917Y-105301682D01*
X126411536Y-105302183D01*
X126221060Y-105349802D01*
X126219621Y-105350315D01*
X126218901Y-105350367D01*
X126210776Y-105353475D01*
X126202600Y-105356397D01*
X126202020Y-105356826D01*
X126200592Y-105357373D01*
X126105355Y-105404992D01*
X126096956Y-105410278D01*
X126094519Y-105411288D01*
X126091775Y-105413539D01*
X126088764Y-105415435D01*
X126087031Y-105417432D01*
X126079365Y-105423724D01*
X125984127Y-105518962D01*
X125971691Y-105534116D01*
X125970316Y-105537434D01*
X125967961Y-105540150D01*
X125959970Y-105558051D01*
X125912351Y-105700907D01*
X125910151Y-105710578D01*
X125909140Y-105713021D01*
X125908791Y-105716559D01*
X125908004Y-105720023D01*
X125908191Y-105722656D01*
X125907219Y-105732530D01*
X125796108Y-105732530D01*
X125796108Y-104589673D01*
X125907219Y-104589673D01*
X125907219Y-104780149D01*
X125909140Y-104799658D01*
X125910515Y-104802978D01*
X125910770Y-104806562D01*
X125917776Y-104824870D01*
X125965395Y-104920108D01*
X125970680Y-104928504D01*
X125971691Y-104930944D01*
X125973944Y-104933690D01*
X125975838Y-104936698D01*
X125977832Y-104938427D01*
X125984127Y-104946098D01*
X126079365Y-105041336D01*
X126094519Y-105053772D01*
X126101387Y-105056617D01*
X126107362Y-105061044D01*
X126125822Y-105067639D01*
X126316298Y-105115258D01*
X126319679Y-105115758D01*
X126321043Y-105116323D01*
X126328393Y-105117046D01*
X126335691Y-105118126D01*
X126337149Y-105117908D01*
X126340552Y-105118244D01*
X126673885Y-105118244D01*
X126677287Y-105117908D01*
X126678746Y-105118126D01*
X126686043Y-105117046D01*
X126693394Y-105116323D01*
X126694757Y-105115758D01*
X126698139Y-105115258D01*
X126888614Y-105067639D01*
X126907075Y-105061044D01*
X126913047Y-105056618D01*
X126919918Y-105053773D01*
X126935071Y-105041336D01*
X127030311Y-104946098D01*
X127036604Y-104938429D01*
X127038600Y-104936699D01*
X127040493Y-104933691D01*
X127042747Y-104930945D01*
X127043757Y-104928504D01*
X127049043Y-104920108D01*
X127096662Y-104824871D01*
X127103668Y-104806562D01*
X127103922Y-104802978D01*
X127105298Y-104799658D01*
X127107219Y-104780149D01*
X127107219Y-104589673D01*
X127105298Y-104570164D01*
X127103922Y-104566843D01*
X127103668Y-104563260D01*
X127096662Y-104544951D01*
X127049043Y-104449714D01*
X127043757Y-104441317D01*
X127042747Y-104438877D01*
X127040493Y-104436130D01*
X127038600Y-104433123D01*
X127036604Y-104431392D01*
X127030311Y-104423724D01*
X126935071Y-104328486D01*
X126919918Y-104316049D01*
X126913047Y-104313203D01*
X126907075Y-104308778D01*
X126888614Y-104302183D01*
X126698139Y-104254564D01*
X126694757Y-104254063D01*
X126693394Y-104253499D01*
X126686043Y-104252775D01*
X126678746Y-104251696D01*
X126677287Y-104251913D01*
X126673885Y-104251578D01*
X126340552Y-104251578D01*
X126337149Y-104251913D01*
X126335691Y-104251696D01*
X126328393Y-104252775D01*
X126321043Y-104253499D01*
X126319679Y-104254063D01*
X126316298Y-104254564D01*
X126125822Y-104302183D01*
X126107362Y-104308778D01*
X126101387Y-104313204D01*
X126094519Y-104316050D01*
X126079365Y-104328486D01*
X125984127Y-104423724D01*
X125977832Y-104431394D01*
X125975838Y-104433124D01*
X125973944Y-104436131D01*
X125971691Y-104438878D01*
X125970680Y-104441317D01*
X125965395Y-104449714D01*
X125917776Y-104544952D01*
X125910770Y-104563260D01*
X125910515Y-104566843D01*
X125909140Y-104570164D01*
X125907219Y-104589673D01*
X125796108Y-104589673D01*
X125796108Y-103570164D01*
X125909140Y-103570164D01*
X125909140Y-103609182D01*
X125924072Y-103645230D01*
X125951662Y-103672820D01*
X125987710Y-103687752D01*
X126007219Y-103689673D01*
X126907219Y-103689673D01*
X126907219Y-104065863D01*
X126909140Y-104085372D01*
X126924072Y-104121420D01*
X126951662Y-104149010D01*
X126987710Y-104163942D01*
X127026728Y-104163942D01*
X127062776Y-104149010D01*
X127090366Y-104121420D01*
X127105298Y-104085372D01*
X127107219Y-104065863D01*
X127107219Y-103589673D01*
X127105298Y-103570164D01*
X127090366Y-103534116D01*
X127062776Y-103506526D01*
X127026728Y-103491594D01*
X127007219Y-103489673D01*
X126007219Y-103489673D01*
X125987710Y-103491594D01*
X125951662Y-103506526D01*
X125924072Y-103534116D01*
X125909140Y-103570164D01*
X125796108Y-103570164D01*
X125796108Y-102875387D01*
X125907219Y-102875387D01*
X125907219Y-102970625D01*
X125908191Y-102980498D01*
X125908004Y-102983132D01*
X125908791Y-102986595D01*
X125909140Y-102990134D01*
X125910151Y-102992576D01*
X125912351Y-103002248D01*
X125959970Y-103145104D01*
X125967961Y-103163005D01*
X125970316Y-103165720D01*
X125971691Y-103169039D01*
X125984127Y-103184193D01*
X126031746Y-103231811D01*
X126046899Y-103244248D01*
X126082948Y-103259179D01*
X126121966Y-103259179D01*
X126158014Y-103244248D01*
X126185604Y-103216658D01*
X126200535Y-103180610D01*
X126200535Y-103141592D01*
X126185604Y-103105543D01*
X126173167Y-103090390D01*
X126142240Y-103059463D01*
X126107219Y-102954398D01*
X126107219Y-102891614D01*
X126142240Y-102786549D01*
X126209313Y-102719477D01*
X126280218Y-102684024D01*
X126448099Y-102642054D01*
X126566337Y-102642054D01*
X126734218Y-102684024D01*
X126805127Y-102719478D01*
X126872197Y-102786548D01*
X126907219Y-102891613D01*
X126907219Y-102954398D01*
X126872197Y-103059463D01*
X126841270Y-103090390D01*
X126828833Y-103105543D01*
X126813902Y-103141591D01*
X126813901Y-103180609D01*
X126828832Y-103216658D01*
X126856422Y-103244248D01*
X126892470Y-103259179D01*
X126931488Y-103259180D01*
X126967537Y-103244249D01*
X126982690Y-103231812D01*
X127030310Y-103184194D01*
X127042747Y-103169040D01*
X127044122Y-103165720D01*
X127046477Y-103163005D01*
X127054468Y-103145105D01*
X127102087Y-103002248D01*
X127104286Y-102992575D01*
X127105298Y-102990134D01*
X127105646Y-102986596D01*
X127106434Y-102983133D01*
X127106246Y-102980498D01*
X127107219Y-102970625D01*
X127107219Y-102875387D01*
X127106246Y-102865513D01*
X127106434Y-102862879D01*
X127105646Y-102859415D01*
X127105298Y-102855878D01*
X127104286Y-102853436D01*
X127102087Y-102843764D01*
X127054468Y-102700907D01*
X127046477Y-102683007D01*
X127044122Y-102680291D01*
X127042747Y-102676972D01*
X127030311Y-102661819D01*
X126935071Y-102566581D01*
X126927401Y-102560286D01*
X126925672Y-102558292D01*
X126922667Y-102556400D01*
X126919918Y-102554144D01*
X126917474Y-102553131D01*
X126909082Y-102547849D01*
X126813844Y-102500230D01*
X126812417Y-102499684D01*
X126811837Y-102499254D01*
X126803660Y-102496332D01*
X126795536Y-102493224D01*
X126794813Y-102493172D01*
X126793376Y-102492659D01*
X126602901Y-102445040D01*
X126599519Y-102444539D01*
X126598156Y-102443975D01*
X126590805Y-102443251D01*
X126583508Y-102442172D01*
X126582049Y-102442389D01*
X126578647Y-102442054D01*
X126435790Y-102442054D01*
X126432387Y-102442389D01*
X126430929Y-102442172D01*
X126423631Y-102443251D01*
X126416281Y-102443975D01*
X126414917Y-102444539D01*
X126411536Y-102445040D01*
X126221060Y-102492659D01*
X126219621Y-102493172D01*
X126218901Y-102493224D01*
X126210776Y-102496332D01*
X126202600Y-102499254D01*
X126202020Y-102499683D01*
X126200592Y-102500230D01*
X126105355Y-102547849D01*
X126096956Y-102553135D01*
X126094519Y-102554145D01*
X126091775Y-102556396D01*
X126088764Y-102558292D01*
X126087031Y-102560289D01*
X126079365Y-102566581D01*
X125984127Y-102661819D01*
X125971691Y-102676973D01*
X125970316Y-102680291D01*
X125967961Y-102683007D01*
X125959970Y-102700908D01*
X125912351Y-102843764D01*
X125910151Y-102853435D01*
X125909140Y-102855878D01*
X125908791Y-102859416D01*
X125908004Y-102862880D01*
X125908191Y-102865513D01*
X125907219Y-102875387D01*
X125796108Y-102875387D01*
X125796108Y-102330943D01*
X127218330Y-102330943D01*
X127218330Y-107229207D01*
G37*
G36*
X129301504Y-105458549D02*
G01*
X129003446Y-105359197D01*
X129301504Y-105259844D01*
X129301504Y-105458549D01*
G37*
G36*
X129301504Y-103839501D02*
G01*
X129003446Y-103740149D01*
X129301504Y-103640796D01*
X129301504Y-103839501D01*
G37*
G36*
X129587219Y-102771541D02*
G01*
X129552197Y-102876606D01*
X129485127Y-102943676D01*
X129414218Y-102979130D01*
X129246337Y-103021101D01*
X129128099Y-103021101D01*
X128960218Y-102979130D01*
X128889313Y-102943678D01*
X128822240Y-102876605D01*
X128787219Y-102771541D01*
X128787219Y-102649673D01*
X129587219Y-102649673D01*
X129587219Y-102771541D01*
G37*
G36*
X129898330Y-105902856D02*
G01*
X128476108Y-105902856D01*
X128476108Y-105346690D01*
X128588004Y-105346690D01*
X128588892Y-105359197D01*
X128588004Y-105371704D01*
X128590263Y-105378482D01*
X128590770Y-105385610D01*
X128596376Y-105396822D01*
X128600342Y-105408720D01*
X128605025Y-105414119D01*
X128608220Y-105420509D01*
X128617691Y-105428724D01*
X128625907Y-105438196D01*
X128632296Y-105441390D01*
X128637696Y-105446074D01*
X128655596Y-105454065D01*
X129655596Y-105787398D01*
X129674711Y-105791745D01*
X129713631Y-105788979D01*
X129748530Y-105771529D01*
X129774095Y-105742053D01*
X129786434Y-105705037D01*
X129783667Y-105666117D01*
X129766218Y-105631218D01*
X129736742Y-105605653D01*
X129718841Y-105597662D01*
X129501504Y-105525216D01*
X129501504Y-105193177D01*
X129718841Y-105120732D01*
X129736742Y-105112741D01*
X129766218Y-105087176D01*
X129783667Y-105052277D01*
X129786434Y-105013357D01*
X129774095Y-104976341D01*
X129748530Y-104946865D01*
X129713631Y-104929415D01*
X129674711Y-104926649D01*
X129655596Y-104930996D01*
X128655596Y-105264329D01*
X128637696Y-105272320D01*
X128632296Y-105277003D01*
X128625907Y-105280198D01*
X128617691Y-105289669D01*
X128608220Y-105297885D01*
X128605025Y-105304274D01*
X128600342Y-105309674D01*
X128596376Y-105321571D01*
X128590770Y-105332784D01*
X128590263Y-105339911D01*
X128588004Y-105346690D01*
X128476108Y-105346690D01*
X128476108Y-104263959D01*
X128587219Y-104263959D01*
X128587219Y-104835387D01*
X128589140Y-104854896D01*
X128604072Y-104890944D01*
X128631662Y-104918534D01*
X128667710Y-104933466D01*
X128706728Y-104933466D01*
X128742776Y-104918534D01*
X128770366Y-104890944D01*
X128785298Y-104854896D01*
X128787219Y-104835387D01*
X128787219Y-104649673D01*
X129687219Y-104649673D01*
X129706728Y-104647752D01*
X129742776Y-104632820D01*
X129770366Y-104605230D01*
X129785298Y-104569182D01*
X129785298Y-104530164D01*
X129770366Y-104494116D01*
X129742776Y-104466526D01*
X129706728Y-104451594D01*
X129687219Y-104449673D01*
X128787219Y-104449673D01*
X128787219Y-104263959D01*
X128785298Y-104244450D01*
X128770366Y-104208402D01*
X128742776Y-104180812D01*
X128706728Y-104165880D01*
X128667710Y-104165880D01*
X128631662Y-104180812D01*
X128604072Y-104208402D01*
X128589140Y-104244450D01*
X128587219Y-104263959D01*
X128476108Y-104263959D01*
X128476108Y-103727642D01*
X128588004Y-103727642D01*
X128588892Y-103740149D01*
X128588004Y-103752656D01*
X128590263Y-103759434D01*
X128590770Y-103766562D01*
X128596376Y-103777774D01*
X128600342Y-103789672D01*
X128605025Y-103795071D01*
X128608220Y-103801461D01*
X128617691Y-103809676D01*
X128625907Y-103819148D01*
X128632296Y-103822342D01*
X128637696Y-103827026D01*
X128655596Y-103835017D01*
X129655596Y-104168350D01*
X129674711Y-104172697D01*
X129713631Y-104169931D01*
X129748530Y-104152481D01*
X129774095Y-104123005D01*
X129786434Y-104085989D01*
X129783667Y-104047069D01*
X129766218Y-104012170D01*
X129736742Y-103986605D01*
X129718841Y-103978614D01*
X129501504Y-103906168D01*
X129501504Y-103574129D01*
X129718841Y-103501684D01*
X129736742Y-103493693D01*
X129766218Y-103468128D01*
X129783667Y-103433229D01*
X129786434Y-103394309D01*
X129774095Y-103357293D01*
X129748530Y-103327817D01*
X129713631Y-103310367D01*
X129674711Y-103307601D01*
X129655596Y-103311948D01*
X128655596Y-103645281D01*
X128637696Y-103653272D01*
X128632296Y-103657955D01*
X128625907Y-103661150D01*
X128617691Y-103670621D01*
X128608220Y-103678837D01*
X128605025Y-103685226D01*
X128600342Y-103690626D01*
X128596376Y-103702523D01*
X128590770Y-103713736D01*
X128590263Y-103720863D01*
X128588004Y-103727642D01*
X128476108Y-103727642D01*
X128476108Y-102549673D01*
X128587219Y-102549673D01*
X128587219Y-102787768D01*
X128588191Y-102797641D01*
X128588004Y-102800275D01*
X128588791Y-102803738D01*
X128589140Y-102807277D01*
X128590151Y-102809719D01*
X128592351Y-102819391D01*
X128639970Y-102962247D01*
X128647961Y-102980148D01*
X128650316Y-102982863D01*
X128651691Y-102986182D01*
X128664127Y-103001336D01*
X128759365Y-103096574D01*
X128767031Y-103102865D01*
X128768764Y-103104863D01*
X128771775Y-103106758D01*
X128774519Y-103109010D01*
X128776956Y-103110019D01*
X128785355Y-103115306D01*
X128880592Y-103162925D01*
X128882020Y-103163471D01*
X128882600Y-103163901D01*
X128890776Y-103166822D01*
X128898901Y-103169931D01*
X128899621Y-103169982D01*
X128901060Y-103170496D01*
X129091536Y-103218115D01*
X129094917Y-103218615D01*
X129096281Y-103219180D01*
X129103631Y-103219903D01*
X129110929Y-103220983D01*
X129112387Y-103220765D01*
X129115790Y-103221101D01*
X129258647Y-103221101D01*
X129262049Y-103220765D01*
X129263508Y-103220983D01*
X129270805Y-103219903D01*
X129278156Y-103219180D01*
X129279519Y-103218615D01*
X129282901Y-103218115D01*
X129473376Y-103170496D01*
X129474813Y-103169982D01*
X129475536Y-103169931D01*
X129483660Y-103166822D01*
X129491837Y-103163901D01*
X129492417Y-103163470D01*
X129493844Y-103162925D01*
X129589082Y-103115306D01*
X129597474Y-103110023D01*
X129599918Y-103109011D01*
X129602667Y-103106754D01*
X129605672Y-103104863D01*
X129607401Y-103102868D01*
X129615071Y-103096574D01*
X129710311Y-103001336D01*
X129722747Y-102986183D01*
X129724122Y-102982863D01*
X129726477Y-102980148D01*
X129734468Y-102962248D01*
X129782087Y-102819391D01*
X129784286Y-102809718D01*
X129785298Y-102807277D01*
X129785646Y-102803739D01*
X129786434Y-102800276D01*
X129786246Y-102797641D01*
X129787219Y-102787768D01*
X129787219Y-102549673D01*
X129785298Y-102530164D01*
X129770366Y-102494116D01*
X129742776Y-102466526D01*
X129706728Y-102451594D01*
X129687219Y-102449673D01*
X128687219Y-102449673D01*
X128667710Y-102451594D01*
X128631662Y-102466526D01*
X128604072Y-102494116D01*
X128589140Y-102530164D01*
X128587219Y-102549673D01*
X128476108Y-102549673D01*
X128476108Y-102338562D01*
X129898330Y-102338562D01*
X129898330Y-105902856D01*
G37*
D15*
X176084668Y-85271119D02*
X176084668Y-84271119D01*
X175513240Y-85271119D02*
X175941811Y-84699690D01*
X175513240Y-84271119D02*
X176084668Y-84842547D01*
X174703716Y-85223500D02*
X174798954Y-85271119D01*
X174798954Y-85271119D02*
X174989430Y-85271119D01*
X174989430Y-85271119D02*
X175084668Y-85223500D01*
X175084668Y-85223500D02*
X175132287Y-85128261D01*
X175132287Y-85128261D02*
X175132287Y-84747309D01*
X175132287Y-84747309D02*
X175084668Y-84652071D01*
X175084668Y-84652071D02*
X174989430Y-84604452D01*
X174989430Y-84604452D02*
X174798954Y-84604452D01*
X174798954Y-84604452D02*
X174703716Y-84652071D01*
X174703716Y-84652071D02*
X174656097Y-84747309D01*
X174656097Y-84747309D02*
X174656097Y-84842547D01*
X174656097Y-84842547D02*
X175132287Y-84937785D01*
X174322763Y-84604452D02*
X174084668Y-85271119D01*
X173846573Y-84604452D02*
X174084668Y-85271119D01*
X174084668Y-85271119D02*
X174179906Y-85509214D01*
X174179906Y-85509214D02*
X174227525Y-85556833D01*
X174227525Y-85556833D02*
X174322763Y-85604452D01*
X173465620Y-85271119D02*
X173465620Y-84271119D01*
X173465620Y-84652071D02*
X173370382Y-84604452D01*
X173370382Y-84604452D02*
X173179906Y-84604452D01*
X173179906Y-84604452D02*
X173084668Y-84652071D01*
X173084668Y-84652071D02*
X173037049Y-84699690D01*
X173037049Y-84699690D02*
X172989430Y-84794928D01*
X172989430Y-84794928D02*
X172989430Y-85080642D01*
X172989430Y-85080642D02*
X173037049Y-85175880D01*
X173037049Y-85175880D02*
X173084668Y-85223500D01*
X173084668Y-85223500D02*
X173179906Y-85271119D01*
X173179906Y-85271119D02*
X173370382Y-85271119D01*
X173370382Y-85271119D02*
X173465620Y-85223500D01*
X172418001Y-85271119D02*
X172513239Y-85223500D01*
X172513239Y-85223500D02*
X172560858Y-85175880D01*
X172560858Y-85175880D02*
X172608477Y-85080642D01*
X172608477Y-85080642D02*
X172608477Y-84794928D01*
X172608477Y-84794928D02*
X172560858Y-84699690D01*
X172560858Y-84699690D02*
X172513239Y-84652071D01*
X172513239Y-84652071D02*
X172418001Y-84604452D01*
X172418001Y-84604452D02*
X172275144Y-84604452D01*
X172275144Y-84604452D02*
X172179906Y-84652071D01*
X172179906Y-84652071D02*
X172132287Y-84699690D01*
X172132287Y-84699690D02*
X172084668Y-84794928D01*
X172084668Y-84794928D02*
X172084668Y-85080642D01*
X172084668Y-85080642D02*
X172132287Y-85175880D01*
X172132287Y-85175880D02*
X172179906Y-85223500D01*
X172179906Y-85223500D02*
X172275144Y-85271119D01*
X172275144Y-85271119D02*
X172418001Y-85271119D01*
X171227525Y-85271119D02*
X171227525Y-84747309D01*
X171227525Y-84747309D02*
X171275144Y-84652071D01*
X171275144Y-84652071D02*
X171370382Y-84604452D01*
X171370382Y-84604452D02*
X171560858Y-84604452D01*
X171560858Y-84604452D02*
X171656096Y-84652071D01*
X171227525Y-85223500D02*
X171322763Y-85271119D01*
X171322763Y-85271119D02*
X171560858Y-85271119D01*
X171560858Y-85271119D02*
X171656096Y-85223500D01*
X171656096Y-85223500D02*
X171703715Y-85128261D01*
X171703715Y-85128261D02*
X171703715Y-85033023D01*
X171703715Y-85033023D02*
X171656096Y-84937785D01*
X171656096Y-84937785D02*
X171560858Y-84890166D01*
X171560858Y-84890166D02*
X171322763Y-84890166D01*
X171322763Y-84890166D02*
X171227525Y-84842547D01*
X170751334Y-85271119D02*
X170751334Y-84604452D01*
X170751334Y-84794928D02*
X170703715Y-84699690D01*
X170703715Y-84699690D02*
X170656096Y-84652071D01*
X170656096Y-84652071D02*
X170560858Y-84604452D01*
X170560858Y-84604452D02*
X170465620Y-84604452D01*
X169703715Y-85271119D02*
X169703715Y-84271119D01*
X169703715Y-85223500D02*
X169798953Y-85271119D01*
X169798953Y-85271119D02*
X169989429Y-85271119D01*
X169989429Y-85271119D02*
X170084667Y-85223500D01*
X170084667Y-85223500D02*
X170132286Y-85175880D01*
X170132286Y-85175880D02*
X170179905Y-85080642D01*
X170179905Y-85080642D02*
X170179905Y-84794928D01*
X170179905Y-84794928D02*
X170132286Y-84699690D01*
X170132286Y-84699690D02*
X170084667Y-84652071D01*
X170084667Y-84652071D02*
X169989429Y-84604452D01*
X169989429Y-84604452D02*
X169798953Y-84604452D01*
X169798953Y-84604452D02*
X169703715Y-84652071D01*
X168037048Y-85271119D02*
X168037048Y-84271119D01*
X168037048Y-85223500D02*
X168132286Y-85271119D01*
X168132286Y-85271119D02*
X168322762Y-85271119D01*
X168322762Y-85271119D02*
X168418000Y-85223500D01*
X168418000Y-85223500D02*
X168465619Y-85175880D01*
X168465619Y-85175880D02*
X168513238Y-85080642D01*
X168513238Y-85080642D02*
X168513238Y-84794928D01*
X168513238Y-84794928D02*
X168465619Y-84699690D01*
X168465619Y-84699690D02*
X168418000Y-84652071D01*
X168418000Y-84652071D02*
X168322762Y-84604452D01*
X168322762Y-84604452D02*
X168132286Y-84604452D01*
X168132286Y-84604452D02*
X168037048Y-84652071D01*
X167179905Y-85223500D02*
X167275143Y-85271119D01*
X167275143Y-85271119D02*
X167465619Y-85271119D01*
X167465619Y-85271119D02*
X167560857Y-85223500D01*
X167560857Y-85223500D02*
X167608476Y-85128261D01*
X167608476Y-85128261D02*
X167608476Y-84747309D01*
X167608476Y-84747309D02*
X167560857Y-84652071D01*
X167560857Y-84652071D02*
X167465619Y-84604452D01*
X167465619Y-84604452D02*
X167275143Y-84604452D01*
X167275143Y-84604452D02*
X167179905Y-84652071D01*
X167179905Y-84652071D02*
X167132286Y-84747309D01*
X167132286Y-84747309D02*
X167132286Y-84842547D01*
X167132286Y-84842547D02*
X167608476Y-84937785D01*
X166751333Y-85223500D02*
X166656095Y-85271119D01*
X166656095Y-85271119D02*
X166465619Y-85271119D01*
X166465619Y-85271119D02*
X166370381Y-85223500D01*
X166370381Y-85223500D02*
X166322762Y-85128261D01*
X166322762Y-85128261D02*
X166322762Y-85080642D01*
X166322762Y-85080642D02*
X166370381Y-84985404D01*
X166370381Y-84985404D02*
X166465619Y-84937785D01*
X166465619Y-84937785D02*
X166608476Y-84937785D01*
X166608476Y-84937785D02*
X166703714Y-84890166D01*
X166703714Y-84890166D02*
X166751333Y-84794928D01*
X166751333Y-84794928D02*
X166751333Y-84747309D01*
X166751333Y-84747309D02*
X166703714Y-84652071D01*
X166703714Y-84652071D02*
X166608476Y-84604452D01*
X166608476Y-84604452D02*
X166465619Y-84604452D01*
X166465619Y-84604452D02*
X166370381Y-84652071D01*
X165894190Y-85271119D02*
X165894190Y-84604452D01*
X165894190Y-84271119D02*
X165941809Y-84318738D01*
X165941809Y-84318738D02*
X165894190Y-84366357D01*
X165894190Y-84366357D02*
X165846571Y-84318738D01*
X165846571Y-84318738D02*
X165894190Y-84271119D01*
X165894190Y-84271119D02*
X165894190Y-84366357D01*
X164989429Y-84604452D02*
X164989429Y-85413976D01*
X164989429Y-85413976D02*
X165037048Y-85509214D01*
X165037048Y-85509214D02*
X165084667Y-85556833D01*
X165084667Y-85556833D02*
X165179905Y-85604452D01*
X165179905Y-85604452D02*
X165322762Y-85604452D01*
X165322762Y-85604452D02*
X165418000Y-85556833D01*
X164989429Y-85223500D02*
X165084667Y-85271119D01*
X165084667Y-85271119D02*
X165275143Y-85271119D01*
X165275143Y-85271119D02*
X165370381Y-85223500D01*
X165370381Y-85223500D02*
X165418000Y-85175880D01*
X165418000Y-85175880D02*
X165465619Y-85080642D01*
X165465619Y-85080642D02*
X165465619Y-84794928D01*
X165465619Y-84794928D02*
X165418000Y-84699690D01*
X165418000Y-84699690D02*
X165370381Y-84652071D01*
X165370381Y-84652071D02*
X165275143Y-84604452D01*
X165275143Y-84604452D02*
X165084667Y-84604452D01*
X165084667Y-84604452D02*
X164989429Y-84652071D01*
X164513238Y-84604452D02*
X164513238Y-85271119D01*
X164513238Y-84699690D02*
X164465619Y-84652071D01*
X164465619Y-84652071D02*
X164370381Y-84604452D01*
X164370381Y-84604452D02*
X164227524Y-84604452D01*
X164227524Y-84604452D02*
X164132286Y-84652071D01*
X164132286Y-84652071D02*
X164084667Y-84747309D01*
X164084667Y-84747309D02*
X164084667Y-85271119D01*
X163227524Y-85223500D02*
X163322762Y-85271119D01*
X163322762Y-85271119D02*
X163513238Y-85271119D01*
X163513238Y-85271119D02*
X163608476Y-85223500D01*
X163608476Y-85223500D02*
X163656095Y-85128261D01*
X163656095Y-85128261D02*
X163656095Y-84747309D01*
X163656095Y-84747309D02*
X163608476Y-84652071D01*
X163608476Y-84652071D02*
X163513238Y-84604452D01*
X163513238Y-84604452D02*
X163322762Y-84604452D01*
X163322762Y-84604452D02*
X163227524Y-84652071D01*
X163227524Y-84652071D02*
X163179905Y-84747309D01*
X163179905Y-84747309D02*
X163179905Y-84842547D01*
X163179905Y-84842547D02*
X163656095Y-84937785D01*
X162322762Y-85271119D02*
X162322762Y-84271119D01*
X162322762Y-85223500D02*
X162418000Y-85271119D01*
X162418000Y-85271119D02*
X162608476Y-85271119D01*
X162608476Y-85271119D02*
X162703714Y-85223500D01*
X162703714Y-85223500D02*
X162751333Y-85175880D01*
X162751333Y-85175880D02*
X162798952Y-85080642D01*
X162798952Y-85080642D02*
X162798952Y-84794928D01*
X162798952Y-84794928D02*
X162751333Y-84699690D01*
X162751333Y-84699690D02*
X162703714Y-84652071D01*
X162703714Y-84652071D02*
X162608476Y-84604452D01*
X162608476Y-84604452D02*
X162418000Y-84604452D01*
X162418000Y-84604452D02*
X162322762Y-84652071D01*
X161227523Y-84604452D02*
X160846571Y-84604452D01*
X161084666Y-85271119D02*
X161084666Y-84413976D01*
X161084666Y-84413976D02*
X161037047Y-84318738D01*
X161037047Y-84318738D02*
X160941809Y-84271119D01*
X160941809Y-84271119D02*
X160846571Y-84271119D01*
X160370380Y-85271119D02*
X160465618Y-85223500D01*
X160465618Y-85223500D02*
X160513237Y-85175880D01*
X160513237Y-85175880D02*
X160560856Y-85080642D01*
X160560856Y-85080642D02*
X160560856Y-84794928D01*
X160560856Y-84794928D02*
X160513237Y-84699690D01*
X160513237Y-84699690D02*
X160465618Y-84652071D01*
X160465618Y-84652071D02*
X160370380Y-84604452D01*
X160370380Y-84604452D02*
X160227523Y-84604452D01*
X160227523Y-84604452D02*
X160132285Y-84652071D01*
X160132285Y-84652071D02*
X160084666Y-84699690D01*
X160084666Y-84699690D02*
X160037047Y-84794928D01*
X160037047Y-84794928D02*
X160037047Y-85080642D01*
X160037047Y-85080642D02*
X160084666Y-85175880D01*
X160084666Y-85175880D02*
X160132285Y-85223500D01*
X160132285Y-85223500D02*
X160227523Y-85271119D01*
X160227523Y-85271119D02*
X160370380Y-85271119D01*
X159608475Y-85271119D02*
X159608475Y-84604452D01*
X159608475Y-84794928D02*
X159560856Y-84699690D01*
X159560856Y-84699690D02*
X159513237Y-84652071D01*
X159513237Y-84652071D02*
X159417999Y-84604452D01*
X159417999Y-84604452D02*
X159322761Y-84604452D01*
X158370379Y-84604452D02*
X157989427Y-84604452D01*
X158227522Y-84271119D02*
X158227522Y-85128261D01*
X158227522Y-85128261D02*
X158179903Y-85223500D01*
X158179903Y-85223500D02*
X158084665Y-85271119D01*
X158084665Y-85271119D02*
X157989427Y-85271119D01*
X157656093Y-85271119D02*
X157656093Y-84271119D01*
X157227522Y-85271119D02*
X157227522Y-84747309D01*
X157227522Y-84747309D02*
X157275141Y-84652071D01*
X157275141Y-84652071D02*
X157370379Y-84604452D01*
X157370379Y-84604452D02*
X157513236Y-84604452D01*
X157513236Y-84604452D02*
X157608474Y-84652071D01*
X157608474Y-84652071D02*
X157656093Y-84699690D01*
X156370379Y-85223500D02*
X156465617Y-85271119D01*
X156465617Y-85271119D02*
X156656093Y-85271119D01*
X156656093Y-85271119D02*
X156751331Y-85223500D01*
X156751331Y-85223500D02*
X156798950Y-85128261D01*
X156798950Y-85128261D02*
X156798950Y-84747309D01*
X156798950Y-84747309D02*
X156751331Y-84652071D01*
X156751331Y-84652071D02*
X156656093Y-84604452D01*
X156656093Y-84604452D02*
X156465617Y-84604452D01*
X156465617Y-84604452D02*
X156370379Y-84652071D01*
X156370379Y-84652071D02*
X156322760Y-84747309D01*
X156322760Y-84747309D02*
X156322760Y-84842547D01*
X156322760Y-84842547D02*
X156798950Y-84937785D01*
X154560855Y-85175880D02*
X154608474Y-85223500D01*
X154608474Y-85223500D02*
X154751331Y-85271119D01*
X154751331Y-85271119D02*
X154846569Y-85271119D01*
X154846569Y-85271119D02*
X154989426Y-85223500D01*
X154989426Y-85223500D02*
X155084664Y-85128261D01*
X155084664Y-85128261D02*
X155132283Y-85033023D01*
X155132283Y-85033023D02*
X155179902Y-84842547D01*
X155179902Y-84842547D02*
X155179902Y-84699690D01*
X155179902Y-84699690D02*
X155132283Y-84509214D01*
X155132283Y-84509214D02*
X155084664Y-84413976D01*
X155084664Y-84413976D02*
X154989426Y-84318738D01*
X154989426Y-84318738D02*
X154846569Y-84271119D01*
X154846569Y-84271119D02*
X154751331Y-84271119D01*
X154751331Y-84271119D02*
X154608474Y-84318738D01*
X154608474Y-84318738D02*
X154560855Y-84366357D01*
X153989426Y-85271119D02*
X154084664Y-85223500D01*
X154084664Y-85223500D02*
X154132283Y-85175880D01*
X154132283Y-85175880D02*
X154179902Y-85080642D01*
X154179902Y-85080642D02*
X154179902Y-84794928D01*
X154179902Y-84794928D02*
X154132283Y-84699690D01*
X154132283Y-84699690D02*
X154084664Y-84652071D01*
X154084664Y-84652071D02*
X153989426Y-84604452D01*
X153989426Y-84604452D02*
X153846569Y-84604452D01*
X153846569Y-84604452D02*
X153751331Y-84652071D01*
X153751331Y-84652071D02*
X153703712Y-84699690D01*
X153703712Y-84699690D02*
X153656093Y-84794928D01*
X153656093Y-84794928D02*
X153656093Y-85080642D01*
X153656093Y-85080642D02*
X153703712Y-85175880D01*
X153703712Y-85175880D02*
X153751331Y-85223500D01*
X153751331Y-85223500D02*
X153846569Y-85271119D01*
X153846569Y-85271119D02*
X153989426Y-85271119D01*
X153084664Y-85271119D02*
X153179902Y-85223500D01*
X153179902Y-85223500D02*
X153227521Y-85175880D01*
X153227521Y-85175880D02*
X153275140Y-85080642D01*
X153275140Y-85080642D02*
X153275140Y-84794928D01*
X153275140Y-84794928D02*
X153227521Y-84699690D01*
X153227521Y-84699690D02*
X153179902Y-84652071D01*
X153179902Y-84652071D02*
X153084664Y-84604452D01*
X153084664Y-84604452D02*
X152941807Y-84604452D01*
X152941807Y-84604452D02*
X152846569Y-84652071D01*
X152846569Y-84652071D02*
X152798950Y-84699690D01*
X152798950Y-84699690D02*
X152751331Y-84794928D01*
X152751331Y-84794928D02*
X152751331Y-85080642D01*
X152751331Y-85080642D02*
X152798950Y-85175880D01*
X152798950Y-85175880D02*
X152846569Y-85223500D01*
X152846569Y-85223500D02*
X152941807Y-85271119D01*
X152941807Y-85271119D02*
X153084664Y-85271119D01*
X151941807Y-85223500D02*
X152037045Y-85271119D01*
X152037045Y-85271119D02*
X152227521Y-85271119D01*
X152227521Y-85271119D02*
X152322759Y-85223500D01*
X152322759Y-85223500D02*
X152370378Y-85128261D01*
X152370378Y-85128261D02*
X152370378Y-84747309D01*
X152370378Y-84747309D02*
X152322759Y-84652071D01*
X152322759Y-84652071D02*
X152227521Y-84604452D01*
X152227521Y-84604452D02*
X152037045Y-84604452D01*
X152037045Y-84604452D02*
X151941807Y-84652071D01*
X151941807Y-84652071D02*
X151894188Y-84747309D01*
X151894188Y-84747309D02*
X151894188Y-84842547D01*
X151894188Y-84842547D02*
X152370378Y-84937785D01*
X151084664Y-85223500D02*
X151179902Y-85271119D01*
X151179902Y-85271119D02*
X151370378Y-85271119D01*
X151370378Y-85271119D02*
X151465616Y-85223500D01*
X151465616Y-85223500D02*
X151513235Y-85128261D01*
X151513235Y-85128261D02*
X151513235Y-84747309D01*
X151513235Y-84747309D02*
X151465616Y-84652071D01*
X151465616Y-84652071D02*
X151370378Y-84604452D01*
X151370378Y-84604452D02*
X151179902Y-84604452D01*
X151179902Y-84604452D02*
X151084664Y-84652071D01*
X151084664Y-84652071D02*
X151037045Y-84747309D01*
X151037045Y-84747309D02*
X151037045Y-84842547D01*
X151037045Y-84842547D02*
X151513235Y-84937785D01*
X149846568Y-84604452D02*
X149846568Y-85604452D01*
X149846568Y-84652071D02*
X149751330Y-84604452D01*
X149751330Y-84604452D02*
X149560854Y-84604452D01*
X149560854Y-84604452D02*
X149465616Y-84652071D01*
X149465616Y-84652071D02*
X149417997Y-84699690D01*
X149417997Y-84699690D02*
X149370378Y-84794928D01*
X149370378Y-84794928D02*
X149370378Y-85080642D01*
X149370378Y-85080642D02*
X149417997Y-85175880D01*
X149417997Y-85175880D02*
X149465616Y-85223500D01*
X149465616Y-85223500D02*
X149560854Y-85271119D01*
X149560854Y-85271119D02*
X149751330Y-85271119D01*
X149751330Y-85271119D02*
X149846568Y-85223500D01*
X148941806Y-85271119D02*
X148941806Y-84604452D01*
X148941806Y-84794928D02*
X148894187Y-84699690D01*
X148894187Y-84699690D02*
X148846568Y-84652071D01*
X148846568Y-84652071D02*
X148751330Y-84604452D01*
X148751330Y-84604452D02*
X148656092Y-84604452D01*
X148179901Y-85271119D02*
X148275139Y-85223500D01*
X148275139Y-85223500D02*
X148322758Y-85175880D01*
X148322758Y-85175880D02*
X148370377Y-85080642D01*
X148370377Y-85080642D02*
X148370377Y-84794928D01*
X148370377Y-84794928D02*
X148322758Y-84699690D01*
X148322758Y-84699690D02*
X148275139Y-84652071D01*
X148275139Y-84652071D02*
X148179901Y-84604452D01*
X148179901Y-84604452D02*
X148037044Y-84604452D01*
X148037044Y-84604452D02*
X147941806Y-84652071D01*
X147941806Y-84652071D02*
X147894187Y-84699690D01*
X147894187Y-84699690D02*
X147846568Y-84794928D01*
X147846568Y-84794928D02*
X147846568Y-85080642D01*
X147846568Y-85080642D02*
X147894187Y-85175880D01*
X147894187Y-85175880D02*
X147941806Y-85223500D01*
X147941806Y-85223500D02*
X148037044Y-85271119D01*
X148037044Y-85271119D02*
X148179901Y-85271119D01*
X147417996Y-84604452D02*
X147417996Y-85461595D01*
X147417996Y-85461595D02*
X147465615Y-85556833D01*
X147465615Y-85556833D02*
X147560853Y-85604452D01*
X147560853Y-85604452D02*
X147608472Y-85604452D01*
X147417996Y-84271119D02*
X147465615Y-84318738D01*
X147465615Y-84318738D02*
X147417996Y-84366357D01*
X147417996Y-84366357D02*
X147370377Y-84318738D01*
X147370377Y-84318738D02*
X147417996Y-84271119D01*
X147417996Y-84271119D02*
X147417996Y-84366357D01*
X146560854Y-85223500D02*
X146656092Y-85271119D01*
X146656092Y-85271119D02*
X146846568Y-85271119D01*
X146846568Y-85271119D02*
X146941806Y-85223500D01*
X146941806Y-85223500D02*
X146989425Y-85128261D01*
X146989425Y-85128261D02*
X146989425Y-84747309D01*
X146989425Y-84747309D02*
X146941806Y-84652071D01*
X146941806Y-84652071D02*
X146846568Y-84604452D01*
X146846568Y-84604452D02*
X146656092Y-84604452D01*
X146656092Y-84604452D02*
X146560854Y-84652071D01*
X146560854Y-84652071D02*
X146513235Y-84747309D01*
X146513235Y-84747309D02*
X146513235Y-84842547D01*
X146513235Y-84842547D02*
X146989425Y-84937785D01*
X145656092Y-85223500D02*
X145751330Y-85271119D01*
X145751330Y-85271119D02*
X145941806Y-85271119D01*
X145941806Y-85271119D02*
X146037044Y-85223500D01*
X146037044Y-85223500D02*
X146084663Y-85175880D01*
X146084663Y-85175880D02*
X146132282Y-85080642D01*
X146132282Y-85080642D02*
X146132282Y-84794928D01*
X146132282Y-84794928D02*
X146084663Y-84699690D01*
X146084663Y-84699690D02*
X146037044Y-84652071D01*
X146037044Y-84652071D02*
X145941806Y-84604452D01*
X145941806Y-84604452D02*
X145751330Y-84604452D01*
X145751330Y-84604452D02*
X145656092Y-84652071D01*
X145370377Y-84604452D02*
X144989425Y-84604452D01*
X145227520Y-84271119D02*
X145227520Y-85128261D01*
X145227520Y-85128261D02*
X145179901Y-85223500D01*
X145179901Y-85223500D02*
X145084663Y-85271119D01*
X145084663Y-85271119D02*
X144989425Y-85271119D01*
D12*
X176238183Y-86797219D02*
X175904850Y-87797219D01*
X175904850Y-87797219D02*
X175571517Y-86797219D01*
X175238183Y-87797219D02*
X175238183Y-87130552D01*
X175238183Y-86797219D02*
X175285802Y-86844838D01*
X175285802Y-86844838D02*
X175238183Y-86892457D01*
X175238183Y-86892457D02*
X175190564Y-86844838D01*
X175190564Y-86844838D02*
X175238183Y-86797219D01*
X175238183Y-86797219D02*
X175238183Y-86892457D01*
X174809612Y-87749600D02*
X174714374Y-87797219D01*
X174714374Y-87797219D02*
X174523898Y-87797219D01*
X174523898Y-87797219D02*
X174428660Y-87749600D01*
X174428660Y-87749600D02*
X174381041Y-87654361D01*
X174381041Y-87654361D02*
X174381041Y-87606742D01*
X174381041Y-87606742D02*
X174428660Y-87511504D01*
X174428660Y-87511504D02*
X174523898Y-87463885D01*
X174523898Y-87463885D02*
X174666755Y-87463885D01*
X174666755Y-87463885D02*
X174761993Y-87416266D01*
X174761993Y-87416266D02*
X174809612Y-87321028D01*
X174809612Y-87321028D02*
X174809612Y-87273409D01*
X174809612Y-87273409D02*
X174761993Y-87178171D01*
X174761993Y-87178171D02*
X174666755Y-87130552D01*
X174666755Y-87130552D02*
X174523898Y-87130552D01*
X174523898Y-87130552D02*
X174428660Y-87178171D01*
X173952469Y-87797219D02*
X173952469Y-87130552D01*
X173952469Y-86797219D02*
X174000088Y-86844838D01*
X174000088Y-86844838D02*
X173952469Y-86892457D01*
X173952469Y-86892457D02*
X173904850Y-86844838D01*
X173904850Y-86844838D02*
X173952469Y-86797219D01*
X173952469Y-86797219D02*
X173952469Y-86892457D01*
X173619136Y-87130552D02*
X173238184Y-87130552D01*
X173476279Y-86797219D02*
X173476279Y-87654361D01*
X173476279Y-87654361D02*
X173428660Y-87749600D01*
X173428660Y-87749600D02*
X173333422Y-87797219D01*
X173333422Y-87797219D02*
X173238184Y-87797219D01*
X172904850Y-87701980D02*
X172857231Y-87749600D01*
X172857231Y-87749600D02*
X172904850Y-87797219D01*
X172904850Y-87797219D02*
X172952469Y-87749600D01*
X172952469Y-87749600D02*
X172904850Y-87701980D01*
X172904850Y-87701980D02*
X172904850Y-87797219D01*
X172904850Y-87178171D02*
X172857231Y-87225790D01*
X172857231Y-87225790D02*
X172904850Y-87273409D01*
X172904850Y-87273409D02*
X172952469Y-87225790D01*
X172952469Y-87225790D02*
X172904850Y-87178171D01*
X172904850Y-87178171D02*
X172904850Y-87273409D01*
X171142946Y-86844838D02*
X171238184Y-86797219D01*
X171238184Y-86797219D02*
X171381041Y-86797219D01*
X171381041Y-86797219D02*
X171523898Y-86844838D01*
X171523898Y-86844838D02*
X171619136Y-86940076D01*
X171619136Y-86940076D02*
X171666755Y-87035314D01*
X171666755Y-87035314D02*
X171714374Y-87225790D01*
X171714374Y-87225790D02*
X171714374Y-87368647D01*
X171714374Y-87368647D02*
X171666755Y-87559123D01*
X171666755Y-87559123D02*
X171619136Y-87654361D01*
X171619136Y-87654361D02*
X171523898Y-87749600D01*
X171523898Y-87749600D02*
X171381041Y-87797219D01*
X171381041Y-87797219D02*
X171285803Y-87797219D01*
X171285803Y-87797219D02*
X171142946Y-87749600D01*
X171142946Y-87749600D02*
X171095327Y-87701980D01*
X171095327Y-87701980D02*
X171095327Y-87368647D01*
X171095327Y-87368647D02*
X171285803Y-87368647D01*
X170666755Y-87797219D02*
X170666755Y-87130552D01*
X170666755Y-86797219D02*
X170714374Y-86844838D01*
X170714374Y-86844838D02*
X170666755Y-86892457D01*
X170666755Y-86892457D02*
X170619136Y-86844838D01*
X170619136Y-86844838D02*
X170666755Y-86797219D01*
X170666755Y-86797219D02*
X170666755Y-86892457D01*
X170333422Y-87130552D02*
X169952470Y-87130552D01*
X170190565Y-86797219D02*
X170190565Y-87654361D01*
X170190565Y-87654361D02*
X170142946Y-87749600D01*
X170142946Y-87749600D02*
X170047708Y-87797219D01*
X170047708Y-87797219D02*
X169952470Y-87797219D01*
X169619136Y-87797219D02*
X169619136Y-86797219D01*
X169190565Y-87797219D02*
X169190565Y-87273409D01*
X169190565Y-87273409D02*
X169238184Y-87178171D01*
X169238184Y-87178171D02*
X169333422Y-87130552D01*
X169333422Y-87130552D02*
X169476279Y-87130552D01*
X169476279Y-87130552D02*
X169571517Y-87178171D01*
X169571517Y-87178171D02*
X169619136Y-87225790D01*
X168285803Y-87130552D02*
X168285803Y-87797219D01*
X168714374Y-87130552D02*
X168714374Y-87654361D01*
X168714374Y-87654361D02*
X168666755Y-87749600D01*
X168666755Y-87749600D02*
X168571517Y-87797219D01*
X168571517Y-87797219D02*
X168428660Y-87797219D01*
X168428660Y-87797219D02*
X168333422Y-87749600D01*
X168333422Y-87749600D02*
X168285803Y-87701980D01*
X167809612Y-87797219D02*
X167809612Y-86797219D01*
X167809612Y-87178171D02*
X167714374Y-87130552D01*
X167714374Y-87130552D02*
X167523898Y-87130552D01*
X167523898Y-87130552D02*
X167428660Y-87178171D01*
X167428660Y-87178171D02*
X167381041Y-87225790D01*
X167381041Y-87225790D02*
X167333422Y-87321028D01*
X167333422Y-87321028D02*
X167333422Y-87606742D01*
X167333422Y-87606742D02*
X167381041Y-87701980D01*
X167381041Y-87701980D02*
X167428660Y-87749600D01*
X167428660Y-87749600D02*
X167523898Y-87797219D01*
X167523898Y-87797219D02*
X167714374Y-87797219D01*
X167714374Y-87797219D02*
X167809612Y-87749600D01*
X166904850Y-87701980D02*
X166857231Y-87749600D01*
X166857231Y-87749600D02*
X166904850Y-87797219D01*
X166904850Y-87797219D02*
X166952469Y-87749600D01*
X166952469Y-87749600D02*
X166904850Y-87701980D01*
X166904850Y-87701980D02*
X166904850Y-87797219D01*
X166000089Y-87749600D02*
X166095327Y-87797219D01*
X166095327Y-87797219D02*
X166285803Y-87797219D01*
X166285803Y-87797219D02*
X166381041Y-87749600D01*
X166381041Y-87749600D02*
X166428660Y-87701980D01*
X166428660Y-87701980D02*
X166476279Y-87606742D01*
X166476279Y-87606742D02*
X166476279Y-87321028D01*
X166476279Y-87321028D02*
X166428660Y-87225790D01*
X166428660Y-87225790D02*
X166381041Y-87178171D01*
X166381041Y-87178171D02*
X166285803Y-87130552D01*
X166285803Y-87130552D02*
X166095327Y-87130552D01*
X166095327Y-87130552D02*
X166000089Y-87178171D01*
X165428660Y-87797219D02*
X165523898Y-87749600D01*
X165523898Y-87749600D02*
X165571517Y-87701980D01*
X165571517Y-87701980D02*
X165619136Y-87606742D01*
X165619136Y-87606742D02*
X165619136Y-87321028D01*
X165619136Y-87321028D02*
X165571517Y-87225790D01*
X165571517Y-87225790D02*
X165523898Y-87178171D01*
X165523898Y-87178171D02*
X165428660Y-87130552D01*
X165428660Y-87130552D02*
X165285803Y-87130552D01*
X165285803Y-87130552D02*
X165190565Y-87178171D01*
X165190565Y-87178171D02*
X165142946Y-87225790D01*
X165142946Y-87225790D02*
X165095327Y-87321028D01*
X165095327Y-87321028D02*
X165095327Y-87606742D01*
X165095327Y-87606742D02*
X165142946Y-87701980D01*
X165142946Y-87701980D02*
X165190565Y-87749600D01*
X165190565Y-87749600D02*
X165285803Y-87797219D01*
X165285803Y-87797219D02*
X165428660Y-87797219D01*
X164666755Y-87797219D02*
X164666755Y-87130552D01*
X164666755Y-87225790D02*
X164619136Y-87178171D01*
X164619136Y-87178171D02*
X164523898Y-87130552D01*
X164523898Y-87130552D02*
X164381041Y-87130552D01*
X164381041Y-87130552D02*
X164285803Y-87178171D01*
X164285803Y-87178171D02*
X164238184Y-87273409D01*
X164238184Y-87273409D02*
X164238184Y-87797219D01*
X164238184Y-87273409D02*
X164190565Y-87178171D01*
X164190565Y-87178171D02*
X164095327Y-87130552D01*
X164095327Y-87130552D02*
X163952470Y-87130552D01*
X163952470Y-87130552D02*
X163857231Y-87178171D01*
X163857231Y-87178171D02*
X163809612Y-87273409D01*
X163809612Y-87273409D02*
X163809612Y-87797219D01*
X162619137Y-86749600D02*
X163476279Y-88035314D01*
X162285803Y-87797219D02*
X162285803Y-86797219D01*
X162285803Y-86797219D02*
X162047708Y-86797219D01*
X162047708Y-86797219D02*
X161904851Y-86844838D01*
X161904851Y-86844838D02*
X161809613Y-86940076D01*
X161809613Y-86940076D02*
X161761994Y-87035314D01*
X161761994Y-87035314D02*
X161714375Y-87225790D01*
X161714375Y-87225790D02*
X161714375Y-87368647D01*
X161714375Y-87368647D02*
X161761994Y-87559123D01*
X161761994Y-87559123D02*
X161809613Y-87654361D01*
X161809613Y-87654361D02*
X161904851Y-87749600D01*
X161904851Y-87749600D02*
X162047708Y-87797219D01*
X162047708Y-87797219D02*
X162285803Y-87797219D01*
X160904851Y-87749600D02*
X161000089Y-87797219D01*
X161000089Y-87797219D02*
X161190565Y-87797219D01*
X161190565Y-87797219D02*
X161285803Y-87749600D01*
X161285803Y-87749600D02*
X161333422Y-87654361D01*
X161333422Y-87654361D02*
X161333422Y-87273409D01*
X161333422Y-87273409D02*
X161285803Y-87178171D01*
X161285803Y-87178171D02*
X161190565Y-87130552D01*
X161190565Y-87130552D02*
X161000089Y-87130552D01*
X161000089Y-87130552D02*
X160904851Y-87178171D01*
X160904851Y-87178171D02*
X160857232Y-87273409D01*
X160857232Y-87273409D02*
X160857232Y-87368647D01*
X160857232Y-87368647D02*
X161333422Y-87463885D01*
X160571517Y-87130552D02*
X160190565Y-87130552D01*
X160428660Y-86797219D02*
X160428660Y-87654361D01*
X160428660Y-87654361D02*
X160381041Y-87749600D01*
X160381041Y-87749600D02*
X160285803Y-87797219D01*
X160285803Y-87797219D02*
X160190565Y-87797219D01*
X159476279Y-87749600D02*
X159571517Y-87797219D01*
X159571517Y-87797219D02*
X159761993Y-87797219D01*
X159761993Y-87797219D02*
X159857231Y-87749600D01*
X159857231Y-87749600D02*
X159904850Y-87654361D01*
X159904850Y-87654361D02*
X159904850Y-87273409D01*
X159904850Y-87273409D02*
X159857231Y-87178171D01*
X159857231Y-87178171D02*
X159761993Y-87130552D01*
X159761993Y-87130552D02*
X159571517Y-87130552D01*
X159571517Y-87130552D02*
X159476279Y-87178171D01*
X159476279Y-87178171D02*
X159428660Y-87273409D01*
X159428660Y-87273409D02*
X159428660Y-87368647D01*
X159428660Y-87368647D02*
X159904850Y-87463885D01*
X158571517Y-87749600D02*
X158666755Y-87797219D01*
X158666755Y-87797219D02*
X158857231Y-87797219D01*
X158857231Y-87797219D02*
X158952469Y-87749600D01*
X158952469Y-87749600D02*
X159000088Y-87701980D01*
X159000088Y-87701980D02*
X159047707Y-87606742D01*
X159047707Y-87606742D02*
X159047707Y-87321028D01*
X159047707Y-87321028D02*
X159000088Y-87225790D01*
X159000088Y-87225790D02*
X158952469Y-87178171D01*
X158952469Y-87178171D02*
X158857231Y-87130552D01*
X158857231Y-87130552D02*
X158666755Y-87130552D01*
X158666755Y-87130552D02*
X158571517Y-87178171D01*
X158285802Y-87130552D02*
X157904850Y-87130552D01*
X158142945Y-86797219D02*
X158142945Y-87654361D01*
X158142945Y-87654361D02*
X158095326Y-87749600D01*
X158095326Y-87749600D02*
X158000088Y-87797219D01*
X158000088Y-87797219D02*
X157904850Y-87797219D01*
X157571516Y-87797219D02*
X157571516Y-87130552D01*
X157571516Y-86797219D02*
X157619135Y-86844838D01*
X157619135Y-86844838D02*
X157571516Y-86892457D01*
X157571516Y-86892457D02*
X157523897Y-86844838D01*
X157523897Y-86844838D02*
X157571516Y-86797219D01*
X157571516Y-86797219D02*
X157571516Y-86892457D01*
X157190564Y-87130552D02*
X156952469Y-87797219D01*
X156952469Y-87797219D02*
X156714374Y-87130552D01*
X155952469Y-87749600D02*
X156047707Y-87797219D01*
X156047707Y-87797219D02*
X156238183Y-87797219D01*
X156238183Y-87797219D02*
X156333421Y-87749600D01*
X156333421Y-87749600D02*
X156381040Y-87654361D01*
X156381040Y-87654361D02*
X156381040Y-87273409D01*
X156381040Y-87273409D02*
X156333421Y-87178171D01*
X156333421Y-87178171D02*
X156238183Y-87130552D01*
X156238183Y-87130552D02*
X156047707Y-87130552D01*
X156047707Y-87130552D02*
X155952469Y-87178171D01*
X155952469Y-87178171D02*
X155904850Y-87273409D01*
X155904850Y-87273409D02*
X155904850Y-87368647D01*
X155904850Y-87368647D02*
X156381040Y-87463885D01*
X155476278Y-87797219D02*
X155476278Y-86797219D01*
X155476278Y-86797219D02*
X155142945Y-87511504D01*
X155142945Y-87511504D02*
X154809612Y-86797219D01*
X154809612Y-86797219D02*
X154809612Y-87797219D01*
X154333421Y-87797219D02*
X154333421Y-87130552D01*
X154333421Y-86797219D02*
X154381040Y-86844838D01*
X154381040Y-86844838D02*
X154333421Y-86892457D01*
X154333421Y-86892457D02*
X154285802Y-86844838D01*
X154285802Y-86844838D02*
X154333421Y-86797219D01*
X154333421Y-86797219D02*
X154333421Y-86892457D01*
X154000088Y-87130552D02*
X153619136Y-87130552D01*
X153857231Y-86797219D02*
X153857231Y-87654361D01*
X153857231Y-87654361D02*
X153809612Y-87749600D01*
X153809612Y-87749600D02*
X153714374Y-87797219D01*
X153714374Y-87797219D02*
X153619136Y-87797219D01*
X153428659Y-87130552D02*
X153047707Y-87130552D01*
X153285802Y-86797219D02*
X153285802Y-87654361D01*
X153285802Y-87654361D02*
X153238183Y-87749600D01*
X153238183Y-87749600D02*
X153142945Y-87797219D01*
X153142945Y-87797219D02*
X153047707Y-87797219D01*
X152333421Y-87749600D02*
X152428659Y-87797219D01*
X152428659Y-87797219D02*
X152619135Y-87797219D01*
X152619135Y-87797219D02*
X152714373Y-87749600D01*
X152714373Y-87749600D02*
X152761992Y-87654361D01*
X152761992Y-87654361D02*
X152761992Y-87273409D01*
X152761992Y-87273409D02*
X152714373Y-87178171D01*
X152714373Y-87178171D02*
X152619135Y-87130552D01*
X152619135Y-87130552D02*
X152428659Y-87130552D01*
X152428659Y-87130552D02*
X152333421Y-87178171D01*
X152333421Y-87178171D02*
X152285802Y-87273409D01*
X152285802Y-87273409D02*
X152285802Y-87368647D01*
X152285802Y-87368647D02*
X152761992Y-87463885D01*
X151857230Y-87130552D02*
X151857230Y-87797219D01*
X151857230Y-87225790D02*
X151809611Y-87178171D01*
X151809611Y-87178171D02*
X151714373Y-87130552D01*
X151714373Y-87130552D02*
X151571516Y-87130552D01*
X151571516Y-87130552D02*
X151476278Y-87178171D01*
X151476278Y-87178171D02*
X151428659Y-87273409D01*
X151428659Y-87273409D02*
X151428659Y-87797219D01*
X151000087Y-87749600D02*
X150904849Y-87797219D01*
X150904849Y-87797219D02*
X150714373Y-87797219D01*
X150714373Y-87797219D02*
X150619135Y-87749600D01*
X150619135Y-87749600D02*
X150571516Y-87654361D01*
X150571516Y-87654361D02*
X150571516Y-87606742D01*
X150571516Y-87606742D02*
X150619135Y-87511504D01*
X150619135Y-87511504D02*
X150714373Y-87463885D01*
X150714373Y-87463885D02*
X150857230Y-87463885D01*
X150857230Y-87463885D02*
X150952468Y-87416266D01*
X150952468Y-87416266D02*
X151000087Y-87321028D01*
X151000087Y-87321028D02*
X151000087Y-87273409D01*
X151000087Y-87273409D02*
X150952468Y-87178171D01*
X150952468Y-87178171D02*
X150857230Y-87130552D01*
X150857230Y-87130552D02*
X150714373Y-87130552D01*
X150714373Y-87130552D02*
X150619135Y-87178171D01*
X149428659Y-86749600D02*
X150285801Y-88035314D01*
X148523897Y-87701980D02*
X148571516Y-87749600D01*
X148571516Y-87749600D02*
X148714373Y-87797219D01*
X148714373Y-87797219D02*
X148809611Y-87797219D01*
X148809611Y-87797219D02*
X148952468Y-87749600D01*
X148952468Y-87749600D02*
X149047706Y-87654361D01*
X149047706Y-87654361D02*
X149095325Y-87559123D01*
X149095325Y-87559123D02*
X149142944Y-87368647D01*
X149142944Y-87368647D02*
X149142944Y-87225790D01*
X149142944Y-87225790D02*
X149095325Y-87035314D01*
X149095325Y-87035314D02*
X149047706Y-86940076D01*
X149047706Y-86940076D02*
X148952468Y-86844838D01*
X148952468Y-86844838D02*
X148809611Y-86797219D01*
X148809611Y-86797219D02*
X148714373Y-86797219D01*
X148714373Y-86797219D02*
X148571516Y-86844838D01*
X148571516Y-86844838D02*
X148523897Y-86892457D01*
X147952468Y-87797219D02*
X148047706Y-87749600D01*
X148047706Y-87749600D02*
X148095325Y-87701980D01*
X148095325Y-87701980D02*
X148142944Y-87606742D01*
X148142944Y-87606742D02*
X148142944Y-87321028D01*
X148142944Y-87321028D02*
X148095325Y-87225790D01*
X148095325Y-87225790D02*
X148047706Y-87178171D01*
X148047706Y-87178171D02*
X147952468Y-87130552D01*
X147952468Y-87130552D02*
X147809611Y-87130552D01*
X147809611Y-87130552D02*
X147714373Y-87178171D01*
X147714373Y-87178171D02*
X147666754Y-87225790D01*
X147666754Y-87225790D02*
X147619135Y-87321028D01*
X147619135Y-87321028D02*
X147619135Y-87606742D01*
X147619135Y-87606742D02*
X147666754Y-87701980D01*
X147666754Y-87701980D02*
X147714373Y-87749600D01*
X147714373Y-87749600D02*
X147809611Y-87797219D01*
X147809611Y-87797219D02*
X147952468Y-87797219D01*
X147047706Y-87797219D02*
X147142944Y-87749600D01*
X147142944Y-87749600D02*
X147190563Y-87701980D01*
X147190563Y-87701980D02*
X147238182Y-87606742D01*
X147238182Y-87606742D02*
X147238182Y-87321028D01*
X147238182Y-87321028D02*
X147190563Y-87225790D01*
X147190563Y-87225790D02*
X147142944Y-87178171D01*
X147142944Y-87178171D02*
X147047706Y-87130552D01*
X147047706Y-87130552D02*
X146904849Y-87130552D01*
X146904849Y-87130552D02*
X146809611Y-87178171D01*
X146809611Y-87178171D02*
X146761992Y-87225790D01*
X146761992Y-87225790D02*
X146714373Y-87321028D01*
X146714373Y-87321028D02*
X146714373Y-87606742D01*
X146714373Y-87606742D02*
X146761992Y-87701980D01*
X146761992Y-87701980D02*
X146809611Y-87749600D01*
X146809611Y-87749600D02*
X146904849Y-87797219D01*
X146904849Y-87797219D02*
X147047706Y-87797219D01*
X145904849Y-87749600D02*
X146000087Y-87797219D01*
X146000087Y-87797219D02*
X146190563Y-87797219D01*
X146190563Y-87797219D02*
X146285801Y-87749600D01*
X146285801Y-87749600D02*
X146333420Y-87654361D01*
X146333420Y-87654361D02*
X146333420Y-87273409D01*
X146333420Y-87273409D02*
X146285801Y-87178171D01*
X146285801Y-87178171D02*
X146190563Y-87130552D01*
X146190563Y-87130552D02*
X146000087Y-87130552D01*
X146000087Y-87130552D02*
X145904849Y-87178171D01*
X145904849Y-87178171D02*
X145857230Y-87273409D01*
X145857230Y-87273409D02*
X145857230Y-87368647D01*
X145857230Y-87368647D02*
X146333420Y-87463885D01*
X145047706Y-87749600D02*
X145142944Y-87797219D01*
X145142944Y-87797219D02*
X145333420Y-87797219D01*
X145333420Y-87797219D02*
X145428658Y-87749600D01*
X145428658Y-87749600D02*
X145476277Y-87654361D01*
X145476277Y-87654361D02*
X145476277Y-87273409D01*
X145476277Y-87273409D02*
X145428658Y-87178171D01*
X145428658Y-87178171D02*
X145333420Y-87130552D01*
X145333420Y-87130552D02*
X145142944Y-87130552D01*
X145142944Y-87130552D02*
X145047706Y-87178171D01*
X145047706Y-87178171D02*
X145000087Y-87273409D01*
X145000087Y-87273409D02*
X145000087Y-87368647D01*
X145000087Y-87368647D02*
X145476277Y-87463885D01*
X143857230Y-86749600D02*
X144714372Y-88035314D01*
D14*
X133778885Y-115188533D02*
X134540790Y-115188533D01*
X119049999Y-121622657D02*
X119002380Y-121575038D01*
X119002380Y-121575038D02*
X118907142Y-121527419D01*
X118907142Y-121527419D02*
X118669047Y-121527419D01*
X118669047Y-121527419D02*
X118573809Y-121575038D01*
X118573809Y-121575038D02*
X118526190Y-121622657D01*
X118526190Y-121622657D02*
X118478571Y-121717895D01*
X118478571Y-121717895D02*
X118478571Y-121813133D01*
X118478571Y-121813133D02*
X118526190Y-121955990D01*
X118526190Y-121955990D02*
X119097618Y-122527419D01*
X119097618Y-122527419D02*
X118478571Y-122527419D01*
X118049999Y-122432180D02*
X118002380Y-122479800D01*
X118002380Y-122479800D02*
X118049999Y-122527419D01*
X118049999Y-122527419D02*
X118097618Y-122479800D01*
X118097618Y-122479800D02*
X118049999Y-122432180D01*
X118049999Y-122432180D02*
X118049999Y-122527419D01*
X117097619Y-121527419D02*
X117573809Y-121527419D01*
X117573809Y-121527419D02*
X117621428Y-122003609D01*
X117621428Y-122003609D02*
X117573809Y-121955990D01*
X117573809Y-121955990D02*
X117478571Y-121908371D01*
X117478571Y-121908371D02*
X117240476Y-121908371D01*
X117240476Y-121908371D02*
X117145238Y-121955990D01*
X117145238Y-121955990D02*
X117097619Y-122003609D01*
X117097619Y-122003609D02*
X117050000Y-122098847D01*
X117050000Y-122098847D02*
X117050000Y-122336942D01*
X117050000Y-122336942D02*
X117097619Y-122432180D01*
X117097619Y-122432180D02*
X117145238Y-122479800D01*
X117145238Y-122479800D02*
X117240476Y-122527419D01*
X117240476Y-122527419D02*
X117478571Y-122527419D01*
X117478571Y-122527419D02*
X117573809Y-122479800D01*
X117573809Y-122479800D02*
X117621428Y-122432180D01*
X119300000Y-117940000D02*
X119300000Y-123756420D01*
X116800000Y-123756420D02*
X116800000Y-115100000D01*
X119300000Y-123170000D02*
X116800000Y-123170000D01*
X119300000Y-123170000D02*
X118173496Y-123756421D01*
X119300000Y-123170000D02*
X118173496Y-122583579D01*
X116800000Y-123170000D02*
X117926504Y-122583579D01*
X116800000Y-123170000D02*
X117926504Y-123756421D01*
X112942657Y-117880000D02*
X112895038Y-117927619D01*
X112895038Y-117927619D02*
X112847419Y-118022857D01*
X112847419Y-118022857D02*
X112847419Y-118260952D01*
X112847419Y-118260952D02*
X112895038Y-118356190D01*
X112895038Y-118356190D02*
X112942657Y-118403809D01*
X112942657Y-118403809D02*
X113037895Y-118451428D01*
X113037895Y-118451428D02*
X113133133Y-118451428D01*
X113133133Y-118451428D02*
X113275990Y-118403809D01*
X113275990Y-118403809D02*
X113847419Y-117832381D01*
X113847419Y-117832381D02*
X113847419Y-118451428D01*
X113752180Y-118880000D02*
X113799800Y-118927619D01*
X113799800Y-118927619D02*
X113847419Y-118880000D01*
X113847419Y-118880000D02*
X113799800Y-118832381D01*
X113799800Y-118832381D02*
X113752180Y-118880000D01*
X113752180Y-118880000D02*
X113847419Y-118880000D01*
X112847419Y-119832380D02*
X112847419Y-119356190D01*
X112847419Y-119356190D02*
X113323609Y-119308571D01*
X113323609Y-119308571D02*
X113275990Y-119356190D01*
X113275990Y-119356190D02*
X113228371Y-119451428D01*
X113228371Y-119451428D02*
X113228371Y-119689523D01*
X113228371Y-119689523D02*
X113275990Y-119784761D01*
X113275990Y-119784761D02*
X113323609Y-119832380D01*
X113323609Y-119832380D02*
X113418847Y-119879999D01*
X113418847Y-119879999D02*
X113656942Y-119879999D01*
X113656942Y-119879999D02*
X113752180Y-119832380D01*
X113752180Y-119832380D02*
X113799800Y-119784761D01*
X113799800Y-119784761D02*
X113847419Y-119689523D01*
X113847419Y-119689523D02*
X113847419Y-119451428D01*
X113847419Y-119451428D02*
X113799800Y-119356190D01*
X113799800Y-119356190D02*
X113752180Y-119308571D01*
X118800000Y-117700000D02*
X115473580Y-117700000D01*
X115473580Y-120200000D02*
X121900000Y-120200000D01*
X116060000Y-117700000D02*
X116060000Y-120200000D01*
X116060000Y-117700000D02*
X116646421Y-118826504D01*
X116060000Y-117700000D02*
X115473579Y-118826504D01*
X116060000Y-120200000D02*
X115473579Y-119073496D01*
X116060000Y-120200000D02*
X116646421Y-119073496D01*
D16*
X123584819Y-114926666D02*
X124299104Y-114926666D01*
X124299104Y-114926666D02*
X124441961Y-114879047D01*
X124441961Y-114879047D02*
X124537200Y-114783809D01*
X124537200Y-114783809D02*
X124584819Y-114640952D01*
X124584819Y-114640952D02*
X124584819Y-114545714D01*
X124584819Y-115450476D02*
X124584819Y-115640952D01*
X124584819Y-115640952D02*
X124537200Y-115736190D01*
X124537200Y-115736190D02*
X124489580Y-115783809D01*
X124489580Y-115783809D02*
X124346723Y-115879047D01*
X124346723Y-115879047D02*
X124156247Y-115926666D01*
X124156247Y-115926666D02*
X123775295Y-115926666D01*
X123775295Y-115926666D02*
X123680057Y-115879047D01*
X123680057Y-115879047D02*
X123632438Y-115831428D01*
X123632438Y-115831428D02*
X123584819Y-115736190D01*
X123584819Y-115736190D02*
X123584819Y-115545714D01*
X123584819Y-115545714D02*
X123632438Y-115450476D01*
X123632438Y-115450476D02*
X123680057Y-115402857D01*
X123680057Y-115402857D02*
X123775295Y-115355238D01*
X123775295Y-115355238D02*
X124013390Y-115355238D01*
X124013390Y-115355238D02*
X124108628Y-115402857D01*
X124108628Y-115402857D02*
X124156247Y-115450476D01*
X124156247Y-115450476D02*
X124203866Y-115545714D01*
X124203866Y-115545714D02*
X124203866Y-115736190D01*
X124203866Y-115736190D02*
X124156247Y-115831428D01*
X124156247Y-115831428D02*
X124108628Y-115879047D01*
X124108628Y-115879047D02*
X124013390Y-115926666D01*
D17*
%TO.C,J9*%
X122720000Y-113940000D02*
X135639999Y-113940000D01*
X122720000Y-116700000D02*
X122720000Y-113940000D01*
X123670000Y-107940000D02*
X123670000Y-113940000D01*
X123670000Y-117012642D02*
X123670000Y-116700000D01*
X124530000Y-107940000D02*
X123670000Y-107940000D01*
X124530000Y-113940000D02*
X124530000Y-107940000D01*
X124530000Y-117012642D02*
X124530000Y-116700001D01*
X125370000Y-116700000D02*
X125370000Y-113940000D01*
X126210000Y-107940000D02*
X126210000Y-113939999D01*
X126210000Y-117012642D02*
X126210000Y-116700000D01*
X127070000Y-107940000D02*
X126210000Y-107940000D01*
X127070000Y-113940000D02*
X127070000Y-107940000D01*
X127070000Y-117012642D02*
X127070000Y-116700000D01*
X127910000Y-116700001D02*
X127910000Y-113940000D01*
X128750000Y-107940000D02*
X128750000Y-113939999D01*
X128750000Y-117012642D02*
X128750000Y-116700000D01*
X129610000Y-107940000D02*
X128750000Y-107940000D01*
X129610000Y-113939999D02*
X129610000Y-107940000D01*
X129610000Y-117012642D02*
X129610000Y-116700000D01*
X130450000Y-116700000D02*
X130450000Y-113940000D01*
X131290000Y-107940000D02*
X131290000Y-113940000D01*
X131290000Y-117012642D02*
X131289999Y-116700000D01*
X132150000Y-107940000D02*
X131290000Y-107940000D01*
X132150000Y-113940000D02*
X132150000Y-107940000D01*
X132150000Y-117012642D02*
X132150000Y-116700000D01*
X132990000Y-116700000D02*
X132990000Y-113939999D01*
X133830000Y-116930000D02*
X133830001Y-116700000D01*
X134260000Y-119360001D02*
X135530000Y-119360000D01*
X134690000Y-116930000D02*
X134689999Y-116700000D01*
X135530000Y-119360000D02*
X135530001Y-118090000D01*
X135639999Y-113940000D02*
X135640000Y-116700000D01*
X135640000Y-116700000D02*
X122720000Y-116700000D01*
X134690000Y-113940000D02*
X133830000Y-113940000D01*
X133830000Y-107940000D01*
X134690000Y-107940000D01*
X134690000Y-113940000D01*
G36*
X134690000Y-113940000D02*
G01*
X133830000Y-113940000D01*
X133830000Y-107940000D01*
X134690000Y-107940000D01*
X134690000Y-113940000D01*
G37*
%TD*%
M02*
