M48
; DRILL file {KiCad 9.0.6} date 2026-01-17T10:48:06+1100
; FORMAT={-:-/ absolute / inch / decimal}
; #@! TF.CreationDate,2026-01-17T10:48:06+11:00
; #@! TF.GenerationSoftware,Kicad,Pcbnew,9.0.6
; #@! TF.FileFunction,Plated,1,2,PTH
FMAT,2
INCH
; #@! TA.AperFunction,Plated,PTH,ViaDrill
T1C0.0118
%
G90
G05
T1
X4.6339Y-3.3386
X4.6969Y-3.1654
X4.7008Y-3.4311
X4.7283Y-3.6378
X4.7618Y-4.0807
X4.7736Y-4.4577
X4.8346Y-3.7559
X4.8359Y-3.406
X4.8386Y-3.2795
X4.8937Y-3.3189
X4.937Y-4.311
X4.9646Y-3.1614
X4.9695Y-3.4262
X5.1053Y-4.0768
X5.1063Y-4.4331
X5.1073Y-3.7323
X5.1102Y-3.374
X5.1142Y-3.2441
X5.2382Y-3.1654
X5.2421Y-3.4213
X5.3701Y-3.7362
X5.375Y-4.0856
X5.378Y-3.2165
X5.4094Y-3.9252
X5.4228Y-4.4259
X5.5039Y-4.2244
X5.5118Y-3.1732
X5.5118Y-3.4232
X5.5197Y-4.0039
X5.5512Y-4.1693
X5.5709Y-4.3543
X5.6299Y-3.7402
X5.6516Y-4.0817
X5.6535Y-3.1339
X5.7825Y-3.1772
X5.7864Y-3.4242
X5.8701Y-4.4567
X5.9055Y-3.7283
X5.9222Y-4.0827
X5.9291Y-3.2559
X6.0512Y-3.1811
X6.0512Y-3.4222
X6.0591Y-4.4055
X6.0669Y-4.6142
X6.1063Y-4.4921
X6.1535Y-4.3268
X6.185Y-3.1969
X6.185Y-3.7402
X6.1988Y-4.0778
X6.2677Y-4.2795
X6.3268Y-3.1772
X6.3268Y-3.4222
X6.3346Y-4.4331
X6.3386Y-4.6732
X6.4173Y-4.5079
X6.4409Y-3.7165
X6.4606Y-3.7618
X6.4646Y-4.0797
X6.4675Y-3.178
X6.5079Y-4.5256
X6.5315Y-4.4252
X6.5974Y-3.1772
X6.5974Y-3.4222
X6.6024Y-4.0669
X6.6181Y-4.6654
X6.6339Y-4.5
X6.6535Y-3.7008
X6.7126Y-4.3622
X6.7323Y-3.2323
X6.7323Y-4.0787
X6.7362Y-3.4252
X6.8681Y-3.1772
X6.8691Y-3.4232
X7.0039Y-3.2008
X7.0069Y-3.7608
X7.0748Y-3.3268
X7.0748Y-4.0974
X7.0748Y-4.3524
X7.1427Y-3.185
X7.1427Y-3.4213
M30
