M48
; DRILL file {KiCad 9.0.6} date 2026-02-19T22:05:14+1100
; FORMAT={-:-/ absolute / inch / decimal}
; #@! TF.CreationDate,2026-02-19T22:05:14+11:00
; #@! TF.GenerationSoftware,Kicad,Pcbnew,9.0.6
; #@! TF.FileFunction,Plated,1,2,PTH
FMAT,2
INCH
; #@! TA.AperFunction,Plated,PTH,ViaDrill
T1C0.0118
; #@! TA.AperFunction,Plated,PTH,ComponentDrill
T2C0.0394
; #@! TA.AperFunction,Plated,PTH,ComponentDrill
T3C0.1260
%
G90
G05
T1
X4.6339Y-3.3386
X4.6969Y-3.1654
X4.7008Y-3.4311
X4.7283Y-3.6378
X4.7618Y-4.0807
X4.7638Y-4.4203
X4.811Y-3.6969
X4.8346Y-3.7559
X4.8359Y-3.406
X4.8386Y-3.2795
X4.8415Y-3.3396
X4.9283Y-4.3154
X4.9439Y-4.1555
X4.9646Y-3.1614
X4.9695Y-3.4262
X4.9709Y-3.8768
X4.9752Y-4.3244
X4.9843Y-4.4331
X5.0Y-3.9616
X5.1053Y-4.0768
X5.1063Y-4.3888
X5.1073Y-3.7323
X5.1142Y-3.2441
X5.178Y-3.6681
X5.215Y-4.3732
X5.2283Y-4.248
X5.2372Y-4.4695
X5.2382Y-3.1654
X5.2421Y-3.4213
X5.2697Y-4.4459
X5.2724Y-4.3972
X5.3091Y-4.4596
X5.3484Y-4.4488
X5.3622Y-3.7894
X5.375Y-4.0856
X5.378Y-3.2165
X5.3819Y-4.3858
X5.4163Y-4.438
X5.4291Y-4.5
X5.4299Y-4.6252
X5.4488Y-3.672
X5.4537Y-4.4419
X5.4555Y-4.648
X5.461Y-4.3783
X5.4872Y-4.4193
X5.5118Y-3.1732
X5.5118Y-3.4232
X5.5128Y-4.3917
X5.5581Y-4.3917
X5.5811Y-4.6728
X5.5866Y-4.2362
X5.6014Y-4.3898
X5.6094Y-4.6874
X5.6299Y-3.7402
X5.6309Y-4.4222
X5.6461Y-4.6783
X5.6516Y-4.0817
X5.6535Y-3.1339
X5.6614Y-4.2953
X5.6644Y-4.4557
X5.6663Y-3.9665
X5.685Y-4.4252
X5.7213Y-3.665
X5.7362Y-4.3228
X5.752Y-4.4449
X5.7815Y-4.5366
X5.7825Y-3.1772
X5.7864Y-3.4242
X5.7913Y-4.0787
X5.8327Y-4.5157
X5.8661Y-3.9646
X5.8823Y-3.3181
X5.9004Y-4.0835
X5.9124Y-3.7657
X5.9291Y-3.2559
X5.9457Y-3.3717
X5.952Y-4.5799
X5.9567Y-4.5197
X5.9843Y-3.5719
X6.0Y-3.6811
X6.0Y-3.9213
X6.0063Y-4.4783
X6.0512Y-3.1811
X6.0512Y-3.4222
X6.0591Y-4.4055
X6.0646Y-4.5177
X6.0797Y-4.1772
X6.1063Y-4.4921
X6.1299Y-3.674
X6.1535Y-4.3268
X6.1614Y-4.7126
X6.1811Y-3.4567
X6.185Y-3.1969
X6.185Y-3.7402
X6.1988Y-4.0778
X6.2047Y-4.5669
X6.248Y-4.3246
X6.312Y-3.5797
X6.3268Y-3.1772
X6.3268Y-3.4222
X6.3346Y-4.4331
X6.4173Y-4.5079
X6.4478Y-3.7884
X6.4518Y-3.7323
X6.4646Y-4.0797
X6.4675Y-3.178
X6.5079Y-4.5256
X6.5287Y-3.5807
X6.5315Y-4.4252
X6.563Y-4.2244
X6.5965Y-3.7608
X6.5974Y-3.1772
X6.5974Y-3.4222
X6.6024Y-4.0669
X6.6339Y-4.5
X6.6339Y-4.6299
X6.7126Y-4.3622
X6.7126Y-4.5827
X6.7244Y-3.5856
X6.7323Y-3.2323
X6.7323Y-4.0787
X6.7362Y-3.4252
X6.7717Y-3.6801
X6.8691Y-3.4232
X6.872Y-3.2756
X6.9852Y-3.2205
X6.9961Y-3.3268
X7.0069Y-3.7608
X7.0354Y-3.5787
X7.0748Y-4.0974
X7.0748Y-4.3524
X7.0965Y-3.3031
X7.1024Y-3.6654
X7.1398Y-3.2087
X7.1427Y-3.4213
T2
X4.8858Y-4.6492
X4.9858Y-4.6492
X5.0858Y-4.6492
X5.1858Y-4.6492
X5.2858Y-4.6492
T3
X4.6969Y-4.6339
X7.1299Y-4.6339
M30
