%TF.GenerationSoftware,KiCad,Pcbnew,9.0.6*%
%TF.CreationDate,2026-01-26T11:53:51+11:00*%
%TF.ProjectId,Cooee_keyboard_68mm,436f6f65-655f-46b6-9579-626f6172645f,rev?*%
%TF.SameCoordinates,Original*%
%TF.FileFunction,Soldermask,Bot*%
%TF.FilePolarity,Negative*%
%FSLAX46Y46*%
G04 Gerber Fmt 4.6, Leading zero omitted, Abs format (unit mm)*
G04 Created by KiCad (PCBNEW 9.0.6) date 2026-01-26 11:53:51*
%MOMM*%
%LPD*%
G01*
G04 APERTURE LIST*
G04 Aperture macros list*
%AMRotRect*
0 Rectangle, with rotation*
0 The origin of the aperture is its center*
0 $1 length*
0 $2 width*
0 $3 Rotation angle, in degrees counterclockwise*
0 Add horizontal line*
21,1,$1,$2,0,0,$3*%
G04 Aperture macros list end*
%ADD10R,0.850000X1.350000*%
%ADD11R,1.000000X3.150000*%
%ADD12RotRect,0.850000X1.350000X45.000000*%
G04 APERTURE END LIST*
D10*
%TO.C,J6*%
X150600000Y-100500000D03*
%TD*%
%TO.C,J5*%
X151600000Y-87800000D03*
%TD*%
D11*
%TO.C,J1*%
X124740000Y-92200000D03*
X124740000Y-97250000D03*
X127280000Y-92200000D03*
X127280000Y-97250000D03*
X129820000Y-92200000D03*
X129820000Y-97250000D03*
X132360000Y-92199999D03*
X132360000Y-97250001D03*
X134900000Y-92200000D03*
X134900000Y-97250000D03*
X137440000Y-92200000D03*
X137440000Y-97250000D03*
X139980000Y-92200000D03*
X139980000Y-97250000D03*
X142520000Y-92199999D03*
X142520000Y-97250001D03*
X145060000Y-92200000D03*
X145060000Y-97250000D03*
X147600000Y-92200000D03*
X147600000Y-97250000D03*
X150140000Y-92200000D03*
X150140000Y-97250000D03*
X152680000Y-92200000D03*
X152680000Y-97250000D03*
X155220000Y-92199999D03*
X155220000Y-97250001D03*
X157760000Y-92200000D03*
X157760000Y-97250000D03*
X160300000Y-92200000D03*
X160300000Y-97250000D03*
X162840000Y-92200000D03*
X162840000Y-97250000D03*
X165380000Y-92199999D03*
X165380000Y-97250001D03*
X167920000Y-92200000D03*
X167920000Y-97250000D03*
X170460000Y-92200000D03*
X170460000Y-97250000D03*
X173000000Y-92200000D03*
X173000000Y-97250000D03*
%TD*%
D10*
%TO.C,J2*%
X155500000Y-100500000D03*
%TD*%
%TO.C,J7*%
X150000000Y-87800000D03*
%TD*%
%TO.C,J4*%
X153000000Y-100500000D03*
%TD*%
D12*
%TO.C,J3*%
X154300000Y-89200000D03*
%TD*%
M02*
