M48
; DRILL file {KiCad 9.0.6} date 2026-01-16T18:31:20+1100
; FORMAT={-:-/ absolute / inch / decimal}
; #@! TF.CreationDate,2026-01-16T18:31:20+11:00
; #@! TF.GenerationSoftware,Kicad,Pcbnew,9.0.6
; #@! TF.FileFunction,Plated,1,2,PTH
FMAT,2
INCH
; #@! TA.AperFunction,Plated,PTH,ViaDrill
T1C0.0118
; #@! TA.AperFunction,Plated,PTH,ComponentDrill
T2C0.0394
%
G90
G05
T1
X4.6969Y-3.1496
X4.7008Y-3.4311
X4.7618Y-4.0807
X4.7736Y-4.4577
X4.8337Y-3.7598
X4.9636Y-3.1437
X4.9695Y-3.4262
X5.1053Y-4.0768
X5.1063Y-4.439
X5.1073Y-3.7618
X5.2382Y-3.1437
X5.2421Y-3.4213
X5.375Y-4.0856
X5.378Y-3.7579
X5.5108Y-3.1447
X5.5118Y-3.4232
X5.6467Y-3.7598
X5.6516Y-4.0817
X5.7825Y-3.1447
X5.7864Y-3.4242
X5.9173Y-3.7589
X5.9222Y-4.0827
X6.0512Y-3.4222
X6.0551Y-3.1476
X6.0856Y-3.3671
X6.1801Y-4.7648
X6.187Y-3.7638
X6.1988Y-4.0778
X6.2717Y-3.6841
X6.2854Y-4.4577
X6.3159Y-4.0079
X6.3268Y-3.1427
X6.3268Y-3.4222
X6.4419Y-4.5256
X6.4498Y-4.7756
X6.4606Y-3.7618
X6.4646Y-4.0797
X6.5974Y-3.4222
X6.5984Y-3.1447
X6.7293Y-4.4094
X6.7323Y-4.0787
X6.7333Y-3.7598
X6.7343Y-4.7677
X6.8681Y-3.1437
X6.8691Y-3.4232
X7.0069Y-3.7608
X7.0748Y-4.0974
X7.0748Y-4.3524
X7.1427Y-3.4213
X7.1437Y-3.1467
T2
X5.2033Y-2.8819
X5.3033Y-2.8819
X5.4033Y-2.8819
X5.5033Y-2.8819
X5.6033Y-2.8819
X5.7033Y-2.8819
X5.8033Y-2.8819
X5.9033Y-2.8819
X6.0033Y-2.8819
X6.1033Y-2.8819
X6.2033Y-2.8819
X6.3033Y-2.8819
X6.4033Y-2.8819
X6.5033Y-2.8819
X6.6033Y-2.8819
M30
