%TF.GenerationSoftware,KiCad,Pcbnew,9.0.6*%
%TF.CreationDate,2026-03-11T20:06:48+11:00*%
%TF.ProjectId,Cooee_keyboard_68mm,436f6f65-655f-46b6-9579-626f6172645f,rev?*%
%TF.SameCoordinates,Original*%
%TF.FileFunction,Legend,Top*%
%TF.FilePolarity,Positive*%
%FSLAX46Y46*%
G04 Gerber Fmt 4.6, Leading zero omitted, Abs format (unit mm)*
G04 Created by KiCad (PCBNEW 9.0.6) date 2026-03-11 20:06:48*
%MOMM*%
%LPD*%
G01*
G04 APERTURE LIST*
%ADD10C,0.250000*%
%ADD11C,0.180000*%
%ADD12C,0.300000*%
%ADD13C,0.150000*%
%ADD14C,0.120000*%
%ADD15C,0.127000*%
G04 APERTURE END LIST*
D10*
X181899324Y-77110664D02*
G75*
G02*
X183399324Y-78610664I34J-1499966D01*
G01*
X179189328Y-82129320D02*
X182189328Y-82129320D01*
X183399324Y-80610664D02*
G75*
G02*
X181899324Y-82110664I-1499946J-54D01*
G01*
X177689328Y-78629320D02*
G75*
G02*
X179189328Y-77129320I1500054J-54D01*
G01*
X183399324Y-78610664D02*
X183399324Y-80610664D01*
X177689328Y-78629320D02*
X177689328Y-80629320D01*
X179189328Y-77129320D02*
X182189328Y-77129320D01*
X179189328Y-82129320D02*
G75*
G02*
X177689328Y-80629320I35J1500035D01*
G01*
X181899328Y-83319320D02*
G75*
G02*
X183399328Y-84819320I34J-1499966D01*
G01*
X179269328Y-83349320D02*
X182269328Y-83349320D01*
X177769328Y-84849320D02*
G75*
G02*
X179269328Y-83349320I1500054J-54D01*
G01*
X177769328Y-88849320D02*
X177769328Y-84849320D01*
X179269328Y-90349320D02*
G75*
G02*
X177769328Y-88849320I35J1500035D01*
G01*
X179269328Y-90349320D02*
X182269328Y-90349320D01*
X183399328Y-88819320D02*
X183399328Y-84819320D01*
X183399328Y-88819320D02*
G75*
G02*
X181899328Y-90319320I-1499946J-54D01*
G01*
D11*
X180210000Y-117690000D02*
X181710000Y-117690000D01*
X177710000Y-120190000D02*
X177710000Y-121690000D01*
X175210000Y-117690000D02*
X173710000Y-117690000D01*
X177710000Y-115190000D02*
X177710000Y-113690000D01*
X177710000Y-117690000D02*
X180210000Y-117690000D01*
X177710000Y-117690000D02*
X177710000Y-120190000D01*
X177710000Y-117690000D02*
X175210000Y-117690000D01*
X177710000Y-117690000D02*
X177710000Y-115190000D01*
X125310000Y-117709870D02*
X126810000Y-117709870D01*
X122810000Y-120209870D02*
X122810000Y-121709870D01*
X120310000Y-117709870D02*
X118810000Y-117709870D01*
X122810000Y-115209870D02*
X122810000Y-113709870D01*
X122810000Y-117709870D02*
X125310000Y-117709870D01*
X122810000Y-117709870D02*
X122810000Y-120209870D01*
X122810000Y-117709870D02*
X120310000Y-117709870D01*
X122810000Y-117709870D02*
X122810000Y-115209870D01*
D10*
X181109229Y-108058682D02*
X182118036Y-108058682D01*
X181109229Y-99858682D02*
X182118036Y-99858682D01*
X181109229Y-106858682D02*
X182118036Y-106858682D01*
X182512327Y-113075027D02*
X181109229Y-113457289D01*
X181445015Y-97158682D02*
G75*
G02*
X181109241Y-98104528I-1499973J-34D01*
G01*
X181109229Y-92212846D02*
G75*
G02*
X181445042Y-93158682I-1164187J-945870D01*
G01*
X181445015Y-93158682D02*
X181445015Y-97158682D01*
X182118036Y-99858682D02*
G75*
G02*
X183618076Y-101358682I6J-1500034D01*
G01*
X183618036Y-101358682D02*
X183618036Y-105358682D01*
X183618036Y-105358682D02*
G75*
G02*
X182118036Y-106858710I-1499994J-34D01*
G01*
X182118036Y-108058682D02*
G75*
G02*
X183618076Y-109558682I6J-1500034D01*
G01*
X183618036Y-109558682D02*
X183618036Y-111627776D01*
X183618036Y-111627776D02*
G75*
G02*
X182512336Y-113075060I-1499994J-40D01*
G01*
X170939836Y-78733682D02*
X170939836Y-80733682D01*
X170939836Y-78733682D02*
G75*
G02*
X172439836Y-77233710I1500006J-34D01*
G01*
X172439836Y-77233682D02*
X175439836Y-77233682D01*
X175439836Y-77233682D02*
G75*
G02*
X176939876Y-78733682I6J-1500034D01*
G01*
X176939836Y-78733682D02*
X176939836Y-80733682D01*
X176939836Y-80733682D02*
G75*
G02*
X175439836Y-82233710I-1499994J-34D01*
G01*
X172439836Y-82233682D02*
X175439836Y-82233682D01*
X172439836Y-82233682D02*
G75*
G02*
X170939876Y-80733682I6J1499966D01*
G01*
X157427830Y-78733682D02*
X157427830Y-80733682D01*
X157427830Y-78733682D02*
G75*
G02*
X158927830Y-77233704I1500012J-34D01*
G01*
X158927830Y-77233682D02*
X161927830Y-77233682D01*
X161927830Y-77233682D02*
G75*
G02*
X163427876Y-78733682I12J-1500034D01*
G01*
X163427830Y-78733682D02*
X163427830Y-80733682D01*
X163427830Y-80733682D02*
G75*
G02*
X161927830Y-82233704I-1499988J-34D01*
G01*
X158927830Y-82233682D02*
X161927830Y-82233682D01*
X158927830Y-82233682D02*
G75*
G02*
X157427876Y-80733682I12J1499966D01*
G01*
X164183833Y-78733682D02*
X164183833Y-80733682D01*
X164183833Y-78733682D02*
G75*
G02*
X165683833Y-77233707I1500009J-34D01*
G01*
X165683833Y-77233682D02*
X168683833Y-77233682D01*
X168683833Y-77233682D02*
G75*
G02*
X170183876Y-78733682I9J-1500034D01*
G01*
X170183833Y-78733682D02*
X170183833Y-80733682D01*
X170183833Y-80733682D02*
G75*
G02*
X168683833Y-82233707I-1499991J-34D01*
G01*
X165683833Y-82233682D02*
X168683833Y-82233682D01*
X165683833Y-82233682D02*
G75*
G02*
X164183876Y-80733682I9J1499966D01*
G01*
X134164930Y-109558682D02*
X134164930Y-113558682D01*
X134164930Y-109558682D02*
G75*
G02*
X135664930Y-108058704I1500012J-34D01*
G01*
X135664930Y-108058682D02*
X155215108Y-108058682D01*
X155215108Y-108058682D02*
G75*
G02*
X156514216Y-110308722I34J-1500034D01*
G01*
X156514146Y-110308682D02*
X154204745Y-114308682D01*
X154204745Y-114308682D02*
G75*
G02*
X152905707Y-115058669I-1299003J749966D01*
G01*
X135664930Y-115058682D02*
X152905707Y-115058682D01*
X135664930Y-115058682D02*
G75*
G02*
X134164976Y-113558682I12J1499966D01*
G01*
X140945015Y-93158682D02*
X140945015Y-97158682D01*
X140945015Y-93158682D02*
G75*
G02*
X142445015Y-91658689I1500027J-34D01*
G01*
X142445015Y-91658682D02*
X145445015Y-91658682D01*
X145445015Y-91658682D02*
G75*
G02*
X146945076Y-93158682I27J-1500034D01*
G01*
X146945015Y-93158682D02*
X146945015Y-97158682D01*
X146945015Y-97158682D02*
G75*
G02*
X145445015Y-98658689I-1499973J-34D01*
G01*
X142445015Y-98658682D02*
X145445015Y-98658682D01*
X142445015Y-98658682D02*
G75*
G02*
X140945076Y-97158682I27J1499966D01*
G01*
X147845015Y-93158682D02*
X147845015Y-97158682D01*
X147845015Y-93158682D02*
G75*
G02*
X149345015Y-91658689I1500027J-34D01*
G01*
X149345015Y-91658682D02*
X152345015Y-91658682D01*
X152345015Y-91658682D02*
G75*
G02*
X153845076Y-93158682I27J-1500034D01*
G01*
X153845015Y-93158682D02*
X153845015Y-97158682D01*
X153845015Y-97158682D02*
G75*
G02*
X152345015Y-98658689I-1499973J-34D01*
G01*
X149345015Y-98658682D02*
X152345015Y-98658682D01*
X149345015Y-98658682D02*
G75*
G02*
X147845076Y-97158682I27J1499966D01*
G01*
X154745015Y-93158682D02*
X154745015Y-97158682D01*
X154745015Y-93158682D02*
G75*
G02*
X156245015Y-91658689I1500027J-34D01*
G01*
X156245015Y-91658682D02*
X159245015Y-91658682D01*
X159245015Y-91658682D02*
G75*
G02*
X160745076Y-93158682I27J-1500034D01*
G01*
X160745015Y-93158682D02*
X160745015Y-97158682D01*
X160745015Y-97158682D02*
G75*
G02*
X159245015Y-98658689I-1499973J-34D01*
G01*
X156245015Y-98658682D02*
X159245015Y-98658682D01*
X156245015Y-98658682D02*
G75*
G02*
X154745076Y-97158682I27J1499966D01*
G01*
X161645015Y-93158682D02*
X161645015Y-97158682D01*
X161645015Y-93158682D02*
G75*
G02*
X163145015Y-91658689I1500027J-34D01*
G01*
X163145015Y-91658682D02*
X166145015Y-91658682D01*
X166145015Y-91658682D02*
G75*
G02*
X167645076Y-93158682I27J-1500034D01*
G01*
X167645015Y-93158682D02*
X167645015Y-97158682D01*
X167645015Y-97158682D02*
G75*
G02*
X166145015Y-98658689I-1499973J-34D01*
G01*
X163145015Y-98658682D02*
X166145015Y-98658682D01*
X163145015Y-98658682D02*
G75*
G02*
X161645076Y-97158682I27J1499966D01*
G01*
X168545015Y-93158682D02*
X168545015Y-97158682D01*
X168545015Y-93158682D02*
G75*
G02*
X170045015Y-91658689I1500027J-34D01*
G01*
X170045015Y-91658682D02*
X173045015Y-91658682D01*
X173045015Y-91658682D02*
G75*
G02*
X174545076Y-93158682I27J-1500034D01*
G01*
X174545015Y-93158682D02*
X174545015Y-97158682D01*
X174545015Y-97158682D02*
G75*
G02*
X173045015Y-98658689I-1499973J-34D01*
G01*
X170045015Y-98658682D02*
X173045015Y-98658682D01*
X170045015Y-98658682D02*
G75*
G02*
X168545076Y-97158682I27J1499966D01*
G01*
X163716401Y-115917504D02*
X163716401Y-120258682D01*
X163716401Y-115917504D02*
X166789185Y-114143432D01*
X168507959Y-117120437D02*
X166789185Y-114143432D01*
X166696092Y-120258682D02*
X168507959Y-117120437D01*
X163716401Y-120258682D02*
X166696092Y-120258682D01*
X163276153Y-108058682D02*
X159652419Y-108058682D01*
X166289185Y-113277406D02*
X163276153Y-108058682D01*
X163008204Y-115171682D02*
X166289185Y-113277406D01*
X159945104Y-115171682D02*
X163008204Y-115171682D01*
X156771661Y-113140001D02*
X159945104Y-115171682D01*
X159652419Y-108058682D02*
X156771661Y-113140001D01*
X125208915Y-90458682D02*
X128208915Y-90458682D01*
X125208915Y-90458682D02*
G75*
G02*
X123708976Y-88958682I27J1499966D01*
G01*
X123708915Y-88958682D02*
X123708915Y-84958682D01*
X123708915Y-84958682D02*
G75*
G02*
X125208915Y-83458689I1500027J-34D01*
G01*
X125208915Y-83458682D02*
X128208915Y-83458682D01*
X128208915Y-83458682D02*
G75*
G02*
X129708976Y-84958682I27J-1500034D01*
G01*
X129708915Y-88958682D02*
X129708915Y-84958682D01*
X129708915Y-88958682D02*
G75*
G02*
X128208915Y-90458689I-1499973J-34D01*
G01*
X127145015Y-93158682D02*
X127145015Y-97158682D01*
X127145015Y-93158682D02*
G75*
G02*
X128645015Y-91658689I1500027J-34D01*
G01*
X128645015Y-91658682D02*
X131645015Y-91658682D01*
X131645015Y-91658682D02*
G75*
G02*
X133145076Y-93158682I27J-1500034D01*
G01*
X133145015Y-93158682D02*
X133145015Y-97158682D01*
X133145015Y-97158682D02*
G75*
G02*
X131645015Y-98658689I-1499973J-34D01*
G01*
X128645015Y-98658682D02*
X131645015Y-98658682D01*
X128645015Y-98658682D02*
G75*
G02*
X127145076Y-97158682I27J1499966D01*
G01*
X137159821Y-78733682D02*
X137159821Y-80733682D01*
X137159821Y-78733682D02*
G75*
G02*
X138659821Y-77233695I1500021J-34D01*
G01*
X138659821Y-77233682D02*
X141659821Y-77233682D01*
X141659821Y-77233682D02*
G75*
G02*
X143159876Y-78733682I21J-1500034D01*
G01*
X143159821Y-78733682D02*
X143159821Y-80733682D01*
X143159821Y-80733682D02*
G75*
G02*
X141659821Y-82233695I-1499979J-34D01*
G01*
X138659821Y-82233682D02*
X141659821Y-82233682D01*
X138659821Y-82233682D02*
G75*
G02*
X137159876Y-80733682I21J1499966D01*
G01*
X143915824Y-78733682D02*
X143915824Y-80733682D01*
X143915824Y-78733682D02*
G75*
G02*
X145415824Y-77233698I1500018J-34D01*
G01*
X145415824Y-77233682D02*
X148415824Y-77233682D01*
X148415824Y-77233682D02*
G75*
G02*
X149915876Y-78733682I18J-1500034D01*
G01*
X149915824Y-78733682D02*
X149915824Y-80733682D01*
X149915824Y-80733682D02*
G75*
G02*
X148415824Y-82233698I-1499982J-34D01*
G01*
X145415824Y-82233682D02*
X148415824Y-82233682D01*
X145415824Y-82233682D02*
G75*
G02*
X143915876Y-80733682I18J1499966D01*
G01*
X150671827Y-78733682D02*
X150671827Y-80733682D01*
X150671827Y-78733682D02*
G75*
G02*
X152171827Y-77233701I1500015J-34D01*
G01*
X152171827Y-77233682D02*
X155171827Y-77233682D01*
X155171827Y-77233682D02*
G75*
G02*
X156671876Y-78733682I15J-1500034D01*
G01*
X156671827Y-78733682D02*
X156671827Y-80733682D01*
X156671827Y-80733682D02*
G75*
G02*
X155171827Y-82233701I-1499985J-34D01*
G01*
X152171827Y-82233682D02*
X155171827Y-82233682D01*
X152171827Y-82233682D02*
G75*
G02*
X150671876Y-80733682I15J1499966D01*
G01*
X134045015Y-93158682D02*
X134045015Y-97158682D01*
X134045015Y-93158682D02*
G75*
G02*
X135545015Y-91658689I1500027J-34D01*
G01*
X135545015Y-91658682D02*
X138545015Y-91658682D01*
X138545015Y-91658682D02*
G75*
G02*
X140045076Y-93158682I27J-1500034D01*
G01*
X140045015Y-93158682D02*
X140045015Y-97158682D01*
X140045015Y-97158682D02*
G75*
G02*
X138545015Y-98658689I-1499973J-34D01*
G01*
X135545015Y-98658682D02*
X138545015Y-98658682D01*
X135545015Y-98658682D02*
G75*
G02*
X134045076Y-97158682I27J1499966D01*
G01*
X130403818Y-78733682D02*
X130403818Y-80733682D01*
X130403818Y-78733682D02*
G75*
G02*
X131903818Y-77233692I1500024J-34D01*
G01*
X131903818Y-77233682D02*
X134903818Y-77233682D01*
X134903818Y-77233682D02*
G75*
G02*
X136403876Y-78733682I24J-1500034D01*
G01*
X136403818Y-78733682D02*
X136403818Y-80733682D01*
X136403818Y-80733682D02*
G75*
G02*
X134903818Y-82233692I-1499976J-34D01*
G01*
X131903818Y-82233682D02*
X134903818Y-82233682D01*
X131903818Y-82233682D02*
G75*
G02*
X130403876Y-80733682I24J1499966D01*
G01*
X127195015Y-108058682D02*
X133145015Y-108058682D01*
X133145015Y-108058682D02*
X133145015Y-115058682D01*
X127195015Y-115058682D02*
X133145015Y-115058682D01*
X127195015Y-108058682D02*
X127195015Y-115058682D01*
X156152534Y-106858682D02*
X159102534Y-106858682D01*
X156152534Y-106858682D02*
G75*
G02*
X154652576Y-105358682I8J1499966D01*
G01*
X154652534Y-105358682D02*
X154652534Y-101358682D01*
X154652534Y-101358682D02*
G75*
G02*
X156152534Y-99858708I1500008J-34D01*
G01*
X156152534Y-99858682D02*
X159102534Y-99858682D01*
X159102534Y-99858682D02*
G75*
G02*
X160602576Y-101358682I8J-1500034D01*
G01*
X160602534Y-105358682D02*
X160602534Y-101358682D01*
X160602534Y-105358682D02*
G75*
G02*
X159102534Y-106858708I-1499992J-34D01*
G01*
X163016914Y-106858682D02*
X165966914Y-106858682D01*
X163016914Y-106858682D02*
G75*
G02*
X161516976Y-105358682I28J1499966D01*
G01*
X161516914Y-105358682D02*
X161516914Y-101358682D01*
X161516914Y-101358682D02*
G75*
G02*
X163016914Y-99858688I1500028J-34D01*
G01*
X163016914Y-99858682D02*
X165966914Y-99858682D01*
X165966914Y-99858682D02*
G75*
G02*
X167466976Y-101358682I28J-1500034D01*
G01*
X167466914Y-105358682D02*
X167466914Y-101358682D01*
X167466914Y-105358682D02*
G75*
G02*
X165966914Y-106858688I-1499972J-34D01*
G01*
X169881293Y-106858682D02*
X172831293Y-106858682D01*
X169881293Y-106858682D02*
G75*
G02*
X168381376Y-105358682I49J1499966D01*
G01*
X168381293Y-105358682D02*
X168381293Y-101358682D01*
X168381293Y-101358682D02*
G75*
G02*
X169881293Y-99858667I1500049J-34D01*
G01*
X169881293Y-99858682D02*
X172831293Y-99858682D01*
X172831293Y-99858682D02*
G75*
G02*
X174331376Y-101358682I49J-1500034D01*
G01*
X174331293Y-105358682D02*
X174331293Y-101358682D01*
X174331293Y-105358682D02*
G75*
G02*
X172831293Y-106858667I-1499951J-34D01*
G01*
X149288154Y-106858682D02*
X152238154Y-106858682D01*
X149288154Y-106858682D02*
G75*
G02*
X147788176Y-105358682I-12J1499966D01*
G01*
X147788154Y-105358682D02*
X147788154Y-101358682D01*
X147788154Y-101358682D02*
G75*
G02*
X149288154Y-99858728I1499988J-34D01*
G01*
X149288154Y-99858682D02*
X152238154Y-99858682D01*
X152238154Y-99858682D02*
G75*
G02*
X153738176Y-101358682I-12J-1500034D01*
G01*
X153738154Y-105358682D02*
X153738154Y-101358682D01*
X153738154Y-105358682D02*
G75*
G02*
X152238154Y-106858728I-1500012J-34D01*
G01*
X142423774Y-106858682D02*
X145373774Y-106858682D01*
X142423774Y-106858682D02*
G75*
G02*
X140923776Y-105358682I-32J1499966D01*
G01*
X140923774Y-105358682D02*
X140923774Y-101358682D01*
X140923774Y-101358682D02*
G75*
G02*
X142423774Y-99858748I1499968J-34D01*
G01*
X142423774Y-99858682D02*
X145373774Y-99858682D01*
X145373774Y-99858682D02*
G75*
G02*
X146873776Y-101358682I-32J-1500034D01*
G01*
X146873774Y-105358682D02*
X146873774Y-101358682D01*
X146873774Y-105358682D02*
G75*
G02*
X145373774Y-106858748I-1500032J-34D01*
G01*
X135559395Y-106858682D02*
X138509395Y-106858682D01*
X135559395Y-106858682D02*
G75*
G02*
X134059476Y-105358682I47J1499966D01*
G01*
X134059395Y-105358682D02*
X134059395Y-101358682D01*
X134059395Y-101358682D02*
G75*
G02*
X135559395Y-99858669I1500047J-34D01*
G01*
X135559395Y-99858682D02*
X138509395Y-99858682D01*
X138509395Y-99858682D02*
G75*
G02*
X140009476Y-101358682I47J-1500034D01*
G01*
X140009395Y-105358682D02*
X140009395Y-101358682D01*
X140009395Y-105358682D02*
G75*
G02*
X138509395Y-106858669I-1499953J-34D01*
G01*
X128695015Y-106858682D02*
X131645015Y-106858682D01*
X128695015Y-106858682D02*
G75*
G02*
X127195076Y-105358682I27J1499966D01*
G01*
X127195015Y-105358682D02*
X127195015Y-101358682D01*
X127195015Y-101358682D02*
G75*
G02*
X128695015Y-99858689I1500027J-34D01*
G01*
X128695015Y-99858682D02*
X131645015Y-99858682D01*
X131645015Y-99858682D02*
G75*
G02*
X133145076Y-101358682I27J-1500034D01*
G01*
X133145015Y-105358682D02*
X133145015Y-101358682D01*
X133145015Y-105358682D02*
G75*
G02*
X131645015Y-106858689I-1499973J-34D01*
G01*
X167886602Y-108058682D02*
X172831293Y-108058682D01*
X172831293Y-108058682D02*
G75*
G02*
X174331376Y-109558682I49J-1500034D01*
G01*
X174331293Y-109558682D02*
X174331293Y-113558682D01*
X174331293Y-113558682D02*
G75*
G02*
X172831293Y-115058667I-1499951J-34D01*
G01*
X172831293Y-115058682D02*
X170196003Y-115058682D01*
X170196003Y-115058682D02*
G75*
G02*
X168897009Y-114308657I39J1499966D01*
G01*
X168896965Y-114308682D02*
X166587564Y-110308682D01*
X166587564Y-110308682D02*
G75*
G02*
X167886602Y-108058698I1299078J749966D01*
G01*
X138703464Y-90458682D02*
X141703464Y-90458682D01*
X138703464Y-90458682D02*
G75*
G02*
X137203476Y-88958682I-22J1499966D01*
G01*
X137203464Y-88958682D02*
X137203464Y-84958682D01*
X137203464Y-84958682D02*
G75*
G02*
X138703464Y-83458738I1499978J-34D01*
G01*
X138703464Y-83458682D02*
X141703464Y-83458682D01*
X141703464Y-83458682D02*
G75*
G02*
X143203476Y-84958682I-22J-1500034D01*
G01*
X143203464Y-88958682D02*
X143203464Y-84958682D01*
X143203464Y-88958682D02*
G75*
G02*
X141703464Y-90458738I-1500022J-34D01*
G01*
X131956189Y-90458682D02*
X134956189Y-90458682D01*
X131956189Y-90458682D02*
G75*
G02*
X130456176Y-88958682I-47J1499966D01*
G01*
X130456189Y-88958682D02*
X130456189Y-84958682D01*
X130456189Y-84958682D02*
G75*
G02*
X131956189Y-83458763I1499953J-34D01*
G01*
X131956189Y-83458682D02*
X134956189Y-83458682D01*
X134956189Y-83458682D02*
G75*
G02*
X136456176Y-84958682I-47J-1500034D01*
G01*
X136456189Y-88958682D02*
X136456189Y-84958682D01*
X136456189Y-88958682D02*
G75*
G02*
X134956189Y-90458763I-1500047J-34D01*
G01*
X145450738Y-90458682D02*
X148450738Y-90458682D01*
X145450738Y-90458682D02*
G75*
G02*
X143950776Y-88958682I4J1499966D01*
G01*
X143950738Y-88958682D02*
X143950738Y-84958682D01*
X143950738Y-84958682D02*
G75*
G02*
X145450738Y-83458712I1500004J-34D01*
G01*
X145450738Y-83458682D02*
X148450738Y-83458682D01*
X148450738Y-83458682D02*
G75*
G02*
X149950776Y-84958682I4J-1500034D01*
G01*
X149950738Y-88958682D02*
X149950738Y-84958682D01*
X149950738Y-88958682D02*
G75*
G02*
X148450738Y-90458712I-1499996J-34D01*
G01*
X120245015Y-93158682D02*
X120245015Y-97158682D01*
X120245015Y-93158682D02*
G75*
G02*
X121745015Y-91658689I1500027J-34D01*
G01*
X121745015Y-91658682D02*
X124745015Y-91658682D01*
X124745015Y-91658682D02*
G75*
G02*
X126245076Y-93158682I27J-1500034D01*
G01*
X126245015Y-93158682D02*
X126245015Y-97158682D01*
X126245015Y-97158682D02*
G75*
G02*
X124745015Y-98658689I-1499973J-34D01*
G01*
X121745015Y-98658682D02*
X124745015Y-98658682D01*
X121745015Y-98658682D02*
G75*
G02*
X120245076Y-97158682I27J1499966D01*
G01*
X123647815Y-78733682D02*
X123647815Y-80733682D01*
X123647815Y-78733682D02*
G75*
G02*
X125147815Y-77233689I1500027J-34D01*
G01*
X125147815Y-77233682D02*
X128147815Y-77233682D01*
X128147815Y-77233682D02*
G75*
G02*
X129647876Y-78733682I27J-1500034D01*
G01*
X129647815Y-78733682D02*
X129647815Y-80733682D01*
X129647815Y-80733682D02*
G75*
G02*
X128147815Y-82233689I-1499973J-34D01*
G01*
X125147815Y-82233682D02*
X128147815Y-82233682D01*
X125147815Y-82233682D02*
G75*
G02*
X123647876Y-80733682I27J1499966D01*
G01*
X156232480Y-113982191D02*
X159255399Y-115917504D01*
X159255399Y-115917504D02*
X159255399Y-120258682D01*
X156232480Y-120258682D02*
X159255399Y-120258682D01*
X154420613Y-117120437D02*
X156232480Y-120258682D01*
X156232480Y-113982191D02*
X154420613Y-117120437D01*
X159945104Y-116171682D02*
X159945104Y-120258682D01*
X159945104Y-116171682D02*
X163008204Y-116171682D01*
X163008204Y-116171682D02*
X163008204Y-120258682D01*
X159945104Y-120258682D02*
X163008204Y-120258682D01*
X158945287Y-90458682D02*
X161945287Y-90458682D01*
X158945287Y-90458682D02*
G75*
G02*
X157445276Y-88958682I-45J1499966D01*
G01*
X157445287Y-88958682D02*
X157445287Y-84958682D01*
X157445287Y-84958682D02*
G75*
G02*
X158945287Y-83458761I1499955J-34D01*
G01*
X158945287Y-83458682D02*
X161945287Y-83458682D01*
X161945287Y-83458682D02*
G75*
G02*
X163445276Y-84958682I-45J-1500034D01*
G01*
X163445287Y-88958682D02*
X163445287Y-84958682D01*
X163445287Y-88958682D02*
G75*
G02*
X161945287Y-90458761I-1500045J-34D01*
G01*
X152198012Y-90458682D02*
X155198012Y-90458682D01*
X152198012Y-90458682D02*
G75*
G02*
X150698076Y-88958682I30J1499966D01*
G01*
X150698012Y-88958682D02*
X150698012Y-84958682D01*
X150698012Y-84958682D02*
G75*
G02*
X152198012Y-83458686I1500030J-34D01*
G01*
X152198012Y-83458682D02*
X155198012Y-83458682D01*
X155198012Y-83458682D02*
G75*
G02*
X156698076Y-84958682I30J-1500034D01*
G01*
X156698012Y-88958682D02*
X156698012Y-84958682D01*
X156698012Y-88958682D02*
G75*
G02*
X155198012Y-90458686I-1499970J-34D01*
G01*
X175445015Y-93158682D02*
X175445015Y-97158682D01*
X175445015Y-93158682D02*
G75*
G02*
X176945015Y-91658689I1500027J-34D01*
G01*
X176945015Y-91658682D02*
X179945015Y-91658682D01*
X179945015Y-91658682D02*
G75*
G02*
X181109255Y-92212825I27J-1500034D01*
G01*
X121247815Y-77233682D02*
X119310891Y-77233682D01*
X121247815Y-77233682D02*
G75*
G02*
X122747876Y-78733682I27J-1500034D01*
G01*
X122747815Y-80733682D02*
X122747815Y-78733682D01*
X122747815Y-80733682D02*
G75*
G02*
X121247815Y-82233689I-1499973J-34D01*
G01*
X121247815Y-82233682D02*
X119310891Y-82233682D01*
X121247815Y-83358682D02*
X119310891Y-83358682D01*
X121247815Y-83358682D02*
G75*
G02*
X122747876Y-84858682I27J-1500034D01*
G01*
X122747815Y-88958682D02*
X122747815Y-84858682D01*
X122747815Y-88958682D02*
G75*
G02*
X121247815Y-90458689I-1499973J-34D01*
G01*
X121247815Y-90458682D02*
X119310891Y-90458682D01*
X124745015Y-99858682D02*
X119310891Y-99858682D01*
X124745015Y-99858682D02*
G75*
G02*
X126245076Y-101358682I27J-1500034D01*
G01*
X126245015Y-101358682D02*
X126245015Y-105358682D01*
X126245015Y-105358682D02*
G75*
G02*
X124745015Y-106858689I-1499973J-34D01*
G01*
X124745015Y-106858682D02*
X119310891Y-106858682D01*
X124745015Y-108058682D02*
X119310891Y-108058682D01*
X124745015Y-108058682D02*
G75*
G02*
X126245076Y-109558682I27J-1500034D01*
G01*
X126245015Y-112870448D02*
X126245015Y-109558682D01*
X126245015Y-112870448D02*
G75*
G02*
X124204068Y-114269439I-1499973J32D01*
G01*
X124204044Y-114269501D02*
X119310891Y-112377468D01*
X181109229Y-113457289D02*
X177125585Y-114542599D01*
X177125585Y-114542599D02*
G75*
G02*
X175231323Y-113095348I-394243J1447283D01*
G01*
X175231293Y-113095348D02*
X175231293Y-109558682D01*
X175231293Y-109558682D02*
G75*
G02*
X176731293Y-108058667I1500049J-34D01*
G01*
X176731293Y-108058682D02*
X181109229Y-108058682D01*
X181109229Y-106858682D02*
X181109229Y-108058682D01*
X176731293Y-106858682D02*
X181109229Y-106858682D01*
X176731293Y-106858682D02*
G75*
G02*
X175231376Y-105358682I49J1499966D01*
G01*
X175231293Y-101358682D02*
X175231293Y-105358682D01*
X175231293Y-101358682D02*
G75*
G02*
X176731293Y-99858667I1500049J-34D01*
G01*
X176731293Y-99858682D02*
X181109229Y-99858682D01*
X181109229Y-98104518D02*
X181109229Y-99858682D01*
X181109229Y-98104518D02*
G75*
G02*
X179945015Y-98658674I-1164187J945802D01*
G01*
X176945015Y-98658682D02*
X179945015Y-98658682D01*
X176945015Y-98658682D02*
G75*
G02*
X175445076Y-97158682I27J1499966D01*
G01*
X172439836Y-90458682D02*
X175439836Y-90458682D01*
X172439836Y-90458682D02*
G75*
G02*
X170939876Y-88958682I6J1499966D01*
G01*
X170939836Y-88958682D02*
X170939836Y-84958682D01*
X170939836Y-84958682D02*
G75*
G02*
X172439836Y-83458710I1500006J-34D01*
G01*
X172439836Y-83458682D02*
X175439836Y-83458682D01*
X175439836Y-83458682D02*
G75*
G02*
X176939876Y-84958682I6J-1500034D01*
G01*
X176939836Y-88958682D02*
X176939836Y-84958682D01*
X176939836Y-88958682D02*
G75*
G02*
X175439836Y-90458710I-1499994J-34D01*
G01*
X165692561Y-90458682D02*
X168692561Y-90458682D01*
X165692561Y-90458682D02*
G75*
G02*
X164192576Y-88958682I-19J1499966D01*
G01*
X164192561Y-88958682D02*
X164192561Y-84958682D01*
X164192561Y-84958682D02*
G75*
G02*
X165692561Y-83458735I1499981J-34D01*
G01*
X165692561Y-83458682D02*
X168692561Y-83458682D01*
X168692561Y-83458682D02*
G75*
G02*
X170192576Y-84958682I-19J-1500034D01*
G01*
X170192561Y-88958682D02*
X170192561Y-84958682D01*
X170192561Y-88958682D02*
G75*
G02*
X168692561Y-90458735I-1500019J-34D01*
G01*
X119310891Y-112377468D02*
X117928644Y-111842996D01*
X117928644Y-111842996D02*
G75*
G02*
X116969607Y-110443942I540998J1399080D01*
G01*
X116969615Y-109558682D02*
X116969615Y-110443942D01*
X116969615Y-109558682D02*
G75*
G02*
X118469615Y-108058689I1500027J-34D01*
G01*
X119310891Y-108058682D02*
X118469615Y-108058682D01*
X119310891Y-106858682D02*
X119310891Y-108058682D01*
X119310891Y-106858682D02*
X118469615Y-106858682D01*
X118469615Y-106858682D02*
G75*
G02*
X116969676Y-105358682I27J1499966D01*
G01*
X116969615Y-101358682D02*
X116969615Y-105358682D01*
X116969615Y-101358682D02*
G75*
G02*
X118469615Y-99858689I1500027J-34D01*
G01*
X119310891Y-99858682D02*
X118469615Y-99858682D01*
X119310891Y-90458682D02*
X119310891Y-99858682D01*
X119310891Y-90458682D02*
X118469615Y-90458682D01*
X118469615Y-90458682D02*
G75*
G02*
X116969676Y-88958682I27J1499966D01*
G01*
X116969615Y-88958682D02*
X116969615Y-84858682D01*
X116969615Y-84858682D02*
G75*
G02*
X118469615Y-83358689I1500027J-34D01*
G01*
X119310891Y-83358682D02*
X118469615Y-83358682D01*
X119310891Y-82233682D02*
X119310891Y-83358682D01*
X119310891Y-82233682D02*
X118469615Y-82233682D01*
X118469615Y-82233682D02*
G75*
G02*
X116969676Y-80733682I27J1499966D01*
G01*
X116969615Y-80733682D02*
X116969615Y-78733682D01*
X116969615Y-78733682D02*
G75*
G02*
X118469615Y-77233689I1500027J-34D01*
G01*
X119310891Y-77233682D02*
X118469615Y-77233682D01*
D12*
X155353570Y-108520805D02*
X155353570Y-109573186D01*
X155353570Y-109573186D02*
X155415475Y-109696996D01*
X155415475Y-109696996D02*
X155477380Y-109758901D01*
X155477380Y-109758901D02*
X155601189Y-109820805D01*
X155601189Y-109820805D02*
X155848808Y-109820805D01*
X155848808Y-109820805D02*
X155972618Y-109758901D01*
X155972618Y-109758901D02*
X156034523Y-109696996D01*
X156034523Y-109696996D02*
X156096427Y-109573186D01*
X156096427Y-109573186D02*
X156096427Y-108520805D01*
X156715475Y-109820805D02*
X156715475Y-108520805D01*
X156715475Y-108520805D02*
X157210713Y-108520805D01*
X157210713Y-108520805D02*
X157334523Y-108582710D01*
X157334523Y-108582710D02*
X157396428Y-108644615D01*
X157396428Y-108644615D02*
X157458332Y-108768424D01*
X157458332Y-108768424D02*
X157458332Y-108954139D01*
X157458332Y-108954139D02*
X157396428Y-109077948D01*
X157396428Y-109077948D02*
X157334523Y-109139853D01*
X157334523Y-109139853D02*
X157210713Y-109201758D01*
X157210713Y-109201758D02*
X156715475Y-109201758D01*
D13*
X143138814Y-98529819D02*
X143138814Y-97529819D01*
X143138814Y-97529819D02*
X143376909Y-97529819D01*
X143376909Y-97529819D02*
X143519766Y-97577438D01*
X143519766Y-97577438D02*
X143615004Y-97672676D01*
X143615004Y-97672676D02*
X143662623Y-97767914D01*
X143662623Y-97767914D02*
X143710242Y-97958390D01*
X143710242Y-97958390D02*
X143710242Y-98101247D01*
X143710242Y-98101247D02*
X143662623Y-98291723D01*
X143662623Y-98291723D02*
X143615004Y-98386961D01*
X143615004Y-98386961D02*
X143519766Y-98482200D01*
X143519766Y-98482200D02*
X143376909Y-98529819D01*
X143376909Y-98529819D02*
X143138814Y-98529819D01*
X144091195Y-97625057D02*
X144138814Y-97577438D01*
X144138814Y-97577438D02*
X144234052Y-97529819D01*
X144234052Y-97529819D02*
X144472147Y-97529819D01*
X144472147Y-97529819D02*
X144567385Y-97577438D01*
X144567385Y-97577438D02*
X144615004Y-97625057D01*
X144615004Y-97625057D02*
X144662623Y-97720295D01*
X144662623Y-97720295D02*
X144662623Y-97815533D01*
X144662623Y-97815533D02*
X144615004Y-97958390D01*
X144615004Y-97958390D02*
X144043576Y-98529819D01*
X144043576Y-98529819D02*
X144662623Y-98529819D01*
X145281671Y-97529819D02*
X145376909Y-97529819D01*
X145376909Y-97529819D02*
X145472147Y-97577438D01*
X145472147Y-97577438D02*
X145519766Y-97625057D01*
X145519766Y-97625057D02*
X145567385Y-97720295D01*
X145567385Y-97720295D02*
X145615004Y-97910771D01*
X145615004Y-97910771D02*
X145615004Y-98148866D01*
X145615004Y-98148866D02*
X145567385Y-98339342D01*
X145567385Y-98339342D02*
X145519766Y-98434580D01*
X145519766Y-98434580D02*
X145472147Y-98482200D01*
X145472147Y-98482200D02*
X145376909Y-98529819D01*
X145376909Y-98529819D02*
X145281671Y-98529819D01*
X145281671Y-98529819D02*
X145186433Y-98482200D01*
X145186433Y-98482200D02*
X145138814Y-98434580D01*
X145138814Y-98434580D02*
X145091195Y-98339342D01*
X145091195Y-98339342D02*
X145043576Y-98148866D01*
X145043576Y-98148866D02*
X145043576Y-97910771D01*
X145043576Y-97910771D02*
X145091195Y-97720295D01*
X145091195Y-97720295D02*
X145138814Y-97625057D01*
X145138814Y-97625057D02*
X145186433Y-97577438D01*
X145186433Y-97577438D02*
X145281671Y-97529819D01*
X170010714Y-113654819D02*
X170010714Y-112654819D01*
X170010714Y-112654819D02*
X170248809Y-112654819D01*
X170248809Y-112654819D02*
X170391666Y-112702438D01*
X170391666Y-112702438D02*
X170486904Y-112797676D01*
X170486904Y-112797676D02*
X170534523Y-112892914D01*
X170534523Y-112892914D02*
X170582142Y-113083390D01*
X170582142Y-113083390D02*
X170582142Y-113226247D01*
X170582142Y-113226247D02*
X170534523Y-113416723D01*
X170534523Y-113416723D02*
X170486904Y-113511961D01*
X170486904Y-113511961D02*
X170391666Y-113607200D01*
X170391666Y-113607200D02*
X170248809Y-113654819D01*
X170248809Y-113654819D02*
X170010714Y-113654819D01*
X171486904Y-112654819D02*
X171010714Y-112654819D01*
X171010714Y-112654819D02*
X170963095Y-113131009D01*
X170963095Y-113131009D02*
X171010714Y-113083390D01*
X171010714Y-113083390D02*
X171105952Y-113035771D01*
X171105952Y-113035771D02*
X171344047Y-113035771D01*
X171344047Y-113035771D02*
X171439285Y-113083390D01*
X171439285Y-113083390D02*
X171486904Y-113131009D01*
X171486904Y-113131009D02*
X171534523Y-113226247D01*
X171534523Y-113226247D02*
X171534523Y-113464342D01*
X171534523Y-113464342D02*
X171486904Y-113559580D01*
X171486904Y-113559580D02*
X171439285Y-113607200D01*
X171439285Y-113607200D02*
X171344047Y-113654819D01*
X171344047Y-113654819D02*
X171105952Y-113654819D01*
X171105952Y-113654819D02*
X171010714Y-113607200D01*
X171010714Y-113607200D02*
X170963095Y-113559580D01*
X171915476Y-112750057D02*
X171963095Y-112702438D01*
X171963095Y-112702438D02*
X172058333Y-112654819D01*
X172058333Y-112654819D02*
X172296428Y-112654819D01*
X172296428Y-112654819D02*
X172391666Y-112702438D01*
X172391666Y-112702438D02*
X172439285Y-112750057D01*
X172439285Y-112750057D02*
X172486904Y-112845295D01*
X172486904Y-112845295D02*
X172486904Y-112940533D01*
X172486904Y-112940533D02*
X172439285Y-113083390D01*
X172439285Y-113083390D02*
X171867857Y-113654819D01*
X171867857Y-113654819D02*
X172486904Y-113654819D01*
D12*
X160088571Y-84005804D02*
X160088571Y-85058185D01*
X160088571Y-85058185D02*
X160150476Y-85181995D01*
X160150476Y-85181995D02*
X160212381Y-85243900D01*
X160212381Y-85243900D02*
X160336190Y-85305804D01*
X160336190Y-85305804D02*
X160583809Y-85305804D01*
X160583809Y-85305804D02*
X160707619Y-85243900D01*
X160707619Y-85243900D02*
X160769524Y-85181995D01*
X160769524Y-85181995D02*
X160831428Y-85058185D01*
X160831428Y-85058185D02*
X160831428Y-84005804D01*
X149966666Y-100310804D02*
X150399999Y-101610804D01*
X150399999Y-101610804D02*
X150833333Y-100310804D01*
D13*
X141086905Y-109279819D02*
X141086905Y-108279819D01*
X141086905Y-108279819D02*
X141325000Y-108279819D01*
X141325000Y-108279819D02*
X141467857Y-108327438D01*
X141467857Y-108327438D02*
X141563095Y-108422676D01*
X141563095Y-108422676D02*
X141610714Y-108517914D01*
X141610714Y-108517914D02*
X141658333Y-108708390D01*
X141658333Y-108708390D02*
X141658333Y-108851247D01*
X141658333Y-108851247D02*
X141610714Y-109041723D01*
X141610714Y-109041723D02*
X141563095Y-109136961D01*
X141563095Y-109136961D02*
X141467857Y-109232200D01*
X141467857Y-109232200D02*
X141325000Y-109279819D01*
X141325000Y-109279819D02*
X141086905Y-109279819D01*
X142515476Y-108613152D02*
X142515476Y-109279819D01*
X142277381Y-108232200D02*
X142039286Y-108946485D01*
X142039286Y-108946485D02*
X142658333Y-108946485D01*
X117308095Y-116714819D02*
X117308095Y-115714819D01*
X117308095Y-116191009D02*
X117879523Y-116191009D01*
X117879523Y-116714819D02*
X117879523Y-115714819D01*
X118308095Y-115810057D02*
X118355714Y-115762438D01*
X118355714Y-115762438D02*
X118450952Y-115714819D01*
X118450952Y-115714819D02*
X118689047Y-115714819D01*
X118689047Y-115714819D02*
X118784285Y-115762438D01*
X118784285Y-115762438D02*
X118831904Y-115810057D01*
X118831904Y-115810057D02*
X118879523Y-115905295D01*
X118879523Y-115905295D02*
X118879523Y-116000533D01*
X118879523Y-116000533D02*
X118831904Y-116143390D01*
X118831904Y-116143390D02*
X118260476Y-116714819D01*
X118260476Y-116714819D02*
X118879523Y-116714819D01*
X132682914Y-90104819D02*
X132682914Y-89104819D01*
X132682914Y-89104819D02*
X132921009Y-89104819D01*
X132921009Y-89104819D02*
X133063866Y-89152438D01*
X133063866Y-89152438D02*
X133159104Y-89247676D01*
X133159104Y-89247676D02*
X133206723Y-89342914D01*
X133206723Y-89342914D02*
X133254342Y-89533390D01*
X133254342Y-89533390D02*
X133254342Y-89676247D01*
X133254342Y-89676247D02*
X133206723Y-89866723D01*
X133206723Y-89866723D02*
X133159104Y-89961961D01*
X133159104Y-89961961D02*
X133063866Y-90057200D01*
X133063866Y-90057200D02*
X132921009Y-90104819D01*
X132921009Y-90104819D02*
X132682914Y-90104819D01*
X134206723Y-90104819D02*
X133635295Y-90104819D01*
X133921009Y-90104819D02*
X133921009Y-89104819D01*
X133921009Y-89104819D02*
X133825771Y-89247676D01*
X133825771Y-89247676D02*
X133730533Y-89342914D01*
X133730533Y-89342914D02*
X133635295Y-89390533D01*
X135111485Y-89104819D02*
X134635295Y-89104819D01*
X134635295Y-89104819D02*
X134587676Y-89581009D01*
X134587676Y-89581009D02*
X134635295Y-89533390D01*
X134635295Y-89533390D02*
X134730533Y-89485771D01*
X134730533Y-89485771D02*
X134968628Y-89485771D01*
X134968628Y-89485771D02*
X135063866Y-89533390D01*
X135063866Y-89533390D02*
X135111485Y-89581009D01*
X135111485Y-89581009D02*
X135159104Y-89676247D01*
X135159104Y-89676247D02*
X135159104Y-89914342D01*
X135159104Y-89914342D02*
X135111485Y-90009580D01*
X135111485Y-90009580D02*
X135063866Y-90057200D01*
X135063866Y-90057200D02*
X134968628Y-90104819D01*
X134968628Y-90104819D02*
X134730533Y-90104819D01*
X134730533Y-90104819D02*
X134635295Y-90057200D01*
X134635295Y-90057200D02*
X134587676Y-90009580D01*
D12*
X171046668Y-118815804D02*
X170613335Y-118196757D01*
X170303811Y-118815804D02*
X170303811Y-117515804D01*
X170303811Y-117515804D02*
X170799049Y-117515804D01*
X170799049Y-117515804D02*
X170922859Y-117577709D01*
X170922859Y-117577709D02*
X170984764Y-117639614D01*
X170984764Y-117639614D02*
X171046668Y-117763423D01*
X171046668Y-117763423D02*
X171046668Y-117949138D01*
X171046668Y-117949138D02*
X170984764Y-118072947D01*
X170984764Y-118072947D02*
X170922859Y-118134852D01*
X170922859Y-118134852D02*
X170799049Y-118196757D01*
X170799049Y-118196757D02*
X170303811Y-118196757D01*
X171603811Y-118815804D02*
X171603811Y-117515804D01*
X172903812Y-117577709D02*
X172780002Y-117515804D01*
X172780002Y-117515804D02*
X172594288Y-117515804D01*
X172594288Y-117515804D02*
X172408574Y-117577709D01*
X172408574Y-117577709D02*
X172284764Y-117701519D01*
X172284764Y-117701519D02*
X172222859Y-117825328D01*
X172222859Y-117825328D02*
X172160955Y-118072947D01*
X172160955Y-118072947D02*
X172160955Y-118258661D01*
X172160955Y-118258661D02*
X172222859Y-118506280D01*
X172222859Y-118506280D02*
X172284764Y-118630090D01*
X172284764Y-118630090D02*
X172408574Y-118753900D01*
X172408574Y-118753900D02*
X172594288Y-118815804D01*
X172594288Y-118815804D02*
X172718097Y-118815804D01*
X172718097Y-118815804D02*
X172903812Y-118753900D01*
X172903812Y-118753900D02*
X172965716Y-118691995D01*
X172965716Y-118691995D02*
X172965716Y-118258661D01*
X172965716Y-118258661D02*
X172718097Y-118258661D01*
X173522859Y-118815804D02*
X173522859Y-117515804D01*
X173522859Y-118134852D02*
X174265716Y-118134852D01*
X174265716Y-118815804D02*
X174265716Y-117515804D01*
X174699050Y-117515804D02*
X175441907Y-117515804D01*
X175070479Y-118815804D02*
X175070479Y-117515804D01*
X119090952Y-106776995D02*
X119029048Y-106838900D01*
X119029048Y-106838900D02*
X118843333Y-106900804D01*
X118843333Y-106900804D02*
X118719524Y-106900804D01*
X118719524Y-106900804D02*
X118533810Y-106838900D01*
X118533810Y-106838900D02*
X118410000Y-106715090D01*
X118410000Y-106715090D02*
X118348095Y-106591280D01*
X118348095Y-106591280D02*
X118286191Y-106343661D01*
X118286191Y-106343661D02*
X118286191Y-106157947D01*
X118286191Y-106157947D02*
X118348095Y-105910328D01*
X118348095Y-105910328D02*
X118410000Y-105786519D01*
X118410000Y-105786519D02*
X118533810Y-105662709D01*
X118533810Y-105662709D02*
X118719524Y-105600804D01*
X118719524Y-105600804D02*
X118843333Y-105600804D01*
X118843333Y-105600804D02*
X119029048Y-105662709D01*
X119029048Y-105662709D02*
X119090952Y-105724614D01*
X119462381Y-105600804D02*
X120205238Y-105600804D01*
X119833810Y-106900804D02*
X119833810Y-105600804D01*
X121381428Y-106900804D02*
X120948095Y-106281757D01*
X120638571Y-106900804D02*
X120638571Y-105600804D01*
X120638571Y-105600804D02*
X121133809Y-105600804D01*
X121133809Y-105600804D02*
X121257619Y-105662709D01*
X121257619Y-105662709D02*
X121319524Y-105724614D01*
X121319524Y-105724614D02*
X121381428Y-105848423D01*
X121381428Y-105848423D02*
X121381428Y-106034138D01*
X121381428Y-106034138D02*
X121319524Y-106157947D01*
X121319524Y-106157947D02*
X121257619Y-106219852D01*
X121257619Y-106219852D02*
X121133809Y-106281757D01*
X121133809Y-106281757D02*
X120638571Y-106281757D01*
X122557619Y-106900804D02*
X121938571Y-106900804D01*
X121938571Y-106900804D02*
X121938571Y-105600804D01*
X153182381Y-119395804D02*
X152563333Y-119395804D01*
X152563333Y-119395804D02*
X152563333Y-118095804D01*
D13*
X149731514Y-106429819D02*
X149731514Y-105429819D01*
X149731514Y-105429819D02*
X149969609Y-105429819D01*
X149969609Y-105429819D02*
X150112466Y-105477438D01*
X150112466Y-105477438D02*
X150207704Y-105572676D01*
X150207704Y-105572676D02*
X150255323Y-105667914D01*
X150255323Y-105667914D02*
X150302942Y-105858390D01*
X150302942Y-105858390D02*
X150302942Y-106001247D01*
X150302942Y-106001247D02*
X150255323Y-106191723D01*
X150255323Y-106191723D02*
X150207704Y-106286961D01*
X150207704Y-106286961D02*
X150112466Y-106382200D01*
X150112466Y-106382200D02*
X149969609Y-106429819D01*
X149969609Y-106429819D02*
X149731514Y-106429819D01*
X150683895Y-105525057D02*
X150731514Y-105477438D01*
X150731514Y-105477438D02*
X150826752Y-105429819D01*
X150826752Y-105429819D02*
X151064847Y-105429819D01*
X151064847Y-105429819D02*
X151160085Y-105477438D01*
X151160085Y-105477438D02*
X151207704Y-105525057D01*
X151207704Y-105525057D02*
X151255323Y-105620295D01*
X151255323Y-105620295D02*
X151255323Y-105715533D01*
X151255323Y-105715533D02*
X151207704Y-105858390D01*
X151207704Y-105858390D02*
X150636276Y-106429819D01*
X150636276Y-106429819D02*
X151255323Y-106429819D01*
X152207704Y-106429819D02*
X151636276Y-106429819D01*
X151921990Y-106429819D02*
X151921990Y-105429819D01*
X151921990Y-105429819D02*
X151826752Y-105572676D01*
X151826752Y-105572676D02*
X151731514Y-105667914D01*
X151731514Y-105667914D02*
X151636276Y-105715533D01*
X156857614Y-98529819D02*
X156857614Y-97529819D01*
X156857614Y-97529819D02*
X157095709Y-97529819D01*
X157095709Y-97529819D02*
X157238566Y-97577438D01*
X157238566Y-97577438D02*
X157333804Y-97672676D01*
X157333804Y-97672676D02*
X157381423Y-97767914D01*
X157381423Y-97767914D02*
X157429042Y-97958390D01*
X157429042Y-97958390D02*
X157429042Y-98101247D01*
X157429042Y-98101247D02*
X157381423Y-98291723D01*
X157381423Y-98291723D02*
X157333804Y-98386961D01*
X157333804Y-98386961D02*
X157238566Y-98482200D01*
X157238566Y-98482200D02*
X157095709Y-98529819D01*
X157095709Y-98529819D02*
X156857614Y-98529819D01*
X157809995Y-97625057D02*
X157857614Y-97577438D01*
X157857614Y-97577438D02*
X157952852Y-97529819D01*
X157952852Y-97529819D02*
X158190947Y-97529819D01*
X158190947Y-97529819D02*
X158286185Y-97577438D01*
X158286185Y-97577438D02*
X158333804Y-97625057D01*
X158333804Y-97625057D02*
X158381423Y-97720295D01*
X158381423Y-97720295D02*
X158381423Y-97815533D01*
X158381423Y-97815533D02*
X158333804Y-97958390D01*
X158333804Y-97958390D02*
X157762376Y-98529819D01*
X157762376Y-98529819D02*
X158381423Y-98529819D01*
X159238566Y-97529819D02*
X159048090Y-97529819D01*
X159048090Y-97529819D02*
X158952852Y-97577438D01*
X158952852Y-97577438D02*
X158905233Y-97625057D01*
X158905233Y-97625057D02*
X158809995Y-97767914D01*
X158809995Y-97767914D02*
X158762376Y-97958390D01*
X158762376Y-97958390D02*
X158762376Y-98339342D01*
X158762376Y-98339342D02*
X158809995Y-98434580D01*
X158809995Y-98434580D02*
X158857614Y-98482200D01*
X158857614Y-98482200D02*
X158952852Y-98529819D01*
X158952852Y-98529819D02*
X159143328Y-98529819D01*
X159143328Y-98529819D02*
X159238566Y-98482200D01*
X159238566Y-98482200D02*
X159286185Y-98434580D01*
X159286185Y-98434580D02*
X159333804Y-98339342D01*
X159333804Y-98339342D02*
X159333804Y-98101247D01*
X159333804Y-98101247D02*
X159286185Y-98006009D01*
X159286185Y-98006009D02*
X159238566Y-97958390D01*
X159238566Y-97958390D02*
X159143328Y-97910771D01*
X159143328Y-97910771D02*
X158952852Y-97910771D01*
X158952852Y-97910771D02*
X158857614Y-97958390D01*
X158857614Y-97958390D02*
X158809995Y-98006009D01*
X158809995Y-98006009D02*
X158762376Y-98101247D01*
X173999614Y-90179819D02*
X173999614Y-89179819D01*
X173999614Y-89179819D02*
X174237709Y-89179819D01*
X174237709Y-89179819D02*
X174380566Y-89227438D01*
X174380566Y-89227438D02*
X174475804Y-89322676D01*
X174475804Y-89322676D02*
X174523423Y-89417914D01*
X174523423Y-89417914D02*
X174571042Y-89608390D01*
X174571042Y-89608390D02*
X174571042Y-89751247D01*
X174571042Y-89751247D02*
X174523423Y-89941723D01*
X174523423Y-89941723D02*
X174475804Y-90036961D01*
X174475804Y-90036961D02*
X174380566Y-90132200D01*
X174380566Y-90132200D02*
X174237709Y-90179819D01*
X174237709Y-90179819D02*
X173999614Y-90179819D01*
X175428185Y-89513152D02*
X175428185Y-90179819D01*
X175190090Y-89132200D02*
X174951995Y-89846485D01*
X174951995Y-89846485D02*
X175571042Y-89846485D01*
X175856757Y-89179819D02*
X176475804Y-89179819D01*
X176475804Y-89179819D02*
X176142471Y-89560771D01*
X176142471Y-89560771D02*
X176285328Y-89560771D01*
X176285328Y-89560771D02*
X176380566Y-89608390D01*
X176380566Y-89608390D02*
X176428185Y-89656009D01*
X176428185Y-89656009D02*
X176475804Y-89751247D01*
X176475804Y-89751247D02*
X176475804Y-89989342D01*
X176475804Y-89989342D02*
X176428185Y-90084580D01*
X176428185Y-90084580D02*
X176380566Y-90132200D01*
X176380566Y-90132200D02*
X176285328Y-90179819D01*
X176285328Y-90179819D02*
X175999614Y-90179819D01*
X175999614Y-90179819D02*
X175904376Y-90132200D01*
X175904376Y-90132200D02*
X175856757Y-90084580D01*
X135942614Y-106604819D02*
X135942614Y-105604819D01*
X135942614Y-105604819D02*
X136180709Y-105604819D01*
X136180709Y-105604819D02*
X136323566Y-105652438D01*
X136323566Y-105652438D02*
X136418804Y-105747676D01*
X136418804Y-105747676D02*
X136466423Y-105842914D01*
X136466423Y-105842914D02*
X136514042Y-106033390D01*
X136514042Y-106033390D02*
X136514042Y-106176247D01*
X136514042Y-106176247D02*
X136466423Y-106366723D01*
X136466423Y-106366723D02*
X136418804Y-106461961D01*
X136418804Y-106461961D02*
X136323566Y-106557200D01*
X136323566Y-106557200D02*
X136180709Y-106604819D01*
X136180709Y-106604819D02*
X135942614Y-106604819D01*
X137466423Y-106604819D02*
X136894995Y-106604819D01*
X137180709Y-106604819D02*
X137180709Y-105604819D01*
X137180709Y-105604819D02*
X137085471Y-105747676D01*
X137085471Y-105747676D02*
X136990233Y-105842914D01*
X136990233Y-105842914D02*
X136894995Y-105890533D01*
X138323566Y-105938152D02*
X138323566Y-106604819D01*
X138085471Y-105557200D02*
X137847376Y-106271485D01*
X137847376Y-106271485D02*
X138466423Y-106271485D01*
D12*
X176992144Y-107694852D02*
X177425478Y-107694852D01*
X177611192Y-108375804D02*
X176992144Y-108375804D01*
X176992144Y-108375804D02*
X176992144Y-107075804D01*
X176992144Y-107075804D02*
X177611192Y-107075804D01*
X178168334Y-108375804D02*
X178168334Y-107075804D01*
X178168334Y-107075804D02*
X178911191Y-108375804D01*
X178911191Y-108375804D02*
X178911191Y-107075804D01*
X179344525Y-107075804D02*
X180087382Y-107075804D01*
X179715954Y-108375804D02*
X179715954Y-107075804D01*
X180520715Y-107694852D02*
X180954049Y-107694852D01*
X181139763Y-108375804D02*
X180520715Y-108375804D01*
X180520715Y-108375804D02*
X180520715Y-107075804D01*
X180520715Y-107075804D02*
X181139763Y-107075804D01*
X182439762Y-108375804D02*
X182006429Y-107756757D01*
X181696905Y-108375804D02*
X181696905Y-107075804D01*
X181696905Y-107075804D02*
X182192143Y-107075804D01*
X182192143Y-107075804D02*
X182315953Y-107137709D01*
X182315953Y-107137709D02*
X182377858Y-107199614D01*
X182377858Y-107199614D02*
X182439762Y-107323423D01*
X182439762Y-107323423D02*
X182439762Y-107509138D01*
X182439762Y-107509138D02*
X182377858Y-107632947D01*
X182377858Y-107632947D02*
X182315953Y-107694852D01*
X182315953Y-107694852D02*
X182192143Y-107756757D01*
X182192143Y-107756757D02*
X181696905Y-107756757D01*
D13*
X142837114Y-106554819D02*
X142837114Y-105554819D01*
X142837114Y-105554819D02*
X143075209Y-105554819D01*
X143075209Y-105554819D02*
X143218066Y-105602438D01*
X143218066Y-105602438D02*
X143313304Y-105697676D01*
X143313304Y-105697676D02*
X143360923Y-105792914D01*
X143360923Y-105792914D02*
X143408542Y-105983390D01*
X143408542Y-105983390D02*
X143408542Y-106126247D01*
X143408542Y-106126247D02*
X143360923Y-106316723D01*
X143360923Y-106316723D02*
X143313304Y-106411961D01*
X143313304Y-106411961D02*
X143218066Y-106507200D01*
X143218066Y-106507200D02*
X143075209Y-106554819D01*
X143075209Y-106554819D02*
X142837114Y-106554819D01*
X144360923Y-106554819D02*
X143789495Y-106554819D01*
X144075209Y-106554819D02*
X144075209Y-105554819D01*
X144075209Y-105554819D02*
X143979971Y-105697676D01*
X143979971Y-105697676D02*
X143884733Y-105792914D01*
X143884733Y-105792914D02*
X143789495Y-105840533D01*
X144694257Y-105554819D02*
X145360923Y-105554819D01*
X145360923Y-105554819D02*
X144932352Y-106554819D01*
D12*
X170698823Y-93560804D02*
X170698823Y-92260804D01*
X171441680Y-93560804D02*
X170884538Y-92817947D01*
X171441680Y-92260804D02*
X170698823Y-93003661D01*
D13*
X160300714Y-106064818D02*
X160300714Y-105064818D01*
X160300714Y-105064818D02*
X160538809Y-105064818D01*
X160538809Y-105064818D02*
X160681666Y-105112437D01*
X160681666Y-105112437D02*
X160776904Y-105207675D01*
X160776904Y-105207675D02*
X160824523Y-105302913D01*
X160824523Y-105302913D02*
X160872142Y-105493389D01*
X160872142Y-105493389D02*
X160872142Y-105636246D01*
X160872142Y-105636246D02*
X160824523Y-105826722D01*
X160824523Y-105826722D02*
X160776904Y-105921960D01*
X160776904Y-105921960D02*
X160681666Y-106017199D01*
X160681666Y-106017199D02*
X160538809Y-106064818D01*
X160538809Y-106064818D02*
X160300714Y-106064818D01*
X161253095Y-105160056D02*
X161300714Y-105112437D01*
X161300714Y-105112437D02*
X161395952Y-105064818D01*
X161395952Y-105064818D02*
X161634047Y-105064818D01*
X161634047Y-105064818D02*
X161729285Y-105112437D01*
X161729285Y-105112437D02*
X161776904Y-105160056D01*
X161776904Y-105160056D02*
X161824523Y-105255294D01*
X161824523Y-105255294D02*
X161824523Y-105350532D01*
X161824523Y-105350532D02*
X161776904Y-105493389D01*
X161776904Y-105493389D02*
X161205476Y-106064818D01*
X161205476Y-106064818D02*
X161824523Y-106064818D01*
X162205476Y-105160056D02*
X162253095Y-105112437D01*
X162253095Y-105112437D02*
X162348333Y-105064818D01*
X162348333Y-105064818D02*
X162586428Y-105064818D01*
X162586428Y-105064818D02*
X162681666Y-105112437D01*
X162681666Y-105112437D02*
X162729285Y-105160056D01*
X162729285Y-105160056D02*
X162776904Y-105255294D01*
X162776904Y-105255294D02*
X162776904Y-105350532D01*
X162776904Y-105350532D02*
X162729285Y-105493389D01*
X162729285Y-105493389D02*
X162157857Y-106064818D01*
X162157857Y-106064818D02*
X162776904Y-106064818D01*
X163520414Y-106329819D02*
X163520414Y-105329819D01*
X163520414Y-105329819D02*
X163758509Y-105329819D01*
X163758509Y-105329819D02*
X163901366Y-105377438D01*
X163901366Y-105377438D02*
X163996604Y-105472676D01*
X163996604Y-105472676D02*
X164044223Y-105567914D01*
X164044223Y-105567914D02*
X164091842Y-105758390D01*
X164091842Y-105758390D02*
X164091842Y-105901247D01*
X164091842Y-105901247D02*
X164044223Y-106091723D01*
X164044223Y-106091723D02*
X163996604Y-106186961D01*
X163996604Y-106186961D02*
X163901366Y-106282200D01*
X163901366Y-106282200D02*
X163758509Y-106329819D01*
X163758509Y-106329819D02*
X163520414Y-106329819D01*
X164472795Y-105425057D02*
X164520414Y-105377438D01*
X164520414Y-105377438D02*
X164615652Y-105329819D01*
X164615652Y-105329819D02*
X164853747Y-105329819D01*
X164853747Y-105329819D02*
X164948985Y-105377438D01*
X164948985Y-105377438D02*
X164996604Y-105425057D01*
X164996604Y-105425057D02*
X165044223Y-105520295D01*
X165044223Y-105520295D02*
X165044223Y-105615533D01*
X165044223Y-105615533D02*
X164996604Y-105758390D01*
X164996604Y-105758390D02*
X164425176Y-106329819D01*
X164425176Y-106329819D02*
X165044223Y-106329819D01*
X165377557Y-105329819D02*
X166044223Y-105329819D01*
X166044223Y-105329819D02*
X165615652Y-106329819D01*
X170576314Y-98379819D02*
X170576314Y-97379819D01*
X170576314Y-97379819D02*
X170814409Y-97379819D01*
X170814409Y-97379819D02*
X170957266Y-97427438D01*
X170957266Y-97427438D02*
X171052504Y-97522676D01*
X171052504Y-97522676D02*
X171100123Y-97617914D01*
X171100123Y-97617914D02*
X171147742Y-97808390D01*
X171147742Y-97808390D02*
X171147742Y-97951247D01*
X171147742Y-97951247D02*
X171100123Y-98141723D01*
X171100123Y-98141723D02*
X171052504Y-98236961D01*
X171052504Y-98236961D02*
X170957266Y-98332200D01*
X170957266Y-98332200D02*
X170814409Y-98379819D01*
X170814409Y-98379819D02*
X170576314Y-98379819D01*
X172004885Y-97713152D02*
X172004885Y-98379819D01*
X171766790Y-97332200D02*
X171528695Y-98046485D01*
X171528695Y-98046485D02*
X172147742Y-98046485D01*
X173004885Y-97379819D02*
X172528695Y-97379819D01*
X172528695Y-97379819D02*
X172481076Y-97856009D01*
X172481076Y-97856009D02*
X172528695Y-97808390D01*
X172528695Y-97808390D02*
X172623933Y-97760771D01*
X172623933Y-97760771D02*
X172862028Y-97760771D01*
X172862028Y-97760771D02*
X172957266Y-97808390D01*
X172957266Y-97808390D02*
X173004885Y-97856009D01*
X173004885Y-97856009D02*
X173052504Y-97951247D01*
X173052504Y-97951247D02*
X173052504Y-98189342D01*
X173052504Y-98189342D02*
X173004885Y-98284580D01*
X173004885Y-98284580D02*
X172957266Y-98332200D01*
X172957266Y-98332200D02*
X172862028Y-98379819D01*
X172862028Y-98379819D02*
X172623933Y-98379819D01*
X172623933Y-98379819D02*
X172528695Y-98332200D01*
X172528695Y-98332200D02*
X172481076Y-98284580D01*
D12*
X142124968Y-79710804D02*
X142929730Y-79710804D01*
X142929730Y-79710804D02*
X142496396Y-80206042D01*
X142496396Y-80206042D02*
X142682111Y-80206042D01*
X142682111Y-80206042D02*
X142805920Y-80267947D01*
X142805920Y-80267947D02*
X142867825Y-80329852D01*
X142867825Y-80329852D02*
X142929730Y-80453661D01*
X142929730Y-80453661D02*
X142929730Y-80763185D01*
X142929730Y-80763185D02*
X142867825Y-80886995D01*
X142867825Y-80886995D02*
X142805920Y-80948900D01*
X142805920Y-80948900D02*
X142682111Y-81010804D01*
X142682111Y-81010804D02*
X142310682Y-81010804D01*
X142310682Y-81010804D02*
X142186873Y-80948900D01*
X142186873Y-80948900D02*
X142124968Y-80886995D01*
X144997619Y-81239138D02*
X144997619Y-82105804D01*
X144688095Y-80743900D02*
X144378572Y-81672471D01*
X144378572Y-81672471D02*
X145183333Y-81672471D01*
X150702976Y-92322709D02*
X150579166Y-92260804D01*
X150579166Y-92260804D02*
X150393452Y-92260804D01*
X150393452Y-92260804D02*
X150207738Y-92322709D01*
X150207738Y-92322709D02*
X150083928Y-92446519D01*
X150083928Y-92446519D02*
X150022023Y-92570328D01*
X150022023Y-92570328D02*
X149960119Y-92817947D01*
X149960119Y-92817947D02*
X149960119Y-93003661D01*
X149960119Y-93003661D02*
X150022023Y-93251280D01*
X150022023Y-93251280D02*
X150083928Y-93375090D01*
X150083928Y-93375090D02*
X150207738Y-93498900D01*
X150207738Y-93498900D02*
X150393452Y-93560804D01*
X150393452Y-93560804D02*
X150517261Y-93560804D01*
X150517261Y-93560804D02*
X150702976Y-93498900D01*
X150702976Y-93498900D02*
X150764880Y-93436995D01*
X150764880Y-93436995D02*
X150764880Y-93003661D01*
X150764880Y-93003661D02*
X150517261Y-93003661D01*
X136241923Y-93560804D02*
X136241923Y-92260804D01*
X136241923Y-92260804D02*
X136551447Y-92260804D01*
X136551447Y-92260804D02*
X136737161Y-92322709D01*
X136737161Y-92322709D02*
X136860971Y-92446519D01*
X136860971Y-92446519D02*
X136922876Y-92570328D01*
X136922876Y-92570328D02*
X136984780Y-92817947D01*
X136984780Y-92817947D02*
X136984780Y-93003661D01*
X136984780Y-93003661D02*
X136922876Y-93251280D01*
X136922876Y-93251280D02*
X136860971Y-93375090D01*
X136860971Y-93375090D02*
X136737161Y-93498900D01*
X136737161Y-93498900D02*
X136551447Y-93560804D01*
X136551447Y-93560804D02*
X136241923Y-93560804D01*
X157392857Y-100929852D02*
X157578571Y-100991757D01*
X157578571Y-100991757D02*
X157640476Y-101053661D01*
X157640476Y-101053661D02*
X157702380Y-101177471D01*
X157702380Y-101177471D02*
X157702380Y-101363185D01*
X157702380Y-101363185D02*
X157640476Y-101486995D01*
X157640476Y-101486995D02*
X157578571Y-101548900D01*
X157578571Y-101548900D02*
X157454761Y-101610804D01*
X157454761Y-101610804D02*
X156959523Y-101610804D01*
X156959523Y-101610804D02*
X156959523Y-100310804D01*
X156959523Y-100310804D02*
X157392857Y-100310804D01*
X157392857Y-100310804D02*
X157516666Y-100372709D01*
X157516666Y-100372709D02*
X157578571Y-100434614D01*
X157578571Y-100434614D02*
X157640476Y-100558423D01*
X157640476Y-100558423D02*
X157640476Y-100682233D01*
X157640476Y-100682233D02*
X157578571Y-100806042D01*
X157578571Y-100806042D02*
X157516666Y-100867947D01*
X157516666Y-100867947D02*
X157392857Y-100929852D01*
X157392857Y-100929852D02*
X156959523Y-100929852D01*
X159024760Y-121995804D02*
X159024760Y-120695804D01*
X159024760Y-120695804D02*
X159334284Y-120695804D01*
X159334284Y-120695804D02*
X159519998Y-120757709D01*
X159519998Y-120757709D02*
X159643808Y-120881519D01*
X159643808Y-120881519D02*
X159705713Y-121005328D01*
X159705713Y-121005328D02*
X159767617Y-121252947D01*
X159767617Y-121252947D02*
X159767617Y-121438661D01*
X159767617Y-121438661D02*
X159705713Y-121686280D01*
X159705713Y-121686280D02*
X159643808Y-121810090D01*
X159643808Y-121810090D02*
X159519998Y-121933900D01*
X159519998Y-121933900D02*
X159334284Y-121995804D01*
X159334284Y-121995804D02*
X159024760Y-121995804D01*
X160572379Y-120695804D02*
X160819998Y-120695804D01*
X160819998Y-120695804D02*
X160943808Y-120757709D01*
X160943808Y-120757709D02*
X161067617Y-120881519D01*
X161067617Y-120881519D02*
X161129522Y-121129138D01*
X161129522Y-121129138D02*
X161129522Y-121562471D01*
X161129522Y-121562471D02*
X161067617Y-121810090D01*
X161067617Y-121810090D02*
X160943808Y-121933900D01*
X160943808Y-121933900D02*
X160819998Y-121995804D01*
X160819998Y-121995804D02*
X160572379Y-121995804D01*
X160572379Y-121995804D02*
X160448570Y-121933900D01*
X160448570Y-121933900D02*
X160324760Y-121810090D01*
X160324760Y-121810090D02*
X160262856Y-121562471D01*
X160262856Y-121562471D02*
X160262856Y-121129138D01*
X160262856Y-121129138D02*
X160324760Y-120881519D01*
X160324760Y-120881519D02*
X160448570Y-120757709D01*
X160448570Y-120757709D02*
X160572379Y-120695804D01*
X161562856Y-120695804D02*
X161872380Y-121995804D01*
X161872380Y-121995804D02*
X162119999Y-121067233D01*
X162119999Y-121067233D02*
X162367618Y-121995804D01*
X162367618Y-121995804D02*
X162677142Y-120695804D01*
X163172379Y-121995804D02*
X163172379Y-120695804D01*
X163172379Y-120695804D02*
X163915236Y-121995804D01*
X163915236Y-121995804D02*
X163915236Y-120695804D01*
D13*
X122199403Y-98429819D02*
X122199403Y-97429819D01*
X122199403Y-97429819D02*
X122437498Y-97429819D01*
X122437498Y-97429819D02*
X122580355Y-97477438D01*
X122580355Y-97477438D02*
X122675593Y-97572676D01*
X122675593Y-97572676D02*
X122723212Y-97667914D01*
X122723212Y-97667914D02*
X122770831Y-97858390D01*
X122770831Y-97858390D02*
X122770831Y-98001247D01*
X122770831Y-98001247D02*
X122723212Y-98191723D01*
X122723212Y-98191723D02*
X122675593Y-98286961D01*
X122675593Y-98286961D02*
X122580355Y-98382200D01*
X122580355Y-98382200D02*
X122437498Y-98429819D01*
X122437498Y-98429819D02*
X122199403Y-98429819D01*
X123342260Y-97858390D02*
X123247022Y-97810771D01*
X123247022Y-97810771D02*
X123199403Y-97763152D01*
X123199403Y-97763152D02*
X123151784Y-97667914D01*
X123151784Y-97667914D02*
X123151784Y-97620295D01*
X123151784Y-97620295D02*
X123199403Y-97525057D01*
X123199403Y-97525057D02*
X123247022Y-97477438D01*
X123247022Y-97477438D02*
X123342260Y-97429819D01*
X123342260Y-97429819D02*
X123532736Y-97429819D01*
X123532736Y-97429819D02*
X123627974Y-97477438D01*
X123627974Y-97477438D02*
X123675593Y-97525057D01*
X123675593Y-97525057D02*
X123723212Y-97620295D01*
X123723212Y-97620295D02*
X123723212Y-97667914D01*
X123723212Y-97667914D02*
X123675593Y-97763152D01*
X123675593Y-97763152D02*
X123627974Y-97810771D01*
X123627974Y-97810771D02*
X123532736Y-97858390D01*
X123532736Y-97858390D02*
X123342260Y-97858390D01*
X123342260Y-97858390D02*
X123247022Y-97906009D01*
X123247022Y-97906009D02*
X123199403Y-97953628D01*
X123199403Y-97953628D02*
X123151784Y-98048866D01*
X123151784Y-98048866D02*
X123151784Y-98239342D01*
X123151784Y-98239342D02*
X123199403Y-98334580D01*
X123199403Y-98334580D02*
X123247022Y-98382200D01*
X123247022Y-98382200D02*
X123342260Y-98429819D01*
X123342260Y-98429819D02*
X123532736Y-98429819D01*
X123532736Y-98429819D02*
X123627974Y-98382200D01*
X123627974Y-98382200D02*
X123675593Y-98334580D01*
X123675593Y-98334580D02*
X123723212Y-98239342D01*
X123723212Y-98239342D02*
X123723212Y-98048866D01*
X123723212Y-98048866D02*
X123675593Y-97953628D01*
X123675593Y-97953628D02*
X123627974Y-97906009D01*
X123627974Y-97906009D02*
X123532736Y-97858390D01*
D12*
X122565476Y-93089376D02*
X123184523Y-93089376D01*
X122441666Y-93460804D02*
X122874999Y-92160804D01*
X122874999Y-92160804D02*
X123308333Y-93460804D01*
D13*
X136279514Y-98529819D02*
X136279514Y-97529819D01*
X136279514Y-97529819D02*
X136517609Y-97529819D01*
X136517609Y-97529819D02*
X136660466Y-97577438D01*
X136660466Y-97577438D02*
X136755704Y-97672676D01*
X136755704Y-97672676D02*
X136803323Y-97767914D01*
X136803323Y-97767914D02*
X136850942Y-97958390D01*
X136850942Y-97958390D02*
X136850942Y-98101247D01*
X136850942Y-98101247D02*
X136803323Y-98291723D01*
X136803323Y-98291723D02*
X136755704Y-98386961D01*
X136755704Y-98386961D02*
X136660466Y-98482200D01*
X136660466Y-98482200D02*
X136517609Y-98529819D01*
X136517609Y-98529819D02*
X136279514Y-98529819D01*
X137803323Y-98529819D02*
X137231895Y-98529819D01*
X137517609Y-98529819D02*
X137517609Y-97529819D01*
X137517609Y-97529819D02*
X137422371Y-97672676D01*
X137422371Y-97672676D02*
X137327133Y-97767914D01*
X137327133Y-97767914D02*
X137231895Y-97815533D01*
X138660466Y-97529819D02*
X138469990Y-97529819D01*
X138469990Y-97529819D02*
X138374752Y-97577438D01*
X138374752Y-97577438D02*
X138327133Y-97625057D01*
X138327133Y-97625057D02*
X138231895Y-97767914D01*
X138231895Y-97767914D02*
X138184276Y-97958390D01*
X138184276Y-97958390D02*
X138184276Y-98339342D01*
X138184276Y-98339342D02*
X138231895Y-98434580D01*
X138231895Y-98434580D02*
X138279514Y-98482200D01*
X138279514Y-98482200D02*
X138374752Y-98529819D01*
X138374752Y-98529819D02*
X138565228Y-98529819D01*
X138565228Y-98529819D02*
X138660466Y-98482200D01*
X138660466Y-98482200D02*
X138708085Y-98434580D01*
X138708085Y-98434580D02*
X138755704Y-98339342D01*
X138755704Y-98339342D02*
X138755704Y-98101247D01*
X138755704Y-98101247D02*
X138708085Y-98006009D01*
X138708085Y-98006009D02*
X138660466Y-97958390D01*
X138660466Y-97958390D02*
X138565228Y-97910771D01*
X138565228Y-97910771D02*
X138374752Y-97910771D01*
X138374752Y-97910771D02*
X138279514Y-97958390D01*
X138279514Y-97958390D02*
X138231895Y-98006009D01*
X138231895Y-98006009D02*
X138184276Y-98101247D01*
D12*
X140592380Y-85305804D02*
X140159047Y-84686757D01*
X139849523Y-85305804D02*
X139849523Y-84005804D01*
X139849523Y-84005804D02*
X140344761Y-84005804D01*
X140344761Y-84005804D02*
X140468571Y-84067709D01*
X140468571Y-84067709D02*
X140530476Y-84129614D01*
X140530476Y-84129614D02*
X140592380Y-84253423D01*
X140592380Y-84253423D02*
X140592380Y-84439138D01*
X140592380Y-84439138D02*
X140530476Y-84562947D01*
X140530476Y-84562947D02*
X140468571Y-84624852D01*
X140468571Y-84624852D02*
X140344761Y-84686757D01*
X140344761Y-84686757D02*
X139849523Y-84686757D01*
X171438991Y-81372947D02*
X171315181Y-81311042D01*
X171315181Y-81311042D02*
X171253276Y-81249138D01*
X171253276Y-81249138D02*
X171191372Y-81125328D01*
X171191372Y-81125328D02*
X171191372Y-81063423D01*
X171191372Y-81063423D02*
X171253276Y-80939614D01*
X171253276Y-80939614D02*
X171315181Y-80877709D01*
X171315181Y-80877709D02*
X171438991Y-80815804D01*
X171438991Y-80815804D02*
X171686610Y-80815804D01*
X171686610Y-80815804D02*
X171810419Y-80877709D01*
X171810419Y-80877709D02*
X171872324Y-80939614D01*
X171872324Y-80939614D02*
X171934229Y-81063423D01*
X171934229Y-81063423D02*
X171934229Y-81125328D01*
X171934229Y-81125328D02*
X171872324Y-81249138D01*
X171872324Y-81249138D02*
X171810419Y-81311042D01*
X171810419Y-81311042D02*
X171686610Y-81372947D01*
X171686610Y-81372947D02*
X171438991Y-81372947D01*
X171438991Y-81372947D02*
X171315181Y-81434852D01*
X171315181Y-81434852D02*
X171253276Y-81496757D01*
X171253276Y-81496757D02*
X171191372Y-81620566D01*
X171191372Y-81620566D02*
X171191372Y-81868185D01*
X171191372Y-81868185D02*
X171253276Y-81991995D01*
X171253276Y-81991995D02*
X171315181Y-82053900D01*
X171315181Y-82053900D02*
X171438991Y-82115804D01*
X171438991Y-82115804D02*
X171686610Y-82115804D01*
X171686610Y-82115804D02*
X171810419Y-82053900D01*
X171810419Y-82053900D02*
X171872324Y-81991995D01*
X171872324Y-81991995D02*
X171934229Y-81868185D01*
X171934229Y-81868185D02*
X171934229Y-81620566D01*
X171934229Y-81620566D02*
X171872324Y-81496757D01*
X171872324Y-81496757D02*
X171810419Y-81434852D01*
X171810419Y-81434852D02*
X171686610Y-81372947D01*
X164376667Y-80725804D02*
X165243333Y-80725804D01*
X165243333Y-80725804D02*
X164686191Y-82025804D01*
X177822381Y-81965804D02*
X178070000Y-81965804D01*
X178070000Y-81965804D02*
X178193810Y-81903900D01*
X178193810Y-81903900D02*
X178255714Y-81841995D01*
X178255714Y-81841995D02*
X178379524Y-81656280D01*
X178379524Y-81656280D02*
X178441429Y-81408661D01*
X178441429Y-81408661D02*
X178441429Y-80913423D01*
X178441429Y-80913423D02*
X178379524Y-80789614D01*
X178379524Y-80789614D02*
X178317619Y-80727709D01*
X178317619Y-80727709D02*
X178193810Y-80665804D01*
X178193810Y-80665804D02*
X177946191Y-80665804D01*
X177946191Y-80665804D02*
X177822381Y-80727709D01*
X177822381Y-80727709D02*
X177760476Y-80789614D01*
X177760476Y-80789614D02*
X177698572Y-80913423D01*
X177698572Y-80913423D02*
X177698572Y-81222947D01*
X177698572Y-81222947D02*
X177760476Y-81346757D01*
X177760476Y-81346757D02*
X177822381Y-81408661D01*
X177822381Y-81408661D02*
X177946191Y-81470566D01*
X177946191Y-81470566D02*
X178193810Y-81470566D01*
X178193810Y-81470566D02*
X178317619Y-81408661D01*
X178317619Y-81408661D02*
X178379524Y-81346757D01*
X178379524Y-81346757D02*
X178441429Y-81222947D01*
X129266667Y-100310804D02*
X130133333Y-100310804D01*
X130133333Y-100310804D02*
X129266667Y-101610804D01*
X129266667Y-101610804D02*
X130133333Y-101610804D01*
D13*
X153341314Y-89979819D02*
X153341314Y-88979819D01*
X153341314Y-88979819D02*
X153579409Y-88979819D01*
X153579409Y-88979819D02*
X153722266Y-89027438D01*
X153722266Y-89027438D02*
X153817504Y-89122676D01*
X153817504Y-89122676D02*
X153865123Y-89217914D01*
X153865123Y-89217914D02*
X153912742Y-89408390D01*
X153912742Y-89408390D02*
X153912742Y-89551247D01*
X153912742Y-89551247D02*
X153865123Y-89741723D01*
X153865123Y-89741723D02*
X153817504Y-89836961D01*
X153817504Y-89836961D02*
X153722266Y-89932200D01*
X153722266Y-89932200D02*
X153579409Y-89979819D01*
X153579409Y-89979819D02*
X153341314Y-89979819D01*
X154293695Y-89075057D02*
X154341314Y-89027438D01*
X154341314Y-89027438D02*
X154436552Y-88979819D01*
X154436552Y-88979819D02*
X154674647Y-88979819D01*
X154674647Y-88979819D02*
X154769885Y-89027438D01*
X154769885Y-89027438D02*
X154817504Y-89075057D01*
X154817504Y-89075057D02*
X154865123Y-89170295D01*
X154865123Y-89170295D02*
X154865123Y-89265533D01*
X154865123Y-89265533D02*
X154817504Y-89408390D01*
X154817504Y-89408390D02*
X154246076Y-89979819D01*
X154246076Y-89979819D02*
X154865123Y-89979819D01*
X155769885Y-88979819D02*
X155293695Y-88979819D01*
X155293695Y-88979819D02*
X155246076Y-89456009D01*
X155246076Y-89456009D02*
X155293695Y-89408390D01*
X155293695Y-89408390D02*
X155388933Y-89360771D01*
X155388933Y-89360771D02*
X155627028Y-89360771D01*
X155627028Y-89360771D02*
X155722266Y-89408390D01*
X155722266Y-89408390D02*
X155769885Y-89456009D01*
X155769885Y-89456009D02*
X155817504Y-89551247D01*
X155817504Y-89551247D02*
X155817504Y-89789342D01*
X155817504Y-89789342D02*
X155769885Y-89884580D01*
X155769885Y-89884580D02*
X155722266Y-89932200D01*
X155722266Y-89932200D02*
X155627028Y-89979819D01*
X155627028Y-89979819D02*
X155388933Y-89979819D01*
X155388933Y-89979819D02*
X155293695Y-89932200D01*
X155293695Y-89932200D02*
X155246076Y-89884580D01*
X134558333Y-110804819D02*
X134225000Y-110328628D01*
X133986905Y-110804819D02*
X133986905Y-109804819D01*
X133986905Y-109804819D02*
X134367857Y-109804819D01*
X134367857Y-109804819D02*
X134463095Y-109852438D01*
X134463095Y-109852438D02*
X134510714Y-109900057D01*
X134510714Y-109900057D02*
X134558333Y-109995295D01*
X134558333Y-109995295D02*
X134558333Y-110138152D01*
X134558333Y-110138152D02*
X134510714Y-110233390D01*
X134510714Y-110233390D02*
X134463095Y-110281009D01*
X134463095Y-110281009D02*
X134367857Y-110328628D01*
X134367857Y-110328628D02*
X133986905Y-110328628D01*
X134939286Y-109900057D02*
X134986905Y-109852438D01*
X134986905Y-109852438D02*
X135082143Y-109804819D01*
X135082143Y-109804819D02*
X135320238Y-109804819D01*
X135320238Y-109804819D02*
X135415476Y-109852438D01*
X135415476Y-109852438D02*
X135463095Y-109900057D01*
X135463095Y-109900057D02*
X135510714Y-109995295D01*
X135510714Y-109995295D02*
X135510714Y-110090533D01*
X135510714Y-110090533D02*
X135463095Y-110233390D01*
X135463095Y-110233390D02*
X134891667Y-110804819D01*
X134891667Y-110804819D02*
X135510714Y-110804819D01*
X120961905Y-104979819D02*
X120961905Y-103979819D01*
X120961905Y-103979819D02*
X121200000Y-103979819D01*
X121200000Y-103979819D02*
X121342857Y-104027438D01*
X121342857Y-104027438D02*
X121438095Y-104122676D01*
X121438095Y-104122676D02*
X121485714Y-104217914D01*
X121485714Y-104217914D02*
X121533333Y-104408390D01*
X121533333Y-104408390D02*
X121533333Y-104551247D01*
X121533333Y-104551247D02*
X121485714Y-104741723D01*
X121485714Y-104741723D02*
X121438095Y-104836961D01*
X121438095Y-104836961D02*
X121342857Y-104932200D01*
X121342857Y-104932200D02*
X121200000Y-104979819D01*
X121200000Y-104979819D02*
X120961905Y-104979819D01*
X121866667Y-103979819D02*
X122485714Y-103979819D01*
X122485714Y-103979819D02*
X122152381Y-104360771D01*
X122152381Y-104360771D02*
X122295238Y-104360771D01*
X122295238Y-104360771D02*
X122390476Y-104408390D01*
X122390476Y-104408390D02*
X122438095Y-104456009D01*
X122438095Y-104456009D02*
X122485714Y-104551247D01*
X122485714Y-104551247D02*
X122485714Y-104789342D01*
X122485714Y-104789342D02*
X122438095Y-104884580D01*
X122438095Y-104884580D02*
X122390476Y-104932200D01*
X122390476Y-104932200D02*
X122295238Y-104979819D01*
X122295238Y-104979819D02*
X122009524Y-104979819D01*
X122009524Y-104979819D02*
X121914286Y-104932200D01*
X121914286Y-104932200D02*
X121866667Y-104884580D01*
X167333333Y-109279819D02*
X167000000Y-108803628D01*
X166761905Y-109279819D02*
X166761905Y-108279819D01*
X166761905Y-108279819D02*
X167142857Y-108279819D01*
X167142857Y-108279819D02*
X167238095Y-108327438D01*
X167238095Y-108327438D02*
X167285714Y-108375057D01*
X167285714Y-108375057D02*
X167333333Y-108470295D01*
X167333333Y-108470295D02*
X167333333Y-108613152D01*
X167333333Y-108613152D02*
X167285714Y-108708390D01*
X167285714Y-108708390D02*
X167238095Y-108756009D01*
X167238095Y-108756009D02*
X167142857Y-108803628D01*
X167142857Y-108803628D02*
X166761905Y-108803628D01*
X168190476Y-108279819D02*
X168000000Y-108279819D01*
X168000000Y-108279819D02*
X167904762Y-108327438D01*
X167904762Y-108327438D02*
X167857143Y-108375057D01*
X167857143Y-108375057D02*
X167761905Y-108517914D01*
X167761905Y-108517914D02*
X167714286Y-108708390D01*
X167714286Y-108708390D02*
X167714286Y-109089342D01*
X167714286Y-109089342D02*
X167761905Y-109184580D01*
X167761905Y-109184580D02*
X167809524Y-109232200D01*
X167809524Y-109232200D02*
X167904762Y-109279819D01*
X167904762Y-109279819D02*
X168095238Y-109279819D01*
X168095238Y-109279819D02*
X168190476Y-109232200D01*
X168190476Y-109232200D02*
X168238095Y-109184580D01*
X168238095Y-109184580D02*
X168285714Y-109089342D01*
X168285714Y-109089342D02*
X168285714Y-108851247D01*
X168285714Y-108851247D02*
X168238095Y-108756009D01*
X168238095Y-108756009D02*
X168190476Y-108708390D01*
X168190476Y-108708390D02*
X168095238Y-108660771D01*
X168095238Y-108660771D02*
X167904762Y-108660771D01*
X167904762Y-108660771D02*
X167809524Y-108708390D01*
X167809524Y-108708390D02*
X167761905Y-108756009D01*
X167761905Y-108756009D02*
X167714286Y-108851247D01*
X148651622Y-113080155D02*
X148651622Y-112080155D01*
X148651622Y-112080155D02*
X148889717Y-112080155D01*
X148889717Y-112080155D02*
X149032574Y-112127774D01*
X149032574Y-112127774D02*
X149127812Y-112223012D01*
X149127812Y-112223012D02*
X149175431Y-112318250D01*
X149175431Y-112318250D02*
X149223050Y-112508726D01*
X149223050Y-112508726D02*
X149223050Y-112651583D01*
X149223050Y-112651583D02*
X149175431Y-112842059D01*
X149175431Y-112842059D02*
X149127812Y-112937297D01*
X149127812Y-112937297D02*
X149032574Y-113032536D01*
X149032574Y-113032536D02*
X148889717Y-113080155D01*
X148889717Y-113080155D02*
X148651622Y-113080155D01*
X149699241Y-113080155D02*
X149889717Y-113080155D01*
X149889717Y-113080155D02*
X149984955Y-113032536D01*
X149984955Y-113032536D02*
X150032574Y-112984916D01*
X150032574Y-112984916D02*
X150127812Y-112842059D01*
X150127812Y-112842059D02*
X150175431Y-112651583D01*
X150175431Y-112651583D02*
X150175431Y-112270631D01*
X150175431Y-112270631D02*
X150127812Y-112175393D01*
X150127812Y-112175393D02*
X150080193Y-112127774D01*
X150080193Y-112127774D02*
X149984955Y-112080155D01*
X149984955Y-112080155D02*
X149794479Y-112080155D01*
X149794479Y-112080155D02*
X149699241Y-112127774D01*
X149699241Y-112127774D02*
X149651622Y-112175393D01*
X149651622Y-112175393D02*
X149604003Y-112270631D01*
X149604003Y-112270631D02*
X149604003Y-112508726D01*
X149604003Y-112508726D02*
X149651622Y-112603964D01*
X149651622Y-112603964D02*
X149699241Y-112651583D01*
X149699241Y-112651583D02*
X149794479Y-112699202D01*
X149794479Y-112699202D02*
X149984955Y-112699202D01*
X149984955Y-112699202D02*
X150080193Y-112651583D01*
X150080193Y-112651583D02*
X150127812Y-112603964D01*
X150127812Y-112603964D02*
X150175431Y-112508726D01*
X151127812Y-113080155D02*
X150556384Y-113080155D01*
X150842098Y-113080155D02*
X150842098Y-112080155D01*
X150842098Y-112080155D02*
X150746860Y-112223012D01*
X150746860Y-112223012D02*
X150651622Y-112318250D01*
X150651622Y-112318250D02*
X150556384Y-112365869D01*
D12*
X153699999Y-84686757D02*
X153699999Y-85305804D01*
X153266666Y-84005804D02*
X153699999Y-84686757D01*
X153699999Y-84686757D02*
X154133333Y-84005804D01*
D13*
X140259095Y-118462819D02*
X140259095Y-119272342D01*
X140259095Y-119272342D02*
X140306714Y-119367580D01*
X140306714Y-119367580D02*
X140354333Y-119415200D01*
X140354333Y-119415200D02*
X140449571Y-119462819D01*
X140449571Y-119462819D02*
X140640047Y-119462819D01*
X140640047Y-119462819D02*
X140735285Y-119415200D01*
X140735285Y-119415200D02*
X140782904Y-119367580D01*
X140782904Y-119367580D02*
X140830523Y-119272342D01*
X140830523Y-119272342D02*
X140830523Y-118462819D01*
X141830523Y-119462819D02*
X141259095Y-119462819D01*
X141544809Y-119462819D02*
X141544809Y-118462819D01*
X141544809Y-118462819D02*
X141449571Y-118605676D01*
X141449571Y-118605676D02*
X141354333Y-118700914D01*
X141354333Y-118700914D02*
X141259095Y-118748533D01*
X128294819Y-112456666D02*
X127818628Y-112789999D01*
X128294819Y-113028094D02*
X127294819Y-113028094D01*
X127294819Y-113028094D02*
X127294819Y-112647142D01*
X127294819Y-112647142D02*
X127342438Y-112551904D01*
X127342438Y-112551904D02*
X127390057Y-112504285D01*
X127390057Y-112504285D02*
X127485295Y-112456666D01*
X127485295Y-112456666D02*
X127628152Y-112456666D01*
X127628152Y-112456666D02*
X127723390Y-112504285D01*
X127723390Y-112504285D02*
X127771009Y-112551904D01*
X127771009Y-112551904D02*
X127818628Y-112647142D01*
X127818628Y-112647142D02*
X127818628Y-113028094D01*
X128294819Y-111504285D02*
X128294819Y-112075713D01*
X128294819Y-111789999D02*
X127294819Y-111789999D01*
X127294819Y-111789999D02*
X127437676Y-111885237D01*
X127437676Y-111885237D02*
X127532914Y-111980475D01*
X127532914Y-111980475D02*
X127580533Y-112075713D01*
D12*
X158597619Y-80675804D02*
X158350000Y-80675804D01*
X158350000Y-80675804D02*
X158226191Y-80737709D01*
X158226191Y-80737709D02*
X158164286Y-80799614D01*
X158164286Y-80799614D02*
X158040476Y-80985328D01*
X158040476Y-80985328D02*
X157978572Y-81232947D01*
X157978572Y-81232947D02*
X157978572Y-81728185D01*
X157978572Y-81728185D02*
X158040476Y-81851995D01*
X158040476Y-81851995D02*
X158102381Y-81913900D01*
X158102381Y-81913900D02*
X158226191Y-81975804D01*
X158226191Y-81975804D02*
X158473810Y-81975804D01*
X158473810Y-81975804D02*
X158597619Y-81913900D01*
X158597619Y-81913900D02*
X158659524Y-81851995D01*
X158659524Y-81851995D02*
X158721429Y-81728185D01*
X158721429Y-81728185D02*
X158721429Y-81418661D01*
X158721429Y-81418661D02*
X158659524Y-81294852D01*
X158659524Y-81294852D02*
X158597619Y-81232947D01*
X158597619Y-81232947D02*
X158473810Y-81171042D01*
X158473810Y-81171042D02*
X158226191Y-81171042D01*
X158226191Y-81171042D02*
X158102381Y-81232947D01*
X158102381Y-81232947D02*
X158040476Y-81294852D01*
X158040476Y-81294852D02*
X157978572Y-81418661D01*
D13*
X155790715Y-116539819D02*
X155790715Y-115539819D01*
X155790715Y-115539819D02*
X156028810Y-115539819D01*
X156028810Y-115539819D02*
X156171667Y-115587438D01*
X156171667Y-115587438D02*
X156266905Y-115682676D01*
X156266905Y-115682676D02*
X156314524Y-115777914D01*
X156314524Y-115777914D02*
X156362143Y-115968390D01*
X156362143Y-115968390D02*
X156362143Y-116111247D01*
X156362143Y-116111247D02*
X156314524Y-116301723D01*
X156314524Y-116301723D02*
X156266905Y-116396961D01*
X156266905Y-116396961D02*
X156171667Y-116492200D01*
X156171667Y-116492200D02*
X156028810Y-116539819D01*
X156028810Y-116539819D02*
X155790715Y-116539819D01*
X157314524Y-116539819D02*
X156743096Y-116539819D01*
X157028810Y-116539819D02*
X157028810Y-115539819D01*
X157028810Y-115539819D02*
X156933572Y-115682676D01*
X156933572Y-115682676D02*
X156838334Y-115777914D01*
X156838334Y-115777914D02*
X156743096Y-115825533D01*
X157885953Y-115968390D02*
X157790715Y-115920771D01*
X157790715Y-115920771D02*
X157743096Y-115873152D01*
X157743096Y-115873152D02*
X157695477Y-115777914D01*
X157695477Y-115777914D02*
X157695477Y-115730295D01*
X157695477Y-115730295D02*
X157743096Y-115635057D01*
X157743096Y-115635057D02*
X157790715Y-115587438D01*
X157790715Y-115587438D02*
X157885953Y-115539819D01*
X157885953Y-115539819D02*
X158076429Y-115539819D01*
X158076429Y-115539819D02*
X158171667Y-115587438D01*
X158171667Y-115587438D02*
X158219286Y-115635057D01*
X158219286Y-115635057D02*
X158266905Y-115730295D01*
X158266905Y-115730295D02*
X158266905Y-115777914D01*
X158266905Y-115777914D02*
X158219286Y-115873152D01*
X158219286Y-115873152D02*
X158171667Y-115920771D01*
X158171667Y-115920771D02*
X158076429Y-115968390D01*
X158076429Y-115968390D02*
X157885953Y-115968390D01*
X157885953Y-115968390D02*
X157790715Y-116016009D01*
X157790715Y-116016009D02*
X157743096Y-116063628D01*
X157743096Y-116063628D02*
X157695477Y-116158866D01*
X157695477Y-116158866D02*
X157695477Y-116349342D01*
X157695477Y-116349342D02*
X157743096Y-116444580D01*
X157743096Y-116444580D02*
X157790715Y-116492200D01*
X157790715Y-116492200D02*
X157885953Y-116539819D01*
X157885953Y-116539819D02*
X158076429Y-116539819D01*
X158076429Y-116539819D02*
X158171667Y-116492200D01*
X158171667Y-116492200D02*
X158219286Y-116444580D01*
X158219286Y-116444580D02*
X158266905Y-116349342D01*
X158266905Y-116349342D02*
X158266905Y-116158866D01*
X158266905Y-116158866D02*
X158219286Y-116063628D01*
X158219286Y-116063628D02*
X158171667Y-116016009D01*
X158171667Y-116016009D02*
X158076429Y-115968390D01*
D12*
X143658114Y-92879852D02*
X143224780Y-92879852D01*
X143224780Y-93560804D02*
X143224780Y-92260804D01*
X143224780Y-92260804D02*
X143843828Y-92260804D01*
X136166667Y-100310804D02*
X137033333Y-101610804D01*
X137033333Y-100310804D02*
X136166667Y-101610804D01*
D13*
X125461905Y-94504819D02*
X125461905Y-93504819D01*
X125461905Y-93504819D02*
X125700000Y-93504819D01*
X125700000Y-93504819D02*
X125842857Y-93552438D01*
X125842857Y-93552438D02*
X125938095Y-93647676D01*
X125938095Y-93647676D02*
X125985714Y-93742914D01*
X125985714Y-93742914D02*
X126033333Y-93933390D01*
X126033333Y-93933390D02*
X126033333Y-94076247D01*
X126033333Y-94076247D02*
X125985714Y-94266723D01*
X125985714Y-94266723D02*
X125938095Y-94361961D01*
X125938095Y-94361961D02*
X125842857Y-94457200D01*
X125842857Y-94457200D02*
X125700000Y-94504819D01*
X125700000Y-94504819D02*
X125461905Y-94504819D01*
X126890476Y-93504819D02*
X126700000Y-93504819D01*
X126700000Y-93504819D02*
X126604762Y-93552438D01*
X126604762Y-93552438D02*
X126557143Y-93600057D01*
X126557143Y-93600057D02*
X126461905Y-93742914D01*
X126461905Y-93742914D02*
X126414286Y-93933390D01*
X126414286Y-93933390D02*
X126414286Y-94314342D01*
X126414286Y-94314342D02*
X126461905Y-94409580D01*
X126461905Y-94409580D02*
X126509524Y-94457200D01*
X126509524Y-94457200D02*
X126604762Y-94504819D01*
X126604762Y-94504819D02*
X126795238Y-94504819D01*
X126795238Y-94504819D02*
X126890476Y-94457200D01*
X126890476Y-94457200D02*
X126938095Y-94409580D01*
X126938095Y-94409580D02*
X126985714Y-94314342D01*
X126985714Y-94314342D02*
X126985714Y-94076247D01*
X126985714Y-94076247D02*
X126938095Y-93981009D01*
X126938095Y-93981009D02*
X126890476Y-93933390D01*
X126890476Y-93933390D02*
X126795238Y-93885771D01*
X126795238Y-93885771D02*
X126604762Y-93885771D01*
X126604762Y-93885771D02*
X126509524Y-93933390D01*
X126509524Y-93933390D02*
X126461905Y-93981009D01*
X126461905Y-93981009D02*
X126414286Y-94076247D01*
X146455114Y-90029819D02*
X146455114Y-89029819D01*
X146455114Y-89029819D02*
X146693209Y-89029819D01*
X146693209Y-89029819D02*
X146836066Y-89077438D01*
X146836066Y-89077438D02*
X146931304Y-89172676D01*
X146931304Y-89172676D02*
X146978923Y-89267914D01*
X146978923Y-89267914D02*
X147026542Y-89458390D01*
X147026542Y-89458390D02*
X147026542Y-89601247D01*
X147026542Y-89601247D02*
X146978923Y-89791723D01*
X146978923Y-89791723D02*
X146931304Y-89886961D01*
X146931304Y-89886961D02*
X146836066Y-89982200D01*
X146836066Y-89982200D02*
X146693209Y-90029819D01*
X146693209Y-90029819D02*
X146455114Y-90029819D01*
X147407495Y-89125057D02*
X147455114Y-89077438D01*
X147455114Y-89077438D02*
X147550352Y-89029819D01*
X147550352Y-89029819D02*
X147788447Y-89029819D01*
X147788447Y-89029819D02*
X147883685Y-89077438D01*
X147883685Y-89077438D02*
X147931304Y-89125057D01*
X147931304Y-89125057D02*
X147978923Y-89220295D01*
X147978923Y-89220295D02*
X147978923Y-89315533D01*
X147978923Y-89315533D02*
X147931304Y-89458390D01*
X147931304Y-89458390D02*
X147359876Y-90029819D01*
X147359876Y-90029819D02*
X147978923Y-90029819D01*
X148312257Y-89029819D02*
X148931304Y-89029819D01*
X148931304Y-89029819D02*
X148597971Y-89410771D01*
X148597971Y-89410771D02*
X148740828Y-89410771D01*
X148740828Y-89410771D02*
X148836066Y-89458390D01*
X148836066Y-89458390D02*
X148883685Y-89506009D01*
X148883685Y-89506009D02*
X148931304Y-89601247D01*
X148931304Y-89601247D02*
X148931304Y-89839342D01*
X148931304Y-89839342D02*
X148883685Y-89934580D01*
X148883685Y-89934580D02*
X148836066Y-89982200D01*
X148836066Y-89982200D02*
X148740828Y-90029819D01*
X148740828Y-90029819D02*
X148455114Y-90029819D01*
X148455114Y-90029819D02*
X148359876Y-89982200D01*
X148359876Y-89982200D02*
X148312257Y-89934580D01*
D12*
X164328314Y-92260804D02*
X164328314Y-93189376D01*
X164328314Y-93189376D02*
X164266409Y-93375090D01*
X164266409Y-93375090D02*
X164142600Y-93498900D01*
X164142600Y-93498900D02*
X163956885Y-93560804D01*
X163956885Y-93560804D02*
X163833076Y-93560804D01*
X126112857Y-84065804D02*
X126422381Y-85365804D01*
X126422381Y-85365804D02*
X126670000Y-84437233D01*
X126670000Y-84437233D02*
X126917619Y-85365804D01*
X126917619Y-85365804D02*
X127227143Y-84065804D01*
X151809524Y-80735804D02*
X151190476Y-80735804D01*
X151190476Y-80735804D02*
X151128572Y-81354852D01*
X151128572Y-81354852D02*
X151190476Y-81292947D01*
X151190476Y-81292947D02*
X151314286Y-81231042D01*
X151314286Y-81231042D02*
X151623810Y-81231042D01*
X151623810Y-81231042D02*
X151747619Y-81292947D01*
X151747619Y-81292947D02*
X151809524Y-81354852D01*
X151809524Y-81354852D02*
X151871429Y-81478661D01*
X151871429Y-81478661D02*
X151871429Y-81788185D01*
X151871429Y-81788185D02*
X151809524Y-81911995D01*
X151809524Y-81911995D02*
X151747619Y-81973900D01*
X151747619Y-81973900D02*
X151623810Y-82035804D01*
X151623810Y-82035804D02*
X151314286Y-82035804D01*
X151314286Y-82035804D02*
X151190476Y-81973900D01*
X151190476Y-81973900D02*
X151128572Y-81911995D01*
D13*
X156626014Y-106454819D02*
X156626014Y-105454819D01*
X156626014Y-105454819D02*
X156864109Y-105454819D01*
X156864109Y-105454819D02*
X157006966Y-105502438D01*
X157006966Y-105502438D02*
X157102204Y-105597676D01*
X157102204Y-105597676D02*
X157149823Y-105692914D01*
X157149823Y-105692914D02*
X157197442Y-105883390D01*
X157197442Y-105883390D02*
X157197442Y-106026247D01*
X157197442Y-106026247D02*
X157149823Y-106216723D01*
X157149823Y-106216723D02*
X157102204Y-106311961D01*
X157102204Y-106311961D02*
X157006966Y-106407200D01*
X157006966Y-106407200D02*
X156864109Y-106454819D01*
X156864109Y-106454819D02*
X156626014Y-106454819D01*
X157673633Y-106454819D02*
X157864109Y-106454819D01*
X157864109Y-106454819D02*
X157959347Y-106407200D01*
X157959347Y-106407200D02*
X158006966Y-106359580D01*
X158006966Y-106359580D02*
X158102204Y-106216723D01*
X158102204Y-106216723D02*
X158149823Y-106026247D01*
X158149823Y-106026247D02*
X158149823Y-105645295D01*
X158149823Y-105645295D02*
X158102204Y-105550057D01*
X158102204Y-105550057D02*
X158054585Y-105502438D01*
X158054585Y-105502438D02*
X157959347Y-105454819D01*
X157959347Y-105454819D02*
X157768871Y-105454819D01*
X157768871Y-105454819D02*
X157673633Y-105502438D01*
X157673633Y-105502438D02*
X157626014Y-105550057D01*
X157626014Y-105550057D02*
X157578395Y-105645295D01*
X157578395Y-105645295D02*
X157578395Y-105883390D01*
X157578395Y-105883390D02*
X157626014Y-105978628D01*
X157626014Y-105978628D02*
X157673633Y-106026247D01*
X157673633Y-106026247D02*
X157768871Y-106073866D01*
X157768871Y-106073866D02*
X157959347Y-106073866D01*
X157959347Y-106073866D02*
X158054585Y-106026247D01*
X158054585Y-106026247D02*
X158102204Y-105978628D01*
X158102204Y-105978628D02*
X158149823Y-105883390D01*
X158530776Y-105550057D02*
X158578395Y-105502438D01*
X158578395Y-105502438D02*
X158673633Y-105454819D01*
X158673633Y-105454819D02*
X158911728Y-105454819D01*
X158911728Y-105454819D02*
X159006966Y-105502438D01*
X159006966Y-105502438D02*
X159054585Y-105550057D01*
X159054585Y-105550057D02*
X159102204Y-105645295D01*
X159102204Y-105645295D02*
X159102204Y-105740533D01*
X159102204Y-105740533D02*
X159054585Y-105883390D01*
X159054585Y-105883390D02*
X158483157Y-106454819D01*
X158483157Y-106454819D02*
X159102204Y-106454819D01*
X120086906Y-114024819D02*
X120086906Y-113024819D01*
X120086906Y-113024819D02*
X120325001Y-113024819D01*
X120325001Y-113024819D02*
X120467858Y-113072438D01*
X120467858Y-113072438D02*
X120563096Y-113167676D01*
X120563096Y-113167676D02*
X120610715Y-113262914D01*
X120610715Y-113262914D02*
X120658334Y-113453390D01*
X120658334Y-113453390D02*
X120658334Y-113596247D01*
X120658334Y-113596247D02*
X120610715Y-113786723D01*
X120610715Y-113786723D02*
X120563096Y-113881961D01*
X120563096Y-113881961D02*
X120467858Y-113977200D01*
X120467858Y-113977200D02*
X120325001Y-114024819D01*
X120325001Y-114024819D02*
X120086906Y-114024819D01*
X121563096Y-113024819D02*
X121086906Y-113024819D01*
X121086906Y-113024819D02*
X121039287Y-113501009D01*
X121039287Y-113501009D02*
X121086906Y-113453390D01*
X121086906Y-113453390D02*
X121182144Y-113405771D01*
X121182144Y-113405771D02*
X121420239Y-113405771D01*
X121420239Y-113405771D02*
X121515477Y-113453390D01*
X121515477Y-113453390D02*
X121563096Y-113501009D01*
X121563096Y-113501009D02*
X121610715Y-113596247D01*
X121610715Y-113596247D02*
X121610715Y-113834342D01*
X121610715Y-113834342D02*
X121563096Y-113929580D01*
X121563096Y-113929580D02*
X121515477Y-113977200D01*
X121515477Y-113977200D02*
X121420239Y-114024819D01*
X121420239Y-114024819D02*
X121182144Y-114024819D01*
X121182144Y-114024819D02*
X121086906Y-113977200D01*
X121086906Y-113977200D02*
X121039287Y-113929580D01*
X149998214Y-98429819D02*
X149998214Y-97429819D01*
X149998214Y-97429819D02*
X150236309Y-97429819D01*
X150236309Y-97429819D02*
X150379166Y-97477438D01*
X150379166Y-97477438D02*
X150474404Y-97572676D01*
X150474404Y-97572676D02*
X150522023Y-97667914D01*
X150522023Y-97667914D02*
X150569642Y-97858390D01*
X150569642Y-97858390D02*
X150569642Y-98001247D01*
X150569642Y-98001247D02*
X150522023Y-98191723D01*
X150522023Y-98191723D02*
X150474404Y-98286961D01*
X150474404Y-98286961D02*
X150379166Y-98382200D01*
X150379166Y-98382200D02*
X150236309Y-98429819D01*
X150236309Y-98429819D02*
X149998214Y-98429819D01*
X150950595Y-97525057D02*
X150998214Y-97477438D01*
X150998214Y-97477438D02*
X151093452Y-97429819D01*
X151093452Y-97429819D02*
X151331547Y-97429819D01*
X151331547Y-97429819D02*
X151426785Y-97477438D01*
X151426785Y-97477438D02*
X151474404Y-97525057D01*
X151474404Y-97525057D02*
X151522023Y-97620295D01*
X151522023Y-97620295D02*
X151522023Y-97715533D01*
X151522023Y-97715533D02*
X151474404Y-97858390D01*
X151474404Y-97858390D02*
X150902976Y-98429819D01*
X150902976Y-98429819D02*
X151522023Y-98429819D01*
X152379166Y-97763152D02*
X152379166Y-98429819D01*
X152141071Y-97382200D02*
X151902976Y-98096485D01*
X151902976Y-98096485D02*
X152522023Y-98096485D01*
X158704820Y-114326787D02*
X157704820Y-114326787D01*
X157704820Y-114326787D02*
X157704820Y-114088692D01*
X157704820Y-114088692D02*
X157752439Y-113945835D01*
X157752439Y-113945835D02*
X157847677Y-113850597D01*
X157847677Y-113850597D02*
X157942915Y-113802978D01*
X157942915Y-113802978D02*
X158133391Y-113755359D01*
X158133391Y-113755359D02*
X158276248Y-113755359D01*
X158276248Y-113755359D02*
X158466724Y-113802978D01*
X158466724Y-113802978D02*
X158561962Y-113850597D01*
X158561962Y-113850597D02*
X158657201Y-113945835D01*
X158657201Y-113945835D02*
X158704820Y-114088692D01*
X158704820Y-114088692D02*
X158704820Y-114326787D01*
X158704820Y-113279168D02*
X158704820Y-113088692D01*
X158704820Y-113088692D02*
X158657201Y-112993454D01*
X158657201Y-112993454D02*
X158609581Y-112945835D01*
X158609581Y-112945835D02*
X158466724Y-112850597D01*
X158466724Y-112850597D02*
X158276248Y-112802978D01*
X158276248Y-112802978D02*
X157895296Y-112802978D01*
X157895296Y-112802978D02*
X157800058Y-112850597D01*
X157800058Y-112850597D02*
X157752439Y-112898216D01*
X157752439Y-112898216D02*
X157704820Y-112993454D01*
X157704820Y-112993454D02*
X157704820Y-113183930D01*
X157704820Y-113183930D02*
X157752439Y-113279168D01*
X157752439Y-113279168D02*
X157800058Y-113326787D01*
X157800058Y-113326787D02*
X157895296Y-113374406D01*
X157895296Y-113374406D02*
X158133391Y-113374406D01*
X158133391Y-113374406D02*
X158228629Y-113326787D01*
X158228629Y-113326787D02*
X158276248Y-113279168D01*
X158276248Y-113279168D02*
X158323867Y-113183930D01*
X158323867Y-113183930D02*
X158323867Y-112993454D01*
X158323867Y-112993454D02*
X158276248Y-112898216D01*
X158276248Y-112898216D02*
X158228629Y-112850597D01*
X158228629Y-112850597D02*
X158133391Y-112802978D01*
X157704820Y-112469644D02*
X157704820Y-111850597D01*
X157704820Y-111850597D02*
X158085772Y-112183930D01*
X158085772Y-112183930D02*
X158085772Y-112041073D01*
X158085772Y-112041073D02*
X158133391Y-111945835D01*
X158133391Y-111945835D02*
X158181010Y-111898216D01*
X158181010Y-111898216D02*
X158276248Y-111850597D01*
X158276248Y-111850597D02*
X158514343Y-111850597D01*
X158514343Y-111850597D02*
X158609581Y-111898216D01*
X158609581Y-111898216D02*
X158657201Y-111945835D01*
X158657201Y-111945835D02*
X158704820Y-112041073D01*
X158704820Y-112041073D02*
X158704820Y-112326787D01*
X158704820Y-112326787D02*
X158657201Y-112422025D01*
X158657201Y-112422025D02*
X158609581Y-112469644D01*
D12*
X133081428Y-84514852D02*
X133514762Y-84514852D01*
X133700476Y-85195804D02*
X133081428Y-85195804D01*
X133081428Y-85195804D02*
X133081428Y-83895804D01*
X133081428Y-83895804D02*
X133700476Y-83895804D01*
D13*
X179023214Y-107079819D02*
X179023214Y-106079819D01*
X179023214Y-106079819D02*
X179261309Y-106079819D01*
X179261309Y-106079819D02*
X179404166Y-106127438D01*
X179404166Y-106127438D02*
X179499404Y-106222676D01*
X179499404Y-106222676D02*
X179547023Y-106317914D01*
X179547023Y-106317914D02*
X179594642Y-106508390D01*
X179594642Y-106508390D02*
X179594642Y-106651247D01*
X179594642Y-106651247D02*
X179547023Y-106841723D01*
X179547023Y-106841723D02*
X179499404Y-106936961D01*
X179499404Y-106936961D02*
X179404166Y-107032200D01*
X179404166Y-107032200D02*
X179261309Y-107079819D01*
X179261309Y-107079819D02*
X179023214Y-107079819D01*
X179927976Y-106079819D02*
X180547023Y-106079819D01*
X180547023Y-106079819D02*
X180213690Y-106460771D01*
X180213690Y-106460771D02*
X180356547Y-106460771D01*
X180356547Y-106460771D02*
X180451785Y-106508390D01*
X180451785Y-106508390D02*
X180499404Y-106556009D01*
X180499404Y-106556009D02*
X180547023Y-106651247D01*
X180547023Y-106651247D02*
X180547023Y-106889342D01*
X180547023Y-106889342D02*
X180499404Y-106984580D01*
X180499404Y-106984580D02*
X180451785Y-107032200D01*
X180451785Y-107032200D02*
X180356547Y-107079819D01*
X180356547Y-107079819D02*
X180070833Y-107079819D01*
X180070833Y-107079819D02*
X179975595Y-107032200D01*
X179975595Y-107032200D02*
X179927976Y-106984580D01*
X180927976Y-106175057D02*
X180975595Y-106127438D01*
X180975595Y-106127438D02*
X181070833Y-106079819D01*
X181070833Y-106079819D02*
X181308928Y-106079819D01*
X181308928Y-106079819D02*
X181404166Y-106127438D01*
X181404166Y-106127438D02*
X181451785Y-106175057D01*
X181451785Y-106175057D02*
X181499404Y-106270295D01*
X181499404Y-106270295D02*
X181499404Y-106365533D01*
X181499404Y-106365533D02*
X181451785Y-106508390D01*
X181451785Y-106508390D02*
X180880357Y-107079819D01*
X180880357Y-107079819D02*
X181499404Y-107079819D01*
X160185714Y-109354819D02*
X160185714Y-108354819D01*
X160185714Y-108354819D02*
X160423809Y-108354819D01*
X160423809Y-108354819D02*
X160566666Y-108402438D01*
X160566666Y-108402438D02*
X160661904Y-108497676D01*
X160661904Y-108497676D02*
X160709523Y-108592914D01*
X160709523Y-108592914D02*
X160757142Y-108783390D01*
X160757142Y-108783390D02*
X160757142Y-108926247D01*
X160757142Y-108926247D02*
X160709523Y-109116723D01*
X160709523Y-109116723D02*
X160661904Y-109211961D01*
X160661904Y-109211961D02*
X160566666Y-109307200D01*
X160566666Y-109307200D02*
X160423809Y-109354819D01*
X160423809Y-109354819D02*
X160185714Y-109354819D01*
X161614285Y-108688152D02*
X161614285Y-109354819D01*
X161376190Y-108307200D02*
X161138095Y-109021485D01*
X161138095Y-109021485D02*
X161757142Y-109021485D01*
X162042857Y-108354819D02*
X162709523Y-108354819D01*
X162709523Y-108354819D02*
X162280952Y-109354819D01*
X129420114Y-98704819D02*
X129420114Y-97704819D01*
X129420114Y-97704819D02*
X129658209Y-97704819D01*
X129658209Y-97704819D02*
X129801066Y-97752438D01*
X129801066Y-97752438D02*
X129896304Y-97847676D01*
X129896304Y-97847676D02*
X129943923Y-97942914D01*
X129943923Y-97942914D02*
X129991542Y-98133390D01*
X129991542Y-98133390D02*
X129991542Y-98276247D01*
X129991542Y-98276247D02*
X129943923Y-98466723D01*
X129943923Y-98466723D02*
X129896304Y-98561961D01*
X129896304Y-98561961D02*
X129801066Y-98657200D01*
X129801066Y-98657200D02*
X129658209Y-98704819D01*
X129658209Y-98704819D02*
X129420114Y-98704819D01*
X130943923Y-98704819D02*
X130372495Y-98704819D01*
X130658209Y-98704819D02*
X130658209Y-97704819D01*
X130658209Y-97704819D02*
X130562971Y-97847676D01*
X130562971Y-97847676D02*
X130467733Y-97942914D01*
X130467733Y-97942914D02*
X130372495Y-97990533D01*
X131277257Y-97704819D02*
X131896304Y-97704819D01*
X131896304Y-97704819D02*
X131562971Y-98085771D01*
X131562971Y-98085771D02*
X131705828Y-98085771D01*
X131705828Y-98085771D02*
X131801066Y-98133390D01*
X131801066Y-98133390D02*
X131848685Y-98181009D01*
X131848685Y-98181009D02*
X131896304Y-98276247D01*
X131896304Y-98276247D02*
X131896304Y-98514342D01*
X131896304Y-98514342D02*
X131848685Y-98609580D01*
X131848685Y-98609580D02*
X131801066Y-98657200D01*
X131801066Y-98657200D02*
X131705828Y-98704819D01*
X131705828Y-98704819D02*
X131420114Y-98704819D01*
X131420114Y-98704819D02*
X131324876Y-98657200D01*
X131324876Y-98657200D02*
X131277257Y-98609580D01*
D12*
X170499999Y-108061995D02*
X170561904Y-108123900D01*
X170561904Y-108123900D02*
X170499999Y-108185804D01*
X170499999Y-108185804D02*
X170438095Y-108123900D01*
X170438095Y-108123900D02*
X170499999Y-108061995D01*
X170499999Y-108061995D02*
X170499999Y-108185804D01*
D13*
X163717014Y-98579819D02*
X163717014Y-97579819D01*
X163717014Y-97579819D02*
X163955109Y-97579819D01*
X163955109Y-97579819D02*
X164097966Y-97627438D01*
X164097966Y-97627438D02*
X164193204Y-97722676D01*
X164193204Y-97722676D02*
X164240823Y-97817914D01*
X164240823Y-97817914D02*
X164288442Y-98008390D01*
X164288442Y-98008390D02*
X164288442Y-98151247D01*
X164288442Y-98151247D02*
X164240823Y-98341723D01*
X164240823Y-98341723D02*
X164193204Y-98436961D01*
X164193204Y-98436961D02*
X164097966Y-98532200D01*
X164097966Y-98532200D02*
X163955109Y-98579819D01*
X163955109Y-98579819D02*
X163717014Y-98579819D01*
X164621776Y-97579819D02*
X165240823Y-97579819D01*
X165240823Y-97579819D02*
X164907490Y-97960771D01*
X164907490Y-97960771D02*
X165050347Y-97960771D01*
X165050347Y-97960771D02*
X165145585Y-98008390D01*
X165145585Y-98008390D02*
X165193204Y-98056009D01*
X165193204Y-98056009D02*
X165240823Y-98151247D01*
X165240823Y-98151247D02*
X165240823Y-98389342D01*
X165240823Y-98389342D02*
X165193204Y-98484580D01*
X165193204Y-98484580D02*
X165145585Y-98532200D01*
X165145585Y-98532200D02*
X165050347Y-98579819D01*
X165050347Y-98579819D02*
X164764633Y-98579819D01*
X164764633Y-98579819D02*
X164669395Y-98532200D01*
X164669395Y-98532200D02*
X164621776Y-98484580D01*
X165859871Y-97579819D02*
X165955109Y-97579819D01*
X165955109Y-97579819D02*
X166050347Y-97627438D01*
X166050347Y-97627438D02*
X166097966Y-97675057D01*
X166097966Y-97675057D02*
X166145585Y-97770295D01*
X166145585Y-97770295D02*
X166193204Y-97960771D01*
X166193204Y-97960771D02*
X166193204Y-98198866D01*
X166193204Y-98198866D02*
X166145585Y-98389342D01*
X166145585Y-98389342D02*
X166097966Y-98484580D01*
X166097966Y-98484580D02*
X166050347Y-98532200D01*
X166050347Y-98532200D02*
X165955109Y-98579819D01*
X165955109Y-98579819D02*
X165859871Y-98579819D01*
X165859871Y-98579819D02*
X165764633Y-98532200D01*
X165764633Y-98532200D02*
X165717014Y-98484580D01*
X165717014Y-98484580D02*
X165669395Y-98389342D01*
X165669395Y-98389342D02*
X165621776Y-98198866D01*
X165621776Y-98198866D02*
X165621776Y-97960771D01*
X165621776Y-97960771D02*
X165669395Y-97770295D01*
X165669395Y-97770295D02*
X165717014Y-97675057D01*
X165717014Y-97675057D02*
X165764633Y-97627438D01*
X165764633Y-97627438D02*
X165859871Y-97579819D01*
D12*
X143902380Y-101486995D02*
X143840476Y-101548900D01*
X143840476Y-101548900D02*
X143654761Y-101610804D01*
X143654761Y-101610804D02*
X143530952Y-101610804D01*
X143530952Y-101610804D02*
X143345238Y-101548900D01*
X143345238Y-101548900D02*
X143221428Y-101425090D01*
X143221428Y-101425090D02*
X143159523Y-101301280D01*
X143159523Y-101301280D02*
X143097619Y-101053661D01*
X143097619Y-101053661D02*
X143097619Y-100867947D01*
X143097619Y-100867947D02*
X143159523Y-100620328D01*
X143159523Y-100620328D02*
X143221428Y-100496519D01*
X143221428Y-100496519D02*
X143345238Y-100372709D01*
X143345238Y-100372709D02*
X143530952Y-100310804D01*
X143530952Y-100310804D02*
X143654761Y-100310804D01*
X143654761Y-100310804D02*
X143840476Y-100372709D01*
X143840476Y-100372709D02*
X143902380Y-100434614D01*
D13*
X134053333Y-115854819D02*
X133720000Y-115378628D01*
X133481905Y-115854819D02*
X133481905Y-114854819D01*
X133481905Y-114854819D02*
X133862857Y-114854819D01*
X133862857Y-114854819D02*
X133958095Y-114902438D01*
X133958095Y-114902438D02*
X134005714Y-114950057D01*
X134005714Y-114950057D02*
X134053333Y-115045295D01*
X134053333Y-115045295D02*
X134053333Y-115188152D01*
X134053333Y-115188152D02*
X134005714Y-115283390D01*
X134005714Y-115283390D02*
X133958095Y-115331009D01*
X133958095Y-115331009D02*
X133862857Y-115378628D01*
X133862857Y-115378628D02*
X133481905Y-115378628D01*
X134386667Y-114854819D02*
X135053333Y-114854819D01*
X135053333Y-114854819D02*
X134624762Y-115854819D01*
D12*
X178352381Y-93560804D02*
X177733333Y-93560804D01*
X177733333Y-93560804D02*
X177733333Y-92260804D01*
X146598571Y-84015804D02*
X147341428Y-84015804D01*
X146970000Y-85315804D02*
X146970000Y-84015804D01*
X170666666Y-101610804D02*
X170666666Y-100310804D01*
X170666666Y-100310804D02*
X171100000Y-101239376D01*
X171100000Y-101239376D02*
X171533333Y-100310804D01*
X171533333Y-100310804D02*
X171533333Y-101610804D01*
D13*
X121129819Y-92441666D02*
X120653628Y-92774999D01*
X121129819Y-93013094D02*
X120129819Y-93013094D01*
X120129819Y-93013094D02*
X120129819Y-92632142D01*
X120129819Y-92632142D02*
X120177438Y-92536904D01*
X120177438Y-92536904D02*
X120225057Y-92489285D01*
X120225057Y-92489285D02*
X120320295Y-92441666D01*
X120320295Y-92441666D02*
X120463152Y-92441666D01*
X120463152Y-92441666D02*
X120558390Y-92489285D01*
X120558390Y-92489285D02*
X120606009Y-92536904D01*
X120606009Y-92536904D02*
X120653628Y-92632142D01*
X120653628Y-92632142D02*
X120653628Y-93013094D01*
X120129819Y-92108332D02*
X120129819Y-91489285D01*
X120129819Y-91489285D02*
X120510771Y-91822618D01*
X120510771Y-91822618D02*
X120510771Y-91679761D01*
X120510771Y-91679761D02*
X120558390Y-91584523D01*
X120558390Y-91584523D02*
X120606009Y-91536904D01*
X120606009Y-91536904D02*
X120701247Y-91489285D01*
X120701247Y-91489285D02*
X120939342Y-91489285D01*
X120939342Y-91489285D02*
X121034580Y-91536904D01*
X121034580Y-91536904D02*
X121082200Y-91584523D01*
X121082200Y-91584523D02*
X121129819Y-91679761D01*
X121129819Y-91679761D02*
X121129819Y-91965475D01*
X121129819Y-91965475D02*
X121082200Y-92060713D01*
X121082200Y-92060713D02*
X121034580Y-92108332D01*
D12*
X128527204Y-109298900D02*
X128527204Y-109360804D01*
X128527204Y-109360804D02*
X128465299Y-109484614D01*
X128465299Y-109484614D02*
X128403395Y-109546519D01*
X137758334Y-112073900D02*
X137944048Y-112135804D01*
X137944048Y-112135804D02*
X138253572Y-112135804D01*
X138253572Y-112135804D02*
X138377381Y-112073900D01*
X138377381Y-112073900D02*
X138439286Y-112011995D01*
X138439286Y-112011995D02*
X138501191Y-111888185D01*
X138501191Y-111888185D02*
X138501191Y-111764376D01*
X138501191Y-111764376D02*
X138439286Y-111640566D01*
X138439286Y-111640566D02*
X138377381Y-111578661D01*
X138377381Y-111578661D02*
X138253572Y-111516757D01*
X138253572Y-111516757D02*
X138005953Y-111454852D01*
X138005953Y-111454852D02*
X137882143Y-111392947D01*
X137882143Y-111392947D02*
X137820238Y-111331042D01*
X137820238Y-111331042D02*
X137758334Y-111207233D01*
X137758334Y-111207233D02*
X137758334Y-111083423D01*
X137758334Y-111083423D02*
X137820238Y-110959614D01*
X137820238Y-110959614D02*
X137882143Y-110897709D01*
X137882143Y-110897709D02*
X138005953Y-110835804D01*
X138005953Y-110835804D02*
X138315476Y-110835804D01*
X138315476Y-110835804D02*
X138501191Y-110897709D01*
X139058333Y-112135804D02*
X139058333Y-110835804D01*
X139058333Y-110835804D02*
X139553571Y-110835804D01*
X139553571Y-110835804D02*
X139677381Y-110897709D01*
X139677381Y-110897709D02*
X139739286Y-110959614D01*
X139739286Y-110959614D02*
X139801190Y-111083423D01*
X139801190Y-111083423D02*
X139801190Y-111269138D01*
X139801190Y-111269138D02*
X139739286Y-111392947D01*
X139739286Y-111392947D02*
X139677381Y-111454852D01*
X139677381Y-111454852D02*
X139553571Y-111516757D01*
X139553571Y-111516757D02*
X139058333Y-111516757D01*
X140296429Y-111764376D02*
X140915476Y-111764376D01*
X140172619Y-112135804D02*
X140605952Y-110835804D01*
X140605952Y-110835804D02*
X141039286Y-112135804D01*
X142215476Y-112011995D02*
X142153572Y-112073900D01*
X142153572Y-112073900D02*
X141967857Y-112135804D01*
X141967857Y-112135804D02*
X141844048Y-112135804D01*
X141844048Y-112135804D02*
X141658334Y-112073900D01*
X141658334Y-112073900D02*
X141534524Y-111950090D01*
X141534524Y-111950090D02*
X141472619Y-111826280D01*
X141472619Y-111826280D02*
X141410715Y-111578661D01*
X141410715Y-111578661D02*
X141410715Y-111392947D01*
X141410715Y-111392947D02*
X141472619Y-111145328D01*
X141472619Y-111145328D02*
X141534524Y-111021519D01*
X141534524Y-111021519D02*
X141658334Y-110897709D01*
X141658334Y-110897709D02*
X141844048Y-110835804D01*
X141844048Y-110835804D02*
X141967857Y-110835804D01*
X141967857Y-110835804D02*
X142153572Y-110897709D01*
X142153572Y-110897709D02*
X142215476Y-110959614D01*
X142772619Y-111454852D02*
X143205953Y-111454852D01*
X143391667Y-112135804D02*
X142772619Y-112135804D01*
X142772619Y-112135804D02*
X142772619Y-110835804D01*
X142772619Y-110835804D02*
X143391667Y-110835804D01*
D13*
X164853218Y-116609819D02*
X164853218Y-115609819D01*
X164853218Y-115609819D02*
X165091313Y-115609819D01*
X165091313Y-115609819D02*
X165234170Y-115657438D01*
X165234170Y-115657438D02*
X165329408Y-115752676D01*
X165329408Y-115752676D02*
X165377027Y-115847914D01*
X165377027Y-115847914D02*
X165424646Y-116038390D01*
X165424646Y-116038390D02*
X165424646Y-116181247D01*
X165424646Y-116181247D02*
X165377027Y-116371723D01*
X165377027Y-116371723D02*
X165329408Y-116466961D01*
X165329408Y-116466961D02*
X165234170Y-116562200D01*
X165234170Y-116562200D02*
X165091313Y-116609819D01*
X165091313Y-116609819D02*
X164853218Y-116609819D01*
X165805599Y-115705057D02*
X165853218Y-115657438D01*
X165853218Y-115657438D02*
X165948456Y-115609819D01*
X165948456Y-115609819D02*
X166186551Y-115609819D01*
X166186551Y-115609819D02*
X166281789Y-115657438D01*
X166281789Y-115657438D02*
X166329408Y-115705057D01*
X166329408Y-115705057D02*
X166377027Y-115800295D01*
X166377027Y-115800295D02*
X166377027Y-115895533D01*
X166377027Y-115895533D02*
X166329408Y-116038390D01*
X166329408Y-116038390D02*
X165757980Y-116609819D01*
X165757980Y-116609819D02*
X166377027Y-116609819D01*
X166948456Y-116038390D02*
X166853218Y-115990771D01*
X166853218Y-115990771D02*
X166805599Y-115943152D01*
X166805599Y-115943152D02*
X166757980Y-115847914D01*
X166757980Y-115847914D02*
X166757980Y-115800295D01*
X166757980Y-115800295D02*
X166805599Y-115705057D01*
X166805599Y-115705057D02*
X166853218Y-115657438D01*
X166853218Y-115657438D02*
X166948456Y-115609819D01*
X166948456Y-115609819D02*
X167138932Y-115609819D01*
X167138932Y-115609819D02*
X167234170Y-115657438D01*
X167234170Y-115657438D02*
X167281789Y-115705057D01*
X167281789Y-115705057D02*
X167329408Y-115800295D01*
X167329408Y-115800295D02*
X167329408Y-115847914D01*
X167329408Y-115847914D02*
X167281789Y-115943152D01*
X167281789Y-115943152D02*
X167234170Y-115990771D01*
X167234170Y-115990771D02*
X167138932Y-116038390D01*
X167138932Y-116038390D02*
X166948456Y-116038390D01*
X166948456Y-116038390D02*
X166853218Y-116086009D01*
X166853218Y-116086009D02*
X166805599Y-116133628D01*
X166805599Y-116133628D02*
X166757980Y-116228866D01*
X166757980Y-116228866D02*
X166757980Y-116419342D01*
X166757980Y-116419342D02*
X166805599Y-116514580D01*
X166805599Y-116514580D02*
X166853218Y-116562200D01*
X166853218Y-116562200D02*
X166948456Y-116609819D01*
X166948456Y-116609819D02*
X167138932Y-116609819D01*
X167138932Y-116609819D02*
X167234170Y-116562200D01*
X167234170Y-116562200D02*
X167281789Y-116514580D01*
X167281789Y-116514580D02*
X167329408Y-116419342D01*
X167329408Y-116419342D02*
X167329408Y-116228866D01*
X167329408Y-116228866D02*
X167281789Y-116133628D01*
X167281789Y-116133628D02*
X167234170Y-116086009D01*
X167234170Y-116086009D02*
X167138932Y-116038390D01*
D12*
X156881171Y-93560804D02*
X156881171Y-92260804D01*
X156881171Y-92879852D02*
X157624028Y-92879852D01*
X157624028Y-93560804D02*
X157624028Y-92260804D01*
D13*
X167113514Y-89979819D02*
X167113514Y-88979819D01*
X167113514Y-88979819D02*
X167351609Y-88979819D01*
X167351609Y-88979819D02*
X167494466Y-89027438D01*
X167494466Y-89027438D02*
X167589704Y-89122676D01*
X167589704Y-89122676D02*
X167637323Y-89217914D01*
X167637323Y-89217914D02*
X167684942Y-89408390D01*
X167684942Y-89408390D02*
X167684942Y-89551247D01*
X167684942Y-89551247D02*
X167637323Y-89741723D01*
X167637323Y-89741723D02*
X167589704Y-89836961D01*
X167589704Y-89836961D02*
X167494466Y-89932200D01*
X167494466Y-89932200D02*
X167351609Y-89979819D01*
X167351609Y-89979819D02*
X167113514Y-89979819D01*
X168542085Y-89313152D02*
X168542085Y-89979819D01*
X168303990Y-88932200D02*
X168065895Y-89646485D01*
X168065895Y-89646485D02*
X168684942Y-89646485D01*
X169018276Y-89075057D02*
X169065895Y-89027438D01*
X169065895Y-89027438D02*
X169161133Y-88979819D01*
X169161133Y-88979819D02*
X169399228Y-88979819D01*
X169399228Y-88979819D02*
X169494466Y-89027438D01*
X169494466Y-89027438D02*
X169542085Y-89075057D01*
X169542085Y-89075057D02*
X169589704Y-89170295D01*
X169589704Y-89170295D02*
X169589704Y-89265533D01*
X169589704Y-89265533D02*
X169542085Y-89408390D01*
X169542085Y-89408390D02*
X168970657Y-89979819D01*
X168970657Y-89979819D02*
X169589704Y-89979819D01*
X180610713Y-89979819D02*
X180610713Y-88979819D01*
X180610713Y-88979819D02*
X180848808Y-88979819D01*
X180848808Y-88979819D02*
X180991665Y-89027438D01*
X180991665Y-89027438D02*
X181086903Y-89122676D01*
X181086903Y-89122676D02*
X181134522Y-89217914D01*
X181134522Y-89217914D02*
X181182141Y-89408390D01*
X181182141Y-89408390D02*
X181182141Y-89551247D01*
X181182141Y-89551247D02*
X181134522Y-89741723D01*
X181134522Y-89741723D02*
X181086903Y-89836961D01*
X181086903Y-89836961D02*
X180991665Y-89932200D01*
X180991665Y-89932200D02*
X180848808Y-89979819D01*
X180848808Y-89979819D02*
X180610713Y-89979819D01*
X182039284Y-89313152D02*
X182039284Y-89979819D01*
X181801189Y-88932200D02*
X181563094Y-89646485D01*
X181563094Y-89646485D02*
X182182141Y-89646485D01*
X182991665Y-89313152D02*
X182991665Y-89979819D01*
X182753570Y-88932200D02*
X182515475Y-89646485D01*
X182515475Y-89646485D02*
X183134522Y-89646485D01*
X139569014Y-89929819D02*
X139569014Y-88929819D01*
X139569014Y-88929819D02*
X139807109Y-88929819D01*
X139807109Y-88929819D02*
X139949966Y-88977438D01*
X139949966Y-88977438D02*
X140045204Y-89072676D01*
X140045204Y-89072676D02*
X140092823Y-89167914D01*
X140092823Y-89167914D02*
X140140442Y-89358390D01*
X140140442Y-89358390D02*
X140140442Y-89501247D01*
X140140442Y-89501247D02*
X140092823Y-89691723D01*
X140092823Y-89691723D02*
X140045204Y-89786961D01*
X140045204Y-89786961D02*
X139949966Y-89882200D01*
X139949966Y-89882200D02*
X139807109Y-89929819D01*
X139807109Y-89929819D02*
X139569014Y-89929819D01*
X141092823Y-89929819D02*
X140521395Y-89929819D01*
X140807109Y-89929819D02*
X140807109Y-88929819D01*
X140807109Y-88929819D02*
X140711871Y-89072676D01*
X140711871Y-89072676D02*
X140616633Y-89167914D01*
X140616633Y-89167914D02*
X140521395Y-89215533D01*
X141569014Y-89929819D02*
X141759490Y-89929819D01*
X141759490Y-89929819D02*
X141854728Y-89882200D01*
X141854728Y-89882200D02*
X141902347Y-89834580D01*
X141902347Y-89834580D02*
X141997585Y-89691723D01*
X141997585Y-89691723D02*
X142045204Y-89501247D01*
X142045204Y-89501247D02*
X142045204Y-89120295D01*
X142045204Y-89120295D02*
X141997585Y-89025057D01*
X141997585Y-89025057D02*
X141949966Y-88977438D01*
X141949966Y-88977438D02*
X141854728Y-88929819D01*
X141854728Y-88929819D02*
X141664252Y-88929819D01*
X141664252Y-88929819D02*
X141569014Y-88977438D01*
X141569014Y-88977438D02*
X141521395Y-89025057D01*
X141521395Y-89025057D02*
X141473776Y-89120295D01*
X141473776Y-89120295D02*
X141473776Y-89358390D01*
X141473776Y-89358390D02*
X141521395Y-89453628D01*
X141521395Y-89453628D02*
X141569014Y-89501247D01*
X141569014Y-89501247D02*
X141664252Y-89548866D01*
X141664252Y-89548866D02*
X141854728Y-89548866D01*
X141854728Y-89548866D02*
X141949966Y-89501247D01*
X141949966Y-89501247D02*
X141997585Y-89453628D01*
X141997585Y-89453628D02*
X142045204Y-89358390D01*
D12*
X122043094Y-80925804D02*
X122166904Y-80925804D01*
X122166904Y-80925804D02*
X122290713Y-80987709D01*
X122290713Y-80987709D02*
X122352618Y-81049614D01*
X122352618Y-81049614D02*
X122414523Y-81173423D01*
X122414523Y-81173423D02*
X122476428Y-81421042D01*
X122476428Y-81421042D02*
X122476428Y-81730566D01*
X122476428Y-81730566D02*
X122414523Y-81978185D01*
X122414523Y-81978185D02*
X122352618Y-82101995D01*
X122352618Y-82101995D02*
X122290713Y-82163900D01*
X122290713Y-82163900D02*
X122166904Y-82225804D01*
X122166904Y-82225804D02*
X122043094Y-82225804D01*
X122043094Y-82225804D02*
X121919285Y-82163900D01*
X121919285Y-82163900D02*
X121857380Y-82101995D01*
X121857380Y-82101995D02*
X121795475Y-81978185D01*
X121795475Y-81978185D02*
X121733571Y-81730566D01*
X121733571Y-81730566D02*
X121733571Y-81421042D01*
X121733571Y-81421042D02*
X121795475Y-81173423D01*
X121795475Y-81173423D02*
X121857380Y-81049614D01*
X121857380Y-81049614D02*
X121919285Y-80987709D01*
X121919285Y-80987709D02*
X122043094Y-80925804D01*
X167339999Y-85395804D02*
X167339999Y-84095804D01*
D13*
X160227414Y-89979819D02*
X160227414Y-88979819D01*
X160227414Y-88979819D02*
X160465509Y-88979819D01*
X160465509Y-88979819D02*
X160608366Y-89027438D01*
X160608366Y-89027438D02*
X160703604Y-89122676D01*
X160703604Y-89122676D02*
X160751223Y-89217914D01*
X160751223Y-89217914D02*
X160798842Y-89408390D01*
X160798842Y-89408390D02*
X160798842Y-89551247D01*
X160798842Y-89551247D02*
X160751223Y-89741723D01*
X160751223Y-89741723D02*
X160703604Y-89836961D01*
X160703604Y-89836961D02*
X160608366Y-89932200D01*
X160608366Y-89932200D02*
X160465509Y-89979819D01*
X160465509Y-89979819D02*
X160227414Y-89979819D01*
X161179795Y-89075057D02*
X161227414Y-89027438D01*
X161227414Y-89027438D02*
X161322652Y-88979819D01*
X161322652Y-88979819D02*
X161560747Y-88979819D01*
X161560747Y-88979819D02*
X161655985Y-89027438D01*
X161655985Y-89027438D02*
X161703604Y-89075057D01*
X161703604Y-89075057D02*
X161751223Y-89170295D01*
X161751223Y-89170295D02*
X161751223Y-89265533D01*
X161751223Y-89265533D02*
X161703604Y-89408390D01*
X161703604Y-89408390D02*
X161132176Y-89979819D01*
X161132176Y-89979819D02*
X161751223Y-89979819D01*
X162227414Y-89979819D02*
X162417890Y-89979819D01*
X162417890Y-89979819D02*
X162513128Y-89932200D01*
X162513128Y-89932200D02*
X162560747Y-89884580D01*
X162560747Y-89884580D02*
X162655985Y-89741723D01*
X162655985Y-89741723D02*
X162703604Y-89551247D01*
X162703604Y-89551247D02*
X162703604Y-89170295D01*
X162703604Y-89170295D02*
X162655985Y-89075057D01*
X162655985Y-89075057D02*
X162608366Y-89027438D01*
X162608366Y-89027438D02*
X162513128Y-88979819D01*
X162513128Y-88979819D02*
X162322652Y-88979819D01*
X162322652Y-88979819D02*
X162227414Y-89027438D01*
X162227414Y-89027438D02*
X162179795Y-89075057D01*
X162179795Y-89075057D02*
X162132176Y-89170295D01*
X162132176Y-89170295D02*
X162132176Y-89408390D01*
X162132176Y-89408390D02*
X162179795Y-89503628D01*
X162179795Y-89503628D02*
X162227414Y-89551247D01*
X162227414Y-89551247D02*
X162322652Y-89598866D01*
X162322652Y-89598866D02*
X162513128Y-89598866D01*
X162513128Y-89598866D02*
X162608366Y-89551247D01*
X162608366Y-89551247D02*
X162655985Y-89503628D01*
X162655985Y-89503628D02*
X162703604Y-89408390D01*
D12*
X120185238Y-85329614D02*
X120061428Y-85267709D01*
X120061428Y-85267709D02*
X119937619Y-85143900D01*
X119937619Y-85143900D02*
X119751905Y-84958185D01*
X119751905Y-84958185D02*
X119628095Y-84896280D01*
X119628095Y-84896280D02*
X119504286Y-84896280D01*
X119566190Y-85205804D02*
X119442381Y-85143900D01*
X119442381Y-85143900D02*
X119318571Y-85020090D01*
X119318571Y-85020090D02*
X119256667Y-84772471D01*
X119256667Y-84772471D02*
X119256667Y-84339138D01*
X119256667Y-84339138D02*
X119318571Y-84091519D01*
X119318571Y-84091519D02*
X119442381Y-83967709D01*
X119442381Y-83967709D02*
X119566190Y-83905804D01*
X119566190Y-83905804D02*
X119813809Y-83905804D01*
X119813809Y-83905804D02*
X119937619Y-83967709D01*
X119937619Y-83967709D02*
X120061428Y-84091519D01*
X120061428Y-84091519D02*
X120123333Y-84339138D01*
X120123333Y-84339138D02*
X120123333Y-84772471D01*
X120123333Y-84772471D02*
X120061428Y-85020090D01*
X120061428Y-85020090D02*
X119937619Y-85143900D01*
X119937619Y-85143900D02*
X119813809Y-85205804D01*
X119813809Y-85205804D02*
X119566190Y-85205804D01*
D13*
X170414914Y-106604819D02*
X170414914Y-105604819D01*
X170414914Y-105604819D02*
X170653009Y-105604819D01*
X170653009Y-105604819D02*
X170795866Y-105652438D01*
X170795866Y-105652438D02*
X170891104Y-105747676D01*
X170891104Y-105747676D02*
X170938723Y-105842914D01*
X170938723Y-105842914D02*
X170986342Y-106033390D01*
X170986342Y-106033390D02*
X170986342Y-106176247D01*
X170986342Y-106176247D02*
X170938723Y-106366723D01*
X170938723Y-106366723D02*
X170891104Y-106461961D01*
X170891104Y-106461961D02*
X170795866Y-106557200D01*
X170795866Y-106557200D02*
X170653009Y-106604819D01*
X170653009Y-106604819D02*
X170414914Y-106604819D01*
X171319676Y-105604819D02*
X171938723Y-105604819D01*
X171938723Y-105604819D02*
X171605390Y-105985771D01*
X171605390Y-105985771D02*
X171748247Y-105985771D01*
X171748247Y-105985771D02*
X171843485Y-106033390D01*
X171843485Y-106033390D02*
X171891104Y-106081009D01*
X171891104Y-106081009D02*
X171938723Y-106176247D01*
X171938723Y-106176247D02*
X171938723Y-106414342D01*
X171938723Y-106414342D02*
X171891104Y-106509580D01*
X171891104Y-106509580D02*
X171843485Y-106557200D01*
X171843485Y-106557200D02*
X171748247Y-106604819D01*
X171748247Y-106604819D02*
X171462533Y-106604819D01*
X171462533Y-106604819D02*
X171367295Y-106557200D01*
X171367295Y-106557200D02*
X171319676Y-106509580D01*
X172891104Y-106604819D02*
X172319676Y-106604819D01*
X172605390Y-106604819D02*
X172605390Y-105604819D01*
X172605390Y-105604819D02*
X172510152Y-105747676D01*
X172510152Y-105747676D02*
X172414914Y-105842914D01*
X172414914Y-105842914D02*
X172319676Y-105890533D01*
D12*
X125481429Y-82015804D02*
X124738572Y-82015804D01*
X125110000Y-82015804D02*
X125110000Y-80715804D01*
X125110000Y-80715804D02*
X124986191Y-80901519D01*
X124986191Y-80901519D02*
X124862381Y-81025328D01*
X124862381Y-81025328D02*
X124738572Y-81087233D01*
X163828571Y-101610804D02*
X163828571Y-100310804D01*
X163828571Y-100310804D02*
X164571428Y-101610804D01*
X164571428Y-101610804D02*
X164571428Y-100310804D01*
D13*
X129524405Y-106454819D02*
X129524405Y-105454819D01*
X129524405Y-105454819D02*
X129762500Y-105454819D01*
X129762500Y-105454819D02*
X129905357Y-105502438D01*
X129905357Y-105502438D02*
X130000595Y-105597676D01*
X130000595Y-105597676D02*
X130048214Y-105692914D01*
X130048214Y-105692914D02*
X130095833Y-105883390D01*
X130095833Y-105883390D02*
X130095833Y-106026247D01*
X130095833Y-106026247D02*
X130048214Y-106216723D01*
X130048214Y-106216723D02*
X130000595Y-106311961D01*
X130000595Y-106311961D02*
X129905357Y-106407200D01*
X129905357Y-106407200D02*
X129762500Y-106454819D01*
X129762500Y-106454819D02*
X129524405Y-106454819D01*
X130429167Y-105454819D02*
X131095833Y-105454819D01*
X131095833Y-105454819D02*
X130667262Y-106454819D01*
D12*
X129314272Y-93498900D02*
X129499986Y-93560804D01*
X129499986Y-93560804D02*
X129809510Y-93560804D01*
X129809510Y-93560804D02*
X129933319Y-93498900D01*
X129933319Y-93498900D02*
X129995224Y-93436995D01*
X129995224Y-93436995D02*
X130057129Y-93313185D01*
X130057129Y-93313185D02*
X130057129Y-93189376D01*
X130057129Y-93189376D02*
X129995224Y-93065566D01*
X129995224Y-93065566D02*
X129933319Y-93003661D01*
X129933319Y-93003661D02*
X129809510Y-92941757D01*
X129809510Y-92941757D02*
X129561891Y-92879852D01*
X129561891Y-92879852D02*
X129438081Y-92817947D01*
X129438081Y-92817947D02*
X129376176Y-92756042D01*
X129376176Y-92756042D02*
X129314272Y-92632233D01*
X129314272Y-92632233D02*
X129314272Y-92508423D01*
X129314272Y-92508423D02*
X129376176Y-92384614D01*
X129376176Y-92384614D02*
X129438081Y-92322709D01*
X129438081Y-92322709D02*
X129561891Y-92260804D01*
X129561891Y-92260804D02*
X129871414Y-92260804D01*
X129871414Y-92260804D02*
X130057129Y-92322709D01*
D13*
X129398213Y-109979819D02*
X129398213Y-108979819D01*
X129398213Y-108979819D02*
X129636308Y-108979819D01*
X129636308Y-108979819D02*
X129779165Y-109027438D01*
X129779165Y-109027438D02*
X129874403Y-109122676D01*
X129874403Y-109122676D02*
X129922022Y-109217914D01*
X129922022Y-109217914D02*
X129969641Y-109408390D01*
X129969641Y-109408390D02*
X129969641Y-109551247D01*
X129969641Y-109551247D02*
X129922022Y-109741723D01*
X129922022Y-109741723D02*
X129874403Y-109836961D01*
X129874403Y-109836961D02*
X129779165Y-109932200D01*
X129779165Y-109932200D02*
X129636308Y-109979819D01*
X129636308Y-109979819D02*
X129398213Y-109979819D01*
X130874403Y-108979819D02*
X130398213Y-108979819D01*
X130398213Y-108979819D02*
X130350594Y-109456009D01*
X130350594Y-109456009D02*
X130398213Y-109408390D01*
X130398213Y-109408390D02*
X130493451Y-109360771D01*
X130493451Y-109360771D02*
X130731546Y-109360771D01*
X130731546Y-109360771D02*
X130826784Y-109408390D01*
X130826784Y-109408390D02*
X130874403Y-109456009D01*
X130874403Y-109456009D02*
X130922022Y-109551247D01*
X130922022Y-109551247D02*
X130922022Y-109789342D01*
X130922022Y-109789342D02*
X130874403Y-109884580D01*
X130874403Y-109884580D02*
X130826784Y-109932200D01*
X130826784Y-109932200D02*
X130731546Y-109979819D01*
X130731546Y-109979819D02*
X130493451Y-109979819D01*
X130493451Y-109979819D02*
X130398213Y-109932200D01*
X130398213Y-109932200D02*
X130350594Y-109884580D01*
X131874403Y-109979819D02*
X131302975Y-109979819D01*
X131588689Y-109979819D02*
X131588689Y-108979819D01*
X131588689Y-108979819D02*
X131493451Y-109122676D01*
X131493451Y-109122676D02*
X131398213Y-109217914D01*
X131398213Y-109217914D02*
X131302975Y-109265533D01*
D12*
X180379523Y-85195804D02*
X180379523Y-83895804D01*
X180379523Y-83895804D02*
X180874761Y-83895804D01*
X180874761Y-83895804D02*
X180998571Y-83957709D01*
X180998571Y-83957709D02*
X181060476Y-84019614D01*
X181060476Y-84019614D02*
X181122380Y-84143423D01*
X181122380Y-84143423D02*
X181122380Y-84329138D01*
X181122380Y-84329138D02*
X181060476Y-84452947D01*
X181060476Y-84452947D02*
X180998571Y-84514852D01*
X180998571Y-84514852D02*
X180874761Y-84576757D01*
X180874761Y-84576757D02*
X180379523Y-84576757D01*
X178485714Y-100754852D02*
X178671428Y-100816757D01*
X178671428Y-100816757D02*
X178733333Y-100878661D01*
X178733333Y-100878661D02*
X178795237Y-101002471D01*
X178795237Y-101002471D02*
X178795237Y-101188185D01*
X178795237Y-101188185D02*
X178733333Y-101311995D01*
X178733333Y-101311995D02*
X178671428Y-101373900D01*
X178671428Y-101373900D02*
X178547618Y-101435804D01*
X178547618Y-101435804D02*
X178052380Y-101435804D01*
X178052380Y-101435804D02*
X178052380Y-100135804D01*
X178052380Y-100135804D02*
X178485714Y-100135804D01*
X178485714Y-100135804D02*
X178609523Y-100197709D01*
X178609523Y-100197709D02*
X178671428Y-100259614D01*
X178671428Y-100259614D02*
X178733333Y-100383423D01*
X178733333Y-100383423D02*
X178733333Y-100507233D01*
X178733333Y-100507233D02*
X178671428Y-100631042D01*
X178671428Y-100631042D02*
X178609523Y-100692947D01*
X178609523Y-100692947D02*
X178485714Y-100754852D01*
X178485714Y-100754852D02*
X178052380Y-100754852D01*
X179290476Y-101064376D02*
X179909523Y-101064376D01*
X179166666Y-101435804D02*
X179599999Y-100135804D01*
X179599999Y-100135804D02*
X180033333Y-101435804D01*
X181209523Y-101311995D02*
X181147619Y-101373900D01*
X181147619Y-101373900D02*
X180961904Y-101435804D01*
X180961904Y-101435804D02*
X180838095Y-101435804D01*
X180838095Y-101435804D02*
X180652381Y-101373900D01*
X180652381Y-101373900D02*
X180528571Y-101250090D01*
X180528571Y-101250090D02*
X180466666Y-101126280D01*
X180466666Y-101126280D02*
X180404762Y-100878661D01*
X180404762Y-100878661D02*
X180404762Y-100692947D01*
X180404762Y-100692947D02*
X180466666Y-100445328D01*
X180466666Y-100445328D02*
X180528571Y-100321519D01*
X180528571Y-100321519D02*
X180652381Y-100197709D01*
X180652381Y-100197709D02*
X180838095Y-100135804D01*
X180838095Y-100135804D02*
X180961904Y-100135804D01*
X180961904Y-100135804D02*
X181147619Y-100197709D01*
X181147619Y-100197709D02*
X181209523Y-100259614D01*
X181766666Y-101435804D02*
X181766666Y-100135804D01*
X182509523Y-101435804D02*
X181952381Y-100692947D01*
X182509523Y-100135804D02*
X181766666Y-100878661D01*
D13*
X176399819Y-112321786D02*
X175399819Y-112321786D01*
X175399819Y-112321786D02*
X175399819Y-112083691D01*
X175399819Y-112083691D02*
X175447438Y-111940834D01*
X175447438Y-111940834D02*
X175542676Y-111845596D01*
X175542676Y-111845596D02*
X175637914Y-111797977D01*
X175637914Y-111797977D02*
X175828390Y-111750358D01*
X175828390Y-111750358D02*
X175971247Y-111750358D01*
X175971247Y-111750358D02*
X176161723Y-111797977D01*
X176161723Y-111797977D02*
X176256961Y-111845596D01*
X176256961Y-111845596D02*
X176352200Y-111940834D01*
X176352200Y-111940834D02*
X176399819Y-112083691D01*
X176399819Y-112083691D02*
X176399819Y-112321786D01*
X175399819Y-110845596D02*
X175399819Y-111321786D01*
X175399819Y-111321786D02*
X175876009Y-111369405D01*
X175876009Y-111369405D02*
X175828390Y-111321786D01*
X175828390Y-111321786D02*
X175780771Y-111226548D01*
X175780771Y-111226548D02*
X175780771Y-110988453D01*
X175780771Y-110988453D02*
X175828390Y-110893215D01*
X175828390Y-110893215D02*
X175876009Y-110845596D01*
X175876009Y-110845596D02*
X175971247Y-110797977D01*
X175971247Y-110797977D02*
X176209342Y-110797977D01*
X176209342Y-110797977D02*
X176304580Y-110845596D01*
X176304580Y-110845596D02*
X176352200Y-110893215D01*
X176352200Y-110893215D02*
X176399819Y-110988453D01*
X176399819Y-110988453D02*
X176399819Y-111226548D01*
X176399819Y-111226548D02*
X176352200Y-111321786D01*
X176352200Y-111321786D02*
X176304580Y-111369405D01*
X175733152Y-109940834D02*
X176399819Y-109940834D01*
X175352200Y-110178929D02*
X176066485Y-110417024D01*
X176066485Y-110417024D02*
X176066485Y-109797977D01*
D12*
X173786190Y-84015804D02*
X174033809Y-84015804D01*
X174033809Y-84015804D02*
X174157619Y-84077709D01*
X174157619Y-84077709D02*
X174281428Y-84201519D01*
X174281428Y-84201519D02*
X174343333Y-84449138D01*
X174343333Y-84449138D02*
X174343333Y-84882471D01*
X174343333Y-84882471D02*
X174281428Y-85130090D01*
X174281428Y-85130090D02*
X174157619Y-85253900D01*
X174157619Y-85253900D02*
X174033809Y-85315804D01*
X174033809Y-85315804D02*
X173786190Y-85315804D01*
X173786190Y-85315804D02*
X173662381Y-85253900D01*
X173662381Y-85253900D02*
X173538571Y-85130090D01*
X173538571Y-85130090D02*
X173476667Y-84882471D01*
X173476667Y-84882471D02*
X173476667Y-84449138D01*
X173476667Y-84449138D02*
X173538571Y-84201519D01*
X173538571Y-84201519D02*
X173662381Y-84077709D01*
X173662381Y-84077709D02*
X173786190Y-84015804D01*
X118401191Y-101423900D02*
X118586905Y-101485804D01*
X118586905Y-101485804D02*
X118896429Y-101485804D01*
X118896429Y-101485804D02*
X119020238Y-101423900D01*
X119020238Y-101423900D02*
X119082143Y-101361995D01*
X119082143Y-101361995D02*
X119144048Y-101238185D01*
X119144048Y-101238185D02*
X119144048Y-101114376D01*
X119144048Y-101114376D02*
X119082143Y-100990566D01*
X119082143Y-100990566D02*
X119020238Y-100928661D01*
X119020238Y-100928661D02*
X118896429Y-100866757D01*
X118896429Y-100866757D02*
X118648810Y-100804852D01*
X118648810Y-100804852D02*
X118525000Y-100742947D01*
X118525000Y-100742947D02*
X118463095Y-100681042D01*
X118463095Y-100681042D02*
X118401191Y-100557233D01*
X118401191Y-100557233D02*
X118401191Y-100433423D01*
X118401191Y-100433423D02*
X118463095Y-100309614D01*
X118463095Y-100309614D02*
X118525000Y-100247709D01*
X118525000Y-100247709D02*
X118648810Y-100185804D01*
X118648810Y-100185804D02*
X118958333Y-100185804D01*
X118958333Y-100185804D02*
X119144048Y-100247709D01*
X120134524Y-100804852D02*
X119701190Y-100804852D01*
X119701190Y-101485804D02*
X119701190Y-100185804D01*
X119701190Y-100185804D02*
X120320238Y-100185804D01*
X120629762Y-100185804D02*
X121372619Y-100185804D01*
X121001191Y-101485804D02*
X121001191Y-100185804D01*
D13*
X172985714Y-94404819D02*
X172985714Y-93404819D01*
X172985714Y-93404819D02*
X173223809Y-93404819D01*
X173223809Y-93404819D02*
X173366666Y-93452438D01*
X173366666Y-93452438D02*
X173461904Y-93547676D01*
X173461904Y-93547676D02*
X173509523Y-93642914D01*
X173509523Y-93642914D02*
X173557142Y-93833390D01*
X173557142Y-93833390D02*
X173557142Y-93976247D01*
X173557142Y-93976247D02*
X173509523Y-94166723D01*
X173509523Y-94166723D02*
X173461904Y-94261961D01*
X173461904Y-94261961D02*
X173366666Y-94357200D01*
X173366666Y-94357200D02*
X173223809Y-94404819D01*
X173223809Y-94404819D02*
X172985714Y-94404819D01*
X174414285Y-93738152D02*
X174414285Y-94404819D01*
X174176190Y-93357200D02*
X173938095Y-94071485D01*
X173938095Y-94071485D02*
X174557142Y-94071485D01*
X175128571Y-93404819D02*
X175223809Y-93404819D01*
X175223809Y-93404819D02*
X175319047Y-93452438D01*
X175319047Y-93452438D02*
X175366666Y-93500057D01*
X175366666Y-93500057D02*
X175414285Y-93595295D01*
X175414285Y-93595295D02*
X175461904Y-93785771D01*
X175461904Y-93785771D02*
X175461904Y-94023866D01*
X175461904Y-94023866D02*
X175414285Y-94214342D01*
X175414285Y-94214342D02*
X175366666Y-94309580D01*
X175366666Y-94309580D02*
X175319047Y-94357200D01*
X175319047Y-94357200D02*
X175223809Y-94404819D01*
X175223809Y-94404819D02*
X175128571Y-94404819D01*
X175128571Y-94404819D02*
X175033333Y-94357200D01*
X175033333Y-94357200D02*
X174985714Y-94309580D01*
X174985714Y-94309580D02*
X174938095Y-94214342D01*
X174938095Y-94214342D02*
X174890476Y-94023866D01*
X174890476Y-94023866D02*
X174890476Y-93785771D01*
X174890476Y-93785771D02*
X174938095Y-93595295D01*
X174938095Y-93595295D02*
X174985714Y-93500057D01*
X174985714Y-93500057D02*
X175033333Y-93452438D01*
X175033333Y-93452438D02*
X175128571Y-93404819D01*
X177633333Y-91104819D02*
X177300000Y-90628628D01*
X177061905Y-91104819D02*
X177061905Y-90104819D01*
X177061905Y-90104819D02*
X177442857Y-90104819D01*
X177442857Y-90104819D02*
X177538095Y-90152438D01*
X177538095Y-90152438D02*
X177585714Y-90200057D01*
X177585714Y-90200057D02*
X177633333Y-90295295D01*
X177633333Y-90295295D02*
X177633333Y-90438152D01*
X177633333Y-90438152D02*
X177585714Y-90533390D01*
X177585714Y-90533390D02*
X177538095Y-90581009D01*
X177538095Y-90581009D02*
X177442857Y-90628628D01*
X177442857Y-90628628D02*
X177061905Y-90628628D01*
X178490476Y-90438152D02*
X178490476Y-91104819D01*
X178252381Y-90057200D02*
X178014286Y-90771485D01*
X178014286Y-90771485D02*
X178633333Y-90771485D01*
X125796814Y-90029819D02*
X125796814Y-89029819D01*
X125796814Y-89029819D02*
X126034909Y-89029819D01*
X126034909Y-89029819D02*
X126177766Y-89077438D01*
X126177766Y-89077438D02*
X126273004Y-89172676D01*
X126273004Y-89172676D02*
X126320623Y-89267914D01*
X126320623Y-89267914D02*
X126368242Y-89458390D01*
X126368242Y-89458390D02*
X126368242Y-89601247D01*
X126368242Y-89601247D02*
X126320623Y-89791723D01*
X126320623Y-89791723D02*
X126273004Y-89886961D01*
X126273004Y-89886961D02*
X126177766Y-89982200D01*
X126177766Y-89982200D02*
X126034909Y-90029819D01*
X126034909Y-90029819D02*
X125796814Y-90029819D01*
X127320623Y-90029819D02*
X126749195Y-90029819D01*
X127034909Y-90029819D02*
X127034909Y-89029819D01*
X127034909Y-89029819D02*
X126939671Y-89172676D01*
X126939671Y-89172676D02*
X126844433Y-89267914D01*
X126844433Y-89267914D02*
X126749195Y-89315533D01*
X127701576Y-89125057D02*
X127749195Y-89077438D01*
X127749195Y-89077438D02*
X127844433Y-89029819D01*
X127844433Y-89029819D02*
X128082528Y-89029819D01*
X128082528Y-89029819D02*
X128177766Y-89077438D01*
X128177766Y-89077438D02*
X128225385Y-89125057D01*
X128225385Y-89125057D02*
X128273004Y-89220295D01*
X128273004Y-89220295D02*
X128273004Y-89315533D01*
X128273004Y-89315533D02*
X128225385Y-89458390D01*
X128225385Y-89458390D02*
X127653957Y-90029819D01*
X127653957Y-90029819D02*
X128273004Y-90029819D01*
X177435714Y-98479819D02*
X177435714Y-97479819D01*
X177435714Y-97479819D02*
X177673809Y-97479819D01*
X177673809Y-97479819D02*
X177816666Y-97527438D01*
X177816666Y-97527438D02*
X177911904Y-97622676D01*
X177911904Y-97622676D02*
X177959523Y-97717914D01*
X177959523Y-97717914D02*
X178007142Y-97908390D01*
X178007142Y-97908390D02*
X178007142Y-98051247D01*
X178007142Y-98051247D02*
X177959523Y-98241723D01*
X177959523Y-98241723D02*
X177911904Y-98336961D01*
X177911904Y-98336961D02*
X177816666Y-98432200D01*
X177816666Y-98432200D02*
X177673809Y-98479819D01*
X177673809Y-98479819D02*
X177435714Y-98479819D01*
X178864285Y-97813152D02*
X178864285Y-98479819D01*
X178626190Y-97432200D02*
X178388095Y-98146485D01*
X178388095Y-98146485D02*
X179007142Y-98146485D01*
X179816666Y-97479819D02*
X179626190Y-97479819D01*
X179626190Y-97479819D02*
X179530952Y-97527438D01*
X179530952Y-97527438D02*
X179483333Y-97575057D01*
X179483333Y-97575057D02*
X179388095Y-97717914D01*
X179388095Y-97717914D02*
X179340476Y-97908390D01*
X179340476Y-97908390D02*
X179340476Y-98289342D01*
X179340476Y-98289342D02*
X179388095Y-98384580D01*
X179388095Y-98384580D02*
X179435714Y-98432200D01*
X179435714Y-98432200D02*
X179530952Y-98479819D01*
X179530952Y-98479819D02*
X179721428Y-98479819D01*
X179721428Y-98479819D02*
X179816666Y-98432200D01*
X179816666Y-98432200D02*
X179864285Y-98384580D01*
X179864285Y-98384580D02*
X179911904Y-98289342D01*
X179911904Y-98289342D02*
X179911904Y-98051247D01*
X179911904Y-98051247D02*
X179864285Y-97956009D01*
X179864285Y-97956009D02*
X179816666Y-97908390D01*
X179816666Y-97908390D02*
X179721428Y-97860771D01*
X179721428Y-97860771D02*
X179530952Y-97860771D01*
X179530952Y-97860771D02*
X179435714Y-97908390D01*
X179435714Y-97908390D02*
X179388095Y-97956009D01*
X179388095Y-97956009D02*
X179340476Y-98051247D01*
X176934215Y-114396350D02*
X176934215Y-113396350D01*
X176934215Y-113872540D02*
X177505643Y-113872540D01*
X177505643Y-114396350D02*
X177505643Y-113396350D01*
X178505643Y-114396350D02*
X177934215Y-114396350D01*
X178219929Y-114396350D02*
X178219929Y-113396350D01*
X178219929Y-113396350D02*
X178124691Y-113539207D01*
X178124691Y-113539207D02*
X178029453Y-113634445D01*
X178029453Y-113634445D02*
X177934215Y-113682064D01*
X127513333Y-117294819D02*
X127180000Y-116818628D01*
X126941905Y-117294819D02*
X126941905Y-116294819D01*
X126941905Y-116294819D02*
X127322857Y-116294819D01*
X127322857Y-116294819D02*
X127418095Y-116342438D01*
X127418095Y-116342438D02*
X127465714Y-116390057D01*
X127465714Y-116390057D02*
X127513333Y-116485295D01*
X127513333Y-116485295D02*
X127513333Y-116628152D01*
X127513333Y-116628152D02*
X127465714Y-116723390D01*
X127465714Y-116723390D02*
X127418095Y-116771009D01*
X127418095Y-116771009D02*
X127322857Y-116818628D01*
X127322857Y-116818628D02*
X126941905Y-116818628D01*
X128418095Y-116294819D02*
X127941905Y-116294819D01*
X127941905Y-116294819D02*
X127894286Y-116771009D01*
X127894286Y-116771009D02*
X127941905Y-116723390D01*
X127941905Y-116723390D02*
X128037143Y-116675771D01*
X128037143Y-116675771D02*
X128275238Y-116675771D01*
X128275238Y-116675771D02*
X128370476Y-116723390D01*
X128370476Y-116723390D02*
X128418095Y-116771009D01*
X128418095Y-116771009D02*
X128465714Y-116866247D01*
X128465714Y-116866247D02*
X128465714Y-117104342D01*
X128465714Y-117104342D02*
X128418095Y-117199580D01*
X128418095Y-117199580D02*
X128370476Y-117247200D01*
X128370476Y-117247200D02*
X128275238Y-117294819D01*
X128275238Y-117294819D02*
X128037143Y-117294819D01*
X128037143Y-117294819D02*
X127941905Y-117247200D01*
X127941905Y-117247200D02*
X127894286Y-117199580D01*
D12*
X131108572Y-80869614D02*
X131170476Y-80807709D01*
X131170476Y-80807709D02*
X131294286Y-80745804D01*
X131294286Y-80745804D02*
X131603810Y-80745804D01*
X131603810Y-80745804D02*
X131727619Y-80807709D01*
X131727619Y-80807709D02*
X131789524Y-80869614D01*
X131789524Y-80869614D02*
X131851429Y-80993423D01*
X131851429Y-80993423D02*
X131851429Y-81117233D01*
X131851429Y-81117233D02*
X131789524Y-81302947D01*
X131789524Y-81302947D02*
X131046667Y-82045804D01*
X131046667Y-82045804D02*
X131851429Y-82045804D01*
D14*
%TO.C,D36*%
X159511201Y-81290000D02*
X159511201Y-83210000D01*
X159511201Y-83210000D02*
X162196200Y-83210000D01*
X162196200Y-81290000D02*
X159511201Y-81290000D01*
%TO.C,SWe88*%
X160100000Y-110510001D02*
X160100000Y-113810001D01*
X160100000Y-113810001D02*
X160400000Y-113810001D01*
X160400000Y-110510001D02*
X160100000Y-110510001D01*
X162600000Y-110510001D02*
X162900000Y-110510001D01*
X162900000Y-110510001D02*
X162900000Y-113810001D01*
X162900000Y-113810001D02*
X162600000Y-113810001D01*
%TO.C,D39*%
X179123001Y-81270000D02*
X179123001Y-83190000D01*
X179123001Y-83190000D02*
X181808000Y-83190000D01*
X181808000Y-81270000D02*
X179123001Y-81270000D01*
%TO.C,D20*%
X142668101Y-97015000D02*
X142668101Y-98935000D01*
X142668101Y-98935000D02*
X145353100Y-98935000D01*
X145353100Y-97015000D02*
X142668101Y-97015000D01*
%TO.C,D52*%
X169666401Y-112240000D02*
X169666401Y-114160000D01*
X169666401Y-114160000D02*
X172351400Y-114160000D01*
X172351400Y-112240000D02*
X169666401Y-112240000D01*
%TO.C,D11*%
X132122101Y-81290000D02*
X132122101Y-83210000D01*
X132122101Y-83210000D02*
X134807100Y-83210000D01*
X134807100Y-81290000D02*
X132122101Y-81290000D01*
%TO.C,SWe14*%
X159033300Y-85475000D02*
X162333300Y-85475000D01*
X159033300Y-85775000D02*
X159033300Y-85475000D01*
X159033300Y-87975000D02*
X159033300Y-88275000D01*
X159033300Y-88275000D02*
X162333300Y-88275000D01*
X162333300Y-85475000D02*
X162333300Y-85775000D01*
X162333300Y-88275000D02*
X162333300Y-87975000D01*
%TO.C,SWe64*%
X148750000Y-102125000D02*
X152050000Y-102125000D01*
X148750000Y-102425000D02*
X148750000Y-102125000D01*
X148750000Y-104625000D02*
X148750000Y-104925000D01*
X148750000Y-104925000D02*
X152050000Y-104925000D01*
X152050000Y-102125000D02*
X152050000Y-102425000D01*
X152050000Y-104925000D02*
X152050000Y-104625000D01*
%TO.C,D4*%
X137177500Y-107740000D02*
X137177500Y-109660000D01*
X137177500Y-109660000D02*
X139862500Y-109660000D01*
X139862500Y-107740000D02*
X137177500Y-107740000D01*
%TO.C,D15*%
X132212201Y-88590000D02*
X132212201Y-90510000D01*
X132212201Y-90510000D02*
X134897200Y-90510000D01*
X134897200Y-88590000D02*
X132212201Y-88590000D01*
%TO.C,SWe7*%
X164980001Y-117380000D02*
X164980001Y-117680000D01*
X164980001Y-120180000D02*
X164980001Y-119880000D01*
X168280001Y-117380000D02*
X164980001Y-117380000D01*
X168280001Y-117680000D02*
X168280001Y-117380000D01*
X168280001Y-119880000D02*
X168280001Y-120180000D01*
X168280001Y-120180000D02*
X164980001Y-120180000D01*
%TO.C,SWe12*%
X120310000Y-109140000D02*
X123610000Y-109140000D01*
X120310000Y-109440000D02*
X120310000Y-109140000D01*
X120310000Y-111640000D02*
X120310000Y-111940000D01*
X120310000Y-111940000D02*
X123610000Y-111940000D01*
X123610000Y-109140000D02*
X123610000Y-109440000D01*
X123610000Y-111940000D02*
X123610000Y-111640000D01*
%TO.C,SWe13*%
X154630000Y-117410000D02*
X157930000Y-117410000D01*
X154630000Y-117710000D02*
X154630000Y-117410000D01*
X154630000Y-119910000D02*
X154630000Y-120210000D01*
X154630000Y-120210000D02*
X157930000Y-120210000D01*
X157930000Y-117410000D02*
X157930000Y-117710000D01*
X157930000Y-120210000D02*
X157930000Y-119910000D01*
%TO.C,D21*%
X149260801Y-105065000D02*
X149260801Y-106985000D01*
X149260801Y-106985000D02*
X151945800Y-106985000D01*
X151945800Y-105065000D02*
X149260801Y-105065000D01*
%TO.C,D26*%
X156386901Y-97015000D02*
X156386901Y-98935000D01*
X156386901Y-98935000D02*
X159071900Y-98935000D01*
X159071900Y-97015000D02*
X156386901Y-97015000D01*
%TO.C,D43*%
X173528901Y-88590000D02*
X173528901Y-90510000D01*
X173528901Y-90510000D02*
X176213900Y-90510000D01*
X176213900Y-88590000D02*
X173528901Y-88590000D01*
%TO.C,D14*%
X135471901Y-105065000D02*
X135471901Y-106985000D01*
X135471901Y-106985000D02*
X138156900Y-106985000D01*
X138156900Y-105065000D02*
X135471901Y-105065000D01*
%TO.C,SWe50*%
X177860001Y-109590000D02*
X177860001Y-109890000D01*
X177860001Y-112390000D02*
X177860001Y-112090000D01*
X181160001Y-109590000D02*
X177860001Y-109590000D01*
X181160001Y-109890000D02*
X181160001Y-109590000D01*
X181160001Y-112090000D02*
X181160001Y-112390000D01*
X181160001Y-112390000D02*
X177860001Y-112390000D01*
%TO.C,D17*%
X142366401Y-105065000D02*
X142366401Y-106985000D01*
X142366401Y-106985000D02*
X145051400Y-106985000D01*
X145051400Y-105065000D02*
X142366401Y-105065000D01*
%TO.C,SWe38*%
X169389300Y-94075000D02*
X172689300Y-94075000D01*
X169389300Y-94375000D02*
X169389300Y-94075000D01*
X169389300Y-96575000D02*
X169389300Y-96875000D01*
X169389300Y-96875000D02*
X172689300Y-96875000D01*
X172689300Y-94075000D02*
X172689300Y-94375000D01*
X172689300Y-96875000D02*
X172689300Y-96575000D01*
%TO.C,D22*%
X163074999Y-114850000D02*
X160390000Y-114850000D01*
X163074999Y-116770000D02*
X163074999Y-114850000D01*
X160390000Y-116770000D02*
X163074999Y-116770000D01*
%TO.C,D27*%
X163049701Y-105065000D02*
X163049701Y-106985000D01*
X163049701Y-106985000D02*
X165734700Y-106985000D01*
X165734700Y-105065000D02*
X163049701Y-105065000D01*
%TO.C,D45*%
X170105601Y-97015000D02*
X170105601Y-98935000D01*
X170105601Y-98935000D02*
X172790600Y-98935000D01*
X172790600Y-97015000D02*
X170105601Y-97015000D01*
%TO.C,SWe20*%
X138333300Y-78350000D02*
X141633300Y-78350000D01*
X138333300Y-78650000D02*
X138333300Y-78350000D01*
X138333300Y-80850000D02*
X138333300Y-81150000D01*
X138333300Y-81150000D02*
X141633300Y-81150000D01*
X141633300Y-78350000D02*
X141633300Y-78650000D01*
X141633300Y-81150000D02*
X141633300Y-80850000D01*
%TO.C,SWe21*%
X145236100Y-78350000D02*
X148536100Y-78350000D01*
X145236100Y-78650000D02*
X145236100Y-78350000D01*
X145236100Y-80850000D02*
X145236100Y-81150000D01*
X145236100Y-81150000D02*
X148536100Y-81150000D01*
X148536100Y-78350000D02*
X148536100Y-78650000D01*
X148536100Y-81150000D02*
X148536100Y-80850000D01*
%TO.C,SWe73*%
X148712500Y-94075000D02*
X152012500Y-94075000D01*
X148712500Y-94375000D02*
X148712500Y-94075000D01*
X148712500Y-96575000D02*
X148712500Y-96875000D01*
X148712500Y-96875000D02*
X152012500Y-96875000D01*
X152012500Y-94075000D02*
X152012500Y-94375000D01*
X152012500Y-96875000D02*
X152012500Y-96575000D01*
%TO.C,SWe53*%
X134932400Y-94075000D02*
X138232400Y-94075000D01*
X134932400Y-94375000D02*
X134932400Y-94075000D01*
X134932400Y-96575000D02*
X134932400Y-96875000D01*
X134932400Y-96875000D02*
X138232400Y-96875000D01*
X138232400Y-94075000D02*
X138232400Y-94375000D01*
X138232400Y-96875000D02*
X138232400Y-96575000D01*
%TO.C,SWe87*%
X155650000Y-102125000D02*
X158950000Y-102125000D01*
X155650000Y-102425000D02*
X155650000Y-102125000D01*
X155650000Y-104625000D02*
X155650000Y-104925000D01*
X155650000Y-104925000D02*
X158950000Y-104925000D01*
X158950000Y-102125000D02*
X158950000Y-102425000D01*
X158950000Y-104925000D02*
X158950000Y-104625000D01*
%TO.C,SWe2*%
X159800000Y-117400000D02*
X159800000Y-117700000D01*
X159800000Y-120200000D02*
X159800000Y-119900000D01*
X163100000Y-117400000D02*
X159800000Y-117400000D01*
X163100000Y-117700000D02*
X163100000Y-117400000D01*
X163100000Y-119900000D02*
X163100000Y-120200000D01*
X163100000Y-120200000D02*
X159800000Y-120200000D01*
%TO.C,D8*%
X122090001Y-97015000D02*
X122090001Y-98935000D01*
X122090001Y-98935000D02*
X124775000Y-98935000D01*
X124775000Y-97015000D02*
X122090001Y-97015000D01*
%TO.C,SWe33*%
X121125000Y-94075000D02*
X124425000Y-94075000D01*
X121125000Y-94375000D02*
X121125000Y-94075000D01*
X121125000Y-96575000D02*
X121125000Y-96875000D01*
X121125000Y-96875000D02*
X124425000Y-96875000D01*
X124425000Y-94075000D02*
X124425000Y-94375000D01*
X124425000Y-96875000D02*
X124425000Y-96575000D01*
%TO.C,D16*%
X135808801Y-97015000D02*
X135808801Y-98935000D01*
X135808801Y-98935000D02*
X138493800Y-98935000D01*
X138493800Y-97015000D02*
X135808801Y-97015000D01*
%TO.C,SWe62*%
X138366700Y-85475000D02*
X141666700Y-85475000D01*
X138366700Y-85775000D02*
X138366700Y-85475000D01*
X138366700Y-87975000D02*
X138366700Y-88275000D01*
X138366700Y-88275000D02*
X141666700Y-88275000D01*
X141666700Y-85475000D02*
X141666700Y-85775000D01*
X141666700Y-88275000D02*
X141666700Y-87975000D01*
%TO.C,SWe28*%
X172310000Y-78380000D02*
X175610000Y-78380000D01*
X172310000Y-78680000D02*
X172310000Y-78380000D01*
X172310000Y-80880000D02*
X172310000Y-81180000D01*
X172310000Y-81180000D02*
X175610000Y-81180000D01*
X175610000Y-78380000D02*
X175610000Y-78680000D01*
X175610000Y-81180000D02*
X175610000Y-80880000D01*
%TO.C,SWe27*%
X165504400Y-78350000D02*
X168804400Y-78350000D01*
X165504400Y-78650000D02*
X165504400Y-78350000D01*
X165504400Y-80850000D02*
X165504400Y-81150000D01*
X165504400Y-81150000D02*
X168804400Y-81150000D01*
X168804400Y-78350000D02*
X168804400Y-78650000D01*
X168804400Y-81150000D02*
X168804400Y-80850000D01*
%TO.C,SWe29*%
X178820000Y-78330000D02*
X182120000Y-78330000D01*
X178820000Y-78630000D02*
X178820000Y-78330000D01*
X178820000Y-80830000D02*
X178820000Y-81130000D01*
X178820000Y-81130000D02*
X182120000Y-81130000D01*
X182120000Y-78330000D02*
X182120000Y-78630000D01*
X182120000Y-81130000D02*
X182120000Y-80830000D01*
%TO.C,SWe34*%
X128050000Y-102125000D02*
X131350000Y-102125000D01*
X128050000Y-102425000D02*
X128050000Y-102125000D01*
X128050000Y-104625000D02*
X128050000Y-104925000D01*
X128050000Y-104925000D02*
X131350000Y-104925000D01*
X131350000Y-102125000D02*
X131350000Y-102425000D01*
X131350000Y-104925000D02*
X131350000Y-104625000D01*
%TO.C,D25*%
X152870601Y-88590000D02*
X152870601Y-90510000D01*
X152870601Y-90510000D02*
X155555600Y-90510000D01*
X155555600Y-88590000D02*
X152870601Y-88590000D01*
%TO.C,R2*%
X135527064Y-107965000D02*
X135072936Y-107965000D01*
X135527064Y-109435000D02*
X135072936Y-109435000D01*
%TO.C,D3*%
X120015001Y-105215000D02*
X120015001Y-107135000D01*
X120015001Y-107135000D02*
X122700000Y-107135000D01*
X122700000Y-105215000D02*
X120015001Y-105215000D01*
%TO.C,R6*%
X164535435Y-108070000D02*
X164989563Y-108070000D01*
X164535435Y-109540000D02*
X164989563Y-109540000D01*
%TO.C,D91*%
X148865908Y-111935336D02*
X151550907Y-111935336D01*
X151550907Y-110015336D02*
X148865908Y-110015336D01*
X151550907Y-111935336D02*
X151550907Y-110015336D01*
%TO.C,SWe4*%
X152144400Y-85475000D02*
X155444400Y-85475000D01*
X152144400Y-85775000D02*
X152144400Y-85475000D01*
X152144400Y-87975000D02*
X152144400Y-88275000D01*
X152144400Y-88275000D02*
X155444400Y-88275000D01*
X155444400Y-85475000D02*
X155444400Y-85775000D01*
X155444400Y-88275000D02*
X155444400Y-87975000D01*
D15*
%TO.C,U1*%
X139225000Y-113275000D02*
X139225001Y-113635000D01*
X139225000Y-117375000D02*
X139585000Y-117374999D01*
X139225001Y-117015000D02*
X139225000Y-117375000D01*
X139585000Y-113275001D02*
X139225000Y-113275000D01*
X142965000Y-113275001D02*
X143325000Y-113275000D01*
X142965000Y-117374999D02*
X143325000Y-117375000D01*
X143325000Y-113275000D02*
X143324999Y-113635000D01*
X143325000Y-117375000D02*
X143324999Y-117015000D01*
D12*
X144170000Y-116575000D02*
G75*
G02*
X144070000Y-116575000I-50000J0D01*
G01*
X144070000Y-116575000D02*
G75*
G02*
X144170000Y-116575000I50000J0D01*
G01*
D14*
%TO.C,R1*%
X125455000Y-112062936D02*
X125455000Y-112517064D01*
X126925000Y-112062936D02*
X126925000Y-112517064D01*
%TO.C,SWe26*%
X159041700Y-78350000D02*
X162341700Y-78350000D01*
X159041700Y-78650000D02*
X159041700Y-78350000D01*
X159041700Y-80850000D02*
X159041700Y-81150000D01*
X159041700Y-81150000D02*
X162341700Y-81150000D01*
X162341700Y-78350000D02*
X162341700Y-78650000D01*
X162341700Y-81150000D02*
X162341700Y-80850000D01*
%TO.C,D18*%
X155382501Y-115125000D02*
X155382501Y-117045000D01*
X155382501Y-117045000D02*
X158067500Y-117045000D01*
X158067500Y-115125000D02*
X155382501Y-115125000D01*
%TO.C,SWe63*%
X141822400Y-94075000D02*
X145122400Y-94075000D01*
X141822400Y-94375000D02*
X141822400Y-94075000D01*
X141822400Y-96575000D02*
X141822400Y-96875000D01*
X141822400Y-96875000D02*
X145122400Y-96875000D01*
X145122400Y-94075000D02*
X145122400Y-94375000D01*
X145122400Y-96875000D02*
X145122400Y-96575000D01*
%TO.C,SWe44*%
X134950000Y-102125000D02*
X138250000Y-102125000D01*
X134950000Y-102425000D02*
X134950000Y-102125000D01*
X134950000Y-104625000D02*
X134950000Y-104925000D01*
X134950000Y-104925000D02*
X138250000Y-104925000D01*
X138250000Y-102125000D02*
X138250000Y-102425000D01*
X138250000Y-104925000D02*
X138250000Y-104625000D01*
%TO.C,D6*%
X125077500Y-91340000D02*
X125077500Y-93260000D01*
X125077500Y-93260000D02*
X127762500Y-93260000D01*
X127762500Y-91340000D02*
X125077500Y-91340000D01*
%TO.C,D23*%
X145984401Y-88590000D02*
X145984401Y-90510000D01*
X145984401Y-90510000D02*
X148669400Y-90510000D01*
X148669400Y-88590000D02*
X145984401Y-88590000D01*
%TO.C,SWe15*%
X162492600Y-94075000D02*
X165792600Y-94075000D01*
X162492600Y-94375000D02*
X162492600Y-94075000D01*
X162492600Y-96575000D02*
X162492600Y-96875000D01*
X162492600Y-96875000D02*
X165792600Y-96875000D01*
X165792600Y-94075000D02*
X165792600Y-94375000D01*
X165792600Y-96875000D02*
X165792600Y-96575000D01*
%TO.C,SWe42*%
X124588900Y-85475000D02*
X127888900Y-85475000D01*
X124588900Y-85775000D02*
X124588900Y-85475000D01*
X124588900Y-87975000D02*
X124588900Y-88275000D01*
X124588900Y-88275000D02*
X127888900Y-88275000D01*
X127888900Y-85475000D02*
X127888900Y-85775000D01*
X127888900Y-88275000D02*
X127888900Y-87975000D01*
%TO.C,SWe25*%
X152138900Y-78350000D02*
X155438900Y-78350000D01*
X152138900Y-78650000D02*
X152138900Y-78350000D01*
X152138900Y-80850000D02*
X152138900Y-81150000D01*
X152138900Y-81150000D02*
X155438900Y-81150000D01*
X155438900Y-78350000D02*
X155438900Y-78650000D01*
X155438900Y-81150000D02*
X155438900Y-80850000D01*
%TO.C,D92*%
X156155300Y-105065000D02*
X156155300Y-106985000D01*
X156155300Y-106985000D02*
X158840300Y-106985000D01*
X158840300Y-105065000D02*
X156155300Y-105065000D01*
%TO.C,D5*%
X119602502Y-112610000D02*
X119602502Y-114530000D01*
X119602502Y-114530000D02*
X122287501Y-114530000D01*
X122287501Y-112610000D02*
X119602502Y-112610000D01*
%TO.C,D24*%
X149527501Y-97015000D02*
X149527501Y-98935000D01*
X149527501Y-98935000D02*
X152212500Y-98935000D01*
X152212500Y-97015000D02*
X149527501Y-97015000D01*
%TO.C,D93*%
X157290001Y-111490001D02*
X157290001Y-114175000D01*
X159210001Y-111490001D02*
X157290001Y-111490001D01*
X159210001Y-114175000D02*
X159210001Y-111490001D01*
%TO.C,SWe52*%
X131477800Y-85475000D02*
X134777800Y-85475000D01*
X131477800Y-85775000D02*
X131477800Y-85475000D01*
X131477800Y-87975000D02*
X131477800Y-88275000D01*
X131477800Y-88275000D02*
X134777800Y-88275000D01*
X134777800Y-85475000D02*
X134777800Y-85775000D01*
X134777800Y-88275000D02*
X134777800Y-87975000D01*
%TO.C,D32*%
X178552501Y-105715000D02*
X178552501Y-107635000D01*
X178552501Y-107635000D02*
X181237500Y-107635000D01*
X181237500Y-105715000D02*
X178552501Y-105715000D01*
%TO.C,D47*%
X160162499Y-109760000D02*
X162847498Y-109760000D01*
X162847498Y-107840000D02*
X160162499Y-107840000D01*
X162847498Y-109760000D02*
X162847498Y-107840000D01*
%TO.C,D38*%
X172668501Y-81320000D02*
X172668501Y-83240000D01*
X172668501Y-83240000D02*
X175353500Y-83240000D01*
X175353500Y-81320000D02*
X172668501Y-81320000D01*
%TO.C,D13*%
X128949401Y-97015000D02*
X128949401Y-98935000D01*
X128949401Y-98935000D02*
X131634400Y-98935000D01*
X131634400Y-97015000D02*
X128949401Y-97015000D01*
%TO.C,SWe48*%
X168850000Y-109300000D02*
X172150000Y-109300000D01*
X168850000Y-109600000D02*
X168850000Y-109300000D01*
X168850000Y-111800000D02*
X168850000Y-112100000D01*
X168850000Y-112100000D02*
X172150000Y-112100000D01*
X172150000Y-109300000D02*
X172150000Y-109600000D01*
X172150000Y-112100000D02*
X172150000Y-111800000D01*
%TO.C,D30*%
X163246301Y-97015000D02*
X163246301Y-98935000D01*
X163246301Y-98935000D02*
X165931300Y-98935000D01*
X165931300Y-97015000D02*
X163246301Y-97015000D01*
%TO.C,D9*%
X118440001Y-88590000D02*
X118440001Y-90510000D01*
X118440001Y-90510000D02*
X121125000Y-90510000D01*
X121125000Y-88590000D02*
X118440001Y-88590000D01*
%TO.C,D34*%
X145816601Y-81290000D02*
X145816601Y-83210000D01*
X145816601Y-83210000D02*
X148501600Y-83210000D01*
X148501600Y-81290000D02*
X145816601Y-81290000D01*
%TO.C,D10*%
X125804801Y-81300000D02*
X125804801Y-83220000D01*
X125804801Y-83220000D02*
X128489800Y-83220000D01*
X128489800Y-81300000D02*
X125804801Y-81300000D01*
%TO.C,SWe54*%
X141850000Y-102125000D02*
X145150000Y-102125000D01*
X141850000Y-102425000D02*
X141850000Y-102125000D01*
X141850000Y-104625000D02*
X141850000Y-104925000D01*
X141850000Y-104925000D02*
X145150000Y-104925000D01*
X145150000Y-102125000D02*
X145150000Y-102425000D01*
X145150000Y-104925000D02*
X145150000Y-104625000D01*
%TO.C,R7*%
X131617064Y-114605000D02*
X131162936Y-114605000D01*
X131617064Y-116075000D02*
X131162936Y-116075000D01*
%TO.C,SWe39*%
X176300000Y-94075000D02*
X179600000Y-94075000D01*
X176300000Y-94375000D02*
X176300000Y-94075000D01*
X176300000Y-96575000D02*
X176300000Y-96875000D01*
X176300000Y-96875000D02*
X179600000Y-96875000D01*
X179600000Y-94075000D02*
X179600000Y-94375000D01*
X179600000Y-96875000D02*
X179600000Y-96575000D01*
%TO.C,SWe72*%
X145255600Y-85475000D02*
X148555600Y-85475000D01*
X145255600Y-85775000D02*
X145255600Y-85475000D01*
X145255600Y-87975000D02*
X145255600Y-88275000D01*
X145255600Y-88275000D02*
X148555600Y-88275000D01*
X148555600Y-85475000D02*
X148555600Y-85775000D01*
X148555600Y-88275000D02*
X148555600Y-87975000D01*
%TO.C,SWe16*%
X169450000Y-102125000D02*
X172750000Y-102125000D01*
X169450000Y-102425000D02*
X169450000Y-102125000D01*
X169450000Y-104625000D02*
X169450000Y-104925000D01*
X169450000Y-104925000D02*
X172750000Y-104925000D01*
X172750000Y-102125000D02*
X172750000Y-102425000D01*
X172750000Y-104925000D02*
X172750000Y-104625000D01*
%TO.C,R3*%
X123352064Y-91565000D02*
X122897936Y-91565000D01*
X123352064Y-93035000D02*
X122897936Y-93035000D01*
%TO.C,D35*%
X152663901Y-81290000D02*
X152663901Y-83210000D01*
X152663901Y-83210000D02*
X155348900Y-83210000D01*
X155348900Y-81290000D02*
X152663901Y-81290000D01*
%TO.C,SWe47*%
X131500000Y-113525000D02*
X131500000Y-113225000D01*
X131500000Y-110725000D02*
X131500000Y-111025000D01*
X128200000Y-113525000D02*
X131500000Y-113525000D01*
X128200000Y-113225000D02*
X128200000Y-113525000D01*
X128200000Y-111025000D02*
X128200000Y-110725000D01*
X128200000Y-110725000D02*
X131500000Y-110725000D01*
%TO.C,SWe86*%
X143890908Y-109375336D02*
X147190908Y-109375336D01*
X143890908Y-109675336D02*
X143890908Y-109375336D01*
X143890908Y-111875336D02*
X143890908Y-112175336D01*
X143890908Y-112175336D02*
X147190908Y-112175336D01*
X147190908Y-109375336D02*
X147190908Y-109675336D01*
X147190908Y-112175336D02*
X147190908Y-111875336D01*
%TO.C,D28*%
X165130002Y-117115000D02*
X167815001Y-117115000D01*
X167815001Y-115195000D02*
X165130002Y-115195000D01*
X167815001Y-117115000D02*
X167815001Y-115195000D01*
%TO.C,SWe5*%
X155602600Y-94075000D02*
X158902600Y-94075000D01*
X155602600Y-94375000D02*
X155602600Y-94075000D01*
X155602600Y-96575000D02*
X155602600Y-96875000D01*
X155602600Y-96875000D02*
X158902600Y-96875000D01*
X158902600Y-94075000D02*
X158902600Y-94375000D01*
X158902600Y-96875000D02*
X158902600Y-96575000D01*
%TO.C,D42*%
X166642801Y-88590000D02*
X166642801Y-90510000D01*
X166642801Y-90510000D02*
X169327800Y-90510000D01*
X169327800Y-88590000D02*
X166642801Y-88590000D01*
%TO.C,D2*%
X118952500Y-81460000D02*
X118952500Y-83380000D01*
X118952500Y-83380000D02*
X121637499Y-83380000D01*
X121637499Y-81460000D02*
X118952500Y-81460000D01*
%TO.C,D44*%
X180140000Y-88465000D02*
X180140000Y-90385000D01*
X180140000Y-90385000D02*
X182824999Y-90385000D01*
X182824999Y-88465000D02*
X180140000Y-88465000D01*
%TO.C,D19*%
X139098301Y-88590000D02*
X139098301Y-90510000D01*
X139098301Y-90510000D02*
X141783300Y-90510000D01*
X141783300Y-88590000D02*
X139098301Y-88590000D01*
%TO.C,ESC1*%
X118149999Y-78520000D02*
X121449999Y-78520000D01*
X118149999Y-78820000D02*
X118149999Y-78520000D01*
X118149999Y-81020000D02*
X118149999Y-81320000D01*
X118149999Y-81320000D02*
X121449999Y-81320000D01*
X121449999Y-78520000D02*
X121449999Y-78820000D01*
X121449999Y-81320000D02*
X121449999Y-81020000D01*
%TO.C,SWe35*%
X165922200Y-85475000D02*
X169222200Y-85475000D01*
X165922200Y-85775000D02*
X165922200Y-85475000D01*
X165922200Y-87975000D02*
X165922200Y-88275000D01*
X165922200Y-88275000D02*
X169222200Y-88275000D01*
X169222200Y-85475000D02*
X169222200Y-85775000D01*
X169222200Y-88275000D02*
X169222200Y-87975000D01*
%TO.C,D29*%
X159756701Y-88590000D02*
X159756701Y-90510000D01*
X159756701Y-90510000D02*
X162441700Y-90510000D01*
X162441700Y-88590000D02*
X159756701Y-88590000D01*
%TO.C,SWe32*%
X117700000Y-85475000D02*
X121000000Y-85475000D01*
X117700000Y-85775000D02*
X117700000Y-85475000D01*
X117700000Y-87975000D02*
X117700000Y-88275000D01*
X117700000Y-88275000D02*
X121000000Y-88275000D01*
X121000000Y-85475000D02*
X121000000Y-85775000D01*
X121000000Y-88275000D02*
X121000000Y-87975000D01*
%TO.C,D31*%
X169944201Y-105065000D02*
X169944201Y-106985000D01*
X169944201Y-106985000D02*
X172629200Y-106985000D01*
X172629200Y-105065000D02*
X169944201Y-105065000D01*
%TO.C,SWe8*%
X125057800Y-78360000D02*
X128357800Y-78360000D01*
X125057800Y-78660000D02*
X125057800Y-78360000D01*
X125057800Y-80860000D02*
X125057800Y-81160000D01*
X125057800Y-81160000D02*
X128357800Y-81160000D01*
X128357800Y-78360000D02*
X128357800Y-78660000D01*
X128357800Y-81160000D02*
X128357800Y-80860000D01*
%TO.C,SWe6*%
X162550000Y-102125000D02*
X165850000Y-102125000D01*
X162550000Y-102425000D02*
X162550000Y-102125000D01*
X162550000Y-104625000D02*
X162550000Y-104925000D01*
X162550000Y-104925000D02*
X165850000Y-104925000D01*
X165850000Y-102125000D02*
X165850000Y-102425000D01*
X165850000Y-104925000D02*
X165850000Y-104625000D01*
%TO.C,D7*%
X128577501Y-105065000D02*
X128577501Y-106985000D01*
X128577501Y-106985000D02*
X131262500Y-106985000D01*
X131262500Y-105065000D02*
X128577501Y-105065000D01*
%TO.C,SWe43*%
X128035700Y-94075000D02*
X131335700Y-94075000D01*
X128035700Y-94375000D02*
X128035700Y-94075000D01*
X128035700Y-96575000D02*
X128035700Y-96875000D01*
X128035700Y-96875000D02*
X131335700Y-96875000D01*
X131335700Y-94075000D02*
X131335700Y-94375000D01*
X131335700Y-96875000D02*
X131335700Y-96575000D01*
%TO.C,D51*%
X128927500Y-108540000D02*
X128927500Y-110460000D01*
X128927500Y-110460000D02*
X131612499Y-110460000D01*
X131612499Y-108540000D02*
X128927500Y-108540000D01*
%TO.C,SWe37*%
X179424999Y-85350000D02*
X182724999Y-85350000D01*
X179424999Y-85650000D02*
X179424999Y-85350000D01*
X179424999Y-87850000D02*
X179424999Y-88150000D01*
X179424999Y-88150000D02*
X182724999Y-88150000D01*
X182724999Y-85350000D02*
X182724999Y-85650000D01*
X182724999Y-88150000D02*
X182724999Y-87850000D01*
%TO.C,SWe17*%
X178025000Y-102525000D02*
X181325000Y-102525000D01*
X178025000Y-102825000D02*
X178025000Y-102525000D01*
X178025000Y-105025000D02*
X178025000Y-105325000D01*
X178025000Y-105325000D02*
X181325000Y-105325000D01*
X181325000Y-102525000D02*
X181325000Y-102825000D01*
X181325000Y-105325000D02*
X181325000Y-105025000D01*
%TO.C,D54*%
X175010000Y-109372502D02*
X175010000Y-112057501D01*
X176930000Y-109372502D02*
X175010000Y-109372502D01*
X176930000Y-112057501D02*
X176930000Y-109372502D01*
%TO.C,SWe36*%
X172811100Y-85475000D02*
X176111100Y-85475000D01*
X172811100Y-85775000D02*
X172811100Y-85475000D01*
X172811100Y-87975000D02*
X172811100Y-88275000D01*
X172811100Y-88275000D02*
X176111100Y-88275000D01*
X176111100Y-85475000D02*
X176111100Y-85775000D01*
X176111100Y-88275000D02*
X176111100Y-87975000D01*
%TO.C,D33*%
X138969301Y-81290000D02*
X138969301Y-83210000D01*
X138969301Y-83210000D02*
X141654300Y-83210000D01*
X141654300Y-81290000D02*
X138969301Y-81290000D01*
%TO.C,SWe24*%
X119350000Y-102275000D02*
X122650000Y-102275000D01*
X119350000Y-102575000D02*
X119350000Y-102275000D01*
X119350000Y-104775000D02*
X119350000Y-105075000D01*
X119350000Y-105075000D02*
X122650000Y-105075000D01*
X122650000Y-102275000D02*
X122650000Y-102575000D01*
X122650000Y-105075000D02*
X122650000Y-104775000D01*
%TO.C,D40*%
X173200000Y-93260000D02*
X175884999Y-93260000D01*
X175884999Y-91340000D02*
X173200000Y-91340000D01*
X175884999Y-93260000D02*
X175884999Y-91340000D01*
%TO.C,R4*%
X177572936Y-91565000D02*
X178027064Y-91565000D01*
X177572936Y-93035000D02*
X178027064Y-93035000D01*
%TO.C,D12*%
X125326101Y-88590000D02*
X125326101Y-90510000D01*
X125326101Y-90510000D02*
X128011100Y-90510000D01*
X128011100Y-88590000D02*
X125326101Y-88590000D01*
%TO.C,D46*%
X176965001Y-97015000D02*
X176965001Y-98935000D01*
X176965001Y-98935000D02*
X179650000Y-98935000D01*
X179650000Y-97015000D02*
X176965001Y-97015000D01*
%TO.C,D37*%
X165918501Y-81290000D02*
X165918501Y-83210000D01*
X165918501Y-83210000D02*
X168603500Y-83210000D01*
X168603500Y-81290000D02*
X165918501Y-81290000D01*
%TO.C,R5*%
X127452936Y-114595000D02*
X127907064Y-114595000D01*
X127452936Y-116065000D02*
X127907064Y-116065000D01*
%TO.C,SWe18*%
X131430600Y-78350000D02*
X134730600Y-78350000D01*
X131430600Y-78650000D02*
X131430600Y-78350000D01*
X131430600Y-80850000D02*
X131430600Y-81150000D01*
X131430600Y-81150000D02*
X134730600Y-81150000D01*
X134730600Y-78350000D02*
X134730600Y-78650000D01*
X134730600Y-81150000D02*
X134730600Y-80850000D01*
%TD*%
M02*
