%TF.GenerationSoftware,KiCad,Pcbnew,9.0.6*%
%TF.CreationDate,2026-01-17T10:48:15+11:00*%
%TF.ProjectId,Cooee_keyboard_68mm,436f6f65-655f-46b6-9579-626f6172645f,rev?*%
%TF.SameCoordinates,Original*%
%TF.FileFunction,Copper,L2,Bot*%
%TF.FilePolarity,Positive*%
%FSLAX46Y46*%
G04 Gerber Fmt 4.6, Leading zero omitted, Abs format (unit mm)*
G04 Created by KiCad (PCBNEW 9.0.6) date 2026-01-17 10:48:15*
%MOMM*%
%LPD*%
G01*
G04 APERTURE LIST*
G04 Aperture macros list*
%AMRotRect*
0 Rectangle, with rotation*
0 The origin of the aperture is its center*
0 $1 length*
0 $2 width*
0 $3 Rotation angle, in degrees counterclockwise*
0 Add horizontal line*
21,1,$1,$2,0,0,$3*%
G04 Aperture macros list end*
%TA.AperFunction,SMDPad,CuDef*%
%ADD10R,0.850000X1.350000*%
%TD*%
%TA.AperFunction,SMDPad,CuDef*%
%ADD11RotRect,0.850000X1.350000X45.000000*%
%TD*%
%TA.AperFunction,SMDPad,CuDef*%
%ADD12R,1.000000X3.150000*%
%TD*%
%TA.AperFunction,ViaPad*%
%ADD13C,0.600000*%
%TD*%
%TA.AperFunction,Conductor*%
%ADD14C,0.200000*%
%TD*%
G04 APERTURE END LIST*
D10*
%TO.P,J7,1,Pin_1*%
%TO.N,SPARE6*%
X150000000Y-87800000D03*
%TD*%
%TO.P,J6,1,Pin_1*%
%TO.N,SPARE5*%
X150600000Y-100500000D03*
%TD*%
%TO.P,J5,1,Pin_1*%
%TO.N,SPARE4*%
X151600000Y-87800000D03*
%TD*%
%TO.P,J4,1,Pin_1*%
%TO.N,SPARE3*%
X153000000Y-100500000D03*
%TD*%
D11*
%TO.P,J3,1,Pin_1*%
%TO.N,SPARE2*%
X154300000Y-89200000D03*
%TD*%
D10*
%TO.P,J2,1,Pin_1*%
%TO.N,SPARE1*%
X155500000Y-100500000D03*
%TD*%
D12*
%TO.P,J1,1,Pin_1*%
%TO.N,COL1*%
X124740000Y-92200000D03*
%TO.P,J1,2,Pin_2*%
X124740000Y-97250000D03*
%TO.P,J1,3,Pin_3*%
%TO.N,ROW1*%
X127280000Y-92200000D03*
%TO.P,J1,4,Pin_4*%
X127280000Y-97250000D03*
%TO.P,J1,5,Pin_5*%
%TO.N,COL2*%
X129820000Y-92200000D03*
%TO.P,J1,6,Pin_6*%
X129820000Y-97250000D03*
%TO.P,J1,7,Pin_7*%
%TO.N,ROW2*%
X132360000Y-92199999D03*
%TO.P,J1,8,Pin_8*%
X132360000Y-97250001D03*
%TO.P,J1,9,Pin_9*%
%TO.N,COL3*%
X134900000Y-92200000D03*
%TO.P,J1,10,Pin_10*%
X134900000Y-97250000D03*
%TO.P,J1,11,Pin_11*%
%TO.N,ROW3*%
X137440000Y-92200000D03*
%TO.P,J1,12,Pin_12*%
X137440000Y-97250000D03*
%TO.P,J1,13,Pin_13*%
%TO.N,ROW4*%
X139980000Y-92200000D03*
%TO.P,J1,14,Pin_14*%
X139980000Y-97250000D03*
%TO.P,J1,15,Pin_15*%
%TO.N,COL4*%
X142520000Y-92199999D03*
%TO.P,J1,16,Pin_16*%
X142520000Y-97250001D03*
%TO.P,J1,17,Pin_17*%
%TO.N,ROW5*%
X145060000Y-92200000D03*
%TO.P,J1,18,Pin_18*%
X145060000Y-97250000D03*
%TO.P,J1,19,Pin_19*%
%TO.N,COL5*%
X147600000Y-92200000D03*
%TO.P,J1,20,Pin_20*%
X147600000Y-97250000D03*
%TO.P,J1,21,Pin_21*%
%TO.N,SPARE6*%
X150140000Y-92200000D03*
%TO.P,J1,22,Pin_22*%
%TO.N,SPARE5*%
X150140000Y-97250000D03*
%TO.P,J1,23,Pin_23*%
%TO.N,SPARE4*%
X152680000Y-92200000D03*
%TO.P,J1,24,Pin_24*%
%TO.N,SPARE3*%
X152680000Y-97250000D03*
%TO.P,J1,25,Pin_25*%
%TO.N,SPARE2*%
X155220000Y-92199999D03*
%TO.P,J1,26,Pin_26*%
%TO.N,SPARE1*%
X155220000Y-97250001D03*
%TO.P,J1,27,Pin_27*%
%TO.N,COL6*%
X157760000Y-92200000D03*
%TO.P,J1,28,Pin_28*%
X157760000Y-97250000D03*
%TO.P,J1,29,Pin_29*%
%TO.N,GND*%
X160300000Y-92200000D03*
%TO.P,J1,30,Pin_30*%
X160300000Y-97250000D03*
%TO.P,J1,31,Pin_31*%
%TO.N,+3.3V*%
X162840000Y-92200000D03*
%TO.P,J1,32,Pin_32*%
X162840000Y-97250000D03*
%TO.P,J1,33,Pin_33*%
%TO.N,COL7*%
X165380000Y-92199999D03*
%TO.P,J1,34,Pin_34*%
X165380000Y-97250001D03*
%TO.P,J1,35,Pin_35*%
%TO.N,COL8*%
X167920000Y-92200000D03*
%TO.P,J1,36,Pin_36*%
X167920000Y-97250000D03*
%TO.P,J1,37,Pin_37*%
%TO.N,COL9*%
X170460000Y-92200000D03*
%TO.P,J1,38,Pin_38*%
X170460000Y-97250000D03*
%TO.P,J1,39,Pin_39*%
%TO.N,COL10*%
X173000000Y-92200000D03*
%TO.P,J1,40,Pin_40*%
X173000000Y-97250000D03*
%TD*%
D13*
%TO.N,GND*%
X171100000Y-87000000D03*
%TO.N,COL8*%
X169000000Y-94000000D03*
%TO.N,GND*%
X149100000Y-113200000D03*
X168099999Y-118500000D03*
X125400000Y-109500000D03*
X117700000Y-84800000D03*
X129900000Y-82400000D03*
X143600000Y-79600000D03*
X150600000Y-82700000D03*
X164274786Y-80721993D03*
X171000000Y-82100000D03*
X177900000Y-81300000D03*
X157100000Y-81200000D03*
X136600000Y-81700000D03*
X165299999Y-114949331D03*
X137739459Y-112418234D03*
X141000000Y-105900000D03*
X120100000Y-92400000D03*
X179700000Y-84500000D03*
X167700000Y-103300000D03*
X165900000Y-112400000D03*
X163000000Y-114500000D03*
%TO.N,+3.3V*%
X156300000Y-109900000D03*
X139800000Y-107300000D03*
X159200000Y-108700000D03*
X163600000Y-94400000D03*
%TO.N,ROW4*%
X140200000Y-101700000D03*
%TO.N,ROW5*%
X141500000Y-110600000D03*
%TO.N,ROW3*%
X137400000Y-99700000D03*
%TO.N,ROW2*%
X129800000Y-85700000D03*
%TO.N,ROW1*%
X124300000Y-84300000D03*
%TO.N,GND*%
X122900000Y-83300000D03*
X122831199Y-86513413D03*
X153900000Y-111900000D03*
X155100000Y-114100000D03*
%TO.N,COL1*%
X119300000Y-80400000D03*
X121250000Y-113225000D03*
X122800000Y-95400000D03*
X119400000Y-87150000D03*
X120950000Y-103650000D03*
%TO.N,COL2*%
X129725000Y-94800000D03*
X129675000Y-103550000D03*
X129700000Y-112600000D03*
X126225000Y-87025000D03*
X126100000Y-80300000D03*
%TO.N,COL3*%
X133050000Y-80400000D03*
X133150000Y-86900000D03*
X136525000Y-103775000D03*
X136400000Y-94900000D03*
%TO.N,COL4*%
X143550000Y-103675000D03*
X143000000Y-95000000D03*
X140000000Y-86950000D03*
X140000000Y-80600000D03*
%TO.N,COL5*%
X150425000Y-103700000D03*
X154100000Y-117200000D03*
X150000000Y-94700000D03*
X146975000Y-86975000D03*
X146875000Y-80700000D03*
%TO.N,COL6*%
X153700000Y-80800000D03*
X157100000Y-95000000D03*
X161000000Y-118700000D03*
X157450000Y-103575000D03*
X153700000Y-86925000D03*
%TO.N,COL7*%
X164100000Y-95550000D03*
X164200000Y-103625000D03*
X160900000Y-112600000D03*
X160700000Y-80700000D03*
X160700000Y-86925000D03*
%TO.N,COL8*%
X171000000Y-103600000D03*
X167575000Y-86925000D03*
X167575000Y-80700000D03*
X168500000Y-114300000D03*
%TO.N,COL10*%
X179700000Y-110550000D03*
X181425000Y-86900000D03*
X181425000Y-80900000D03*
%TO.N,COL9*%
X174450000Y-80700000D03*
X177975000Y-95525000D03*
X179700000Y-104075000D03*
X174475000Y-86950000D03*
X170500000Y-110800000D03*
%TD*%
D14*
%TO.N,+3.3V*%
X162840000Y-102160000D02*
X162840000Y-97250000D01*
X161600000Y-106000000D02*
X161600000Y-103400000D01*
X161600000Y-103400000D02*
X162840000Y-102160000D01*
X159200000Y-108400000D02*
X161600000Y-106000000D01*
X159200000Y-108700000D02*
X159200000Y-108400000D01*
%TO.N,SPARE1*%
X155400000Y-97430001D02*
X155220000Y-97250001D01*
X155400000Y-100900000D02*
X155400000Y-97430001D01*
X155500000Y-101000000D02*
X155400000Y-100900000D01*
%TO.N,SPARE5*%
X150140000Y-100540000D02*
X150140000Y-97250000D01*
X150600000Y-101000000D02*
X150140000Y-100540000D01*
%TO.N,SPARE3*%
X152900000Y-97470000D02*
X152680000Y-97250000D01*
X153000000Y-101000000D02*
X152900000Y-100900000D01*
X152900000Y-100900000D02*
X152900000Y-97470000D01*
%TO.N,SPARE2*%
X155200000Y-90100000D02*
X155200000Y-92179999D01*
X155200000Y-92179999D02*
X155220000Y-92199999D01*
X154300000Y-89200000D02*
X155200000Y-90100000D01*
%TO.N,SPARE4*%
X152700000Y-92180000D02*
X152680000Y-92200000D01*
X152700000Y-90100000D02*
X152700000Y-92180000D01*
X151600000Y-89000000D02*
X152700000Y-90100000D01*
X151600000Y-87800000D02*
X151600000Y-89000000D01*
%TO.N,SPARE6*%
X150000000Y-92060000D02*
X150140000Y-92200000D01*
X150000000Y-87800000D02*
X150000000Y-92060000D01*
%TO.N,COL10*%
X180700000Y-90700000D02*
X180725000Y-90700000D01*
X180725000Y-90700000D02*
X181425000Y-90000000D01*
X181425000Y-108825000D02*
X181425000Y-91400000D01*
X180700000Y-90700000D02*
X181400000Y-91400000D01*
X181400000Y-91400000D02*
X181425000Y-91400000D01*
X181425000Y-80900000D02*
X181425000Y-86900000D01*
%TO.N,COL9*%
X174450000Y-86925000D02*
X174475000Y-86950000D01*
X174450000Y-80700000D02*
X174450000Y-86925000D01*
%TO.N,COL8*%
X167575000Y-80700000D02*
X167575000Y-86925000D01*
%TO.N,COL7*%
X160700000Y-86925000D02*
X160700000Y-80700000D01*
%TO.N,COL6*%
X153700000Y-80800000D02*
X153700000Y-86925000D01*
%TO.N,COL5*%
X146875000Y-86875000D02*
X146975000Y-86975000D01*
X146875000Y-80700000D02*
X146875000Y-86875000D01*
%TO.N,COL4*%
X140000000Y-80600000D02*
X140000000Y-86950000D01*
%TO.N,COL3*%
X133050000Y-86800000D02*
X133150000Y-86900000D01*
X133050000Y-80400000D02*
X133050000Y-86800000D01*
%TO.N,COL2*%
X126100000Y-80300000D02*
X126225000Y-80425000D01*
X126225000Y-80425000D02*
X126225000Y-87025000D01*
%TO.N,COL1*%
X119400000Y-80500000D02*
X119400000Y-87150000D01*
X119300000Y-80400000D02*
X119400000Y-80500000D01*
%TO.N,COL8*%
X168220000Y-94000000D02*
X167920000Y-94300000D01*
X169000000Y-94000000D02*
X168220000Y-94000000D01*
X167920000Y-94300000D02*
X167920000Y-97250000D01*
%TO.N,+3.3V*%
X156400000Y-110000000D02*
X156300000Y-109900000D01*
X146800000Y-112500000D02*
X152900000Y-118600000D01*
X152900000Y-118600000D02*
X155600000Y-118600000D01*
X141300000Y-112500000D02*
X146800000Y-112500000D01*
X139800000Y-111000000D02*
X141300000Y-112500000D01*
X155600000Y-118600000D02*
X156400000Y-117800000D01*
X156400000Y-117800000D02*
X156400000Y-110000000D01*
X139800000Y-107300000D02*
X139800000Y-111000000D01*
%TO.N,COL5*%
X153150000Y-117200000D02*
X150425000Y-114475000D01*
X150425000Y-114475000D02*
X150425000Y-103700000D01*
X154100000Y-117200000D02*
X153150000Y-117200000D01*
%TO.N,+3.3V*%
X163600000Y-94400000D02*
X162840000Y-94400000D01*
X162840000Y-92200000D02*
X162840000Y-94400000D01*
X162840000Y-94400000D02*
X162840000Y-97250000D01*
%TO.N,GND*%
X160300000Y-92200000D02*
X160300000Y-97250000D01*
%TO.N,COL7*%
X164100000Y-95400000D02*
X164400000Y-95100000D01*
X164400000Y-95100000D02*
X165180000Y-95100000D01*
X164100000Y-95550000D02*
X164100000Y-95400000D01*
X165180000Y-95100000D02*
X165380000Y-95300000D01*
%TO.N,ROW4*%
X139980000Y-101480000D02*
X140200000Y-101700000D01*
X139980000Y-97250000D02*
X139980000Y-101480000D01*
%TO.N,ROW5*%
X145060000Y-107040000D02*
X141500000Y-110600000D01*
X145060000Y-97250000D02*
X145060000Y-107040000D01*
X145060000Y-92200000D02*
X145060000Y-97250000D01*
%TO.N,ROW4*%
X139980000Y-92200000D02*
X139980000Y-97250000D01*
%TO.N,ROW3*%
X137700000Y-92460000D02*
X137700000Y-96990000D01*
X137440000Y-92200000D02*
X137700000Y-92460000D01*
X137700000Y-96990000D02*
X137440000Y-97250000D01*
X137440000Y-99660000D02*
X137400000Y-99700000D01*
X137440000Y-97250000D02*
X137440000Y-99660000D01*
%TO.N,ROW2*%
X132360000Y-89660000D02*
X129800000Y-87100000D01*
X129800000Y-87100000D02*
X129800000Y-85700000D01*
X132360000Y-92199999D02*
X132360000Y-89660000D01*
X132360000Y-97250001D02*
X132360000Y-92199999D01*
%TO.N,COL5*%
X147350000Y-87350000D02*
X146975000Y-86975000D01*
X147350000Y-93350000D02*
X147350000Y-87350000D01*
X147600000Y-93600000D02*
X147350000Y-93350000D01*
X147700000Y-94600000D02*
X147600000Y-94500000D01*
X149900000Y-94600000D02*
X147700000Y-94600000D01*
X147600000Y-94500000D02*
X147600000Y-93600000D01*
X150000000Y-94700000D02*
X149900000Y-94600000D01*
X147600000Y-97250000D02*
X147600000Y-100875000D01*
X147600000Y-100875000D02*
X150425000Y-103700000D01*
X147600000Y-92200000D02*
X147600000Y-97250000D01*
%TO.N,COL10*%
X174500000Y-90700000D02*
X180700000Y-90700000D01*
X173000000Y-92200000D02*
X174500000Y-90700000D01*
X181425000Y-90700000D02*
X181425000Y-86900000D01*
%TO.N,COL9*%
X173125000Y-88300000D02*
X174475000Y-86950000D01*
X170460000Y-90040000D02*
X172200000Y-88300000D01*
X170460000Y-92200000D02*
X170460000Y-90040000D01*
X172200000Y-88300000D02*
X173125000Y-88300000D01*
X176900000Y-101300000D02*
X179700000Y-98500000D01*
X172700000Y-101300000D02*
X176900000Y-101300000D01*
X179700000Y-98500000D02*
X179700000Y-97250000D01*
X170460000Y-99060000D02*
X172700000Y-101300000D01*
X170460000Y-97250000D02*
X170460000Y-99060000D01*
%TO.N,COL8*%
X171000000Y-102900000D02*
X171000000Y-103600000D01*
X167920000Y-99820000D02*
X171000000Y-102900000D01*
X167920000Y-97250000D02*
X167920000Y-99820000D01*
%TO.N,COL10*%
X173000000Y-92200000D02*
X173000000Y-97250000D01*
%TO.N,COL9*%
X170460000Y-92200000D02*
X170460000Y-97250000D01*
%TO.N,COL8*%
X167920000Y-92200000D02*
X167920000Y-94300000D01*
X167575000Y-91855000D02*
X167920000Y-92200000D01*
X167575000Y-86925000D02*
X167575000Y-91855000D01*
%TO.N,COL3*%
X134900000Y-102150000D02*
X136525000Y-103775000D01*
X134900000Y-97250000D02*
X134900000Y-102150000D01*
X135000000Y-94900000D02*
X134900000Y-95000000D01*
X136400000Y-94900000D02*
X135000000Y-94900000D01*
X134900000Y-97250000D02*
X134900000Y-92200000D01*
X133150000Y-88350000D02*
X133150000Y-86900000D01*
X134900000Y-93750000D02*
X134900000Y-90100000D01*
X134900000Y-90100000D02*
X133150000Y-88350000D01*
%TO.N,COL4*%
X142520000Y-102645000D02*
X143550000Y-103675000D01*
X142520000Y-96405000D02*
X142520000Y-102645000D01*
X143000000Y-95925000D02*
X142520000Y-96405000D01*
X142520000Y-94595000D02*
X142520000Y-89470000D01*
X142925000Y-95000000D02*
X142520000Y-94595000D01*
X142520000Y-89470000D02*
X140000000Y-86950000D01*
X143000000Y-95000000D02*
X142925000Y-95000000D01*
X143000000Y-95000000D02*
X143000000Y-95925000D01*
%TO.N,COL6*%
X154075000Y-87300000D02*
X153700000Y-86925000D01*
X155000000Y-87300000D02*
X154075000Y-87300000D01*
X157700000Y-90000000D02*
X155000000Y-87300000D01*
X157700000Y-92140000D02*
X157700000Y-90000000D01*
X157760000Y-92200000D02*
X157700000Y-92140000D01*
X157760000Y-94340000D02*
X157760000Y-92200000D01*
X157100000Y-95000000D02*
X157760000Y-94340000D01*
X157450000Y-95900000D02*
X157450000Y-103575000D01*
X157100000Y-95000000D02*
X157100000Y-95550000D01*
X157100000Y-95550000D02*
X157450000Y-95900000D01*
%TO.N,COL7*%
X165380000Y-95300000D02*
X165380000Y-95600000D01*
X165380000Y-102445000D02*
X165380000Y-97250001D01*
X164200000Y-103625000D02*
X165380000Y-102445000D01*
X161275000Y-87500000D02*
X160700000Y-86925000D01*
X165380000Y-92199999D02*
X165380000Y-90280000D01*
X165380000Y-90280000D02*
X162600000Y-87500000D01*
X162600000Y-87500000D02*
X161275000Y-87500000D01*
X164100000Y-95550000D02*
X164150000Y-95600000D01*
X165380000Y-95600000D02*
X165380000Y-97250001D01*
X165380000Y-92199999D02*
X165380000Y-95300000D01*
%TO.N,ROW1*%
X124300000Y-87700000D02*
X124300000Y-84300000D01*
X127280000Y-90680000D02*
X124300000Y-87700000D01*
X127280000Y-92200000D02*
X127280000Y-90680000D01*
X127280000Y-97250000D02*
X127280000Y-92200000D01*
%TO.N,COL1*%
X122800000Y-95400000D02*
X123225000Y-94975000D01*
X122800000Y-95400000D02*
X123200000Y-95000000D01*
X124540000Y-95000000D02*
X124740000Y-94800000D01*
X123200000Y-95000000D02*
X124540000Y-95000000D01*
X123225000Y-94975000D02*
X123300000Y-94975000D01*
X124740000Y-94800000D02*
X124740000Y-97250000D01*
X124740000Y-92200000D02*
X124740000Y-94800000D01*
%TO.N,COL2*%
X129725000Y-94800000D02*
X129725000Y-90525000D01*
X129725000Y-94800000D02*
X129725000Y-103500000D01*
X129725000Y-103500000D02*
X129675000Y-103550000D01*
X129725000Y-90525000D02*
X126225000Y-87025000D01*
%TO.N,COL1*%
X124740000Y-93535000D02*
X124740000Y-92490000D01*
X124740000Y-97465000D02*
X124740000Y-99860000D01*
X124740000Y-99860000D02*
X120950000Y-103650000D01*
X124740000Y-92490000D02*
X119400000Y-87150000D01*
%TO.N,GND*%
X122900000Y-86444612D02*
X122831199Y-86513413D01*
%TO.N,COL8*%
X167750000Y-113550000D02*
X167750000Y-106850000D01*
X168500000Y-114300000D02*
X167750000Y-113550000D01*
X167750000Y-106850000D02*
X171000000Y-103600000D01*
%TO.N,COL9*%
X174400000Y-109400000D02*
X179700000Y-104100000D01*
X171900000Y-109400000D02*
X174400000Y-109400000D01*
X179700000Y-104100000D02*
X179700000Y-104075000D01*
X170500000Y-110800000D02*
X171900000Y-109400000D01*
%TO.N,COL6*%
X157450000Y-114925000D02*
X157450000Y-103575000D01*
X161000000Y-118475000D02*
X157450000Y-114925000D01*
X161000000Y-118700000D02*
X161000000Y-118475000D01*
%TO.N,COL7*%
X163625000Y-109875000D02*
X163625000Y-104200000D01*
X160900000Y-112600000D02*
X163625000Y-109875000D01*
X163625000Y-104200000D02*
X164200000Y-103625000D01*
%TO.N,COL2*%
X129700000Y-112600000D02*
X129675000Y-112575000D01*
X129675000Y-112575000D02*
X129675000Y-103550000D01*
%TO.N,COL1*%
X120950000Y-112925000D02*
X121250000Y-113225000D01*
X120950000Y-103650000D02*
X120950000Y-112925000D01*
%TO.N,COL7*%
X164100000Y-103525000D02*
X164200000Y-103625000D01*
%TO.N,COL10*%
X181425000Y-91400000D02*
X181425000Y-90700000D01*
X179700000Y-110550000D02*
X181425000Y-108825000D01*
%TO.N,COL9*%
X179700000Y-104075000D02*
X179700000Y-98500000D01*
X179700000Y-97250000D02*
X177975000Y-95525000D01*
%TD*%
%TA.AperFunction,Conductor*%
%TO.N,GND*%
G36*
X182606922Y-78901280D02*
G01*
X182697266Y-78911459D01*
X182724331Y-78917636D01*
X182803540Y-78945352D01*
X182828553Y-78957398D01*
X182899606Y-79002043D01*
X182921313Y-79019355D01*
X182980644Y-79078686D01*
X182997957Y-79100395D01*
X183042600Y-79171444D01*
X183054648Y-79196462D01*
X183082362Y-79275666D01*
X183088540Y-79302735D01*
X183098720Y-79393076D01*
X183099500Y-79406961D01*
X183099500Y-112691470D01*
X183099499Y-112691474D01*
X183099499Y-112709435D01*
X183099499Y-112719018D01*
X183099499Y-112753888D01*
X183099304Y-112760839D01*
X183084177Y-113030272D01*
X183082620Y-113044090D01*
X183038005Y-113306693D01*
X183034911Y-113320250D01*
X182961174Y-113576208D01*
X182956582Y-113589333D01*
X182854650Y-113835428D01*
X182848617Y-113847957D01*
X182719766Y-114081103D01*
X182712367Y-114092877D01*
X182558233Y-114310112D01*
X182549563Y-114320984D01*
X182370093Y-114521815D01*
X182365314Y-114526870D01*
X181426161Y-115466023D01*
X181364838Y-115499508D01*
X181295146Y-115494524D01*
X181276480Y-115485729D01*
X181185016Y-115432922D01*
X181185005Y-115432917D01*
X180923928Y-115324775D01*
X180650966Y-115251635D01*
X180370796Y-115214751D01*
X180370795Y-115214751D01*
X180088205Y-115214751D01*
X180088204Y-115214751D01*
X179808033Y-115251635D01*
X179535071Y-115324775D01*
X179273997Y-115432916D01*
X179273987Y-115432920D01*
X179029260Y-115574213D01*
X178805067Y-115746242D01*
X178805060Y-115746248D01*
X178605248Y-115946060D01*
X178605242Y-115946067D01*
X178433213Y-116170260D01*
X178291920Y-116414987D01*
X178291916Y-116414997D01*
X178183775Y-116676071D01*
X178110635Y-116949033D01*
X178073751Y-117229204D01*
X178073751Y-117511795D01*
X178110635Y-117791966D01*
X178183775Y-118064928D01*
X178291916Y-118326002D01*
X178291918Y-118326007D01*
X178344730Y-118417481D01*
X178361202Y-118485381D01*
X178338349Y-118551408D01*
X178325023Y-118567161D01*
X177927235Y-118964949D01*
X177922180Y-118969729D01*
X177720966Y-119149541D01*
X177710095Y-119158210D01*
X177492856Y-119312347D01*
X177481081Y-119319745D01*
X177247952Y-119448587D01*
X177235423Y-119454621D01*
X176989324Y-119556555D01*
X176976199Y-119561147D01*
X176720244Y-119634883D01*
X176706688Y-119637977D01*
X176444087Y-119682592D01*
X176430268Y-119684149D01*
X176160329Y-119699304D01*
X176153380Y-119699499D01*
X176121599Y-119699499D01*
X176091474Y-119699499D01*
X176091470Y-119699499D01*
X176083866Y-119699500D01*
X176083865Y-119699499D01*
X176083864Y-119699500D01*
X161302190Y-119699500D01*
X161235151Y-119679815D01*
X161189396Y-119627011D01*
X161179452Y-119557853D01*
X161208477Y-119494297D01*
X161254738Y-119460939D01*
X161379172Y-119409397D01*
X161379172Y-119409396D01*
X161379179Y-119409394D01*
X161510289Y-119321789D01*
X161621789Y-119210289D01*
X161709394Y-119079179D01*
X161769737Y-118933497D01*
X161800500Y-118778842D01*
X161800500Y-118621158D01*
X161800500Y-118621155D01*
X161800499Y-118621153D01*
X161784336Y-118539898D01*
X161769737Y-118466503D01*
X161749432Y-118417481D01*
X161709397Y-118320827D01*
X161709390Y-118320814D01*
X161621789Y-118189711D01*
X161621786Y-118189707D01*
X161510292Y-118078213D01*
X161510284Y-118078207D01*
X161379181Y-117990607D01*
X161379180Y-117990606D01*
X161377484Y-117989904D01*
X161375958Y-117988884D01*
X161373806Y-117987734D01*
X161373919Y-117987521D01*
X161337261Y-117963026D01*
X158086819Y-114712584D01*
X158053334Y-114651261D01*
X158050500Y-114624903D01*
X158050500Y-108621153D01*
X158399500Y-108621153D01*
X158399500Y-108778846D01*
X158430261Y-108933489D01*
X158430264Y-108933501D01*
X158490602Y-109079172D01*
X158490609Y-109079185D01*
X158578210Y-109210288D01*
X158578213Y-109210292D01*
X158689707Y-109321786D01*
X158689711Y-109321789D01*
X158820814Y-109409390D01*
X158820827Y-109409397D01*
X158966498Y-109469735D01*
X158966503Y-109469737D01*
X159121153Y-109500499D01*
X159121156Y-109500500D01*
X159121158Y-109500500D01*
X159278844Y-109500500D01*
X159278845Y-109500499D01*
X159433497Y-109469737D01*
X159579179Y-109409394D01*
X159710289Y-109321789D01*
X159821789Y-109210289D01*
X159909394Y-109079179D01*
X159969737Y-108933497D01*
X160000500Y-108778842D01*
X160000500Y-108621158D01*
X159984823Y-108542346D01*
X159991050Y-108472757D01*
X160018757Y-108430477D01*
X162080520Y-106368716D01*
X162159577Y-106231784D01*
X162200501Y-106079057D01*
X162200501Y-105920942D01*
X162200501Y-105913347D01*
X162200500Y-105913329D01*
X162200500Y-103700096D01*
X162220185Y-103633057D01*
X162236814Y-103612419D01*
X163198506Y-102650727D01*
X163198511Y-102650724D01*
X163208714Y-102640520D01*
X163208716Y-102640520D01*
X163320520Y-102528716D01*
X163326295Y-102518714D01*
X163389409Y-102409397D01*
X163389410Y-102409394D01*
X163396990Y-102396265D01*
X163399577Y-102391785D01*
X163440501Y-102239057D01*
X163440501Y-102080943D01*
X163440501Y-102073348D01*
X163440500Y-102073330D01*
X163440500Y-99407790D01*
X163460185Y-99340751D01*
X163512989Y-99294996D01*
X163521146Y-99291616D01*
X163582331Y-99268796D01*
X163697546Y-99182546D01*
X163783796Y-99067331D01*
X163834091Y-98932483D01*
X163840500Y-98872873D01*
X163840499Y-96465658D01*
X163860184Y-96398620D01*
X163912987Y-96352865D01*
X163982146Y-96342921D01*
X163988691Y-96344042D01*
X164021156Y-96350500D01*
X164021158Y-96350500D01*
X164178844Y-96350500D01*
X164231308Y-96340064D01*
X164300900Y-96346291D01*
X164356077Y-96389154D01*
X164379322Y-96455043D01*
X164379500Y-96461681D01*
X164379500Y-98872871D01*
X164379501Y-98872877D01*
X164385908Y-98932484D01*
X164436202Y-99067329D01*
X164436206Y-99067336D01*
X164522452Y-99182545D01*
X164522455Y-99182548D01*
X164637664Y-99268794D01*
X164637669Y-99268797D01*
X164698833Y-99291609D01*
X164754766Y-99333479D01*
X164779184Y-99398943D01*
X164779500Y-99407791D01*
X164779500Y-102144903D01*
X164759815Y-102211942D01*
X164743181Y-102232584D01*
X164185339Y-102790425D01*
X164124016Y-102823910D01*
X164121850Y-102824361D01*
X163966508Y-102855261D01*
X163966498Y-102855264D01*
X163820827Y-102915602D01*
X163820814Y-102915609D01*
X163689711Y-103003210D01*
X163689707Y-103003213D01*
X163578213Y-103114707D01*
X163578210Y-103114711D01*
X163490609Y-103245814D01*
X163490602Y-103245827D01*
X163430264Y-103391498D01*
X163430261Y-103391508D01*
X163399362Y-103546847D01*
X163390596Y-103563604D01*
X163386577Y-103582081D01*
X163367832Y-103607122D01*
X163366977Y-103608758D01*
X163365427Y-103610336D01*
X163327028Y-103648735D01*
X163256285Y-103719478D01*
X163256284Y-103719479D01*
X163249218Y-103726546D01*
X163249215Y-103726547D01*
X163249214Y-103726548D01*
X163249215Y-103726549D01*
X163144478Y-103831286D01*
X163128766Y-103858501D01*
X163099902Y-103908497D01*
X163094361Y-103918094D01*
X163094359Y-103918096D01*
X163065425Y-103968209D01*
X163065424Y-103968210D01*
X163056932Y-103999903D01*
X163024499Y-104120943D01*
X163024499Y-104120945D01*
X163024499Y-104289046D01*
X163024500Y-104289059D01*
X163024500Y-109574903D01*
X163004815Y-109641942D01*
X162988181Y-109662584D01*
X160885339Y-111765425D01*
X160824016Y-111798910D01*
X160821850Y-111799361D01*
X160666508Y-111830261D01*
X160666498Y-111830264D01*
X160520827Y-111890602D01*
X160520814Y-111890609D01*
X160389711Y-111978210D01*
X160389707Y-111978213D01*
X160278213Y-112089707D01*
X160278210Y-112089711D01*
X160190609Y-112220814D01*
X160190602Y-112220827D01*
X160130264Y-112366498D01*
X160130261Y-112366510D01*
X160099500Y-112521153D01*
X160099500Y-112678846D01*
X160130261Y-112833489D01*
X160130264Y-112833501D01*
X160190602Y-112979172D01*
X160190609Y-112979185D01*
X160278210Y-113110288D01*
X160278213Y-113110292D01*
X160389707Y-113221786D01*
X160389711Y-113221789D01*
X160520814Y-113309390D01*
X160520827Y-113309397D01*
X160666498Y-113369735D01*
X160666503Y-113369737D01*
X160821153Y-113400499D01*
X160821156Y-113400500D01*
X160821158Y-113400500D01*
X160978844Y-113400500D01*
X160978845Y-113400499D01*
X161133497Y-113369737D01*
X161279179Y-113309394D01*
X161410289Y-113221789D01*
X161521789Y-113110289D01*
X161609394Y-112979179D01*
X161669737Y-112833497D01*
X161689969Y-112731784D01*
X161700638Y-112678150D01*
X161733023Y-112616239D01*
X161734519Y-112614715D01*
X163983506Y-110365727D01*
X163983511Y-110365724D01*
X163993714Y-110355520D01*
X163993716Y-110355520D01*
X164105520Y-110243716D01*
X164168096Y-110135331D01*
X164184577Y-110106785D01*
X164225501Y-109954057D01*
X164225501Y-109795943D01*
X164225501Y-109788348D01*
X164225500Y-109788330D01*
X164225500Y-104537874D01*
X164245185Y-104470835D01*
X164297989Y-104425080D01*
X164325309Y-104416257D01*
X164433497Y-104394737D01*
X164579179Y-104334394D01*
X164710289Y-104246789D01*
X164821789Y-104135289D01*
X164909394Y-104004179D01*
X164912719Y-103996153D01*
X164930102Y-103954185D01*
X164969737Y-103858497D01*
X164991570Y-103748735D01*
X165000638Y-103703150D01*
X165033023Y-103641239D01*
X165034521Y-103639713D01*
X165738506Y-102935727D01*
X165738511Y-102935724D01*
X165748714Y-102925520D01*
X165748716Y-102925520D01*
X165860520Y-102813716D01*
X165920644Y-102709577D01*
X165939577Y-102676785D01*
X165980501Y-102524057D01*
X165980501Y-102365943D01*
X165980501Y-102358348D01*
X165980500Y-102358330D01*
X165980500Y-99407791D01*
X166000185Y-99340752D01*
X166052989Y-99294997D01*
X166061146Y-99291617D01*
X166122331Y-99268797D01*
X166237546Y-99182547D01*
X166323796Y-99067332D01*
X166374091Y-98932484D01*
X166380500Y-98872874D01*
X166380499Y-95627129D01*
X166374091Y-95567518D01*
X166374090Y-95567516D01*
X166323797Y-95432672D01*
X166323793Y-95432665D01*
X166237547Y-95317456D01*
X166237544Y-95317453D01*
X166122335Y-95231207D01*
X166122328Y-95231203D01*
X166061167Y-95208392D01*
X166005233Y-95166521D01*
X165980816Y-95101057D01*
X165980500Y-95092210D01*
X165980500Y-94357789D01*
X166000185Y-94290750D01*
X166052989Y-94244995D01*
X166061146Y-94241615D01*
X166122331Y-94218795D01*
X166237546Y-94132545D01*
X166323796Y-94017330D01*
X166374091Y-93882482D01*
X166380500Y-93822872D01*
X166380499Y-90577127D01*
X166374091Y-90517516D01*
X166364729Y-90492416D01*
X166323797Y-90382670D01*
X166323793Y-90382663D01*
X166237547Y-90267454D01*
X166237544Y-90267451D01*
X166122335Y-90181205D01*
X166122328Y-90181201D01*
X166018771Y-90142577D01*
X165962837Y-90100706D01*
X165942329Y-90058488D01*
X165939577Y-90048216D01*
X165923829Y-90020939D01*
X165860524Y-89911290D01*
X165860518Y-89911282D01*
X164531021Y-88581785D01*
X163087589Y-87138354D01*
X163087588Y-87138352D01*
X162968717Y-87019481D01*
X162968716Y-87019480D01*
X162881904Y-86969360D01*
X162881904Y-86969359D01*
X162881900Y-86969358D01*
X162831785Y-86940423D01*
X162679057Y-86899499D01*
X162520943Y-86899499D01*
X162513347Y-86899499D01*
X162513331Y-86899500D01*
X161612875Y-86899500D01*
X161545836Y-86879815D01*
X161500081Y-86827011D01*
X161491258Y-86799692D01*
X161469738Y-86691508D01*
X161469737Y-86691507D01*
X161469737Y-86691503D01*
X161448284Y-86639711D01*
X161409397Y-86545827D01*
X161409390Y-86545814D01*
X161321398Y-86414125D01*
X161300520Y-86347447D01*
X161300500Y-86345234D01*
X161300500Y-81279765D01*
X161320185Y-81212726D01*
X161321398Y-81210874D01*
X161342185Y-81179765D01*
X161409394Y-81079179D01*
X161469737Y-80933497D01*
X161500500Y-80778842D01*
X161500500Y-80621158D01*
X161500500Y-80621155D01*
X161500499Y-80621153D01*
X166774500Y-80621153D01*
X166774500Y-80778846D01*
X166805261Y-80933489D01*
X166805264Y-80933501D01*
X166865602Y-81079172D01*
X166865609Y-81079185D01*
X166953602Y-81210874D01*
X166974480Y-81277551D01*
X166974500Y-81279765D01*
X166974500Y-86345234D01*
X166954815Y-86412273D01*
X166953602Y-86414125D01*
X166865609Y-86545814D01*
X166865602Y-86545827D01*
X166805264Y-86691498D01*
X166805261Y-86691510D01*
X166774500Y-86846153D01*
X166774500Y-87003846D01*
X166805261Y-87158489D01*
X166805264Y-87158501D01*
X166865602Y-87304172D01*
X166865609Y-87304185D01*
X166953602Y-87435874D01*
X166974480Y-87502551D01*
X166974500Y-87504765D01*
X166974500Y-90364865D01*
X166966682Y-90408198D01*
X166925908Y-90517517D01*
X166919501Y-90577115D01*
X166919501Y-90577123D01*
X166919500Y-90577135D01*
X166919500Y-93822870D01*
X166919501Y-93822876D01*
X166925908Y-93882483D01*
X166976202Y-94017328D01*
X166976206Y-94017335D01*
X167062452Y-94132544D01*
X167062455Y-94132547D01*
X167177664Y-94218793D01*
X167177673Y-94218798D01*
X167238831Y-94241608D01*
X167256555Y-94254875D01*
X167276699Y-94264074D01*
X167283982Y-94275406D01*
X167294765Y-94283478D01*
X167302502Y-94304223D01*
X167314475Y-94322851D01*
X167317626Y-94344769D01*
X167319183Y-94348942D01*
X167319499Y-94357786D01*
X167319499Y-94379057D01*
X167319499Y-94379059D01*
X167319500Y-94389053D01*
X167319500Y-95092209D01*
X167299815Y-95159248D01*
X167247011Y-95205003D01*
X167238833Y-95208391D01*
X167177671Y-95231202D01*
X167177664Y-95231206D01*
X167062455Y-95317452D01*
X167062452Y-95317455D01*
X166976206Y-95432664D01*
X166976202Y-95432671D01*
X166925908Y-95567517D01*
X166919501Y-95627116D01*
X166919501Y-95627124D01*
X166919500Y-95627135D01*
X166919500Y-98872870D01*
X166919501Y-98872876D01*
X166925908Y-98932483D01*
X166976202Y-99067328D01*
X166976206Y-99067335D01*
X167062452Y-99182544D01*
X167062455Y-99182547D01*
X167177664Y-99268793D01*
X167177666Y-99268794D01*
X167177669Y-99268796D01*
X167238833Y-99291608D01*
X167294766Y-99333478D01*
X167319184Y-99398942D01*
X167319500Y-99407790D01*
X167319500Y-99733330D01*
X167319499Y-99733348D01*
X167319499Y-99899054D01*
X167319498Y-99899054D01*
X167360424Y-100051787D01*
X167376238Y-100079177D01*
X167376239Y-100079179D01*
X167439477Y-100188712D01*
X167439481Y-100188717D01*
X167558349Y-100307585D01*
X167558355Y-100307590D01*
X170291137Y-103040373D01*
X170324622Y-103101696D01*
X170319638Y-103171388D01*
X170306559Y-103196943D01*
X170290611Y-103220811D01*
X170290602Y-103220827D01*
X170230264Y-103366498D01*
X170230261Y-103366508D01*
X170199361Y-103521850D01*
X170166976Y-103583761D01*
X170165425Y-103585339D01*
X167269482Y-106481281D01*
X167269480Y-106481283D01*
X167269480Y-106481284D01*
X167224333Y-106559481D01*
X167224332Y-106559481D01*
X167190424Y-106618212D01*
X167190423Y-106618213D01*
X167174347Y-106678210D01*
X167149499Y-106770943D01*
X167149499Y-106770945D01*
X167149499Y-106939046D01*
X167149500Y-106939059D01*
X167149500Y-113463330D01*
X167149499Y-113463348D01*
X167149499Y-113629054D01*
X167149498Y-113629054D01*
X167190424Y-113781789D01*
X167190425Y-113781790D01*
X167215661Y-113825499D01*
X167215662Y-113825501D01*
X167269475Y-113918709D01*
X167269481Y-113918717D01*
X167388349Y-114037585D01*
X167388355Y-114037590D01*
X167665425Y-114314660D01*
X167698910Y-114375983D01*
X167699361Y-114378149D01*
X167730261Y-114533491D01*
X167730264Y-114533501D01*
X167790602Y-114679172D01*
X167790609Y-114679185D01*
X167878210Y-114810288D01*
X167878213Y-114810292D01*
X167989707Y-114921786D01*
X167989711Y-114921789D01*
X168120814Y-115009390D01*
X168120827Y-115009397D01*
X168243932Y-115060388D01*
X168266503Y-115069737D01*
X168421153Y-115100499D01*
X168421156Y-115100500D01*
X168421158Y-115100500D01*
X168578844Y-115100500D01*
X168578845Y-115100499D01*
X168733497Y-115069737D01*
X168879179Y-115009394D01*
X169010289Y-114921789D01*
X169121789Y-114810289D01*
X169209394Y-114679179D01*
X169269737Y-114533497D01*
X169300500Y-114378842D01*
X169300500Y-114221158D01*
X169300500Y-114221155D01*
X169300499Y-114221153D01*
X169276460Y-114100301D01*
X169269737Y-114066503D01*
X169254833Y-114030521D01*
X169209397Y-113920827D01*
X169209390Y-113920814D01*
X169121789Y-113789711D01*
X169121786Y-113789707D01*
X169010292Y-113678213D01*
X169010288Y-113678210D01*
X168879185Y-113590609D01*
X168879172Y-113590602D01*
X168733501Y-113530264D01*
X168733491Y-113530261D01*
X168578149Y-113499361D01*
X168561392Y-113490595D01*
X168542914Y-113486576D01*
X168517877Y-113467833D01*
X168516238Y-113466976D01*
X168514660Y-113465425D01*
X168386819Y-113337584D01*
X168353334Y-113276261D01*
X168350500Y-113249903D01*
X168350500Y-107150097D01*
X168370185Y-107083058D01*
X168386819Y-107062416D01*
X169697971Y-105751264D01*
X171014662Y-104434572D01*
X171075983Y-104401089D01*
X171078150Y-104400638D01*
X171136085Y-104389113D01*
X171233497Y-104369737D01*
X171379179Y-104309394D01*
X171510289Y-104221789D01*
X171621789Y-104110289D01*
X171709394Y-103979179D01*
X171713938Y-103968210D01*
X171730102Y-103929185D01*
X171769737Y-103833497D01*
X171800500Y-103678842D01*
X171800500Y-103521158D01*
X171800500Y-103521155D01*
X171800499Y-103521153D01*
X171769737Y-103366503D01*
X171759380Y-103341498D01*
X171709397Y-103220827D01*
X171709390Y-103220814D01*
X171621398Y-103089125D01*
X171615747Y-103071078D01*
X171605523Y-103055169D01*
X171601071Y-103024207D01*
X171600520Y-103022447D01*
X171600500Y-103020234D01*
X171600500Y-102989060D01*
X171600501Y-102989047D01*
X171600501Y-102820944D01*
X171598564Y-102813715D01*
X171559577Y-102668216D01*
X171549478Y-102650724D01*
X171480524Y-102531290D01*
X171480518Y-102531282D01*
X168556819Y-99607583D01*
X168542115Y-99580655D01*
X168525523Y-99554837D01*
X168524631Y-99548636D01*
X168523334Y-99546260D01*
X168520500Y-99519902D01*
X168520500Y-99407790D01*
X168540185Y-99340751D01*
X168592989Y-99294996D01*
X168601146Y-99291616D01*
X168662331Y-99268796D01*
X168777546Y-99182546D01*
X168863796Y-99067331D01*
X168914091Y-98932483D01*
X168920500Y-98872873D01*
X168920499Y-95627128D01*
X168914091Y-95567517D01*
X168906102Y-95546098D01*
X168863797Y-95432671D01*
X168863793Y-95432664D01*
X168777547Y-95317455D01*
X168777544Y-95317452D01*
X168662335Y-95231206D01*
X168662328Y-95231202D01*
X168601167Y-95208391D01*
X168583440Y-95195121D01*
X168563297Y-95185922D01*
X168556015Y-95174591D01*
X168545233Y-95166520D01*
X168537494Y-95145771D01*
X168525523Y-95127144D01*
X168522371Y-95105227D01*
X168520816Y-95101056D01*
X168520500Y-95092209D01*
X168520500Y-94853418D01*
X168540185Y-94786379D01*
X168592989Y-94740624D01*
X168662147Y-94730680D01*
X168691948Y-94738855D01*
X168766503Y-94769737D01*
X168921153Y-94800499D01*
X168921156Y-94800500D01*
X168921158Y-94800500D01*
X169078844Y-94800500D01*
X169078845Y-94800499D01*
X169233497Y-94769737D01*
X169379179Y-94709394D01*
X169510289Y-94621789D01*
X169621789Y-94510289D01*
X169632396Y-94494413D01*
X169686008Y-94449607D01*
X169755332Y-94440898D01*
X169818360Y-94471052D01*
X169855081Y-94530494D01*
X169859500Y-94563302D01*
X169859500Y-95092209D01*
X169839815Y-95159248D01*
X169787011Y-95205003D01*
X169778833Y-95208391D01*
X169717671Y-95231202D01*
X169717664Y-95231206D01*
X169602455Y-95317452D01*
X169602452Y-95317455D01*
X169516206Y-95432664D01*
X169516202Y-95432671D01*
X169465908Y-95567517D01*
X169459501Y-95627116D01*
X169459501Y-95627124D01*
X169459500Y-95627135D01*
X169459500Y-98872870D01*
X169459501Y-98872876D01*
X169465908Y-98932483D01*
X169516202Y-99067328D01*
X169516206Y-99067335D01*
X169602452Y-99182544D01*
X169602455Y-99182547D01*
X169717664Y-99268793D01*
X169717671Y-99268797D01*
X169852514Y-99319090D01*
X169852517Y-99319091D01*
X169857763Y-99319655D01*
X169922313Y-99346388D01*
X169951898Y-99380943D01*
X169971804Y-99415421D01*
X169979479Y-99428714D01*
X169979481Y-99428717D01*
X170098349Y-99547585D01*
X170098355Y-99547590D01*
X172215139Y-101664374D01*
X172215149Y-101664385D01*
X172219479Y-101668715D01*
X172219480Y-101668716D01*
X172331284Y-101780520D01*
X172331286Y-101780521D01*
X172331290Y-101780524D01*
X172451460Y-101849903D01*
X172468216Y-101859577D01*
X172564675Y-101885423D01*
X172620942Y-101900500D01*
X172620943Y-101900500D01*
X176813331Y-101900500D01*
X176813347Y-101900501D01*
X176820943Y-101900501D01*
X176979054Y-101900501D01*
X176979057Y-101900501D01*
X177131785Y-101859577D01*
X177181904Y-101830639D01*
X177268716Y-101780520D01*
X177380520Y-101668716D01*
X177380520Y-101668714D01*
X177390728Y-101658507D01*
X177390729Y-101658504D01*
X178887820Y-100161413D01*
X178949142Y-100127930D01*
X179018834Y-100132914D01*
X179074767Y-100174786D01*
X179099184Y-100240250D01*
X179099500Y-100249096D01*
X179099500Y-103495234D01*
X179079815Y-103562273D01*
X179078602Y-103564125D01*
X178990609Y-103695814D01*
X178990602Y-103695827D01*
X178930264Y-103841498D01*
X178930261Y-103841510D01*
X178899500Y-103996153D01*
X178899500Y-103999903D01*
X178898944Y-104001793D01*
X178898903Y-104002218D01*
X178898822Y-104002210D01*
X178879815Y-104066942D01*
X178863181Y-104087584D01*
X174187584Y-108763181D01*
X174126261Y-108796666D01*
X174099903Y-108799500D01*
X171986669Y-108799500D01*
X171986653Y-108799499D01*
X171979057Y-108799499D01*
X171820943Y-108799499D01*
X171713587Y-108828265D01*
X171668210Y-108840424D01*
X171668209Y-108840425D01*
X171618096Y-108869359D01*
X171618095Y-108869360D01*
X171574689Y-108894420D01*
X171531285Y-108919479D01*
X171531282Y-108919481D01*
X170485339Y-109965425D01*
X170424016Y-109998910D01*
X170421850Y-109999361D01*
X170266508Y-110030261D01*
X170266498Y-110030264D01*
X170120827Y-110090602D01*
X170120814Y-110090609D01*
X169989711Y-110178210D01*
X169989707Y-110178213D01*
X169878213Y-110289707D01*
X169878210Y-110289711D01*
X169790609Y-110420814D01*
X169790602Y-110420827D01*
X169730264Y-110566498D01*
X169730261Y-110566510D01*
X169699500Y-110721153D01*
X169699500Y-110878846D01*
X169730261Y-111033489D01*
X169730264Y-111033501D01*
X169790602Y-111179172D01*
X169790609Y-111179185D01*
X169878210Y-111310288D01*
X169878213Y-111310292D01*
X169989707Y-111421786D01*
X169989711Y-111421789D01*
X170120814Y-111509390D01*
X170120827Y-111509397D01*
X170266498Y-111569735D01*
X170266503Y-111569737D01*
X170405171Y-111597320D01*
X170421153Y-111600499D01*
X170421156Y-111600500D01*
X170421158Y-111600500D01*
X170578844Y-111600500D01*
X170578845Y-111600499D01*
X170733497Y-111569737D01*
X170879179Y-111509394D01*
X171010289Y-111421789D01*
X171121789Y-111310289D01*
X171209394Y-111179179D01*
X171269737Y-111033497D01*
X171298363Y-110889585D01*
X171300638Y-110878150D01*
X171333023Y-110816239D01*
X171334518Y-110814716D01*
X172112416Y-110036819D01*
X172173739Y-110003334D01*
X172200097Y-110000500D01*
X174313331Y-110000500D01*
X174313347Y-110000501D01*
X174320943Y-110000501D01*
X174479054Y-110000501D01*
X174479057Y-110000501D01*
X174631785Y-109959577D01*
X174692541Y-109924499D01*
X174768716Y-109880520D01*
X174880520Y-109768716D01*
X174880520Y-109768714D01*
X174890724Y-109758511D01*
X174890727Y-109758506D01*
X179745870Y-104903364D01*
X179807191Y-104869881D01*
X179809358Y-104869430D01*
X179819180Y-104867476D01*
X179933497Y-104844737D01*
X180079179Y-104784394D01*
X180210289Y-104696789D01*
X180321789Y-104585289D01*
X180409394Y-104454179D01*
X180469737Y-104308497D01*
X180500500Y-104153842D01*
X180500500Y-103996158D01*
X180500500Y-103996155D01*
X180500499Y-103996153D01*
X180494941Y-103968210D01*
X180469737Y-103841503D01*
X180469735Y-103841498D01*
X180409397Y-103695827D01*
X180409390Y-103695814D01*
X180321398Y-103564125D01*
X180300520Y-103497447D01*
X180300500Y-103495234D01*
X180300500Y-98579060D01*
X180300501Y-98579057D01*
X180300501Y-98420943D01*
X180300500Y-98420939D01*
X180300500Y-97170943D01*
X180259577Y-97018216D01*
X180249060Y-97000000D01*
X180180524Y-96881290D01*
X180180521Y-96881286D01*
X180180520Y-96881284D01*
X180068716Y-96769480D01*
X180068715Y-96769479D01*
X180064385Y-96765149D01*
X180064374Y-96765139D01*
X178809574Y-95510339D01*
X178776089Y-95449016D01*
X178775638Y-95446849D01*
X178749970Y-95317812D01*
X178744737Y-95291503D01*
X178732234Y-95261318D01*
X178684397Y-95145827D01*
X178684390Y-95145814D01*
X178596789Y-95014711D01*
X178596786Y-95014707D01*
X178485292Y-94903213D01*
X178485288Y-94903210D01*
X178354185Y-94815609D01*
X178354172Y-94815602D01*
X178208501Y-94755264D01*
X178208489Y-94755261D01*
X178053845Y-94724500D01*
X178053842Y-94724500D01*
X177896158Y-94724500D01*
X177896155Y-94724500D01*
X177741510Y-94755261D01*
X177741498Y-94755264D01*
X177595827Y-94815602D01*
X177595814Y-94815609D01*
X177464711Y-94903210D01*
X177464707Y-94903213D01*
X177353213Y-95014707D01*
X177353210Y-95014711D01*
X177265609Y-95145814D01*
X177265602Y-95145827D01*
X177205264Y-95291498D01*
X177205261Y-95291510D01*
X177174500Y-95446153D01*
X177174500Y-95603846D01*
X177205261Y-95758489D01*
X177205264Y-95758501D01*
X177265602Y-95904172D01*
X177265609Y-95904185D01*
X177353210Y-96035288D01*
X177353213Y-96035292D01*
X177464707Y-96146786D01*
X177464711Y-96146789D01*
X177595814Y-96234390D01*
X177595827Y-96234397D01*
X177741498Y-96294735D01*
X177741503Y-96294737D01*
X177806147Y-96307595D01*
X177896849Y-96325638D01*
X177958760Y-96358023D01*
X177960339Y-96359574D01*
X179063181Y-97462416D01*
X179096666Y-97523739D01*
X179099500Y-97550097D01*
X179099500Y-98199903D01*
X179079815Y-98266942D01*
X179063181Y-98287584D01*
X176687584Y-100663181D01*
X176626261Y-100696666D01*
X176599903Y-100699500D01*
X173000097Y-100699500D01*
X172933058Y-100679815D01*
X172912416Y-100663181D01*
X171436448Y-99187213D01*
X171402963Y-99125890D01*
X171407946Y-99056202D01*
X171454091Y-98932483D01*
X171460500Y-98872873D01*
X171460499Y-95627128D01*
X171454091Y-95567517D01*
X171446102Y-95546098D01*
X171403797Y-95432671D01*
X171403793Y-95432664D01*
X171317547Y-95317455D01*
X171317544Y-95317452D01*
X171202335Y-95231206D01*
X171202328Y-95231202D01*
X171141167Y-95208391D01*
X171085233Y-95166520D01*
X171060816Y-95101056D01*
X171060500Y-95092209D01*
X171060500Y-94357790D01*
X171080185Y-94290751D01*
X171132989Y-94244996D01*
X171141146Y-94241616D01*
X171202331Y-94218796D01*
X171317546Y-94132546D01*
X171403796Y-94017331D01*
X171454091Y-93882483D01*
X171460500Y-93822873D01*
X171460499Y-90577135D01*
X171999500Y-90577135D01*
X171999500Y-93822870D01*
X171999501Y-93822876D01*
X172005908Y-93882483D01*
X172056202Y-94017328D01*
X172056206Y-94017335D01*
X172142452Y-94132544D01*
X172142455Y-94132547D01*
X172257664Y-94218793D01*
X172257669Y-94218796D01*
X172318833Y-94241608D01*
X172374766Y-94283478D01*
X172399184Y-94348942D01*
X172399500Y-94357790D01*
X172399500Y-95092209D01*
X172379815Y-95159248D01*
X172327011Y-95205003D01*
X172318833Y-95208391D01*
X172257671Y-95231202D01*
X172257664Y-95231206D01*
X172142455Y-95317452D01*
X172142452Y-95317455D01*
X172056206Y-95432664D01*
X172056202Y-95432671D01*
X172005908Y-95567517D01*
X171999501Y-95627116D01*
X171999501Y-95627124D01*
X171999500Y-95627135D01*
X171999500Y-98872870D01*
X171999501Y-98872876D01*
X172005908Y-98932483D01*
X172056202Y-99067328D01*
X172056206Y-99067335D01*
X172142452Y-99182544D01*
X172142455Y-99182547D01*
X172257664Y-99268793D01*
X172257671Y-99268797D01*
X172392517Y-99319091D01*
X172392516Y-99319091D01*
X172397753Y-99319654D01*
X172452127Y-99325500D01*
X173547872Y-99325499D01*
X173607483Y-99319091D01*
X173742331Y-99268796D01*
X173857546Y-99182546D01*
X173943796Y-99067331D01*
X173994091Y-98932483D01*
X174000500Y-98872873D01*
X174000499Y-95627128D01*
X173994091Y-95567517D01*
X173986102Y-95546098D01*
X173943797Y-95432671D01*
X173943793Y-95432664D01*
X173857547Y-95317455D01*
X173857544Y-95317452D01*
X173742335Y-95231206D01*
X173742328Y-95231202D01*
X173681167Y-95208391D01*
X173625233Y-95166520D01*
X173600816Y-95101056D01*
X173600500Y-95092209D01*
X173600500Y-94357790D01*
X173620185Y-94290751D01*
X173672989Y-94244996D01*
X173681146Y-94241616D01*
X173742331Y-94218796D01*
X173857546Y-94132546D01*
X173943796Y-94017331D01*
X173994091Y-93882483D01*
X174000500Y-93822873D01*
X174000499Y-92100096D01*
X174020184Y-92033058D01*
X174036818Y-92012416D01*
X174712416Y-91336819D01*
X174773739Y-91303334D01*
X174800097Y-91300500D01*
X180399903Y-91300500D01*
X180466942Y-91320185D01*
X180487584Y-91336819D01*
X180788181Y-91637416D01*
X180821666Y-91698739D01*
X180824500Y-91725097D01*
X180824500Y-108524903D01*
X180804815Y-108591942D01*
X180788181Y-108612584D01*
X179685339Y-109715425D01*
X179624016Y-109748910D01*
X179621850Y-109749361D01*
X179466508Y-109780261D01*
X179466498Y-109780264D01*
X179320827Y-109840602D01*
X179320814Y-109840609D01*
X179189711Y-109928210D01*
X179189707Y-109928213D01*
X179078213Y-110039707D01*
X179078210Y-110039711D01*
X178990609Y-110170814D01*
X178990602Y-110170827D01*
X178930264Y-110316498D01*
X178930261Y-110316510D01*
X178899500Y-110471153D01*
X178899500Y-110628846D01*
X178930261Y-110783489D01*
X178930264Y-110783501D01*
X178990602Y-110929172D01*
X178990609Y-110929185D01*
X179078210Y-111060288D01*
X179078213Y-111060292D01*
X179189707Y-111171786D01*
X179189711Y-111171789D01*
X179320814Y-111259390D01*
X179320827Y-111259397D01*
X179466498Y-111319735D01*
X179466503Y-111319737D01*
X179621153Y-111350499D01*
X179621156Y-111350500D01*
X179621158Y-111350500D01*
X179778844Y-111350500D01*
X179778845Y-111350499D01*
X179933497Y-111319737D01*
X180079179Y-111259394D01*
X180210289Y-111171789D01*
X180321789Y-111060289D01*
X180409394Y-110929179D01*
X180412806Y-110920943D01*
X180469735Y-110783501D01*
X180469737Y-110783497D01*
X180496543Y-110648735D01*
X180500638Y-110628150D01*
X180533023Y-110566239D01*
X180534520Y-110564714D01*
X181783506Y-109315727D01*
X181783511Y-109315724D01*
X181793714Y-109305520D01*
X181793716Y-109305520D01*
X181905520Y-109193716D01*
X181984577Y-109056784D01*
X182021367Y-108919481D01*
X182021368Y-108919480D01*
X182022240Y-108916222D01*
X182025500Y-108904058D01*
X182025500Y-108745943D01*
X182025500Y-91320943D01*
X182025500Y-91320942D01*
X182025500Y-90620943D01*
X182025500Y-87479765D01*
X182045185Y-87412726D01*
X182046398Y-87410874D01*
X182050868Y-87404185D01*
X182134394Y-87279179D01*
X182137806Y-87270943D01*
X182155244Y-87228842D01*
X182194737Y-87133497D01*
X182225500Y-86978842D01*
X182225500Y-86821158D01*
X182225500Y-86821155D01*
X182225499Y-86821153D01*
X182214818Y-86767455D01*
X182194737Y-86666503D01*
X182186170Y-86645821D01*
X182134397Y-86520827D01*
X182134390Y-86520814D01*
X182046398Y-86389125D01*
X182025520Y-86322447D01*
X182025500Y-86320234D01*
X182025500Y-81479765D01*
X182045185Y-81412726D01*
X182046398Y-81410874D01*
X182067185Y-81379765D01*
X182134394Y-81279179D01*
X182194737Y-81133497D01*
X182225500Y-80978842D01*
X182225500Y-80821158D01*
X182225500Y-80821155D01*
X182225499Y-80821153D01*
X182217148Y-80779172D01*
X182194737Y-80666503D01*
X182194098Y-80664960D01*
X182134397Y-80520827D01*
X182134390Y-80520814D01*
X182046789Y-80389711D01*
X182046786Y-80389707D01*
X181935292Y-80278213D01*
X181935288Y-80278210D01*
X181804185Y-80190609D01*
X181804172Y-80190602D01*
X181658501Y-80130264D01*
X181658489Y-80130261D01*
X181503845Y-80099500D01*
X181503842Y-80099500D01*
X181346158Y-80099500D01*
X181346155Y-80099500D01*
X181191510Y-80130261D01*
X181191498Y-80130264D01*
X181045827Y-80190602D01*
X181045814Y-80190609D01*
X180914711Y-80278210D01*
X180914707Y-80278213D01*
X180803213Y-80389707D01*
X180803210Y-80389711D01*
X180715609Y-80520814D01*
X180715602Y-80520827D01*
X180655264Y-80666498D01*
X180655261Y-80666510D01*
X180624500Y-80821153D01*
X180624500Y-80978846D01*
X180655261Y-81133489D01*
X180655264Y-81133501D01*
X180715602Y-81279172D01*
X180715609Y-81279185D01*
X180803602Y-81410874D01*
X180824480Y-81477551D01*
X180824500Y-81479765D01*
X180824500Y-86320234D01*
X180804815Y-86387273D01*
X180803602Y-86389125D01*
X180715609Y-86520814D01*
X180715602Y-86520827D01*
X180655264Y-86666498D01*
X180655261Y-86666510D01*
X180624500Y-86821153D01*
X180624500Y-86978846D01*
X180655261Y-87133489D01*
X180655264Y-87133501D01*
X180715602Y-87279172D01*
X180715609Y-87279185D01*
X180803602Y-87410874D01*
X180824480Y-87477551D01*
X180824500Y-87479765D01*
X180824500Y-89699903D01*
X180804815Y-89766942D01*
X180788181Y-89787584D01*
X180512584Y-90063181D01*
X180451261Y-90096666D01*
X180424903Y-90099500D01*
X174420940Y-90099500D01*
X174380019Y-90110464D01*
X174380019Y-90110465D01*
X174359900Y-90115856D01*
X174268214Y-90140423D01*
X174268209Y-90140426D01*
X174131290Y-90219475D01*
X174131286Y-90219478D01*
X174055387Y-90295377D01*
X173994063Y-90328861D01*
X173924372Y-90323877D01*
X173868440Y-90282007D01*
X173857546Y-90267454D01*
X173834709Y-90250358D01*
X173742335Y-90181206D01*
X173742328Y-90181202D01*
X173607482Y-90130908D01*
X173607483Y-90130908D01*
X173547883Y-90124501D01*
X173547881Y-90124500D01*
X173547873Y-90124500D01*
X173547864Y-90124500D01*
X172452129Y-90124500D01*
X172452123Y-90124501D01*
X172392516Y-90130908D01*
X172257671Y-90181202D01*
X172257664Y-90181206D01*
X172142455Y-90267452D01*
X172142452Y-90267455D01*
X172056206Y-90382664D01*
X172056202Y-90382671D01*
X172005908Y-90517517D01*
X171999501Y-90577115D01*
X171999501Y-90577123D01*
X171999500Y-90577135D01*
X171460499Y-90577135D01*
X171460499Y-90577128D01*
X171454091Y-90517517D01*
X171454090Y-90517515D01*
X171403797Y-90382671D01*
X171403793Y-90382664D01*
X171317547Y-90267455D01*
X171317544Y-90267453D01*
X171297271Y-90252276D01*
X171255402Y-90196343D01*
X171250418Y-90126651D01*
X171283901Y-90065332D01*
X172412417Y-88936819D01*
X172473740Y-88903334D01*
X172500098Y-88900500D01*
X173038331Y-88900500D01*
X173038347Y-88900501D01*
X173045943Y-88900501D01*
X173204054Y-88900501D01*
X173204057Y-88900501D01*
X173356785Y-88859577D01*
X173407113Y-88830520D01*
X173407114Y-88830520D01*
X173493709Y-88780524D01*
X173493708Y-88780524D01*
X173493716Y-88780520D01*
X173605520Y-88668716D01*
X173605520Y-88668714D01*
X173615724Y-88658511D01*
X173615727Y-88658506D01*
X174489662Y-87784572D01*
X174550983Y-87751089D01*
X174553150Y-87750638D01*
X174611085Y-87739113D01*
X174708497Y-87719737D01*
X174854179Y-87659394D01*
X174985289Y-87571789D01*
X175096789Y-87460289D01*
X175184394Y-87329179D01*
X175244737Y-87183497D01*
X175275500Y-87028842D01*
X175275500Y-86871158D01*
X175275500Y-86871155D01*
X175275499Y-86871153D01*
X175270527Y-86846158D01*
X175244737Y-86716503D01*
X175230116Y-86681204D01*
X175184397Y-86570827D01*
X175184390Y-86570814D01*
X175096789Y-86439711D01*
X175096786Y-86439707D01*
X175086819Y-86429740D01*
X175053334Y-86368417D01*
X175050500Y-86342059D01*
X175050500Y-81279765D01*
X175070185Y-81212726D01*
X175071398Y-81210874D01*
X175092185Y-81179765D01*
X175159394Y-81079179D01*
X175219737Y-80933497D01*
X175250500Y-80778842D01*
X175250500Y-80621158D01*
X175250500Y-80621155D01*
X175250499Y-80621153D01*
X175233061Y-80533489D01*
X175219737Y-80466503D01*
X175187929Y-80389711D01*
X175159397Y-80320827D01*
X175159390Y-80320814D01*
X175071789Y-80189711D01*
X175071786Y-80189707D01*
X174960292Y-80078213D01*
X174960288Y-80078210D01*
X174829185Y-79990609D01*
X174829172Y-79990602D01*
X174683501Y-79930264D01*
X174683489Y-79930261D01*
X174528845Y-79899500D01*
X174528842Y-79899500D01*
X174371158Y-79899500D01*
X174371155Y-79899500D01*
X174216510Y-79930261D01*
X174216498Y-79930264D01*
X174070827Y-79990602D01*
X174070814Y-79990609D01*
X173939711Y-80078210D01*
X173939707Y-80078213D01*
X173828213Y-80189707D01*
X173828210Y-80189711D01*
X173740609Y-80320814D01*
X173740602Y-80320827D01*
X173680264Y-80466498D01*
X173680261Y-80466510D01*
X173649500Y-80621153D01*
X173649500Y-80778846D01*
X173680261Y-80933489D01*
X173680264Y-80933501D01*
X173740602Y-81079172D01*
X173740609Y-81079185D01*
X173828602Y-81210874D01*
X173849480Y-81277551D01*
X173849500Y-81279765D01*
X173849500Y-86407650D01*
X173829815Y-86474689D01*
X173828602Y-86476541D01*
X173765609Y-86570815D01*
X173765602Y-86570828D01*
X173705264Y-86716498D01*
X173705261Y-86716508D01*
X173674361Y-86871850D01*
X173641976Y-86933761D01*
X173640425Y-86935339D01*
X172912584Y-87663181D01*
X172851261Y-87696666D01*
X172824903Y-87699500D01*
X172286670Y-87699500D01*
X172286654Y-87699499D01*
X172279058Y-87699499D01*
X172120943Y-87699499D01*
X172045423Y-87719735D01*
X171968214Y-87740423D01*
X171968209Y-87740426D01*
X171831290Y-87819475D01*
X171831282Y-87819481D01*
X169979481Y-89671282D01*
X169979480Y-89671284D01*
X169940351Y-89739058D01*
X169900423Y-89808215D01*
X169859499Y-89960943D01*
X169859499Y-89960945D01*
X169859499Y-90042209D01*
X169839814Y-90109248D01*
X169787010Y-90155003D01*
X169778832Y-90158391D01*
X169717671Y-90181202D01*
X169717664Y-90181206D01*
X169602455Y-90267452D01*
X169602452Y-90267455D01*
X169516206Y-90382664D01*
X169516202Y-90382671D01*
X169465908Y-90517517D01*
X169459501Y-90577115D01*
X169459501Y-90577123D01*
X169459500Y-90577135D01*
X169459500Y-93138297D01*
X169439815Y-93205336D01*
X169387011Y-93251091D01*
X169317853Y-93261035D01*
X169288048Y-93252858D01*
X169233501Y-93230264D01*
X169233489Y-93230261D01*
X169078845Y-93199500D01*
X169078842Y-93199500D01*
X169044499Y-93199500D01*
X168977460Y-93179815D01*
X168931705Y-93127011D01*
X168920499Y-93075500D01*
X168920499Y-90577129D01*
X168920498Y-90577123D01*
X168920497Y-90577116D01*
X168914091Y-90517517D01*
X168914090Y-90517515D01*
X168863797Y-90382671D01*
X168863793Y-90382664D01*
X168777547Y-90267455D01*
X168777544Y-90267452D01*
X168662335Y-90181206D01*
X168662328Y-90181202D01*
X168527482Y-90130908D01*
X168527483Y-90130908D01*
X168467883Y-90124501D01*
X168467881Y-90124500D01*
X168467873Y-90124500D01*
X168467865Y-90124500D01*
X168299500Y-90124500D01*
X168232461Y-90104815D01*
X168186706Y-90052011D01*
X168175500Y-90000500D01*
X168175500Y-87504765D01*
X168195185Y-87437726D01*
X168196398Y-87435874D01*
X168267686Y-87329185D01*
X168284394Y-87304179D01*
X168344737Y-87158497D01*
X168375500Y-87003842D01*
X168375500Y-86846158D01*
X168375500Y-86846155D01*
X168375499Y-86846153D01*
X168370527Y-86821158D01*
X168344737Y-86691503D01*
X168323284Y-86639711D01*
X168284397Y-86545827D01*
X168284390Y-86545814D01*
X168196398Y-86414125D01*
X168175520Y-86347447D01*
X168175500Y-86345234D01*
X168175500Y-81279765D01*
X168195185Y-81212726D01*
X168196398Y-81210874D01*
X168217185Y-81179765D01*
X168284394Y-81079179D01*
X168344737Y-80933497D01*
X168375500Y-80778842D01*
X168375500Y-80621158D01*
X168375500Y-80621155D01*
X168375499Y-80621153D01*
X168358061Y-80533489D01*
X168344737Y-80466503D01*
X168312929Y-80389711D01*
X168284397Y-80320827D01*
X168284390Y-80320814D01*
X168196789Y-80189711D01*
X168196786Y-80189707D01*
X168085292Y-80078213D01*
X168085288Y-80078210D01*
X167954185Y-79990609D01*
X167954172Y-79990602D01*
X167808501Y-79930264D01*
X167808489Y-79930261D01*
X167653845Y-79899500D01*
X167653842Y-79899500D01*
X167496158Y-79899500D01*
X167496155Y-79899500D01*
X167341510Y-79930261D01*
X167341498Y-79930264D01*
X167195827Y-79990602D01*
X167195814Y-79990609D01*
X167064711Y-80078210D01*
X167064707Y-80078213D01*
X166953213Y-80189707D01*
X166953210Y-80189711D01*
X166865609Y-80320814D01*
X166865602Y-80320827D01*
X166805264Y-80466498D01*
X166805261Y-80466510D01*
X166774500Y-80621153D01*
X161500499Y-80621153D01*
X161483061Y-80533489D01*
X161469737Y-80466503D01*
X161437929Y-80389711D01*
X161409397Y-80320827D01*
X161409390Y-80320814D01*
X161321789Y-80189711D01*
X161321786Y-80189707D01*
X161210292Y-80078213D01*
X161210288Y-80078210D01*
X161079185Y-79990609D01*
X161079172Y-79990602D01*
X160933501Y-79930264D01*
X160933489Y-79930261D01*
X160778845Y-79899500D01*
X160778842Y-79899500D01*
X160621158Y-79899500D01*
X160621155Y-79899500D01*
X160466510Y-79930261D01*
X160466498Y-79930264D01*
X160320827Y-79990602D01*
X160320814Y-79990609D01*
X160189711Y-80078210D01*
X160189707Y-80078213D01*
X160078213Y-80189707D01*
X160078210Y-80189711D01*
X159990609Y-80320814D01*
X159990602Y-80320827D01*
X159930264Y-80466498D01*
X159930261Y-80466510D01*
X159899500Y-80621153D01*
X159899500Y-80778846D01*
X159930261Y-80933489D01*
X159930264Y-80933501D01*
X159990602Y-81079172D01*
X159990609Y-81079185D01*
X160078602Y-81210874D01*
X160099480Y-81277551D01*
X160099500Y-81279765D01*
X160099500Y-86345234D01*
X160079815Y-86412273D01*
X160078602Y-86414125D01*
X159990609Y-86545814D01*
X159990602Y-86545827D01*
X159930264Y-86691498D01*
X159930261Y-86691510D01*
X159899500Y-86846153D01*
X159899500Y-87003846D01*
X159930261Y-87158489D01*
X159930264Y-87158501D01*
X159990602Y-87304172D01*
X159990609Y-87304185D01*
X160078210Y-87435288D01*
X160078213Y-87435292D01*
X160189707Y-87546786D01*
X160189711Y-87546789D01*
X160320814Y-87634390D01*
X160320827Y-87634397D01*
X160466498Y-87694735D01*
X160466503Y-87694737D01*
X160621158Y-87725500D01*
X160621847Y-87725637D01*
X160683758Y-87758022D01*
X160685337Y-87759573D01*
X160906284Y-87980520D01*
X161043215Y-88059577D01*
X161195943Y-88100501D01*
X161195946Y-88100501D01*
X161361654Y-88100501D01*
X161361670Y-88100500D01*
X162299903Y-88100500D01*
X162366942Y-88120185D01*
X162387584Y-88136819D01*
X164444663Y-90193898D01*
X164478148Y-90255221D01*
X164473164Y-90324913D01*
X164456250Y-90355888D01*
X164436205Y-90382664D01*
X164436202Y-90382670D01*
X164385908Y-90517516D01*
X164382014Y-90553739D01*
X164379501Y-90577123D01*
X164379500Y-90577134D01*
X164379500Y-93748059D01*
X164359815Y-93815098D01*
X164307011Y-93860853D01*
X164237853Y-93870797D01*
X164174297Y-93841772D01*
X164167819Y-93835740D01*
X164110292Y-93778213D01*
X164110288Y-93778210D01*
X163979185Y-93690609D01*
X163979175Y-93690604D01*
X163917046Y-93664869D01*
X163862642Y-93621027D01*
X163840578Y-93554733D01*
X163840499Y-93550308D01*
X163840499Y-90577129D01*
X163840498Y-90577123D01*
X163840497Y-90577116D01*
X163834091Y-90517517D01*
X163834090Y-90517515D01*
X163783797Y-90382671D01*
X163783793Y-90382664D01*
X163697547Y-90267455D01*
X163697544Y-90267452D01*
X163582335Y-90181206D01*
X163582328Y-90181202D01*
X163447482Y-90130908D01*
X163447483Y-90130908D01*
X163387883Y-90124501D01*
X163387881Y-90124500D01*
X163387873Y-90124500D01*
X163387864Y-90124500D01*
X162292129Y-90124500D01*
X162292123Y-90124501D01*
X162232516Y-90130908D01*
X162097671Y-90181202D01*
X162097664Y-90181206D01*
X161982455Y-90267452D01*
X161982452Y-90267455D01*
X161896206Y-90382664D01*
X161896202Y-90382671D01*
X161845908Y-90517517D01*
X161839501Y-90577115D01*
X161839501Y-90577123D01*
X161839500Y-90577135D01*
X161839500Y-93822870D01*
X161839501Y-93822876D01*
X161845908Y-93882483D01*
X161896202Y-94017328D01*
X161896206Y-94017335D01*
X161982452Y-94132544D01*
X161982455Y-94132547D01*
X162097664Y-94218793D01*
X162097669Y-94218796D01*
X162158833Y-94241608D01*
X162214766Y-94283478D01*
X162239184Y-94348942D01*
X162239500Y-94357790D01*
X162239500Y-95092209D01*
X162219815Y-95159248D01*
X162167011Y-95205003D01*
X162158833Y-95208391D01*
X162097671Y-95231202D01*
X162097664Y-95231206D01*
X161982455Y-95317452D01*
X161982452Y-95317455D01*
X161896206Y-95432664D01*
X161896202Y-95432671D01*
X161845908Y-95567517D01*
X161839501Y-95627116D01*
X161839501Y-95627124D01*
X161839500Y-95627135D01*
X161839500Y-98872870D01*
X161839501Y-98872876D01*
X161845908Y-98932483D01*
X161896202Y-99067328D01*
X161896206Y-99067335D01*
X161982452Y-99182544D01*
X161982455Y-99182547D01*
X162097664Y-99268793D01*
X162097666Y-99268794D01*
X162097669Y-99268796D01*
X162158833Y-99291608D01*
X162214766Y-99333478D01*
X162239184Y-99398942D01*
X162239500Y-99407790D01*
X162239500Y-101859902D01*
X162219815Y-101926941D01*
X162203181Y-101947583D01*
X161119481Y-103031282D01*
X161119479Y-103031285D01*
X161106819Y-103053213D01*
X161080653Y-103098535D01*
X161040423Y-103168215D01*
X160999499Y-103320943D01*
X160999499Y-103320945D01*
X160999499Y-103489046D01*
X160999500Y-103489059D01*
X160999500Y-105699902D01*
X160979815Y-105766941D01*
X160963181Y-105787583D01*
X158719482Y-108031281D01*
X158719475Y-108031290D01*
X158704200Y-108057747D01*
X158684496Y-108083425D01*
X158578213Y-108189707D01*
X158578210Y-108189711D01*
X158490609Y-108320814D01*
X158490602Y-108320827D01*
X158430264Y-108466498D01*
X158430261Y-108466510D01*
X158399500Y-108621153D01*
X158050500Y-108621153D01*
X158050500Y-104154765D01*
X158070185Y-104087726D01*
X158071398Y-104085874D01*
X158075868Y-104079185D01*
X158159394Y-103954179D01*
X158219737Y-103808497D01*
X158250500Y-103653842D01*
X158250500Y-103496158D01*
X158250500Y-103496155D01*
X158250499Y-103496153D01*
X158245527Y-103471158D01*
X158219737Y-103341503D01*
X158211170Y-103320821D01*
X158159397Y-103195827D01*
X158159390Y-103195814D01*
X158071398Y-103064125D01*
X158050520Y-102997447D01*
X158050500Y-102995234D01*
X158050500Y-99449499D01*
X158070185Y-99382460D01*
X158122989Y-99336705D01*
X158174500Y-99325499D01*
X158307871Y-99325499D01*
X158307872Y-99325499D01*
X158367483Y-99319091D01*
X158502331Y-99268796D01*
X158617546Y-99182546D01*
X158703796Y-99067331D01*
X158754091Y-98932483D01*
X158760500Y-98872873D01*
X158760500Y-98872844D01*
X159300000Y-98872844D01*
X159306401Y-98932372D01*
X159306403Y-98932379D01*
X159356645Y-99067086D01*
X159356649Y-99067093D01*
X159442809Y-99182187D01*
X159442812Y-99182190D01*
X159557906Y-99268350D01*
X159557913Y-99268354D01*
X159692620Y-99318596D01*
X159692627Y-99318598D01*
X159752155Y-99324999D01*
X159752172Y-99325000D01*
X160050000Y-99325000D01*
X160550000Y-99325000D01*
X160847828Y-99325000D01*
X160847844Y-99324999D01*
X160907372Y-99318598D01*
X160907379Y-99318596D01*
X161042086Y-99268354D01*
X161042093Y-99268350D01*
X161157187Y-99182190D01*
X161157190Y-99182187D01*
X161243350Y-99067093D01*
X161243354Y-99067086D01*
X161293596Y-98932379D01*
X161293598Y-98932372D01*
X161299999Y-98872844D01*
X161300000Y-98872827D01*
X161300000Y-97500000D01*
X160550000Y-97500000D01*
X160550000Y-99325000D01*
X160050000Y-99325000D01*
X160050000Y-97500000D01*
X159300000Y-97500000D01*
X159300000Y-98872844D01*
X158760500Y-98872844D01*
X158760499Y-97170945D01*
X158760499Y-95627155D01*
X159300000Y-95627155D01*
X159300000Y-97000000D01*
X160050000Y-97000000D01*
X160550000Y-97000000D01*
X161300000Y-97000000D01*
X161300000Y-95627172D01*
X161299999Y-95627155D01*
X161293598Y-95567627D01*
X161293596Y-95567620D01*
X161243354Y-95432913D01*
X161243350Y-95432906D01*
X161157190Y-95317812D01*
X161157187Y-95317809D01*
X161042093Y-95231649D01*
X161042086Y-95231645D01*
X160907379Y-95181403D01*
X160907372Y-95181401D01*
X160847844Y-95175000D01*
X160550000Y-95175000D01*
X160550000Y-97000000D01*
X160050000Y-97000000D01*
X160050000Y-95175000D01*
X159752155Y-95175000D01*
X159692627Y-95181401D01*
X159692620Y-95181403D01*
X159557913Y-95231645D01*
X159557906Y-95231649D01*
X159442812Y-95317809D01*
X159442809Y-95317812D01*
X159356649Y-95432906D01*
X159356645Y-95432913D01*
X159306403Y-95567620D01*
X159306401Y-95567627D01*
X159300000Y-95627155D01*
X158760499Y-95627155D01*
X158760499Y-95627129D01*
X158760499Y-95627127D01*
X158754091Y-95567517D01*
X158746102Y-95546098D01*
X158703797Y-95432671D01*
X158703793Y-95432664D01*
X158617547Y-95317455D01*
X158617544Y-95317452D01*
X158502335Y-95231206D01*
X158502328Y-95231202D01*
X158367482Y-95180908D01*
X158367483Y-95180908D01*
X158307883Y-95174501D01*
X158307881Y-95174500D01*
X158307873Y-95174500D01*
X158307865Y-95174500D01*
X158074097Y-95174500D01*
X158052851Y-95168261D01*
X158030764Y-95166682D01*
X158019980Y-95158609D01*
X158007058Y-95154815D01*
X157992559Y-95138083D01*
X157974830Y-95124811D01*
X157970122Y-95112188D01*
X157961303Y-95102011D01*
X157958151Y-95080095D01*
X157950413Y-95059347D01*
X157953275Y-95046185D01*
X157951359Y-95032853D01*
X157960557Y-95012711D01*
X157965264Y-94991074D01*
X157978535Y-94973345D01*
X157980384Y-94969297D01*
X157986406Y-94962828D01*
X158118509Y-94830724D01*
X158118514Y-94830721D01*
X158128714Y-94820520D01*
X158128716Y-94820520D01*
X158240520Y-94708716D01*
X158292040Y-94619480D01*
X158319577Y-94571785D01*
X158360501Y-94419057D01*
X158360501Y-94357789D01*
X158380186Y-94290751D01*
X158432990Y-94244996D01*
X158441169Y-94241608D01*
X158502326Y-94218798D01*
X158502326Y-94218797D01*
X158502331Y-94218796D01*
X158617546Y-94132546D01*
X158703796Y-94017331D01*
X158754091Y-93882483D01*
X158760500Y-93822873D01*
X158760500Y-93822844D01*
X159300000Y-93822844D01*
X159306401Y-93882372D01*
X159306403Y-93882379D01*
X159356645Y-94017086D01*
X159356649Y-94017093D01*
X159442809Y-94132187D01*
X159442812Y-94132190D01*
X159557906Y-94218350D01*
X159557913Y-94218354D01*
X159692620Y-94268596D01*
X159692627Y-94268598D01*
X159752155Y-94274999D01*
X159752172Y-94275000D01*
X160050000Y-94275000D01*
X160550000Y-94275000D01*
X160847828Y-94275000D01*
X160847844Y-94274999D01*
X160907372Y-94268598D01*
X160907379Y-94268596D01*
X161042086Y-94218354D01*
X161042093Y-94218350D01*
X161157187Y-94132190D01*
X161157190Y-94132187D01*
X161243350Y-94017093D01*
X161243354Y-94017086D01*
X161293596Y-93882379D01*
X161293598Y-93882372D01*
X161299999Y-93822844D01*
X161300000Y-93822827D01*
X161300000Y-92450000D01*
X160550000Y-92450000D01*
X160550000Y-94275000D01*
X160050000Y-94275000D01*
X160050000Y-92450000D01*
X159300000Y-92450000D01*
X159300000Y-93822844D01*
X158760500Y-93822844D01*
X158760499Y-92100097D01*
X158760499Y-90577155D01*
X159300000Y-90577155D01*
X159300000Y-91950000D01*
X160050000Y-91950000D01*
X160550000Y-91950000D01*
X161300000Y-91950000D01*
X161300000Y-90577172D01*
X161299999Y-90577155D01*
X161293598Y-90517627D01*
X161293596Y-90517620D01*
X161243354Y-90382913D01*
X161243350Y-90382906D01*
X161157190Y-90267812D01*
X161157187Y-90267809D01*
X161042093Y-90181649D01*
X161042086Y-90181645D01*
X160907379Y-90131403D01*
X160907372Y-90131401D01*
X160847844Y-90125000D01*
X160550000Y-90125000D01*
X160550000Y-91950000D01*
X160050000Y-91950000D01*
X160050000Y-90125000D01*
X159752155Y-90125000D01*
X159692627Y-90131401D01*
X159692620Y-90131403D01*
X159557913Y-90181645D01*
X159557906Y-90181649D01*
X159442812Y-90267809D01*
X159442809Y-90267812D01*
X159356649Y-90382906D01*
X159356645Y-90382913D01*
X159306403Y-90517620D01*
X159306401Y-90517627D01*
X159300000Y-90577155D01*
X158760499Y-90577155D01*
X158760499Y-90577129D01*
X158760498Y-90577123D01*
X158760497Y-90577116D01*
X158754091Y-90517517D01*
X158754090Y-90517515D01*
X158703797Y-90382671D01*
X158703793Y-90382664D01*
X158617547Y-90267455D01*
X158617544Y-90267452D01*
X158502335Y-90181206D01*
X158502330Y-90181203D01*
X158381167Y-90136012D01*
X158325234Y-90094140D01*
X158300817Y-90028676D01*
X158300501Y-90019830D01*
X158300501Y-89920944D01*
X158287498Y-89872416D01*
X158259577Y-89768216D01*
X158259573Y-89768209D01*
X158180524Y-89631290D01*
X158180518Y-89631282D01*
X155487590Y-86938355D01*
X155487588Y-86938352D01*
X155368717Y-86819481D01*
X155368716Y-86819480D01*
X155281904Y-86769360D01*
X155281904Y-86769359D01*
X155281900Y-86769358D01*
X155231785Y-86740423D01*
X155079057Y-86699499D01*
X154920943Y-86699499D01*
X154913347Y-86699499D01*
X154913331Y-86699500D01*
X154555904Y-86699500D01*
X154488865Y-86679815D01*
X154443110Y-86627011D01*
X154441343Y-86622952D01*
X154409397Y-86545827D01*
X154409390Y-86545814D01*
X154321398Y-86414125D01*
X154300520Y-86347447D01*
X154300500Y-86345234D01*
X154300500Y-81379765D01*
X154320185Y-81312726D01*
X154321398Y-81310874D01*
X154342185Y-81279765D01*
X154409394Y-81179179D01*
X154469737Y-81033497D01*
X154500500Y-80878842D01*
X154500500Y-80721158D01*
X154500500Y-80721155D01*
X154500499Y-80721153D01*
X154492148Y-80679172D01*
X154469737Y-80566503D01*
X154450955Y-80521158D01*
X154409397Y-80420827D01*
X154409390Y-80420814D01*
X154321789Y-80289711D01*
X154321786Y-80289707D01*
X154210292Y-80178213D01*
X154210288Y-80178210D01*
X154079185Y-80090609D01*
X154079172Y-80090602D01*
X153933501Y-80030264D01*
X153933489Y-80030261D01*
X153778845Y-79999500D01*
X153778842Y-79999500D01*
X153621158Y-79999500D01*
X153621155Y-79999500D01*
X153466510Y-80030261D01*
X153466498Y-80030264D01*
X153320827Y-80090602D01*
X153320814Y-80090609D01*
X153189711Y-80178210D01*
X153189707Y-80178213D01*
X153078213Y-80289707D01*
X153078210Y-80289711D01*
X152990609Y-80420814D01*
X152990602Y-80420827D01*
X152930264Y-80566498D01*
X152930261Y-80566510D01*
X152899500Y-80721153D01*
X152899500Y-80878846D01*
X152930261Y-81033489D01*
X152930264Y-81033501D01*
X152990602Y-81179172D01*
X152990609Y-81179185D01*
X153078602Y-81310874D01*
X153099480Y-81377551D01*
X153099500Y-81379765D01*
X153099500Y-86345234D01*
X153079815Y-86412273D01*
X153078602Y-86414125D01*
X152990609Y-86545814D01*
X152990602Y-86545827D01*
X152930264Y-86691498D01*
X152930261Y-86691510D01*
X152899500Y-86846153D01*
X152899500Y-87003846D01*
X152930261Y-87158489D01*
X152930264Y-87158501D01*
X152990602Y-87304172D01*
X152990609Y-87304185D01*
X153078210Y-87435288D01*
X153078213Y-87435292D01*
X153189707Y-87546786D01*
X153189711Y-87546789D01*
X153320814Y-87634390D01*
X153320827Y-87634397D01*
X153466498Y-87694735D01*
X153466503Y-87694737D01*
X153621158Y-87725500D01*
X153621847Y-87725637D01*
X153667592Y-87744858D01*
X153677150Y-87751386D01*
X153706284Y-87780520D01*
X153792886Y-87830519D01*
X153793705Y-87830992D01*
X153797578Y-87833637D01*
X153816854Y-87857185D01*
X153837857Y-87879212D01*
X153838772Y-87883960D01*
X153841835Y-87887702D01*
X153845319Y-87917929D01*
X153851081Y-87947819D01*
X153849283Y-87952309D01*
X153849837Y-87957112D01*
X153836425Y-87984426D01*
X153825113Y-88012684D01*
X153820019Y-88017839D01*
X153819043Y-88019829D01*
X153816592Y-88021308D01*
X153805469Y-88032568D01*
X153803180Y-88034412D01*
X153803165Y-88034426D01*
X153134434Y-88703158D01*
X153134423Y-88703170D01*
X153096805Y-88749848D01*
X153037017Y-88880763D01*
X153037016Y-88880767D01*
X153016536Y-89023223D01*
X153037016Y-89165680D01*
X153096803Y-89296594D01*
X153102011Y-89303056D01*
X153128749Y-89367608D01*
X153116343Y-89436367D01*
X153068732Y-89487504D01*
X153001032Y-89504783D01*
X152934738Y-89482718D01*
X152917778Y-89468543D01*
X152415384Y-88966149D01*
X152381899Y-88904826D01*
X152386883Y-88835134D01*
X152403798Y-88804157D01*
X152468796Y-88717331D01*
X152519091Y-88582483D01*
X152525500Y-88522873D01*
X152525499Y-87077128D01*
X152519091Y-87017517D01*
X152517529Y-87013330D01*
X152468797Y-86882671D01*
X152468793Y-86882664D01*
X152382547Y-86767455D01*
X152382544Y-86767452D01*
X152267335Y-86681206D01*
X152267328Y-86681202D01*
X152132482Y-86630908D01*
X152132483Y-86630908D01*
X152072883Y-86624501D01*
X152072881Y-86624500D01*
X152072873Y-86624500D01*
X152072864Y-86624500D01*
X151127129Y-86624500D01*
X151127123Y-86624501D01*
X151067516Y-86630908D01*
X150932671Y-86681202D01*
X150932669Y-86681203D01*
X150874311Y-86724891D01*
X150808847Y-86749308D01*
X150740574Y-86734457D01*
X150725689Y-86724891D01*
X150667330Y-86681203D01*
X150667328Y-86681202D01*
X150532482Y-86630908D01*
X150532483Y-86630908D01*
X150472883Y-86624501D01*
X150472881Y-86624500D01*
X150472873Y-86624500D01*
X150472864Y-86624500D01*
X149527129Y-86624500D01*
X149527123Y-86624501D01*
X149467516Y-86630908D01*
X149332671Y-86681202D01*
X149332664Y-86681206D01*
X149217455Y-86767452D01*
X149217452Y-86767455D01*
X149131206Y-86882664D01*
X149131202Y-86882671D01*
X149080908Y-87017517D01*
X149075067Y-87071849D01*
X149074501Y-87077123D01*
X149074500Y-87077132D01*
X149074500Y-88522870D01*
X149074501Y-88522876D01*
X149080908Y-88582483D01*
X149131202Y-88717328D01*
X149131206Y-88717335D01*
X149217452Y-88832544D01*
X149217455Y-88832547D01*
X149332663Y-88918792D01*
X149332665Y-88918793D01*
X149332669Y-88918796D01*
X149332673Y-88918797D01*
X149334924Y-88920027D01*
X149336746Y-88921849D01*
X149339769Y-88924112D01*
X149339443Y-88924546D01*
X149384331Y-88969431D01*
X149399500Y-89028861D01*
X149399500Y-90117763D01*
X149379815Y-90184802D01*
X149349812Y-90217029D01*
X149282452Y-90267455D01*
X149196206Y-90382664D01*
X149196202Y-90382671D01*
X149145908Y-90517517D01*
X149139501Y-90577115D01*
X149139501Y-90577123D01*
X149139500Y-90577135D01*
X149139500Y-93822870D01*
X149139501Y-93822872D01*
X149143733Y-93862246D01*
X149131328Y-93931005D01*
X149083717Y-93982142D01*
X149020444Y-93999500D01*
X148719556Y-93999500D01*
X148652517Y-93979815D01*
X148606762Y-93927011D01*
X148596267Y-93862244D01*
X148600499Y-93822881D01*
X148600500Y-93822873D01*
X148600499Y-90577128D01*
X148594091Y-90517517D01*
X148594090Y-90517515D01*
X148543797Y-90382671D01*
X148543793Y-90382664D01*
X148457547Y-90267455D01*
X148457544Y-90267452D01*
X148342335Y-90181206D01*
X148342328Y-90181202D01*
X148207482Y-90130908D01*
X148207483Y-90130908D01*
X148147883Y-90124501D01*
X148147881Y-90124500D01*
X148147873Y-90124500D01*
X148147865Y-90124500D01*
X148074500Y-90124500D01*
X148007461Y-90104815D01*
X147961706Y-90052011D01*
X147950500Y-90000500D01*
X147950500Y-87270945D01*
X147950500Y-87270943D01*
X147925879Y-87179057D01*
X147909577Y-87118215D01*
X147858102Y-87029058D01*
X147830520Y-86981284D01*
X147809573Y-86960337D01*
X147776088Y-86899014D01*
X147775637Y-86896847D01*
X147770527Y-86871158D01*
X147744737Y-86741503D01*
X147744290Y-86740423D01*
X147684397Y-86595827D01*
X147684390Y-86595814D01*
X147596789Y-86464711D01*
X147596786Y-86464707D01*
X147511819Y-86379740D01*
X147478334Y-86318417D01*
X147475500Y-86292059D01*
X147475500Y-81279765D01*
X147495185Y-81212726D01*
X147496398Y-81210874D01*
X147517185Y-81179765D01*
X147584394Y-81079179D01*
X147644737Y-80933497D01*
X147675500Y-80778842D01*
X147675500Y-80621158D01*
X147675500Y-80621155D01*
X147675499Y-80621153D01*
X147658061Y-80533489D01*
X147644737Y-80466503D01*
X147612929Y-80389711D01*
X147584397Y-80320827D01*
X147584390Y-80320814D01*
X147496789Y-80189711D01*
X147496786Y-80189707D01*
X147385292Y-80078213D01*
X147385288Y-80078210D01*
X147254185Y-79990609D01*
X147254172Y-79990602D01*
X147108501Y-79930264D01*
X147108489Y-79930261D01*
X146953845Y-79899500D01*
X146953842Y-79899500D01*
X146796158Y-79899500D01*
X146796155Y-79899500D01*
X146641510Y-79930261D01*
X146641498Y-79930264D01*
X146495827Y-79990602D01*
X146495814Y-79990609D01*
X146364711Y-80078210D01*
X146364707Y-80078213D01*
X146253213Y-80189707D01*
X146253210Y-80189711D01*
X146165609Y-80320814D01*
X146165602Y-80320827D01*
X146105264Y-80466498D01*
X146105261Y-80466510D01*
X146074500Y-80621153D01*
X146074500Y-80778846D01*
X146105261Y-80933489D01*
X146105264Y-80933501D01*
X146165602Y-81079172D01*
X146165609Y-81079185D01*
X146253602Y-81210874D01*
X146274480Y-81277551D01*
X146274500Y-81279765D01*
X146274500Y-86549684D01*
X146265061Y-86597136D01*
X146205264Y-86741498D01*
X146205261Y-86741510D01*
X146174500Y-86896153D01*
X146174500Y-87053846D01*
X146205261Y-87208489D01*
X146205264Y-87208501D01*
X146265602Y-87354172D01*
X146265609Y-87354185D01*
X146353210Y-87485288D01*
X146353213Y-87485292D01*
X146464707Y-87596786D01*
X146464711Y-87596789D01*
X146595814Y-87684390D01*
X146595821Y-87684394D01*
X146672953Y-87716343D01*
X146727355Y-87760182D01*
X146749421Y-87826475D01*
X146749500Y-87830903D01*
X146749500Y-90216769D01*
X146729815Y-90283808D01*
X146724767Y-90291080D01*
X146656204Y-90382668D01*
X146656202Y-90382671D01*
X146605908Y-90517517D01*
X146599501Y-90577115D01*
X146599501Y-90577123D01*
X146599500Y-90577135D01*
X146599500Y-93822870D01*
X146599501Y-93822876D01*
X146605908Y-93882483D01*
X146656202Y-94017328D01*
X146656206Y-94017335D01*
X146742452Y-94132544D01*
X146742455Y-94132547D01*
X146857664Y-94218793D01*
X146857669Y-94218796D01*
X146918833Y-94241608D01*
X146936558Y-94254877D01*
X146956703Y-94264077D01*
X146963984Y-94275407D01*
X146974766Y-94283478D01*
X146982504Y-94304226D01*
X146994477Y-94322855D01*
X146997628Y-94344770D01*
X146999184Y-94348942D01*
X146999500Y-94357789D01*
X146999500Y-94413330D01*
X146999499Y-94413348D01*
X146999499Y-94589046D01*
X146999500Y-94589059D01*
X146999500Y-95092209D01*
X146979815Y-95159248D01*
X146927011Y-95205003D01*
X146918833Y-95208391D01*
X146857671Y-95231202D01*
X146857664Y-95231206D01*
X146742455Y-95317452D01*
X146742452Y-95317455D01*
X146656206Y-95432664D01*
X146656202Y-95432671D01*
X146605908Y-95567517D01*
X146599501Y-95627116D01*
X146599501Y-95627124D01*
X146599500Y-95627135D01*
X146599500Y-98872870D01*
X146599501Y-98872876D01*
X146605908Y-98932483D01*
X146656202Y-99067328D01*
X146656206Y-99067335D01*
X146742452Y-99182544D01*
X146742455Y-99182547D01*
X146857664Y-99268793D01*
X146857666Y-99268794D01*
X146857669Y-99268796D01*
X146918833Y-99291608D01*
X146974766Y-99333478D01*
X146999184Y-99398942D01*
X146999500Y-99407790D01*
X146999500Y-100788330D01*
X146999499Y-100788348D01*
X146999499Y-100954054D01*
X146999498Y-100954054D01*
X147009529Y-100991488D01*
X147040423Y-101106785D01*
X147040424Y-101106786D01*
X147054856Y-101131785D01*
X147054857Y-101131786D01*
X147119475Y-101243709D01*
X147119481Y-101243717D01*
X147238349Y-101362585D01*
X147238355Y-101362590D01*
X149590425Y-103714660D01*
X149623910Y-103775983D01*
X149624361Y-103778149D01*
X149655261Y-103933491D01*
X149655264Y-103933501D01*
X149715602Y-104079172D01*
X149715609Y-104079185D01*
X149803602Y-104210874D01*
X149824480Y-104277551D01*
X149824500Y-104279765D01*
X149824500Y-114375902D01*
X149804815Y-114442941D01*
X149752011Y-114488696D01*
X149682853Y-114498640D01*
X149619297Y-114469615D01*
X149612819Y-114463583D01*
X147287590Y-112138355D01*
X147287588Y-112138352D01*
X147168717Y-112019481D01*
X147168716Y-112019480D01*
X147076764Y-111966392D01*
X147031785Y-111940423D01*
X146879057Y-111899499D01*
X146720943Y-111899499D01*
X146713347Y-111899499D01*
X146713331Y-111899500D01*
X141600097Y-111899500D01*
X141533058Y-111879815D01*
X141512416Y-111863181D01*
X141246555Y-111597320D01*
X141213070Y-111535997D01*
X141218054Y-111466305D01*
X141259926Y-111410372D01*
X141325390Y-111385955D01*
X141358426Y-111388021D01*
X141375005Y-111391319D01*
X141421156Y-111400500D01*
X141421158Y-111400500D01*
X141578844Y-111400500D01*
X141578845Y-111400499D01*
X141733497Y-111369737D01*
X141879179Y-111309394D01*
X142010289Y-111221789D01*
X142121789Y-111110289D01*
X142209394Y-110979179D01*
X142269737Y-110833497D01*
X142296311Y-110699903D01*
X142300638Y-110678150D01*
X142333023Y-110616239D01*
X142334519Y-110614715D01*
X145428713Y-107520521D01*
X145428716Y-107520520D01*
X145540520Y-107408716D01*
X145590639Y-107321904D01*
X145619577Y-107271785D01*
X145660500Y-107119058D01*
X145660500Y-106960943D01*
X145660500Y-99407790D01*
X145680185Y-99340751D01*
X145732989Y-99294996D01*
X145741146Y-99291616D01*
X145802331Y-99268796D01*
X145917546Y-99182546D01*
X146003796Y-99067331D01*
X146054091Y-98932483D01*
X146060500Y-98872873D01*
X146060499Y-95627128D01*
X146054091Y-95567517D01*
X146046102Y-95546098D01*
X146003797Y-95432671D01*
X146003793Y-95432664D01*
X145917547Y-95317455D01*
X145917544Y-95317452D01*
X145802335Y-95231206D01*
X145802328Y-95231202D01*
X145741167Y-95208391D01*
X145685233Y-95166520D01*
X145660816Y-95101056D01*
X145660500Y-95092209D01*
X145660500Y-94357790D01*
X145680185Y-94290751D01*
X145732989Y-94244996D01*
X145741146Y-94241616D01*
X145802331Y-94218796D01*
X145917546Y-94132546D01*
X146003796Y-94017331D01*
X146054091Y-93882483D01*
X146060500Y-93822873D01*
X146060499Y-90577128D01*
X146054091Y-90517517D01*
X146054090Y-90517515D01*
X146003797Y-90382671D01*
X146003793Y-90382664D01*
X145917547Y-90267455D01*
X145917544Y-90267452D01*
X145802335Y-90181206D01*
X145802328Y-90181202D01*
X145667482Y-90130908D01*
X145667483Y-90130908D01*
X145607883Y-90124501D01*
X145607881Y-90124500D01*
X145607873Y-90124500D01*
X145607864Y-90124500D01*
X144512129Y-90124500D01*
X144512123Y-90124501D01*
X144452516Y-90130908D01*
X144317671Y-90181202D01*
X144317664Y-90181206D01*
X144202455Y-90267452D01*
X144202452Y-90267455D01*
X144116206Y-90382664D01*
X144116202Y-90382671D01*
X144065908Y-90517517D01*
X144059501Y-90577115D01*
X144059501Y-90577123D01*
X144059500Y-90577135D01*
X144059500Y-93822870D01*
X144059501Y-93822876D01*
X144065908Y-93882483D01*
X144116202Y-94017328D01*
X144116206Y-94017335D01*
X144202452Y-94132544D01*
X144202455Y-94132547D01*
X144317664Y-94218793D01*
X144317669Y-94218796D01*
X144378833Y-94241608D01*
X144434766Y-94283478D01*
X144459184Y-94348942D01*
X144459500Y-94357790D01*
X144459500Y-95092209D01*
X144439815Y-95159248D01*
X144387011Y-95205003D01*
X144378833Y-95208391D01*
X144317671Y-95231202D01*
X144317664Y-95231206D01*
X144202455Y-95317452D01*
X144202452Y-95317455D01*
X144116206Y-95432664D01*
X144116202Y-95432671D01*
X144065908Y-95567517D01*
X144059501Y-95627116D01*
X144059501Y-95627124D01*
X144059500Y-95627135D01*
X144059500Y-98872870D01*
X144059501Y-98872876D01*
X144065908Y-98932483D01*
X144116202Y-99067328D01*
X144116206Y-99067335D01*
X144202452Y-99182544D01*
X144202455Y-99182547D01*
X144317664Y-99268793D01*
X144317666Y-99268794D01*
X144317669Y-99268796D01*
X144378833Y-99291608D01*
X144434766Y-99333478D01*
X144459184Y-99398942D01*
X144459500Y-99407790D01*
X144459500Y-103186526D01*
X144439815Y-103253565D01*
X144387011Y-103299320D01*
X144317853Y-103309264D01*
X144254297Y-103280239D01*
X144232398Y-103255417D01*
X144171789Y-103164711D01*
X144171786Y-103164707D01*
X144060292Y-103053213D01*
X144060288Y-103053210D01*
X143929185Y-102965609D01*
X143929172Y-102965602D01*
X143783501Y-102905264D01*
X143783491Y-102905261D01*
X143628149Y-102874361D01*
X143566238Y-102841976D01*
X143564660Y-102840425D01*
X143156819Y-102432584D01*
X143123334Y-102371261D01*
X143120500Y-102344903D01*
X143120500Y-99407791D01*
X143140185Y-99340752D01*
X143192989Y-99294997D01*
X143201146Y-99291617D01*
X143262331Y-99268797D01*
X143377546Y-99182547D01*
X143463796Y-99067332D01*
X143514091Y-98932484D01*
X143520500Y-98872874D01*
X143520499Y-96257693D01*
X143537113Y-96195692D01*
X143552099Y-96169737D01*
X143559577Y-96156784D01*
X143600501Y-96004057D01*
X143600501Y-95845942D01*
X143600501Y-95838347D01*
X143600500Y-95838329D01*
X143600500Y-95579765D01*
X143620185Y-95512726D01*
X143621398Y-95510874D01*
X143642799Y-95478846D01*
X143709394Y-95379179D01*
X143769737Y-95233497D01*
X143800500Y-95078842D01*
X143800500Y-94921158D01*
X143800500Y-94921155D01*
X143800499Y-94921153D01*
X143792126Y-94879060D01*
X143769737Y-94766503D01*
X143765081Y-94755263D01*
X143709397Y-94620827D01*
X143709390Y-94620814D01*
X143621789Y-94489711D01*
X143621786Y-94489707D01*
X143510292Y-94378213D01*
X143510288Y-94378210D01*
X143407994Y-94309859D01*
X143363189Y-94256247D01*
X143354482Y-94186922D01*
X143377616Y-94132450D01*
X143463796Y-94017330D01*
X143514091Y-93882482D01*
X143520500Y-93822872D01*
X143520499Y-90577127D01*
X143514091Y-90517516D01*
X143504729Y-90492416D01*
X143463797Y-90382670D01*
X143463793Y-90382663D01*
X143377547Y-90267454D01*
X143377544Y-90267451D01*
X143262335Y-90181205D01*
X143262328Y-90181201D01*
X143201167Y-90158390D01*
X143145233Y-90116519D01*
X143120816Y-90051055D01*
X143120500Y-90042208D01*
X143120500Y-89390944D01*
X143120500Y-89390943D01*
X143114544Y-89368716D01*
X143079577Y-89238215D01*
X143037699Y-89165681D01*
X143000520Y-89101284D01*
X142888716Y-88989480D01*
X142888715Y-88989479D01*
X142884385Y-88985149D01*
X142884374Y-88985139D01*
X140834574Y-86935339D01*
X140801089Y-86874016D01*
X140800638Y-86871849D01*
X140769738Y-86716510D01*
X140769738Y-86716508D01*
X140769737Y-86716503D01*
X140755116Y-86681204D01*
X140709397Y-86570827D01*
X140709390Y-86570814D01*
X140621398Y-86439125D01*
X140600520Y-86372447D01*
X140600500Y-86370234D01*
X140600500Y-81179765D01*
X140620185Y-81112726D01*
X140621398Y-81110874D01*
X140709390Y-80979185D01*
X140709390Y-80979184D01*
X140709394Y-80979179D01*
X140769737Y-80833497D01*
X140800500Y-80678842D01*
X140800500Y-80521158D01*
X140800500Y-80521155D01*
X140800499Y-80521153D01*
X140800432Y-80520814D01*
X140769737Y-80366503D01*
X140750955Y-80321158D01*
X140709397Y-80220827D01*
X140709390Y-80220814D01*
X140621789Y-80089711D01*
X140621786Y-80089707D01*
X140510292Y-79978213D01*
X140510288Y-79978210D01*
X140379185Y-79890609D01*
X140379172Y-79890602D01*
X140233501Y-79830264D01*
X140233489Y-79830261D01*
X140078845Y-79799500D01*
X140078842Y-79799500D01*
X139921158Y-79799500D01*
X139921155Y-79799500D01*
X139766510Y-79830261D01*
X139766498Y-79830264D01*
X139620827Y-79890602D01*
X139620814Y-79890609D01*
X139489711Y-79978210D01*
X139489707Y-79978213D01*
X139378213Y-80089707D01*
X139378210Y-80089711D01*
X139290609Y-80220814D01*
X139290602Y-80220827D01*
X139230264Y-80366498D01*
X139230261Y-80366510D01*
X139199500Y-80521153D01*
X139199500Y-80678846D01*
X139230261Y-80833489D01*
X139230264Y-80833501D01*
X139290602Y-80979172D01*
X139290609Y-80979185D01*
X139378602Y-81110874D01*
X139399480Y-81177551D01*
X139399500Y-81179765D01*
X139399500Y-86370234D01*
X139379815Y-86437273D01*
X139378602Y-86439125D01*
X139290609Y-86570814D01*
X139290602Y-86570827D01*
X139230264Y-86716498D01*
X139230261Y-86716510D01*
X139199500Y-86871153D01*
X139199500Y-87028846D01*
X139230261Y-87183489D01*
X139230264Y-87183501D01*
X139290602Y-87329172D01*
X139290609Y-87329185D01*
X139378210Y-87460288D01*
X139378213Y-87460292D01*
X139489707Y-87571786D01*
X139489711Y-87571789D01*
X139620814Y-87659390D01*
X139620827Y-87659397D01*
X139717646Y-87699500D01*
X139766503Y-87719737D01*
X139831147Y-87732595D01*
X139921849Y-87750638D01*
X139983760Y-87783023D01*
X139985339Y-87784574D01*
X141883181Y-89682416D01*
X141916666Y-89743739D01*
X141919500Y-89770097D01*
X141919500Y-90042208D01*
X141899815Y-90109247D01*
X141847011Y-90155002D01*
X141838833Y-90158390D01*
X141777671Y-90181201D01*
X141777664Y-90181205D01*
X141662455Y-90267451D01*
X141662452Y-90267454D01*
X141576206Y-90382663D01*
X141576202Y-90382670D01*
X141525908Y-90517516D01*
X141522014Y-90553739D01*
X141519501Y-90577123D01*
X141519500Y-90577134D01*
X141519500Y-93822869D01*
X141519501Y-93822875D01*
X141525908Y-93882482D01*
X141576202Y-94017327D01*
X141576206Y-94017334D01*
X141662452Y-94132543D01*
X141662455Y-94132546D01*
X141777664Y-94218792D01*
X141777666Y-94218793D01*
X141777669Y-94218795D01*
X141838833Y-94241607D01*
X141856558Y-94254876D01*
X141876703Y-94264076D01*
X141883984Y-94275406D01*
X141894766Y-94283477D01*
X141902504Y-94304225D01*
X141914477Y-94322854D01*
X141917628Y-94344769D01*
X141919184Y-94348941D01*
X141919500Y-94357786D01*
X141919500Y-94508330D01*
X141919499Y-94508348D01*
X141919499Y-94674054D01*
X141919498Y-94674054D01*
X141960424Y-94826789D01*
X141960425Y-94826790D01*
X141983656Y-94867027D01*
X141983668Y-94867047D01*
X141984632Y-94868716D01*
X142039480Y-94963716D01*
X142050165Y-94974401D01*
X142057734Y-94986620D01*
X142063352Y-95007004D01*
X142073484Y-95025558D01*
X142072450Y-95040009D01*
X142076301Y-95053978D01*
X142070008Y-95074160D01*
X142068500Y-95095250D01*
X142059816Y-95106850D01*
X142055504Y-95120680D01*
X142039299Y-95134256D01*
X142026628Y-95151183D01*
X142012427Y-95156770D01*
X142001947Y-95165551D01*
X141984479Y-95167766D01*
X141965573Y-95175206D01*
X141912516Y-95180910D01*
X141777671Y-95231203D01*
X141777664Y-95231207D01*
X141662455Y-95317453D01*
X141662452Y-95317456D01*
X141576206Y-95432665D01*
X141576202Y-95432672D01*
X141525908Y-95567518D01*
X141520009Y-95622396D01*
X141519501Y-95627124D01*
X141519500Y-95627136D01*
X141519500Y-98872871D01*
X141519501Y-98872877D01*
X141525908Y-98932484D01*
X141576202Y-99067329D01*
X141576206Y-99067336D01*
X141662452Y-99182545D01*
X141662455Y-99182548D01*
X141777664Y-99268794D01*
X141777669Y-99268797D01*
X141838833Y-99291609D01*
X141894766Y-99333479D01*
X141919184Y-99398943D01*
X141919500Y-99407791D01*
X141919500Y-102558330D01*
X141919499Y-102558348D01*
X141919499Y-102724054D01*
X141919498Y-102724054D01*
X141960423Y-102876787D01*
X141968403Y-102890607D01*
X141968402Y-102890607D01*
X141968404Y-102890609D01*
X142039475Y-103013709D01*
X142039481Y-103013717D01*
X142158349Y-103132585D01*
X142158355Y-103132590D01*
X142715425Y-103689660D01*
X142748910Y-103750983D01*
X142749361Y-103753149D01*
X142780261Y-103908491D01*
X142780264Y-103908501D01*
X142840602Y-104054172D01*
X142840609Y-104054185D01*
X142928210Y-104185288D01*
X142928213Y-104185292D01*
X143039707Y-104296786D01*
X143039711Y-104296789D01*
X143170814Y-104384390D01*
X143170827Y-104384397D01*
X143269046Y-104425080D01*
X143316503Y-104444737D01*
X143447706Y-104470835D01*
X143471153Y-104475499D01*
X143471156Y-104475500D01*
X143471158Y-104475500D01*
X143628844Y-104475500D01*
X143628845Y-104475499D01*
X143783497Y-104444737D01*
X143929179Y-104384394D01*
X144060289Y-104296789D01*
X144171789Y-104185289D01*
X144214784Y-104120943D01*
X144232398Y-104094582D01*
X144286010Y-104049777D01*
X144355335Y-104041070D01*
X144418363Y-104071224D01*
X144455082Y-104130668D01*
X144459500Y-104163473D01*
X144459500Y-106739903D01*
X144439815Y-106806942D01*
X144423181Y-106827584D01*
X141485339Y-109765425D01*
X141424016Y-109798910D01*
X141421850Y-109799361D01*
X141266508Y-109830261D01*
X141266498Y-109830264D01*
X141120827Y-109890602D01*
X141120814Y-109890609D01*
X140989711Y-109978210D01*
X140989707Y-109978213D01*
X140878213Y-110089707D01*
X140878210Y-110089711D01*
X140790609Y-110220814D01*
X140790602Y-110220827D01*
X140730264Y-110366498D01*
X140730261Y-110366510D01*
X140699500Y-110521153D01*
X140699500Y-110678846D01*
X140711977Y-110741572D01*
X140705750Y-110811164D01*
X140662887Y-110866341D01*
X140596997Y-110889585D01*
X140529000Y-110873517D01*
X140502679Y-110853444D01*
X140436819Y-110787584D01*
X140403334Y-110726261D01*
X140400500Y-110699903D01*
X140400500Y-107879765D01*
X140420185Y-107812726D01*
X140421398Y-107810874D01*
X140509390Y-107679185D01*
X140509390Y-107679184D01*
X140509394Y-107679179D01*
X140569737Y-107533497D01*
X140600500Y-107378842D01*
X140600500Y-107221158D01*
X140600500Y-107221155D01*
X140600499Y-107221153D01*
X140580191Y-107119058D01*
X140569737Y-107066503D01*
X140526013Y-106960943D01*
X140509397Y-106920827D01*
X140509390Y-106920814D01*
X140421789Y-106789711D01*
X140421786Y-106789707D01*
X140310292Y-106678213D01*
X140310288Y-106678210D01*
X140179185Y-106590609D01*
X140179172Y-106590602D01*
X140033501Y-106530264D01*
X140033489Y-106530261D01*
X139878845Y-106499500D01*
X139878842Y-106499500D01*
X139721158Y-106499500D01*
X139721155Y-106499500D01*
X139566510Y-106530261D01*
X139566498Y-106530264D01*
X139420827Y-106590602D01*
X139420814Y-106590609D01*
X139289711Y-106678210D01*
X139289707Y-106678213D01*
X139178213Y-106789707D01*
X139178210Y-106789711D01*
X139090609Y-106920814D01*
X139090602Y-106920827D01*
X139030264Y-107066498D01*
X139030261Y-107066510D01*
X138999500Y-107221153D01*
X138999500Y-107378846D01*
X139030261Y-107533489D01*
X139030264Y-107533501D01*
X139090602Y-107679172D01*
X139090609Y-107679185D01*
X139178602Y-107810874D01*
X139199480Y-107877551D01*
X139199500Y-107879765D01*
X139199500Y-110913330D01*
X139199499Y-110913348D01*
X139199499Y-111079054D01*
X139199498Y-111079054D01*
X139240423Y-111231786D01*
X139240424Y-111231787D01*
X139256363Y-111259394D01*
X139308962Y-111350499D01*
X139319481Y-111368717D01*
X139438349Y-111487585D01*
X139438355Y-111487590D01*
X140815139Y-112864374D01*
X140815149Y-112864385D01*
X140819479Y-112868715D01*
X140819480Y-112868716D01*
X140931284Y-112980520D01*
X140931286Y-112980521D01*
X140931290Y-112980524D01*
X141029497Y-113037223D01*
X141068216Y-113059577D01*
X141180019Y-113089534D01*
X141220942Y-113100500D01*
X141220943Y-113100500D01*
X146499903Y-113100500D01*
X146566942Y-113120185D01*
X146587583Y-113136818D01*
X152531284Y-119080520D01*
X152531286Y-119080521D01*
X152531290Y-119080524D01*
X152668209Y-119159573D01*
X152668212Y-119159575D01*
X152668216Y-119159577D01*
X152820943Y-119200501D01*
X152820945Y-119200501D01*
X152986654Y-119200501D01*
X152986670Y-119200500D01*
X155513331Y-119200500D01*
X155513347Y-119200501D01*
X155520943Y-119200501D01*
X155679054Y-119200501D01*
X155679057Y-119200501D01*
X155831785Y-119159577D01*
X155886244Y-119128135D01*
X155886245Y-119128135D01*
X155968709Y-119080524D01*
X155968708Y-119080524D01*
X155968716Y-119080520D01*
X156080520Y-118968716D01*
X156080520Y-118968714D01*
X156090724Y-118958511D01*
X156090728Y-118958506D01*
X156758506Y-118290728D01*
X156758511Y-118290724D01*
X156768714Y-118280520D01*
X156768716Y-118280520D01*
X156880520Y-118168716D01*
X156934916Y-118074499D01*
X156959577Y-118031785D01*
X157000501Y-117879057D01*
X157000501Y-117720943D01*
X157000501Y-117713348D01*
X157000500Y-117713330D01*
X157000500Y-115624097D01*
X157020185Y-115557058D01*
X157072989Y-115511303D01*
X157142147Y-115501359D01*
X157205703Y-115530384D01*
X157212181Y-115536416D01*
X160168796Y-118493031D01*
X160202281Y-118554354D01*
X160202733Y-118604899D01*
X160199500Y-118621153D01*
X160199500Y-118778846D01*
X160230261Y-118933489D01*
X160230264Y-118933501D01*
X160290602Y-119079172D01*
X160290609Y-119079185D01*
X160378210Y-119210288D01*
X160378213Y-119210292D01*
X160489707Y-119321786D01*
X160489711Y-119321789D01*
X160620814Y-119409390D01*
X160620827Y-119409397D01*
X160745262Y-119460939D01*
X160799666Y-119504779D01*
X160821731Y-119571074D01*
X160804452Y-119638773D01*
X160753315Y-119686384D01*
X160697810Y-119699500D01*
X153416134Y-119699500D01*
X153408529Y-119699499D01*
X153408526Y-119699499D01*
X153378266Y-119699499D01*
X153346109Y-119699499D01*
X153346108Y-119699498D01*
X153339160Y-119699304D01*
X153069727Y-119684177D01*
X153055909Y-119682620D01*
X152793306Y-119638005D01*
X152779749Y-119634911D01*
X152523791Y-119561174D01*
X152510666Y-119556582D01*
X152264571Y-119454650D01*
X152252042Y-119448617D01*
X152018896Y-119319766D01*
X152007122Y-119312367D01*
X151789892Y-119158237D01*
X151779020Y-119149568D01*
X151578174Y-118970085D01*
X151573119Y-118965305D01*
X147686250Y-115078436D01*
X147679178Y-115071364D01*
X147679177Y-115071362D01*
X147668294Y-115060479D01*
X147668244Y-115060388D01*
X147511006Y-114903153D01*
X147510997Y-114903145D01*
X147281333Y-114714669D01*
X147245132Y-114684960D01*
X147245130Y-114684958D01*
X147245127Y-114684956D01*
X146959156Y-114493880D01*
X146959150Y-114493877D01*
X146655825Y-114331751D01*
X146655821Y-114331750D01*
X146338075Y-114200139D01*
X146338067Y-114200136D01*
X146008943Y-114100301D01*
X146008937Y-114100300D01*
X145839016Y-114066503D01*
X145671605Y-114033205D01*
X145671601Y-114033204D01*
X145671598Y-114033204D01*
X145671589Y-114033203D01*
X145469810Y-114013332D01*
X145329322Y-113999497D01*
X145329319Y-113999497D01*
X145157352Y-113999500D01*
X121906941Y-113999500D01*
X121839902Y-113979815D01*
X121794147Y-113927011D01*
X121784203Y-113857853D01*
X121813228Y-113794297D01*
X121819260Y-113787819D01*
X121871786Y-113735292D01*
X121871789Y-113735289D01*
X121959394Y-113604179D01*
X122019737Y-113458497D01*
X122050500Y-113303842D01*
X122050500Y-113146158D01*
X122050500Y-113146155D01*
X122050499Y-113146153D01*
X122033278Y-113059577D01*
X122019737Y-112991503D01*
X121990069Y-112919878D01*
X121959397Y-112845827D01*
X121959390Y-112845814D01*
X121871789Y-112714711D01*
X121871786Y-112714707D01*
X121760292Y-112603213D01*
X121760288Y-112603210D01*
X121629185Y-112515609D01*
X121629169Y-112515601D01*
X121627038Y-112514718D01*
X121626094Y-112513957D01*
X121623809Y-112512736D01*
X121624040Y-112512302D01*
X121572638Y-112470873D01*
X121550579Y-112404577D01*
X121550500Y-112400161D01*
X121550500Y-104229765D01*
X121570185Y-104162726D01*
X121571398Y-104160874D01*
X121575868Y-104154185D01*
X121659394Y-104029179D01*
X121719737Y-103883497D01*
X121746543Y-103748735D01*
X121750638Y-103728150D01*
X121783023Y-103666239D01*
X121784519Y-103664715D01*
X125098506Y-100350727D01*
X125098511Y-100350724D01*
X125108714Y-100340520D01*
X125108716Y-100340520D01*
X125220520Y-100228716D01*
X125299577Y-100091784D01*
X125340500Y-99939057D01*
X125340500Y-99407790D01*
X125360185Y-99340751D01*
X125412989Y-99294996D01*
X125421146Y-99291616D01*
X125482331Y-99268796D01*
X125597546Y-99182546D01*
X125683796Y-99067331D01*
X125734091Y-98932483D01*
X125740500Y-98872873D01*
X125740499Y-95627128D01*
X125734091Y-95567517D01*
X125726102Y-95546098D01*
X125683797Y-95432671D01*
X125683793Y-95432664D01*
X125597547Y-95317455D01*
X125597544Y-95317452D01*
X125482335Y-95231206D01*
X125482328Y-95231202D01*
X125421167Y-95208391D01*
X125403440Y-95195121D01*
X125383297Y-95185922D01*
X125376015Y-95174591D01*
X125365233Y-95166520D01*
X125357494Y-95145771D01*
X125345523Y-95127144D01*
X125342371Y-95105227D01*
X125340816Y-95101056D01*
X125340500Y-95092209D01*
X125340500Y-94889059D01*
X125340501Y-94889046D01*
X125340501Y-94713347D01*
X125340500Y-94713329D01*
X125340500Y-94357790D01*
X125360185Y-94290751D01*
X125412989Y-94244996D01*
X125421146Y-94241616D01*
X125482331Y-94218796D01*
X125597546Y-94132546D01*
X125683796Y-94017331D01*
X125734091Y-93882483D01*
X125740500Y-93822873D01*
X125740499Y-90577128D01*
X125734091Y-90517517D01*
X125734090Y-90517515D01*
X125683797Y-90382671D01*
X125683793Y-90382664D01*
X125597547Y-90267455D01*
X125597544Y-90267452D01*
X125482335Y-90181206D01*
X125482328Y-90181202D01*
X125347482Y-90130908D01*
X125347483Y-90130908D01*
X125287883Y-90124501D01*
X125287881Y-90124500D01*
X125287873Y-90124500D01*
X125287864Y-90124500D01*
X124192129Y-90124500D01*
X124192123Y-90124501D01*
X124132516Y-90130908D01*
X123997671Y-90181202D01*
X123997664Y-90181206D01*
X123882455Y-90267452D01*
X123882452Y-90267455D01*
X123796206Y-90382664D01*
X123796203Y-90382669D01*
X123778250Y-90430805D01*
X123736378Y-90486738D01*
X123670914Y-90511155D01*
X123602641Y-90496303D01*
X123574387Y-90475152D01*
X120234574Y-87135339D01*
X120201089Y-87074016D01*
X120200638Y-87071849D01*
X120174495Y-86940423D01*
X120169737Y-86916503D01*
X120157758Y-86887583D01*
X120109397Y-86770827D01*
X120109390Y-86770814D01*
X120021398Y-86639125D01*
X120000520Y-86572447D01*
X120000500Y-86570234D01*
X120000500Y-84221153D01*
X123499500Y-84221153D01*
X123499500Y-84378846D01*
X123530261Y-84533489D01*
X123530264Y-84533501D01*
X123590602Y-84679172D01*
X123590609Y-84679185D01*
X123678602Y-84810874D01*
X123699480Y-84877551D01*
X123699500Y-84879765D01*
X123699500Y-87613330D01*
X123699499Y-87613348D01*
X123699499Y-87779054D01*
X123699498Y-87779054D01*
X123740423Y-87931786D01*
X123740424Y-87931787D01*
X123768560Y-87980520D01*
X123819480Y-88068716D01*
X123819482Y-88068718D01*
X123938349Y-88187585D01*
X123938355Y-88187590D01*
X126243181Y-90492416D01*
X126276666Y-90553739D01*
X126279500Y-90580097D01*
X126279500Y-93822870D01*
X126279501Y-93822876D01*
X126285908Y-93882483D01*
X126336202Y-94017328D01*
X126336206Y-94017335D01*
X126422452Y-94132544D01*
X126422455Y-94132547D01*
X126537664Y-94218793D01*
X126537669Y-94218796D01*
X126598833Y-94241608D01*
X126654766Y-94283478D01*
X126679184Y-94348942D01*
X126679500Y-94357790D01*
X126679500Y-95092209D01*
X126659815Y-95159248D01*
X126607011Y-95205003D01*
X126598833Y-95208391D01*
X126537671Y-95231202D01*
X126537664Y-95231206D01*
X126422455Y-95317452D01*
X126422452Y-95317455D01*
X126336206Y-95432664D01*
X126336202Y-95432671D01*
X126285908Y-95567517D01*
X126279501Y-95627116D01*
X126279501Y-95627124D01*
X126279500Y-95627135D01*
X126279500Y-98872870D01*
X126279501Y-98872876D01*
X126285908Y-98932483D01*
X126336202Y-99067328D01*
X126336206Y-99067335D01*
X126422452Y-99182544D01*
X126422455Y-99182547D01*
X126537664Y-99268793D01*
X126537671Y-99268797D01*
X126672517Y-99319091D01*
X126672516Y-99319091D01*
X126677753Y-99319654D01*
X126732127Y-99325500D01*
X127827872Y-99325499D01*
X127887483Y-99319091D01*
X128022331Y-99268796D01*
X128137546Y-99182546D01*
X128223796Y-99067331D01*
X128274091Y-98932483D01*
X128280500Y-98872873D01*
X128280499Y-95627128D01*
X128274091Y-95567517D01*
X128266102Y-95546098D01*
X128223797Y-95432671D01*
X128223793Y-95432664D01*
X128137547Y-95317455D01*
X128137544Y-95317452D01*
X128022335Y-95231206D01*
X128022328Y-95231202D01*
X127961167Y-95208391D01*
X127905233Y-95166520D01*
X127880816Y-95101056D01*
X127880500Y-95092209D01*
X127880500Y-94357790D01*
X127900185Y-94290751D01*
X127952989Y-94244996D01*
X127961146Y-94241616D01*
X128022331Y-94218796D01*
X128137546Y-94132546D01*
X128223796Y-94017331D01*
X128274091Y-93882483D01*
X128280500Y-93822873D01*
X128280499Y-90577128D01*
X128274091Y-90517517D01*
X128274090Y-90517515D01*
X128223797Y-90382671D01*
X128223793Y-90382664D01*
X128137547Y-90267455D01*
X128137544Y-90267452D01*
X128022335Y-90181206D01*
X128022328Y-90181202D01*
X127887482Y-90130908D01*
X127887483Y-90130908D01*
X127827883Y-90124501D01*
X127827881Y-90124500D01*
X127827873Y-90124500D01*
X127827865Y-90124500D01*
X127625097Y-90124500D01*
X127558058Y-90104815D01*
X127537416Y-90088181D01*
X124936819Y-87487584D01*
X124903334Y-87426261D01*
X124900500Y-87399903D01*
X124900500Y-84879765D01*
X124920185Y-84812726D01*
X124921398Y-84810874D01*
X125009390Y-84679185D01*
X125009390Y-84679184D01*
X125009394Y-84679179D01*
X125069737Y-84533497D01*
X125100500Y-84378842D01*
X125100500Y-84221158D01*
X125100500Y-84221155D01*
X125100499Y-84221153D01*
X125069738Y-84066510D01*
X125069737Y-84066503D01*
X125069735Y-84066498D01*
X125009397Y-83920827D01*
X125009390Y-83920814D01*
X124921789Y-83789711D01*
X124921786Y-83789707D01*
X124810292Y-83678213D01*
X124810288Y-83678210D01*
X124679185Y-83590609D01*
X124679172Y-83590602D01*
X124533501Y-83530264D01*
X124533489Y-83530261D01*
X124378845Y-83499500D01*
X124378842Y-83499500D01*
X124221158Y-83499500D01*
X124221155Y-83499500D01*
X124066510Y-83530261D01*
X124066498Y-83530264D01*
X123920827Y-83590602D01*
X123920814Y-83590609D01*
X123789711Y-83678210D01*
X123789707Y-83678213D01*
X123678213Y-83789707D01*
X123678210Y-83789711D01*
X123590609Y-83920814D01*
X123590602Y-83920827D01*
X123530264Y-84066498D01*
X123530261Y-84066510D01*
X123499500Y-84221153D01*
X120000500Y-84221153D01*
X120000500Y-80825316D01*
X120009939Y-80777864D01*
X120038478Y-80708963D01*
X120069737Y-80633497D01*
X120100500Y-80478842D01*
X120100500Y-80321158D01*
X120100500Y-80321155D01*
X120084209Y-80239258D01*
X120084209Y-80239257D01*
X120080608Y-80221153D01*
X125299500Y-80221153D01*
X125299500Y-80378846D01*
X125330261Y-80533489D01*
X125330264Y-80533501D01*
X125390602Y-80679172D01*
X125390609Y-80679185D01*
X125478210Y-80810288D01*
X125478213Y-80810292D01*
X125588181Y-80920260D01*
X125621666Y-80981583D01*
X125624500Y-81007941D01*
X125624500Y-86445234D01*
X125604815Y-86512273D01*
X125603602Y-86514125D01*
X125515609Y-86645814D01*
X125515602Y-86645827D01*
X125455264Y-86791498D01*
X125455261Y-86791510D01*
X125424500Y-86946153D01*
X125424500Y-87103846D01*
X125455261Y-87258489D01*
X125455264Y-87258501D01*
X125515602Y-87404172D01*
X125515609Y-87404185D01*
X125603210Y-87535288D01*
X125603213Y-87535292D01*
X125714707Y-87646786D01*
X125714711Y-87646789D01*
X125845814Y-87734390D01*
X125845827Y-87734397D01*
X125966967Y-87784574D01*
X125991503Y-87794737D01*
X126056147Y-87807595D01*
X126146849Y-87825638D01*
X126208760Y-87858023D01*
X126210339Y-87859574D01*
X128788072Y-90437307D01*
X128821557Y-90498630D01*
X128823680Y-90538240D01*
X128819500Y-90577127D01*
X128819500Y-90577128D01*
X128819500Y-90577132D01*
X128819500Y-93822870D01*
X128819501Y-93822876D01*
X128825908Y-93882483D01*
X128876202Y-94017328D01*
X128876206Y-94017335D01*
X128962452Y-94132544D01*
X128962455Y-94132547D01*
X129032191Y-94184752D01*
X129074062Y-94240686D01*
X129079046Y-94310377D01*
X129060983Y-94352908D01*
X129015608Y-94420816D01*
X129015602Y-94420827D01*
X128955264Y-94566498D01*
X128955261Y-94566510D01*
X128924500Y-94721153D01*
X128924500Y-94878846D01*
X128955261Y-95033489D01*
X128955264Y-95033501D01*
X129009882Y-95165361D01*
X129017351Y-95234830D01*
X128986076Y-95297309D01*
X128969634Y-95312078D01*
X128962459Y-95317449D01*
X128962451Y-95317457D01*
X128876206Y-95432664D01*
X128876202Y-95432671D01*
X128825908Y-95567517D01*
X128819501Y-95627116D01*
X128819501Y-95627124D01*
X128819500Y-95627135D01*
X128819500Y-98872870D01*
X128819501Y-98872876D01*
X128825908Y-98932483D01*
X128876202Y-99067328D01*
X128876206Y-99067335D01*
X128920041Y-99125890D01*
X128962454Y-99182546D01*
X129074811Y-99266657D01*
X129116682Y-99322590D01*
X129124500Y-99365923D01*
X129124500Y-102917059D01*
X129104815Y-102984098D01*
X129088181Y-103004740D01*
X129053213Y-103039707D01*
X129053210Y-103039711D01*
X128965609Y-103170814D01*
X128965602Y-103170827D01*
X128905264Y-103316498D01*
X128905261Y-103316510D01*
X128874500Y-103471153D01*
X128874500Y-103628846D01*
X128905261Y-103783489D01*
X128905264Y-103783501D01*
X128965602Y-103929172D01*
X128965609Y-103929185D01*
X129053602Y-104060874D01*
X129074480Y-104127551D01*
X129074500Y-104129765D01*
X129074500Y-112057650D01*
X129054815Y-112124689D01*
X129053626Y-112126503D01*
X129050431Y-112131286D01*
X128990609Y-112220815D01*
X128990602Y-112220828D01*
X128930264Y-112366498D01*
X128930261Y-112366510D01*
X128899500Y-112521153D01*
X128899500Y-112678846D01*
X128930261Y-112833489D01*
X128930264Y-112833501D01*
X128990602Y-112979172D01*
X128990609Y-112979185D01*
X129078210Y-113110288D01*
X129078213Y-113110292D01*
X129189707Y-113221786D01*
X129189711Y-113221789D01*
X129320814Y-113309390D01*
X129320827Y-113309397D01*
X129466498Y-113369735D01*
X129466503Y-113369737D01*
X129621153Y-113400499D01*
X129621156Y-113400500D01*
X129621158Y-113400500D01*
X129778844Y-113400500D01*
X129778845Y-113400499D01*
X129933497Y-113369737D01*
X130079179Y-113309394D01*
X130210289Y-113221789D01*
X130321789Y-113110289D01*
X130409394Y-112979179D01*
X130469737Y-112833497D01*
X130500500Y-112678842D01*
X130500500Y-112521158D01*
X130500500Y-112521155D01*
X130500499Y-112521153D01*
X130492913Y-112483016D01*
X130469737Y-112366503D01*
X130409397Y-112220828D01*
X130409397Y-112220827D01*
X130409390Y-112220814D01*
X130321789Y-112089711D01*
X130321786Y-112089707D01*
X130311819Y-112079740D01*
X130278334Y-112018417D01*
X130275500Y-111992059D01*
X130275500Y-104129765D01*
X130295185Y-104062726D01*
X130296398Y-104060874D01*
X130300868Y-104054185D01*
X130384394Y-103929179D01*
X130444737Y-103783497D01*
X130475500Y-103628842D01*
X130475500Y-103471158D01*
X130475500Y-103471155D01*
X130475499Y-103471153D01*
X130464627Y-103416498D01*
X130444737Y-103316503D01*
X130419435Y-103255417D01*
X130384397Y-103170828D01*
X130384396Y-103170827D01*
X130384394Y-103170821D01*
X130346396Y-103113953D01*
X130325520Y-103047276D01*
X130325500Y-103045064D01*
X130325500Y-99441303D01*
X130345185Y-99374264D01*
X130397989Y-99328509D01*
X130420989Y-99320625D01*
X130427472Y-99319092D01*
X130427483Y-99319091D01*
X130562331Y-99268796D01*
X130677546Y-99182546D01*
X130763796Y-99067331D01*
X130814091Y-98932483D01*
X130820500Y-98872873D01*
X130820499Y-95627128D01*
X130814091Y-95567517D01*
X130806102Y-95546098D01*
X130763797Y-95432671D01*
X130763793Y-95432664D01*
X130677547Y-95317455D01*
X130677544Y-95317452D01*
X130562335Y-95231206D01*
X130562328Y-95231202D01*
X130553254Y-95227818D01*
X130497320Y-95185947D01*
X130472903Y-95120482D01*
X130482025Y-95064185D01*
X130494737Y-95033497D01*
X130525500Y-94878842D01*
X130525500Y-94721158D01*
X130525500Y-94721155D01*
X130525499Y-94721153D01*
X130505734Y-94621789D01*
X130494737Y-94566503D01*
X130434394Y-94420821D01*
X130434390Y-94420816D01*
X130432478Y-94417236D01*
X130418237Y-94348834D01*
X130443238Y-94283590D01*
X130498504Y-94242602D01*
X130561261Y-94219195D01*
X130562331Y-94218796D01*
X130677546Y-94132546D01*
X130763796Y-94017331D01*
X130814091Y-93882483D01*
X130820500Y-93822873D01*
X130820499Y-90577128D01*
X130814091Y-90517517D01*
X130814090Y-90517515D01*
X130763797Y-90382671D01*
X130763793Y-90382664D01*
X130677547Y-90267455D01*
X130677544Y-90267452D01*
X130562335Y-90181206D01*
X130562328Y-90181202D01*
X130427482Y-90130908D01*
X130427483Y-90130908D01*
X130367883Y-90124501D01*
X130367881Y-90124500D01*
X130367873Y-90124500D01*
X130367865Y-90124500D01*
X130225098Y-90124500D01*
X130195661Y-90115856D01*
X130165672Y-90109333D01*
X130160655Y-90105577D01*
X130158059Y-90104815D01*
X130137418Y-90088182D01*
X130114566Y-90065330D01*
X130093716Y-90044480D01*
X130093713Y-90044478D01*
X127059574Y-87010339D01*
X127026089Y-86949016D01*
X127025638Y-86946849D01*
X127001800Y-86827011D01*
X126994737Y-86791503D01*
X126986170Y-86770821D01*
X126934397Y-86645827D01*
X126934390Y-86645814D01*
X126846398Y-86514125D01*
X126825520Y-86447447D01*
X126825500Y-86445234D01*
X126825500Y-85621153D01*
X128999500Y-85621153D01*
X128999500Y-85778846D01*
X129030261Y-85933489D01*
X129030264Y-85933501D01*
X129090602Y-86079172D01*
X129090609Y-86079185D01*
X129178602Y-86210874D01*
X129199480Y-86277551D01*
X129199500Y-86279765D01*
X129199500Y-87013330D01*
X129199499Y-87013348D01*
X129199499Y-87179054D01*
X129199498Y-87179054D01*
X129212839Y-87228842D01*
X129240423Y-87331785D01*
X129254127Y-87355520D01*
X129287155Y-87412726D01*
X129319479Y-87468715D01*
X129438349Y-87587585D01*
X129438355Y-87587590D01*
X131723181Y-89872416D01*
X131737884Y-89899343D01*
X131754477Y-89925162D01*
X131755368Y-89931362D01*
X131756666Y-89933739D01*
X131759500Y-89960097D01*
X131759500Y-90042208D01*
X131739815Y-90109247D01*
X131687011Y-90155002D01*
X131678833Y-90158390D01*
X131617671Y-90181201D01*
X131617664Y-90181205D01*
X131502455Y-90267451D01*
X131502452Y-90267454D01*
X131416206Y-90382663D01*
X131416202Y-90382670D01*
X131365908Y-90517516D01*
X131362014Y-90553739D01*
X131359501Y-90577123D01*
X131359500Y-90577134D01*
X131359500Y-93822869D01*
X131359501Y-93822875D01*
X131365908Y-93882482D01*
X131416202Y-94017327D01*
X131416206Y-94017334D01*
X131502452Y-94132543D01*
X131502455Y-94132546D01*
X131617664Y-94218792D01*
X131617666Y-94218793D01*
X131617669Y-94218795D01*
X131678833Y-94241607D01*
X131734766Y-94283477D01*
X131759184Y-94348941D01*
X131759500Y-94357789D01*
X131759500Y-95092210D01*
X131739815Y-95159249D01*
X131687011Y-95205004D01*
X131678833Y-95208392D01*
X131617671Y-95231203D01*
X131617664Y-95231207D01*
X131502455Y-95317453D01*
X131502452Y-95317456D01*
X131416206Y-95432665D01*
X131416202Y-95432672D01*
X131365908Y-95567518D01*
X131360009Y-95622396D01*
X131359501Y-95627124D01*
X131359500Y-95627136D01*
X131359500Y-98872871D01*
X131359501Y-98872877D01*
X131365908Y-98932484D01*
X131416202Y-99067329D01*
X131416206Y-99067336D01*
X131502452Y-99182545D01*
X131502455Y-99182548D01*
X131617664Y-99268794D01*
X131617671Y-99268798D01*
X131752517Y-99319092D01*
X131752516Y-99319092D01*
X131757744Y-99319654D01*
X131812127Y-99325501D01*
X132907872Y-99325500D01*
X132967483Y-99319092D01*
X133102331Y-99268797D01*
X133217546Y-99182547D01*
X133303796Y-99067332D01*
X133354091Y-98932484D01*
X133360500Y-98872874D01*
X133360499Y-95627129D01*
X133354091Y-95567518D01*
X133354090Y-95567516D01*
X133303797Y-95432672D01*
X133303793Y-95432665D01*
X133217547Y-95317456D01*
X133217544Y-95317453D01*
X133102335Y-95231207D01*
X133102328Y-95231203D01*
X133041167Y-95208392D01*
X132985233Y-95166521D01*
X132960816Y-95101057D01*
X132960500Y-95092210D01*
X132960500Y-94357789D01*
X132980185Y-94290750D01*
X133032989Y-94244995D01*
X133041146Y-94241615D01*
X133102331Y-94218795D01*
X133217546Y-94132545D01*
X133303796Y-94017330D01*
X133354091Y-93882482D01*
X133360500Y-93822872D01*
X133360499Y-90577127D01*
X133354091Y-90517516D01*
X133344729Y-90492416D01*
X133303797Y-90382670D01*
X133303793Y-90382663D01*
X133217547Y-90267454D01*
X133217544Y-90267451D01*
X133102335Y-90181205D01*
X133102328Y-90181201D01*
X133041167Y-90158390D01*
X132985233Y-90116519D01*
X132960816Y-90051055D01*
X132960500Y-90042208D01*
X132960500Y-89749060D01*
X132960501Y-89749047D01*
X132960501Y-89580944D01*
X132957361Y-89569224D01*
X132919577Y-89428216D01*
X132889879Y-89376777D01*
X132840524Y-89291290D01*
X132840518Y-89291282D01*
X130436819Y-86887583D01*
X130403334Y-86826260D01*
X130400500Y-86799902D01*
X130400500Y-86279765D01*
X130420185Y-86212726D01*
X130421398Y-86210874D01*
X130509390Y-86079185D01*
X130509390Y-86079184D01*
X130509394Y-86079179D01*
X130569737Y-85933497D01*
X130600500Y-85778842D01*
X130600500Y-85621158D01*
X130600500Y-85621155D01*
X130600499Y-85621153D01*
X130569738Y-85466510D01*
X130569737Y-85466503D01*
X130569735Y-85466498D01*
X130509397Y-85320827D01*
X130509390Y-85320814D01*
X130421789Y-85189711D01*
X130421786Y-85189707D01*
X130310292Y-85078213D01*
X130310288Y-85078210D01*
X130179185Y-84990609D01*
X130179172Y-84990602D01*
X130033501Y-84930264D01*
X130033489Y-84930261D01*
X129878845Y-84899500D01*
X129878842Y-84899500D01*
X129721158Y-84899500D01*
X129721155Y-84899500D01*
X129566510Y-84930261D01*
X129566498Y-84930264D01*
X129420827Y-84990602D01*
X129420814Y-84990609D01*
X129289711Y-85078210D01*
X129289707Y-85078213D01*
X129178213Y-85189707D01*
X129178210Y-85189711D01*
X129090609Y-85320814D01*
X129090602Y-85320827D01*
X129030264Y-85466498D01*
X129030261Y-85466510D01*
X128999500Y-85621153D01*
X126825500Y-85621153D01*
X126825500Y-80664960D01*
X126834939Y-80617508D01*
X126856063Y-80566510D01*
X126869737Y-80533497D01*
X126900500Y-80378842D01*
X126900500Y-80321153D01*
X132249500Y-80321153D01*
X132249500Y-80478846D01*
X132280261Y-80633489D01*
X132280264Y-80633501D01*
X132340602Y-80779172D01*
X132340609Y-80779185D01*
X132428602Y-80910874D01*
X132449480Y-80977551D01*
X132449500Y-80979765D01*
X132449500Y-86474684D01*
X132440061Y-86522136D01*
X132380264Y-86666498D01*
X132380261Y-86666510D01*
X132349500Y-86821153D01*
X132349500Y-86978846D01*
X132380261Y-87133489D01*
X132380264Y-87133501D01*
X132440602Y-87279172D01*
X132440609Y-87279185D01*
X132528602Y-87410874D01*
X132549480Y-87477551D01*
X132549500Y-87479765D01*
X132549500Y-88263330D01*
X132549499Y-88263348D01*
X132549499Y-88429054D01*
X132549498Y-88429054D01*
X132590423Y-88581785D01*
X132619000Y-88631280D01*
X132619001Y-88631284D01*
X132619002Y-88631284D01*
X132668680Y-88717331D01*
X132669479Y-88718714D01*
X132669481Y-88718717D01*
X132788349Y-88837585D01*
X132788355Y-88837590D01*
X134042655Y-90091890D01*
X134076140Y-90153213D01*
X134071156Y-90222905D01*
X134047310Y-90260012D01*
X134047768Y-90260355D01*
X134042976Y-90266755D01*
X134042662Y-90267245D01*
X134042455Y-90267451D01*
X133956206Y-90382664D01*
X133956202Y-90382671D01*
X133905908Y-90517517D01*
X133899501Y-90577115D01*
X133899501Y-90577123D01*
X133899500Y-90577135D01*
X133899500Y-93822870D01*
X133899501Y-93822876D01*
X133905908Y-93882483D01*
X133956202Y-94017328D01*
X133956206Y-94017335D01*
X134042452Y-94132544D01*
X134042455Y-94132547D01*
X134157664Y-94218793D01*
X134157669Y-94218796D01*
X134218833Y-94241608D01*
X134274766Y-94283478D01*
X134299184Y-94348942D01*
X134299500Y-94357786D01*
X134299500Y-94920939D01*
X134299499Y-94920943D01*
X134299499Y-95079057D01*
X134299500Y-95079060D01*
X134299500Y-95092209D01*
X134279815Y-95159248D01*
X134227011Y-95205003D01*
X134218833Y-95208391D01*
X134157671Y-95231202D01*
X134157664Y-95231206D01*
X134042455Y-95317452D01*
X134042452Y-95317455D01*
X133956206Y-95432664D01*
X133956202Y-95432671D01*
X133905908Y-95567517D01*
X133899501Y-95627116D01*
X133899501Y-95627124D01*
X133899500Y-95627135D01*
X133899500Y-98872870D01*
X133899501Y-98872876D01*
X133905908Y-98932483D01*
X133956202Y-99067328D01*
X133956206Y-99067335D01*
X134042452Y-99182544D01*
X134042455Y-99182547D01*
X134157664Y-99268793D01*
X134157666Y-99268794D01*
X134157669Y-99268796D01*
X134218833Y-99291608D01*
X134274766Y-99333478D01*
X134299184Y-99398942D01*
X134299500Y-99407790D01*
X134299500Y-102063330D01*
X134299499Y-102063348D01*
X134299499Y-102229054D01*
X134299498Y-102229054D01*
X134324346Y-102321786D01*
X134340423Y-102381785D01*
X134356363Y-102409394D01*
X134369358Y-102431900D01*
X134369359Y-102431904D01*
X134369360Y-102431904D01*
X134391202Y-102469737D01*
X134419479Y-102518714D01*
X134419481Y-102518717D01*
X134538349Y-102637585D01*
X134538355Y-102637590D01*
X135690425Y-103789660D01*
X135723910Y-103850983D01*
X135724361Y-103853149D01*
X135755261Y-104008491D01*
X135755264Y-104008501D01*
X135815602Y-104154172D01*
X135815609Y-104154185D01*
X135903210Y-104285288D01*
X135903213Y-104285292D01*
X136014707Y-104396786D01*
X136014711Y-104396789D01*
X136145814Y-104484390D01*
X136145827Y-104484397D01*
X136274934Y-104537874D01*
X136291503Y-104544737D01*
X136446153Y-104575499D01*
X136446156Y-104575500D01*
X136446158Y-104575500D01*
X136603844Y-104575500D01*
X136603845Y-104575499D01*
X136758497Y-104544737D01*
X136904179Y-104484394D01*
X137035289Y-104396789D01*
X137146789Y-104285289D01*
X137234394Y-104154179D01*
X137294737Y-104008497D01*
X137325500Y-103853842D01*
X137325500Y-103696158D01*
X137325500Y-103696155D01*
X137325499Y-103696153D01*
X137319235Y-103664660D01*
X137294737Y-103541503D01*
X137275955Y-103496158D01*
X137234397Y-103395827D01*
X137234390Y-103395814D01*
X137146789Y-103264711D01*
X137146786Y-103264707D01*
X137035292Y-103153213D01*
X137035288Y-103153210D01*
X136904185Y-103065609D01*
X136904172Y-103065602D01*
X136758501Y-103005264D01*
X136758491Y-103005261D01*
X136603149Y-102974361D01*
X136541238Y-102941976D01*
X136539660Y-102940425D01*
X135536819Y-101937584D01*
X135503334Y-101876261D01*
X135500500Y-101849903D01*
X135500500Y-99407790D01*
X135520185Y-99340751D01*
X135572989Y-99294996D01*
X135581146Y-99291616D01*
X135642331Y-99268796D01*
X135757546Y-99182546D01*
X135843796Y-99067331D01*
X135894091Y-98932483D01*
X135900500Y-98872873D01*
X135900499Y-95745133D01*
X135920184Y-95678095D01*
X135972988Y-95632340D01*
X136042146Y-95622396D01*
X136071951Y-95630573D01*
X136166498Y-95669735D01*
X136166503Y-95669737D01*
X136321158Y-95700500D01*
X136321163Y-95700500D01*
X136327218Y-95701097D01*
X136326945Y-95703860D01*
X136382539Y-95720185D01*
X136428294Y-95772989D01*
X136439500Y-95824500D01*
X136439500Y-98872870D01*
X136439501Y-98872876D01*
X136445908Y-98932483D01*
X136496202Y-99067328D01*
X136496206Y-99067335D01*
X136582452Y-99182544D01*
X136582453Y-99182544D01*
X136582454Y-99182546D01*
X136597676Y-99193941D01*
X136631615Y-99219348D01*
X136673485Y-99275282D01*
X136678469Y-99344974D01*
X136671865Y-99366066D01*
X136630261Y-99466507D01*
X136630261Y-99466510D01*
X136599500Y-99621153D01*
X136599500Y-99778846D01*
X136630261Y-99933489D01*
X136630264Y-99933501D01*
X136690602Y-100079172D01*
X136690609Y-100079185D01*
X136778210Y-100210288D01*
X136778213Y-100210292D01*
X136889707Y-100321786D01*
X136889711Y-100321789D01*
X137020814Y-100409390D01*
X137020827Y-100409397D01*
X137145272Y-100460943D01*
X137166503Y-100469737D01*
X137321153Y-100500499D01*
X137321156Y-100500500D01*
X137321158Y-100500500D01*
X137478844Y-100500500D01*
X137478845Y-100500499D01*
X137633497Y-100469737D01*
X137779179Y-100409394D01*
X137910289Y-100321789D01*
X138021789Y-100210289D01*
X138109394Y-100079179D01*
X138169737Y-99933497D01*
X138200500Y-99778842D01*
X138200500Y-99621158D01*
X138200500Y-99621155D01*
X138200499Y-99621153D01*
X138190575Y-99571264D01*
X138169737Y-99466503D01*
X138154085Y-99428716D01*
X138147070Y-99411779D01*
X138139601Y-99342310D01*
X138170876Y-99279831D01*
X138187311Y-99265067D01*
X138297546Y-99182546D01*
X138383796Y-99067331D01*
X138434091Y-98932483D01*
X138440500Y-98872873D01*
X138440499Y-95627128D01*
X138434091Y-95567517D01*
X138426102Y-95546098D01*
X138383797Y-95432671D01*
X138383796Y-95432670D01*
X138383796Y-95432669D01*
X138325232Y-95354438D01*
X138300816Y-95288975D01*
X138300500Y-95280128D01*
X138300500Y-94169869D01*
X138320185Y-94102830D01*
X138325215Y-94095584D01*
X138383796Y-94017331D01*
X138434091Y-93882483D01*
X138440500Y-93822873D01*
X138440499Y-90577135D01*
X138979500Y-90577135D01*
X138979500Y-93822870D01*
X138979501Y-93822876D01*
X138985908Y-93882483D01*
X139036202Y-94017328D01*
X139036206Y-94017335D01*
X139122452Y-94132544D01*
X139122455Y-94132547D01*
X139237664Y-94218793D01*
X139237669Y-94218796D01*
X139298833Y-94241608D01*
X139354766Y-94283478D01*
X139379184Y-94348942D01*
X139379500Y-94357790D01*
X139379500Y-95092209D01*
X139359815Y-95159248D01*
X139307011Y-95205003D01*
X139298833Y-95208391D01*
X139237671Y-95231202D01*
X139237664Y-95231206D01*
X139122455Y-95317452D01*
X139122452Y-95317455D01*
X139036206Y-95432664D01*
X139036202Y-95432671D01*
X138985908Y-95567517D01*
X138979501Y-95627116D01*
X138979501Y-95627124D01*
X138979500Y-95627135D01*
X138979500Y-98872870D01*
X138979501Y-98872876D01*
X138985908Y-98932483D01*
X139036202Y-99067328D01*
X139036206Y-99067335D01*
X139122452Y-99182544D01*
X139122455Y-99182547D01*
X139237664Y-99268793D01*
X139237666Y-99268794D01*
X139237669Y-99268796D01*
X139298833Y-99291608D01*
X139354766Y-99333478D01*
X139379184Y-99398942D01*
X139379500Y-99407790D01*
X139379500Y-101393330D01*
X139379499Y-101393348D01*
X139379499Y-101400943D01*
X139379499Y-101559057D01*
X139395275Y-101617932D01*
X139399500Y-101650026D01*
X139399500Y-101778846D01*
X139430261Y-101933489D01*
X139430264Y-101933501D01*
X139490602Y-102079172D01*
X139490609Y-102079185D01*
X139578210Y-102210288D01*
X139578213Y-102210292D01*
X139689707Y-102321786D01*
X139689711Y-102321789D01*
X139820814Y-102409390D01*
X139820827Y-102409397D01*
X139966498Y-102469735D01*
X139966503Y-102469737D01*
X140121153Y-102500499D01*
X140121156Y-102500500D01*
X140121158Y-102500500D01*
X140278844Y-102500500D01*
X140278845Y-102500499D01*
X140433497Y-102469737D01*
X140579179Y-102409394D01*
X140710289Y-102321789D01*
X140821789Y-102210289D01*
X140909394Y-102079179D01*
X140912806Y-102070943D01*
X140969735Y-101933501D01*
X140969737Y-101933497D01*
X141000500Y-101778842D01*
X141000500Y-101621158D01*
X141000500Y-101621155D01*
X141000499Y-101621153D01*
X140969738Y-101466510D01*
X140969737Y-101466503D01*
X140949371Y-101417335D01*
X140909397Y-101320827D01*
X140909390Y-101320814D01*
X140821789Y-101189711D01*
X140821786Y-101189707D01*
X140710292Y-101078213D01*
X140635608Y-101028310D01*
X140590804Y-100974697D01*
X140580500Y-100925208D01*
X140580500Y-99407790D01*
X140600185Y-99340751D01*
X140652989Y-99294996D01*
X140661146Y-99291616D01*
X140722331Y-99268796D01*
X140837546Y-99182546D01*
X140923796Y-99067331D01*
X140974091Y-98932483D01*
X140980500Y-98872873D01*
X140980499Y-95627128D01*
X140974091Y-95567517D01*
X140966102Y-95546098D01*
X140923797Y-95432671D01*
X140923793Y-95432664D01*
X140837547Y-95317455D01*
X140837544Y-95317452D01*
X140722335Y-95231206D01*
X140722328Y-95231202D01*
X140661167Y-95208391D01*
X140605233Y-95166520D01*
X140580816Y-95101056D01*
X140580500Y-95092209D01*
X140580500Y-94357790D01*
X140600185Y-94290751D01*
X140652989Y-94244996D01*
X140661146Y-94241616D01*
X140722331Y-94218796D01*
X140837546Y-94132546D01*
X140923796Y-94017331D01*
X140974091Y-93882483D01*
X140980500Y-93822873D01*
X140980499Y-90577128D01*
X140974091Y-90517517D01*
X140974090Y-90517515D01*
X140923797Y-90382671D01*
X140923793Y-90382664D01*
X140837547Y-90267455D01*
X140837544Y-90267452D01*
X140722335Y-90181206D01*
X140722328Y-90181202D01*
X140587482Y-90130908D01*
X140587483Y-90130908D01*
X140527883Y-90124501D01*
X140527881Y-90124500D01*
X140527873Y-90124500D01*
X140527864Y-90124500D01*
X139432129Y-90124500D01*
X139432123Y-90124501D01*
X139372516Y-90130908D01*
X139237671Y-90181202D01*
X139237664Y-90181206D01*
X139122455Y-90267452D01*
X139122452Y-90267455D01*
X139036206Y-90382664D01*
X139036202Y-90382671D01*
X138985908Y-90517517D01*
X138979501Y-90577115D01*
X138979501Y-90577123D01*
X138979500Y-90577135D01*
X138440499Y-90577135D01*
X138440499Y-90577128D01*
X138434091Y-90517517D01*
X138434090Y-90517515D01*
X138383797Y-90382671D01*
X138383793Y-90382664D01*
X138297547Y-90267455D01*
X138297544Y-90267452D01*
X138182335Y-90181206D01*
X138182328Y-90181202D01*
X138047482Y-90130908D01*
X138047483Y-90130908D01*
X137987883Y-90124501D01*
X137987881Y-90124500D01*
X137987873Y-90124500D01*
X137987864Y-90124500D01*
X136892129Y-90124500D01*
X136892123Y-90124501D01*
X136832516Y-90130908D01*
X136697671Y-90181202D01*
X136697664Y-90181206D01*
X136582455Y-90267452D01*
X136582452Y-90267455D01*
X136496206Y-90382664D01*
X136496202Y-90382671D01*
X136445908Y-90517517D01*
X136439501Y-90577115D01*
X136439501Y-90577123D01*
X136439500Y-90577135D01*
X136439500Y-93822870D01*
X136439501Y-93822876D01*
X136445908Y-93882481D01*
X136464440Y-93932166D01*
X136469424Y-94001858D01*
X136435939Y-94063181D01*
X136374616Y-94096666D01*
X136348258Y-94099500D01*
X136321155Y-94099500D01*
X136166510Y-94130261D01*
X136166498Y-94130264D01*
X136020827Y-94190602D01*
X136020809Y-94190612D01*
X136009273Y-94198320D01*
X135942595Y-94219195D01*
X135875215Y-94200707D01*
X135828528Y-94148726D01*
X135817354Y-94079756D01*
X135841126Y-94020897D01*
X135841183Y-94020821D01*
X135843796Y-94017331D01*
X135894091Y-93882483D01*
X135900500Y-93822873D01*
X135900499Y-90577128D01*
X135894091Y-90517517D01*
X135894090Y-90517515D01*
X135843797Y-90382671D01*
X135843793Y-90382664D01*
X135757547Y-90267455D01*
X135757544Y-90267452D01*
X135642335Y-90181206D01*
X135642328Y-90181202D01*
X135581168Y-90158391D01*
X135525234Y-90116520D01*
X135500817Y-90051055D01*
X135500501Y-90042209D01*
X135500501Y-90020944D01*
X135500500Y-90020939D01*
X135459577Y-89868216D01*
X135429572Y-89816245D01*
X135380524Y-89731290D01*
X135380518Y-89731282D01*
X133786819Y-88137583D01*
X133753334Y-88076260D01*
X133750500Y-88049902D01*
X133750500Y-87479765D01*
X133770185Y-87412726D01*
X133771398Y-87410874D01*
X133775868Y-87404185D01*
X133859394Y-87279179D01*
X133862806Y-87270943D01*
X133880244Y-87228842D01*
X133919737Y-87133497D01*
X133950500Y-86978842D01*
X133950500Y-86821158D01*
X133950500Y-86821155D01*
X133950499Y-86821153D01*
X133939818Y-86767455D01*
X133919737Y-86666503D01*
X133911170Y-86645821D01*
X133859397Y-86520827D01*
X133859390Y-86520814D01*
X133771789Y-86389711D01*
X133771786Y-86389707D01*
X133686819Y-86304740D01*
X133653334Y-86243417D01*
X133650500Y-86217059D01*
X133650500Y-80979765D01*
X133670185Y-80912726D01*
X133671398Y-80910874D01*
X133692799Y-80878846D01*
X133759394Y-80779179D01*
X133819737Y-80633497D01*
X133850500Y-80478842D01*
X133850500Y-80321158D01*
X133850500Y-80321155D01*
X133850499Y-80321153D01*
X133834209Y-80239257D01*
X133819737Y-80166503D01*
X133819735Y-80166498D01*
X133759397Y-80020827D01*
X133759390Y-80020814D01*
X133671789Y-79889711D01*
X133671786Y-79889707D01*
X133560292Y-79778213D01*
X133560288Y-79778210D01*
X133429185Y-79690609D01*
X133429172Y-79690602D01*
X133283501Y-79630264D01*
X133283489Y-79630261D01*
X133128845Y-79599500D01*
X133128842Y-79599500D01*
X132971158Y-79599500D01*
X132971155Y-79599500D01*
X132816510Y-79630261D01*
X132816498Y-79630264D01*
X132670827Y-79690602D01*
X132670814Y-79690609D01*
X132539711Y-79778210D01*
X132539707Y-79778213D01*
X132428213Y-79889707D01*
X132428210Y-79889711D01*
X132340609Y-80020814D01*
X132340602Y-80020827D01*
X132280264Y-80166498D01*
X132280261Y-80166510D01*
X132249500Y-80321153D01*
X126900500Y-80321153D01*
X126900500Y-80221158D01*
X126900500Y-80221155D01*
X126900499Y-80221153D01*
X126882419Y-80130261D01*
X126869737Y-80066503D01*
X126869735Y-80066498D01*
X126809397Y-79920827D01*
X126809390Y-79920814D01*
X126721789Y-79789711D01*
X126721786Y-79789707D01*
X126610292Y-79678213D01*
X126610288Y-79678210D01*
X126479185Y-79590609D01*
X126479172Y-79590602D01*
X126333501Y-79530264D01*
X126333489Y-79530261D01*
X126178845Y-79499500D01*
X126178842Y-79499500D01*
X126021158Y-79499500D01*
X126021155Y-79499500D01*
X125866510Y-79530261D01*
X125866498Y-79530264D01*
X125720827Y-79590602D01*
X125720814Y-79590609D01*
X125589711Y-79678210D01*
X125589707Y-79678213D01*
X125478213Y-79789707D01*
X125478210Y-79789711D01*
X125390609Y-79920814D01*
X125390602Y-79920827D01*
X125330264Y-80066498D01*
X125330261Y-80066510D01*
X125299500Y-80221153D01*
X120080608Y-80221153D01*
X120074531Y-80190606D01*
X120069737Y-80166503D01*
X120069735Y-80166498D01*
X120009397Y-80020827D01*
X120009390Y-80020814D01*
X119921789Y-79889711D01*
X119921786Y-79889707D01*
X119810292Y-79778213D01*
X119810288Y-79778210D01*
X119679185Y-79690609D01*
X119679172Y-79690602D01*
X119533501Y-79630264D01*
X119533489Y-79630261D01*
X119378845Y-79599500D01*
X119378842Y-79599500D01*
X119221158Y-79599500D01*
X119221155Y-79599500D01*
X119066510Y-79630261D01*
X119066498Y-79630264D01*
X118920827Y-79690602D01*
X118920814Y-79690609D01*
X118789711Y-79778210D01*
X118789707Y-79778213D01*
X118678213Y-79889707D01*
X118678210Y-79889711D01*
X118590609Y-80020814D01*
X118590602Y-80020827D01*
X118530264Y-80166498D01*
X118530261Y-80166510D01*
X118499500Y-80321153D01*
X118499500Y-80478846D01*
X118530261Y-80633489D01*
X118530264Y-80633501D01*
X118590602Y-80779172D01*
X118590609Y-80779185D01*
X118678209Y-80910287D01*
X118678210Y-80910288D01*
X118678211Y-80910289D01*
X118763182Y-80995260D01*
X118796666Y-81056581D01*
X118799500Y-81082940D01*
X118799500Y-86570234D01*
X118779815Y-86637273D01*
X118778602Y-86639125D01*
X118690609Y-86770814D01*
X118690602Y-86770827D01*
X118630264Y-86916498D01*
X118630261Y-86916510D01*
X118599500Y-87071153D01*
X118599500Y-87228846D01*
X118630261Y-87383489D01*
X118630264Y-87383501D01*
X118690602Y-87529172D01*
X118690609Y-87529185D01*
X118778210Y-87660288D01*
X118778213Y-87660292D01*
X118889707Y-87771786D01*
X118889711Y-87771789D01*
X119020814Y-87859390D01*
X119020827Y-87859397D01*
X119120060Y-87900500D01*
X119166503Y-87919737D01*
X119227072Y-87931785D01*
X119321849Y-87950638D01*
X119383760Y-87983023D01*
X119385339Y-87984574D01*
X123703181Y-92302416D01*
X123736666Y-92363739D01*
X123739500Y-92390097D01*
X123739500Y-93822870D01*
X123739501Y-93822876D01*
X123745908Y-93882483D01*
X123796202Y-94017328D01*
X123796206Y-94017335D01*
X123842935Y-94079756D01*
X123882454Y-94132546D01*
X123940813Y-94176234D01*
X123982684Y-94232167D01*
X123987668Y-94301859D01*
X123954183Y-94363182D01*
X123892859Y-94396666D01*
X123866502Y-94399500D01*
X123488684Y-94399500D01*
X123471343Y-94398282D01*
X123463877Y-94397227D01*
X123379057Y-94374500D01*
X123304062Y-94374500D01*
X123304058Y-94374499D01*
X123145943Y-94374499D01*
X123069579Y-94394961D01*
X122993214Y-94415423D01*
X122993209Y-94415426D01*
X122856290Y-94494475D01*
X122856286Y-94494478D01*
X122785337Y-94565427D01*
X122724013Y-94598911D01*
X122721848Y-94599362D01*
X122566508Y-94630261D01*
X122566498Y-94630264D01*
X122420827Y-94690602D01*
X122420814Y-94690609D01*
X122289711Y-94778210D01*
X122289707Y-94778213D01*
X122178213Y-94889707D01*
X122178210Y-94889711D01*
X122090609Y-95020814D01*
X122090602Y-95020827D01*
X122030264Y-95166498D01*
X122030261Y-95166510D01*
X121999500Y-95321153D01*
X121999500Y-95478846D01*
X122030261Y-95633489D01*
X122030264Y-95633501D01*
X122090602Y-95779172D01*
X122090609Y-95779185D01*
X122178210Y-95910288D01*
X122178213Y-95910292D01*
X122289707Y-96021786D01*
X122289711Y-96021789D01*
X122420814Y-96109390D01*
X122420827Y-96109397D01*
X122566498Y-96169735D01*
X122566503Y-96169737D01*
X122696987Y-96195692D01*
X122721153Y-96200499D01*
X122721156Y-96200500D01*
X122721158Y-96200500D01*
X122878844Y-96200500D01*
X122878845Y-96200499D01*
X123033497Y-96169737D01*
X123146166Y-96123067D01*
X123179172Y-96109397D01*
X123179172Y-96109396D01*
X123179179Y-96109394D01*
X123310289Y-96021789D01*
X123421789Y-95910289D01*
X123472165Y-95834895D01*
X123512398Y-95774684D01*
X123566010Y-95729879D01*
X123635335Y-95721172D01*
X123698363Y-95751326D01*
X123735082Y-95810770D01*
X123739500Y-95843575D01*
X123739500Y-98872870D01*
X123739501Y-98872876D01*
X123745908Y-98932483D01*
X123796202Y-99067328D01*
X123796206Y-99067335D01*
X123882452Y-99182544D01*
X123882455Y-99182547D01*
X123997664Y-99268793D01*
X123997666Y-99268794D01*
X123997669Y-99268796D01*
X124058833Y-99291608D01*
X124076558Y-99304877D01*
X124096703Y-99314077D01*
X124103984Y-99325407D01*
X124114766Y-99333478D01*
X124122504Y-99354226D01*
X124134477Y-99372855D01*
X124137628Y-99394770D01*
X124139184Y-99398942D01*
X124139500Y-99407790D01*
X124139500Y-99559903D01*
X124119815Y-99626942D01*
X124103181Y-99647584D01*
X120935339Y-102815425D01*
X120874016Y-102848910D01*
X120871850Y-102849361D01*
X120716508Y-102880261D01*
X120716498Y-102880264D01*
X120570827Y-102940602D01*
X120570814Y-102940609D01*
X120439711Y-103028210D01*
X120439707Y-103028213D01*
X120328213Y-103139707D01*
X120328210Y-103139711D01*
X120240609Y-103270814D01*
X120240602Y-103270827D01*
X120180264Y-103416498D01*
X120180261Y-103416510D01*
X120149500Y-103571153D01*
X120149500Y-103728846D01*
X120180261Y-103883489D01*
X120180264Y-103883501D01*
X120240602Y-104029172D01*
X120240609Y-104029185D01*
X120328602Y-104160874D01*
X120349480Y-104227551D01*
X120349500Y-104229765D01*
X120349500Y-112838330D01*
X120349499Y-112838348D01*
X120349499Y-113004054D01*
X120349498Y-113004054D01*
X120349499Y-113004057D01*
X120390423Y-113156785D01*
X120390424Y-113156787D01*
X120390423Y-113156787D01*
X120404567Y-113181283D01*
X120404568Y-113181284D01*
X120427953Y-113221789D01*
X120432887Y-113230334D01*
X120449500Y-113292334D01*
X120449500Y-113303846D01*
X120480261Y-113458489D01*
X120480264Y-113458501D01*
X120540602Y-113604172D01*
X120540609Y-113604185D01*
X120628210Y-113735288D01*
X120628213Y-113735292D01*
X120680740Y-113787819D01*
X120714225Y-113849142D01*
X120709241Y-113918834D01*
X120667369Y-113974767D01*
X120601905Y-113999184D01*
X120593059Y-113999500D01*
X119803751Y-113999500D01*
X119796264Y-113999274D01*
X119506205Y-113981728D01*
X119491340Y-113979923D01*
X119209201Y-113928219D01*
X119194663Y-113924635D01*
X118920832Y-113839306D01*
X118906831Y-113833997D01*
X118645263Y-113716275D01*
X118632004Y-113709316D01*
X118458086Y-113604179D01*
X118386537Y-113560926D01*
X118374217Y-113552422D01*
X118345934Y-113530264D01*
X118148426Y-113375526D01*
X118137218Y-113365596D01*
X117934403Y-113162781D01*
X117924473Y-113151573D01*
X117899882Y-113120185D01*
X117747573Y-112925776D01*
X117739075Y-112913465D01*
X117590680Y-112667989D01*
X117583727Y-112654743D01*
X117466000Y-112393163D01*
X117460693Y-112379167D01*
X117456745Y-112366498D01*
X117375363Y-112105335D01*
X117371780Y-112090798D01*
X117358711Y-112019481D01*
X117320075Y-111808657D01*
X117318271Y-111793794D01*
X117300726Y-111503736D01*
X117300500Y-111496249D01*
X117300500Y-79406961D01*
X117301280Y-79393077D01*
X117301280Y-79393076D01*
X117311460Y-79302729D01*
X117317635Y-79275670D01*
X117345353Y-79196456D01*
X117357396Y-79171450D01*
X117402046Y-79100389D01*
X117419351Y-79078690D01*
X117478690Y-79019351D01*
X117500389Y-79002046D01*
X117571450Y-78957396D01*
X117596456Y-78945353D01*
X117675670Y-78917635D01*
X117702733Y-78911459D01*
X117765419Y-78904396D01*
X117793079Y-78901280D01*
X117806962Y-78900500D01*
X117865892Y-78900500D01*
X182534108Y-78900500D01*
X182593038Y-78900500D01*
X182606922Y-78901280D01*
G37*
%TD.AperFunction*%
%TA.AperFunction,Conductor*%
G36*
X154766942Y-87920185D02*
G01*
X154787584Y-87936819D01*
X156924657Y-90073893D01*
X156958142Y-90135216D01*
X156953158Y-90204908D01*
X156911292Y-90260837D01*
X156902454Y-90267453D01*
X156902452Y-90267455D01*
X156816206Y-90382664D01*
X156816202Y-90382671D01*
X156765908Y-90517517D01*
X156759501Y-90577115D01*
X156759501Y-90577123D01*
X156759500Y-90577135D01*
X156759500Y-93822870D01*
X156759501Y-93822876D01*
X156765908Y-93882483D01*
X156816202Y-94017328D01*
X156816206Y-94017335D01*
X156854120Y-94067981D01*
X156878538Y-94133445D01*
X156863687Y-94201718D01*
X156814282Y-94251124D01*
X156802307Y-94256853D01*
X156720824Y-94290604D01*
X156720814Y-94290609D01*
X156589711Y-94378210D01*
X156589707Y-94378213D01*
X156478213Y-94489707D01*
X156478210Y-94489711D01*
X156390609Y-94620814D01*
X156390602Y-94620827D01*
X156330264Y-94766498D01*
X156330261Y-94766510D01*
X156299500Y-94921153D01*
X156299500Y-95078846D01*
X156329895Y-95231649D01*
X156330263Y-95233497D01*
X156390606Y-95379179D01*
X156427604Y-95434551D01*
X156427607Y-95434556D01*
X156478601Y-95510873D01*
X156499479Y-95577550D01*
X156499499Y-95579764D01*
X156499499Y-95629054D01*
X156499498Y-95629054D01*
X156500689Y-95633497D01*
X156540423Y-95781785D01*
X156540424Y-95781787D01*
X156540423Y-95781787D01*
X156553538Y-95804501D01*
X156553539Y-95804503D01*
X156619475Y-95918709D01*
X156619481Y-95918717D01*
X156723181Y-96022417D01*
X156756666Y-96083740D01*
X156759500Y-96110098D01*
X156759500Y-98872870D01*
X156759501Y-98872876D01*
X156765908Y-98932483D01*
X156816203Y-99067329D01*
X156824766Y-99078768D01*
X156849184Y-99144232D01*
X156849500Y-99153080D01*
X156849500Y-102995234D01*
X156829815Y-103062273D01*
X156828602Y-103064125D01*
X156740609Y-103195814D01*
X156740602Y-103195827D01*
X156680264Y-103341498D01*
X156680261Y-103341510D01*
X156649500Y-103496153D01*
X156649500Y-103653846D01*
X156680261Y-103808489D01*
X156680264Y-103808501D01*
X156740602Y-103954172D01*
X156740609Y-103954185D01*
X156828602Y-104085874D01*
X156849480Y-104152551D01*
X156849500Y-104154765D01*
X156849500Y-109075575D01*
X156829815Y-109142614D01*
X156777011Y-109188369D01*
X156707853Y-109198313D01*
X156678048Y-109190137D01*
X156630314Y-109170365D01*
X156533497Y-109130263D01*
X156533492Y-109130262D01*
X156533489Y-109130261D01*
X156378845Y-109099500D01*
X156378842Y-109099500D01*
X156221158Y-109099500D01*
X156221155Y-109099500D01*
X156066510Y-109130261D01*
X156066498Y-109130264D01*
X155920827Y-109190602D01*
X155920814Y-109190609D01*
X155789711Y-109278210D01*
X155789707Y-109278213D01*
X155678213Y-109389707D01*
X155678210Y-109389711D01*
X155590609Y-109520814D01*
X155590602Y-109520827D01*
X155530264Y-109666498D01*
X155530261Y-109666510D01*
X155499500Y-109821153D01*
X155499500Y-109978846D01*
X155530261Y-110133489D01*
X155530264Y-110133501D01*
X155590602Y-110279172D01*
X155590609Y-110279185D01*
X155678209Y-110410287D01*
X155678210Y-110410288D01*
X155678211Y-110410289D01*
X155763182Y-110495260D01*
X155796666Y-110556581D01*
X155799500Y-110582940D01*
X155799500Y-117499903D01*
X155779815Y-117566942D01*
X155763181Y-117587584D01*
X155387584Y-117963181D01*
X155326261Y-117996666D01*
X155299903Y-117999500D01*
X154731941Y-117999500D01*
X154664902Y-117979815D01*
X154619147Y-117927011D01*
X154609203Y-117857853D01*
X154638228Y-117794297D01*
X154644260Y-117787819D01*
X154721786Y-117710292D01*
X154721789Y-117710289D01*
X154809394Y-117579179D01*
X154869737Y-117433497D01*
X154900500Y-117278842D01*
X154900500Y-117121158D01*
X154900500Y-117121155D01*
X154900499Y-117121153D01*
X154869738Y-116966510D01*
X154869737Y-116966503D01*
X154834935Y-116882482D01*
X154809397Y-116820827D01*
X154809390Y-116820814D01*
X154721789Y-116689711D01*
X154721786Y-116689707D01*
X154610292Y-116578213D01*
X154610288Y-116578210D01*
X154479185Y-116490609D01*
X154479172Y-116490602D01*
X154333501Y-116430264D01*
X154333489Y-116430261D01*
X154178845Y-116399500D01*
X154178842Y-116399500D01*
X154021158Y-116399500D01*
X154021155Y-116399500D01*
X153866510Y-116430261D01*
X153866498Y-116430264D01*
X153720827Y-116490602D01*
X153720814Y-116490609D01*
X153589125Y-116578602D01*
X153571078Y-116584252D01*
X153555169Y-116594477D01*
X153524207Y-116598928D01*
X153522447Y-116599480D01*
X153520234Y-116599500D01*
X153450097Y-116599500D01*
X153383058Y-116579815D01*
X153362416Y-116563181D01*
X151061819Y-114262584D01*
X151028334Y-114201261D01*
X151025500Y-114174903D01*
X151025500Y-104279765D01*
X151045185Y-104212726D01*
X151046398Y-104210874D01*
X151084277Y-104154185D01*
X151134394Y-104079179D01*
X151194737Y-103933497D01*
X151225500Y-103778842D01*
X151225500Y-103621158D01*
X151225500Y-103621155D01*
X151225499Y-103621153D01*
X151211597Y-103551265D01*
X151194737Y-103466503D01*
X151184382Y-103441503D01*
X151134397Y-103320827D01*
X151134390Y-103320814D01*
X151046789Y-103189711D01*
X151046786Y-103189707D01*
X150935292Y-103078213D01*
X150935288Y-103078210D01*
X150804185Y-102990609D01*
X150804172Y-102990602D01*
X150658501Y-102930264D01*
X150658491Y-102930261D01*
X150503149Y-102899361D01*
X150441238Y-102866976D01*
X150439660Y-102865425D01*
X148236819Y-100662584D01*
X148203334Y-100601261D01*
X148200500Y-100574903D01*
X148200500Y-99407790D01*
X148220185Y-99340751D01*
X148272989Y-99294996D01*
X148281146Y-99291616D01*
X148342331Y-99268796D01*
X148457546Y-99182546D01*
X148543796Y-99067331D01*
X148594091Y-98932483D01*
X148600500Y-98872873D01*
X148600499Y-95627128D01*
X148594091Y-95567517D01*
X148586102Y-95546098D01*
X148543797Y-95432671D01*
X148543795Y-95432668D01*
X148518450Y-95398811D01*
X148494033Y-95333346D01*
X148508885Y-95265074D01*
X148558290Y-95215668D01*
X148617717Y-95200500D01*
X149122283Y-95200500D01*
X149189322Y-95220185D01*
X149235077Y-95272989D01*
X149245021Y-95342147D01*
X149221550Y-95398811D01*
X149196204Y-95432668D01*
X149196202Y-95432671D01*
X149145908Y-95567517D01*
X149139501Y-95627116D01*
X149139501Y-95627124D01*
X149139500Y-95627135D01*
X149139500Y-98872870D01*
X149139501Y-98872876D01*
X149145908Y-98932483D01*
X149196202Y-99067328D01*
X149196206Y-99067335D01*
X149282452Y-99182544D01*
X149282455Y-99182547D01*
X149397664Y-99268793D01*
X149397666Y-99268794D01*
X149397669Y-99268796D01*
X149458833Y-99291608D01*
X149514766Y-99333478D01*
X149539184Y-99398942D01*
X149539500Y-99407790D01*
X149539500Y-100453330D01*
X149539499Y-100453348D01*
X149539499Y-100619054D01*
X149539498Y-100619054D01*
X149580423Y-100771786D01*
X149589502Y-100787510D01*
X149594371Y-100795943D01*
X149657888Y-100905958D01*
X149657895Y-100905986D01*
X149674500Y-100967957D01*
X149674500Y-101222869D01*
X149674501Y-101222876D01*
X149680908Y-101282483D01*
X149731202Y-101417328D01*
X149731206Y-101417335D01*
X149817452Y-101532544D01*
X149817455Y-101532547D01*
X149932664Y-101618793D01*
X149932671Y-101618797D01*
X150067517Y-101669091D01*
X150067516Y-101669091D01*
X150074444Y-101669835D01*
X150127127Y-101675500D01*
X151072872Y-101675499D01*
X151132483Y-101669091D01*
X151267331Y-101618796D01*
X151382546Y-101532546D01*
X151468796Y-101417331D01*
X151519091Y-101282483D01*
X151525500Y-101222873D01*
X151525499Y-99777128D01*
X151519091Y-99717517D01*
X151483151Y-99621158D01*
X151468797Y-99582671D01*
X151468793Y-99582664D01*
X151382547Y-99467455D01*
X151382544Y-99467452D01*
X151267335Y-99381206D01*
X151267328Y-99381202D01*
X151132482Y-99330908D01*
X151132484Y-99330908D01*
X151121314Y-99329708D01*
X151056763Y-99302970D01*
X151016915Y-99245578D01*
X151014422Y-99175752D01*
X151035302Y-99132109D01*
X151083796Y-99067331D01*
X151134091Y-98932483D01*
X151140500Y-98872873D01*
X151140499Y-95627135D01*
X151679500Y-95627135D01*
X151679500Y-98872870D01*
X151679501Y-98872876D01*
X151685908Y-98932483D01*
X151736202Y-99067328D01*
X151736206Y-99067335D01*
X151822452Y-99182544D01*
X151822455Y-99182547D01*
X151937664Y-99268793D01*
X151937671Y-99268797D01*
X152072514Y-99319090D01*
X152072517Y-99319091D01*
X152092939Y-99321286D01*
X152157487Y-99348021D01*
X152197337Y-99405412D01*
X152199833Y-99475238D01*
X152178951Y-99518885D01*
X152131206Y-99582664D01*
X152131202Y-99582671D01*
X152080908Y-99717517D01*
X152078390Y-99740943D01*
X152074501Y-99777123D01*
X152074500Y-99777135D01*
X152074500Y-101222870D01*
X152074501Y-101222876D01*
X152080908Y-101282483D01*
X152131202Y-101417328D01*
X152131206Y-101417335D01*
X152217452Y-101532544D01*
X152217455Y-101532547D01*
X152332664Y-101618793D01*
X152332671Y-101618797D01*
X152467517Y-101669091D01*
X152467516Y-101669091D01*
X152474444Y-101669835D01*
X152527127Y-101675500D01*
X153472872Y-101675499D01*
X153532483Y-101669091D01*
X153667331Y-101618796D01*
X153782546Y-101532546D01*
X153868796Y-101417331D01*
X153919091Y-101282483D01*
X153925500Y-101222873D01*
X153925499Y-99777128D01*
X153919091Y-99717517D01*
X153883151Y-99621158D01*
X153868797Y-99582671D01*
X153868793Y-99582664D01*
X153782547Y-99467455D01*
X153782544Y-99467452D01*
X153667335Y-99381206D01*
X153667324Y-99381200D01*
X153604820Y-99357887D01*
X153548886Y-99316016D01*
X153524470Y-99250551D01*
X153539322Y-99182278D01*
X153548883Y-99167401D01*
X153623796Y-99067331D01*
X153674091Y-98932483D01*
X153680500Y-98872873D01*
X153680499Y-95627136D01*
X154219500Y-95627136D01*
X154219500Y-98872871D01*
X154219501Y-98872877D01*
X154225908Y-98932484D01*
X154276202Y-99067329D01*
X154276206Y-99067336D01*
X154362452Y-99182545D01*
X154362455Y-99182548D01*
X154477664Y-99268794D01*
X154477671Y-99268798D01*
X154619785Y-99321803D01*
X154619282Y-99323150D01*
X154672615Y-99353513D01*
X154705006Y-99415421D01*
X154698785Y-99485013D01*
X154682658Y-99513935D01*
X154631204Y-99582668D01*
X154631202Y-99582671D01*
X154580908Y-99717517D01*
X154578390Y-99740943D01*
X154574501Y-99777123D01*
X154574500Y-99777135D01*
X154574500Y-101222870D01*
X154574501Y-101222876D01*
X154580908Y-101282483D01*
X154631202Y-101417328D01*
X154631206Y-101417335D01*
X154717452Y-101532544D01*
X154717455Y-101532547D01*
X154832664Y-101618793D01*
X154832671Y-101618797D01*
X154967517Y-101669091D01*
X154967516Y-101669091D01*
X154974444Y-101669835D01*
X155027127Y-101675500D01*
X155972872Y-101675499D01*
X156032483Y-101669091D01*
X156167331Y-101618796D01*
X156282546Y-101532546D01*
X156368796Y-101417331D01*
X156419091Y-101282483D01*
X156425500Y-101222873D01*
X156425499Y-99777128D01*
X156419091Y-99717517D01*
X156383151Y-99621158D01*
X156368797Y-99582671D01*
X156368793Y-99582664D01*
X156282547Y-99467455D01*
X156282544Y-99467452D01*
X156167335Y-99381206D01*
X156167325Y-99381201D01*
X156136089Y-99369550D01*
X156080156Y-99327678D01*
X156055740Y-99262213D01*
X156070593Y-99193941D01*
X156080158Y-99179058D01*
X156163793Y-99067336D01*
X156163794Y-99067335D01*
X156163796Y-99067332D01*
X156214091Y-98932484D01*
X156220500Y-98872874D01*
X156220499Y-95627129D01*
X156214091Y-95567518D01*
X156163796Y-95432670D01*
X156077546Y-95317455D01*
X156054709Y-95300359D01*
X155962335Y-95231207D01*
X155962328Y-95231203D01*
X155827482Y-95180909D01*
X155827483Y-95180909D01*
X155767883Y-95174502D01*
X155767881Y-95174501D01*
X155767873Y-95174501D01*
X155767864Y-95174501D01*
X154672129Y-95174501D01*
X154672123Y-95174502D01*
X154612516Y-95180909D01*
X154477671Y-95231203D01*
X154477664Y-95231207D01*
X154362455Y-95317453D01*
X154362452Y-95317456D01*
X154276206Y-95432665D01*
X154276202Y-95432672D01*
X154225908Y-95567518D01*
X154220009Y-95622396D01*
X154219501Y-95627124D01*
X154219500Y-95627136D01*
X153680499Y-95627136D01*
X153680499Y-95627128D01*
X153674091Y-95567517D01*
X153666102Y-95546098D01*
X153623797Y-95432671D01*
X153623793Y-95432664D01*
X153537547Y-95317455D01*
X153537544Y-95317452D01*
X153422335Y-95231206D01*
X153422328Y-95231202D01*
X153287482Y-95180908D01*
X153287483Y-95180908D01*
X153227883Y-95174501D01*
X153227881Y-95174500D01*
X153227873Y-95174500D01*
X153227864Y-95174500D01*
X152132129Y-95174500D01*
X152132123Y-95174501D01*
X152072516Y-95180908D01*
X151937671Y-95231202D01*
X151937664Y-95231206D01*
X151822455Y-95317452D01*
X151822452Y-95317455D01*
X151736206Y-95432664D01*
X151736202Y-95432671D01*
X151685908Y-95567517D01*
X151679501Y-95627116D01*
X151679501Y-95627124D01*
X151679500Y-95627135D01*
X151140499Y-95627135D01*
X151140499Y-95627128D01*
X151134091Y-95567517D01*
X151126102Y-95546098D01*
X151083797Y-95432671D01*
X151083793Y-95432664D01*
X150997547Y-95317455D01*
X150997544Y-95317452D01*
X150882335Y-95231206D01*
X150882330Y-95231203D01*
X150798397Y-95199898D01*
X150742464Y-95158026D01*
X150718047Y-95092562D01*
X150727170Y-95036263D01*
X150728319Y-95033489D01*
X150769737Y-94933497D01*
X150800500Y-94778842D01*
X150800500Y-94621158D01*
X150800500Y-94621155D01*
X150800499Y-94621153D01*
X150792126Y-94579060D01*
X150769737Y-94466503D01*
X150750818Y-94420827D01*
X150745109Y-94407044D01*
X150737640Y-94337575D01*
X150768916Y-94275096D01*
X150816338Y-94243410D01*
X150882326Y-94218798D01*
X150882326Y-94218797D01*
X150882331Y-94218796D01*
X150997546Y-94132546D01*
X151083796Y-94017331D01*
X151134091Y-93882483D01*
X151140500Y-93822873D01*
X151140499Y-90577128D01*
X151134091Y-90517517D01*
X151134090Y-90517515D01*
X151083797Y-90382671D01*
X151083793Y-90382664D01*
X150997547Y-90267455D01*
X150997544Y-90267452D01*
X150882335Y-90181206D01*
X150882328Y-90181202D01*
X150747482Y-90130908D01*
X150747484Y-90130908D01*
X150711243Y-90127012D01*
X150646692Y-90100273D01*
X150606845Y-90042880D01*
X150600500Y-90003723D01*
X150600500Y-89028861D01*
X150602098Y-89023416D01*
X150600990Y-89017854D01*
X150611833Y-88990262D01*
X150620185Y-88961822D01*
X150625014Y-88956724D01*
X150626547Y-88952826D01*
X150637721Y-88943312D01*
X150651937Y-88928310D01*
X150662756Y-88920502D01*
X150667331Y-88918796D01*
X150726532Y-88874477D01*
X150727437Y-88873825D01*
X150759379Y-88862542D01*
X150791153Y-88850692D01*
X150792254Y-88850931D01*
X150793318Y-88850556D01*
X150826291Y-88858335D01*
X150859426Y-88865543D01*
X150860925Y-88866506D01*
X150861321Y-88866600D01*
X150861730Y-88867023D01*
X150874309Y-88875107D01*
X150932669Y-88918796D01*
X150932674Y-88918797D01*
X150934919Y-88920024D01*
X150936734Y-88921839D01*
X150939769Y-88924111D01*
X150939442Y-88924546D01*
X150984328Y-88969426D01*
X150999499Y-89028860D01*
X150999499Y-89079054D01*
X150999498Y-89079054D01*
X151040423Y-89231785D01*
X151044136Y-89238216D01*
X151119477Y-89368712D01*
X151119481Y-89368717D01*
X151238349Y-89487585D01*
X151238355Y-89487590D01*
X151833220Y-90082455D01*
X151866705Y-90143778D01*
X151861721Y-90213470D01*
X151827171Y-90259624D01*
X151828728Y-90261180D01*
X151822451Y-90267457D01*
X151736206Y-90382664D01*
X151736202Y-90382671D01*
X151685908Y-90517517D01*
X151679501Y-90577115D01*
X151679501Y-90577123D01*
X151679500Y-90577135D01*
X151679500Y-93822870D01*
X151679501Y-93822876D01*
X151685908Y-93882483D01*
X151736202Y-94017328D01*
X151736206Y-94017335D01*
X151822452Y-94132544D01*
X151822455Y-94132547D01*
X151937664Y-94218793D01*
X151937671Y-94218797D01*
X152072517Y-94269091D01*
X152072516Y-94269091D01*
X152079444Y-94269835D01*
X152132127Y-94275500D01*
X153227872Y-94275499D01*
X153287483Y-94269091D01*
X153422331Y-94218796D01*
X153537546Y-94132546D01*
X153623796Y-94017331D01*
X153674091Y-93882483D01*
X153680500Y-93822873D01*
X153680499Y-90577128D01*
X153674091Y-90517517D01*
X153674090Y-90517515D01*
X153623797Y-90382671D01*
X153623793Y-90382664D01*
X153537547Y-90267455D01*
X153537544Y-90267452D01*
X153422334Y-90181205D01*
X153422333Y-90181204D01*
X153381166Y-90165850D01*
X153325233Y-90123979D01*
X153300817Y-90058514D01*
X153300501Y-90049669D01*
X153300501Y-90020945D01*
X153300501Y-90020944D01*
X153300501Y-90020943D01*
X153259577Y-89868215D01*
X153224936Y-89808215D01*
X153201843Y-89768216D01*
X153184400Y-89738004D01*
X153167927Y-89670103D01*
X153190780Y-89604077D01*
X153245701Y-89560886D01*
X153315255Y-89554245D01*
X153377357Y-89586261D01*
X153379468Y-89588323D01*
X154156717Y-90365570D01*
X154156727Y-90365579D01*
X154184164Y-90387690D01*
X154224011Y-90445083D01*
X154227036Y-90512743D01*
X154225908Y-90517515D01*
X154222014Y-90553739D01*
X154219501Y-90577123D01*
X154219500Y-90577134D01*
X154219500Y-93822869D01*
X154219501Y-93822875D01*
X154225908Y-93882482D01*
X154276202Y-94017327D01*
X154276206Y-94017334D01*
X154362452Y-94132543D01*
X154362455Y-94132546D01*
X154477664Y-94218792D01*
X154477671Y-94218796D01*
X154612517Y-94269090D01*
X154612516Y-94269090D01*
X154619444Y-94269834D01*
X154672127Y-94275499D01*
X155767872Y-94275498D01*
X155827483Y-94269090D01*
X155962331Y-94218795D01*
X156077546Y-94132545D01*
X156163796Y-94017330D01*
X156214091Y-93882482D01*
X156220500Y-93822872D01*
X156220499Y-90577127D01*
X156214091Y-90517516D01*
X156204729Y-90492416D01*
X156163797Y-90382670D01*
X156163793Y-90382663D01*
X156077547Y-90267454D01*
X156077544Y-90267451D01*
X155962335Y-90181205D01*
X155962328Y-90181201D01*
X155881167Y-90150930D01*
X155825233Y-90109059D01*
X155800816Y-90043594D01*
X155800500Y-90034748D01*
X155800500Y-90020946D01*
X155800499Y-90020939D01*
X155785624Y-89965423D01*
X155759577Y-89868215D01*
X155724936Y-89808215D01*
X155680520Y-89731284D01*
X155588617Y-89639381D01*
X155584264Y-89633919D01*
X155573599Y-89607774D01*
X155560069Y-89582993D01*
X155560344Y-89575276D01*
X155557876Y-89569224D01*
X155561199Y-89551354D01*
X155562032Y-89528057D01*
X155561721Y-89528013D01*
X155562137Y-89525114D01*
X155562260Y-89521693D01*
X155562980Y-89519240D01*
X155562983Y-89519234D01*
X155583464Y-89376777D01*
X155571936Y-89296596D01*
X155562983Y-89234319D01*
X155503196Y-89103406D01*
X155503195Y-89103405D01*
X155503195Y-89103404D01*
X155465576Y-89056721D01*
X155465571Y-89056716D01*
X155465567Y-89056711D01*
X154521034Y-88112181D01*
X154487549Y-88050858D01*
X154492533Y-87981167D01*
X154534404Y-87925233D01*
X154599869Y-87900816D01*
X154608715Y-87900500D01*
X154699903Y-87900500D01*
X154766942Y-87920185D01*
G37*
%TD.AperFunction*%
%TD*%
M02*
