%TF.GenerationSoftware,KiCad,Pcbnew,9.0.6*%
%TF.CreationDate,2026-02-19T22:08:45+11:00*%
%TF.ProjectId,Cooee_keyboard_68mm,436f6f65-655f-46b6-9579-626f6172645f,rev?*%
%TF.SameCoordinates,Original*%
%TF.FileFunction,Legend,Top*%
%TF.FilePolarity,Positive*%
%FSLAX46Y46*%
G04 Gerber Fmt 4.6, Leading zero omitted, Abs format (unit mm)*
G04 Created by KiCad (PCBNEW 9.0.6) date 2026-02-19 22:08:45*
%MOMM*%
%LPD*%
G01*
G04 APERTURE LIST*
%ADD10C,0.100000*%
%ADD11C,0.300000*%
%ADD12C,0.150000*%
%ADD13C,0.120000*%
%ADD14C,0.127000*%
G04 APERTURE END LIST*
D10*
X133700000Y-121762419D02*
X133509524Y-121762419D01*
X133509524Y-121762419D02*
X133414286Y-121810038D01*
X133414286Y-121810038D02*
X133366667Y-121857657D01*
X133366667Y-121857657D02*
X133271429Y-122000514D01*
X133271429Y-122000514D02*
X133223810Y-122190990D01*
X133223810Y-122190990D02*
X133223810Y-122571942D01*
X133223810Y-122571942D02*
X133271429Y-122667180D01*
X133271429Y-122667180D02*
X133319048Y-122714800D01*
X133319048Y-122714800D02*
X133414286Y-122762419D01*
X133414286Y-122762419D02*
X133604762Y-122762419D01*
X133604762Y-122762419D02*
X133700000Y-122714800D01*
X133700000Y-122714800D02*
X133747619Y-122667180D01*
X133747619Y-122667180D02*
X133795238Y-122571942D01*
X133795238Y-122571942D02*
X133795238Y-122333847D01*
X133795238Y-122333847D02*
X133747619Y-122238609D01*
X133747619Y-122238609D02*
X133700000Y-122190990D01*
X133700000Y-122190990D02*
X133604762Y-122143371D01*
X133604762Y-122143371D02*
X133414286Y-122143371D01*
X133414286Y-122143371D02*
X133319048Y-122190990D01*
X133319048Y-122190990D02*
X133271429Y-122238609D01*
X133271429Y-122238609D02*
X133223810Y-122333847D01*
X134652381Y-121762419D02*
X134461905Y-121762419D01*
X134461905Y-121762419D02*
X134366667Y-121810038D01*
X134366667Y-121810038D02*
X134319048Y-121857657D01*
X134319048Y-121857657D02*
X134223810Y-122000514D01*
X134223810Y-122000514D02*
X134176191Y-122190990D01*
X134176191Y-122190990D02*
X134176191Y-122571942D01*
X134176191Y-122571942D02*
X134223810Y-122667180D01*
X134223810Y-122667180D02*
X134271429Y-122714800D01*
X134271429Y-122714800D02*
X134366667Y-122762419D01*
X134366667Y-122762419D02*
X134557143Y-122762419D01*
X134557143Y-122762419D02*
X134652381Y-122714800D01*
X134652381Y-122714800D02*
X134700000Y-122667180D01*
X134700000Y-122667180D02*
X134747619Y-122571942D01*
X134747619Y-122571942D02*
X134747619Y-122333847D01*
X134747619Y-122333847D02*
X134700000Y-122238609D01*
X134700000Y-122238609D02*
X134652381Y-122190990D01*
X134652381Y-122190990D02*
X134557143Y-122143371D01*
X134557143Y-122143371D02*
X134366667Y-122143371D01*
X134366667Y-122143371D02*
X134271429Y-122190990D01*
X134271429Y-122190990D02*
X134223810Y-122238609D01*
X134223810Y-122238609D02*
X134176191Y-122333847D01*
X135176191Y-122667180D02*
X135223810Y-122714800D01*
X135223810Y-122714800D02*
X135176191Y-122762419D01*
X135176191Y-122762419D02*
X135128572Y-122714800D01*
X135128572Y-122714800D02*
X135176191Y-122667180D01*
X135176191Y-122667180D02*
X135176191Y-122762419D01*
X135557143Y-121762419D02*
X136223809Y-121762419D01*
X136223809Y-121762419D02*
X135795238Y-122762419D01*
X116775000Y-117300000D02*
X116775000Y-123991420D01*
X183475000Y-123991420D02*
X183475000Y-117300000D01*
X116775000Y-123405000D02*
X183475000Y-123405000D01*
X116775000Y-123405000D02*
X117901504Y-122818579D01*
X116775000Y-123405000D02*
X117901504Y-123991421D01*
X183475000Y-123405000D02*
X182348496Y-123991421D01*
X183475000Y-123405000D02*
X182348496Y-122818579D01*
D11*
X154703571Y-108835804D02*
X154703571Y-109888185D01*
X154703571Y-109888185D02*
X154765476Y-110011995D01*
X154765476Y-110011995D02*
X154827381Y-110073900D01*
X154827381Y-110073900D02*
X154951190Y-110135804D01*
X154951190Y-110135804D02*
X155198809Y-110135804D01*
X155198809Y-110135804D02*
X155322619Y-110073900D01*
X155322619Y-110073900D02*
X155384524Y-110011995D01*
X155384524Y-110011995D02*
X155446428Y-109888185D01*
X155446428Y-109888185D02*
X155446428Y-108835804D01*
X156065476Y-110135804D02*
X156065476Y-108835804D01*
X156065476Y-108835804D02*
X156560714Y-108835804D01*
X156560714Y-108835804D02*
X156684524Y-108897709D01*
X156684524Y-108897709D02*
X156746429Y-108959614D01*
X156746429Y-108959614D02*
X156808333Y-109083423D01*
X156808333Y-109083423D02*
X156808333Y-109269138D01*
X156808333Y-109269138D02*
X156746429Y-109392947D01*
X156746429Y-109392947D02*
X156684524Y-109454852D01*
X156684524Y-109454852D02*
X156560714Y-109516757D01*
X156560714Y-109516757D02*
X156065476Y-109516757D01*
D12*
X143138814Y-98529819D02*
X143138814Y-97529819D01*
X143138814Y-97529819D02*
X143376909Y-97529819D01*
X143376909Y-97529819D02*
X143519766Y-97577438D01*
X143519766Y-97577438D02*
X143615004Y-97672676D01*
X143615004Y-97672676D02*
X143662623Y-97767914D01*
X143662623Y-97767914D02*
X143710242Y-97958390D01*
X143710242Y-97958390D02*
X143710242Y-98101247D01*
X143710242Y-98101247D02*
X143662623Y-98291723D01*
X143662623Y-98291723D02*
X143615004Y-98386961D01*
X143615004Y-98386961D02*
X143519766Y-98482200D01*
X143519766Y-98482200D02*
X143376909Y-98529819D01*
X143376909Y-98529819D02*
X143138814Y-98529819D01*
X144091195Y-97625057D02*
X144138814Y-97577438D01*
X144138814Y-97577438D02*
X144234052Y-97529819D01*
X144234052Y-97529819D02*
X144472147Y-97529819D01*
X144472147Y-97529819D02*
X144567385Y-97577438D01*
X144567385Y-97577438D02*
X144615004Y-97625057D01*
X144615004Y-97625057D02*
X144662623Y-97720295D01*
X144662623Y-97720295D02*
X144662623Y-97815533D01*
X144662623Y-97815533D02*
X144615004Y-97958390D01*
X144615004Y-97958390D02*
X144043576Y-98529819D01*
X144043576Y-98529819D02*
X144662623Y-98529819D01*
X145281671Y-97529819D02*
X145376909Y-97529819D01*
X145376909Y-97529819D02*
X145472147Y-97577438D01*
X145472147Y-97577438D02*
X145519766Y-97625057D01*
X145519766Y-97625057D02*
X145567385Y-97720295D01*
X145567385Y-97720295D02*
X145615004Y-97910771D01*
X145615004Y-97910771D02*
X145615004Y-98148866D01*
X145615004Y-98148866D02*
X145567385Y-98339342D01*
X145567385Y-98339342D02*
X145519766Y-98434580D01*
X145519766Y-98434580D02*
X145472147Y-98482200D01*
X145472147Y-98482200D02*
X145376909Y-98529819D01*
X145376909Y-98529819D02*
X145281671Y-98529819D01*
X145281671Y-98529819D02*
X145186433Y-98482200D01*
X145186433Y-98482200D02*
X145138814Y-98434580D01*
X145138814Y-98434580D02*
X145091195Y-98339342D01*
X145091195Y-98339342D02*
X145043576Y-98148866D01*
X145043576Y-98148866D02*
X145043576Y-97910771D01*
X145043576Y-97910771D02*
X145091195Y-97720295D01*
X145091195Y-97720295D02*
X145138814Y-97625057D01*
X145138814Y-97625057D02*
X145186433Y-97577438D01*
X145186433Y-97577438D02*
X145281671Y-97529819D01*
X170010714Y-113654819D02*
X170010714Y-112654819D01*
X170010714Y-112654819D02*
X170248809Y-112654819D01*
X170248809Y-112654819D02*
X170391666Y-112702438D01*
X170391666Y-112702438D02*
X170486904Y-112797676D01*
X170486904Y-112797676D02*
X170534523Y-112892914D01*
X170534523Y-112892914D02*
X170582142Y-113083390D01*
X170582142Y-113083390D02*
X170582142Y-113226247D01*
X170582142Y-113226247D02*
X170534523Y-113416723D01*
X170534523Y-113416723D02*
X170486904Y-113511961D01*
X170486904Y-113511961D02*
X170391666Y-113607200D01*
X170391666Y-113607200D02*
X170248809Y-113654819D01*
X170248809Y-113654819D02*
X170010714Y-113654819D01*
X171486904Y-112654819D02*
X171010714Y-112654819D01*
X171010714Y-112654819D02*
X170963095Y-113131009D01*
X170963095Y-113131009D02*
X171010714Y-113083390D01*
X171010714Y-113083390D02*
X171105952Y-113035771D01*
X171105952Y-113035771D02*
X171344047Y-113035771D01*
X171344047Y-113035771D02*
X171439285Y-113083390D01*
X171439285Y-113083390D02*
X171486904Y-113131009D01*
X171486904Y-113131009D02*
X171534523Y-113226247D01*
X171534523Y-113226247D02*
X171534523Y-113464342D01*
X171534523Y-113464342D02*
X171486904Y-113559580D01*
X171486904Y-113559580D02*
X171439285Y-113607200D01*
X171439285Y-113607200D02*
X171344047Y-113654819D01*
X171344047Y-113654819D02*
X171105952Y-113654819D01*
X171105952Y-113654819D02*
X171010714Y-113607200D01*
X171010714Y-113607200D02*
X170963095Y-113559580D01*
X171915476Y-112750057D02*
X171963095Y-112702438D01*
X171963095Y-112702438D02*
X172058333Y-112654819D01*
X172058333Y-112654819D02*
X172296428Y-112654819D01*
X172296428Y-112654819D02*
X172391666Y-112702438D01*
X172391666Y-112702438D02*
X172439285Y-112750057D01*
X172439285Y-112750057D02*
X172486904Y-112845295D01*
X172486904Y-112845295D02*
X172486904Y-112940533D01*
X172486904Y-112940533D02*
X172439285Y-113083390D01*
X172439285Y-113083390D02*
X171867857Y-113654819D01*
X171867857Y-113654819D02*
X172486904Y-113654819D01*
D11*
X160311871Y-83660804D02*
X160311871Y-84713185D01*
X160311871Y-84713185D02*
X160373776Y-84836995D01*
X160373776Y-84836995D02*
X160435681Y-84898900D01*
X160435681Y-84898900D02*
X160559490Y-84960804D01*
X160559490Y-84960804D02*
X160807109Y-84960804D01*
X160807109Y-84960804D02*
X160930919Y-84898900D01*
X160930919Y-84898900D02*
X160992824Y-84836995D01*
X160992824Y-84836995D02*
X161054728Y-84713185D01*
X161054728Y-84713185D02*
X161054728Y-83660804D01*
X149966666Y-100310804D02*
X150399999Y-101610804D01*
X150399999Y-101610804D02*
X150833333Y-100310804D01*
D12*
X141086905Y-109279819D02*
X141086905Y-108279819D01*
X141086905Y-108279819D02*
X141325000Y-108279819D01*
X141325000Y-108279819D02*
X141467857Y-108327438D01*
X141467857Y-108327438D02*
X141563095Y-108422676D01*
X141563095Y-108422676D02*
X141610714Y-108517914D01*
X141610714Y-108517914D02*
X141658333Y-108708390D01*
X141658333Y-108708390D02*
X141658333Y-108851247D01*
X141658333Y-108851247D02*
X141610714Y-109041723D01*
X141610714Y-109041723D02*
X141563095Y-109136961D01*
X141563095Y-109136961D02*
X141467857Y-109232200D01*
X141467857Y-109232200D02*
X141325000Y-109279819D01*
X141325000Y-109279819D02*
X141086905Y-109279819D01*
X142515476Y-108613152D02*
X142515476Y-109279819D01*
X142277381Y-108232200D02*
X142039286Y-108946485D01*
X142039286Y-108946485D02*
X142658333Y-108946485D01*
X118538095Y-114404819D02*
X118538095Y-113404819D01*
X118538095Y-113881009D02*
X119109523Y-113881009D01*
X119109523Y-114404819D02*
X119109523Y-113404819D01*
X119538095Y-113500057D02*
X119585714Y-113452438D01*
X119585714Y-113452438D02*
X119680952Y-113404819D01*
X119680952Y-113404819D02*
X119919047Y-113404819D01*
X119919047Y-113404819D02*
X120014285Y-113452438D01*
X120014285Y-113452438D02*
X120061904Y-113500057D01*
X120061904Y-113500057D02*
X120109523Y-113595295D01*
X120109523Y-113595295D02*
X120109523Y-113690533D01*
X120109523Y-113690533D02*
X120061904Y-113833390D01*
X120061904Y-113833390D02*
X119490476Y-114404819D01*
X119490476Y-114404819D02*
X120109523Y-114404819D01*
X132682914Y-90104819D02*
X132682914Y-89104819D01*
X132682914Y-89104819D02*
X132921009Y-89104819D01*
X132921009Y-89104819D02*
X133063866Y-89152438D01*
X133063866Y-89152438D02*
X133159104Y-89247676D01*
X133159104Y-89247676D02*
X133206723Y-89342914D01*
X133206723Y-89342914D02*
X133254342Y-89533390D01*
X133254342Y-89533390D02*
X133254342Y-89676247D01*
X133254342Y-89676247D02*
X133206723Y-89866723D01*
X133206723Y-89866723D02*
X133159104Y-89961961D01*
X133159104Y-89961961D02*
X133063866Y-90057200D01*
X133063866Y-90057200D02*
X132921009Y-90104819D01*
X132921009Y-90104819D02*
X132682914Y-90104819D01*
X134206723Y-90104819D02*
X133635295Y-90104819D01*
X133921009Y-90104819D02*
X133921009Y-89104819D01*
X133921009Y-89104819D02*
X133825771Y-89247676D01*
X133825771Y-89247676D02*
X133730533Y-89342914D01*
X133730533Y-89342914D02*
X133635295Y-89390533D01*
X135111485Y-89104819D02*
X134635295Y-89104819D01*
X134635295Y-89104819D02*
X134587676Y-89581009D01*
X134587676Y-89581009D02*
X134635295Y-89533390D01*
X134635295Y-89533390D02*
X134730533Y-89485771D01*
X134730533Y-89485771D02*
X134968628Y-89485771D01*
X134968628Y-89485771D02*
X135063866Y-89533390D01*
X135063866Y-89533390D02*
X135111485Y-89581009D01*
X135111485Y-89581009D02*
X135159104Y-89676247D01*
X135159104Y-89676247D02*
X135159104Y-89914342D01*
X135159104Y-89914342D02*
X135111485Y-90009580D01*
X135111485Y-90009580D02*
X135063866Y-90057200D01*
X135063866Y-90057200D02*
X134968628Y-90104819D01*
X134968628Y-90104819D02*
X134730533Y-90104819D01*
X134730533Y-90104819D02*
X134635295Y-90057200D01*
X134635295Y-90057200D02*
X134587676Y-90009580D01*
D11*
X172516666Y-118535804D02*
X172083333Y-117916757D01*
X171773809Y-118535804D02*
X171773809Y-117235804D01*
X171773809Y-117235804D02*
X172269047Y-117235804D01*
X172269047Y-117235804D02*
X172392857Y-117297709D01*
X172392857Y-117297709D02*
X172454762Y-117359614D01*
X172454762Y-117359614D02*
X172516666Y-117483423D01*
X172516666Y-117483423D02*
X172516666Y-117669138D01*
X172516666Y-117669138D02*
X172454762Y-117792947D01*
X172454762Y-117792947D02*
X172392857Y-117854852D01*
X172392857Y-117854852D02*
X172269047Y-117916757D01*
X172269047Y-117916757D02*
X171773809Y-117916757D01*
X173073809Y-118535804D02*
X173073809Y-117235804D01*
X174373810Y-117297709D02*
X174250000Y-117235804D01*
X174250000Y-117235804D02*
X174064286Y-117235804D01*
X174064286Y-117235804D02*
X173878572Y-117297709D01*
X173878572Y-117297709D02*
X173754762Y-117421519D01*
X173754762Y-117421519D02*
X173692857Y-117545328D01*
X173692857Y-117545328D02*
X173630953Y-117792947D01*
X173630953Y-117792947D02*
X173630953Y-117978661D01*
X173630953Y-117978661D02*
X173692857Y-118226280D01*
X173692857Y-118226280D02*
X173754762Y-118350090D01*
X173754762Y-118350090D02*
X173878572Y-118473900D01*
X173878572Y-118473900D02*
X174064286Y-118535804D01*
X174064286Y-118535804D02*
X174188095Y-118535804D01*
X174188095Y-118535804D02*
X174373810Y-118473900D01*
X174373810Y-118473900D02*
X174435714Y-118411995D01*
X174435714Y-118411995D02*
X174435714Y-117978661D01*
X174435714Y-117978661D02*
X174188095Y-117978661D01*
X174992857Y-118535804D02*
X174992857Y-117235804D01*
X174992857Y-117854852D02*
X175735714Y-117854852D01*
X175735714Y-118535804D02*
X175735714Y-117235804D01*
X176169048Y-117235804D02*
X176911905Y-117235804D01*
X176540477Y-118535804D02*
X176540477Y-117235804D01*
X118305952Y-109411995D02*
X118244048Y-109473900D01*
X118244048Y-109473900D02*
X118058333Y-109535804D01*
X118058333Y-109535804D02*
X117934524Y-109535804D01*
X117934524Y-109535804D02*
X117748810Y-109473900D01*
X117748810Y-109473900D02*
X117625000Y-109350090D01*
X117625000Y-109350090D02*
X117563095Y-109226280D01*
X117563095Y-109226280D02*
X117501191Y-108978661D01*
X117501191Y-108978661D02*
X117501191Y-108792947D01*
X117501191Y-108792947D02*
X117563095Y-108545328D01*
X117563095Y-108545328D02*
X117625000Y-108421519D01*
X117625000Y-108421519D02*
X117748810Y-108297709D01*
X117748810Y-108297709D02*
X117934524Y-108235804D01*
X117934524Y-108235804D02*
X118058333Y-108235804D01*
X118058333Y-108235804D02*
X118244048Y-108297709D01*
X118244048Y-108297709D02*
X118305952Y-108359614D01*
X118677381Y-108235804D02*
X119420238Y-108235804D01*
X119048810Y-109535804D02*
X119048810Y-108235804D01*
X120596428Y-109535804D02*
X120163095Y-108916757D01*
X119853571Y-109535804D02*
X119853571Y-108235804D01*
X119853571Y-108235804D02*
X120348809Y-108235804D01*
X120348809Y-108235804D02*
X120472619Y-108297709D01*
X120472619Y-108297709D02*
X120534524Y-108359614D01*
X120534524Y-108359614D02*
X120596428Y-108483423D01*
X120596428Y-108483423D02*
X120596428Y-108669138D01*
X120596428Y-108669138D02*
X120534524Y-108792947D01*
X120534524Y-108792947D02*
X120472619Y-108854852D01*
X120472619Y-108854852D02*
X120348809Y-108916757D01*
X120348809Y-108916757D02*
X119853571Y-108916757D01*
X121772619Y-109535804D02*
X121153571Y-109535804D01*
X121153571Y-109535804D02*
X121153571Y-108235804D01*
X150802381Y-119160804D02*
X150183333Y-119160804D01*
X150183333Y-119160804D02*
X150183333Y-117860804D01*
D12*
X149731514Y-106429819D02*
X149731514Y-105429819D01*
X149731514Y-105429819D02*
X149969609Y-105429819D01*
X149969609Y-105429819D02*
X150112466Y-105477438D01*
X150112466Y-105477438D02*
X150207704Y-105572676D01*
X150207704Y-105572676D02*
X150255323Y-105667914D01*
X150255323Y-105667914D02*
X150302942Y-105858390D01*
X150302942Y-105858390D02*
X150302942Y-106001247D01*
X150302942Y-106001247D02*
X150255323Y-106191723D01*
X150255323Y-106191723D02*
X150207704Y-106286961D01*
X150207704Y-106286961D02*
X150112466Y-106382200D01*
X150112466Y-106382200D02*
X149969609Y-106429819D01*
X149969609Y-106429819D02*
X149731514Y-106429819D01*
X150683895Y-105525057D02*
X150731514Y-105477438D01*
X150731514Y-105477438D02*
X150826752Y-105429819D01*
X150826752Y-105429819D02*
X151064847Y-105429819D01*
X151064847Y-105429819D02*
X151160085Y-105477438D01*
X151160085Y-105477438D02*
X151207704Y-105525057D01*
X151207704Y-105525057D02*
X151255323Y-105620295D01*
X151255323Y-105620295D02*
X151255323Y-105715533D01*
X151255323Y-105715533D02*
X151207704Y-105858390D01*
X151207704Y-105858390D02*
X150636276Y-106429819D01*
X150636276Y-106429819D02*
X151255323Y-106429819D01*
X152207704Y-106429819D02*
X151636276Y-106429819D01*
X151921990Y-106429819D02*
X151921990Y-105429819D01*
X151921990Y-105429819D02*
X151826752Y-105572676D01*
X151826752Y-105572676D02*
X151731514Y-105667914D01*
X151731514Y-105667914D02*
X151636276Y-105715533D01*
X156857614Y-98529819D02*
X156857614Y-97529819D01*
X156857614Y-97529819D02*
X157095709Y-97529819D01*
X157095709Y-97529819D02*
X157238566Y-97577438D01*
X157238566Y-97577438D02*
X157333804Y-97672676D01*
X157333804Y-97672676D02*
X157381423Y-97767914D01*
X157381423Y-97767914D02*
X157429042Y-97958390D01*
X157429042Y-97958390D02*
X157429042Y-98101247D01*
X157429042Y-98101247D02*
X157381423Y-98291723D01*
X157381423Y-98291723D02*
X157333804Y-98386961D01*
X157333804Y-98386961D02*
X157238566Y-98482200D01*
X157238566Y-98482200D02*
X157095709Y-98529819D01*
X157095709Y-98529819D02*
X156857614Y-98529819D01*
X157809995Y-97625057D02*
X157857614Y-97577438D01*
X157857614Y-97577438D02*
X157952852Y-97529819D01*
X157952852Y-97529819D02*
X158190947Y-97529819D01*
X158190947Y-97529819D02*
X158286185Y-97577438D01*
X158286185Y-97577438D02*
X158333804Y-97625057D01*
X158333804Y-97625057D02*
X158381423Y-97720295D01*
X158381423Y-97720295D02*
X158381423Y-97815533D01*
X158381423Y-97815533D02*
X158333804Y-97958390D01*
X158333804Y-97958390D02*
X157762376Y-98529819D01*
X157762376Y-98529819D02*
X158381423Y-98529819D01*
X159238566Y-97529819D02*
X159048090Y-97529819D01*
X159048090Y-97529819D02*
X158952852Y-97577438D01*
X158952852Y-97577438D02*
X158905233Y-97625057D01*
X158905233Y-97625057D02*
X158809995Y-97767914D01*
X158809995Y-97767914D02*
X158762376Y-97958390D01*
X158762376Y-97958390D02*
X158762376Y-98339342D01*
X158762376Y-98339342D02*
X158809995Y-98434580D01*
X158809995Y-98434580D02*
X158857614Y-98482200D01*
X158857614Y-98482200D02*
X158952852Y-98529819D01*
X158952852Y-98529819D02*
X159143328Y-98529819D01*
X159143328Y-98529819D02*
X159238566Y-98482200D01*
X159238566Y-98482200D02*
X159286185Y-98434580D01*
X159286185Y-98434580D02*
X159333804Y-98339342D01*
X159333804Y-98339342D02*
X159333804Y-98101247D01*
X159333804Y-98101247D02*
X159286185Y-98006009D01*
X159286185Y-98006009D02*
X159238566Y-97958390D01*
X159238566Y-97958390D02*
X159143328Y-97910771D01*
X159143328Y-97910771D02*
X158952852Y-97910771D01*
X158952852Y-97910771D02*
X158857614Y-97958390D01*
X158857614Y-97958390D02*
X158809995Y-98006009D01*
X158809995Y-98006009D02*
X158762376Y-98101247D01*
X173999614Y-90179819D02*
X173999614Y-89179819D01*
X173999614Y-89179819D02*
X174237709Y-89179819D01*
X174237709Y-89179819D02*
X174380566Y-89227438D01*
X174380566Y-89227438D02*
X174475804Y-89322676D01*
X174475804Y-89322676D02*
X174523423Y-89417914D01*
X174523423Y-89417914D02*
X174571042Y-89608390D01*
X174571042Y-89608390D02*
X174571042Y-89751247D01*
X174571042Y-89751247D02*
X174523423Y-89941723D01*
X174523423Y-89941723D02*
X174475804Y-90036961D01*
X174475804Y-90036961D02*
X174380566Y-90132200D01*
X174380566Y-90132200D02*
X174237709Y-90179819D01*
X174237709Y-90179819D02*
X173999614Y-90179819D01*
X175428185Y-89513152D02*
X175428185Y-90179819D01*
X175190090Y-89132200D02*
X174951995Y-89846485D01*
X174951995Y-89846485D02*
X175571042Y-89846485D01*
X175856757Y-89179819D02*
X176475804Y-89179819D01*
X176475804Y-89179819D02*
X176142471Y-89560771D01*
X176142471Y-89560771D02*
X176285328Y-89560771D01*
X176285328Y-89560771D02*
X176380566Y-89608390D01*
X176380566Y-89608390D02*
X176428185Y-89656009D01*
X176428185Y-89656009D02*
X176475804Y-89751247D01*
X176475804Y-89751247D02*
X176475804Y-89989342D01*
X176475804Y-89989342D02*
X176428185Y-90084580D01*
X176428185Y-90084580D02*
X176380566Y-90132200D01*
X176380566Y-90132200D02*
X176285328Y-90179819D01*
X176285328Y-90179819D02*
X175999614Y-90179819D01*
X175999614Y-90179819D02*
X175904376Y-90132200D01*
X175904376Y-90132200D02*
X175856757Y-90084580D01*
X135942614Y-106604819D02*
X135942614Y-105604819D01*
X135942614Y-105604819D02*
X136180709Y-105604819D01*
X136180709Y-105604819D02*
X136323566Y-105652438D01*
X136323566Y-105652438D02*
X136418804Y-105747676D01*
X136418804Y-105747676D02*
X136466423Y-105842914D01*
X136466423Y-105842914D02*
X136514042Y-106033390D01*
X136514042Y-106033390D02*
X136514042Y-106176247D01*
X136514042Y-106176247D02*
X136466423Y-106366723D01*
X136466423Y-106366723D02*
X136418804Y-106461961D01*
X136418804Y-106461961D02*
X136323566Y-106557200D01*
X136323566Y-106557200D02*
X136180709Y-106604819D01*
X136180709Y-106604819D02*
X135942614Y-106604819D01*
X137466423Y-106604819D02*
X136894995Y-106604819D01*
X137180709Y-106604819D02*
X137180709Y-105604819D01*
X137180709Y-105604819D02*
X137085471Y-105747676D01*
X137085471Y-105747676D02*
X136990233Y-105842914D01*
X136990233Y-105842914D02*
X136894995Y-105890533D01*
X138323566Y-105938152D02*
X138323566Y-106604819D01*
X138085471Y-105557200D02*
X137847376Y-106271485D01*
X137847376Y-106271485D02*
X138466423Y-106271485D01*
D11*
X177182143Y-109154852D02*
X177615477Y-109154852D01*
X177801191Y-109835804D02*
X177182143Y-109835804D01*
X177182143Y-109835804D02*
X177182143Y-108535804D01*
X177182143Y-108535804D02*
X177801191Y-108535804D01*
X178358333Y-109835804D02*
X178358333Y-108535804D01*
X178358333Y-108535804D02*
X179101190Y-109835804D01*
X179101190Y-109835804D02*
X179101190Y-108535804D01*
X179534524Y-108535804D02*
X180277381Y-108535804D01*
X179905953Y-109835804D02*
X179905953Y-108535804D01*
X180710714Y-109154852D02*
X181144048Y-109154852D01*
X181329762Y-109835804D02*
X180710714Y-109835804D01*
X180710714Y-109835804D02*
X180710714Y-108535804D01*
X180710714Y-108535804D02*
X181329762Y-108535804D01*
X182629761Y-109835804D02*
X182196428Y-109216757D01*
X181886904Y-109835804D02*
X181886904Y-108535804D01*
X181886904Y-108535804D02*
X182382142Y-108535804D01*
X182382142Y-108535804D02*
X182505952Y-108597709D01*
X182505952Y-108597709D02*
X182567857Y-108659614D01*
X182567857Y-108659614D02*
X182629761Y-108783423D01*
X182629761Y-108783423D02*
X182629761Y-108969138D01*
X182629761Y-108969138D02*
X182567857Y-109092947D01*
X182567857Y-109092947D02*
X182505952Y-109154852D01*
X182505952Y-109154852D02*
X182382142Y-109216757D01*
X182382142Y-109216757D02*
X181886904Y-109216757D01*
D12*
X142837114Y-106554819D02*
X142837114Y-105554819D01*
X142837114Y-105554819D02*
X143075209Y-105554819D01*
X143075209Y-105554819D02*
X143218066Y-105602438D01*
X143218066Y-105602438D02*
X143313304Y-105697676D01*
X143313304Y-105697676D02*
X143360923Y-105792914D01*
X143360923Y-105792914D02*
X143408542Y-105983390D01*
X143408542Y-105983390D02*
X143408542Y-106126247D01*
X143408542Y-106126247D02*
X143360923Y-106316723D01*
X143360923Y-106316723D02*
X143313304Y-106411961D01*
X143313304Y-106411961D02*
X143218066Y-106507200D01*
X143218066Y-106507200D02*
X143075209Y-106554819D01*
X143075209Y-106554819D02*
X142837114Y-106554819D01*
X144360923Y-106554819D02*
X143789495Y-106554819D01*
X144075209Y-106554819D02*
X144075209Y-105554819D01*
X144075209Y-105554819D02*
X143979971Y-105697676D01*
X143979971Y-105697676D02*
X143884733Y-105792914D01*
X143884733Y-105792914D02*
X143789495Y-105840533D01*
X144694257Y-105554819D02*
X145360923Y-105554819D01*
X145360923Y-105554819D02*
X144932352Y-106554819D01*
D11*
X170698823Y-93560804D02*
X170698823Y-92260804D01*
X171441680Y-93560804D02*
X170884538Y-92817947D01*
X171441680Y-92260804D02*
X170698823Y-93003661D01*
D12*
X147904819Y-119014285D02*
X146904819Y-119014285D01*
X146904819Y-119014285D02*
X146904819Y-118776190D01*
X146904819Y-118776190D02*
X146952438Y-118633333D01*
X146952438Y-118633333D02*
X147047676Y-118538095D01*
X147047676Y-118538095D02*
X147142914Y-118490476D01*
X147142914Y-118490476D02*
X147333390Y-118442857D01*
X147333390Y-118442857D02*
X147476247Y-118442857D01*
X147476247Y-118442857D02*
X147666723Y-118490476D01*
X147666723Y-118490476D02*
X147761961Y-118538095D01*
X147761961Y-118538095D02*
X147857200Y-118633333D01*
X147857200Y-118633333D02*
X147904819Y-118776190D01*
X147904819Y-118776190D02*
X147904819Y-119014285D01*
X147000057Y-118061904D02*
X146952438Y-118014285D01*
X146952438Y-118014285D02*
X146904819Y-117919047D01*
X146904819Y-117919047D02*
X146904819Y-117680952D01*
X146904819Y-117680952D02*
X146952438Y-117585714D01*
X146952438Y-117585714D02*
X147000057Y-117538095D01*
X147000057Y-117538095D02*
X147095295Y-117490476D01*
X147095295Y-117490476D02*
X147190533Y-117490476D01*
X147190533Y-117490476D02*
X147333390Y-117538095D01*
X147333390Y-117538095D02*
X147904819Y-118109523D01*
X147904819Y-118109523D02*
X147904819Y-117490476D01*
X147000057Y-117109523D02*
X146952438Y-117061904D01*
X146952438Y-117061904D02*
X146904819Y-116966666D01*
X146904819Y-116966666D02*
X146904819Y-116728571D01*
X146904819Y-116728571D02*
X146952438Y-116633333D01*
X146952438Y-116633333D02*
X147000057Y-116585714D01*
X147000057Y-116585714D02*
X147095295Y-116538095D01*
X147095295Y-116538095D02*
X147190533Y-116538095D01*
X147190533Y-116538095D02*
X147333390Y-116585714D01*
X147333390Y-116585714D02*
X147904819Y-117157142D01*
X147904819Y-117157142D02*
X147904819Y-116538095D01*
X163520414Y-106329819D02*
X163520414Y-105329819D01*
X163520414Y-105329819D02*
X163758509Y-105329819D01*
X163758509Y-105329819D02*
X163901366Y-105377438D01*
X163901366Y-105377438D02*
X163996604Y-105472676D01*
X163996604Y-105472676D02*
X164044223Y-105567914D01*
X164044223Y-105567914D02*
X164091842Y-105758390D01*
X164091842Y-105758390D02*
X164091842Y-105901247D01*
X164091842Y-105901247D02*
X164044223Y-106091723D01*
X164044223Y-106091723D02*
X163996604Y-106186961D01*
X163996604Y-106186961D02*
X163901366Y-106282200D01*
X163901366Y-106282200D02*
X163758509Y-106329819D01*
X163758509Y-106329819D02*
X163520414Y-106329819D01*
X164472795Y-105425057D02*
X164520414Y-105377438D01*
X164520414Y-105377438D02*
X164615652Y-105329819D01*
X164615652Y-105329819D02*
X164853747Y-105329819D01*
X164853747Y-105329819D02*
X164948985Y-105377438D01*
X164948985Y-105377438D02*
X164996604Y-105425057D01*
X164996604Y-105425057D02*
X165044223Y-105520295D01*
X165044223Y-105520295D02*
X165044223Y-105615533D01*
X165044223Y-105615533D02*
X164996604Y-105758390D01*
X164996604Y-105758390D02*
X164425176Y-106329819D01*
X164425176Y-106329819D02*
X165044223Y-106329819D01*
X165377557Y-105329819D02*
X166044223Y-105329819D01*
X166044223Y-105329819D02*
X165615652Y-106329819D01*
X170576314Y-98379819D02*
X170576314Y-97379819D01*
X170576314Y-97379819D02*
X170814409Y-97379819D01*
X170814409Y-97379819D02*
X170957266Y-97427438D01*
X170957266Y-97427438D02*
X171052504Y-97522676D01*
X171052504Y-97522676D02*
X171100123Y-97617914D01*
X171100123Y-97617914D02*
X171147742Y-97808390D01*
X171147742Y-97808390D02*
X171147742Y-97951247D01*
X171147742Y-97951247D02*
X171100123Y-98141723D01*
X171100123Y-98141723D02*
X171052504Y-98236961D01*
X171052504Y-98236961D02*
X170957266Y-98332200D01*
X170957266Y-98332200D02*
X170814409Y-98379819D01*
X170814409Y-98379819D02*
X170576314Y-98379819D01*
X172004885Y-97713152D02*
X172004885Y-98379819D01*
X171766790Y-97332200D02*
X171528695Y-98046485D01*
X171528695Y-98046485D02*
X172147742Y-98046485D01*
X173004885Y-97379819D02*
X172528695Y-97379819D01*
X172528695Y-97379819D02*
X172481076Y-97856009D01*
X172481076Y-97856009D02*
X172528695Y-97808390D01*
X172528695Y-97808390D02*
X172623933Y-97760771D01*
X172623933Y-97760771D02*
X172862028Y-97760771D01*
X172862028Y-97760771D02*
X172957266Y-97808390D01*
X172957266Y-97808390D02*
X173004885Y-97856009D01*
X173004885Y-97856009D02*
X173052504Y-97951247D01*
X173052504Y-97951247D02*
X173052504Y-98189342D01*
X173052504Y-98189342D02*
X173004885Y-98284580D01*
X173004885Y-98284580D02*
X172957266Y-98332200D01*
X172957266Y-98332200D02*
X172862028Y-98379819D01*
X172862028Y-98379819D02*
X172623933Y-98379819D01*
X172623933Y-98379819D02*
X172528695Y-98332200D01*
X172528695Y-98332200D02*
X172481076Y-98284580D01*
D11*
X142124968Y-79710804D02*
X142929730Y-79710804D01*
X142929730Y-79710804D02*
X142496396Y-80206042D01*
X142496396Y-80206042D02*
X142682111Y-80206042D01*
X142682111Y-80206042D02*
X142805920Y-80267947D01*
X142805920Y-80267947D02*
X142867825Y-80329852D01*
X142867825Y-80329852D02*
X142929730Y-80453661D01*
X142929730Y-80453661D02*
X142929730Y-80763185D01*
X142929730Y-80763185D02*
X142867825Y-80886995D01*
X142867825Y-80886995D02*
X142805920Y-80948900D01*
X142805920Y-80948900D02*
X142682111Y-81010804D01*
X142682111Y-81010804D02*
X142310682Y-81010804D01*
X142310682Y-81010804D02*
X142186873Y-80948900D01*
X142186873Y-80948900D02*
X142124968Y-80886995D01*
X149708720Y-80144138D02*
X149708720Y-81010804D01*
X149399196Y-79648900D02*
X149089673Y-80577471D01*
X149089673Y-80577471D02*
X149894434Y-80577471D01*
X150702976Y-92322709D02*
X150579166Y-92260804D01*
X150579166Y-92260804D02*
X150393452Y-92260804D01*
X150393452Y-92260804D02*
X150207738Y-92322709D01*
X150207738Y-92322709D02*
X150083928Y-92446519D01*
X150083928Y-92446519D02*
X150022023Y-92570328D01*
X150022023Y-92570328D02*
X149960119Y-92817947D01*
X149960119Y-92817947D02*
X149960119Y-93003661D01*
X149960119Y-93003661D02*
X150022023Y-93251280D01*
X150022023Y-93251280D02*
X150083928Y-93375090D01*
X150083928Y-93375090D02*
X150207738Y-93498900D01*
X150207738Y-93498900D02*
X150393452Y-93560804D01*
X150393452Y-93560804D02*
X150517261Y-93560804D01*
X150517261Y-93560804D02*
X150702976Y-93498900D01*
X150702976Y-93498900D02*
X150764880Y-93436995D01*
X150764880Y-93436995D02*
X150764880Y-93003661D01*
X150764880Y-93003661D02*
X150517261Y-93003661D01*
X136241923Y-93560804D02*
X136241923Y-92260804D01*
X136241923Y-92260804D02*
X136551447Y-92260804D01*
X136551447Y-92260804D02*
X136737161Y-92322709D01*
X136737161Y-92322709D02*
X136860971Y-92446519D01*
X136860971Y-92446519D02*
X136922876Y-92570328D01*
X136922876Y-92570328D02*
X136984780Y-92817947D01*
X136984780Y-92817947D02*
X136984780Y-93003661D01*
X136984780Y-93003661D02*
X136922876Y-93251280D01*
X136922876Y-93251280D02*
X136860971Y-93375090D01*
X136860971Y-93375090D02*
X136737161Y-93498900D01*
X136737161Y-93498900D02*
X136551447Y-93560804D01*
X136551447Y-93560804D02*
X136241923Y-93560804D01*
X157392857Y-100929852D02*
X157578571Y-100991757D01*
X157578571Y-100991757D02*
X157640476Y-101053661D01*
X157640476Y-101053661D02*
X157702380Y-101177471D01*
X157702380Y-101177471D02*
X157702380Y-101363185D01*
X157702380Y-101363185D02*
X157640476Y-101486995D01*
X157640476Y-101486995D02*
X157578571Y-101548900D01*
X157578571Y-101548900D02*
X157454761Y-101610804D01*
X157454761Y-101610804D02*
X156959523Y-101610804D01*
X156959523Y-101610804D02*
X156959523Y-100310804D01*
X156959523Y-100310804D02*
X157392857Y-100310804D01*
X157392857Y-100310804D02*
X157516666Y-100372709D01*
X157516666Y-100372709D02*
X157578571Y-100434614D01*
X157578571Y-100434614D02*
X157640476Y-100558423D01*
X157640476Y-100558423D02*
X157640476Y-100682233D01*
X157640476Y-100682233D02*
X157578571Y-100806042D01*
X157578571Y-100806042D02*
X157516666Y-100867947D01*
X157516666Y-100867947D02*
X157392857Y-100929852D01*
X157392857Y-100929852D02*
X156959523Y-100929852D01*
X159104761Y-116585804D02*
X159104761Y-115285804D01*
X159104761Y-115285804D02*
X159414285Y-115285804D01*
X159414285Y-115285804D02*
X159599999Y-115347709D01*
X159599999Y-115347709D02*
X159723809Y-115471519D01*
X159723809Y-115471519D02*
X159785714Y-115595328D01*
X159785714Y-115595328D02*
X159847618Y-115842947D01*
X159847618Y-115842947D02*
X159847618Y-116028661D01*
X159847618Y-116028661D02*
X159785714Y-116276280D01*
X159785714Y-116276280D02*
X159723809Y-116400090D01*
X159723809Y-116400090D02*
X159599999Y-116523900D01*
X159599999Y-116523900D02*
X159414285Y-116585804D01*
X159414285Y-116585804D02*
X159104761Y-116585804D01*
X160652380Y-115285804D02*
X160899999Y-115285804D01*
X160899999Y-115285804D02*
X161023809Y-115347709D01*
X161023809Y-115347709D02*
X161147618Y-115471519D01*
X161147618Y-115471519D02*
X161209523Y-115719138D01*
X161209523Y-115719138D02*
X161209523Y-116152471D01*
X161209523Y-116152471D02*
X161147618Y-116400090D01*
X161147618Y-116400090D02*
X161023809Y-116523900D01*
X161023809Y-116523900D02*
X160899999Y-116585804D01*
X160899999Y-116585804D02*
X160652380Y-116585804D01*
X160652380Y-116585804D02*
X160528571Y-116523900D01*
X160528571Y-116523900D02*
X160404761Y-116400090D01*
X160404761Y-116400090D02*
X160342857Y-116152471D01*
X160342857Y-116152471D02*
X160342857Y-115719138D01*
X160342857Y-115719138D02*
X160404761Y-115471519D01*
X160404761Y-115471519D02*
X160528571Y-115347709D01*
X160528571Y-115347709D02*
X160652380Y-115285804D01*
X161642857Y-115285804D02*
X161952381Y-116585804D01*
X161952381Y-116585804D02*
X162200000Y-115657233D01*
X162200000Y-115657233D02*
X162447619Y-116585804D01*
X162447619Y-116585804D02*
X162757143Y-115285804D01*
X163252380Y-116585804D02*
X163252380Y-115285804D01*
X163252380Y-115285804D02*
X163995237Y-116585804D01*
X163995237Y-116585804D02*
X163995237Y-115285804D01*
D12*
X122199403Y-98429819D02*
X122199403Y-97429819D01*
X122199403Y-97429819D02*
X122437498Y-97429819D01*
X122437498Y-97429819D02*
X122580355Y-97477438D01*
X122580355Y-97477438D02*
X122675593Y-97572676D01*
X122675593Y-97572676D02*
X122723212Y-97667914D01*
X122723212Y-97667914D02*
X122770831Y-97858390D01*
X122770831Y-97858390D02*
X122770831Y-98001247D01*
X122770831Y-98001247D02*
X122723212Y-98191723D01*
X122723212Y-98191723D02*
X122675593Y-98286961D01*
X122675593Y-98286961D02*
X122580355Y-98382200D01*
X122580355Y-98382200D02*
X122437498Y-98429819D01*
X122437498Y-98429819D02*
X122199403Y-98429819D01*
X123342260Y-97858390D02*
X123247022Y-97810771D01*
X123247022Y-97810771D02*
X123199403Y-97763152D01*
X123199403Y-97763152D02*
X123151784Y-97667914D01*
X123151784Y-97667914D02*
X123151784Y-97620295D01*
X123151784Y-97620295D02*
X123199403Y-97525057D01*
X123199403Y-97525057D02*
X123247022Y-97477438D01*
X123247022Y-97477438D02*
X123342260Y-97429819D01*
X123342260Y-97429819D02*
X123532736Y-97429819D01*
X123532736Y-97429819D02*
X123627974Y-97477438D01*
X123627974Y-97477438D02*
X123675593Y-97525057D01*
X123675593Y-97525057D02*
X123723212Y-97620295D01*
X123723212Y-97620295D02*
X123723212Y-97667914D01*
X123723212Y-97667914D02*
X123675593Y-97763152D01*
X123675593Y-97763152D02*
X123627974Y-97810771D01*
X123627974Y-97810771D02*
X123532736Y-97858390D01*
X123532736Y-97858390D02*
X123342260Y-97858390D01*
X123342260Y-97858390D02*
X123247022Y-97906009D01*
X123247022Y-97906009D02*
X123199403Y-97953628D01*
X123199403Y-97953628D02*
X123151784Y-98048866D01*
X123151784Y-98048866D02*
X123151784Y-98239342D01*
X123151784Y-98239342D02*
X123199403Y-98334580D01*
X123199403Y-98334580D02*
X123247022Y-98382200D01*
X123247022Y-98382200D02*
X123342260Y-98429819D01*
X123342260Y-98429819D02*
X123532736Y-98429819D01*
X123532736Y-98429819D02*
X123627974Y-98382200D01*
X123627974Y-98382200D02*
X123675593Y-98334580D01*
X123675593Y-98334580D02*
X123723212Y-98239342D01*
X123723212Y-98239342D02*
X123723212Y-98048866D01*
X123723212Y-98048866D02*
X123675593Y-97953628D01*
X123675593Y-97953628D02*
X123627974Y-97906009D01*
X123627974Y-97906009D02*
X123532736Y-97858390D01*
D11*
X122565476Y-93089376D02*
X123184523Y-93089376D01*
X122441666Y-93460804D02*
X122874999Y-92160804D01*
X122874999Y-92160804D02*
X123308333Y-93460804D01*
D12*
X136279514Y-98529819D02*
X136279514Y-97529819D01*
X136279514Y-97529819D02*
X136517609Y-97529819D01*
X136517609Y-97529819D02*
X136660466Y-97577438D01*
X136660466Y-97577438D02*
X136755704Y-97672676D01*
X136755704Y-97672676D02*
X136803323Y-97767914D01*
X136803323Y-97767914D02*
X136850942Y-97958390D01*
X136850942Y-97958390D02*
X136850942Y-98101247D01*
X136850942Y-98101247D02*
X136803323Y-98291723D01*
X136803323Y-98291723D02*
X136755704Y-98386961D01*
X136755704Y-98386961D02*
X136660466Y-98482200D01*
X136660466Y-98482200D02*
X136517609Y-98529819D01*
X136517609Y-98529819D02*
X136279514Y-98529819D01*
X137803323Y-98529819D02*
X137231895Y-98529819D01*
X137517609Y-98529819D02*
X137517609Y-97529819D01*
X137517609Y-97529819D02*
X137422371Y-97672676D01*
X137422371Y-97672676D02*
X137327133Y-97767914D01*
X137327133Y-97767914D02*
X137231895Y-97815533D01*
X138660466Y-97529819D02*
X138469990Y-97529819D01*
X138469990Y-97529819D02*
X138374752Y-97577438D01*
X138374752Y-97577438D02*
X138327133Y-97625057D01*
X138327133Y-97625057D02*
X138231895Y-97767914D01*
X138231895Y-97767914D02*
X138184276Y-97958390D01*
X138184276Y-97958390D02*
X138184276Y-98339342D01*
X138184276Y-98339342D02*
X138231895Y-98434580D01*
X138231895Y-98434580D02*
X138279514Y-98482200D01*
X138279514Y-98482200D02*
X138374752Y-98529819D01*
X138374752Y-98529819D02*
X138565228Y-98529819D01*
X138565228Y-98529819D02*
X138660466Y-98482200D01*
X138660466Y-98482200D02*
X138708085Y-98434580D01*
X138708085Y-98434580D02*
X138755704Y-98339342D01*
X138755704Y-98339342D02*
X138755704Y-98101247D01*
X138755704Y-98101247D02*
X138708085Y-98006009D01*
X138708085Y-98006009D02*
X138660466Y-97958390D01*
X138660466Y-97958390D02*
X138565228Y-97910771D01*
X138565228Y-97910771D02*
X138374752Y-97910771D01*
X138374752Y-97910771D02*
X138279514Y-97958390D01*
X138279514Y-97958390D02*
X138231895Y-98006009D01*
X138231895Y-98006009D02*
X138184276Y-98101247D01*
D11*
X140419080Y-84960804D02*
X139985747Y-84341757D01*
X139676223Y-84960804D02*
X139676223Y-83660804D01*
X139676223Y-83660804D02*
X140171461Y-83660804D01*
X140171461Y-83660804D02*
X140295271Y-83722709D01*
X140295271Y-83722709D02*
X140357176Y-83784614D01*
X140357176Y-83784614D02*
X140419080Y-83908423D01*
X140419080Y-83908423D02*
X140419080Y-84094138D01*
X140419080Y-84094138D02*
X140357176Y-84217947D01*
X140357176Y-84217947D02*
X140295271Y-84279852D01*
X140295271Y-84279852D02*
X140171461Y-84341757D01*
X140171461Y-84341757D02*
X139676223Y-84341757D01*
X176948392Y-80267947D02*
X176824582Y-80206042D01*
X176824582Y-80206042D02*
X176762677Y-80144138D01*
X176762677Y-80144138D02*
X176700773Y-80020328D01*
X176700773Y-80020328D02*
X176700773Y-79958423D01*
X176700773Y-79958423D02*
X176762677Y-79834614D01*
X176762677Y-79834614D02*
X176824582Y-79772709D01*
X176824582Y-79772709D02*
X176948392Y-79710804D01*
X176948392Y-79710804D02*
X177196011Y-79710804D01*
X177196011Y-79710804D02*
X177319820Y-79772709D01*
X177319820Y-79772709D02*
X177381725Y-79834614D01*
X177381725Y-79834614D02*
X177443630Y-79958423D01*
X177443630Y-79958423D02*
X177443630Y-80020328D01*
X177443630Y-80020328D02*
X177381725Y-80144138D01*
X177381725Y-80144138D02*
X177319820Y-80206042D01*
X177319820Y-80206042D02*
X177196011Y-80267947D01*
X177196011Y-80267947D02*
X176948392Y-80267947D01*
X176948392Y-80267947D02*
X176824582Y-80329852D01*
X176824582Y-80329852D02*
X176762677Y-80391757D01*
X176762677Y-80391757D02*
X176700773Y-80515566D01*
X176700773Y-80515566D02*
X176700773Y-80763185D01*
X176700773Y-80763185D02*
X176762677Y-80886995D01*
X176762677Y-80886995D02*
X176824582Y-80948900D01*
X176824582Y-80948900D02*
X176948392Y-81010804D01*
X176948392Y-81010804D02*
X177196011Y-81010804D01*
X177196011Y-81010804D02*
X177319820Y-80948900D01*
X177319820Y-80948900D02*
X177381725Y-80886995D01*
X177381725Y-80886995D02*
X177443630Y-80763185D01*
X177443630Y-80763185D02*
X177443630Y-80515566D01*
X177443630Y-80515566D02*
X177381725Y-80391757D01*
X177381725Y-80391757D02*
X177319820Y-80329852D01*
X177319820Y-80329852D02*
X177196011Y-80267947D01*
X169736068Y-79710804D02*
X170602734Y-79710804D01*
X170602734Y-79710804D02*
X170045592Y-81010804D01*
X178477381Y-81010804D02*
X178725000Y-81010804D01*
X178725000Y-81010804D02*
X178848810Y-80948900D01*
X178848810Y-80948900D02*
X178910714Y-80886995D01*
X178910714Y-80886995D02*
X179034524Y-80701280D01*
X179034524Y-80701280D02*
X179096429Y-80453661D01*
X179096429Y-80453661D02*
X179096429Y-79958423D01*
X179096429Y-79958423D02*
X179034524Y-79834614D01*
X179034524Y-79834614D02*
X178972619Y-79772709D01*
X178972619Y-79772709D02*
X178848810Y-79710804D01*
X178848810Y-79710804D02*
X178601191Y-79710804D01*
X178601191Y-79710804D02*
X178477381Y-79772709D01*
X178477381Y-79772709D02*
X178415476Y-79834614D01*
X178415476Y-79834614D02*
X178353572Y-79958423D01*
X178353572Y-79958423D02*
X178353572Y-80267947D01*
X178353572Y-80267947D02*
X178415476Y-80391757D01*
X178415476Y-80391757D02*
X178477381Y-80453661D01*
X178477381Y-80453661D02*
X178601191Y-80515566D01*
X178601191Y-80515566D02*
X178848810Y-80515566D01*
X178848810Y-80515566D02*
X178972619Y-80453661D01*
X178972619Y-80453661D02*
X179034524Y-80391757D01*
X179034524Y-80391757D02*
X179096429Y-80267947D01*
X129266667Y-100310804D02*
X130133333Y-100310804D01*
X130133333Y-100310804D02*
X129266667Y-101610804D01*
X129266667Y-101610804D02*
X130133333Y-101610804D01*
D12*
X153341314Y-89979819D02*
X153341314Y-88979819D01*
X153341314Y-88979819D02*
X153579409Y-88979819D01*
X153579409Y-88979819D02*
X153722266Y-89027438D01*
X153722266Y-89027438D02*
X153817504Y-89122676D01*
X153817504Y-89122676D02*
X153865123Y-89217914D01*
X153865123Y-89217914D02*
X153912742Y-89408390D01*
X153912742Y-89408390D02*
X153912742Y-89551247D01*
X153912742Y-89551247D02*
X153865123Y-89741723D01*
X153865123Y-89741723D02*
X153817504Y-89836961D01*
X153817504Y-89836961D02*
X153722266Y-89932200D01*
X153722266Y-89932200D02*
X153579409Y-89979819D01*
X153579409Y-89979819D02*
X153341314Y-89979819D01*
X154293695Y-89075057D02*
X154341314Y-89027438D01*
X154341314Y-89027438D02*
X154436552Y-88979819D01*
X154436552Y-88979819D02*
X154674647Y-88979819D01*
X154674647Y-88979819D02*
X154769885Y-89027438D01*
X154769885Y-89027438D02*
X154817504Y-89075057D01*
X154817504Y-89075057D02*
X154865123Y-89170295D01*
X154865123Y-89170295D02*
X154865123Y-89265533D01*
X154865123Y-89265533D02*
X154817504Y-89408390D01*
X154817504Y-89408390D02*
X154246076Y-89979819D01*
X154246076Y-89979819D02*
X154865123Y-89979819D01*
X155769885Y-88979819D02*
X155293695Y-88979819D01*
X155293695Y-88979819D02*
X155246076Y-89456009D01*
X155246076Y-89456009D02*
X155293695Y-89408390D01*
X155293695Y-89408390D02*
X155388933Y-89360771D01*
X155388933Y-89360771D02*
X155627028Y-89360771D01*
X155627028Y-89360771D02*
X155722266Y-89408390D01*
X155722266Y-89408390D02*
X155769885Y-89456009D01*
X155769885Y-89456009D02*
X155817504Y-89551247D01*
X155817504Y-89551247D02*
X155817504Y-89789342D01*
X155817504Y-89789342D02*
X155769885Y-89884580D01*
X155769885Y-89884580D02*
X155722266Y-89932200D01*
X155722266Y-89932200D02*
X155627028Y-89979819D01*
X155627028Y-89979819D02*
X155388933Y-89979819D01*
X155388933Y-89979819D02*
X155293695Y-89932200D01*
X155293695Y-89932200D02*
X155246076Y-89884580D01*
X134558333Y-110804819D02*
X134225000Y-110328628D01*
X133986905Y-110804819D02*
X133986905Y-109804819D01*
X133986905Y-109804819D02*
X134367857Y-109804819D01*
X134367857Y-109804819D02*
X134463095Y-109852438D01*
X134463095Y-109852438D02*
X134510714Y-109900057D01*
X134510714Y-109900057D02*
X134558333Y-109995295D01*
X134558333Y-109995295D02*
X134558333Y-110138152D01*
X134558333Y-110138152D02*
X134510714Y-110233390D01*
X134510714Y-110233390D02*
X134463095Y-110281009D01*
X134463095Y-110281009D02*
X134367857Y-110328628D01*
X134367857Y-110328628D02*
X133986905Y-110328628D01*
X134939286Y-109900057D02*
X134986905Y-109852438D01*
X134986905Y-109852438D02*
X135082143Y-109804819D01*
X135082143Y-109804819D02*
X135320238Y-109804819D01*
X135320238Y-109804819D02*
X135415476Y-109852438D01*
X135415476Y-109852438D02*
X135463095Y-109900057D01*
X135463095Y-109900057D02*
X135510714Y-109995295D01*
X135510714Y-109995295D02*
X135510714Y-110090533D01*
X135510714Y-110090533D02*
X135463095Y-110233390D01*
X135463095Y-110233390D02*
X134891667Y-110804819D01*
X134891667Y-110804819D02*
X135510714Y-110804819D01*
X120961905Y-104979819D02*
X120961905Y-103979819D01*
X120961905Y-103979819D02*
X121200000Y-103979819D01*
X121200000Y-103979819D02*
X121342857Y-104027438D01*
X121342857Y-104027438D02*
X121438095Y-104122676D01*
X121438095Y-104122676D02*
X121485714Y-104217914D01*
X121485714Y-104217914D02*
X121533333Y-104408390D01*
X121533333Y-104408390D02*
X121533333Y-104551247D01*
X121533333Y-104551247D02*
X121485714Y-104741723D01*
X121485714Y-104741723D02*
X121438095Y-104836961D01*
X121438095Y-104836961D02*
X121342857Y-104932200D01*
X121342857Y-104932200D02*
X121200000Y-104979819D01*
X121200000Y-104979819D02*
X120961905Y-104979819D01*
X121866667Y-103979819D02*
X122485714Y-103979819D01*
X122485714Y-103979819D02*
X122152381Y-104360771D01*
X122152381Y-104360771D02*
X122295238Y-104360771D01*
X122295238Y-104360771D02*
X122390476Y-104408390D01*
X122390476Y-104408390D02*
X122438095Y-104456009D01*
X122438095Y-104456009D02*
X122485714Y-104551247D01*
X122485714Y-104551247D02*
X122485714Y-104789342D01*
X122485714Y-104789342D02*
X122438095Y-104884580D01*
X122438095Y-104884580D02*
X122390476Y-104932200D01*
X122390476Y-104932200D02*
X122295238Y-104979819D01*
X122295238Y-104979819D02*
X122009524Y-104979819D01*
X122009524Y-104979819D02*
X121914286Y-104932200D01*
X121914286Y-104932200D02*
X121866667Y-104884580D01*
X167333333Y-109279819D02*
X167000000Y-108803628D01*
X166761905Y-109279819D02*
X166761905Y-108279819D01*
X166761905Y-108279819D02*
X167142857Y-108279819D01*
X167142857Y-108279819D02*
X167238095Y-108327438D01*
X167238095Y-108327438D02*
X167285714Y-108375057D01*
X167285714Y-108375057D02*
X167333333Y-108470295D01*
X167333333Y-108470295D02*
X167333333Y-108613152D01*
X167333333Y-108613152D02*
X167285714Y-108708390D01*
X167285714Y-108708390D02*
X167238095Y-108756009D01*
X167238095Y-108756009D02*
X167142857Y-108803628D01*
X167142857Y-108803628D02*
X166761905Y-108803628D01*
X168190476Y-108279819D02*
X168000000Y-108279819D01*
X168000000Y-108279819D02*
X167904762Y-108327438D01*
X167904762Y-108327438D02*
X167857143Y-108375057D01*
X167857143Y-108375057D02*
X167761905Y-108517914D01*
X167761905Y-108517914D02*
X167714286Y-108708390D01*
X167714286Y-108708390D02*
X167714286Y-109089342D01*
X167714286Y-109089342D02*
X167761905Y-109184580D01*
X167761905Y-109184580D02*
X167809524Y-109232200D01*
X167809524Y-109232200D02*
X167904762Y-109279819D01*
X167904762Y-109279819D02*
X168095238Y-109279819D01*
X168095238Y-109279819D02*
X168190476Y-109232200D01*
X168190476Y-109232200D02*
X168238095Y-109184580D01*
X168238095Y-109184580D02*
X168285714Y-109089342D01*
X168285714Y-109089342D02*
X168285714Y-108851247D01*
X168285714Y-108851247D02*
X168238095Y-108756009D01*
X168238095Y-108756009D02*
X168190476Y-108708390D01*
X168190476Y-108708390D02*
X168095238Y-108660771D01*
X168095238Y-108660771D02*
X167904762Y-108660771D01*
X167904762Y-108660771D02*
X167809524Y-108708390D01*
X167809524Y-108708390D02*
X167761905Y-108756009D01*
X167761905Y-108756009D02*
X167714286Y-108851247D01*
X148651622Y-113080155D02*
X148651622Y-112080155D01*
X148651622Y-112080155D02*
X148889717Y-112080155D01*
X148889717Y-112080155D02*
X149032574Y-112127774D01*
X149032574Y-112127774D02*
X149127812Y-112223012D01*
X149127812Y-112223012D02*
X149175431Y-112318250D01*
X149175431Y-112318250D02*
X149223050Y-112508726D01*
X149223050Y-112508726D02*
X149223050Y-112651583D01*
X149223050Y-112651583D02*
X149175431Y-112842059D01*
X149175431Y-112842059D02*
X149127812Y-112937297D01*
X149127812Y-112937297D02*
X149032574Y-113032536D01*
X149032574Y-113032536D02*
X148889717Y-113080155D01*
X148889717Y-113080155D02*
X148651622Y-113080155D01*
X149699241Y-113080155D02*
X149889717Y-113080155D01*
X149889717Y-113080155D02*
X149984955Y-113032536D01*
X149984955Y-113032536D02*
X150032574Y-112984916D01*
X150032574Y-112984916D02*
X150127812Y-112842059D01*
X150127812Y-112842059D02*
X150175431Y-112651583D01*
X150175431Y-112651583D02*
X150175431Y-112270631D01*
X150175431Y-112270631D02*
X150127812Y-112175393D01*
X150127812Y-112175393D02*
X150080193Y-112127774D01*
X150080193Y-112127774D02*
X149984955Y-112080155D01*
X149984955Y-112080155D02*
X149794479Y-112080155D01*
X149794479Y-112080155D02*
X149699241Y-112127774D01*
X149699241Y-112127774D02*
X149651622Y-112175393D01*
X149651622Y-112175393D02*
X149604003Y-112270631D01*
X149604003Y-112270631D02*
X149604003Y-112508726D01*
X149604003Y-112508726D02*
X149651622Y-112603964D01*
X149651622Y-112603964D02*
X149699241Y-112651583D01*
X149699241Y-112651583D02*
X149794479Y-112699202D01*
X149794479Y-112699202D02*
X149984955Y-112699202D01*
X149984955Y-112699202D02*
X150080193Y-112651583D01*
X150080193Y-112651583D02*
X150127812Y-112603964D01*
X150127812Y-112603964D02*
X150175431Y-112508726D01*
X151127812Y-113080155D02*
X150556384Y-113080155D01*
X150842098Y-113080155D02*
X150842098Y-112080155D01*
X150842098Y-112080155D02*
X150746860Y-112223012D01*
X150746860Y-112223012D02*
X150651622Y-112318250D01*
X150651622Y-112318250D02*
X150556384Y-112365869D01*
D11*
X153794399Y-84341757D02*
X153794399Y-84960804D01*
X153361066Y-83660804D02*
X153794399Y-84341757D01*
X153794399Y-84341757D02*
X154227733Y-83660804D01*
D12*
X140259095Y-118462819D02*
X140259095Y-119272342D01*
X140259095Y-119272342D02*
X140306714Y-119367580D01*
X140306714Y-119367580D02*
X140354333Y-119415200D01*
X140354333Y-119415200D02*
X140449571Y-119462819D01*
X140449571Y-119462819D02*
X140640047Y-119462819D01*
X140640047Y-119462819D02*
X140735285Y-119415200D01*
X140735285Y-119415200D02*
X140782904Y-119367580D01*
X140782904Y-119367580D02*
X140830523Y-119272342D01*
X140830523Y-119272342D02*
X140830523Y-118462819D01*
X141830523Y-119462819D02*
X141259095Y-119462819D01*
X141544809Y-119462819D02*
X141544809Y-118462819D01*
X141544809Y-118462819D02*
X141449571Y-118605676D01*
X141449571Y-118605676D02*
X141354333Y-118700914D01*
X141354333Y-118700914D02*
X141259095Y-118748533D01*
X123464819Y-114936666D02*
X122988628Y-115269999D01*
X123464819Y-115508094D02*
X122464819Y-115508094D01*
X122464819Y-115508094D02*
X122464819Y-115127142D01*
X122464819Y-115127142D02*
X122512438Y-115031904D01*
X122512438Y-115031904D02*
X122560057Y-114984285D01*
X122560057Y-114984285D02*
X122655295Y-114936666D01*
X122655295Y-114936666D02*
X122798152Y-114936666D01*
X122798152Y-114936666D02*
X122893390Y-114984285D01*
X122893390Y-114984285D02*
X122941009Y-115031904D01*
X122941009Y-115031904D02*
X122988628Y-115127142D01*
X122988628Y-115127142D02*
X122988628Y-115508094D01*
X123464819Y-113984285D02*
X123464819Y-114555713D01*
X123464819Y-114269999D02*
X122464819Y-114269999D01*
X122464819Y-114269999D02*
X122607676Y-114365237D01*
X122607676Y-114365237D02*
X122702914Y-114460475D01*
X122702914Y-114460475D02*
X122750533Y-114555713D01*
D11*
X163514320Y-79710804D02*
X163266701Y-79710804D01*
X163266701Y-79710804D02*
X163142892Y-79772709D01*
X163142892Y-79772709D02*
X163080987Y-79834614D01*
X163080987Y-79834614D02*
X162957177Y-80020328D01*
X162957177Y-80020328D02*
X162895273Y-80267947D01*
X162895273Y-80267947D02*
X162895273Y-80763185D01*
X162895273Y-80763185D02*
X162957177Y-80886995D01*
X162957177Y-80886995D02*
X163019082Y-80948900D01*
X163019082Y-80948900D02*
X163142892Y-81010804D01*
X163142892Y-81010804D02*
X163390511Y-81010804D01*
X163390511Y-81010804D02*
X163514320Y-80948900D01*
X163514320Y-80948900D02*
X163576225Y-80886995D01*
X163576225Y-80886995D02*
X163638130Y-80763185D01*
X163638130Y-80763185D02*
X163638130Y-80453661D01*
X163638130Y-80453661D02*
X163576225Y-80329852D01*
X163576225Y-80329852D02*
X163514320Y-80267947D01*
X163514320Y-80267947D02*
X163390511Y-80206042D01*
X163390511Y-80206042D02*
X163142892Y-80206042D01*
X163142892Y-80206042D02*
X163019082Y-80267947D01*
X163019082Y-80267947D02*
X162957177Y-80329852D01*
X162957177Y-80329852D02*
X162895273Y-80453661D01*
D12*
X153410715Y-116304819D02*
X153410715Y-115304819D01*
X153410715Y-115304819D02*
X153648810Y-115304819D01*
X153648810Y-115304819D02*
X153791667Y-115352438D01*
X153791667Y-115352438D02*
X153886905Y-115447676D01*
X153886905Y-115447676D02*
X153934524Y-115542914D01*
X153934524Y-115542914D02*
X153982143Y-115733390D01*
X153982143Y-115733390D02*
X153982143Y-115876247D01*
X153982143Y-115876247D02*
X153934524Y-116066723D01*
X153934524Y-116066723D02*
X153886905Y-116161961D01*
X153886905Y-116161961D02*
X153791667Y-116257200D01*
X153791667Y-116257200D02*
X153648810Y-116304819D01*
X153648810Y-116304819D02*
X153410715Y-116304819D01*
X154934524Y-116304819D02*
X154363096Y-116304819D01*
X154648810Y-116304819D02*
X154648810Y-115304819D01*
X154648810Y-115304819D02*
X154553572Y-115447676D01*
X154553572Y-115447676D02*
X154458334Y-115542914D01*
X154458334Y-115542914D02*
X154363096Y-115590533D01*
X155505953Y-115733390D02*
X155410715Y-115685771D01*
X155410715Y-115685771D02*
X155363096Y-115638152D01*
X155363096Y-115638152D02*
X155315477Y-115542914D01*
X155315477Y-115542914D02*
X155315477Y-115495295D01*
X155315477Y-115495295D02*
X155363096Y-115400057D01*
X155363096Y-115400057D02*
X155410715Y-115352438D01*
X155410715Y-115352438D02*
X155505953Y-115304819D01*
X155505953Y-115304819D02*
X155696429Y-115304819D01*
X155696429Y-115304819D02*
X155791667Y-115352438D01*
X155791667Y-115352438D02*
X155839286Y-115400057D01*
X155839286Y-115400057D02*
X155886905Y-115495295D01*
X155886905Y-115495295D02*
X155886905Y-115542914D01*
X155886905Y-115542914D02*
X155839286Y-115638152D01*
X155839286Y-115638152D02*
X155791667Y-115685771D01*
X155791667Y-115685771D02*
X155696429Y-115733390D01*
X155696429Y-115733390D02*
X155505953Y-115733390D01*
X155505953Y-115733390D02*
X155410715Y-115781009D01*
X155410715Y-115781009D02*
X155363096Y-115828628D01*
X155363096Y-115828628D02*
X155315477Y-115923866D01*
X155315477Y-115923866D02*
X155315477Y-116114342D01*
X155315477Y-116114342D02*
X155363096Y-116209580D01*
X155363096Y-116209580D02*
X155410715Y-116257200D01*
X155410715Y-116257200D02*
X155505953Y-116304819D01*
X155505953Y-116304819D02*
X155696429Y-116304819D01*
X155696429Y-116304819D02*
X155791667Y-116257200D01*
X155791667Y-116257200D02*
X155839286Y-116209580D01*
X155839286Y-116209580D02*
X155886905Y-116114342D01*
X155886905Y-116114342D02*
X155886905Y-115923866D01*
X155886905Y-115923866D02*
X155839286Y-115828628D01*
X155839286Y-115828628D02*
X155791667Y-115781009D01*
X155791667Y-115781009D02*
X155696429Y-115733390D01*
D11*
X143658114Y-92879852D02*
X143224780Y-92879852D01*
X143224780Y-93560804D02*
X143224780Y-92260804D01*
X143224780Y-92260804D02*
X143843828Y-92260804D01*
X136166667Y-100310804D02*
X137033333Y-101610804D01*
X137033333Y-100310804D02*
X136166667Y-101610804D01*
D12*
X125461905Y-94504819D02*
X125461905Y-93504819D01*
X125461905Y-93504819D02*
X125700000Y-93504819D01*
X125700000Y-93504819D02*
X125842857Y-93552438D01*
X125842857Y-93552438D02*
X125938095Y-93647676D01*
X125938095Y-93647676D02*
X125985714Y-93742914D01*
X125985714Y-93742914D02*
X126033333Y-93933390D01*
X126033333Y-93933390D02*
X126033333Y-94076247D01*
X126033333Y-94076247D02*
X125985714Y-94266723D01*
X125985714Y-94266723D02*
X125938095Y-94361961D01*
X125938095Y-94361961D02*
X125842857Y-94457200D01*
X125842857Y-94457200D02*
X125700000Y-94504819D01*
X125700000Y-94504819D02*
X125461905Y-94504819D01*
X126890476Y-93504819D02*
X126700000Y-93504819D01*
X126700000Y-93504819D02*
X126604762Y-93552438D01*
X126604762Y-93552438D02*
X126557143Y-93600057D01*
X126557143Y-93600057D02*
X126461905Y-93742914D01*
X126461905Y-93742914D02*
X126414286Y-93933390D01*
X126414286Y-93933390D02*
X126414286Y-94314342D01*
X126414286Y-94314342D02*
X126461905Y-94409580D01*
X126461905Y-94409580D02*
X126509524Y-94457200D01*
X126509524Y-94457200D02*
X126604762Y-94504819D01*
X126604762Y-94504819D02*
X126795238Y-94504819D01*
X126795238Y-94504819D02*
X126890476Y-94457200D01*
X126890476Y-94457200D02*
X126938095Y-94409580D01*
X126938095Y-94409580D02*
X126985714Y-94314342D01*
X126985714Y-94314342D02*
X126985714Y-94076247D01*
X126985714Y-94076247D02*
X126938095Y-93981009D01*
X126938095Y-93981009D02*
X126890476Y-93933390D01*
X126890476Y-93933390D02*
X126795238Y-93885771D01*
X126795238Y-93885771D02*
X126604762Y-93885771D01*
X126604762Y-93885771D02*
X126509524Y-93933390D01*
X126509524Y-93933390D02*
X126461905Y-93981009D01*
X126461905Y-93981009D02*
X126414286Y-94076247D01*
X146455114Y-90029819D02*
X146455114Y-89029819D01*
X146455114Y-89029819D02*
X146693209Y-89029819D01*
X146693209Y-89029819D02*
X146836066Y-89077438D01*
X146836066Y-89077438D02*
X146931304Y-89172676D01*
X146931304Y-89172676D02*
X146978923Y-89267914D01*
X146978923Y-89267914D02*
X147026542Y-89458390D01*
X147026542Y-89458390D02*
X147026542Y-89601247D01*
X147026542Y-89601247D02*
X146978923Y-89791723D01*
X146978923Y-89791723D02*
X146931304Y-89886961D01*
X146931304Y-89886961D02*
X146836066Y-89982200D01*
X146836066Y-89982200D02*
X146693209Y-90029819D01*
X146693209Y-90029819D02*
X146455114Y-90029819D01*
X147407495Y-89125057D02*
X147455114Y-89077438D01*
X147455114Y-89077438D02*
X147550352Y-89029819D01*
X147550352Y-89029819D02*
X147788447Y-89029819D01*
X147788447Y-89029819D02*
X147883685Y-89077438D01*
X147883685Y-89077438D02*
X147931304Y-89125057D01*
X147931304Y-89125057D02*
X147978923Y-89220295D01*
X147978923Y-89220295D02*
X147978923Y-89315533D01*
X147978923Y-89315533D02*
X147931304Y-89458390D01*
X147931304Y-89458390D02*
X147359876Y-90029819D01*
X147359876Y-90029819D02*
X147978923Y-90029819D01*
X148312257Y-89029819D02*
X148931304Y-89029819D01*
X148931304Y-89029819D02*
X148597971Y-89410771D01*
X148597971Y-89410771D02*
X148740828Y-89410771D01*
X148740828Y-89410771D02*
X148836066Y-89458390D01*
X148836066Y-89458390D02*
X148883685Y-89506009D01*
X148883685Y-89506009D02*
X148931304Y-89601247D01*
X148931304Y-89601247D02*
X148931304Y-89839342D01*
X148931304Y-89839342D02*
X148883685Y-89934580D01*
X148883685Y-89934580D02*
X148836066Y-89982200D01*
X148836066Y-89982200D02*
X148740828Y-90029819D01*
X148740828Y-90029819D02*
X148455114Y-90029819D01*
X148455114Y-90029819D02*
X148359876Y-89982200D01*
X148359876Y-89982200D02*
X148312257Y-89934580D01*
D11*
X164328314Y-92260804D02*
X164328314Y-93189376D01*
X164328314Y-93189376D02*
X164266409Y-93375090D01*
X164266409Y-93375090D02*
X164142600Y-93498900D01*
X164142600Y-93498900D02*
X163956885Y-93560804D01*
X163956885Y-93560804D02*
X163833076Y-93560804D01*
X125681757Y-83660804D02*
X125991281Y-84960804D01*
X125991281Y-84960804D02*
X126238900Y-84032233D01*
X126238900Y-84032233D02*
X126486519Y-84960804D01*
X126486519Y-84960804D02*
X126796043Y-83660804D01*
X156673425Y-79710804D02*
X156054377Y-79710804D01*
X156054377Y-79710804D02*
X155992473Y-80329852D01*
X155992473Y-80329852D02*
X156054377Y-80267947D01*
X156054377Y-80267947D02*
X156178187Y-80206042D01*
X156178187Y-80206042D02*
X156487711Y-80206042D01*
X156487711Y-80206042D02*
X156611520Y-80267947D01*
X156611520Y-80267947D02*
X156673425Y-80329852D01*
X156673425Y-80329852D02*
X156735330Y-80453661D01*
X156735330Y-80453661D02*
X156735330Y-80763185D01*
X156735330Y-80763185D02*
X156673425Y-80886995D01*
X156673425Y-80886995D02*
X156611520Y-80948900D01*
X156611520Y-80948900D02*
X156487711Y-81010804D01*
X156487711Y-81010804D02*
X156178187Y-81010804D01*
X156178187Y-81010804D02*
X156054377Y-80948900D01*
X156054377Y-80948900D02*
X155992473Y-80886995D01*
D12*
X156626014Y-106454819D02*
X156626014Y-105454819D01*
X156626014Y-105454819D02*
X156864109Y-105454819D01*
X156864109Y-105454819D02*
X157006966Y-105502438D01*
X157006966Y-105502438D02*
X157102204Y-105597676D01*
X157102204Y-105597676D02*
X157149823Y-105692914D01*
X157149823Y-105692914D02*
X157197442Y-105883390D01*
X157197442Y-105883390D02*
X157197442Y-106026247D01*
X157197442Y-106026247D02*
X157149823Y-106216723D01*
X157149823Y-106216723D02*
X157102204Y-106311961D01*
X157102204Y-106311961D02*
X157006966Y-106407200D01*
X157006966Y-106407200D02*
X156864109Y-106454819D01*
X156864109Y-106454819D02*
X156626014Y-106454819D01*
X157673633Y-106454819D02*
X157864109Y-106454819D01*
X157864109Y-106454819D02*
X157959347Y-106407200D01*
X157959347Y-106407200D02*
X158006966Y-106359580D01*
X158006966Y-106359580D02*
X158102204Y-106216723D01*
X158102204Y-106216723D02*
X158149823Y-106026247D01*
X158149823Y-106026247D02*
X158149823Y-105645295D01*
X158149823Y-105645295D02*
X158102204Y-105550057D01*
X158102204Y-105550057D02*
X158054585Y-105502438D01*
X158054585Y-105502438D02*
X157959347Y-105454819D01*
X157959347Y-105454819D02*
X157768871Y-105454819D01*
X157768871Y-105454819D02*
X157673633Y-105502438D01*
X157673633Y-105502438D02*
X157626014Y-105550057D01*
X157626014Y-105550057D02*
X157578395Y-105645295D01*
X157578395Y-105645295D02*
X157578395Y-105883390D01*
X157578395Y-105883390D02*
X157626014Y-105978628D01*
X157626014Y-105978628D02*
X157673633Y-106026247D01*
X157673633Y-106026247D02*
X157768871Y-106073866D01*
X157768871Y-106073866D02*
X157959347Y-106073866D01*
X157959347Y-106073866D02*
X158054585Y-106026247D01*
X158054585Y-106026247D02*
X158102204Y-105978628D01*
X158102204Y-105978628D02*
X158149823Y-105883390D01*
X158530776Y-105550057D02*
X158578395Y-105502438D01*
X158578395Y-105502438D02*
X158673633Y-105454819D01*
X158673633Y-105454819D02*
X158911728Y-105454819D01*
X158911728Y-105454819D02*
X159006966Y-105502438D01*
X159006966Y-105502438D02*
X159054585Y-105550057D01*
X159054585Y-105550057D02*
X159102204Y-105645295D01*
X159102204Y-105645295D02*
X159102204Y-105740533D01*
X159102204Y-105740533D02*
X159054585Y-105883390D01*
X159054585Y-105883390D02*
X158483157Y-106454819D01*
X158483157Y-106454819D02*
X159102204Y-106454819D01*
X120736905Y-111254819D02*
X120736905Y-110254819D01*
X120736905Y-110254819D02*
X120975000Y-110254819D01*
X120975000Y-110254819D02*
X121117857Y-110302438D01*
X121117857Y-110302438D02*
X121213095Y-110397676D01*
X121213095Y-110397676D02*
X121260714Y-110492914D01*
X121260714Y-110492914D02*
X121308333Y-110683390D01*
X121308333Y-110683390D02*
X121308333Y-110826247D01*
X121308333Y-110826247D02*
X121260714Y-111016723D01*
X121260714Y-111016723D02*
X121213095Y-111111961D01*
X121213095Y-111111961D02*
X121117857Y-111207200D01*
X121117857Y-111207200D02*
X120975000Y-111254819D01*
X120975000Y-111254819D02*
X120736905Y-111254819D01*
X122213095Y-110254819D02*
X121736905Y-110254819D01*
X121736905Y-110254819D02*
X121689286Y-110731009D01*
X121689286Y-110731009D02*
X121736905Y-110683390D01*
X121736905Y-110683390D02*
X121832143Y-110635771D01*
X121832143Y-110635771D02*
X122070238Y-110635771D01*
X122070238Y-110635771D02*
X122165476Y-110683390D01*
X122165476Y-110683390D02*
X122213095Y-110731009D01*
X122213095Y-110731009D02*
X122260714Y-110826247D01*
X122260714Y-110826247D02*
X122260714Y-111064342D01*
X122260714Y-111064342D02*
X122213095Y-111159580D01*
X122213095Y-111159580D02*
X122165476Y-111207200D01*
X122165476Y-111207200D02*
X122070238Y-111254819D01*
X122070238Y-111254819D02*
X121832143Y-111254819D01*
X121832143Y-111254819D02*
X121736905Y-111207200D01*
X121736905Y-111207200D02*
X121689286Y-111159580D01*
X149998214Y-98429819D02*
X149998214Y-97429819D01*
X149998214Y-97429819D02*
X150236309Y-97429819D01*
X150236309Y-97429819D02*
X150379166Y-97477438D01*
X150379166Y-97477438D02*
X150474404Y-97572676D01*
X150474404Y-97572676D02*
X150522023Y-97667914D01*
X150522023Y-97667914D02*
X150569642Y-97858390D01*
X150569642Y-97858390D02*
X150569642Y-98001247D01*
X150569642Y-98001247D02*
X150522023Y-98191723D01*
X150522023Y-98191723D02*
X150474404Y-98286961D01*
X150474404Y-98286961D02*
X150379166Y-98382200D01*
X150379166Y-98382200D02*
X150236309Y-98429819D01*
X150236309Y-98429819D02*
X149998214Y-98429819D01*
X150950595Y-97525057D02*
X150998214Y-97477438D01*
X150998214Y-97477438D02*
X151093452Y-97429819D01*
X151093452Y-97429819D02*
X151331547Y-97429819D01*
X151331547Y-97429819D02*
X151426785Y-97477438D01*
X151426785Y-97477438D02*
X151474404Y-97525057D01*
X151474404Y-97525057D02*
X151522023Y-97620295D01*
X151522023Y-97620295D02*
X151522023Y-97715533D01*
X151522023Y-97715533D02*
X151474404Y-97858390D01*
X151474404Y-97858390D02*
X150902976Y-98429819D01*
X150902976Y-98429819D02*
X151522023Y-98429819D01*
X152379166Y-97763152D02*
X152379166Y-98429819D01*
X152141071Y-97382200D02*
X151902976Y-98096485D01*
X151902976Y-98096485D02*
X152522023Y-98096485D01*
X158704820Y-114326787D02*
X157704820Y-114326787D01*
X157704820Y-114326787D02*
X157704820Y-114088692D01*
X157704820Y-114088692D02*
X157752439Y-113945835D01*
X157752439Y-113945835D02*
X157847677Y-113850597D01*
X157847677Y-113850597D02*
X157942915Y-113802978D01*
X157942915Y-113802978D02*
X158133391Y-113755359D01*
X158133391Y-113755359D02*
X158276248Y-113755359D01*
X158276248Y-113755359D02*
X158466724Y-113802978D01*
X158466724Y-113802978D02*
X158561962Y-113850597D01*
X158561962Y-113850597D02*
X158657201Y-113945835D01*
X158657201Y-113945835D02*
X158704820Y-114088692D01*
X158704820Y-114088692D02*
X158704820Y-114326787D01*
X158704820Y-113279168D02*
X158704820Y-113088692D01*
X158704820Y-113088692D02*
X158657201Y-112993454D01*
X158657201Y-112993454D02*
X158609581Y-112945835D01*
X158609581Y-112945835D02*
X158466724Y-112850597D01*
X158466724Y-112850597D02*
X158276248Y-112802978D01*
X158276248Y-112802978D02*
X157895296Y-112802978D01*
X157895296Y-112802978D02*
X157800058Y-112850597D01*
X157800058Y-112850597D02*
X157752439Y-112898216D01*
X157752439Y-112898216D02*
X157704820Y-112993454D01*
X157704820Y-112993454D02*
X157704820Y-113183930D01*
X157704820Y-113183930D02*
X157752439Y-113279168D01*
X157752439Y-113279168D02*
X157800058Y-113326787D01*
X157800058Y-113326787D02*
X157895296Y-113374406D01*
X157895296Y-113374406D02*
X158133391Y-113374406D01*
X158133391Y-113374406D02*
X158228629Y-113326787D01*
X158228629Y-113326787D02*
X158276248Y-113279168D01*
X158276248Y-113279168D02*
X158323867Y-113183930D01*
X158323867Y-113183930D02*
X158323867Y-112993454D01*
X158323867Y-112993454D02*
X158276248Y-112898216D01*
X158276248Y-112898216D02*
X158228629Y-112850597D01*
X158228629Y-112850597D02*
X158133391Y-112802978D01*
X157704820Y-112469644D02*
X157704820Y-111850597D01*
X157704820Y-111850597D02*
X158085772Y-112183930D01*
X158085772Y-112183930D02*
X158085772Y-112041073D01*
X158085772Y-112041073D02*
X158133391Y-111945835D01*
X158133391Y-111945835D02*
X158181010Y-111898216D01*
X158181010Y-111898216D02*
X158276248Y-111850597D01*
X158276248Y-111850597D02*
X158514343Y-111850597D01*
X158514343Y-111850597D02*
X158609581Y-111898216D01*
X158609581Y-111898216D02*
X158657201Y-111945835D01*
X158657201Y-111945835D02*
X158704820Y-112041073D01*
X158704820Y-112041073D02*
X158704820Y-112326787D01*
X158704820Y-112326787D02*
X158657201Y-112422025D01*
X158657201Y-112422025D02*
X158609581Y-112469644D01*
D11*
X132849228Y-84279852D02*
X133282562Y-84279852D01*
X133468276Y-84960804D02*
X132849228Y-84960804D01*
X132849228Y-84960804D02*
X132849228Y-83660804D01*
X132849228Y-83660804D02*
X133468276Y-83660804D01*
D12*
X179023214Y-107079819D02*
X179023214Y-106079819D01*
X179023214Y-106079819D02*
X179261309Y-106079819D01*
X179261309Y-106079819D02*
X179404166Y-106127438D01*
X179404166Y-106127438D02*
X179499404Y-106222676D01*
X179499404Y-106222676D02*
X179547023Y-106317914D01*
X179547023Y-106317914D02*
X179594642Y-106508390D01*
X179594642Y-106508390D02*
X179594642Y-106651247D01*
X179594642Y-106651247D02*
X179547023Y-106841723D01*
X179547023Y-106841723D02*
X179499404Y-106936961D01*
X179499404Y-106936961D02*
X179404166Y-107032200D01*
X179404166Y-107032200D02*
X179261309Y-107079819D01*
X179261309Y-107079819D02*
X179023214Y-107079819D01*
X179927976Y-106079819D02*
X180547023Y-106079819D01*
X180547023Y-106079819D02*
X180213690Y-106460771D01*
X180213690Y-106460771D02*
X180356547Y-106460771D01*
X180356547Y-106460771D02*
X180451785Y-106508390D01*
X180451785Y-106508390D02*
X180499404Y-106556009D01*
X180499404Y-106556009D02*
X180547023Y-106651247D01*
X180547023Y-106651247D02*
X180547023Y-106889342D01*
X180547023Y-106889342D02*
X180499404Y-106984580D01*
X180499404Y-106984580D02*
X180451785Y-107032200D01*
X180451785Y-107032200D02*
X180356547Y-107079819D01*
X180356547Y-107079819D02*
X180070833Y-107079819D01*
X180070833Y-107079819D02*
X179975595Y-107032200D01*
X179975595Y-107032200D02*
X179927976Y-106984580D01*
X180927976Y-106175057D02*
X180975595Y-106127438D01*
X180975595Y-106127438D02*
X181070833Y-106079819D01*
X181070833Y-106079819D02*
X181308928Y-106079819D01*
X181308928Y-106079819D02*
X181404166Y-106127438D01*
X181404166Y-106127438D02*
X181451785Y-106175057D01*
X181451785Y-106175057D02*
X181499404Y-106270295D01*
X181499404Y-106270295D02*
X181499404Y-106365533D01*
X181499404Y-106365533D02*
X181451785Y-106508390D01*
X181451785Y-106508390D02*
X180880357Y-107079819D01*
X180880357Y-107079819D02*
X181499404Y-107079819D01*
X160185714Y-109354819D02*
X160185714Y-108354819D01*
X160185714Y-108354819D02*
X160423809Y-108354819D01*
X160423809Y-108354819D02*
X160566666Y-108402438D01*
X160566666Y-108402438D02*
X160661904Y-108497676D01*
X160661904Y-108497676D02*
X160709523Y-108592914D01*
X160709523Y-108592914D02*
X160757142Y-108783390D01*
X160757142Y-108783390D02*
X160757142Y-108926247D01*
X160757142Y-108926247D02*
X160709523Y-109116723D01*
X160709523Y-109116723D02*
X160661904Y-109211961D01*
X160661904Y-109211961D02*
X160566666Y-109307200D01*
X160566666Y-109307200D02*
X160423809Y-109354819D01*
X160423809Y-109354819D02*
X160185714Y-109354819D01*
X161614285Y-108688152D02*
X161614285Y-109354819D01*
X161376190Y-108307200D02*
X161138095Y-109021485D01*
X161138095Y-109021485D02*
X161757142Y-109021485D01*
X162042857Y-108354819D02*
X162709523Y-108354819D01*
X162709523Y-108354819D02*
X162280952Y-109354819D01*
X129420114Y-98704819D02*
X129420114Y-97704819D01*
X129420114Y-97704819D02*
X129658209Y-97704819D01*
X129658209Y-97704819D02*
X129801066Y-97752438D01*
X129801066Y-97752438D02*
X129896304Y-97847676D01*
X129896304Y-97847676D02*
X129943923Y-97942914D01*
X129943923Y-97942914D02*
X129991542Y-98133390D01*
X129991542Y-98133390D02*
X129991542Y-98276247D01*
X129991542Y-98276247D02*
X129943923Y-98466723D01*
X129943923Y-98466723D02*
X129896304Y-98561961D01*
X129896304Y-98561961D02*
X129801066Y-98657200D01*
X129801066Y-98657200D02*
X129658209Y-98704819D01*
X129658209Y-98704819D02*
X129420114Y-98704819D01*
X130943923Y-98704819D02*
X130372495Y-98704819D01*
X130658209Y-98704819D02*
X130658209Y-97704819D01*
X130658209Y-97704819D02*
X130562971Y-97847676D01*
X130562971Y-97847676D02*
X130467733Y-97942914D01*
X130467733Y-97942914D02*
X130372495Y-97990533D01*
X131277257Y-97704819D02*
X131896304Y-97704819D01*
X131896304Y-97704819D02*
X131562971Y-98085771D01*
X131562971Y-98085771D02*
X131705828Y-98085771D01*
X131705828Y-98085771D02*
X131801066Y-98133390D01*
X131801066Y-98133390D02*
X131848685Y-98181009D01*
X131848685Y-98181009D02*
X131896304Y-98276247D01*
X131896304Y-98276247D02*
X131896304Y-98514342D01*
X131896304Y-98514342D02*
X131848685Y-98609580D01*
X131848685Y-98609580D02*
X131801066Y-98657200D01*
X131801066Y-98657200D02*
X131705828Y-98704819D01*
X131705828Y-98704819D02*
X131420114Y-98704819D01*
X131420114Y-98704819D02*
X131324876Y-98657200D01*
X131324876Y-98657200D02*
X131277257Y-98609580D01*
D11*
X170499999Y-108061995D02*
X170561904Y-108123900D01*
X170561904Y-108123900D02*
X170499999Y-108185804D01*
X170499999Y-108185804D02*
X170438095Y-108123900D01*
X170438095Y-108123900D02*
X170499999Y-108061995D01*
X170499999Y-108061995D02*
X170499999Y-108185804D01*
D12*
X163717014Y-98579819D02*
X163717014Y-97579819D01*
X163717014Y-97579819D02*
X163955109Y-97579819D01*
X163955109Y-97579819D02*
X164097966Y-97627438D01*
X164097966Y-97627438D02*
X164193204Y-97722676D01*
X164193204Y-97722676D02*
X164240823Y-97817914D01*
X164240823Y-97817914D02*
X164288442Y-98008390D01*
X164288442Y-98008390D02*
X164288442Y-98151247D01*
X164288442Y-98151247D02*
X164240823Y-98341723D01*
X164240823Y-98341723D02*
X164193204Y-98436961D01*
X164193204Y-98436961D02*
X164097966Y-98532200D01*
X164097966Y-98532200D02*
X163955109Y-98579819D01*
X163955109Y-98579819D02*
X163717014Y-98579819D01*
X164621776Y-97579819D02*
X165240823Y-97579819D01*
X165240823Y-97579819D02*
X164907490Y-97960771D01*
X164907490Y-97960771D02*
X165050347Y-97960771D01*
X165050347Y-97960771D02*
X165145585Y-98008390D01*
X165145585Y-98008390D02*
X165193204Y-98056009D01*
X165193204Y-98056009D02*
X165240823Y-98151247D01*
X165240823Y-98151247D02*
X165240823Y-98389342D01*
X165240823Y-98389342D02*
X165193204Y-98484580D01*
X165193204Y-98484580D02*
X165145585Y-98532200D01*
X165145585Y-98532200D02*
X165050347Y-98579819D01*
X165050347Y-98579819D02*
X164764633Y-98579819D01*
X164764633Y-98579819D02*
X164669395Y-98532200D01*
X164669395Y-98532200D02*
X164621776Y-98484580D01*
X165859871Y-97579819D02*
X165955109Y-97579819D01*
X165955109Y-97579819D02*
X166050347Y-97627438D01*
X166050347Y-97627438D02*
X166097966Y-97675057D01*
X166097966Y-97675057D02*
X166145585Y-97770295D01*
X166145585Y-97770295D02*
X166193204Y-97960771D01*
X166193204Y-97960771D02*
X166193204Y-98198866D01*
X166193204Y-98198866D02*
X166145585Y-98389342D01*
X166145585Y-98389342D02*
X166097966Y-98484580D01*
X166097966Y-98484580D02*
X166050347Y-98532200D01*
X166050347Y-98532200D02*
X165955109Y-98579819D01*
X165955109Y-98579819D02*
X165859871Y-98579819D01*
X165859871Y-98579819D02*
X165764633Y-98532200D01*
X165764633Y-98532200D02*
X165717014Y-98484580D01*
X165717014Y-98484580D02*
X165669395Y-98389342D01*
X165669395Y-98389342D02*
X165621776Y-98198866D01*
X165621776Y-98198866D02*
X165621776Y-97960771D01*
X165621776Y-97960771D02*
X165669395Y-97770295D01*
X165669395Y-97770295D02*
X165717014Y-97675057D01*
X165717014Y-97675057D02*
X165764633Y-97627438D01*
X165764633Y-97627438D02*
X165859871Y-97579819D01*
D11*
X143902380Y-101486995D02*
X143840476Y-101548900D01*
X143840476Y-101548900D02*
X143654761Y-101610804D01*
X143654761Y-101610804D02*
X143530952Y-101610804D01*
X143530952Y-101610804D02*
X143345238Y-101548900D01*
X143345238Y-101548900D02*
X143221428Y-101425090D01*
X143221428Y-101425090D02*
X143159523Y-101301280D01*
X143159523Y-101301280D02*
X143097619Y-101053661D01*
X143097619Y-101053661D02*
X143097619Y-100867947D01*
X143097619Y-100867947D02*
X143159523Y-100620328D01*
X143159523Y-100620328D02*
X143221428Y-100496519D01*
X143221428Y-100496519D02*
X143345238Y-100372709D01*
X143345238Y-100372709D02*
X143530952Y-100310804D01*
X143530952Y-100310804D02*
X143654761Y-100310804D01*
X143654761Y-100310804D02*
X143840476Y-100372709D01*
X143840476Y-100372709D02*
X143902380Y-100434614D01*
D12*
X134053333Y-115854819D02*
X133720000Y-115378628D01*
X133481905Y-115854819D02*
X133481905Y-114854819D01*
X133481905Y-114854819D02*
X133862857Y-114854819D01*
X133862857Y-114854819D02*
X133958095Y-114902438D01*
X133958095Y-114902438D02*
X134005714Y-114950057D01*
X134005714Y-114950057D02*
X134053333Y-115045295D01*
X134053333Y-115045295D02*
X134053333Y-115188152D01*
X134053333Y-115188152D02*
X134005714Y-115283390D01*
X134005714Y-115283390D02*
X133958095Y-115331009D01*
X133958095Y-115331009D02*
X133862857Y-115378628D01*
X133862857Y-115378628D02*
X133481905Y-115378628D01*
X134386667Y-114854819D02*
X135053333Y-114854819D01*
X135053333Y-114854819D02*
X134624762Y-115854819D01*
D11*
X178352381Y-93560804D02*
X177733333Y-93560804D01*
X177733333Y-93560804D02*
X177733333Y-92260804D01*
X146534171Y-83660804D02*
X147277028Y-83660804D01*
X146905600Y-84960804D02*
X146905600Y-83660804D01*
X170666666Y-101610804D02*
X170666666Y-100310804D01*
X170666666Y-100310804D02*
X171100000Y-101239376D01*
X171100000Y-101239376D02*
X171533333Y-100310804D01*
X171533333Y-100310804D02*
X171533333Y-101610804D01*
D12*
X121129819Y-92441666D02*
X120653628Y-92774999D01*
X121129819Y-93013094D02*
X120129819Y-93013094D01*
X120129819Y-93013094D02*
X120129819Y-92632142D01*
X120129819Y-92632142D02*
X120177438Y-92536904D01*
X120177438Y-92536904D02*
X120225057Y-92489285D01*
X120225057Y-92489285D02*
X120320295Y-92441666D01*
X120320295Y-92441666D02*
X120463152Y-92441666D01*
X120463152Y-92441666D02*
X120558390Y-92489285D01*
X120558390Y-92489285D02*
X120606009Y-92536904D01*
X120606009Y-92536904D02*
X120653628Y-92632142D01*
X120653628Y-92632142D02*
X120653628Y-93013094D01*
X120129819Y-92108332D02*
X120129819Y-91489285D01*
X120129819Y-91489285D02*
X120510771Y-91822618D01*
X120510771Y-91822618D02*
X120510771Y-91679761D01*
X120510771Y-91679761D02*
X120558390Y-91584523D01*
X120558390Y-91584523D02*
X120606009Y-91536904D01*
X120606009Y-91536904D02*
X120701247Y-91489285D01*
X120701247Y-91489285D02*
X120939342Y-91489285D01*
X120939342Y-91489285D02*
X121034580Y-91536904D01*
X121034580Y-91536904D02*
X121082200Y-91584523D01*
X121082200Y-91584523D02*
X121129819Y-91679761D01*
X121129819Y-91679761D02*
X121129819Y-91965475D01*
X121129819Y-91965475D02*
X121082200Y-92060713D01*
X121082200Y-92060713D02*
X121034580Y-92108332D01*
D11*
X128361904Y-109648900D02*
X128361904Y-109710804D01*
X128361904Y-109710804D02*
X128299999Y-109834614D01*
X128299999Y-109834614D02*
X128238095Y-109896519D01*
X137758334Y-112073900D02*
X137944048Y-112135804D01*
X137944048Y-112135804D02*
X138253572Y-112135804D01*
X138253572Y-112135804D02*
X138377381Y-112073900D01*
X138377381Y-112073900D02*
X138439286Y-112011995D01*
X138439286Y-112011995D02*
X138501191Y-111888185D01*
X138501191Y-111888185D02*
X138501191Y-111764376D01*
X138501191Y-111764376D02*
X138439286Y-111640566D01*
X138439286Y-111640566D02*
X138377381Y-111578661D01*
X138377381Y-111578661D02*
X138253572Y-111516757D01*
X138253572Y-111516757D02*
X138005953Y-111454852D01*
X138005953Y-111454852D02*
X137882143Y-111392947D01*
X137882143Y-111392947D02*
X137820238Y-111331042D01*
X137820238Y-111331042D02*
X137758334Y-111207233D01*
X137758334Y-111207233D02*
X137758334Y-111083423D01*
X137758334Y-111083423D02*
X137820238Y-110959614D01*
X137820238Y-110959614D02*
X137882143Y-110897709D01*
X137882143Y-110897709D02*
X138005953Y-110835804D01*
X138005953Y-110835804D02*
X138315476Y-110835804D01*
X138315476Y-110835804D02*
X138501191Y-110897709D01*
X139058333Y-112135804D02*
X139058333Y-110835804D01*
X139058333Y-110835804D02*
X139553571Y-110835804D01*
X139553571Y-110835804D02*
X139677381Y-110897709D01*
X139677381Y-110897709D02*
X139739286Y-110959614D01*
X139739286Y-110959614D02*
X139801190Y-111083423D01*
X139801190Y-111083423D02*
X139801190Y-111269138D01*
X139801190Y-111269138D02*
X139739286Y-111392947D01*
X139739286Y-111392947D02*
X139677381Y-111454852D01*
X139677381Y-111454852D02*
X139553571Y-111516757D01*
X139553571Y-111516757D02*
X139058333Y-111516757D01*
X140296429Y-111764376D02*
X140915476Y-111764376D01*
X140172619Y-112135804D02*
X140605952Y-110835804D01*
X140605952Y-110835804D02*
X141039286Y-112135804D01*
X142215476Y-112011995D02*
X142153572Y-112073900D01*
X142153572Y-112073900D02*
X141967857Y-112135804D01*
X141967857Y-112135804D02*
X141844048Y-112135804D01*
X141844048Y-112135804D02*
X141658334Y-112073900D01*
X141658334Y-112073900D02*
X141534524Y-111950090D01*
X141534524Y-111950090D02*
X141472619Y-111826280D01*
X141472619Y-111826280D02*
X141410715Y-111578661D01*
X141410715Y-111578661D02*
X141410715Y-111392947D01*
X141410715Y-111392947D02*
X141472619Y-111145328D01*
X141472619Y-111145328D02*
X141534524Y-111021519D01*
X141534524Y-111021519D02*
X141658334Y-110897709D01*
X141658334Y-110897709D02*
X141844048Y-110835804D01*
X141844048Y-110835804D02*
X141967857Y-110835804D01*
X141967857Y-110835804D02*
X142153572Y-110897709D01*
X142153572Y-110897709D02*
X142215476Y-110959614D01*
X142772619Y-111454852D02*
X143205953Y-111454852D01*
X143391667Y-112135804D02*
X142772619Y-112135804D01*
X142772619Y-112135804D02*
X142772619Y-110835804D01*
X142772619Y-110835804D02*
X143391667Y-110835804D01*
D12*
X166323216Y-116329819D02*
X166323216Y-115329819D01*
X166323216Y-115329819D02*
X166561311Y-115329819D01*
X166561311Y-115329819D02*
X166704168Y-115377438D01*
X166704168Y-115377438D02*
X166799406Y-115472676D01*
X166799406Y-115472676D02*
X166847025Y-115567914D01*
X166847025Y-115567914D02*
X166894644Y-115758390D01*
X166894644Y-115758390D02*
X166894644Y-115901247D01*
X166894644Y-115901247D02*
X166847025Y-116091723D01*
X166847025Y-116091723D02*
X166799406Y-116186961D01*
X166799406Y-116186961D02*
X166704168Y-116282200D01*
X166704168Y-116282200D02*
X166561311Y-116329819D01*
X166561311Y-116329819D02*
X166323216Y-116329819D01*
X167275597Y-115425057D02*
X167323216Y-115377438D01*
X167323216Y-115377438D02*
X167418454Y-115329819D01*
X167418454Y-115329819D02*
X167656549Y-115329819D01*
X167656549Y-115329819D02*
X167751787Y-115377438D01*
X167751787Y-115377438D02*
X167799406Y-115425057D01*
X167799406Y-115425057D02*
X167847025Y-115520295D01*
X167847025Y-115520295D02*
X167847025Y-115615533D01*
X167847025Y-115615533D02*
X167799406Y-115758390D01*
X167799406Y-115758390D02*
X167227978Y-116329819D01*
X167227978Y-116329819D02*
X167847025Y-116329819D01*
X168418454Y-115758390D02*
X168323216Y-115710771D01*
X168323216Y-115710771D02*
X168275597Y-115663152D01*
X168275597Y-115663152D02*
X168227978Y-115567914D01*
X168227978Y-115567914D02*
X168227978Y-115520295D01*
X168227978Y-115520295D02*
X168275597Y-115425057D01*
X168275597Y-115425057D02*
X168323216Y-115377438D01*
X168323216Y-115377438D02*
X168418454Y-115329819D01*
X168418454Y-115329819D02*
X168608930Y-115329819D01*
X168608930Y-115329819D02*
X168704168Y-115377438D01*
X168704168Y-115377438D02*
X168751787Y-115425057D01*
X168751787Y-115425057D02*
X168799406Y-115520295D01*
X168799406Y-115520295D02*
X168799406Y-115567914D01*
X168799406Y-115567914D02*
X168751787Y-115663152D01*
X168751787Y-115663152D02*
X168704168Y-115710771D01*
X168704168Y-115710771D02*
X168608930Y-115758390D01*
X168608930Y-115758390D02*
X168418454Y-115758390D01*
X168418454Y-115758390D02*
X168323216Y-115806009D01*
X168323216Y-115806009D02*
X168275597Y-115853628D01*
X168275597Y-115853628D02*
X168227978Y-115948866D01*
X168227978Y-115948866D02*
X168227978Y-116139342D01*
X168227978Y-116139342D02*
X168275597Y-116234580D01*
X168275597Y-116234580D02*
X168323216Y-116282200D01*
X168323216Y-116282200D02*
X168418454Y-116329819D01*
X168418454Y-116329819D02*
X168608930Y-116329819D01*
X168608930Y-116329819D02*
X168704168Y-116282200D01*
X168704168Y-116282200D02*
X168751787Y-116234580D01*
X168751787Y-116234580D02*
X168799406Y-116139342D01*
X168799406Y-116139342D02*
X168799406Y-115948866D01*
X168799406Y-115948866D02*
X168751787Y-115853628D01*
X168751787Y-115853628D02*
X168704168Y-115806009D01*
X168704168Y-115806009D02*
X168608930Y-115758390D01*
D11*
X156881171Y-93560804D02*
X156881171Y-92260804D01*
X156881171Y-92879852D02*
X157624028Y-92879852D01*
X157624028Y-93560804D02*
X157624028Y-92260804D01*
D12*
X167113514Y-89979819D02*
X167113514Y-88979819D01*
X167113514Y-88979819D02*
X167351609Y-88979819D01*
X167351609Y-88979819D02*
X167494466Y-89027438D01*
X167494466Y-89027438D02*
X167589704Y-89122676D01*
X167589704Y-89122676D02*
X167637323Y-89217914D01*
X167637323Y-89217914D02*
X167684942Y-89408390D01*
X167684942Y-89408390D02*
X167684942Y-89551247D01*
X167684942Y-89551247D02*
X167637323Y-89741723D01*
X167637323Y-89741723D02*
X167589704Y-89836961D01*
X167589704Y-89836961D02*
X167494466Y-89932200D01*
X167494466Y-89932200D02*
X167351609Y-89979819D01*
X167351609Y-89979819D02*
X167113514Y-89979819D01*
X168542085Y-89313152D02*
X168542085Y-89979819D01*
X168303990Y-88932200D02*
X168065895Y-89646485D01*
X168065895Y-89646485D02*
X168684942Y-89646485D01*
X169018276Y-89075057D02*
X169065895Y-89027438D01*
X169065895Y-89027438D02*
X169161133Y-88979819D01*
X169161133Y-88979819D02*
X169399228Y-88979819D01*
X169399228Y-88979819D02*
X169494466Y-89027438D01*
X169494466Y-89027438D02*
X169542085Y-89075057D01*
X169542085Y-89075057D02*
X169589704Y-89170295D01*
X169589704Y-89170295D02*
X169589704Y-89265533D01*
X169589704Y-89265533D02*
X169542085Y-89408390D01*
X169542085Y-89408390D02*
X168970657Y-89979819D01*
X168970657Y-89979819D02*
X169589704Y-89979819D01*
X180610713Y-89979819D02*
X180610713Y-88979819D01*
X180610713Y-88979819D02*
X180848808Y-88979819D01*
X180848808Y-88979819D02*
X180991665Y-89027438D01*
X180991665Y-89027438D02*
X181086903Y-89122676D01*
X181086903Y-89122676D02*
X181134522Y-89217914D01*
X181134522Y-89217914D02*
X181182141Y-89408390D01*
X181182141Y-89408390D02*
X181182141Y-89551247D01*
X181182141Y-89551247D02*
X181134522Y-89741723D01*
X181134522Y-89741723D02*
X181086903Y-89836961D01*
X181086903Y-89836961D02*
X180991665Y-89932200D01*
X180991665Y-89932200D02*
X180848808Y-89979819D01*
X180848808Y-89979819D02*
X180610713Y-89979819D01*
X182039284Y-89313152D02*
X182039284Y-89979819D01*
X181801189Y-88932200D02*
X181563094Y-89646485D01*
X181563094Y-89646485D02*
X182182141Y-89646485D01*
X182991665Y-89313152D02*
X182991665Y-89979819D01*
X182753570Y-88932200D02*
X182515475Y-89646485D01*
X182515475Y-89646485D02*
X183134522Y-89646485D01*
X139569014Y-89929819D02*
X139569014Y-88929819D01*
X139569014Y-88929819D02*
X139807109Y-88929819D01*
X139807109Y-88929819D02*
X139949966Y-88977438D01*
X139949966Y-88977438D02*
X140045204Y-89072676D01*
X140045204Y-89072676D02*
X140092823Y-89167914D01*
X140092823Y-89167914D02*
X140140442Y-89358390D01*
X140140442Y-89358390D02*
X140140442Y-89501247D01*
X140140442Y-89501247D02*
X140092823Y-89691723D01*
X140092823Y-89691723D02*
X140045204Y-89786961D01*
X140045204Y-89786961D02*
X139949966Y-89882200D01*
X139949966Y-89882200D02*
X139807109Y-89929819D01*
X139807109Y-89929819D02*
X139569014Y-89929819D01*
X141092823Y-89929819D02*
X140521395Y-89929819D01*
X140807109Y-89929819D02*
X140807109Y-88929819D01*
X140807109Y-88929819D02*
X140711871Y-89072676D01*
X140711871Y-89072676D02*
X140616633Y-89167914D01*
X140616633Y-89167914D02*
X140521395Y-89215533D01*
X141569014Y-89929819D02*
X141759490Y-89929819D01*
X141759490Y-89929819D02*
X141854728Y-89882200D01*
X141854728Y-89882200D02*
X141902347Y-89834580D01*
X141902347Y-89834580D02*
X141997585Y-89691723D01*
X141997585Y-89691723D02*
X142045204Y-89501247D01*
X142045204Y-89501247D02*
X142045204Y-89120295D01*
X142045204Y-89120295D02*
X141997585Y-89025057D01*
X141997585Y-89025057D02*
X141949966Y-88977438D01*
X141949966Y-88977438D02*
X141854728Y-88929819D01*
X141854728Y-88929819D02*
X141664252Y-88929819D01*
X141664252Y-88929819D02*
X141569014Y-88977438D01*
X141569014Y-88977438D02*
X141521395Y-89025057D01*
X141521395Y-89025057D02*
X141473776Y-89120295D01*
X141473776Y-89120295D02*
X141473776Y-89358390D01*
X141473776Y-89358390D02*
X141521395Y-89453628D01*
X141521395Y-89453628D02*
X141569014Y-89501247D01*
X141569014Y-89501247D02*
X141664252Y-89548866D01*
X141664252Y-89548866D02*
X141854728Y-89548866D01*
X141854728Y-89548866D02*
X141949966Y-89501247D01*
X141949966Y-89501247D02*
X141997585Y-89453628D01*
X141997585Y-89453628D02*
X142045204Y-89358390D01*
D11*
X121988095Y-79785804D02*
X122111905Y-79785804D01*
X122111905Y-79785804D02*
X122235714Y-79847709D01*
X122235714Y-79847709D02*
X122297619Y-79909614D01*
X122297619Y-79909614D02*
X122359524Y-80033423D01*
X122359524Y-80033423D02*
X122421429Y-80281042D01*
X122421429Y-80281042D02*
X122421429Y-80590566D01*
X122421429Y-80590566D02*
X122359524Y-80838185D01*
X122359524Y-80838185D02*
X122297619Y-80961995D01*
X122297619Y-80961995D02*
X122235714Y-81023900D01*
X122235714Y-81023900D02*
X122111905Y-81085804D01*
X122111905Y-81085804D02*
X121988095Y-81085804D01*
X121988095Y-81085804D02*
X121864286Y-81023900D01*
X121864286Y-81023900D02*
X121802381Y-80961995D01*
X121802381Y-80961995D02*
X121740476Y-80838185D01*
X121740476Y-80838185D02*
X121678572Y-80590566D01*
X121678572Y-80590566D02*
X121678572Y-80281042D01*
X121678572Y-80281042D02*
X121740476Y-80033423D01*
X121740476Y-80033423D02*
X121802381Y-79909614D01*
X121802381Y-79909614D02*
X121864286Y-79847709D01*
X121864286Y-79847709D02*
X121988095Y-79785804D01*
X167572199Y-84960804D02*
X167572199Y-83660804D01*
D12*
X160227414Y-89979819D02*
X160227414Y-88979819D01*
X160227414Y-88979819D02*
X160465509Y-88979819D01*
X160465509Y-88979819D02*
X160608366Y-89027438D01*
X160608366Y-89027438D02*
X160703604Y-89122676D01*
X160703604Y-89122676D02*
X160751223Y-89217914D01*
X160751223Y-89217914D02*
X160798842Y-89408390D01*
X160798842Y-89408390D02*
X160798842Y-89551247D01*
X160798842Y-89551247D02*
X160751223Y-89741723D01*
X160751223Y-89741723D02*
X160703604Y-89836961D01*
X160703604Y-89836961D02*
X160608366Y-89932200D01*
X160608366Y-89932200D02*
X160465509Y-89979819D01*
X160465509Y-89979819D02*
X160227414Y-89979819D01*
X161179795Y-89075057D02*
X161227414Y-89027438D01*
X161227414Y-89027438D02*
X161322652Y-88979819D01*
X161322652Y-88979819D02*
X161560747Y-88979819D01*
X161560747Y-88979819D02*
X161655985Y-89027438D01*
X161655985Y-89027438D02*
X161703604Y-89075057D01*
X161703604Y-89075057D02*
X161751223Y-89170295D01*
X161751223Y-89170295D02*
X161751223Y-89265533D01*
X161751223Y-89265533D02*
X161703604Y-89408390D01*
X161703604Y-89408390D02*
X161132176Y-89979819D01*
X161132176Y-89979819D02*
X161751223Y-89979819D01*
X162227414Y-89979819D02*
X162417890Y-89979819D01*
X162417890Y-89979819D02*
X162513128Y-89932200D01*
X162513128Y-89932200D02*
X162560747Y-89884580D01*
X162560747Y-89884580D02*
X162655985Y-89741723D01*
X162655985Y-89741723D02*
X162703604Y-89551247D01*
X162703604Y-89551247D02*
X162703604Y-89170295D01*
X162703604Y-89170295D02*
X162655985Y-89075057D01*
X162655985Y-89075057D02*
X162608366Y-89027438D01*
X162608366Y-89027438D02*
X162513128Y-88979819D01*
X162513128Y-88979819D02*
X162322652Y-88979819D01*
X162322652Y-88979819D02*
X162227414Y-89027438D01*
X162227414Y-89027438D02*
X162179795Y-89075057D01*
X162179795Y-89075057D02*
X162132176Y-89170295D01*
X162132176Y-89170295D02*
X162132176Y-89408390D01*
X162132176Y-89408390D02*
X162179795Y-89503628D01*
X162179795Y-89503628D02*
X162227414Y-89551247D01*
X162227414Y-89551247D02*
X162322652Y-89598866D01*
X162322652Y-89598866D02*
X162513128Y-89598866D01*
X162513128Y-89598866D02*
X162608366Y-89551247D01*
X162608366Y-89551247D02*
X162655985Y-89503628D01*
X162655985Y-89503628D02*
X162703604Y-89408390D01*
D11*
X119945238Y-85109614D02*
X119821428Y-85047709D01*
X119821428Y-85047709D02*
X119697619Y-84923900D01*
X119697619Y-84923900D02*
X119511905Y-84738185D01*
X119511905Y-84738185D02*
X119388095Y-84676280D01*
X119388095Y-84676280D02*
X119264286Y-84676280D01*
X119326190Y-84985804D02*
X119202381Y-84923900D01*
X119202381Y-84923900D02*
X119078571Y-84800090D01*
X119078571Y-84800090D02*
X119016667Y-84552471D01*
X119016667Y-84552471D02*
X119016667Y-84119138D01*
X119016667Y-84119138D02*
X119078571Y-83871519D01*
X119078571Y-83871519D02*
X119202381Y-83747709D01*
X119202381Y-83747709D02*
X119326190Y-83685804D01*
X119326190Y-83685804D02*
X119573809Y-83685804D01*
X119573809Y-83685804D02*
X119697619Y-83747709D01*
X119697619Y-83747709D02*
X119821428Y-83871519D01*
X119821428Y-83871519D02*
X119883333Y-84119138D01*
X119883333Y-84119138D02*
X119883333Y-84552471D01*
X119883333Y-84552471D02*
X119821428Y-84800090D01*
X119821428Y-84800090D02*
X119697619Y-84923900D01*
X119697619Y-84923900D02*
X119573809Y-84985804D01*
X119573809Y-84985804D02*
X119326190Y-84985804D01*
D12*
X170414914Y-106604819D02*
X170414914Y-105604819D01*
X170414914Y-105604819D02*
X170653009Y-105604819D01*
X170653009Y-105604819D02*
X170795866Y-105652438D01*
X170795866Y-105652438D02*
X170891104Y-105747676D01*
X170891104Y-105747676D02*
X170938723Y-105842914D01*
X170938723Y-105842914D02*
X170986342Y-106033390D01*
X170986342Y-106033390D02*
X170986342Y-106176247D01*
X170986342Y-106176247D02*
X170938723Y-106366723D01*
X170938723Y-106366723D02*
X170891104Y-106461961D01*
X170891104Y-106461961D02*
X170795866Y-106557200D01*
X170795866Y-106557200D02*
X170653009Y-106604819D01*
X170653009Y-106604819D02*
X170414914Y-106604819D01*
X171319676Y-105604819D02*
X171938723Y-105604819D01*
X171938723Y-105604819D02*
X171605390Y-105985771D01*
X171605390Y-105985771D02*
X171748247Y-105985771D01*
X171748247Y-105985771D02*
X171843485Y-106033390D01*
X171843485Y-106033390D02*
X171891104Y-106081009D01*
X171891104Y-106081009D02*
X171938723Y-106176247D01*
X171938723Y-106176247D02*
X171938723Y-106414342D01*
X171938723Y-106414342D02*
X171891104Y-106509580D01*
X171891104Y-106509580D02*
X171843485Y-106557200D01*
X171843485Y-106557200D02*
X171748247Y-106604819D01*
X171748247Y-106604819D02*
X171462533Y-106604819D01*
X171462533Y-106604819D02*
X171367295Y-106557200D01*
X171367295Y-106557200D02*
X171319676Y-106509580D01*
X172891104Y-106604819D02*
X172319676Y-106604819D01*
X172605390Y-106604819D02*
X172605390Y-105604819D01*
X172605390Y-105604819D02*
X172510152Y-105747676D01*
X172510152Y-105747676D02*
X172414914Y-105842914D01*
X172414914Y-105842914D02*
X172319676Y-105890533D01*
D11*
X129124230Y-81010804D02*
X128381373Y-81010804D01*
X128752801Y-81010804D02*
X128752801Y-79710804D01*
X128752801Y-79710804D02*
X128628992Y-79896519D01*
X128628992Y-79896519D02*
X128505182Y-80020328D01*
X128505182Y-80020328D02*
X128381373Y-80082233D01*
X163828571Y-101610804D02*
X163828571Y-100310804D01*
X163828571Y-100310804D02*
X164571428Y-101610804D01*
X164571428Y-101610804D02*
X164571428Y-100310804D01*
D12*
X129524405Y-106454819D02*
X129524405Y-105454819D01*
X129524405Y-105454819D02*
X129762500Y-105454819D01*
X129762500Y-105454819D02*
X129905357Y-105502438D01*
X129905357Y-105502438D02*
X130000595Y-105597676D01*
X130000595Y-105597676D02*
X130048214Y-105692914D01*
X130048214Y-105692914D02*
X130095833Y-105883390D01*
X130095833Y-105883390D02*
X130095833Y-106026247D01*
X130095833Y-106026247D02*
X130048214Y-106216723D01*
X130048214Y-106216723D02*
X130000595Y-106311961D01*
X130000595Y-106311961D02*
X129905357Y-106407200D01*
X129905357Y-106407200D02*
X129762500Y-106454819D01*
X129762500Y-106454819D02*
X129524405Y-106454819D01*
X130429167Y-105454819D02*
X131095833Y-105454819D01*
X131095833Y-105454819D02*
X130667262Y-106454819D01*
D11*
X129314272Y-93498900D02*
X129499986Y-93560804D01*
X129499986Y-93560804D02*
X129809510Y-93560804D01*
X129809510Y-93560804D02*
X129933319Y-93498900D01*
X129933319Y-93498900D02*
X129995224Y-93436995D01*
X129995224Y-93436995D02*
X130057129Y-93313185D01*
X130057129Y-93313185D02*
X130057129Y-93189376D01*
X130057129Y-93189376D02*
X129995224Y-93065566D01*
X129995224Y-93065566D02*
X129933319Y-93003661D01*
X129933319Y-93003661D02*
X129809510Y-92941757D01*
X129809510Y-92941757D02*
X129561891Y-92879852D01*
X129561891Y-92879852D02*
X129438081Y-92817947D01*
X129438081Y-92817947D02*
X129376176Y-92756042D01*
X129376176Y-92756042D02*
X129314272Y-92632233D01*
X129314272Y-92632233D02*
X129314272Y-92508423D01*
X129314272Y-92508423D02*
X129376176Y-92384614D01*
X129376176Y-92384614D02*
X129438081Y-92322709D01*
X129438081Y-92322709D02*
X129561891Y-92260804D01*
X129561891Y-92260804D02*
X129871414Y-92260804D01*
X129871414Y-92260804D02*
X130057129Y-92322709D01*
D12*
X129410714Y-110279819D02*
X129410714Y-109279819D01*
X129410714Y-109279819D02*
X129648809Y-109279819D01*
X129648809Y-109279819D02*
X129791666Y-109327438D01*
X129791666Y-109327438D02*
X129886904Y-109422676D01*
X129886904Y-109422676D02*
X129934523Y-109517914D01*
X129934523Y-109517914D02*
X129982142Y-109708390D01*
X129982142Y-109708390D02*
X129982142Y-109851247D01*
X129982142Y-109851247D02*
X129934523Y-110041723D01*
X129934523Y-110041723D02*
X129886904Y-110136961D01*
X129886904Y-110136961D02*
X129791666Y-110232200D01*
X129791666Y-110232200D02*
X129648809Y-110279819D01*
X129648809Y-110279819D02*
X129410714Y-110279819D01*
X130886904Y-109279819D02*
X130410714Y-109279819D01*
X130410714Y-109279819D02*
X130363095Y-109756009D01*
X130363095Y-109756009D02*
X130410714Y-109708390D01*
X130410714Y-109708390D02*
X130505952Y-109660771D01*
X130505952Y-109660771D02*
X130744047Y-109660771D01*
X130744047Y-109660771D02*
X130839285Y-109708390D01*
X130839285Y-109708390D02*
X130886904Y-109756009D01*
X130886904Y-109756009D02*
X130934523Y-109851247D01*
X130934523Y-109851247D02*
X130934523Y-110089342D01*
X130934523Y-110089342D02*
X130886904Y-110184580D01*
X130886904Y-110184580D02*
X130839285Y-110232200D01*
X130839285Y-110232200D02*
X130744047Y-110279819D01*
X130744047Y-110279819D02*
X130505952Y-110279819D01*
X130505952Y-110279819D02*
X130410714Y-110232200D01*
X130410714Y-110232200D02*
X130363095Y-110184580D01*
X131886904Y-110279819D02*
X131315476Y-110279819D01*
X131601190Y-110279819D02*
X131601190Y-109279819D01*
X131601190Y-109279819D02*
X131505952Y-109422676D01*
X131505952Y-109422676D02*
X131410714Y-109517914D01*
X131410714Y-109517914D02*
X131315476Y-109565533D01*
D11*
X180734522Y-84835804D02*
X180734522Y-83535804D01*
X180734522Y-83535804D02*
X181229760Y-83535804D01*
X181229760Y-83535804D02*
X181353570Y-83597709D01*
X181353570Y-83597709D02*
X181415475Y-83659614D01*
X181415475Y-83659614D02*
X181477379Y-83783423D01*
X181477379Y-83783423D02*
X181477379Y-83969138D01*
X181477379Y-83969138D02*
X181415475Y-84092947D01*
X181415475Y-84092947D02*
X181353570Y-84154852D01*
X181353570Y-84154852D02*
X181229760Y-84216757D01*
X181229760Y-84216757D02*
X180734522Y-84216757D01*
X178485714Y-100754852D02*
X178671428Y-100816757D01*
X178671428Y-100816757D02*
X178733333Y-100878661D01*
X178733333Y-100878661D02*
X178795237Y-101002471D01*
X178795237Y-101002471D02*
X178795237Y-101188185D01*
X178795237Y-101188185D02*
X178733333Y-101311995D01*
X178733333Y-101311995D02*
X178671428Y-101373900D01*
X178671428Y-101373900D02*
X178547618Y-101435804D01*
X178547618Y-101435804D02*
X178052380Y-101435804D01*
X178052380Y-101435804D02*
X178052380Y-100135804D01*
X178052380Y-100135804D02*
X178485714Y-100135804D01*
X178485714Y-100135804D02*
X178609523Y-100197709D01*
X178609523Y-100197709D02*
X178671428Y-100259614D01*
X178671428Y-100259614D02*
X178733333Y-100383423D01*
X178733333Y-100383423D02*
X178733333Y-100507233D01*
X178733333Y-100507233D02*
X178671428Y-100631042D01*
X178671428Y-100631042D02*
X178609523Y-100692947D01*
X178609523Y-100692947D02*
X178485714Y-100754852D01*
X178485714Y-100754852D02*
X178052380Y-100754852D01*
X179290476Y-101064376D02*
X179909523Y-101064376D01*
X179166666Y-101435804D02*
X179599999Y-100135804D01*
X179599999Y-100135804D02*
X180033333Y-101435804D01*
X181209523Y-101311995D02*
X181147619Y-101373900D01*
X181147619Y-101373900D02*
X180961904Y-101435804D01*
X180961904Y-101435804D02*
X180838095Y-101435804D01*
X180838095Y-101435804D02*
X180652381Y-101373900D01*
X180652381Y-101373900D02*
X180528571Y-101250090D01*
X180528571Y-101250090D02*
X180466666Y-101126280D01*
X180466666Y-101126280D02*
X180404762Y-100878661D01*
X180404762Y-100878661D02*
X180404762Y-100692947D01*
X180404762Y-100692947D02*
X180466666Y-100445328D01*
X180466666Y-100445328D02*
X180528571Y-100321519D01*
X180528571Y-100321519D02*
X180652381Y-100197709D01*
X180652381Y-100197709D02*
X180838095Y-100135804D01*
X180838095Y-100135804D02*
X180961904Y-100135804D01*
X180961904Y-100135804D02*
X181147619Y-100197709D01*
X181147619Y-100197709D02*
X181209523Y-100259614D01*
X181766666Y-101435804D02*
X181766666Y-100135804D01*
X182509523Y-101435804D02*
X181952381Y-100692947D01*
X182509523Y-100135804D02*
X181766666Y-100878661D01*
D12*
X176704819Y-113089285D02*
X175704819Y-113089285D01*
X175704819Y-113089285D02*
X175704819Y-112851190D01*
X175704819Y-112851190D02*
X175752438Y-112708333D01*
X175752438Y-112708333D02*
X175847676Y-112613095D01*
X175847676Y-112613095D02*
X175942914Y-112565476D01*
X175942914Y-112565476D02*
X176133390Y-112517857D01*
X176133390Y-112517857D02*
X176276247Y-112517857D01*
X176276247Y-112517857D02*
X176466723Y-112565476D01*
X176466723Y-112565476D02*
X176561961Y-112613095D01*
X176561961Y-112613095D02*
X176657200Y-112708333D01*
X176657200Y-112708333D02*
X176704819Y-112851190D01*
X176704819Y-112851190D02*
X176704819Y-113089285D01*
X175704819Y-111613095D02*
X175704819Y-112089285D01*
X175704819Y-112089285D02*
X176181009Y-112136904D01*
X176181009Y-112136904D02*
X176133390Y-112089285D01*
X176133390Y-112089285D02*
X176085771Y-111994047D01*
X176085771Y-111994047D02*
X176085771Y-111755952D01*
X176085771Y-111755952D02*
X176133390Y-111660714D01*
X176133390Y-111660714D02*
X176181009Y-111613095D01*
X176181009Y-111613095D02*
X176276247Y-111565476D01*
X176276247Y-111565476D02*
X176514342Y-111565476D01*
X176514342Y-111565476D02*
X176609580Y-111613095D01*
X176609580Y-111613095D02*
X176657200Y-111660714D01*
X176657200Y-111660714D02*
X176704819Y-111755952D01*
X176704819Y-111755952D02*
X176704819Y-111994047D01*
X176704819Y-111994047D02*
X176657200Y-112089285D01*
X176657200Y-112089285D02*
X176609580Y-112136904D01*
X176038152Y-110708333D02*
X176704819Y-110708333D01*
X175657200Y-110946428D02*
X176371485Y-111184523D01*
X176371485Y-111184523D02*
X176371485Y-110565476D01*
D11*
X174337290Y-83660804D02*
X174584909Y-83660804D01*
X174584909Y-83660804D02*
X174708719Y-83722709D01*
X174708719Y-83722709D02*
X174832528Y-83846519D01*
X174832528Y-83846519D02*
X174894433Y-84094138D01*
X174894433Y-84094138D02*
X174894433Y-84527471D01*
X174894433Y-84527471D02*
X174832528Y-84775090D01*
X174832528Y-84775090D02*
X174708719Y-84898900D01*
X174708719Y-84898900D02*
X174584909Y-84960804D01*
X174584909Y-84960804D02*
X174337290Y-84960804D01*
X174337290Y-84960804D02*
X174213481Y-84898900D01*
X174213481Y-84898900D02*
X174089671Y-84775090D01*
X174089671Y-84775090D02*
X174027767Y-84527471D01*
X174027767Y-84527471D02*
X174027767Y-84094138D01*
X174027767Y-84094138D02*
X174089671Y-83846519D01*
X174089671Y-83846519D02*
X174213481Y-83722709D01*
X174213481Y-83722709D02*
X174337290Y-83660804D01*
X118401191Y-101423900D02*
X118586905Y-101485804D01*
X118586905Y-101485804D02*
X118896429Y-101485804D01*
X118896429Y-101485804D02*
X119020238Y-101423900D01*
X119020238Y-101423900D02*
X119082143Y-101361995D01*
X119082143Y-101361995D02*
X119144048Y-101238185D01*
X119144048Y-101238185D02*
X119144048Y-101114376D01*
X119144048Y-101114376D02*
X119082143Y-100990566D01*
X119082143Y-100990566D02*
X119020238Y-100928661D01*
X119020238Y-100928661D02*
X118896429Y-100866757D01*
X118896429Y-100866757D02*
X118648810Y-100804852D01*
X118648810Y-100804852D02*
X118525000Y-100742947D01*
X118525000Y-100742947D02*
X118463095Y-100681042D01*
X118463095Y-100681042D02*
X118401191Y-100557233D01*
X118401191Y-100557233D02*
X118401191Y-100433423D01*
X118401191Y-100433423D02*
X118463095Y-100309614D01*
X118463095Y-100309614D02*
X118525000Y-100247709D01*
X118525000Y-100247709D02*
X118648810Y-100185804D01*
X118648810Y-100185804D02*
X118958333Y-100185804D01*
X118958333Y-100185804D02*
X119144048Y-100247709D01*
X120134524Y-100804852D02*
X119701190Y-100804852D01*
X119701190Y-101485804D02*
X119701190Y-100185804D01*
X119701190Y-100185804D02*
X120320238Y-100185804D01*
X120629762Y-100185804D02*
X121372619Y-100185804D01*
X121001191Y-101485804D02*
X121001191Y-100185804D01*
D12*
X172985714Y-94404819D02*
X172985714Y-93404819D01*
X172985714Y-93404819D02*
X173223809Y-93404819D01*
X173223809Y-93404819D02*
X173366666Y-93452438D01*
X173366666Y-93452438D02*
X173461904Y-93547676D01*
X173461904Y-93547676D02*
X173509523Y-93642914D01*
X173509523Y-93642914D02*
X173557142Y-93833390D01*
X173557142Y-93833390D02*
X173557142Y-93976247D01*
X173557142Y-93976247D02*
X173509523Y-94166723D01*
X173509523Y-94166723D02*
X173461904Y-94261961D01*
X173461904Y-94261961D02*
X173366666Y-94357200D01*
X173366666Y-94357200D02*
X173223809Y-94404819D01*
X173223809Y-94404819D02*
X172985714Y-94404819D01*
X174414285Y-93738152D02*
X174414285Y-94404819D01*
X174176190Y-93357200D02*
X173938095Y-94071485D01*
X173938095Y-94071485D02*
X174557142Y-94071485D01*
X175128571Y-93404819D02*
X175223809Y-93404819D01*
X175223809Y-93404819D02*
X175319047Y-93452438D01*
X175319047Y-93452438D02*
X175366666Y-93500057D01*
X175366666Y-93500057D02*
X175414285Y-93595295D01*
X175414285Y-93595295D02*
X175461904Y-93785771D01*
X175461904Y-93785771D02*
X175461904Y-94023866D01*
X175461904Y-94023866D02*
X175414285Y-94214342D01*
X175414285Y-94214342D02*
X175366666Y-94309580D01*
X175366666Y-94309580D02*
X175319047Y-94357200D01*
X175319047Y-94357200D02*
X175223809Y-94404819D01*
X175223809Y-94404819D02*
X175128571Y-94404819D01*
X175128571Y-94404819D02*
X175033333Y-94357200D01*
X175033333Y-94357200D02*
X174985714Y-94309580D01*
X174985714Y-94309580D02*
X174938095Y-94214342D01*
X174938095Y-94214342D02*
X174890476Y-94023866D01*
X174890476Y-94023866D02*
X174890476Y-93785771D01*
X174890476Y-93785771D02*
X174938095Y-93595295D01*
X174938095Y-93595295D02*
X174985714Y-93500057D01*
X174985714Y-93500057D02*
X175033333Y-93452438D01*
X175033333Y-93452438D02*
X175128571Y-93404819D01*
X177633333Y-91104819D02*
X177300000Y-90628628D01*
X177061905Y-91104819D02*
X177061905Y-90104819D01*
X177061905Y-90104819D02*
X177442857Y-90104819D01*
X177442857Y-90104819D02*
X177538095Y-90152438D01*
X177538095Y-90152438D02*
X177585714Y-90200057D01*
X177585714Y-90200057D02*
X177633333Y-90295295D01*
X177633333Y-90295295D02*
X177633333Y-90438152D01*
X177633333Y-90438152D02*
X177585714Y-90533390D01*
X177585714Y-90533390D02*
X177538095Y-90581009D01*
X177538095Y-90581009D02*
X177442857Y-90628628D01*
X177442857Y-90628628D02*
X177061905Y-90628628D01*
X178490476Y-90438152D02*
X178490476Y-91104819D01*
X178252381Y-90057200D02*
X178014286Y-90771485D01*
X178014286Y-90771485D02*
X178633333Y-90771485D01*
X125796814Y-90029819D02*
X125796814Y-89029819D01*
X125796814Y-89029819D02*
X126034909Y-89029819D01*
X126034909Y-89029819D02*
X126177766Y-89077438D01*
X126177766Y-89077438D02*
X126273004Y-89172676D01*
X126273004Y-89172676D02*
X126320623Y-89267914D01*
X126320623Y-89267914D02*
X126368242Y-89458390D01*
X126368242Y-89458390D02*
X126368242Y-89601247D01*
X126368242Y-89601247D02*
X126320623Y-89791723D01*
X126320623Y-89791723D02*
X126273004Y-89886961D01*
X126273004Y-89886961D02*
X126177766Y-89982200D01*
X126177766Y-89982200D02*
X126034909Y-90029819D01*
X126034909Y-90029819D02*
X125796814Y-90029819D01*
X127320623Y-90029819D02*
X126749195Y-90029819D01*
X127034909Y-90029819D02*
X127034909Y-89029819D01*
X127034909Y-89029819D02*
X126939671Y-89172676D01*
X126939671Y-89172676D02*
X126844433Y-89267914D01*
X126844433Y-89267914D02*
X126749195Y-89315533D01*
X127701576Y-89125057D02*
X127749195Y-89077438D01*
X127749195Y-89077438D02*
X127844433Y-89029819D01*
X127844433Y-89029819D02*
X128082528Y-89029819D01*
X128082528Y-89029819D02*
X128177766Y-89077438D01*
X128177766Y-89077438D02*
X128225385Y-89125057D01*
X128225385Y-89125057D02*
X128273004Y-89220295D01*
X128273004Y-89220295D02*
X128273004Y-89315533D01*
X128273004Y-89315533D02*
X128225385Y-89458390D01*
X128225385Y-89458390D02*
X127653957Y-90029819D01*
X127653957Y-90029819D02*
X128273004Y-90029819D01*
X177435714Y-98479819D02*
X177435714Y-97479819D01*
X177435714Y-97479819D02*
X177673809Y-97479819D01*
X177673809Y-97479819D02*
X177816666Y-97527438D01*
X177816666Y-97527438D02*
X177911904Y-97622676D01*
X177911904Y-97622676D02*
X177959523Y-97717914D01*
X177959523Y-97717914D02*
X178007142Y-97908390D01*
X178007142Y-97908390D02*
X178007142Y-98051247D01*
X178007142Y-98051247D02*
X177959523Y-98241723D01*
X177959523Y-98241723D02*
X177911904Y-98336961D01*
X177911904Y-98336961D02*
X177816666Y-98432200D01*
X177816666Y-98432200D02*
X177673809Y-98479819D01*
X177673809Y-98479819D02*
X177435714Y-98479819D01*
X178864285Y-97813152D02*
X178864285Y-98479819D01*
X178626190Y-97432200D02*
X178388095Y-98146485D01*
X178388095Y-98146485D02*
X179007142Y-98146485D01*
X179816666Y-97479819D02*
X179626190Y-97479819D01*
X179626190Y-97479819D02*
X179530952Y-97527438D01*
X179530952Y-97527438D02*
X179483333Y-97575057D01*
X179483333Y-97575057D02*
X179388095Y-97717914D01*
X179388095Y-97717914D02*
X179340476Y-97908390D01*
X179340476Y-97908390D02*
X179340476Y-98289342D01*
X179340476Y-98289342D02*
X179388095Y-98384580D01*
X179388095Y-98384580D02*
X179435714Y-98432200D01*
X179435714Y-98432200D02*
X179530952Y-98479819D01*
X179530952Y-98479819D02*
X179721428Y-98479819D01*
X179721428Y-98479819D02*
X179816666Y-98432200D01*
X179816666Y-98432200D02*
X179864285Y-98384580D01*
X179864285Y-98384580D02*
X179911904Y-98289342D01*
X179911904Y-98289342D02*
X179911904Y-98051247D01*
X179911904Y-98051247D02*
X179864285Y-97956009D01*
X179864285Y-97956009D02*
X179816666Y-97908390D01*
X179816666Y-97908390D02*
X179721428Y-97860771D01*
X179721428Y-97860771D02*
X179530952Y-97860771D01*
X179530952Y-97860771D02*
X179435714Y-97908390D01*
X179435714Y-97908390D02*
X179388095Y-97956009D01*
X179388095Y-97956009D02*
X179340476Y-98051247D01*
X180338095Y-114404819D02*
X180338095Y-113404819D01*
X180338095Y-113881009D02*
X180909523Y-113881009D01*
X180909523Y-114404819D02*
X180909523Y-113404819D01*
X181909523Y-114404819D02*
X181338095Y-114404819D01*
X181623809Y-114404819D02*
X181623809Y-113404819D01*
X181623809Y-113404819D02*
X181528571Y-113547676D01*
X181528571Y-113547676D02*
X181433333Y-113642914D01*
X181433333Y-113642914D02*
X181338095Y-113690533D01*
X127513333Y-117294819D02*
X127180000Y-116818628D01*
X126941905Y-117294819D02*
X126941905Y-116294819D01*
X126941905Y-116294819D02*
X127322857Y-116294819D01*
X127322857Y-116294819D02*
X127418095Y-116342438D01*
X127418095Y-116342438D02*
X127465714Y-116390057D01*
X127465714Y-116390057D02*
X127513333Y-116485295D01*
X127513333Y-116485295D02*
X127513333Y-116628152D01*
X127513333Y-116628152D02*
X127465714Y-116723390D01*
X127465714Y-116723390D02*
X127418095Y-116771009D01*
X127418095Y-116771009D02*
X127322857Y-116818628D01*
X127322857Y-116818628D02*
X126941905Y-116818628D01*
X128418095Y-116294819D02*
X127941905Y-116294819D01*
X127941905Y-116294819D02*
X127894286Y-116771009D01*
X127894286Y-116771009D02*
X127941905Y-116723390D01*
X127941905Y-116723390D02*
X128037143Y-116675771D01*
X128037143Y-116675771D02*
X128275238Y-116675771D01*
X128275238Y-116675771D02*
X128370476Y-116723390D01*
X128370476Y-116723390D02*
X128418095Y-116771009D01*
X128418095Y-116771009D02*
X128465714Y-116866247D01*
X128465714Y-116866247D02*
X128465714Y-117104342D01*
X128465714Y-117104342D02*
X128418095Y-117199580D01*
X128418095Y-117199580D02*
X128370476Y-117247200D01*
X128370476Y-117247200D02*
X128275238Y-117294819D01*
X128275238Y-117294819D02*
X128037143Y-117294819D01*
X128037143Y-117294819D02*
X127941905Y-117247200D01*
X127941905Y-117247200D02*
X127894286Y-117199580D01*
D11*
X135284173Y-79834614D02*
X135346077Y-79772709D01*
X135346077Y-79772709D02*
X135469887Y-79710804D01*
X135469887Y-79710804D02*
X135779411Y-79710804D01*
X135779411Y-79710804D02*
X135903220Y-79772709D01*
X135903220Y-79772709D02*
X135965125Y-79834614D01*
X135965125Y-79834614D02*
X136027030Y-79958423D01*
X136027030Y-79958423D02*
X136027030Y-80082233D01*
X136027030Y-80082233D02*
X135965125Y-80267947D01*
X135965125Y-80267947D02*
X135222268Y-81010804D01*
X135222268Y-81010804D02*
X136027030Y-81010804D01*
D13*
%TO.C,D36*%
X159511201Y-81290000D02*
X159511201Y-83210000D01*
X159511201Y-83210000D02*
X162196200Y-83210000D01*
X162196200Y-81290000D02*
X159511201Y-81290000D01*
%TO.C,SWe88*%
X159450001Y-110825000D02*
X159450001Y-114125000D01*
X159450001Y-114125000D02*
X159750001Y-114125000D01*
X159750001Y-110825000D02*
X159450001Y-110825000D01*
X161950001Y-110825000D02*
X162250001Y-110825000D01*
X162250001Y-110825000D02*
X162250001Y-114125000D01*
X162250001Y-114125000D02*
X161950001Y-114125000D01*
%TO.C,D39*%
X179778001Y-81190000D02*
X179778001Y-83110000D01*
X179778001Y-83110000D02*
X182463000Y-83110000D01*
X182463000Y-81190000D02*
X179778001Y-81190000D01*
%TO.C,D20*%
X142668101Y-97015000D02*
X142668101Y-98935000D01*
X142668101Y-98935000D02*
X145353100Y-98935000D01*
X145353100Y-97015000D02*
X142668101Y-97015000D01*
%TO.C,D52*%
X169666401Y-112240000D02*
X169666401Y-114160000D01*
X169666401Y-114160000D02*
X172351400Y-114160000D01*
X172351400Y-112240000D02*
X169666401Y-112240000D01*
%TO.C,D11*%
X132122101Y-81290000D02*
X132122101Y-83210000D01*
X132122101Y-83210000D02*
X134807100Y-83210000D01*
X134807100Y-81290000D02*
X132122101Y-81290000D01*
%TO.C,SWe14*%
X159033300Y-85475000D02*
X162333300Y-85475000D01*
X159033300Y-85775000D02*
X159033300Y-85475000D01*
X159033300Y-87975000D02*
X159033300Y-88275000D01*
X159033300Y-88275000D02*
X162333300Y-88275000D01*
X162333300Y-85475000D02*
X162333300Y-85775000D01*
X162333300Y-88275000D02*
X162333300Y-87975000D01*
%TO.C,SWe64*%
X148750000Y-102125000D02*
X152050000Y-102125000D01*
X148750000Y-102425000D02*
X148750000Y-102125000D01*
X148750000Y-104625000D02*
X148750000Y-104925000D01*
X148750000Y-104925000D02*
X152050000Y-104925000D01*
X152050000Y-102125000D02*
X152050000Y-102425000D01*
X152050000Y-104925000D02*
X152050000Y-104625000D01*
%TO.C,D4*%
X137177500Y-107740000D02*
X137177500Y-109660000D01*
X137177500Y-109660000D02*
X139862500Y-109660000D01*
X139862500Y-107740000D02*
X137177500Y-107740000D01*
%TO.C,D15*%
X132212201Y-88590000D02*
X132212201Y-90510000D01*
X132212201Y-90510000D02*
X134897200Y-90510000D01*
X134897200Y-88590000D02*
X132212201Y-88590000D01*
%TO.C,SWe7*%
X166449999Y-117100000D02*
X166449999Y-117400000D01*
X166449999Y-119900000D02*
X166449999Y-119600000D01*
X169749999Y-117100000D02*
X166449999Y-117100000D01*
X169749999Y-117400000D02*
X169749999Y-117100000D01*
X169749999Y-119600000D02*
X169749999Y-119900000D01*
X169749999Y-119900000D02*
X166449999Y-119900000D01*
%TO.C,SWe12*%
X119525000Y-111775000D02*
X122825000Y-111775000D01*
X119525000Y-112075000D02*
X119525000Y-111775000D01*
X119525000Y-114275000D02*
X119525000Y-114575000D01*
X119525000Y-114575000D02*
X122825000Y-114575000D01*
X122825000Y-111775000D02*
X122825000Y-112075000D01*
X122825000Y-114575000D02*
X122825000Y-114275000D01*
%TO.C,SWe13*%
X152250000Y-117175000D02*
X155550000Y-117175000D01*
X152250000Y-117475000D02*
X152250000Y-117175000D01*
X152250000Y-119675000D02*
X152250000Y-119975000D01*
X152250000Y-119975000D02*
X155550000Y-119975000D01*
X155550000Y-117175000D02*
X155550000Y-117475000D01*
X155550000Y-119975000D02*
X155550000Y-119675000D01*
%TO.C,D21*%
X149260801Y-105065000D02*
X149260801Y-106985000D01*
X149260801Y-106985000D02*
X151945800Y-106985000D01*
X151945800Y-105065000D02*
X149260801Y-105065000D01*
%TO.C,D26*%
X156386901Y-97015000D02*
X156386901Y-98935000D01*
X156386901Y-98935000D02*
X159071900Y-98935000D01*
X159071900Y-97015000D02*
X156386901Y-97015000D01*
%TO.C,D43*%
X173528901Y-88590000D02*
X173528901Y-90510000D01*
X173528901Y-90510000D02*
X176213900Y-90510000D01*
X176213900Y-88590000D02*
X173528901Y-88590000D01*
%TO.C,D14*%
X135471901Y-105065000D02*
X135471901Y-106985000D01*
X135471901Y-106985000D02*
X138156900Y-106985000D01*
X138156900Y-105065000D02*
X135471901Y-105065000D01*
%TO.C,SWe50*%
X178050000Y-111050000D02*
X178050000Y-111350000D01*
X178050000Y-113850000D02*
X178050000Y-113550000D01*
X181350000Y-111050000D02*
X178050000Y-111050000D01*
X181350000Y-111350000D02*
X181350000Y-111050000D01*
X181350000Y-113550000D02*
X181350000Y-113850000D01*
X181350000Y-113850000D02*
X178050000Y-113850000D01*
%TO.C,D17*%
X142366401Y-105065000D02*
X142366401Y-106985000D01*
X142366401Y-106985000D02*
X145051400Y-106985000D01*
X145051400Y-105065000D02*
X142366401Y-105065000D01*
%TO.C,SWe38*%
X169389300Y-94075000D02*
X172689300Y-94075000D01*
X169389300Y-94375000D02*
X169389300Y-94075000D01*
X169389300Y-96575000D02*
X169389300Y-96875000D01*
X169389300Y-96875000D02*
X172689300Y-96875000D01*
X172689300Y-94075000D02*
X172689300Y-94375000D01*
X172689300Y-96875000D02*
X172689300Y-96575000D01*
%TO.C,D22*%
X156690001Y-116240001D02*
X156690001Y-118925000D01*
X158610001Y-116240001D02*
X156690001Y-116240001D01*
X158610001Y-118925000D02*
X158610001Y-116240001D01*
%TO.C,D27*%
X163049701Y-105065000D02*
X163049701Y-106985000D01*
X163049701Y-106985000D02*
X165734700Y-106985000D01*
X165734700Y-105065000D02*
X163049701Y-105065000D01*
%TO.C,D45*%
X170105601Y-97015000D02*
X170105601Y-98935000D01*
X170105601Y-98935000D02*
X172790600Y-98935000D01*
X172790600Y-97015000D02*
X170105601Y-97015000D01*
%TO.C,SWe20*%
X138333300Y-78350000D02*
X141633300Y-78350000D01*
X138333300Y-78650000D02*
X138333300Y-78350000D01*
X138333300Y-80850000D02*
X138333300Y-81150000D01*
X138333300Y-81150000D02*
X141633300Y-81150000D01*
X141633300Y-78350000D02*
X141633300Y-78650000D01*
X141633300Y-81150000D02*
X141633300Y-80850000D01*
%TO.C,SWe21*%
X145236100Y-78350000D02*
X148536100Y-78350000D01*
X145236100Y-78650000D02*
X145236100Y-78350000D01*
X145236100Y-80850000D02*
X145236100Y-81150000D01*
X145236100Y-81150000D02*
X148536100Y-81150000D01*
X148536100Y-78350000D02*
X148536100Y-78650000D01*
X148536100Y-81150000D02*
X148536100Y-80850000D01*
%TO.C,SWe73*%
X148712500Y-94075000D02*
X152012500Y-94075000D01*
X148712500Y-94375000D02*
X148712500Y-94075000D01*
X148712500Y-96575000D02*
X148712500Y-96875000D01*
X148712500Y-96875000D02*
X152012500Y-96875000D01*
X152012500Y-94075000D02*
X152012500Y-94375000D01*
X152012500Y-96875000D02*
X152012500Y-96575000D01*
%TO.C,SWe53*%
X134932400Y-94075000D02*
X138232400Y-94075000D01*
X134932400Y-94375000D02*
X134932400Y-94075000D01*
X134932400Y-96575000D02*
X134932400Y-96875000D01*
X134932400Y-96875000D02*
X138232400Y-96875000D01*
X138232400Y-94075000D02*
X138232400Y-94375000D01*
X138232400Y-96875000D02*
X138232400Y-96575000D01*
%TO.C,SWe87*%
X155650000Y-102125000D02*
X158950000Y-102125000D01*
X155650000Y-102425000D02*
X155650000Y-102125000D01*
X155650000Y-104625000D02*
X155650000Y-104925000D01*
X155650000Y-104925000D02*
X158950000Y-104925000D01*
X158950000Y-102125000D02*
X158950000Y-102425000D01*
X158950000Y-104925000D02*
X158950000Y-104625000D01*
%TO.C,SWe2*%
X159350001Y-117400000D02*
X159350001Y-117700000D01*
X159350001Y-120200000D02*
X159350001Y-119900000D01*
X162650001Y-117400000D02*
X159350001Y-117400000D01*
X162650001Y-117700000D02*
X162650001Y-117400000D01*
X162650001Y-119900000D02*
X162650001Y-120200000D01*
X162650001Y-120200000D02*
X159350001Y-120200000D01*
%TO.C,D8*%
X122090001Y-97015000D02*
X122090001Y-98935000D01*
X122090001Y-98935000D02*
X124775000Y-98935000D01*
X124775000Y-97015000D02*
X122090001Y-97015000D01*
%TO.C,SWe33*%
X121125000Y-94075000D02*
X124425000Y-94075000D01*
X121125000Y-94375000D02*
X121125000Y-94075000D01*
X121125000Y-96575000D02*
X121125000Y-96875000D01*
X121125000Y-96875000D02*
X124425000Y-96875000D01*
X124425000Y-94075000D02*
X124425000Y-94375000D01*
X124425000Y-96875000D02*
X124425000Y-96575000D01*
%TO.C,D16*%
X135808801Y-97015000D02*
X135808801Y-98935000D01*
X135808801Y-98935000D02*
X138493800Y-98935000D01*
X138493800Y-97015000D02*
X135808801Y-97015000D01*
%TO.C,SWe62*%
X138366700Y-85475000D02*
X141666700Y-85475000D01*
X138366700Y-85775000D02*
X138366700Y-85475000D01*
X138366700Y-87975000D02*
X138366700Y-88275000D01*
X138366700Y-88275000D02*
X141666700Y-88275000D01*
X141666700Y-85475000D02*
X141666700Y-85775000D01*
X141666700Y-88275000D02*
X141666700Y-87975000D01*
%TO.C,SWe28*%
X172847200Y-78350000D02*
X176147200Y-78350000D01*
X172847200Y-78650000D02*
X172847200Y-78350000D01*
X172847200Y-80850000D02*
X172847200Y-81150000D01*
X172847200Y-81150000D02*
X176147200Y-81150000D01*
X176147200Y-78350000D02*
X176147200Y-78650000D01*
X176147200Y-81150000D02*
X176147200Y-80850000D01*
%TO.C,SWe27*%
X165944400Y-78350000D02*
X169244400Y-78350000D01*
X165944400Y-78650000D02*
X165944400Y-78350000D01*
X165944400Y-80850000D02*
X165944400Y-81150000D01*
X165944400Y-81150000D02*
X169244400Y-81150000D01*
X169244400Y-78350000D02*
X169244400Y-78650000D01*
X169244400Y-81150000D02*
X169244400Y-80850000D01*
%TO.C,SWe29*%
X179475000Y-78250000D02*
X182775000Y-78250000D01*
X179475000Y-78550000D02*
X179475000Y-78250000D01*
X179475000Y-80750000D02*
X179475000Y-81050000D01*
X179475000Y-81050000D02*
X182775000Y-81050000D01*
X182775000Y-78250000D02*
X182775000Y-78550000D01*
X182775000Y-81050000D02*
X182775000Y-80750000D01*
%TO.C,SWe34*%
X128050000Y-102125000D02*
X131350000Y-102125000D01*
X128050000Y-102425000D02*
X128050000Y-102125000D01*
X128050000Y-104625000D02*
X128050000Y-104925000D01*
X128050000Y-104925000D02*
X131350000Y-104925000D01*
X131350000Y-102125000D02*
X131350000Y-102425000D01*
X131350000Y-104925000D02*
X131350000Y-104625000D01*
%TO.C,D25*%
X152870601Y-88590000D02*
X152870601Y-90510000D01*
X152870601Y-90510000D02*
X155555600Y-90510000D01*
X155555600Y-88590000D02*
X152870601Y-88590000D01*
%TO.C,R2*%
X135527064Y-107965000D02*
X135072936Y-107965000D01*
X135527064Y-109435000D02*
X135072936Y-109435000D01*
%TO.C,D3*%
X120015001Y-105215000D02*
X120015001Y-107135000D01*
X120015001Y-107135000D02*
X122700000Y-107135000D01*
X122700000Y-105215000D02*
X120015001Y-105215000D01*
%TO.C,R6*%
X164535435Y-108070000D02*
X164989563Y-108070000D01*
X164535435Y-109540000D02*
X164989563Y-109540000D01*
%TO.C,D91*%
X148865908Y-111935336D02*
X151550907Y-111935336D01*
X151550907Y-110015336D02*
X148865908Y-110015336D01*
X151550907Y-111935336D02*
X151550907Y-110015336D01*
%TO.C,SWe4*%
X152144400Y-85475000D02*
X155444400Y-85475000D01*
X152144400Y-85775000D02*
X152144400Y-85475000D01*
X152144400Y-87975000D02*
X152144400Y-88275000D01*
X152144400Y-88275000D02*
X155444400Y-88275000D01*
X155444400Y-85475000D02*
X155444400Y-85775000D01*
X155444400Y-88275000D02*
X155444400Y-87975000D01*
D14*
%TO.C,U1*%
X139225000Y-113275000D02*
X139225001Y-113635000D01*
X139225000Y-117375000D02*
X139585000Y-117374999D01*
X139225001Y-117015000D02*
X139225000Y-117375000D01*
X139585000Y-113275001D02*
X139225000Y-113275000D01*
X142965000Y-113275001D02*
X143325000Y-113275000D01*
X142965000Y-117374999D02*
X143325000Y-117375000D01*
X143325000Y-113275000D02*
X143324999Y-113635000D01*
X143325000Y-117375000D02*
X143324999Y-117015000D01*
D11*
X144170000Y-116575000D02*
G75*
G02*
X144070000Y-116575000I-50000J0D01*
G01*
X144070000Y-116575000D02*
G75*
G02*
X144170000Y-116575000I50000J0D01*
G01*
D13*
%TO.C,R1*%
X123925000Y-114997064D02*
X123925000Y-114542936D01*
X125395000Y-114997064D02*
X125395000Y-114542936D01*
%TO.C,SWe26*%
X159041700Y-78350000D02*
X162341700Y-78350000D01*
X159041700Y-78650000D02*
X159041700Y-78350000D01*
X159041700Y-80850000D02*
X159041700Y-81150000D01*
X159041700Y-81150000D02*
X162341700Y-81150000D01*
X162341700Y-78350000D02*
X162341700Y-78650000D01*
X162341700Y-81150000D02*
X162341700Y-80850000D01*
%TO.C,D18*%
X153002501Y-114890000D02*
X153002501Y-116810000D01*
X153002501Y-116810000D02*
X155687500Y-116810000D01*
X155687500Y-114890000D02*
X153002501Y-114890000D01*
%TO.C,SWe63*%
X141822400Y-94075000D02*
X145122400Y-94075000D01*
X141822400Y-94375000D02*
X141822400Y-94075000D01*
X141822400Y-96575000D02*
X141822400Y-96875000D01*
X141822400Y-96875000D02*
X145122400Y-96875000D01*
X145122400Y-94075000D02*
X145122400Y-94375000D01*
X145122400Y-96875000D02*
X145122400Y-96575000D01*
%TO.C,SWe44*%
X134950000Y-102125000D02*
X138250000Y-102125000D01*
X134950000Y-102425000D02*
X134950000Y-102125000D01*
X134950000Y-104625000D02*
X134950000Y-104925000D01*
X134950000Y-104925000D02*
X138250000Y-104925000D01*
X138250000Y-102125000D02*
X138250000Y-102425000D01*
X138250000Y-104925000D02*
X138250000Y-104625000D01*
%TO.C,D6*%
X125077500Y-91340000D02*
X125077500Y-93260000D01*
X125077500Y-93260000D02*
X127762500Y-93260000D01*
X127762500Y-91340000D02*
X125077500Y-91340000D01*
%TO.C,D23*%
X145984401Y-88590000D02*
X145984401Y-90510000D01*
X145984401Y-90510000D02*
X148669400Y-90510000D01*
X148669400Y-88590000D02*
X145984401Y-88590000D01*
%TO.C,SWe15*%
X162492600Y-94075000D02*
X165792600Y-94075000D01*
X162492600Y-94375000D02*
X162492600Y-94075000D01*
X162492600Y-96575000D02*
X162492600Y-96875000D01*
X162492600Y-96875000D02*
X165792600Y-96875000D01*
X165792600Y-94075000D02*
X165792600Y-94375000D01*
X165792600Y-96875000D02*
X165792600Y-96575000D01*
%TO.C,SWe42*%
X124588900Y-85475000D02*
X127888900Y-85475000D01*
X124588900Y-85775000D02*
X124588900Y-85475000D01*
X124588900Y-87975000D02*
X124588900Y-88275000D01*
X124588900Y-88275000D02*
X127888900Y-88275000D01*
X127888900Y-85475000D02*
X127888900Y-85775000D01*
X127888900Y-88275000D02*
X127888900Y-87975000D01*
%TO.C,SWe25*%
X152138900Y-78350000D02*
X155438900Y-78350000D01*
X152138900Y-78650000D02*
X152138900Y-78350000D01*
X152138900Y-80850000D02*
X152138900Y-81150000D01*
X152138900Y-81150000D02*
X155438900Y-81150000D01*
X155438900Y-78350000D02*
X155438900Y-78650000D01*
X155438900Y-81150000D02*
X155438900Y-80850000D01*
%TO.C,D92*%
X156155300Y-105065000D02*
X156155300Y-106985000D01*
X156155300Y-106985000D02*
X158840300Y-106985000D01*
X158840300Y-105065000D02*
X156155300Y-105065000D01*
%TO.C,D5*%
X120252501Y-109840000D02*
X120252501Y-111760000D01*
X120252501Y-111760000D02*
X122937500Y-111760000D01*
X122937500Y-109840000D02*
X120252501Y-109840000D01*
%TO.C,D24*%
X149527501Y-97015000D02*
X149527501Y-98935000D01*
X149527501Y-98935000D02*
X152212500Y-98935000D01*
X152212500Y-97015000D02*
X149527501Y-97015000D01*
%TO.C,D93*%
X157290001Y-111490001D02*
X157290001Y-114175000D01*
X159210001Y-111490001D02*
X157290001Y-111490001D01*
X159210001Y-114175000D02*
X159210001Y-111490001D01*
%TO.C,SWe52*%
X131477800Y-85475000D02*
X134777800Y-85475000D01*
X131477800Y-85775000D02*
X131477800Y-85475000D01*
X131477800Y-87975000D02*
X131477800Y-88275000D01*
X131477800Y-88275000D02*
X134777800Y-88275000D01*
X134777800Y-85475000D02*
X134777800Y-85775000D01*
X134777800Y-88275000D02*
X134777800Y-87975000D01*
%TO.C,D32*%
X178552501Y-105715000D02*
X178552501Y-107635000D01*
X178552501Y-107635000D02*
X181237500Y-107635000D01*
X181237500Y-105715000D02*
X178552501Y-105715000D01*
%TO.C,D47*%
X160162499Y-109760000D02*
X162847498Y-109760000D01*
X162847498Y-107840000D02*
X160162499Y-107840000D01*
X162847498Y-109760000D02*
X162847498Y-107840000D01*
%TO.C,D38*%
X173205701Y-81290000D02*
X173205701Y-83210000D01*
X173205701Y-83210000D02*
X175890700Y-83210000D01*
X175890700Y-81290000D02*
X173205701Y-81290000D01*
%TO.C,D13*%
X128949401Y-97015000D02*
X128949401Y-98935000D01*
X128949401Y-98935000D02*
X131634400Y-98935000D01*
X131634400Y-97015000D02*
X128949401Y-97015000D01*
%TO.C,SWe48*%
X168850000Y-109300000D02*
X172150000Y-109300000D01*
X168850000Y-109600000D02*
X168850000Y-109300000D01*
X168850000Y-111800000D02*
X168850000Y-112100000D01*
X168850000Y-112100000D02*
X172150000Y-112100000D01*
X172150000Y-109300000D02*
X172150000Y-109600000D01*
X172150000Y-112100000D02*
X172150000Y-111800000D01*
%TO.C,D30*%
X163246301Y-97015000D02*
X163246301Y-98935000D01*
X163246301Y-98935000D02*
X165931300Y-98935000D01*
X165931300Y-97015000D02*
X163246301Y-97015000D01*
%TO.C,D9*%
X118440001Y-88590000D02*
X118440001Y-90510000D01*
X118440001Y-90510000D02*
X121125000Y-90510000D01*
X121125000Y-88590000D02*
X118440001Y-88590000D01*
%TO.C,D34*%
X145816601Y-81290000D02*
X145816601Y-83210000D01*
X145816601Y-83210000D02*
X148501600Y-83210000D01*
X148501600Y-81290000D02*
X145816601Y-81290000D01*
%TO.C,D10*%
X125274801Y-81290000D02*
X125274801Y-83210000D01*
X125274801Y-83210000D02*
X127959800Y-83210000D01*
X127959800Y-81290000D02*
X125274801Y-81290000D01*
%TO.C,SWe54*%
X141850000Y-102125000D02*
X145150000Y-102125000D01*
X141850000Y-102425000D02*
X141850000Y-102125000D01*
X141850000Y-104625000D02*
X141850000Y-104925000D01*
X141850000Y-104925000D02*
X145150000Y-104925000D01*
X145150000Y-102125000D02*
X145150000Y-102425000D01*
X145150000Y-104925000D02*
X145150000Y-104625000D01*
%TO.C,R7*%
X131617064Y-114605000D02*
X131162936Y-114605000D01*
X131617064Y-116075000D02*
X131162936Y-116075000D01*
%TO.C,SWe39*%
X176300000Y-94075000D02*
X179600000Y-94075000D01*
X176300000Y-94375000D02*
X176300000Y-94075000D01*
X176300000Y-96575000D02*
X176300000Y-96875000D01*
X176300000Y-96875000D02*
X179600000Y-96875000D01*
X179600000Y-94075000D02*
X179600000Y-94375000D01*
X179600000Y-96875000D02*
X179600000Y-96575000D01*
%TO.C,SWe72*%
X145255600Y-85475000D02*
X148555600Y-85475000D01*
X145255600Y-85775000D02*
X145255600Y-85475000D01*
X145255600Y-87975000D02*
X145255600Y-88275000D01*
X145255600Y-88275000D02*
X148555600Y-88275000D01*
X148555600Y-85475000D02*
X148555600Y-85775000D01*
X148555600Y-88275000D02*
X148555600Y-87975000D01*
%TO.C,SWe16*%
X169450000Y-102125000D02*
X172750000Y-102125000D01*
X169450000Y-102425000D02*
X169450000Y-102125000D01*
X169450000Y-104625000D02*
X169450000Y-104925000D01*
X169450000Y-104925000D02*
X172750000Y-104925000D01*
X172750000Y-102125000D02*
X172750000Y-102425000D01*
X172750000Y-104925000D02*
X172750000Y-104625000D01*
%TO.C,R3*%
X123352064Y-91565000D02*
X122897936Y-91565000D01*
X123352064Y-93035000D02*
X122897936Y-93035000D01*
%TO.C,D35*%
X152663901Y-81290000D02*
X152663901Y-83210000D01*
X152663901Y-83210000D02*
X155348900Y-83210000D01*
X155348900Y-81290000D02*
X152663901Y-81290000D01*
%TO.C,SWe47*%
X128034700Y-111075000D02*
X131334700Y-111075000D01*
X128034700Y-111375000D02*
X128034700Y-111075000D01*
X128034700Y-113575000D02*
X128034700Y-113875000D01*
X128034700Y-113875000D02*
X131334700Y-113875000D01*
X131334700Y-111075000D02*
X131334700Y-111375000D01*
X131334700Y-113875000D02*
X131334700Y-113575000D01*
%TO.C,SWe86*%
X143890908Y-109375336D02*
X147190908Y-109375336D01*
X143890908Y-109675336D02*
X143890908Y-109375336D01*
X143890908Y-111875336D02*
X143890908Y-112175336D01*
X143890908Y-112175336D02*
X147190908Y-112175336D01*
X147190908Y-109375336D02*
X147190908Y-109675336D01*
X147190908Y-112175336D02*
X147190908Y-111875336D01*
%TO.C,D28*%
X166600000Y-116835000D02*
X169284999Y-116835000D01*
X169284999Y-114915000D02*
X166600000Y-114915000D01*
X169284999Y-116835000D02*
X169284999Y-114915000D01*
%TO.C,SWe5*%
X155602600Y-94075000D02*
X158902600Y-94075000D01*
X155602600Y-94375000D02*
X155602600Y-94075000D01*
X155602600Y-96575000D02*
X155602600Y-96875000D01*
X155602600Y-96875000D02*
X158902600Y-96875000D01*
X158902600Y-94075000D02*
X158902600Y-94375000D01*
X158902600Y-96875000D02*
X158902600Y-96575000D01*
%TO.C,D42*%
X166642801Y-88590000D02*
X166642801Y-90510000D01*
X166642801Y-90510000D02*
X169327800Y-90510000D01*
X169327800Y-88590000D02*
X166642801Y-88590000D01*
%TO.C,D2*%
X118427501Y-81290000D02*
X118427501Y-83210000D01*
X118427501Y-83210000D02*
X121112500Y-83210000D01*
X121112500Y-81290000D02*
X118427501Y-81290000D01*
%TO.C,D44*%
X180140000Y-88465000D02*
X180140000Y-90385000D01*
X180140000Y-90385000D02*
X182824999Y-90385000D01*
X182824999Y-88465000D02*
X180140000Y-88465000D01*
%TO.C,D19*%
X139098301Y-88590000D02*
X139098301Y-90510000D01*
X139098301Y-90510000D02*
X141783300Y-90510000D01*
X141783300Y-88590000D02*
X139098301Y-88590000D01*
%TO.C,ESC1*%
X117625000Y-78350000D02*
X120925000Y-78350000D01*
X117625000Y-78650000D02*
X117625000Y-78350000D01*
X117625000Y-80850000D02*
X117625000Y-81150000D01*
X117625000Y-81150000D02*
X120925000Y-81150000D01*
X120925000Y-78350000D02*
X120925000Y-78650000D01*
X120925000Y-81150000D02*
X120925000Y-80850000D01*
%TO.C,SWe35*%
X165922200Y-85475000D02*
X169222200Y-85475000D01*
X165922200Y-85775000D02*
X165922200Y-85475000D01*
X165922200Y-87975000D02*
X165922200Y-88275000D01*
X165922200Y-88275000D02*
X169222200Y-88275000D01*
X169222200Y-85475000D02*
X169222200Y-85775000D01*
X169222200Y-88275000D02*
X169222200Y-87975000D01*
%TO.C,D29*%
X159756701Y-88590000D02*
X159756701Y-90510000D01*
X159756701Y-90510000D02*
X162441700Y-90510000D01*
X162441700Y-88590000D02*
X159756701Y-88590000D01*
%TO.C,SWe32*%
X117700000Y-85475000D02*
X121000000Y-85475000D01*
X117700000Y-85775000D02*
X117700000Y-85475000D01*
X117700000Y-87975000D02*
X117700000Y-88275000D01*
X117700000Y-88275000D02*
X121000000Y-88275000D01*
X121000000Y-85475000D02*
X121000000Y-85775000D01*
X121000000Y-88275000D02*
X121000000Y-87975000D01*
%TO.C,D31*%
X169944201Y-105065000D02*
X169944201Y-106985000D01*
X169944201Y-106985000D02*
X172629200Y-106985000D01*
X172629200Y-105065000D02*
X169944201Y-105065000D01*
%TO.C,SWe8*%
X124527800Y-78350000D02*
X127827800Y-78350000D01*
X124527800Y-78650000D02*
X124527800Y-78350000D01*
X124527800Y-80850000D02*
X124527800Y-81150000D01*
X124527800Y-81150000D02*
X127827800Y-81150000D01*
X127827800Y-78350000D02*
X127827800Y-78650000D01*
X127827800Y-81150000D02*
X127827800Y-80850000D01*
%TO.C,SWe6*%
X162550000Y-102125000D02*
X165850000Y-102125000D01*
X162550000Y-102425000D02*
X162550000Y-102125000D01*
X162550000Y-104625000D02*
X162550000Y-104925000D01*
X162550000Y-104925000D02*
X165850000Y-104925000D01*
X165850000Y-102125000D02*
X165850000Y-102425000D01*
X165850000Y-104925000D02*
X165850000Y-104625000D01*
%TO.C,D7*%
X128577501Y-105065000D02*
X128577501Y-106985000D01*
X128577501Y-106985000D02*
X131262500Y-106985000D01*
X131262500Y-105065000D02*
X128577501Y-105065000D01*
%TO.C,SWe43*%
X128035700Y-94075000D02*
X131335700Y-94075000D01*
X128035700Y-94375000D02*
X128035700Y-94075000D01*
X128035700Y-96575000D02*
X128035700Y-96875000D01*
X128035700Y-96875000D02*
X131335700Y-96875000D01*
X131335700Y-94075000D02*
X131335700Y-94375000D01*
X131335700Y-96875000D02*
X131335700Y-96575000D01*
%TO.C,D51*%
X128940001Y-108840000D02*
X128940001Y-110760000D01*
X128940001Y-110760000D02*
X131625000Y-110760000D01*
X131625000Y-108840000D02*
X128940001Y-108840000D01*
%TO.C,SWe37*%
X179424999Y-85350000D02*
X182724999Y-85350000D01*
X179424999Y-85650000D02*
X179424999Y-85350000D01*
X179424999Y-87850000D02*
X179424999Y-88150000D01*
X179424999Y-88150000D02*
X182724999Y-88150000D01*
X182724999Y-85350000D02*
X182724999Y-85650000D01*
X182724999Y-88150000D02*
X182724999Y-87850000D01*
%TO.C,SWe17*%
X178025000Y-102525000D02*
X181325000Y-102525000D01*
X178025000Y-102825000D02*
X178025000Y-102525000D01*
X178025000Y-105025000D02*
X178025000Y-105325000D01*
X178025000Y-105325000D02*
X181325000Y-105325000D01*
X181325000Y-102525000D02*
X181325000Y-102825000D01*
X181325000Y-105325000D02*
X181325000Y-105025000D01*
%TO.C,D54*%
X175315000Y-110140001D02*
X175315000Y-112825000D01*
X177235000Y-110140001D02*
X175315000Y-110140001D01*
X177235000Y-112825000D02*
X177235000Y-110140001D01*
%TO.C,SWe36*%
X172811100Y-85475000D02*
X176111100Y-85475000D01*
X172811100Y-85775000D02*
X172811100Y-85475000D01*
X172811100Y-87975000D02*
X172811100Y-88275000D01*
X172811100Y-88275000D02*
X176111100Y-88275000D01*
X176111100Y-85475000D02*
X176111100Y-85775000D01*
X176111100Y-88275000D02*
X176111100Y-87975000D01*
%TO.C,D33*%
X138969301Y-81290000D02*
X138969301Y-83210000D01*
X138969301Y-83210000D02*
X141654300Y-83210000D01*
X141654300Y-81290000D02*
X138969301Y-81290000D01*
%TO.C,SWe24*%
X119350000Y-102275000D02*
X122650000Y-102275000D01*
X119350000Y-102575000D02*
X119350000Y-102275000D01*
X119350000Y-104775000D02*
X119350000Y-105075000D01*
X119350000Y-105075000D02*
X122650000Y-105075000D01*
X122650000Y-102275000D02*
X122650000Y-102575000D01*
X122650000Y-105075000D02*
X122650000Y-104775000D01*
%TO.C,D40*%
X173200000Y-93260000D02*
X175884999Y-93260000D01*
X175884999Y-91340000D02*
X173200000Y-91340000D01*
X175884999Y-93260000D02*
X175884999Y-91340000D01*
%TO.C,R4*%
X177572936Y-91565000D02*
X178027064Y-91565000D01*
X177572936Y-93035000D02*
X178027064Y-93035000D01*
%TO.C,D12*%
X125326101Y-88590000D02*
X125326101Y-90510000D01*
X125326101Y-90510000D02*
X128011100Y-90510000D01*
X128011100Y-88590000D02*
X125326101Y-88590000D01*
%TO.C,D46*%
X176965001Y-97015000D02*
X176965001Y-98935000D01*
X176965001Y-98935000D02*
X179650000Y-98935000D01*
X179650000Y-97015000D02*
X176965001Y-97015000D01*
%TO.C,D37*%
X166358501Y-81290000D02*
X166358501Y-83210000D01*
X166358501Y-83210000D02*
X169043500Y-83210000D01*
X169043500Y-81290000D02*
X166358501Y-81290000D01*
%TO.C,R5*%
X127452936Y-114595000D02*
X127907064Y-114595000D01*
X127452936Y-116065000D02*
X127907064Y-116065000D01*
%TO.C,SWe18*%
X131430600Y-78350000D02*
X134730600Y-78350000D01*
X131430600Y-78650000D02*
X131430600Y-78350000D01*
X131430600Y-80850000D02*
X131430600Y-81150000D01*
X131430600Y-81150000D02*
X134730600Y-81150000D01*
X134730600Y-78350000D02*
X134730600Y-78650000D01*
X134730600Y-81150000D02*
X134730600Y-80850000D01*
%TD*%
M02*
