%TF.GenerationSoftware,KiCad,Pcbnew,9.0.6*%
%TF.CreationDate,2026-02-02T21:34:12+11:00*%
%TF.ProjectId,Cooee_keyboard_68mm,436f6f65-655f-46b6-9579-626f6172645f,rev?*%
%TF.SameCoordinates,Original*%
%TF.FileFunction,Legend,Bot*%
%TF.FilePolarity,Positive*%
%FSLAX46Y46*%
G04 Gerber Fmt 4.6, Leading zero omitted, Abs format (unit mm)*
G04 Created by KiCad (PCBNEW 9.0.6) date 2026-02-02 21:34:12*
%MOMM*%
%LPD*%
G01*
G04 APERTURE LIST*
%ADD10C,0.200000*%
%ADD11C,0.100000*%
%ADD12C,0.150000*%
%ADD13C,0.120000*%
G04 APERTURE END LIST*
D10*
G36*
X158112746Y-88967337D02*
G01*
X158137414Y-88992004D01*
X158167219Y-89051614D01*
X158167219Y-89194876D01*
X158137414Y-89254485D01*
X158112746Y-89279152D01*
X158053135Y-89308959D01*
X157862254Y-89308959D01*
X157802644Y-89279154D01*
X157777976Y-89254485D01*
X157748171Y-89194875D01*
X157748171Y-89051614D01*
X157777976Y-88992004D01*
X157802644Y-88967335D01*
X157862254Y-88937531D01*
X158053135Y-88937531D01*
X158112746Y-88967337D01*
G37*
G36*
X158112746Y-86776860D02*
G01*
X158137414Y-86801527D01*
X158167219Y-86861137D01*
X158167219Y-86956780D01*
X158137414Y-87016389D01*
X158112746Y-87041056D01*
X158053135Y-87070863D01*
X157814635Y-87070863D01*
X157755025Y-87041058D01*
X157730357Y-87016389D01*
X157700552Y-86956779D01*
X157700552Y-86861137D01*
X157730357Y-86801527D01*
X157755025Y-86776858D01*
X157814635Y-86747054D01*
X158053135Y-86747054D01*
X158112746Y-86776860D01*
G37*
G36*
X158478330Y-89620070D02*
G01*
X157056108Y-89620070D01*
X157056108Y-89123245D01*
X157167219Y-89123245D01*
X157167219Y-89313721D01*
X157169140Y-89333230D01*
X157184072Y-89369278D01*
X157211662Y-89396868D01*
X157247710Y-89411800D01*
X157286728Y-89411800D01*
X157322776Y-89396868D01*
X157350366Y-89369278D01*
X157365298Y-89333230D01*
X157367219Y-89313721D01*
X157367219Y-89146852D01*
X157397024Y-89087242D01*
X157426165Y-89058100D01*
X157546372Y-88977962D01*
X157563534Y-88973672D01*
X157558728Y-88983286D01*
X157551722Y-89001594D01*
X157551467Y-89005177D01*
X157550092Y-89008498D01*
X157548171Y-89028007D01*
X157548171Y-89218483D01*
X157550092Y-89237992D01*
X157551467Y-89241312D01*
X157551722Y-89244896D01*
X157558728Y-89263204D01*
X157606347Y-89358442D01*
X157611632Y-89366838D01*
X157612643Y-89369278D01*
X157614896Y-89372024D01*
X157616790Y-89375032D01*
X157618784Y-89376761D01*
X157625079Y-89384432D01*
X157672698Y-89432050D01*
X157680364Y-89438342D01*
X157682097Y-89440340D01*
X157685105Y-89442233D01*
X157687851Y-89444487D01*
X157690291Y-89445497D01*
X157698688Y-89450783D01*
X157793925Y-89498402D01*
X157812234Y-89505408D01*
X157815817Y-89505662D01*
X157819138Y-89507038D01*
X157838647Y-89508959D01*
X158076742Y-89508959D01*
X158096251Y-89507038D01*
X158099571Y-89505662D01*
X158103155Y-89505408D01*
X158121463Y-89498402D01*
X158216701Y-89450783D01*
X158225093Y-89445499D01*
X158227537Y-89444488D01*
X158230286Y-89442231D01*
X158233291Y-89440340D01*
X158235020Y-89438345D01*
X158242690Y-89432051D01*
X158290310Y-89384433D01*
X158296603Y-89376764D01*
X158298600Y-89375033D01*
X158300493Y-89372024D01*
X158302747Y-89369279D01*
X158303757Y-89366838D01*
X158309043Y-89358442D01*
X158356662Y-89263205D01*
X158363668Y-89244896D01*
X158363922Y-89241312D01*
X158365298Y-89237992D01*
X158367219Y-89218483D01*
X158367219Y-89028007D01*
X158365298Y-89008498D01*
X158363922Y-89005177D01*
X158363668Y-89001594D01*
X158356662Y-88983285D01*
X158309043Y-88888048D01*
X158303757Y-88879651D01*
X158302747Y-88877211D01*
X158300493Y-88874465D01*
X158298600Y-88871457D01*
X158296603Y-88869725D01*
X158290310Y-88862057D01*
X158242690Y-88814439D01*
X158235020Y-88808144D01*
X158233291Y-88806150D01*
X158230286Y-88804258D01*
X158227537Y-88802002D01*
X158225093Y-88800990D01*
X158216701Y-88795707D01*
X158121463Y-88748088D01*
X158103155Y-88741082D01*
X158099571Y-88740827D01*
X158096251Y-88739452D01*
X158076742Y-88737531D01*
X157695790Y-88737531D01*
X157692387Y-88737866D01*
X157690929Y-88737649D01*
X157683631Y-88738728D01*
X157676281Y-88739452D01*
X157674917Y-88740016D01*
X157671536Y-88740517D01*
X157481060Y-88788136D01*
X157469565Y-88792242D01*
X157467142Y-88792722D01*
X157464945Y-88793892D01*
X157462600Y-88794731D01*
X157460613Y-88796202D01*
X157449844Y-88801945D01*
X157306987Y-88897183D01*
X157306933Y-88897226D01*
X157306899Y-88897241D01*
X157299413Y-88903385D01*
X157291820Y-88909603D01*
X157291798Y-88909634D01*
X157291746Y-88909678D01*
X157244127Y-88957296D01*
X157237832Y-88964966D01*
X157235838Y-88966696D01*
X157233944Y-88969703D01*
X157231691Y-88972450D01*
X157230680Y-88974889D01*
X157225395Y-88983286D01*
X157177776Y-89078524D01*
X157170770Y-89096832D01*
X157170515Y-89100415D01*
X157169140Y-89103736D01*
X157167219Y-89123245D01*
X157056108Y-89123245D01*
X157056108Y-87579926D01*
X157169140Y-87579926D01*
X157169140Y-87618944D01*
X157184072Y-87654992D01*
X157211662Y-87682582D01*
X157247710Y-87697514D01*
X157267219Y-87699435D01*
X158100754Y-87699435D01*
X158145064Y-87721589D01*
X158177776Y-87787013D01*
X158188219Y-87803603D01*
X158217696Y-87829168D01*
X158254712Y-87841506D01*
X158293632Y-87838741D01*
X158328530Y-87821292D01*
X158354095Y-87791815D01*
X158366434Y-87754799D01*
X158363668Y-87715879D01*
X158356662Y-87697570D01*
X158309043Y-87602333D01*
X158306989Y-87599070D01*
X158306476Y-87597530D01*
X158304812Y-87595612D01*
X158298600Y-87585742D01*
X158289125Y-87577525D01*
X158280911Y-87568054D01*
X158271039Y-87561840D01*
X158269123Y-87560178D01*
X158267584Y-87559664D01*
X158264321Y-87557611D01*
X158169082Y-87509992D01*
X158150773Y-87502986D01*
X158147190Y-87502731D01*
X158143870Y-87501356D01*
X158124361Y-87499435D01*
X157267219Y-87499435D01*
X157247710Y-87501356D01*
X157211662Y-87516288D01*
X157184072Y-87543878D01*
X157169140Y-87579926D01*
X157056108Y-87579926D01*
X157056108Y-86837530D01*
X157500552Y-86837530D01*
X157500552Y-86980387D01*
X157502473Y-86999896D01*
X157503848Y-87003216D01*
X157504103Y-87006800D01*
X157511109Y-87025108D01*
X157558728Y-87120346D01*
X157564013Y-87128742D01*
X157565024Y-87131182D01*
X157567277Y-87133928D01*
X157569171Y-87136936D01*
X157571165Y-87138665D01*
X157577460Y-87146336D01*
X157625079Y-87193954D01*
X157632745Y-87200246D01*
X157634478Y-87202244D01*
X157637486Y-87204137D01*
X157640232Y-87206391D01*
X157642672Y-87207401D01*
X157651069Y-87212687D01*
X157746306Y-87260306D01*
X157764615Y-87267312D01*
X157768198Y-87267566D01*
X157771519Y-87268942D01*
X157791028Y-87270863D01*
X158076742Y-87270863D01*
X158096251Y-87268942D01*
X158099571Y-87267566D01*
X158103155Y-87267312D01*
X158121463Y-87260306D01*
X158216701Y-87212687D01*
X158225093Y-87207403D01*
X158227537Y-87206392D01*
X158230286Y-87204135D01*
X158233291Y-87202244D01*
X158235020Y-87200249D01*
X158242690Y-87193955D01*
X158290310Y-87146337D01*
X158296603Y-87138668D01*
X158298600Y-87136937D01*
X158300493Y-87133928D01*
X158302747Y-87131183D01*
X158303757Y-87128742D01*
X158309043Y-87120346D01*
X158356662Y-87025109D01*
X158363668Y-87006800D01*
X158363922Y-87003216D01*
X158365298Y-86999896D01*
X158367219Y-86980387D01*
X158367219Y-86837530D01*
X158365298Y-86818021D01*
X158363922Y-86814700D01*
X158363668Y-86811117D01*
X158356662Y-86792808D01*
X158309043Y-86697571D01*
X158303757Y-86689174D01*
X158302747Y-86686734D01*
X158300493Y-86683988D01*
X158298600Y-86680980D01*
X158296603Y-86679248D01*
X158290310Y-86671580D01*
X158242690Y-86623962D01*
X158235020Y-86617667D01*
X158233291Y-86615673D01*
X158230286Y-86613781D01*
X158227537Y-86611525D01*
X158225093Y-86610513D01*
X158216701Y-86605230D01*
X158121463Y-86557611D01*
X158103155Y-86550605D01*
X158099571Y-86550350D01*
X158096251Y-86548975D01*
X158076742Y-86547054D01*
X157791028Y-86547054D01*
X157771519Y-86548975D01*
X157768198Y-86550350D01*
X157764615Y-86550605D01*
X157746306Y-86557611D01*
X157651069Y-86605230D01*
X157642672Y-86610515D01*
X157640232Y-86611526D01*
X157637486Y-86613779D01*
X157634478Y-86615673D01*
X157632745Y-86617670D01*
X157625079Y-86623963D01*
X157577460Y-86671581D01*
X157571165Y-86679251D01*
X157569171Y-86680981D01*
X157567277Y-86683988D01*
X157565024Y-86686735D01*
X157564013Y-86689174D01*
X157558728Y-86697571D01*
X157511109Y-86792809D01*
X157504103Y-86811117D01*
X157503848Y-86814700D01*
X157502473Y-86818021D01*
X157500552Y-86837530D01*
X157056108Y-86837530D01*
X157056108Y-85980387D01*
X157167219Y-85980387D01*
X157167219Y-86075625D01*
X157168191Y-86085498D01*
X157168004Y-86088132D01*
X157168791Y-86091595D01*
X157169140Y-86095134D01*
X157170151Y-86097576D01*
X157172351Y-86107248D01*
X157219970Y-86250104D01*
X157227961Y-86268005D01*
X157230316Y-86270720D01*
X157231691Y-86274039D01*
X157244127Y-86289193D01*
X157291746Y-86336811D01*
X157306899Y-86349248D01*
X157342948Y-86364179D01*
X157381966Y-86364179D01*
X157418014Y-86349248D01*
X157445604Y-86321658D01*
X157460535Y-86285610D01*
X157460535Y-86246592D01*
X157445604Y-86210543D01*
X157433167Y-86195390D01*
X157402240Y-86164463D01*
X157367219Y-86059398D01*
X157367219Y-85996614D01*
X157402240Y-85891549D01*
X157469313Y-85824477D01*
X157540218Y-85789024D01*
X157708099Y-85747054D01*
X157826337Y-85747054D01*
X157994218Y-85789024D01*
X158065127Y-85824478D01*
X158132197Y-85891548D01*
X158167219Y-85996613D01*
X158167219Y-86059398D01*
X158132197Y-86164463D01*
X158101270Y-86195390D01*
X158088833Y-86210543D01*
X158073902Y-86246591D01*
X158073901Y-86285609D01*
X158088832Y-86321658D01*
X158116422Y-86349248D01*
X158152470Y-86364179D01*
X158191488Y-86364180D01*
X158227537Y-86349249D01*
X158242690Y-86336812D01*
X158290310Y-86289194D01*
X158302747Y-86274040D01*
X158304122Y-86270720D01*
X158306477Y-86268005D01*
X158314468Y-86250105D01*
X158362087Y-86107248D01*
X158364286Y-86097575D01*
X158365298Y-86095134D01*
X158365646Y-86091596D01*
X158366434Y-86088133D01*
X158366246Y-86085498D01*
X158367219Y-86075625D01*
X158367219Y-85980387D01*
X158366246Y-85970513D01*
X158366434Y-85967879D01*
X158365646Y-85964415D01*
X158365298Y-85960878D01*
X158364286Y-85958436D01*
X158362087Y-85948764D01*
X158314468Y-85805907D01*
X158306477Y-85788007D01*
X158304122Y-85785291D01*
X158302747Y-85781972D01*
X158290311Y-85766819D01*
X158195071Y-85671581D01*
X158187401Y-85665286D01*
X158185672Y-85663292D01*
X158182667Y-85661400D01*
X158179918Y-85659144D01*
X158177474Y-85658131D01*
X158169082Y-85652849D01*
X158073844Y-85605230D01*
X158072417Y-85604684D01*
X158071837Y-85604254D01*
X158063660Y-85601332D01*
X158055536Y-85598224D01*
X158054813Y-85598172D01*
X158053376Y-85597659D01*
X157862901Y-85550040D01*
X157859519Y-85549539D01*
X157858156Y-85548975D01*
X157850805Y-85548251D01*
X157843508Y-85547172D01*
X157842049Y-85547389D01*
X157838647Y-85547054D01*
X157695790Y-85547054D01*
X157692387Y-85547389D01*
X157690929Y-85547172D01*
X157683631Y-85548251D01*
X157676281Y-85548975D01*
X157674917Y-85549539D01*
X157671536Y-85550040D01*
X157481060Y-85597659D01*
X157479621Y-85598172D01*
X157478901Y-85598224D01*
X157470776Y-85601332D01*
X157462600Y-85604254D01*
X157462020Y-85604683D01*
X157460592Y-85605230D01*
X157365355Y-85652849D01*
X157356956Y-85658135D01*
X157354519Y-85659145D01*
X157351775Y-85661396D01*
X157348764Y-85663292D01*
X157347031Y-85665289D01*
X157339365Y-85671581D01*
X157244127Y-85766819D01*
X157231691Y-85781973D01*
X157230316Y-85785291D01*
X157227961Y-85788007D01*
X157219970Y-85805908D01*
X157172351Y-85948764D01*
X157170151Y-85958435D01*
X157169140Y-85960878D01*
X157168791Y-85964416D01*
X157168004Y-85967880D01*
X157168191Y-85970513D01*
X157167219Y-85980387D01*
X157056108Y-85980387D01*
X157056108Y-85435943D01*
X158478330Y-85435943D01*
X158478330Y-89620070D01*
G37*
G36*
X162816316Y-88992336D02*
G01*
X162840985Y-89017004D01*
X162870790Y-89076614D01*
X162870790Y-89219876D01*
X162840985Y-89279485D01*
X162816316Y-89304153D01*
X162756707Y-89333959D01*
X162756302Y-89333959D01*
X162696692Y-89304154D01*
X162672024Y-89279485D01*
X162642219Y-89219875D01*
X162642219Y-89076614D01*
X162672024Y-89017004D01*
X162696692Y-88992335D01*
X162756302Y-88962531D01*
X162756707Y-88962531D01*
X162816316Y-88992336D01*
G37*
G36*
X163387746Y-88992337D02*
G01*
X163412414Y-89017004D01*
X163442219Y-89076614D01*
X163442219Y-89219876D01*
X163412414Y-89279485D01*
X163387746Y-89304152D01*
X163328135Y-89333959D01*
X163184873Y-89333959D01*
X163125263Y-89304154D01*
X163100595Y-89279485D01*
X163070790Y-89219875D01*
X163070790Y-89076614D01*
X163100595Y-89017004D01*
X163125263Y-88992335D01*
X163184873Y-88962531D01*
X163328135Y-88962531D01*
X163387746Y-88992337D01*
G37*
G36*
X163387746Y-86801860D02*
G01*
X163412414Y-86826527D01*
X163442219Y-86886137D01*
X163442219Y-86981780D01*
X163412414Y-87041389D01*
X163387746Y-87066056D01*
X163328135Y-87095863D01*
X163089635Y-87095863D01*
X163030025Y-87066058D01*
X163005357Y-87041389D01*
X162975552Y-86981779D01*
X162975552Y-86886137D01*
X163005357Y-86826527D01*
X163030025Y-86801858D01*
X163089635Y-86772054D01*
X163328135Y-86772054D01*
X163387746Y-86801860D01*
G37*
G36*
X163753330Y-89645070D02*
G01*
X162331108Y-89645070D01*
X162331108Y-89053007D01*
X162442219Y-89053007D01*
X162442219Y-89243483D01*
X162444140Y-89262992D01*
X162445515Y-89266312D01*
X162445770Y-89269896D01*
X162452776Y-89288204D01*
X162500395Y-89383442D01*
X162505680Y-89391838D01*
X162506691Y-89394278D01*
X162508944Y-89397024D01*
X162510838Y-89400032D01*
X162512832Y-89401761D01*
X162519127Y-89409432D01*
X162566746Y-89457050D01*
X162574412Y-89463342D01*
X162576145Y-89465340D01*
X162579153Y-89467233D01*
X162581899Y-89469487D01*
X162584339Y-89470497D01*
X162592736Y-89475783D01*
X162687973Y-89523402D01*
X162706282Y-89530408D01*
X162709865Y-89530662D01*
X162713186Y-89532038D01*
X162732695Y-89533959D01*
X162780314Y-89533959D01*
X162799823Y-89532038D01*
X162803143Y-89530662D01*
X162806727Y-89530408D01*
X162825035Y-89523402D01*
X162920273Y-89475783D01*
X162928669Y-89470497D01*
X162931109Y-89469487D01*
X162933855Y-89467233D01*
X162936863Y-89465340D01*
X162938592Y-89463345D01*
X162946263Y-89457051D01*
X162970789Y-89432523D01*
X162995317Y-89457050D01*
X163002983Y-89463342D01*
X163004716Y-89465340D01*
X163007724Y-89467233D01*
X163010470Y-89469487D01*
X163012910Y-89470497D01*
X163021307Y-89475783D01*
X163116544Y-89523402D01*
X163134853Y-89530408D01*
X163138436Y-89530662D01*
X163141757Y-89532038D01*
X163161266Y-89533959D01*
X163351742Y-89533959D01*
X163371251Y-89532038D01*
X163374571Y-89530662D01*
X163378155Y-89530408D01*
X163396463Y-89523402D01*
X163491701Y-89475783D01*
X163500093Y-89470499D01*
X163502537Y-89469488D01*
X163505286Y-89467231D01*
X163508291Y-89465340D01*
X163510020Y-89463345D01*
X163517690Y-89457051D01*
X163565310Y-89409433D01*
X163571603Y-89401764D01*
X163573600Y-89400033D01*
X163575493Y-89397024D01*
X163577747Y-89394279D01*
X163578757Y-89391838D01*
X163584043Y-89383442D01*
X163631662Y-89288205D01*
X163638668Y-89269896D01*
X163638922Y-89266312D01*
X163640298Y-89262992D01*
X163642219Y-89243483D01*
X163642219Y-89053007D01*
X163640298Y-89033498D01*
X163638922Y-89030177D01*
X163638668Y-89026594D01*
X163631662Y-89008285D01*
X163584043Y-88913048D01*
X163578757Y-88904651D01*
X163577747Y-88902211D01*
X163575493Y-88899465D01*
X163573600Y-88896457D01*
X163571603Y-88894725D01*
X163565310Y-88887057D01*
X163517690Y-88839439D01*
X163510020Y-88833144D01*
X163508291Y-88831150D01*
X163505286Y-88829258D01*
X163502537Y-88827002D01*
X163500093Y-88825990D01*
X163491701Y-88820707D01*
X163396463Y-88773088D01*
X163378155Y-88766082D01*
X163374571Y-88765827D01*
X163371251Y-88764452D01*
X163351742Y-88762531D01*
X163161266Y-88762531D01*
X163141757Y-88764452D01*
X163138436Y-88765827D01*
X163134853Y-88766082D01*
X163116544Y-88773088D01*
X163021307Y-88820707D01*
X163012910Y-88825992D01*
X163010470Y-88827003D01*
X163007724Y-88829256D01*
X163004716Y-88831150D01*
X163002983Y-88833147D01*
X162995317Y-88839440D01*
X162970789Y-88863966D01*
X162946263Y-88839439D01*
X162938592Y-88833144D01*
X162936863Y-88831150D01*
X162933855Y-88829256D01*
X162931109Y-88827003D01*
X162928669Y-88825992D01*
X162920273Y-88820707D01*
X162825035Y-88773088D01*
X162806727Y-88766082D01*
X162803143Y-88765827D01*
X162799823Y-88764452D01*
X162780314Y-88762531D01*
X162732695Y-88762531D01*
X162713186Y-88764452D01*
X162709865Y-88765827D01*
X162706282Y-88766082D01*
X162687973Y-88773088D01*
X162592736Y-88820707D01*
X162584339Y-88825992D01*
X162581899Y-88827003D01*
X162579153Y-88829256D01*
X162576145Y-88831150D01*
X162574412Y-88833147D01*
X162566746Y-88839440D01*
X162519127Y-88887058D01*
X162512832Y-88894728D01*
X162510838Y-88896458D01*
X162508944Y-88899465D01*
X162506691Y-88902212D01*
X162505680Y-88904651D01*
X162500395Y-88913048D01*
X162452776Y-89008286D01*
X162445770Y-89026594D01*
X162445515Y-89030177D01*
X162444140Y-89033498D01*
X162442219Y-89053007D01*
X162331108Y-89053007D01*
X162331108Y-87604926D01*
X162444140Y-87604926D01*
X162444140Y-87643944D01*
X162459072Y-87679992D01*
X162486662Y-87707582D01*
X162522710Y-87722514D01*
X162542219Y-87724435D01*
X163375754Y-87724435D01*
X163420064Y-87746589D01*
X163452776Y-87812013D01*
X163463219Y-87828603D01*
X163492696Y-87854168D01*
X163529712Y-87866506D01*
X163568632Y-87863741D01*
X163603530Y-87846292D01*
X163629095Y-87816815D01*
X163641434Y-87779799D01*
X163638668Y-87740879D01*
X163631662Y-87722570D01*
X163584043Y-87627333D01*
X163581989Y-87624070D01*
X163581476Y-87622530D01*
X163579812Y-87620612D01*
X163573600Y-87610742D01*
X163564125Y-87602525D01*
X163555911Y-87593054D01*
X163546039Y-87586840D01*
X163544123Y-87585178D01*
X163542584Y-87584664D01*
X163539321Y-87582611D01*
X163444082Y-87534992D01*
X163425773Y-87527986D01*
X163422190Y-87527731D01*
X163418870Y-87526356D01*
X163399361Y-87524435D01*
X162542219Y-87524435D01*
X162522710Y-87526356D01*
X162486662Y-87541288D01*
X162459072Y-87568878D01*
X162444140Y-87604926D01*
X162331108Y-87604926D01*
X162331108Y-86862530D01*
X162775552Y-86862530D01*
X162775552Y-87005387D01*
X162777473Y-87024896D01*
X162778848Y-87028216D01*
X162779103Y-87031800D01*
X162786109Y-87050108D01*
X162833728Y-87145346D01*
X162839013Y-87153742D01*
X162840024Y-87156182D01*
X162842277Y-87158928D01*
X162844171Y-87161936D01*
X162846165Y-87163665D01*
X162852460Y-87171336D01*
X162900079Y-87218954D01*
X162907745Y-87225246D01*
X162909478Y-87227244D01*
X162912486Y-87229137D01*
X162915232Y-87231391D01*
X162917672Y-87232401D01*
X162926069Y-87237687D01*
X163021306Y-87285306D01*
X163039615Y-87292312D01*
X163043198Y-87292566D01*
X163046519Y-87293942D01*
X163066028Y-87295863D01*
X163351742Y-87295863D01*
X163371251Y-87293942D01*
X163374571Y-87292566D01*
X163378155Y-87292312D01*
X163396463Y-87285306D01*
X163491701Y-87237687D01*
X163500093Y-87232403D01*
X163502537Y-87231392D01*
X163505286Y-87229135D01*
X163508291Y-87227244D01*
X163510020Y-87225249D01*
X163517690Y-87218955D01*
X163565310Y-87171337D01*
X163571603Y-87163668D01*
X163573600Y-87161937D01*
X163575493Y-87158928D01*
X163577747Y-87156183D01*
X163578757Y-87153742D01*
X163584043Y-87145346D01*
X163631662Y-87050109D01*
X163638668Y-87031800D01*
X163638922Y-87028216D01*
X163640298Y-87024896D01*
X163642219Y-87005387D01*
X163642219Y-86862530D01*
X163640298Y-86843021D01*
X163638922Y-86839700D01*
X163638668Y-86836117D01*
X163631662Y-86817808D01*
X163584043Y-86722571D01*
X163578757Y-86714174D01*
X163577747Y-86711734D01*
X163575493Y-86708988D01*
X163573600Y-86705980D01*
X163571603Y-86704248D01*
X163565310Y-86696580D01*
X163517690Y-86648962D01*
X163510020Y-86642667D01*
X163508291Y-86640673D01*
X163505286Y-86638781D01*
X163502537Y-86636525D01*
X163500093Y-86635513D01*
X163491701Y-86630230D01*
X163396463Y-86582611D01*
X163378155Y-86575605D01*
X163374571Y-86575350D01*
X163371251Y-86573975D01*
X163351742Y-86572054D01*
X163066028Y-86572054D01*
X163046519Y-86573975D01*
X163043198Y-86575350D01*
X163039615Y-86575605D01*
X163021306Y-86582611D01*
X162926069Y-86630230D01*
X162917672Y-86635515D01*
X162915232Y-86636526D01*
X162912486Y-86638779D01*
X162909478Y-86640673D01*
X162907745Y-86642670D01*
X162900079Y-86648963D01*
X162852460Y-86696581D01*
X162846165Y-86704251D01*
X162844171Y-86705981D01*
X162842277Y-86708988D01*
X162840024Y-86711735D01*
X162839013Y-86714174D01*
X162833728Y-86722571D01*
X162786109Y-86817809D01*
X162779103Y-86836117D01*
X162778848Y-86839700D01*
X162777473Y-86843021D01*
X162775552Y-86862530D01*
X162331108Y-86862530D01*
X162331108Y-86005387D01*
X162442219Y-86005387D01*
X162442219Y-86100625D01*
X162443191Y-86110498D01*
X162443004Y-86113132D01*
X162443791Y-86116595D01*
X162444140Y-86120134D01*
X162445151Y-86122576D01*
X162447351Y-86132248D01*
X162494970Y-86275104D01*
X162502961Y-86293005D01*
X162505316Y-86295720D01*
X162506691Y-86299039D01*
X162519127Y-86314193D01*
X162566746Y-86361811D01*
X162581899Y-86374248D01*
X162617948Y-86389179D01*
X162656966Y-86389179D01*
X162693014Y-86374248D01*
X162720604Y-86346658D01*
X162735535Y-86310610D01*
X162735535Y-86271592D01*
X162720604Y-86235543D01*
X162708167Y-86220390D01*
X162677240Y-86189463D01*
X162642219Y-86084398D01*
X162642219Y-86021614D01*
X162677240Y-85916549D01*
X162744313Y-85849477D01*
X162815218Y-85814024D01*
X162983099Y-85772054D01*
X163101337Y-85772054D01*
X163269218Y-85814024D01*
X163340127Y-85849478D01*
X163407197Y-85916548D01*
X163442219Y-86021613D01*
X163442219Y-86084398D01*
X163407197Y-86189463D01*
X163376270Y-86220390D01*
X163363833Y-86235543D01*
X163348902Y-86271591D01*
X163348901Y-86310609D01*
X163363832Y-86346658D01*
X163391422Y-86374248D01*
X163427470Y-86389179D01*
X163466488Y-86389180D01*
X163502537Y-86374249D01*
X163517690Y-86361812D01*
X163565310Y-86314194D01*
X163577747Y-86299040D01*
X163579122Y-86295720D01*
X163581477Y-86293005D01*
X163589468Y-86275105D01*
X163637087Y-86132248D01*
X163639286Y-86122575D01*
X163640298Y-86120134D01*
X163640646Y-86116596D01*
X163641434Y-86113133D01*
X163641246Y-86110498D01*
X163642219Y-86100625D01*
X163642219Y-86005387D01*
X163641246Y-85995513D01*
X163641434Y-85992879D01*
X163640646Y-85989415D01*
X163640298Y-85985878D01*
X163639286Y-85983436D01*
X163637087Y-85973764D01*
X163589468Y-85830907D01*
X163581477Y-85813007D01*
X163579122Y-85810291D01*
X163577747Y-85806972D01*
X163565311Y-85791819D01*
X163470071Y-85696581D01*
X163462401Y-85690286D01*
X163460672Y-85688292D01*
X163457667Y-85686400D01*
X163454918Y-85684144D01*
X163452474Y-85683131D01*
X163444082Y-85677849D01*
X163348844Y-85630230D01*
X163347417Y-85629684D01*
X163346837Y-85629254D01*
X163338660Y-85626332D01*
X163330536Y-85623224D01*
X163329813Y-85623172D01*
X163328376Y-85622659D01*
X163137901Y-85575040D01*
X163134519Y-85574539D01*
X163133156Y-85573975D01*
X163125805Y-85573251D01*
X163118508Y-85572172D01*
X163117049Y-85572389D01*
X163113647Y-85572054D01*
X162970790Y-85572054D01*
X162967387Y-85572389D01*
X162965929Y-85572172D01*
X162958631Y-85573251D01*
X162951281Y-85573975D01*
X162949917Y-85574539D01*
X162946536Y-85575040D01*
X162756060Y-85622659D01*
X162754621Y-85623172D01*
X162753901Y-85623224D01*
X162745776Y-85626332D01*
X162737600Y-85629254D01*
X162737020Y-85629683D01*
X162735592Y-85630230D01*
X162640355Y-85677849D01*
X162631956Y-85683135D01*
X162629519Y-85684145D01*
X162626775Y-85686396D01*
X162623764Y-85688292D01*
X162622031Y-85690289D01*
X162614365Y-85696581D01*
X162519127Y-85791819D01*
X162506691Y-85806973D01*
X162505316Y-85810291D01*
X162502961Y-85813007D01*
X162494970Y-85830908D01*
X162447351Y-85973764D01*
X162445151Y-85983435D01*
X162444140Y-85985878D01*
X162443791Y-85989416D01*
X162443004Y-85992880D01*
X162443191Y-85995513D01*
X162442219Y-86005387D01*
X162331108Y-86005387D01*
X162331108Y-85460943D01*
X163753330Y-85460943D01*
X163753330Y-89645070D01*
G37*
G36*
X125037746Y-86776860D02*
G01*
X125062414Y-86801527D01*
X125092219Y-86861137D01*
X125092219Y-86956780D01*
X125062414Y-87016389D01*
X125037746Y-87041056D01*
X124978135Y-87070863D01*
X124739635Y-87070863D01*
X124680025Y-87041058D01*
X124655357Y-87016389D01*
X124625552Y-86956779D01*
X124625552Y-86861137D01*
X124655357Y-86801527D01*
X124680025Y-86776858D01*
X124739635Y-86747054D01*
X124978135Y-86747054D01*
X125037746Y-86776860D01*
G37*
G36*
X125403330Y-89618149D02*
G01*
X123981108Y-89618149D01*
X123981108Y-89123140D01*
X124092219Y-89123140D01*
X124094140Y-89132850D01*
X124094140Y-89142754D01*
X124097889Y-89151806D01*
X124099791Y-89161417D01*
X124105283Y-89169655D01*
X124109072Y-89178802D01*
X124115998Y-89185728D01*
X124121434Y-89193882D01*
X124129662Y-89199392D01*
X124136662Y-89206392D01*
X124145713Y-89210141D01*
X124153854Y-89215593D01*
X124163561Y-89217534D01*
X124172710Y-89221324D01*
X124192012Y-89223224D01*
X124192114Y-89223245D01*
X124192148Y-89223238D01*
X124192219Y-89223245D01*
X125092219Y-89223245D01*
X125092219Y-89408959D01*
X125094140Y-89428468D01*
X125109072Y-89464516D01*
X125136662Y-89492106D01*
X125172710Y-89507038D01*
X125211728Y-89507038D01*
X125247776Y-89492106D01*
X125275366Y-89464516D01*
X125290298Y-89428468D01*
X125292219Y-89408959D01*
X125292219Y-88837531D01*
X125290298Y-88818022D01*
X125275366Y-88781974D01*
X125247776Y-88754384D01*
X125211728Y-88739452D01*
X125172710Y-88739452D01*
X125136662Y-88754384D01*
X125109072Y-88781974D01*
X125094140Y-88818022D01*
X125092219Y-88837531D01*
X125092219Y-89023245D01*
X124481260Y-89023245D01*
X124501025Y-89003480D01*
X124507316Y-88995813D01*
X124509314Y-88994081D01*
X124511209Y-88991069D01*
X124513461Y-88988326D01*
X124514470Y-88985888D01*
X124519757Y-88977490D01*
X124567376Y-88882253D01*
X124574382Y-88863944D01*
X124577148Y-88825024D01*
X124564809Y-88788008D01*
X124539244Y-88758531D01*
X124504346Y-88741082D01*
X124465426Y-88738317D01*
X124428410Y-88750655D01*
X124398933Y-88776220D01*
X124388490Y-88792810D01*
X124348129Y-88873532D01*
X124271365Y-88950296D01*
X124136749Y-89040040D01*
X124136694Y-89040084D01*
X124136662Y-89040098D01*
X124136588Y-89040171D01*
X124121582Y-89052460D01*
X124116071Y-89060688D01*
X124109072Y-89067688D01*
X124105322Y-89076739D01*
X124099871Y-89084880D01*
X124097929Y-89094587D01*
X124094140Y-89103736D01*
X124094140Y-89113535D01*
X124092219Y-89123140D01*
X123981108Y-89123140D01*
X123981108Y-87579926D01*
X124094140Y-87579926D01*
X124094140Y-87618944D01*
X124109072Y-87654992D01*
X124136662Y-87682582D01*
X124172710Y-87697514D01*
X124192219Y-87699435D01*
X125025754Y-87699435D01*
X125070064Y-87721589D01*
X125102776Y-87787013D01*
X125113219Y-87803603D01*
X125142696Y-87829168D01*
X125179712Y-87841506D01*
X125218632Y-87838741D01*
X125253530Y-87821292D01*
X125279095Y-87791815D01*
X125291434Y-87754799D01*
X125288668Y-87715879D01*
X125281662Y-87697570D01*
X125234043Y-87602333D01*
X125231989Y-87599070D01*
X125231476Y-87597530D01*
X125229812Y-87595612D01*
X125223600Y-87585742D01*
X125214125Y-87577525D01*
X125205911Y-87568054D01*
X125196039Y-87561840D01*
X125194123Y-87560178D01*
X125192584Y-87559664D01*
X125189321Y-87557611D01*
X125094082Y-87509992D01*
X125075773Y-87502986D01*
X125072190Y-87502731D01*
X125068870Y-87501356D01*
X125049361Y-87499435D01*
X124192219Y-87499435D01*
X124172710Y-87501356D01*
X124136662Y-87516288D01*
X124109072Y-87543878D01*
X124094140Y-87579926D01*
X123981108Y-87579926D01*
X123981108Y-86837530D01*
X124425552Y-86837530D01*
X124425552Y-86980387D01*
X124427473Y-86999896D01*
X124428848Y-87003216D01*
X124429103Y-87006800D01*
X124436109Y-87025108D01*
X124483728Y-87120346D01*
X124489013Y-87128742D01*
X124490024Y-87131182D01*
X124492277Y-87133928D01*
X124494171Y-87136936D01*
X124496165Y-87138665D01*
X124502460Y-87146336D01*
X124550079Y-87193954D01*
X124557745Y-87200246D01*
X124559478Y-87202244D01*
X124562486Y-87204137D01*
X124565232Y-87206391D01*
X124567672Y-87207401D01*
X124576069Y-87212687D01*
X124671306Y-87260306D01*
X124689615Y-87267312D01*
X124693198Y-87267566D01*
X124696519Y-87268942D01*
X124716028Y-87270863D01*
X125001742Y-87270863D01*
X125021251Y-87268942D01*
X125024571Y-87267566D01*
X125028155Y-87267312D01*
X125046463Y-87260306D01*
X125141701Y-87212687D01*
X125150093Y-87207403D01*
X125152537Y-87206392D01*
X125155286Y-87204135D01*
X125158291Y-87202244D01*
X125160020Y-87200249D01*
X125167690Y-87193955D01*
X125215310Y-87146337D01*
X125221603Y-87138668D01*
X125223600Y-87136937D01*
X125225493Y-87133928D01*
X125227747Y-87131183D01*
X125228757Y-87128742D01*
X125234043Y-87120346D01*
X125281662Y-87025109D01*
X125288668Y-87006800D01*
X125288922Y-87003216D01*
X125290298Y-86999896D01*
X125292219Y-86980387D01*
X125292219Y-86837530D01*
X125290298Y-86818021D01*
X125288922Y-86814700D01*
X125288668Y-86811117D01*
X125281662Y-86792808D01*
X125234043Y-86697571D01*
X125228757Y-86689174D01*
X125227747Y-86686734D01*
X125225493Y-86683988D01*
X125223600Y-86680980D01*
X125221603Y-86679248D01*
X125215310Y-86671580D01*
X125167690Y-86623962D01*
X125160020Y-86617667D01*
X125158291Y-86615673D01*
X125155286Y-86613781D01*
X125152537Y-86611525D01*
X125150093Y-86610513D01*
X125141701Y-86605230D01*
X125046463Y-86557611D01*
X125028155Y-86550605D01*
X125024571Y-86550350D01*
X125021251Y-86548975D01*
X125001742Y-86547054D01*
X124716028Y-86547054D01*
X124696519Y-86548975D01*
X124693198Y-86550350D01*
X124689615Y-86550605D01*
X124671306Y-86557611D01*
X124576069Y-86605230D01*
X124567672Y-86610515D01*
X124565232Y-86611526D01*
X124562486Y-86613779D01*
X124559478Y-86615673D01*
X124557745Y-86617670D01*
X124550079Y-86623963D01*
X124502460Y-86671581D01*
X124496165Y-86679251D01*
X124494171Y-86680981D01*
X124492277Y-86683988D01*
X124490024Y-86686735D01*
X124489013Y-86689174D01*
X124483728Y-86697571D01*
X124436109Y-86792809D01*
X124429103Y-86811117D01*
X124428848Y-86814700D01*
X124427473Y-86818021D01*
X124425552Y-86837530D01*
X123981108Y-86837530D01*
X123981108Y-85980387D01*
X124092219Y-85980387D01*
X124092219Y-86075625D01*
X124093191Y-86085498D01*
X124093004Y-86088132D01*
X124093791Y-86091595D01*
X124094140Y-86095134D01*
X124095151Y-86097576D01*
X124097351Y-86107248D01*
X124144970Y-86250104D01*
X124152961Y-86268005D01*
X124155316Y-86270720D01*
X124156691Y-86274039D01*
X124169127Y-86289193D01*
X124216746Y-86336811D01*
X124231899Y-86349248D01*
X124267948Y-86364179D01*
X124306966Y-86364179D01*
X124343014Y-86349248D01*
X124370604Y-86321658D01*
X124385535Y-86285610D01*
X124385535Y-86246592D01*
X124370604Y-86210543D01*
X124358167Y-86195390D01*
X124327240Y-86164463D01*
X124292219Y-86059398D01*
X124292219Y-85996614D01*
X124327240Y-85891549D01*
X124394313Y-85824477D01*
X124465218Y-85789024D01*
X124633099Y-85747054D01*
X124751337Y-85747054D01*
X124919218Y-85789024D01*
X124990127Y-85824478D01*
X125057197Y-85891548D01*
X125092219Y-85996613D01*
X125092219Y-86059398D01*
X125057197Y-86164463D01*
X125026270Y-86195390D01*
X125013833Y-86210543D01*
X124998902Y-86246591D01*
X124998901Y-86285609D01*
X125013832Y-86321658D01*
X125041422Y-86349248D01*
X125077470Y-86364179D01*
X125116488Y-86364180D01*
X125152537Y-86349249D01*
X125167690Y-86336812D01*
X125215310Y-86289194D01*
X125227747Y-86274040D01*
X125229122Y-86270720D01*
X125231477Y-86268005D01*
X125239468Y-86250105D01*
X125287087Y-86107248D01*
X125289286Y-86097575D01*
X125290298Y-86095134D01*
X125290646Y-86091596D01*
X125291434Y-86088133D01*
X125291246Y-86085498D01*
X125292219Y-86075625D01*
X125292219Y-85980387D01*
X125291246Y-85970513D01*
X125291434Y-85967879D01*
X125290646Y-85964415D01*
X125290298Y-85960878D01*
X125289286Y-85958436D01*
X125287087Y-85948764D01*
X125239468Y-85805907D01*
X125231477Y-85788007D01*
X125229122Y-85785291D01*
X125227747Y-85781972D01*
X125215311Y-85766819D01*
X125120071Y-85671581D01*
X125112401Y-85665286D01*
X125110672Y-85663292D01*
X125107667Y-85661400D01*
X125104918Y-85659144D01*
X125102474Y-85658131D01*
X125094082Y-85652849D01*
X124998844Y-85605230D01*
X124997417Y-85604684D01*
X124996837Y-85604254D01*
X124988660Y-85601332D01*
X124980536Y-85598224D01*
X124979813Y-85598172D01*
X124978376Y-85597659D01*
X124787901Y-85550040D01*
X124784519Y-85549539D01*
X124783156Y-85548975D01*
X124775805Y-85548251D01*
X124768508Y-85547172D01*
X124767049Y-85547389D01*
X124763647Y-85547054D01*
X124620790Y-85547054D01*
X124617387Y-85547389D01*
X124615929Y-85547172D01*
X124608631Y-85548251D01*
X124601281Y-85548975D01*
X124599917Y-85549539D01*
X124596536Y-85550040D01*
X124406060Y-85597659D01*
X124404621Y-85598172D01*
X124403901Y-85598224D01*
X124395776Y-85601332D01*
X124387600Y-85604254D01*
X124387020Y-85604683D01*
X124385592Y-85605230D01*
X124290355Y-85652849D01*
X124281956Y-85658135D01*
X124279519Y-85659145D01*
X124276775Y-85661396D01*
X124273764Y-85663292D01*
X124272031Y-85665289D01*
X124264365Y-85671581D01*
X124169127Y-85766819D01*
X124156691Y-85781973D01*
X124155316Y-85785291D01*
X124152961Y-85788007D01*
X124144970Y-85805908D01*
X124097351Y-85948764D01*
X124095151Y-85958435D01*
X124094140Y-85960878D01*
X124093791Y-85964416D01*
X124093004Y-85967880D01*
X124093191Y-85970513D01*
X124092219Y-85980387D01*
X123981108Y-85980387D01*
X123981108Y-85435943D01*
X125403330Y-85435943D01*
X125403330Y-89618149D01*
G37*
D11*
X149720038Y-81002693D02*
X149672419Y-80907455D01*
X149672419Y-80907455D02*
X149672419Y-80764598D01*
X149672419Y-80764598D02*
X149720038Y-80621741D01*
X149720038Y-80621741D02*
X149815276Y-80526503D01*
X149815276Y-80526503D02*
X149910514Y-80478884D01*
X149910514Y-80478884D02*
X150100990Y-80431265D01*
X150100990Y-80431265D02*
X150243847Y-80431265D01*
X150243847Y-80431265D02*
X150434323Y-80478884D01*
X150434323Y-80478884D02*
X150529561Y-80526503D01*
X150529561Y-80526503D02*
X150624800Y-80621741D01*
X150624800Y-80621741D02*
X150672419Y-80764598D01*
X150672419Y-80764598D02*
X150672419Y-80859836D01*
X150672419Y-80859836D02*
X150624800Y-81002693D01*
X150624800Y-81002693D02*
X150577180Y-81050312D01*
X150577180Y-81050312D02*
X150243847Y-81050312D01*
X150243847Y-81050312D02*
X150243847Y-80859836D01*
X150672419Y-82050312D02*
X150196228Y-81716979D01*
X150672419Y-81478884D02*
X149672419Y-81478884D01*
X149672419Y-81478884D02*
X149672419Y-81859836D01*
X149672419Y-81859836D02*
X149720038Y-81955074D01*
X149720038Y-81955074D02*
X149767657Y-82002693D01*
X149767657Y-82002693D02*
X149862895Y-82050312D01*
X149862895Y-82050312D02*
X150005752Y-82050312D01*
X150005752Y-82050312D02*
X150100990Y-82002693D01*
X150100990Y-82002693D02*
X150148609Y-81955074D01*
X150148609Y-81955074D02*
X150196228Y-81859836D01*
X150196228Y-81859836D02*
X150196228Y-81478884D01*
X149672419Y-82669360D02*
X149672419Y-82859836D01*
X149672419Y-82859836D02*
X149720038Y-82955074D01*
X149720038Y-82955074D02*
X149815276Y-83050312D01*
X149815276Y-83050312D02*
X150005752Y-83097931D01*
X150005752Y-83097931D02*
X150339085Y-83097931D01*
X150339085Y-83097931D02*
X150529561Y-83050312D01*
X150529561Y-83050312D02*
X150624800Y-82955074D01*
X150624800Y-82955074D02*
X150672419Y-82859836D01*
X150672419Y-82859836D02*
X150672419Y-82669360D01*
X150672419Y-82669360D02*
X150624800Y-82574122D01*
X150624800Y-82574122D02*
X150529561Y-82478884D01*
X150529561Y-82478884D02*
X150339085Y-82431265D01*
X150339085Y-82431265D02*
X150005752Y-82431265D01*
X150005752Y-82431265D02*
X149815276Y-82478884D01*
X149815276Y-82478884D02*
X149720038Y-82574122D01*
X149720038Y-82574122D02*
X149672419Y-82669360D01*
X149672419Y-83526503D02*
X150481942Y-83526503D01*
X150481942Y-83526503D02*
X150577180Y-83574122D01*
X150577180Y-83574122D02*
X150624800Y-83621741D01*
X150624800Y-83621741D02*
X150672419Y-83716979D01*
X150672419Y-83716979D02*
X150672419Y-83907455D01*
X150672419Y-83907455D02*
X150624800Y-84002693D01*
X150624800Y-84002693D02*
X150577180Y-84050312D01*
X150577180Y-84050312D02*
X150481942Y-84097931D01*
X150481942Y-84097931D02*
X149672419Y-84097931D01*
X150672419Y-84574122D02*
X149672419Y-84574122D01*
X149672419Y-84574122D02*
X150672419Y-85145550D01*
X150672419Y-85145550D02*
X149672419Y-85145550D01*
X150672419Y-85621741D02*
X149672419Y-85621741D01*
X149672419Y-85621741D02*
X149672419Y-85859836D01*
X149672419Y-85859836D02*
X149720038Y-86002693D01*
X149720038Y-86002693D02*
X149815276Y-86097931D01*
X149815276Y-86097931D02*
X149910514Y-86145550D01*
X149910514Y-86145550D02*
X150100990Y-86193169D01*
X150100990Y-86193169D02*
X150243847Y-86193169D01*
X150243847Y-86193169D02*
X150434323Y-86145550D01*
X150434323Y-86145550D02*
X150529561Y-86097931D01*
X150529561Y-86097931D02*
X150624800Y-86002693D01*
X150624800Y-86002693D02*
X150672419Y-85859836D01*
X150672419Y-85859836D02*
X150672419Y-85621741D01*
X152047419Y-80533646D02*
X152047419Y-81152693D01*
X152047419Y-81152693D02*
X152428371Y-80819360D01*
X152428371Y-80819360D02*
X152428371Y-80962217D01*
X152428371Y-80962217D02*
X152475990Y-81057455D01*
X152475990Y-81057455D02*
X152523609Y-81105074D01*
X152523609Y-81105074D02*
X152618847Y-81152693D01*
X152618847Y-81152693D02*
X152856942Y-81152693D01*
X152856942Y-81152693D02*
X152952180Y-81105074D01*
X152952180Y-81105074D02*
X152999800Y-81057455D01*
X152999800Y-81057455D02*
X153047419Y-80962217D01*
X153047419Y-80962217D02*
X153047419Y-80676503D01*
X153047419Y-80676503D02*
X152999800Y-80581265D01*
X152999800Y-80581265D02*
X152952180Y-80533646D01*
X152952180Y-81581265D02*
X152999800Y-81628884D01*
X152999800Y-81628884D02*
X153047419Y-81581265D01*
X153047419Y-81581265D02*
X152999800Y-81533646D01*
X152999800Y-81533646D02*
X152952180Y-81581265D01*
X152952180Y-81581265D02*
X153047419Y-81581265D01*
X152047419Y-81962217D02*
X152047419Y-82581264D01*
X152047419Y-82581264D02*
X152428371Y-82247931D01*
X152428371Y-82247931D02*
X152428371Y-82390788D01*
X152428371Y-82390788D02*
X152475990Y-82486026D01*
X152475990Y-82486026D02*
X152523609Y-82533645D01*
X152523609Y-82533645D02*
X152618847Y-82581264D01*
X152618847Y-82581264D02*
X152856942Y-82581264D01*
X152856942Y-82581264D02*
X152952180Y-82533645D01*
X152952180Y-82533645D02*
X152999800Y-82486026D01*
X152999800Y-82486026D02*
X153047419Y-82390788D01*
X153047419Y-82390788D02*
X153047419Y-82105074D01*
X153047419Y-82105074D02*
X152999800Y-82009836D01*
X152999800Y-82009836D02*
X152952180Y-81962217D01*
X152047419Y-82866979D02*
X153047419Y-83200312D01*
X153047419Y-83200312D02*
X152047419Y-83533645D01*
X153047419Y-85105074D02*
X153047419Y-84628884D01*
X153047419Y-84628884D02*
X152047419Y-84628884D01*
X152523609Y-85438408D02*
X152523609Y-85771741D01*
X153047419Y-85914598D02*
X153047419Y-85438408D01*
X153047419Y-85438408D02*
X152047419Y-85438408D01*
X152047419Y-85438408D02*
X152047419Y-85914598D01*
X153047419Y-86343170D02*
X152047419Y-86343170D01*
X152047419Y-86343170D02*
X152047419Y-86581265D01*
X152047419Y-86581265D02*
X152095038Y-86724122D01*
X152095038Y-86724122D02*
X152190276Y-86819360D01*
X152190276Y-86819360D02*
X152285514Y-86866979D01*
X152285514Y-86866979D02*
X152475990Y-86914598D01*
X152475990Y-86914598D02*
X152618847Y-86914598D01*
X152618847Y-86914598D02*
X152809323Y-86866979D01*
X152809323Y-86866979D02*
X152904561Y-86819360D01*
X152904561Y-86819360D02*
X152999800Y-86724122D01*
X152999800Y-86724122D02*
X153047419Y-86581265D01*
X153047419Y-86581265D02*
X153047419Y-86343170D01*
X152999800Y-87295551D02*
X153047419Y-87390789D01*
X153047419Y-87390789D02*
X153047419Y-87581265D01*
X153047419Y-87581265D02*
X152999800Y-87676503D01*
X152999800Y-87676503D02*
X152904561Y-87724122D01*
X152904561Y-87724122D02*
X152856942Y-87724122D01*
X152856942Y-87724122D02*
X152761704Y-87676503D01*
X152761704Y-87676503D02*
X152714085Y-87581265D01*
X152714085Y-87581265D02*
X152714085Y-87438408D01*
X152714085Y-87438408D02*
X152666466Y-87343170D01*
X152666466Y-87343170D02*
X152571228Y-87295551D01*
X152571228Y-87295551D02*
X152523609Y-87295551D01*
X152523609Y-87295551D02*
X152428371Y-87343170D01*
X152428371Y-87343170D02*
X152380752Y-87438408D01*
X152380752Y-87438408D02*
X152380752Y-87581265D01*
X152380752Y-87581265D02*
X152428371Y-87676503D01*
D10*
G36*
X153289516Y-90276409D02*
G01*
X152109232Y-90276409D01*
X152109232Y-89666757D01*
X152220343Y-89666757D01*
X152220343Y-89705775D01*
X152235275Y-89741823D01*
X152262865Y-89769413D01*
X152298913Y-89784345D01*
X152318422Y-89786266D01*
X152599374Y-89786266D01*
X152599374Y-90067219D01*
X152601295Y-90086728D01*
X152616227Y-90122776D01*
X152643817Y-90150366D01*
X152679865Y-90165298D01*
X152718883Y-90165298D01*
X152754931Y-90150366D01*
X152782521Y-90122776D01*
X152797453Y-90086728D01*
X152799374Y-90067219D01*
X152799374Y-89786266D01*
X153080326Y-89786266D01*
X153099835Y-89784345D01*
X153135883Y-89769413D01*
X153163473Y-89741823D01*
X153178405Y-89705775D01*
X153178405Y-89666757D01*
X153163473Y-89630709D01*
X153135883Y-89603119D01*
X153099835Y-89588187D01*
X153080326Y-89586266D01*
X152799374Y-89586266D01*
X152799374Y-89305314D01*
X152797453Y-89285805D01*
X152782521Y-89249757D01*
X152754931Y-89222167D01*
X152718883Y-89207235D01*
X152679865Y-89207235D01*
X152643817Y-89222167D01*
X152616227Y-89249757D01*
X152601295Y-89285805D01*
X152599374Y-89305314D01*
X152599374Y-89586266D01*
X152318422Y-89586266D01*
X152298913Y-89588187D01*
X152262865Y-89603119D01*
X152235275Y-89630709D01*
X152220343Y-89666757D01*
X152109232Y-89666757D01*
X152109232Y-89096124D01*
X153289516Y-89096124D01*
X153289516Y-90276409D01*
G37*
X127692219Y-86141101D02*
X127216028Y-85807768D01*
X127692219Y-85569673D02*
X126692219Y-85569673D01*
X126692219Y-85569673D02*
X126692219Y-85950625D01*
X126692219Y-85950625D02*
X126739838Y-86045863D01*
X126739838Y-86045863D02*
X126787457Y-86093482D01*
X126787457Y-86093482D02*
X126882695Y-86141101D01*
X126882695Y-86141101D02*
X127025552Y-86141101D01*
X127025552Y-86141101D02*
X127120790Y-86093482D01*
X127120790Y-86093482D02*
X127168409Y-86045863D01*
X127168409Y-86045863D02*
X127216028Y-85950625D01*
X127216028Y-85950625D02*
X127216028Y-85569673D01*
X127692219Y-86712530D02*
X127644600Y-86617292D01*
X127644600Y-86617292D02*
X127596980Y-86569673D01*
X127596980Y-86569673D02*
X127501742Y-86522054D01*
X127501742Y-86522054D02*
X127216028Y-86522054D01*
X127216028Y-86522054D02*
X127120790Y-86569673D01*
X127120790Y-86569673D02*
X127073171Y-86617292D01*
X127073171Y-86617292D02*
X127025552Y-86712530D01*
X127025552Y-86712530D02*
X127025552Y-86855387D01*
X127025552Y-86855387D02*
X127073171Y-86950625D01*
X127073171Y-86950625D02*
X127120790Y-86998244D01*
X127120790Y-86998244D02*
X127216028Y-87045863D01*
X127216028Y-87045863D02*
X127501742Y-87045863D01*
X127501742Y-87045863D02*
X127596980Y-86998244D01*
X127596980Y-86998244D02*
X127644600Y-86950625D01*
X127644600Y-86950625D02*
X127692219Y-86855387D01*
X127692219Y-86855387D02*
X127692219Y-86712530D01*
X127025552Y-87379197D02*
X127692219Y-87569673D01*
X127692219Y-87569673D02*
X127216028Y-87760149D01*
X127216028Y-87760149D02*
X127692219Y-87950625D01*
X127692219Y-87950625D02*
X127025552Y-88141101D01*
X127692219Y-89807768D02*
X127692219Y-89236340D01*
X127692219Y-89522054D02*
X126692219Y-89522054D01*
X126692219Y-89522054D02*
X126835076Y-89426816D01*
X126835076Y-89426816D02*
X126930314Y-89331578D01*
X126930314Y-89331578D02*
X126977933Y-89236340D01*
G36*
X130112746Y-86776860D02*
G01*
X130137414Y-86801527D01*
X130167219Y-86861137D01*
X130167219Y-86956780D01*
X130137414Y-87016389D01*
X130112746Y-87041056D01*
X130053135Y-87070863D01*
X129814635Y-87070863D01*
X129755025Y-87041058D01*
X129730357Y-87016389D01*
X129700552Y-86956779D01*
X129700552Y-86861137D01*
X129730357Y-86801527D01*
X129755025Y-86776858D01*
X129814635Y-86747054D01*
X130053135Y-86747054D01*
X130112746Y-86776860D01*
G37*
G36*
X130478330Y-89620070D02*
G01*
X129056108Y-89620070D01*
X129056108Y-88980388D01*
X129167219Y-88980388D01*
X129167219Y-89218483D01*
X129169140Y-89237992D01*
X129170515Y-89241312D01*
X129170770Y-89244896D01*
X129177776Y-89263204D01*
X129225395Y-89358442D01*
X129230680Y-89366838D01*
X129231691Y-89369278D01*
X129233944Y-89372024D01*
X129235838Y-89375032D01*
X129237832Y-89376761D01*
X129244127Y-89384432D01*
X129291746Y-89432050D01*
X129299412Y-89438342D01*
X129301145Y-89440340D01*
X129304153Y-89442233D01*
X129306899Y-89444487D01*
X129309339Y-89445497D01*
X129317736Y-89450783D01*
X129412973Y-89498402D01*
X129431282Y-89505408D01*
X129434865Y-89505662D01*
X129438186Y-89507038D01*
X129457695Y-89508959D01*
X129552933Y-89508959D01*
X129562806Y-89507986D01*
X129565440Y-89508174D01*
X129568903Y-89507386D01*
X129572442Y-89507038D01*
X129574884Y-89506026D01*
X129584556Y-89503827D01*
X129727412Y-89456208D01*
X129745313Y-89448217D01*
X129748028Y-89445861D01*
X129751347Y-89444487D01*
X129766501Y-89432051D01*
X130167219Y-89031333D01*
X130167219Y-89408959D01*
X130169140Y-89428468D01*
X130184072Y-89464516D01*
X130211662Y-89492106D01*
X130247710Y-89507038D01*
X130286728Y-89507038D01*
X130322776Y-89492106D01*
X130350366Y-89464516D01*
X130365298Y-89428468D01*
X130367219Y-89408959D01*
X130367219Y-88789912D01*
X130365298Y-88770403D01*
X130350366Y-88734355D01*
X130322776Y-88706765D01*
X130286728Y-88691833D01*
X130247710Y-88691833D01*
X130211662Y-88706765D01*
X130196508Y-88719201D01*
X129641770Y-89273937D01*
X129536706Y-89308959D01*
X129481302Y-89308959D01*
X129421692Y-89279154D01*
X129397024Y-89254485D01*
X129367219Y-89194875D01*
X129367219Y-89003995D01*
X129397024Y-88944385D01*
X129433167Y-88908242D01*
X129445604Y-88893089D01*
X129460535Y-88857040D01*
X129460535Y-88818022D01*
X129445604Y-88781974D01*
X129418014Y-88754384D01*
X129381966Y-88739453D01*
X129342948Y-88739453D01*
X129306899Y-88754384D01*
X129291746Y-88766821D01*
X129244127Y-88814439D01*
X129237832Y-88822109D01*
X129235838Y-88823839D01*
X129233944Y-88826846D01*
X129231691Y-88829593D01*
X129230680Y-88832032D01*
X129225395Y-88840429D01*
X129177776Y-88935667D01*
X129170770Y-88953975D01*
X129170515Y-88957558D01*
X129169140Y-88960879D01*
X129167219Y-88980388D01*
X129056108Y-88980388D01*
X129056108Y-87579926D01*
X129169140Y-87579926D01*
X129169140Y-87618944D01*
X129184072Y-87654992D01*
X129211662Y-87682582D01*
X129247710Y-87697514D01*
X129267219Y-87699435D01*
X130100754Y-87699435D01*
X130145064Y-87721589D01*
X130177776Y-87787013D01*
X130188219Y-87803603D01*
X130217696Y-87829168D01*
X130254712Y-87841506D01*
X130293632Y-87838741D01*
X130328530Y-87821292D01*
X130354095Y-87791815D01*
X130366434Y-87754799D01*
X130363668Y-87715879D01*
X130356662Y-87697570D01*
X130309043Y-87602333D01*
X130306989Y-87599070D01*
X130306476Y-87597530D01*
X130304812Y-87595612D01*
X130298600Y-87585742D01*
X130289125Y-87577525D01*
X130280911Y-87568054D01*
X130271039Y-87561840D01*
X130269123Y-87560178D01*
X130267584Y-87559664D01*
X130264321Y-87557611D01*
X130169082Y-87509992D01*
X130150773Y-87502986D01*
X130147190Y-87502731D01*
X130143870Y-87501356D01*
X130124361Y-87499435D01*
X129267219Y-87499435D01*
X129247710Y-87501356D01*
X129211662Y-87516288D01*
X129184072Y-87543878D01*
X129169140Y-87579926D01*
X129056108Y-87579926D01*
X129056108Y-86837530D01*
X129500552Y-86837530D01*
X129500552Y-86980387D01*
X129502473Y-86999896D01*
X129503848Y-87003216D01*
X129504103Y-87006800D01*
X129511109Y-87025108D01*
X129558728Y-87120346D01*
X129564013Y-87128742D01*
X129565024Y-87131182D01*
X129567277Y-87133928D01*
X129569171Y-87136936D01*
X129571165Y-87138665D01*
X129577460Y-87146336D01*
X129625079Y-87193954D01*
X129632745Y-87200246D01*
X129634478Y-87202244D01*
X129637486Y-87204137D01*
X129640232Y-87206391D01*
X129642672Y-87207401D01*
X129651069Y-87212687D01*
X129746306Y-87260306D01*
X129764615Y-87267312D01*
X129768198Y-87267566D01*
X129771519Y-87268942D01*
X129791028Y-87270863D01*
X130076742Y-87270863D01*
X130096251Y-87268942D01*
X130099571Y-87267566D01*
X130103155Y-87267312D01*
X130121463Y-87260306D01*
X130216701Y-87212687D01*
X130225093Y-87207403D01*
X130227537Y-87206392D01*
X130230286Y-87204135D01*
X130233291Y-87202244D01*
X130235020Y-87200249D01*
X130242690Y-87193955D01*
X130290310Y-87146337D01*
X130296603Y-87138668D01*
X130298600Y-87136937D01*
X130300493Y-87133928D01*
X130302747Y-87131183D01*
X130303757Y-87128742D01*
X130309043Y-87120346D01*
X130356662Y-87025109D01*
X130363668Y-87006800D01*
X130363922Y-87003216D01*
X130365298Y-86999896D01*
X130367219Y-86980387D01*
X130367219Y-86837530D01*
X130365298Y-86818021D01*
X130363922Y-86814700D01*
X130363668Y-86811117D01*
X130356662Y-86792808D01*
X130309043Y-86697571D01*
X130303757Y-86689174D01*
X130302747Y-86686734D01*
X130300493Y-86683988D01*
X130298600Y-86680980D01*
X130296603Y-86679248D01*
X130290310Y-86671580D01*
X130242690Y-86623962D01*
X130235020Y-86617667D01*
X130233291Y-86615673D01*
X130230286Y-86613781D01*
X130227537Y-86611525D01*
X130225093Y-86610513D01*
X130216701Y-86605230D01*
X130121463Y-86557611D01*
X130103155Y-86550605D01*
X130099571Y-86550350D01*
X130096251Y-86548975D01*
X130076742Y-86547054D01*
X129791028Y-86547054D01*
X129771519Y-86548975D01*
X129768198Y-86550350D01*
X129764615Y-86550605D01*
X129746306Y-86557611D01*
X129651069Y-86605230D01*
X129642672Y-86610515D01*
X129640232Y-86611526D01*
X129637486Y-86613779D01*
X129634478Y-86615673D01*
X129632745Y-86617670D01*
X129625079Y-86623963D01*
X129577460Y-86671581D01*
X129571165Y-86679251D01*
X129569171Y-86680981D01*
X129567277Y-86683988D01*
X129565024Y-86686735D01*
X129564013Y-86689174D01*
X129558728Y-86697571D01*
X129511109Y-86792809D01*
X129504103Y-86811117D01*
X129503848Y-86814700D01*
X129502473Y-86818021D01*
X129500552Y-86837530D01*
X129056108Y-86837530D01*
X129056108Y-85980387D01*
X129167219Y-85980387D01*
X129167219Y-86075625D01*
X129168191Y-86085498D01*
X129168004Y-86088132D01*
X129168791Y-86091595D01*
X129169140Y-86095134D01*
X129170151Y-86097576D01*
X129172351Y-86107248D01*
X129219970Y-86250104D01*
X129227961Y-86268005D01*
X129230316Y-86270720D01*
X129231691Y-86274039D01*
X129244127Y-86289193D01*
X129291746Y-86336811D01*
X129306899Y-86349248D01*
X129342948Y-86364179D01*
X129381966Y-86364179D01*
X129418014Y-86349248D01*
X129445604Y-86321658D01*
X129460535Y-86285610D01*
X129460535Y-86246592D01*
X129445604Y-86210543D01*
X129433167Y-86195390D01*
X129402240Y-86164463D01*
X129367219Y-86059398D01*
X129367219Y-85996614D01*
X129402240Y-85891549D01*
X129469313Y-85824477D01*
X129540218Y-85789024D01*
X129708099Y-85747054D01*
X129826337Y-85747054D01*
X129994218Y-85789024D01*
X130065127Y-85824478D01*
X130132197Y-85891548D01*
X130167219Y-85996613D01*
X130167219Y-86059398D01*
X130132197Y-86164463D01*
X130101270Y-86195390D01*
X130088833Y-86210543D01*
X130073902Y-86246591D01*
X130073901Y-86285609D01*
X130088832Y-86321658D01*
X130116422Y-86349248D01*
X130152470Y-86364179D01*
X130191488Y-86364180D01*
X130227537Y-86349249D01*
X130242690Y-86336812D01*
X130290310Y-86289194D01*
X130302747Y-86274040D01*
X130304122Y-86270720D01*
X130306477Y-86268005D01*
X130314468Y-86250105D01*
X130362087Y-86107248D01*
X130364286Y-86097575D01*
X130365298Y-86095134D01*
X130365646Y-86091596D01*
X130366434Y-86088133D01*
X130366246Y-86085498D01*
X130367219Y-86075625D01*
X130367219Y-85980387D01*
X130366246Y-85970513D01*
X130366434Y-85967879D01*
X130365646Y-85964415D01*
X130365298Y-85960878D01*
X130364286Y-85958436D01*
X130362087Y-85948764D01*
X130314468Y-85805907D01*
X130306477Y-85788007D01*
X130304122Y-85785291D01*
X130302747Y-85781972D01*
X130290311Y-85766819D01*
X130195071Y-85671581D01*
X130187401Y-85665286D01*
X130185672Y-85663292D01*
X130182667Y-85661400D01*
X130179918Y-85659144D01*
X130177474Y-85658131D01*
X130169082Y-85652849D01*
X130073844Y-85605230D01*
X130072417Y-85604684D01*
X130071837Y-85604254D01*
X130063660Y-85601332D01*
X130055536Y-85598224D01*
X130054813Y-85598172D01*
X130053376Y-85597659D01*
X129862901Y-85550040D01*
X129859519Y-85549539D01*
X129858156Y-85548975D01*
X129850805Y-85548251D01*
X129843508Y-85547172D01*
X129842049Y-85547389D01*
X129838647Y-85547054D01*
X129695790Y-85547054D01*
X129692387Y-85547389D01*
X129690929Y-85547172D01*
X129683631Y-85548251D01*
X129676281Y-85548975D01*
X129674917Y-85549539D01*
X129671536Y-85550040D01*
X129481060Y-85597659D01*
X129479621Y-85598172D01*
X129478901Y-85598224D01*
X129470776Y-85601332D01*
X129462600Y-85604254D01*
X129462020Y-85604683D01*
X129460592Y-85605230D01*
X129365355Y-85652849D01*
X129356956Y-85658135D01*
X129354519Y-85659145D01*
X129351775Y-85661396D01*
X129348764Y-85663292D01*
X129347031Y-85665289D01*
X129339365Y-85671581D01*
X129244127Y-85766819D01*
X129231691Y-85781973D01*
X129230316Y-85785291D01*
X129227961Y-85788007D01*
X129219970Y-85805908D01*
X129172351Y-85948764D01*
X129170151Y-85958435D01*
X129169140Y-85960878D01*
X129168791Y-85964416D01*
X129168004Y-85967880D01*
X129168191Y-85970513D01*
X129167219Y-85980387D01*
X129056108Y-85980387D01*
X129056108Y-85435943D01*
X130478330Y-85435943D01*
X130478330Y-89620070D01*
G37*
X145467219Y-86141101D02*
X144991028Y-85807768D01*
X145467219Y-85569673D02*
X144467219Y-85569673D01*
X144467219Y-85569673D02*
X144467219Y-85950625D01*
X144467219Y-85950625D02*
X144514838Y-86045863D01*
X144514838Y-86045863D02*
X144562457Y-86093482D01*
X144562457Y-86093482D02*
X144657695Y-86141101D01*
X144657695Y-86141101D02*
X144800552Y-86141101D01*
X144800552Y-86141101D02*
X144895790Y-86093482D01*
X144895790Y-86093482D02*
X144943409Y-86045863D01*
X144943409Y-86045863D02*
X144991028Y-85950625D01*
X144991028Y-85950625D02*
X144991028Y-85569673D01*
X145467219Y-86712530D02*
X145419600Y-86617292D01*
X145419600Y-86617292D02*
X145371980Y-86569673D01*
X145371980Y-86569673D02*
X145276742Y-86522054D01*
X145276742Y-86522054D02*
X144991028Y-86522054D01*
X144991028Y-86522054D02*
X144895790Y-86569673D01*
X144895790Y-86569673D02*
X144848171Y-86617292D01*
X144848171Y-86617292D02*
X144800552Y-86712530D01*
X144800552Y-86712530D02*
X144800552Y-86855387D01*
X144800552Y-86855387D02*
X144848171Y-86950625D01*
X144848171Y-86950625D02*
X144895790Y-86998244D01*
X144895790Y-86998244D02*
X144991028Y-87045863D01*
X144991028Y-87045863D02*
X145276742Y-87045863D01*
X145276742Y-87045863D02*
X145371980Y-86998244D01*
X145371980Y-86998244D02*
X145419600Y-86950625D01*
X145419600Y-86950625D02*
X145467219Y-86855387D01*
X145467219Y-86855387D02*
X145467219Y-86712530D01*
X144800552Y-87379197D02*
X145467219Y-87569673D01*
X145467219Y-87569673D02*
X144991028Y-87760149D01*
X144991028Y-87760149D02*
X145467219Y-87950625D01*
X145467219Y-87950625D02*
X144800552Y-88141101D01*
X144467219Y-89760149D02*
X144467219Y-89283959D01*
X144467219Y-89283959D02*
X144943409Y-89236340D01*
X144943409Y-89236340D02*
X144895790Y-89283959D01*
X144895790Y-89283959D02*
X144848171Y-89379197D01*
X144848171Y-89379197D02*
X144848171Y-89617292D01*
X144848171Y-89617292D02*
X144895790Y-89712530D01*
X144895790Y-89712530D02*
X144943409Y-89760149D01*
X144943409Y-89760149D02*
X145038647Y-89807768D01*
X145038647Y-89807768D02*
X145276742Y-89807768D01*
X145276742Y-89807768D02*
X145371980Y-89760149D01*
X145371980Y-89760149D02*
X145419600Y-89712530D01*
X145419600Y-89712530D02*
X145467219Y-89617292D01*
X145467219Y-89617292D02*
X145467219Y-89379197D01*
X145467219Y-89379197D02*
X145419600Y-89283959D01*
X145419600Y-89283959D02*
X145371980Y-89236340D01*
G36*
X135287746Y-86776860D02*
G01*
X135312414Y-86801527D01*
X135342219Y-86861137D01*
X135342219Y-86956780D01*
X135312414Y-87016389D01*
X135287746Y-87041056D01*
X135228135Y-87070863D01*
X134989635Y-87070863D01*
X134930025Y-87041058D01*
X134905357Y-87016389D01*
X134875552Y-86956779D01*
X134875552Y-86861137D01*
X134905357Y-86801527D01*
X134930025Y-86776858D01*
X134989635Y-86747054D01*
X135228135Y-86747054D01*
X135287746Y-86776860D01*
G37*
G36*
X135653330Y-89620070D02*
G01*
X134231108Y-89620070D01*
X134231108Y-88789912D01*
X134342219Y-88789912D01*
X134342219Y-89408959D01*
X134343234Y-89419276D01*
X134343060Y-89421901D01*
X134343671Y-89423708D01*
X134344140Y-89428468D01*
X134350355Y-89443473D01*
X134355560Y-89458862D01*
X134357781Y-89461401D01*
X134359072Y-89464516D01*
X134370556Y-89476000D01*
X134381254Y-89488226D01*
X134384277Y-89489721D01*
X134386662Y-89492106D01*
X134401668Y-89498322D01*
X134416229Y-89505523D01*
X134419594Y-89505747D01*
X134422710Y-89507038D01*
X134438958Y-89507038D01*
X134455161Y-89508118D01*
X134458354Y-89507038D01*
X134461728Y-89507038D01*
X134476733Y-89500822D01*
X134492122Y-89495618D01*
X134496012Y-89492836D01*
X134497776Y-89492106D01*
X134499635Y-89490246D01*
X134508069Y-89484217D01*
X134741923Y-89279594D01*
X134781347Y-89358442D01*
X134786632Y-89366838D01*
X134787643Y-89369278D01*
X134789896Y-89372024D01*
X134791790Y-89375032D01*
X134793784Y-89376761D01*
X134800079Y-89384432D01*
X134847698Y-89432050D01*
X134855364Y-89438342D01*
X134857097Y-89440340D01*
X134860105Y-89442233D01*
X134862851Y-89444487D01*
X134865291Y-89445497D01*
X134873688Y-89450783D01*
X134968925Y-89498402D01*
X134987234Y-89505408D01*
X134990817Y-89505662D01*
X134994138Y-89507038D01*
X135013647Y-89508959D01*
X135251742Y-89508959D01*
X135271251Y-89507038D01*
X135274571Y-89505662D01*
X135278155Y-89505408D01*
X135296463Y-89498402D01*
X135391701Y-89450783D01*
X135400093Y-89445499D01*
X135402537Y-89444488D01*
X135405286Y-89442231D01*
X135408291Y-89440340D01*
X135410020Y-89438345D01*
X135417690Y-89432051D01*
X135465310Y-89384433D01*
X135471603Y-89376764D01*
X135473600Y-89375033D01*
X135475493Y-89372024D01*
X135477747Y-89369279D01*
X135478757Y-89366838D01*
X135484043Y-89358442D01*
X135531662Y-89263205D01*
X135538668Y-89244896D01*
X135538922Y-89241312D01*
X135540298Y-89237992D01*
X135542219Y-89218483D01*
X135542219Y-88932769D01*
X135540298Y-88913260D01*
X135538922Y-88909939D01*
X135538668Y-88906356D01*
X135531662Y-88888047D01*
X135484043Y-88792810D01*
X135478757Y-88784413D01*
X135477747Y-88781973D01*
X135475493Y-88779227D01*
X135473600Y-88776219D01*
X135471603Y-88774487D01*
X135465310Y-88766819D01*
X135417690Y-88719201D01*
X135402537Y-88706764D01*
X135366488Y-88691833D01*
X135327470Y-88691834D01*
X135291422Y-88706765D01*
X135263832Y-88734355D01*
X135248901Y-88770404D01*
X135248902Y-88809422D01*
X135263833Y-88845470D01*
X135276270Y-88860623D01*
X135312414Y-88896766D01*
X135342219Y-88956376D01*
X135342219Y-89194876D01*
X135312414Y-89254485D01*
X135287746Y-89279152D01*
X135228135Y-89308959D01*
X135037254Y-89308959D01*
X134977644Y-89279154D01*
X134952976Y-89254485D01*
X134923171Y-89194875D01*
X134923171Y-89075626D01*
X134922155Y-89065308D01*
X134922330Y-89062684D01*
X134921718Y-89060876D01*
X134921250Y-89056117D01*
X134915035Y-89041113D01*
X134909830Y-89025722D01*
X134907607Y-89023182D01*
X134906318Y-89020069D01*
X134894840Y-89008591D01*
X134884136Y-88996358D01*
X134881111Y-88994862D01*
X134878728Y-88992479D01*
X134863726Y-88986264D01*
X134849161Y-88979062D01*
X134845795Y-88978837D01*
X134842680Y-88977547D01*
X134826432Y-88977547D01*
X134810229Y-88976467D01*
X134807036Y-88977547D01*
X134803662Y-88977547D01*
X134788656Y-88983762D01*
X134773268Y-88988967D01*
X134769377Y-88991748D01*
X134767614Y-88992479D01*
X134765754Y-88994338D01*
X134757321Y-89000368D01*
X134542219Y-89188582D01*
X134542219Y-88789912D01*
X134540298Y-88770403D01*
X134525366Y-88734355D01*
X134497776Y-88706765D01*
X134461728Y-88691833D01*
X134422710Y-88691833D01*
X134386662Y-88706765D01*
X134359072Y-88734355D01*
X134344140Y-88770403D01*
X134342219Y-88789912D01*
X134231108Y-88789912D01*
X134231108Y-87579926D01*
X134344140Y-87579926D01*
X134344140Y-87618944D01*
X134359072Y-87654992D01*
X134386662Y-87682582D01*
X134422710Y-87697514D01*
X134442219Y-87699435D01*
X135275754Y-87699435D01*
X135320064Y-87721589D01*
X135352776Y-87787013D01*
X135363219Y-87803603D01*
X135392696Y-87829168D01*
X135429712Y-87841506D01*
X135468632Y-87838741D01*
X135503530Y-87821292D01*
X135529095Y-87791815D01*
X135541434Y-87754799D01*
X135538668Y-87715879D01*
X135531662Y-87697570D01*
X135484043Y-87602333D01*
X135481989Y-87599070D01*
X135481476Y-87597530D01*
X135479812Y-87595612D01*
X135473600Y-87585742D01*
X135464125Y-87577525D01*
X135455911Y-87568054D01*
X135446039Y-87561840D01*
X135444123Y-87560178D01*
X135442584Y-87559664D01*
X135439321Y-87557611D01*
X135344082Y-87509992D01*
X135325773Y-87502986D01*
X135322190Y-87502731D01*
X135318870Y-87501356D01*
X135299361Y-87499435D01*
X134442219Y-87499435D01*
X134422710Y-87501356D01*
X134386662Y-87516288D01*
X134359072Y-87543878D01*
X134344140Y-87579926D01*
X134231108Y-87579926D01*
X134231108Y-86837530D01*
X134675552Y-86837530D01*
X134675552Y-86980387D01*
X134677473Y-86999896D01*
X134678848Y-87003216D01*
X134679103Y-87006800D01*
X134686109Y-87025108D01*
X134733728Y-87120346D01*
X134739013Y-87128742D01*
X134740024Y-87131182D01*
X134742277Y-87133928D01*
X134744171Y-87136936D01*
X134746165Y-87138665D01*
X134752460Y-87146336D01*
X134800079Y-87193954D01*
X134807745Y-87200246D01*
X134809478Y-87202244D01*
X134812486Y-87204137D01*
X134815232Y-87206391D01*
X134817672Y-87207401D01*
X134826069Y-87212687D01*
X134921306Y-87260306D01*
X134939615Y-87267312D01*
X134943198Y-87267566D01*
X134946519Y-87268942D01*
X134966028Y-87270863D01*
X135251742Y-87270863D01*
X135271251Y-87268942D01*
X135274571Y-87267566D01*
X135278155Y-87267312D01*
X135296463Y-87260306D01*
X135391701Y-87212687D01*
X135400093Y-87207403D01*
X135402537Y-87206392D01*
X135405286Y-87204135D01*
X135408291Y-87202244D01*
X135410020Y-87200249D01*
X135417690Y-87193955D01*
X135465310Y-87146337D01*
X135471603Y-87138668D01*
X135473600Y-87136937D01*
X135475493Y-87133928D01*
X135477747Y-87131183D01*
X135478757Y-87128742D01*
X135484043Y-87120346D01*
X135531662Y-87025109D01*
X135538668Y-87006800D01*
X135538922Y-87003216D01*
X135540298Y-86999896D01*
X135542219Y-86980387D01*
X135542219Y-86837530D01*
X135540298Y-86818021D01*
X135538922Y-86814700D01*
X135538668Y-86811117D01*
X135531662Y-86792808D01*
X135484043Y-86697571D01*
X135478757Y-86689174D01*
X135477747Y-86686734D01*
X135475493Y-86683988D01*
X135473600Y-86680980D01*
X135471603Y-86679248D01*
X135465310Y-86671580D01*
X135417690Y-86623962D01*
X135410020Y-86617667D01*
X135408291Y-86615673D01*
X135405286Y-86613781D01*
X135402537Y-86611525D01*
X135400093Y-86610513D01*
X135391701Y-86605230D01*
X135296463Y-86557611D01*
X135278155Y-86550605D01*
X135274571Y-86550350D01*
X135271251Y-86548975D01*
X135251742Y-86547054D01*
X134966028Y-86547054D01*
X134946519Y-86548975D01*
X134943198Y-86550350D01*
X134939615Y-86550605D01*
X134921306Y-86557611D01*
X134826069Y-86605230D01*
X134817672Y-86610515D01*
X134815232Y-86611526D01*
X134812486Y-86613779D01*
X134809478Y-86615673D01*
X134807745Y-86617670D01*
X134800079Y-86623963D01*
X134752460Y-86671581D01*
X134746165Y-86679251D01*
X134744171Y-86680981D01*
X134742277Y-86683988D01*
X134740024Y-86686735D01*
X134739013Y-86689174D01*
X134733728Y-86697571D01*
X134686109Y-86792809D01*
X134679103Y-86811117D01*
X134678848Y-86814700D01*
X134677473Y-86818021D01*
X134675552Y-86837530D01*
X134231108Y-86837530D01*
X134231108Y-85980387D01*
X134342219Y-85980387D01*
X134342219Y-86075625D01*
X134343191Y-86085498D01*
X134343004Y-86088132D01*
X134343791Y-86091595D01*
X134344140Y-86095134D01*
X134345151Y-86097576D01*
X134347351Y-86107248D01*
X134394970Y-86250104D01*
X134402961Y-86268005D01*
X134405316Y-86270720D01*
X134406691Y-86274039D01*
X134419127Y-86289193D01*
X134466746Y-86336811D01*
X134481899Y-86349248D01*
X134517948Y-86364179D01*
X134556966Y-86364179D01*
X134593014Y-86349248D01*
X134620604Y-86321658D01*
X134635535Y-86285610D01*
X134635535Y-86246592D01*
X134620604Y-86210543D01*
X134608167Y-86195390D01*
X134577240Y-86164463D01*
X134542219Y-86059398D01*
X134542219Y-85996614D01*
X134577240Y-85891549D01*
X134644313Y-85824477D01*
X134715218Y-85789024D01*
X134883099Y-85747054D01*
X135001337Y-85747054D01*
X135169218Y-85789024D01*
X135240127Y-85824478D01*
X135307197Y-85891548D01*
X135342219Y-85996613D01*
X135342219Y-86059398D01*
X135307197Y-86164463D01*
X135276270Y-86195390D01*
X135263833Y-86210543D01*
X135248902Y-86246591D01*
X135248901Y-86285609D01*
X135263832Y-86321658D01*
X135291422Y-86349248D01*
X135327470Y-86364179D01*
X135366488Y-86364180D01*
X135402537Y-86349249D01*
X135417690Y-86336812D01*
X135465310Y-86289194D01*
X135477747Y-86274040D01*
X135479122Y-86270720D01*
X135481477Y-86268005D01*
X135489468Y-86250105D01*
X135537087Y-86107248D01*
X135539286Y-86097575D01*
X135540298Y-86095134D01*
X135540646Y-86091596D01*
X135541434Y-86088133D01*
X135541246Y-86085498D01*
X135542219Y-86075625D01*
X135542219Y-85980387D01*
X135541246Y-85970513D01*
X135541434Y-85967879D01*
X135540646Y-85964415D01*
X135540298Y-85960878D01*
X135539286Y-85958436D01*
X135537087Y-85948764D01*
X135489468Y-85805907D01*
X135481477Y-85788007D01*
X135479122Y-85785291D01*
X135477747Y-85781972D01*
X135465311Y-85766819D01*
X135370071Y-85671581D01*
X135362401Y-85665286D01*
X135360672Y-85663292D01*
X135357667Y-85661400D01*
X135354918Y-85659144D01*
X135352474Y-85658131D01*
X135344082Y-85652849D01*
X135248844Y-85605230D01*
X135247417Y-85604684D01*
X135246837Y-85604254D01*
X135238660Y-85601332D01*
X135230536Y-85598224D01*
X135229813Y-85598172D01*
X135228376Y-85597659D01*
X135037901Y-85550040D01*
X135034519Y-85549539D01*
X135033156Y-85548975D01*
X135025805Y-85548251D01*
X135018508Y-85547172D01*
X135017049Y-85547389D01*
X135013647Y-85547054D01*
X134870790Y-85547054D01*
X134867387Y-85547389D01*
X134865929Y-85547172D01*
X134858631Y-85548251D01*
X134851281Y-85548975D01*
X134849917Y-85549539D01*
X134846536Y-85550040D01*
X134656060Y-85597659D01*
X134654621Y-85598172D01*
X134653901Y-85598224D01*
X134645776Y-85601332D01*
X134637600Y-85604254D01*
X134637020Y-85604683D01*
X134635592Y-85605230D01*
X134540355Y-85652849D01*
X134531956Y-85658135D01*
X134529519Y-85659145D01*
X134526775Y-85661396D01*
X134523764Y-85663292D01*
X134522031Y-85665289D01*
X134514365Y-85671581D01*
X134419127Y-85766819D01*
X134406691Y-85781973D01*
X134405316Y-85785291D01*
X134402961Y-85788007D01*
X134394970Y-85805908D01*
X134347351Y-85948764D01*
X134345151Y-85958435D01*
X134344140Y-85960878D01*
X134343791Y-85964416D01*
X134343004Y-85967880D01*
X134343191Y-85970513D01*
X134342219Y-85980387D01*
X134231108Y-85980387D01*
X134231108Y-85435943D01*
X135653330Y-85435943D01*
X135653330Y-89620070D01*
G37*
G36*
X168316837Y-89931882D02*
G01*
X168387746Y-89967337D01*
X168412414Y-89992004D01*
X168442219Y-90051614D01*
X168442219Y-90099638D01*
X168412414Y-90159247D01*
X168387746Y-90183914D01*
X168316837Y-90219369D01*
X168148956Y-90261340D01*
X167935480Y-90261340D01*
X167767599Y-90219369D01*
X167696692Y-90183916D01*
X167672024Y-90159247D01*
X167642219Y-90099637D01*
X167642219Y-90051614D01*
X167672024Y-89992004D01*
X167696692Y-89967335D01*
X167767599Y-89931882D01*
X167935480Y-89889912D01*
X168148956Y-89889912D01*
X168316837Y-89931882D01*
G37*
G36*
X168387746Y-86776860D02*
G01*
X168412414Y-86801527D01*
X168442219Y-86861137D01*
X168442219Y-86956780D01*
X168412414Y-87016389D01*
X168387746Y-87041056D01*
X168328135Y-87070863D01*
X168089635Y-87070863D01*
X168030025Y-87041058D01*
X168005357Y-87016389D01*
X167975552Y-86956779D01*
X167975552Y-86861137D01*
X168005357Y-86801527D01*
X168030025Y-86776858D01*
X168089635Y-86747054D01*
X168328135Y-86747054D01*
X168387746Y-86776860D01*
G37*
G36*
X168753330Y-90572451D02*
G01*
X167331108Y-90572451D01*
X167331108Y-90028007D01*
X167442219Y-90028007D01*
X167442219Y-90123245D01*
X167444140Y-90142754D01*
X167445515Y-90146074D01*
X167445770Y-90149658D01*
X167452776Y-90167966D01*
X167500395Y-90263204D01*
X167505680Y-90271600D01*
X167506691Y-90274040D01*
X167508944Y-90276786D01*
X167510838Y-90279794D01*
X167512832Y-90281523D01*
X167519127Y-90289194D01*
X167566746Y-90336812D01*
X167574412Y-90343104D01*
X167576145Y-90345102D01*
X167579153Y-90346995D01*
X167581899Y-90349249D01*
X167584339Y-90350259D01*
X167592736Y-90355545D01*
X167687973Y-90403164D01*
X167689401Y-90403710D01*
X167689981Y-90404140D01*
X167698157Y-90407061D01*
X167706282Y-90410170D01*
X167707002Y-90410221D01*
X167708441Y-90410735D01*
X167898917Y-90458354D01*
X167902298Y-90458854D01*
X167903662Y-90459419D01*
X167911012Y-90460142D01*
X167918310Y-90461222D01*
X167919768Y-90461004D01*
X167923171Y-90461340D01*
X168161266Y-90461340D01*
X168164668Y-90461004D01*
X168166127Y-90461222D01*
X168173424Y-90460142D01*
X168180775Y-90459419D01*
X168182138Y-90458854D01*
X168185520Y-90458354D01*
X168375995Y-90410735D01*
X168377432Y-90410221D01*
X168378155Y-90410170D01*
X168386279Y-90407061D01*
X168394456Y-90404140D01*
X168395036Y-90403709D01*
X168396463Y-90403164D01*
X168491701Y-90355545D01*
X168500093Y-90350261D01*
X168502537Y-90349250D01*
X168505286Y-90346993D01*
X168508291Y-90345102D01*
X168510020Y-90343107D01*
X168517690Y-90336813D01*
X168565310Y-90289195D01*
X168571603Y-90281526D01*
X168573600Y-90279795D01*
X168575493Y-90276786D01*
X168577747Y-90274041D01*
X168578757Y-90271600D01*
X168584043Y-90263204D01*
X168631662Y-90167967D01*
X168638668Y-90149658D01*
X168638922Y-90146074D01*
X168640298Y-90142754D01*
X168642219Y-90123245D01*
X168642219Y-90028007D01*
X168640298Y-90008498D01*
X168638922Y-90005177D01*
X168638668Y-90001594D01*
X168631662Y-89983285D01*
X168584043Y-89888048D01*
X168578757Y-89879651D01*
X168577747Y-89877211D01*
X168575493Y-89874465D01*
X168573600Y-89871457D01*
X168571603Y-89869725D01*
X168565310Y-89862057D01*
X168517690Y-89814439D01*
X168510020Y-89808144D01*
X168508291Y-89806150D01*
X168505286Y-89804258D01*
X168502537Y-89802002D01*
X168500093Y-89800990D01*
X168491701Y-89795707D01*
X168396463Y-89748088D01*
X168395036Y-89747542D01*
X168394456Y-89747112D01*
X168386279Y-89744190D01*
X168378155Y-89741082D01*
X168377432Y-89741030D01*
X168375995Y-89740517D01*
X168185520Y-89692898D01*
X168182138Y-89692397D01*
X168180775Y-89691833D01*
X168173424Y-89691109D01*
X168166127Y-89690030D01*
X168164668Y-89690247D01*
X168161266Y-89689912D01*
X167923171Y-89689912D01*
X167919768Y-89690247D01*
X167918310Y-89690030D01*
X167911012Y-89691109D01*
X167903662Y-89691833D01*
X167902298Y-89692397D01*
X167898917Y-89692898D01*
X167708441Y-89740517D01*
X167707002Y-89741030D01*
X167706282Y-89741082D01*
X167698157Y-89744190D01*
X167689981Y-89747112D01*
X167689401Y-89747541D01*
X167687973Y-89748088D01*
X167592736Y-89795707D01*
X167584339Y-89800992D01*
X167581899Y-89802003D01*
X167579153Y-89804256D01*
X167576145Y-89806150D01*
X167574412Y-89808147D01*
X167566746Y-89814440D01*
X167519127Y-89862058D01*
X167512832Y-89869728D01*
X167510838Y-89871458D01*
X167508944Y-89874465D01*
X167506691Y-89877212D01*
X167505680Y-89879651D01*
X167500395Y-89888048D01*
X167452776Y-89983286D01*
X167445770Y-90001594D01*
X167445515Y-90005177D01*
X167444140Y-90008498D01*
X167442219Y-90028007D01*
X167331108Y-90028007D01*
X167331108Y-89123140D01*
X167442219Y-89123140D01*
X167444140Y-89132850D01*
X167444140Y-89142754D01*
X167447889Y-89151806D01*
X167449791Y-89161417D01*
X167455283Y-89169655D01*
X167459072Y-89178802D01*
X167465998Y-89185728D01*
X167471434Y-89193882D01*
X167479662Y-89199392D01*
X167486662Y-89206392D01*
X167495713Y-89210141D01*
X167503854Y-89215593D01*
X167513561Y-89217534D01*
X167522710Y-89221324D01*
X167542012Y-89223224D01*
X167542114Y-89223245D01*
X167542148Y-89223238D01*
X167542219Y-89223245D01*
X168442219Y-89223245D01*
X168442219Y-89408959D01*
X168444140Y-89428468D01*
X168459072Y-89464516D01*
X168486662Y-89492106D01*
X168522710Y-89507038D01*
X168561728Y-89507038D01*
X168597776Y-89492106D01*
X168625366Y-89464516D01*
X168640298Y-89428468D01*
X168642219Y-89408959D01*
X168642219Y-88837531D01*
X168640298Y-88818022D01*
X168625366Y-88781974D01*
X168597776Y-88754384D01*
X168561728Y-88739452D01*
X168522710Y-88739452D01*
X168486662Y-88754384D01*
X168459072Y-88781974D01*
X168444140Y-88818022D01*
X168442219Y-88837531D01*
X168442219Y-89023245D01*
X167831260Y-89023245D01*
X167851025Y-89003480D01*
X167857316Y-88995813D01*
X167859314Y-88994081D01*
X167861209Y-88991069D01*
X167863461Y-88988326D01*
X167864470Y-88985888D01*
X167869757Y-88977490D01*
X167917376Y-88882253D01*
X167924382Y-88863944D01*
X167927148Y-88825024D01*
X167914809Y-88788008D01*
X167889244Y-88758531D01*
X167854346Y-88741082D01*
X167815426Y-88738317D01*
X167778410Y-88750655D01*
X167748933Y-88776220D01*
X167738490Y-88792810D01*
X167698129Y-88873532D01*
X167621365Y-88950296D01*
X167486749Y-89040040D01*
X167486694Y-89040084D01*
X167486662Y-89040098D01*
X167486588Y-89040171D01*
X167471582Y-89052460D01*
X167466071Y-89060688D01*
X167459072Y-89067688D01*
X167455322Y-89076739D01*
X167449871Y-89084880D01*
X167447929Y-89094587D01*
X167444140Y-89103736D01*
X167444140Y-89113535D01*
X167442219Y-89123140D01*
X167331108Y-89123140D01*
X167331108Y-87579926D01*
X167444140Y-87579926D01*
X167444140Y-87618944D01*
X167459072Y-87654992D01*
X167486662Y-87682582D01*
X167522710Y-87697514D01*
X167542219Y-87699435D01*
X168375754Y-87699435D01*
X168420064Y-87721589D01*
X168452776Y-87787013D01*
X168463219Y-87803603D01*
X168492696Y-87829168D01*
X168529712Y-87841506D01*
X168568632Y-87838741D01*
X168603530Y-87821292D01*
X168629095Y-87791815D01*
X168641434Y-87754799D01*
X168638668Y-87715879D01*
X168631662Y-87697570D01*
X168584043Y-87602333D01*
X168581989Y-87599070D01*
X168581476Y-87597530D01*
X168579812Y-87595612D01*
X168573600Y-87585742D01*
X168564125Y-87577525D01*
X168555911Y-87568054D01*
X168546039Y-87561840D01*
X168544123Y-87560178D01*
X168542584Y-87559664D01*
X168539321Y-87557611D01*
X168444082Y-87509992D01*
X168425773Y-87502986D01*
X168422190Y-87502731D01*
X168418870Y-87501356D01*
X168399361Y-87499435D01*
X167542219Y-87499435D01*
X167522710Y-87501356D01*
X167486662Y-87516288D01*
X167459072Y-87543878D01*
X167444140Y-87579926D01*
X167331108Y-87579926D01*
X167331108Y-86837530D01*
X167775552Y-86837530D01*
X167775552Y-86980387D01*
X167777473Y-86999896D01*
X167778848Y-87003216D01*
X167779103Y-87006800D01*
X167786109Y-87025108D01*
X167833728Y-87120346D01*
X167839013Y-87128742D01*
X167840024Y-87131182D01*
X167842277Y-87133928D01*
X167844171Y-87136936D01*
X167846165Y-87138665D01*
X167852460Y-87146336D01*
X167900079Y-87193954D01*
X167907745Y-87200246D01*
X167909478Y-87202244D01*
X167912486Y-87204137D01*
X167915232Y-87206391D01*
X167917672Y-87207401D01*
X167926069Y-87212687D01*
X168021306Y-87260306D01*
X168039615Y-87267312D01*
X168043198Y-87267566D01*
X168046519Y-87268942D01*
X168066028Y-87270863D01*
X168351742Y-87270863D01*
X168371251Y-87268942D01*
X168374571Y-87267566D01*
X168378155Y-87267312D01*
X168396463Y-87260306D01*
X168491701Y-87212687D01*
X168500093Y-87207403D01*
X168502537Y-87206392D01*
X168505286Y-87204135D01*
X168508291Y-87202244D01*
X168510020Y-87200249D01*
X168517690Y-87193955D01*
X168565310Y-87146337D01*
X168571603Y-87138668D01*
X168573600Y-87136937D01*
X168575493Y-87133928D01*
X168577747Y-87131183D01*
X168578757Y-87128742D01*
X168584043Y-87120346D01*
X168631662Y-87025109D01*
X168638668Y-87006800D01*
X168638922Y-87003216D01*
X168640298Y-86999896D01*
X168642219Y-86980387D01*
X168642219Y-86837530D01*
X168640298Y-86818021D01*
X168638922Y-86814700D01*
X168638668Y-86811117D01*
X168631662Y-86792808D01*
X168584043Y-86697571D01*
X168578757Y-86689174D01*
X168577747Y-86686734D01*
X168575493Y-86683988D01*
X168573600Y-86680980D01*
X168571603Y-86679248D01*
X168565310Y-86671580D01*
X168517690Y-86623962D01*
X168510020Y-86617667D01*
X168508291Y-86615673D01*
X168505286Y-86613781D01*
X168502537Y-86611525D01*
X168500093Y-86610513D01*
X168491701Y-86605230D01*
X168396463Y-86557611D01*
X168378155Y-86550605D01*
X168374571Y-86550350D01*
X168371251Y-86548975D01*
X168351742Y-86547054D01*
X168066028Y-86547054D01*
X168046519Y-86548975D01*
X168043198Y-86550350D01*
X168039615Y-86550605D01*
X168021306Y-86557611D01*
X167926069Y-86605230D01*
X167917672Y-86610515D01*
X167915232Y-86611526D01*
X167912486Y-86613779D01*
X167909478Y-86615673D01*
X167907745Y-86617670D01*
X167900079Y-86623963D01*
X167852460Y-86671581D01*
X167846165Y-86679251D01*
X167844171Y-86680981D01*
X167842277Y-86683988D01*
X167840024Y-86686735D01*
X167839013Y-86689174D01*
X167833728Y-86697571D01*
X167786109Y-86792809D01*
X167779103Y-86811117D01*
X167778848Y-86814700D01*
X167777473Y-86818021D01*
X167775552Y-86837530D01*
X167331108Y-86837530D01*
X167331108Y-85980387D01*
X167442219Y-85980387D01*
X167442219Y-86075625D01*
X167443191Y-86085498D01*
X167443004Y-86088132D01*
X167443791Y-86091595D01*
X167444140Y-86095134D01*
X167445151Y-86097576D01*
X167447351Y-86107248D01*
X167494970Y-86250104D01*
X167502961Y-86268005D01*
X167505316Y-86270720D01*
X167506691Y-86274039D01*
X167519127Y-86289193D01*
X167566746Y-86336811D01*
X167581899Y-86349248D01*
X167617948Y-86364179D01*
X167656966Y-86364179D01*
X167693014Y-86349248D01*
X167720604Y-86321658D01*
X167735535Y-86285610D01*
X167735535Y-86246592D01*
X167720604Y-86210543D01*
X167708167Y-86195390D01*
X167677240Y-86164463D01*
X167642219Y-86059398D01*
X167642219Y-85996614D01*
X167677240Y-85891549D01*
X167744313Y-85824477D01*
X167815218Y-85789024D01*
X167983099Y-85747054D01*
X168101337Y-85747054D01*
X168269218Y-85789024D01*
X168340127Y-85824478D01*
X168407197Y-85891548D01*
X168442219Y-85996613D01*
X168442219Y-86059398D01*
X168407197Y-86164463D01*
X168376270Y-86195390D01*
X168363833Y-86210543D01*
X168348902Y-86246591D01*
X168348901Y-86285609D01*
X168363832Y-86321658D01*
X168391422Y-86349248D01*
X168427470Y-86364179D01*
X168466488Y-86364180D01*
X168502537Y-86349249D01*
X168517690Y-86336812D01*
X168565310Y-86289194D01*
X168577747Y-86274040D01*
X168579122Y-86270720D01*
X168581477Y-86268005D01*
X168589468Y-86250105D01*
X168637087Y-86107248D01*
X168639286Y-86097575D01*
X168640298Y-86095134D01*
X168640646Y-86091596D01*
X168641434Y-86088133D01*
X168641246Y-86085498D01*
X168642219Y-86075625D01*
X168642219Y-85980387D01*
X168641246Y-85970513D01*
X168641434Y-85967879D01*
X168640646Y-85964415D01*
X168640298Y-85960878D01*
X168639286Y-85958436D01*
X168637087Y-85948764D01*
X168589468Y-85805907D01*
X168581477Y-85788007D01*
X168579122Y-85785291D01*
X168577747Y-85781972D01*
X168565311Y-85766819D01*
X168470071Y-85671581D01*
X168462401Y-85665286D01*
X168460672Y-85663292D01*
X168457667Y-85661400D01*
X168454918Y-85659144D01*
X168452474Y-85658131D01*
X168444082Y-85652849D01*
X168348844Y-85605230D01*
X168347417Y-85604684D01*
X168346837Y-85604254D01*
X168338660Y-85601332D01*
X168330536Y-85598224D01*
X168329813Y-85598172D01*
X168328376Y-85597659D01*
X168137901Y-85550040D01*
X168134519Y-85549539D01*
X168133156Y-85548975D01*
X168125805Y-85548251D01*
X168118508Y-85547172D01*
X168117049Y-85547389D01*
X168113647Y-85547054D01*
X167970790Y-85547054D01*
X167967387Y-85547389D01*
X167965929Y-85547172D01*
X167958631Y-85548251D01*
X167951281Y-85548975D01*
X167949917Y-85549539D01*
X167946536Y-85550040D01*
X167756060Y-85597659D01*
X167754621Y-85598172D01*
X167753901Y-85598224D01*
X167745776Y-85601332D01*
X167737600Y-85604254D01*
X167737020Y-85604683D01*
X167735592Y-85605230D01*
X167640355Y-85652849D01*
X167631956Y-85658135D01*
X167629519Y-85659145D01*
X167626775Y-85661396D01*
X167623764Y-85663292D01*
X167622031Y-85665289D01*
X167614365Y-85671581D01*
X167519127Y-85766819D01*
X167506691Y-85781973D01*
X167505316Y-85785291D01*
X167502961Y-85788007D01*
X167494970Y-85805908D01*
X167447351Y-85948764D01*
X167445151Y-85958435D01*
X167444140Y-85960878D01*
X167443791Y-85964416D01*
X167443004Y-85967880D01*
X167443191Y-85970513D01*
X167442219Y-85980387D01*
X167331108Y-85980387D01*
X167331108Y-85435943D01*
X168753330Y-85435943D01*
X168753330Y-90572451D01*
G37*
G36*
X142912746Y-86776860D02*
G01*
X142937414Y-86801527D01*
X142967219Y-86861137D01*
X142967219Y-86956780D01*
X142937414Y-87016389D01*
X142912746Y-87041056D01*
X142853135Y-87070863D01*
X142614635Y-87070863D01*
X142555025Y-87041058D01*
X142530357Y-87016389D01*
X142500552Y-86956779D01*
X142500552Y-86861137D01*
X142530357Y-86801527D01*
X142555025Y-86776858D01*
X142614635Y-86747054D01*
X142853135Y-86747054D01*
X142912746Y-86776860D01*
G37*
G36*
X143278330Y-89665768D02*
G01*
X141809274Y-89665768D01*
X141809274Y-89088133D01*
X141920385Y-89088133D01*
X141932723Y-89125149D01*
X141958288Y-89154625D01*
X141993187Y-89172075D01*
X142032107Y-89174841D01*
X142051223Y-89170494D01*
X142633885Y-88976273D01*
X142633885Y-89213721D01*
X142400552Y-89213721D01*
X142381043Y-89215642D01*
X142344995Y-89230574D01*
X142317405Y-89258164D01*
X142302473Y-89294212D01*
X142302473Y-89333230D01*
X142317405Y-89369278D01*
X142344995Y-89396868D01*
X142381043Y-89411800D01*
X142400552Y-89413721D01*
X142633885Y-89413721D01*
X142633885Y-89456578D01*
X142635806Y-89476087D01*
X142650738Y-89512135D01*
X142678328Y-89539725D01*
X142714376Y-89554657D01*
X142753394Y-89554657D01*
X142789442Y-89539725D01*
X142817032Y-89512135D01*
X142831964Y-89476087D01*
X142833885Y-89456578D01*
X142833885Y-89413721D01*
X143067219Y-89413721D01*
X143086728Y-89411800D01*
X143122776Y-89396868D01*
X143150366Y-89369278D01*
X143165298Y-89333230D01*
X143165298Y-89294212D01*
X143150366Y-89258164D01*
X143122776Y-89230574D01*
X143086728Y-89215642D01*
X143067219Y-89213721D01*
X142833885Y-89213721D01*
X142833885Y-88837531D01*
X142832912Y-88827657D01*
X142833100Y-88825024D01*
X142832466Y-88823122D01*
X142831964Y-88818022D01*
X142825828Y-88803209D01*
X142820761Y-88788008D01*
X142818407Y-88785294D01*
X142817032Y-88781974D01*
X142805693Y-88770635D01*
X142795196Y-88758532D01*
X142791983Y-88756925D01*
X142789442Y-88754384D01*
X142774627Y-88748247D01*
X142760297Y-88741082D01*
X142756714Y-88740827D01*
X142753394Y-88739452D01*
X142737361Y-88739452D01*
X142721377Y-88738316D01*
X142716382Y-88739452D01*
X142714376Y-88739452D01*
X142711934Y-88740463D01*
X142702262Y-88742663D01*
X141987977Y-88980758D01*
X141970077Y-88988749D01*
X141940601Y-89014314D01*
X141923151Y-89049213D01*
X141920385Y-89088133D01*
X141809274Y-89088133D01*
X141809274Y-87579926D01*
X141969140Y-87579926D01*
X141969140Y-87618944D01*
X141984072Y-87654992D01*
X142011662Y-87682582D01*
X142047710Y-87697514D01*
X142067219Y-87699435D01*
X142900754Y-87699435D01*
X142945064Y-87721589D01*
X142977776Y-87787013D01*
X142988219Y-87803603D01*
X143017696Y-87829168D01*
X143054712Y-87841506D01*
X143093632Y-87838741D01*
X143128530Y-87821292D01*
X143154095Y-87791815D01*
X143166434Y-87754799D01*
X143163668Y-87715879D01*
X143156662Y-87697570D01*
X143109043Y-87602333D01*
X143106989Y-87599070D01*
X143106476Y-87597530D01*
X143104812Y-87595612D01*
X143098600Y-87585742D01*
X143089125Y-87577525D01*
X143080911Y-87568054D01*
X143071039Y-87561840D01*
X143069123Y-87560178D01*
X143067584Y-87559664D01*
X143064321Y-87557611D01*
X142969082Y-87509992D01*
X142950773Y-87502986D01*
X142947190Y-87502731D01*
X142943870Y-87501356D01*
X142924361Y-87499435D01*
X142067219Y-87499435D01*
X142047710Y-87501356D01*
X142011662Y-87516288D01*
X141984072Y-87543878D01*
X141969140Y-87579926D01*
X141809274Y-87579926D01*
X141809274Y-86837530D01*
X142300552Y-86837530D01*
X142300552Y-86980387D01*
X142302473Y-86999896D01*
X142303848Y-87003216D01*
X142304103Y-87006800D01*
X142311109Y-87025108D01*
X142358728Y-87120346D01*
X142364013Y-87128742D01*
X142365024Y-87131182D01*
X142367277Y-87133928D01*
X142369171Y-87136936D01*
X142371165Y-87138665D01*
X142377460Y-87146336D01*
X142425079Y-87193954D01*
X142432745Y-87200246D01*
X142434478Y-87202244D01*
X142437486Y-87204137D01*
X142440232Y-87206391D01*
X142442672Y-87207401D01*
X142451069Y-87212687D01*
X142546306Y-87260306D01*
X142564615Y-87267312D01*
X142568198Y-87267566D01*
X142571519Y-87268942D01*
X142591028Y-87270863D01*
X142876742Y-87270863D01*
X142896251Y-87268942D01*
X142899571Y-87267566D01*
X142903155Y-87267312D01*
X142921463Y-87260306D01*
X143016701Y-87212687D01*
X143025093Y-87207403D01*
X143027537Y-87206392D01*
X143030286Y-87204135D01*
X143033291Y-87202244D01*
X143035020Y-87200249D01*
X143042690Y-87193955D01*
X143090310Y-87146337D01*
X143096603Y-87138668D01*
X143098600Y-87136937D01*
X143100493Y-87133928D01*
X143102747Y-87131183D01*
X143103757Y-87128742D01*
X143109043Y-87120346D01*
X143156662Y-87025109D01*
X143163668Y-87006800D01*
X143163922Y-87003216D01*
X143165298Y-86999896D01*
X143167219Y-86980387D01*
X143167219Y-86837530D01*
X143165298Y-86818021D01*
X143163922Y-86814700D01*
X143163668Y-86811117D01*
X143156662Y-86792808D01*
X143109043Y-86697571D01*
X143103757Y-86689174D01*
X143102747Y-86686734D01*
X143100493Y-86683988D01*
X143098600Y-86680980D01*
X143096603Y-86679248D01*
X143090310Y-86671580D01*
X143042690Y-86623962D01*
X143035020Y-86617667D01*
X143033291Y-86615673D01*
X143030286Y-86613781D01*
X143027537Y-86611525D01*
X143025093Y-86610513D01*
X143016701Y-86605230D01*
X142921463Y-86557611D01*
X142903155Y-86550605D01*
X142899571Y-86550350D01*
X142896251Y-86548975D01*
X142876742Y-86547054D01*
X142591028Y-86547054D01*
X142571519Y-86548975D01*
X142568198Y-86550350D01*
X142564615Y-86550605D01*
X142546306Y-86557611D01*
X142451069Y-86605230D01*
X142442672Y-86610515D01*
X142440232Y-86611526D01*
X142437486Y-86613779D01*
X142434478Y-86615673D01*
X142432745Y-86617670D01*
X142425079Y-86623963D01*
X142377460Y-86671581D01*
X142371165Y-86679251D01*
X142369171Y-86680981D01*
X142367277Y-86683988D01*
X142365024Y-86686735D01*
X142364013Y-86689174D01*
X142358728Y-86697571D01*
X142311109Y-86792809D01*
X142304103Y-86811117D01*
X142303848Y-86814700D01*
X142302473Y-86818021D01*
X142300552Y-86837530D01*
X141809274Y-86837530D01*
X141809274Y-85980387D01*
X141967219Y-85980387D01*
X141967219Y-86075625D01*
X141968191Y-86085498D01*
X141968004Y-86088132D01*
X141968791Y-86091595D01*
X141969140Y-86095134D01*
X141970151Y-86097576D01*
X141972351Y-86107248D01*
X142019970Y-86250104D01*
X142027961Y-86268005D01*
X142030316Y-86270720D01*
X142031691Y-86274039D01*
X142044127Y-86289193D01*
X142091746Y-86336811D01*
X142106899Y-86349248D01*
X142142948Y-86364179D01*
X142181966Y-86364179D01*
X142218014Y-86349248D01*
X142245604Y-86321658D01*
X142260535Y-86285610D01*
X142260535Y-86246592D01*
X142245604Y-86210543D01*
X142233167Y-86195390D01*
X142202240Y-86164463D01*
X142167219Y-86059398D01*
X142167219Y-85996614D01*
X142202240Y-85891549D01*
X142269313Y-85824477D01*
X142340218Y-85789024D01*
X142508099Y-85747054D01*
X142626337Y-85747054D01*
X142794218Y-85789024D01*
X142865127Y-85824478D01*
X142932197Y-85891548D01*
X142967219Y-85996613D01*
X142967219Y-86059398D01*
X142932197Y-86164463D01*
X142901270Y-86195390D01*
X142888833Y-86210543D01*
X142873902Y-86246591D01*
X142873901Y-86285609D01*
X142888832Y-86321658D01*
X142916422Y-86349248D01*
X142952470Y-86364179D01*
X142991488Y-86364180D01*
X143027537Y-86349249D01*
X143042690Y-86336812D01*
X143090310Y-86289194D01*
X143102747Y-86274040D01*
X143104122Y-86270720D01*
X143106477Y-86268005D01*
X143114468Y-86250105D01*
X143162087Y-86107248D01*
X143164286Y-86097575D01*
X143165298Y-86095134D01*
X143165646Y-86091596D01*
X143166434Y-86088133D01*
X143166246Y-86085498D01*
X143167219Y-86075625D01*
X143167219Y-85980387D01*
X143166246Y-85970513D01*
X143166434Y-85967879D01*
X143165646Y-85964415D01*
X143165298Y-85960878D01*
X143164286Y-85958436D01*
X143162087Y-85948764D01*
X143114468Y-85805907D01*
X143106477Y-85788007D01*
X143104122Y-85785291D01*
X143102747Y-85781972D01*
X143090311Y-85766819D01*
X142995071Y-85671581D01*
X142987401Y-85665286D01*
X142985672Y-85663292D01*
X142982667Y-85661400D01*
X142979918Y-85659144D01*
X142977474Y-85658131D01*
X142969082Y-85652849D01*
X142873844Y-85605230D01*
X142872417Y-85604684D01*
X142871837Y-85604254D01*
X142863660Y-85601332D01*
X142855536Y-85598224D01*
X142854813Y-85598172D01*
X142853376Y-85597659D01*
X142662901Y-85550040D01*
X142659519Y-85549539D01*
X142658156Y-85548975D01*
X142650805Y-85548251D01*
X142643508Y-85547172D01*
X142642049Y-85547389D01*
X142638647Y-85547054D01*
X142495790Y-85547054D01*
X142492387Y-85547389D01*
X142490929Y-85547172D01*
X142483631Y-85548251D01*
X142476281Y-85548975D01*
X142474917Y-85549539D01*
X142471536Y-85550040D01*
X142281060Y-85597659D01*
X142279621Y-85598172D01*
X142278901Y-85598224D01*
X142270776Y-85601332D01*
X142262600Y-85604254D01*
X142262020Y-85604683D01*
X142260592Y-85605230D01*
X142165355Y-85652849D01*
X142156956Y-85658135D01*
X142154519Y-85659145D01*
X142151775Y-85661396D01*
X142148764Y-85663292D01*
X142147031Y-85665289D01*
X142139365Y-85671581D01*
X142044127Y-85766819D01*
X142031691Y-85781973D01*
X142030316Y-85785291D01*
X142027961Y-85788007D01*
X142019970Y-85805908D01*
X141972351Y-85948764D01*
X141970151Y-85958435D01*
X141969140Y-85960878D01*
X141968791Y-85964416D01*
X141968004Y-85967880D01*
X141968191Y-85970513D01*
X141967219Y-85980387D01*
X141809274Y-85980387D01*
X141809274Y-85435943D01*
X143278330Y-85435943D01*
X143278330Y-89665768D01*
G37*
G36*
X147887746Y-86776860D02*
G01*
X147912414Y-86801527D01*
X147942219Y-86861137D01*
X147942219Y-86956780D01*
X147912414Y-87016389D01*
X147887746Y-87041056D01*
X147828135Y-87070863D01*
X147589635Y-87070863D01*
X147530025Y-87041058D01*
X147505357Y-87016389D01*
X147475552Y-86956779D01*
X147475552Y-86861137D01*
X147505357Y-86801527D01*
X147530025Y-86776858D01*
X147589635Y-86747054D01*
X147828135Y-86747054D01*
X147887746Y-86776860D01*
G37*
G36*
X148253330Y-89620070D02*
G01*
X146831108Y-89620070D01*
X146831108Y-88885150D01*
X146942219Y-88885150D01*
X146942219Y-89361340D01*
X146944140Y-89380849D01*
X146959072Y-89416897D01*
X146986662Y-89444487D01*
X147022710Y-89459419D01*
X147061728Y-89459419D01*
X147097776Y-89444487D01*
X147125366Y-89416897D01*
X147140298Y-89380849D01*
X147142219Y-89361340D01*
X147142219Y-88975649D01*
X147326491Y-88957221D01*
X147326467Y-88957558D01*
X147325092Y-88960879D01*
X147323171Y-88980388D01*
X147323171Y-89218483D01*
X147325092Y-89237992D01*
X147326467Y-89241312D01*
X147326722Y-89244896D01*
X147333728Y-89263204D01*
X147381347Y-89358442D01*
X147386632Y-89366838D01*
X147387643Y-89369278D01*
X147389896Y-89372024D01*
X147391790Y-89375032D01*
X147393784Y-89376761D01*
X147400079Y-89384432D01*
X147447698Y-89432050D01*
X147455364Y-89438342D01*
X147457097Y-89440340D01*
X147460105Y-89442233D01*
X147462851Y-89444487D01*
X147465291Y-89445497D01*
X147473688Y-89450783D01*
X147568925Y-89498402D01*
X147587234Y-89505408D01*
X147590817Y-89505662D01*
X147594138Y-89507038D01*
X147613647Y-89508959D01*
X147851742Y-89508959D01*
X147871251Y-89507038D01*
X147874571Y-89505662D01*
X147878155Y-89505408D01*
X147896463Y-89498402D01*
X147991701Y-89450783D01*
X148000093Y-89445499D01*
X148002537Y-89444488D01*
X148005286Y-89442231D01*
X148008291Y-89440340D01*
X148010020Y-89438345D01*
X148017690Y-89432051D01*
X148065310Y-89384433D01*
X148071603Y-89376764D01*
X148073600Y-89375033D01*
X148075493Y-89372024D01*
X148077747Y-89369279D01*
X148078757Y-89366838D01*
X148084043Y-89358442D01*
X148131662Y-89263205D01*
X148138668Y-89244896D01*
X148138922Y-89241312D01*
X148140298Y-89237992D01*
X148142219Y-89218483D01*
X148142219Y-88980388D01*
X148140298Y-88960879D01*
X148138922Y-88957558D01*
X148138668Y-88953975D01*
X148131662Y-88935666D01*
X148084043Y-88840429D01*
X148078757Y-88832032D01*
X148077747Y-88829592D01*
X148075493Y-88826846D01*
X148073600Y-88823838D01*
X148071603Y-88822106D01*
X148065310Y-88814438D01*
X148017690Y-88766820D01*
X148002537Y-88754383D01*
X147966488Y-88739452D01*
X147927470Y-88739453D01*
X147891422Y-88754384D01*
X147863832Y-88781974D01*
X147848901Y-88818023D01*
X147848902Y-88857041D01*
X147863833Y-88893089D01*
X147876270Y-88908242D01*
X147912414Y-88944385D01*
X147942219Y-89003995D01*
X147942219Y-89194876D01*
X147912414Y-89254485D01*
X147887746Y-89279152D01*
X147828135Y-89308959D01*
X147637254Y-89308959D01*
X147577644Y-89279154D01*
X147552976Y-89254485D01*
X147523171Y-89194875D01*
X147523171Y-89003995D01*
X147552976Y-88944385D01*
X147589119Y-88908242D01*
X147601556Y-88893089D01*
X147603483Y-88888434D01*
X147606671Y-88884539D01*
X147610893Y-88870545D01*
X147616487Y-88857040D01*
X147616487Y-88852006D01*
X147617942Y-88847184D01*
X147616487Y-88832632D01*
X147616487Y-88818022D01*
X147614561Y-88813372D01*
X147614060Y-88808360D01*
X147607148Y-88795476D01*
X147601556Y-88781974D01*
X147597995Y-88778413D01*
X147595615Y-88773976D01*
X147584302Y-88764720D01*
X147573966Y-88754384D01*
X147569313Y-88752456D01*
X147565417Y-88749269D01*
X147551422Y-88745046D01*
X147537918Y-88739453D01*
X147532884Y-88739453D01*
X147528062Y-88737998D01*
X147508459Y-88738027D01*
X147032269Y-88785646D01*
X147025160Y-88787071D01*
X147022710Y-88787071D01*
X147020412Y-88788022D01*
X147013048Y-88789499D01*
X147000167Y-88796408D01*
X146986662Y-88802003D01*
X146983101Y-88805563D01*
X146978664Y-88807944D01*
X146969408Y-88819256D01*
X146959072Y-88829593D01*
X146957144Y-88834245D01*
X146953957Y-88838142D01*
X146949736Y-88852131D01*
X146944140Y-88865641D01*
X146943403Y-88873118D01*
X146942686Y-88875497D01*
X146942929Y-88877933D01*
X146942219Y-88885150D01*
X146831108Y-88885150D01*
X146831108Y-87579926D01*
X146944140Y-87579926D01*
X146944140Y-87618944D01*
X146959072Y-87654992D01*
X146986662Y-87682582D01*
X147022710Y-87697514D01*
X147042219Y-87699435D01*
X147875754Y-87699435D01*
X147920064Y-87721589D01*
X147952776Y-87787013D01*
X147963219Y-87803603D01*
X147992696Y-87829168D01*
X148029712Y-87841506D01*
X148068632Y-87838741D01*
X148103530Y-87821292D01*
X148129095Y-87791815D01*
X148141434Y-87754799D01*
X148138668Y-87715879D01*
X148131662Y-87697570D01*
X148084043Y-87602333D01*
X148081989Y-87599070D01*
X148081476Y-87597530D01*
X148079812Y-87595612D01*
X148073600Y-87585742D01*
X148064125Y-87577525D01*
X148055911Y-87568054D01*
X148046039Y-87561840D01*
X148044123Y-87560178D01*
X148042584Y-87559664D01*
X148039321Y-87557611D01*
X147944082Y-87509992D01*
X147925773Y-87502986D01*
X147922190Y-87502731D01*
X147918870Y-87501356D01*
X147899361Y-87499435D01*
X147042219Y-87499435D01*
X147022710Y-87501356D01*
X146986662Y-87516288D01*
X146959072Y-87543878D01*
X146944140Y-87579926D01*
X146831108Y-87579926D01*
X146831108Y-86837530D01*
X147275552Y-86837530D01*
X147275552Y-86980387D01*
X147277473Y-86999896D01*
X147278848Y-87003216D01*
X147279103Y-87006800D01*
X147286109Y-87025108D01*
X147333728Y-87120346D01*
X147339013Y-87128742D01*
X147340024Y-87131182D01*
X147342277Y-87133928D01*
X147344171Y-87136936D01*
X147346165Y-87138665D01*
X147352460Y-87146336D01*
X147400079Y-87193954D01*
X147407745Y-87200246D01*
X147409478Y-87202244D01*
X147412486Y-87204137D01*
X147415232Y-87206391D01*
X147417672Y-87207401D01*
X147426069Y-87212687D01*
X147521306Y-87260306D01*
X147539615Y-87267312D01*
X147543198Y-87267566D01*
X147546519Y-87268942D01*
X147566028Y-87270863D01*
X147851742Y-87270863D01*
X147871251Y-87268942D01*
X147874571Y-87267566D01*
X147878155Y-87267312D01*
X147896463Y-87260306D01*
X147991701Y-87212687D01*
X148000093Y-87207403D01*
X148002537Y-87206392D01*
X148005286Y-87204135D01*
X148008291Y-87202244D01*
X148010020Y-87200249D01*
X148017690Y-87193955D01*
X148065310Y-87146337D01*
X148071603Y-87138668D01*
X148073600Y-87136937D01*
X148075493Y-87133928D01*
X148077747Y-87131183D01*
X148078757Y-87128742D01*
X148084043Y-87120346D01*
X148131662Y-87025109D01*
X148138668Y-87006800D01*
X148138922Y-87003216D01*
X148140298Y-86999896D01*
X148142219Y-86980387D01*
X148142219Y-86837530D01*
X148140298Y-86818021D01*
X148138922Y-86814700D01*
X148138668Y-86811117D01*
X148131662Y-86792808D01*
X148084043Y-86697571D01*
X148078757Y-86689174D01*
X148077747Y-86686734D01*
X148075493Y-86683988D01*
X148073600Y-86680980D01*
X148071603Y-86679248D01*
X148065310Y-86671580D01*
X148017690Y-86623962D01*
X148010020Y-86617667D01*
X148008291Y-86615673D01*
X148005286Y-86613781D01*
X148002537Y-86611525D01*
X148000093Y-86610513D01*
X147991701Y-86605230D01*
X147896463Y-86557611D01*
X147878155Y-86550605D01*
X147874571Y-86550350D01*
X147871251Y-86548975D01*
X147851742Y-86547054D01*
X147566028Y-86547054D01*
X147546519Y-86548975D01*
X147543198Y-86550350D01*
X147539615Y-86550605D01*
X147521306Y-86557611D01*
X147426069Y-86605230D01*
X147417672Y-86610515D01*
X147415232Y-86611526D01*
X147412486Y-86613779D01*
X147409478Y-86615673D01*
X147407745Y-86617670D01*
X147400079Y-86623963D01*
X147352460Y-86671581D01*
X147346165Y-86679251D01*
X147344171Y-86680981D01*
X147342277Y-86683988D01*
X147340024Y-86686735D01*
X147339013Y-86689174D01*
X147333728Y-86697571D01*
X147286109Y-86792809D01*
X147279103Y-86811117D01*
X147278848Y-86814700D01*
X147277473Y-86818021D01*
X147275552Y-86837530D01*
X146831108Y-86837530D01*
X146831108Y-85980387D01*
X146942219Y-85980387D01*
X146942219Y-86075625D01*
X146943191Y-86085498D01*
X146943004Y-86088132D01*
X146943791Y-86091595D01*
X146944140Y-86095134D01*
X146945151Y-86097576D01*
X146947351Y-86107248D01*
X146994970Y-86250104D01*
X147002961Y-86268005D01*
X147005316Y-86270720D01*
X147006691Y-86274039D01*
X147019127Y-86289193D01*
X147066746Y-86336811D01*
X147081899Y-86349248D01*
X147117948Y-86364179D01*
X147156966Y-86364179D01*
X147193014Y-86349248D01*
X147220604Y-86321658D01*
X147235535Y-86285610D01*
X147235535Y-86246592D01*
X147220604Y-86210543D01*
X147208167Y-86195390D01*
X147177240Y-86164463D01*
X147142219Y-86059398D01*
X147142219Y-85996614D01*
X147177240Y-85891549D01*
X147244313Y-85824477D01*
X147315218Y-85789024D01*
X147483099Y-85747054D01*
X147601337Y-85747054D01*
X147769218Y-85789024D01*
X147840127Y-85824478D01*
X147907197Y-85891548D01*
X147942219Y-85996613D01*
X147942219Y-86059398D01*
X147907197Y-86164463D01*
X147876270Y-86195390D01*
X147863833Y-86210543D01*
X147848902Y-86246591D01*
X147848901Y-86285609D01*
X147863832Y-86321658D01*
X147891422Y-86349248D01*
X147927470Y-86364179D01*
X147966488Y-86364180D01*
X148002537Y-86349249D01*
X148017690Y-86336812D01*
X148065310Y-86289194D01*
X148077747Y-86274040D01*
X148079122Y-86270720D01*
X148081477Y-86268005D01*
X148089468Y-86250105D01*
X148137087Y-86107248D01*
X148139286Y-86097575D01*
X148140298Y-86095134D01*
X148140646Y-86091596D01*
X148141434Y-86088133D01*
X148141246Y-86085498D01*
X148142219Y-86075625D01*
X148142219Y-85980387D01*
X148141246Y-85970513D01*
X148141434Y-85967879D01*
X148140646Y-85964415D01*
X148140298Y-85960878D01*
X148139286Y-85958436D01*
X148137087Y-85948764D01*
X148089468Y-85805907D01*
X148081477Y-85788007D01*
X148079122Y-85785291D01*
X148077747Y-85781972D01*
X148065311Y-85766819D01*
X147970071Y-85671581D01*
X147962401Y-85665286D01*
X147960672Y-85663292D01*
X147957667Y-85661400D01*
X147954918Y-85659144D01*
X147952474Y-85658131D01*
X147944082Y-85652849D01*
X147848844Y-85605230D01*
X147847417Y-85604684D01*
X147846837Y-85604254D01*
X147838660Y-85601332D01*
X147830536Y-85598224D01*
X147829813Y-85598172D01*
X147828376Y-85597659D01*
X147637901Y-85550040D01*
X147634519Y-85549539D01*
X147633156Y-85548975D01*
X147625805Y-85548251D01*
X147618508Y-85547172D01*
X147617049Y-85547389D01*
X147613647Y-85547054D01*
X147470790Y-85547054D01*
X147467387Y-85547389D01*
X147465929Y-85547172D01*
X147458631Y-85548251D01*
X147451281Y-85548975D01*
X147449917Y-85549539D01*
X147446536Y-85550040D01*
X147256060Y-85597659D01*
X147254621Y-85598172D01*
X147253901Y-85598224D01*
X147245776Y-85601332D01*
X147237600Y-85604254D01*
X147237020Y-85604683D01*
X147235592Y-85605230D01*
X147140355Y-85652849D01*
X147131956Y-85658135D01*
X147129519Y-85659145D01*
X147126775Y-85661396D01*
X147123764Y-85663292D01*
X147122031Y-85665289D01*
X147114365Y-85671581D01*
X147019127Y-85766819D01*
X147006691Y-85781973D01*
X147005316Y-85785291D01*
X147002961Y-85788007D01*
X146994970Y-85805908D01*
X146947351Y-85948764D01*
X146945151Y-85958435D01*
X146944140Y-85960878D01*
X146943791Y-85964416D01*
X146943004Y-85967880D01*
X146943191Y-85970513D01*
X146942219Y-85980387D01*
X146831108Y-85980387D01*
X146831108Y-85435943D01*
X148253330Y-85435943D01*
X148253330Y-89620070D01*
G37*
X132842219Y-86141101D02*
X132366028Y-85807768D01*
X132842219Y-85569673D02*
X131842219Y-85569673D01*
X131842219Y-85569673D02*
X131842219Y-85950625D01*
X131842219Y-85950625D02*
X131889838Y-86045863D01*
X131889838Y-86045863D02*
X131937457Y-86093482D01*
X131937457Y-86093482D02*
X132032695Y-86141101D01*
X132032695Y-86141101D02*
X132175552Y-86141101D01*
X132175552Y-86141101D02*
X132270790Y-86093482D01*
X132270790Y-86093482D02*
X132318409Y-86045863D01*
X132318409Y-86045863D02*
X132366028Y-85950625D01*
X132366028Y-85950625D02*
X132366028Y-85569673D01*
X132842219Y-86712530D02*
X132794600Y-86617292D01*
X132794600Y-86617292D02*
X132746980Y-86569673D01*
X132746980Y-86569673D02*
X132651742Y-86522054D01*
X132651742Y-86522054D02*
X132366028Y-86522054D01*
X132366028Y-86522054D02*
X132270790Y-86569673D01*
X132270790Y-86569673D02*
X132223171Y-86617292D01*
X132223171Y-86617292D02*
X132175552Y-86712530D01*
X132175552Y-86712530D02*
X132175552Y-86855387D01*
X132175552Y-86855387D02*
X132223171Y-86950625D01*
X132223171Y-86950625D02*
X132270790Y-86998244D01*
X132270790Y-86998244D02*
X132366028Y-87045863D01*
X132366028Y-87045863D02*
X132651742Y-87045863D01*
X132651742Y-87045863D02*
X132746980Y-86998244D01*
X132746980Y-86998244D02*
X132794600Y-86950625D01*
X132794600Y-86950625D02*
X132842219Y-86855387D01*
X132842219Y-86855387D02*
X132842219Y-86712530D01*
X132175552Y-87379197D02*
X132842219Y-87569673D01*
X132842219Y-87569673D02*
X132366028Y-87760149D01*
X132366028Y-87760149D02*
X132842219Y-87950625D01*
X132842219Y-87950625D02*
X132175552Y-88141101D01*
X131937457Y-89236340D02*
X131889838Y-89283959D01*
X131889838Y-89283959D02*
X131842219Y-89379197D01*
X131842219Y-89379197D02*
X131842219Y-89617292D01*
X131842219Y-89617292D02*
X131889838Y-89712530D01*
X131889838Y-89712530D02*
X131937457Y-89760149D01*
X131937457Y-89760149D02*
X132032695Y-89807768D01*
X132032695Y-89807768D02*
X132127933Y-89807768D01*
X132127933Y-89807768D02*
X132270790Y-89760149D01*
X132270790Y-89760149D02*
X132842219Y-89188721D01*
X132842219Y-89188721D02*
X132842219Y-89807768D01*
X137942219Y-86141101D02*
X137466028Y-85807768D01*
X137942219Y-85569673D02*
X136942219Y-85569673D01*
X136942219Y-85569673D02*
X136942219Y-85950625D01*
X136942219Y-85950625D02*
X136989838Y-86045863D01*
X136989838Y-86045863D02*
X137037457Y-86093482D01*
X137037457Y-86093482D02*
X137132695Y-86141101D01*
X137132695Y-86141101D02*
X137275552Y-86141101D01*
X137275552Y-86141101D02*
X137370790Y-86093482D01*
X137370790Y-86093482D02*
X137418409Y-86045863D01*
X137418409Y-86045863D02*
X137466028Y-85950625D01*
X137466028Y-85950625D02*
X137466028Y-85569673D01*
X137942219Y-86712530D02*
X137894600Y-86617292D01*
X137894600Y-86617292D02*
X137846980Y-86569673D01*
X137846980Y-86569673D02*
X137751742Y-86522054D01*
X137751742Y-86522054D02*
X137466028Y-86522054D01*
X137466028Y-86522054D02*
X137370790Y-86569673D01*
X137370790Y-86569673D02*
X137323171Y-86617292D01*
X137323171Y-86617292D02*
X137275552Y-86712530D01*
X137275552Y-86712530D02*
X137275552Y-86855387D01*
X137275552Y-86855387D02*
X137323171Y-86950625D01*
X137323171Y-86950625D02*
X137370790Y-86998244D01*
X137370790Y-86998244D02*
X137466028Y-87045863D01*
X137466028Y-87045863D02*
X137751742Y-87045863D01*
X137751742Y-87045863D02*
X137846980Y-86998244D01*
X137846980Y-86998244D02*
X137894600Y-86950625D01*
X137894600Y-86950625D02*
X137942219Y-86855387D01*
X137942219Y-86855387D02*
X137942219Y-86712530D01*
X137275552Y-87379197D02*
X137942219Y-87569673D01*
X137942219Y-87569673D02*
X137466028Y-87760149D01*
X137466028Y-87760149D02*
X137942219Y-87950625D01*
X137942219Y-87950625D02*
X137275552Y-88141101D01*
X136942219Y-89188721D02*
X136942219Y-89807768D01*
X136942219Y-89807768D02*
X137323171Y-89474435D01*
X137323171Y-89474435D02*
X137323171Y-89617292D01*
X137323171Y-89617292D02*
X137370790Y-89712530D01*
X137370790Y-89712530D02*
X137418409Y-89760149D01*
X137418409Y-89760149D02*
X137513647Y-89807768D01*
X137513647Y-89807768D02*
X137751742Y-89807768D01*
X137751742Y-89807768D02*
X137846980Y-89760149D01*
X137846980Y-89760149D02*
X137894600Y-89712530D01*
X137894600Y-89712530D02*
X137942219Y-89617292D01*
X137942219Y-89617292D02*
X137942219Y-89331578D01*
X137942219Y-89331578D02*
X137894600Y-89236340D01*
X137894600Y-89236340D02*
X137846980Y-89188721D01*
X140417219Y-86141101D02*
X139941028Y-85807768D01*
X140417219Y-85569673D02*
X139417219Y-85569673D01*
X139417219Y-85569673D02*
X139417219Y-85950625D01*
X139417219Y-85950625D02*
X139464838Y-86045863D01*
X139464838Y-86045863D02*
X139512457Y-86093482D01*
X139512457Y-86093482D02*
X139607695Y-86141101D01*
X139607695Y-86141101D02*
X139750552Y-86141101D01*
X139750552Y-86141101D02*
X139845790Y-86093482D01*
X139845790Y-86093482D02*
X139893409Y-86045863D01*
X139893409Y-86045863D02*
X139941028Y-85950625D01*
X139941028Y-85950625D02*
X139941028Y-85569673D01*
X140417219Y-86712530D02*
X140369600Y-86617292D01*
X140369600Y-86617292D02*
X140321980Y-86569673D01*
X140321980Y-86569673D02*
X140226742Y-86522054D01*
X140226742Y-86522054D02*
X139941028Y-86522054D01*
X139941028Y-86522054D02*
X139845790Y-86569673D01*
X139845790Y-86569673D02*
X139798171Y-86617292D01*
X139798171Y-86617292D02*
X139750552Y-86712530D01*
X139750552Y-86712530D02*
X139750552Y-86855387D01*
X139750552Y-86855387D02*
X139798171Y-86950625D01*
X139798171Y-86950625D02*
X139845790Y-86998244D01*
X139845790Y-86998244D02*
X139941028Y-87045863D01*
X139941028Y-87045863D02*
X140226742Y-87045863D01*
X140226742Y-87045863D02*
X140321980Y-86998244D01*
X140321980Y-86998244D02*
X140369600Y-86950625D01*
X140369600Y-86950625D02*
X140417219Y-86855387D01*
X140417219Y-86855387D02*
X140417219Y-86712530D01*
X139750552Y-87379197D02*
X140417219Y-87569673D01*
X140417219Y-87569673D02*
X139941028Y-87760149D01*
X139941028Y-87760149D02*
X140417219Y-87950625D01*
X140417219Y-87950625D02*
X139750552Y-88141101D01*
X139750552Y-89712530D02*
X140417219Y-89712530D01*
X139369600Y-89474435D02*
X140083885Y-89236340D01*
X140083885Y-89236340D02*
X140083885Y-89855387D01*
D11*
X150621115Y-89691466D02*
X149859211Y-89691466D01*
D10*
G36*
X160787746Y-86801860D02*
G01*
X160812414Y-86826527D01*
X160842219Y-86886137D01*
X160842219Y-86981780D01*
X160812414Y-87041389D01*
X160787746Y-87066056D01*
X160728135Y-87095863D01*
X160489635Y-87095863D01*
X160430025Y-87066058D01*
X160405357Y-87041389D01*
X160375552Y-86981779D01*
X160375552Y-86886137D01*
X160405357Y-86826527D01*
X160430025Y-86801858D01*
X160489635Y-86772054D01*
X160728135Y-86772054D01*
X160787746Y-86801860D01*
G37*
G36*
X161153330Y-89690998D02*
G01*
X159731108Y-89690998D01*
X159731108Y-88814912D01*
X159842219Y-88814912D01*
X159842219Y-89481578D01*
X159844140Y-89501087D01*
X159844377Y-89501660D01*
X159844385Y-89502282D01*
X159851851Y-89519703D01*
X159859072Y-89537135D01*
X159859509Y-89537572D01*
X159859755Y-89538145D01*
X159873303Y-89551366D01*
X159886662Y-89564725D01*
X159887236Y-89564962D01*
X159887680Y-89565396D01*
X159905212Y-89572409D01*
X159922710Y-89579657D01*
X159923332Y-89579657D01*
X159923907Y-89579887D01*
X159942799Y-89579657D01*
X159961728Y-89579657D01*
X159962301Y-89579419D01*
X159962923Y-89579412D01*
X159981611Y-89573493D01*
X160981611Y-89144922D01*
X160998785Y-89135471D01*
X161026037Y-89107546D01*
X161040528Y-89071319D01*
X161040052Y-89032304D01*
X161024682Y-88996440D01*
X160996758Y-88969189D01*
X160960530Y-88954698D01*
X160921515Y-88955173D01*
X160902827Y-88961093D01*
X160042219Y-89329923D01*
X160042219Y-88814912D01*
X160040298Y-88795403D01*
X160025366Y-88759355D01*
X159997776Y-88731765D01*
X159961728Y-88716833D01*
X159922710Y-88716833D01*
X159886662Y-88731765D01*
X159859072Y-88759355D01*
X159844140Y-88795403D01*
X159842219Y-88814912D01*
X159731108Y-88814912D01*
X159731108Y-87604926D01*
X159844140Y-87604926D01*
X159844140Y-87643944D01*
X159859072Y-87679992D01*
X159886662Y-87707582D01*
X159922710Y-87722514D01*
X159942219Y-87724435D01*
X160775754Y-87724435D01*
X160820064Y-87746589D01*
X160852776Y-87812013D01*
X160863219Y-87828603D01*
X160892696Y-87854168D01*
X160929712Y-87866506D01*
X160968632Y-87863741D01*
X161003530Y-87846292D01*
X161029095Y-87816815D01*
X161041434Y-87779799D01*
X161038668Y-87740879D01*
X161031662Y-87722570D01*
X160984043Y-87627333D01*
X160981989Y-87624070D01*
X160981476Y-87622530D01*
X160979812Y-87620612D01*
X160973600Y-87610742D01*
X160964125Y-87602525D01*
X160955911Y-87593054D01*
X160946039Y-87586840D01*
X160944123Y-87585178D01*
X160942584Y-87584664D01*
X160939321Y-87582611D01*
X160844082Y-87534992D01*
X160825773Y-87527986D01*
X160822190Y-87527731D01*
X160818870Y-87526356D01*
X160799361Y-87524435D01*
X159942219Y-87524435D01*
X159922710Y-87526356D01*
X159886662Y-87541288D01*
X159859072Y-87568878D01*
X159844140Y-87604926D01*
X159731108Y-87604926D01*
X159731108Y-86862530D01*
X160175552Y-86862530D01*
X160175552Y-87005387D01*
X160177473Y-87024896D01*
X160178848Y-87028216D01*
X160179103Y-87031800D01*
X160186109Y-87050108D01*
X160233728Y-87145346D01*
X160239013Y-87153742D01*
X160240024Y-87156182D01*
X160242277Y-87158928D01*
X160244171Y-87161936D01*
X160246165Y-87163665D01*
X160252460Y-87171336D01*
X160300079Y-87218954D01*
X160307745Y-87225246D01*
X160309478Y-87227244D01*
X160312486Y-87229137D01*
X160315232Y-87231391D01*
X160317672Y-87232401D01*
X160326069Y-87237687D01*
X160421306Y-87285306D01*
X160439615Y-87292312D01*
X160443198Y-87292566D01*
X160446519Y-87293942D01*
X160466028Y-87295863D01*
X160751742Y-87295863D01*
X160771251Y-87293942D01*
X160774571Y-87292566D01*
X160778155Y-87292312D01*
X160796463Y-87285306D01*
X160891701Y-87237687D01*
X160900093Y-87232403D01*
X160902537Y-87231392D01*
X160905286Y-87229135D01*
X160908291Y-87227244D01*
X160910020Y-87225249D01*
X160917690Y-87218955D01*
X160965310Y-87171337D01*
X160971603Y-87163668D01*
X160973600Y-87161937D01*
X160975493Y-87158928D01*
X160977747Y-87156183D01*
X160978757Y-87153742D01*
X160984043Y-87145346D01*
X161031662Y-87050109D01*
X161038668Y-87031800D01*
X161038922Y-87028216D01*
X161040298Y-87024896D01*
X161042219Y-87005387D01*
X161042219Y-86862530D01*
X161040298Y-86843021D01*
X161038922Y-86839700D01*
X161038668Y-86836117D01*
X161031662Y-86817808D01*
X160984043Y-86722571D01*
X160978757Y-86714174D01*
X160977747Y-86711734D01*
X160975493Y-86708988D01*
X160973600Y-86705980D01*
X160971603Y-86704248D01*
X160965310Y-86696580D01*
X160917690Y-86648962D01*
X160910020Y-86642667D01*
X160908291Y-86640673D01*
X160905286Y-86638781D01*
X160902537Y-86636525D01*
X160900093Y-86635513D01*
X160891701Y-86630230D01*
X160796463Y-86582611D01*
X160778155Y-86575605D01*
X160774571Y-86575350D01*
X160771251Y-86573975D01*
X160751742Y-86572054D01*
X160466028Y-86572054D01*
X160446519Y-86573975D01*
X160443198Y-86575350D01*
X160439615Y-86575605D01*
X160421306Y-86582611D01*
X160326069Y-86630230D01*
X160317672Y-86635515D01*
X160315232Y-86636526D01*
X160312486Y-86638779D01*
X160309478Y-86640673D01*
X160307745Y-86642670D01*
X160300079Y-86648963D01*
X160252460Y-86696581D01*
X160246165Y-86704251D01*
X160244171Y-86705981D01*
X160242277Y-86708988D01*
X160240024Y-86711735D01*
X160239013Y-86714174D01*
X160233728Y-86722571D01*
X160186109Y-86817809D01*
X160179103Y-86836117D01*
X160178848Y-86839700D01*
X160177473Y-86843021D01*
X160175552Y-86862530D01*
X159731108Y-86862530D01*
X159731108Y-86005387D01*
X159842219Y-86005387D01*
X159842219Y-86100625D01*
X159843191Y-86110498D01*
X159843004Y-86113132D01*
X159843791Y-86116595D01*
X159844140Y-86120134D01*
X159845151Y-86122576D01*
X159847351Y-86132248D01*
X159894970Y-86275104D01*
X159902961Y-86293005D01*
X159905316Y-86295720D01*
X159906691Y-86299039D01*
X159919127Y-86314193D01*
X159966746Y-86361811D01*
X159981899Y-86374248D01*
X160017948Y-86389179D01*
X160056966Y-86389179D01*
X160093014Y-86374248D01*
X160120604Y-86346658D01*
X160135535Y-86310610D01*
X160135535Y-86271592D01*
X160120604Y-86235543D01*
X160108167Y-86220390D01*
X160077240Y-86189463D01*
X160042219Y-86084398D01*
X160042219Y-86021614D01*
X160077240Y-85916549D01*
X160144313Y-85849477D01*
X160215218Y-85814024D01*
X160383099Y-85772054D01*
X160501337Y-85772054D01*
X160669218Y-85814024D01*
X160740127Y-85849478D01*
X160807197Y-85916548D01*
X160842219Y-86021613D01*
X160842219Y-86084398D01*
X160807197Y-86189463D01*
X160776270Y-86220390D01*
X160763833Y-86235543D01*
X160748902Y-86271591D01*
X160748901Y-86310609D01*
X160763832Y-86346658D01*
X160791422Y-86374248D01*
X160827470Y-86389179D01*
X160866488Y-86389180D01*
X160902537Y-86374249D01*
X160917690Y-86361812D01*
X160965310Y-86314194D01*
X160977747Y-86299040D01*
X160979122Y-86295720D01*
X160981477Y-86293005D01*
X160989468Y-86275105D01*
X161037087Y-86132248D01*
X161039286Y-86122575D01*
X161040298Y-86120134D01*
X161040646Y-86116596D01*
X161041434Y-86113133D01*
X161041246Y-86110498D01*
X161042219Y-86100625D01*
X161042219Y-86005387D01*
X161041246Y-85995513D01*
X161041434Y-85992879D01*
X161040646Y-85989415D01*
X161040298Y-85985878D01*
X161039286Y-85983436D01*
X161037087Y-85973764D01*
X160989468Y-85830907D01*
X160981477Y-85813007D01*
X160979122Y-85810291D01*
X160977747Y-85806972D01*
X160965311Y-85791819D01*
X160870071Y-85696581D01*
X160862401Y-85690286D01*
X160860672Y-85688292D01*
X160857667Y-85686400D01*
X160854918Y-85684144D01*
X160852474Y-85683131D01*
X160844082Y-85677849D01*
X160748844Y-85630230D01*
X160747417Y-85629684D01*
X160746837Y-85629254D01*
X160738660Y-85626332D01*
X160730536Y-85623224D01*
X160729813Y-85623172D01*
X160728376Y-85622659D01*
X160537901Y-85575040D01*
X160534519Y-85574539D01*
X160533156Y-85573975D01*
X160525805Y-85573251D01*
X160518508Y-85572172D01*
X160517049Y-85572389D01*
X160513647Y-85572054D01*
X160370790Y-85572054D01*
X160367387Y-85572389D01*
X160365929Y-85572172D01*
X160358631Y-85573251D01*
X160351281Y-85573975D01*
X160349917Y-85574539D01*
X160346536Y-85575040D01*
X160156060Y-85622659D01*
X160154621Y-85623172D01*
X160153901Y-85623224D01*
X160145776Y-85626332D01*
X160137600Y-85629254D01*
X160137020Y-85629683D01*
X160135592Y-85630230D01*
X160040355Y-85677849D01*
X160031956Y-85683135D01*
X160029519Y-85684145D01*
X160026775Y-85686396D01*
X160023764Y-85688292D01*
X160022031Y-85690289D01*
X160014365Y-85696581D01*
X159919127Y-85791819D01*
X159906691Y-85806973D01*
X159905316Y-85810291D01*
X159902961Y-85813007D01*
X159894970Y-85830908D01*
X159847351Y-85973764D01*
X159845151Y-85983435D01*
X159844140Y-85985878D01*
X159843791Y-85989416D01*
X159843004Y-85992880D01*
X159843191Y-85995513D01*
X159842219Y-86005387D01*
X159731108Y-86005387D01*
X159731108Y-85460943D01*
X161153330Y-85460943D01*
X161153330Y-89690998D01*
G37*
G36*
X165506792Y-88992336D02*
G01*
X165531461Y-89017004D01*
X165561266Y-89076614D01*
X165561266Y-89219876D01*
X165531461Y-89279485D01*
X165506792Y-89304153D01*
X165447183Y-89333959D01*
X165256302Y-89333959D01*
X165196692Y-89304154D01*
X165172024Y-89279485D01*
X165142219Y-89219875D01*
X165142219Y-89076614D01*
X165172024Y-89017004D01*
X165196692Y-88992335D01*
X165256302Y-88962531D01*
X165447183Y-88962531D01*
X165506792Y-88992336D01*
G37*
G36*
X165887746Y-86801860D02*
G01*
X165912414Y-86826527D01*
X165942219Y-86886137D01*
X165942219Y-86981780D01*
X165912414Y-87041389D01*
X165887746Y-87066056D01*
X165828135Y-87095863D01*
X165589635Y-87095863D01*
X165530025Y-87066058D01*
X165505357Y-87041389D01*
X165475552Y-86981779D01*
X165475552Y-86886137D01*
X165505357Y-86826527D01*
X165530025Y-86801858D01*
X165589635Y-86772054D01*
X165828135Y-86772054D01*
X165887746Y-86801860D01*
G37*
G36*
X166253330Y-89645070D02*
G01*
X164831108Y-89645070D01*
X164831108Y-89053007D01*
X164942219Y-89053007D01*
X164942219Y-89243483D01*
X164944140Y-89262992D01*
X164945515Y-89266312D01*
X164945770Y-89269896D01*
X164952776Y-89288204D01*
X165000395Y-89383442D01*
X165005680Y-89391838D01*
X165006691Y-89394278D01*
X165008944Y-89397024D01*
X165010838Y-89400032D01*
X165012832Y-89401761D01*
X165019127Y-89409432D01*
X165066746Y-89457050D01*
X165074412Y-89463342D01*
X165076145Y-89465340D01*
X165079153Y-89467233D01*
X165081899Y-89469487D01*
X165084339Y-89470497D01*
X165092736Y-89475783D01*
X165187973Y-89523402D01*
X165206282Y-89530408D01*
X165209865Y-89530662D01*
X165213186Y-89532038D01*
X165232695Y-89533959D01*
X165613647Y-89533959D01*
X165617049Y-89533623D01*
X165618508Y-89533841D01*
X165625805Y-89532761D01*
X165633156Y-89532038D01*
X165634519Y-89531473D01*
X165637901Y-89530973D01*
X165828376Y-89483354D01*
X165839871Y-89479247D01*
X165842295Y-89478768D01*
X165844491Y-89477596D01*
X165846837Y-89476759D01*
X165848823Y-89475287D01*
X165859593Y-89469545D01*
X166002450Y-89374307D01*
X166002501Y-89374264D01*
X166002537Y-89374250D01*
X166010119Y-89368026D01*
X166017617Y-89361887D01*
X166017637Y-89361855D01*
X166017690Y-89361813D01*
X166065310Y-89314195D01*
X166071603Y-89306526D01*
X166073600Y-89304795D01*
X166075493Y-89301786D01*
X166077747Y-89299041D01*
X166078757Y-89296600D01*
X166084043Y-89288204D01*
X166131662Y-89192967D01*
X166138668Y-89174658D01*
X166138922Y-89171074D01*
X166140298Y-89167754D01*
X166142219Y-89148245D01*
X166142219Y-88957769D01*
X166140298Y-88938260D01*
X166125366Y-88902212D01*
X166097776Y-88874622D01*
X166061728Y-88859690D01*
X166022710Y-88859690D01*
X165986662Y-88874622D01*
X165959072Y-88902212D01*
X165944140Y-88938260D01*
X165942219Y-88957769D01*
X165942219Y-89124638D01*
X165912414Y-89184247D01*
X165883272Y-89213388D01*
X165763065Y-89293527D01*
X165745902Y-89297817D01*
X165750709Y-89288205D01*
X165757715Y-89269896D01*
X165757969Y-89266312D01*
X165759345Y-89262992D01*
X165761266Y-89243483D01*
X165761266Y-89053007D01*
X165759345Y-89033498D01*
X165757969Y-89030177D01*
X165757715Y-89026594D01*
X165750709Y-89008285D01*
X165703090Y-88913048D01*
X165697804Y-88904651D01*
X165696794Y-88902211D01*
X165694540Y-88899465D01*
X165692647Y-88896457D01*
X165690649Y-88894724D01*
X165684357Y-88887058D01*
X165636739Y-88839439D01*
X165629068Y-88833144D01*
X165627339Y-88831150D01*
X165624331Y-88829256D01*
X165621585Y-88827003D01*
X165619145Y-88825992D01*
X165610749Y-88820707D01*
X165515511Y-88773088D01*
X165497203Y-88766082D01*
X165493619Y-88765827D01*
X165490299Y-88764452D01*
X165470790Y-88762531D01*
X165232695Y-88762531D01*
X165213186Y-88764452D01*
X165209865Y-88765827D01*
X165206282Y-88766082D01*
X165187973Y-88773088D01*
X165092736Y-88820707D01*
X165084339Y-88825992D01*
X165081899Y-88827003D01*
X165079153Y-88829256D01*
X165076145Y-88831150D01*
X165074412Y-88833147D01*
X165066746Y-88839440D01*
X165019127Y-88887058D01*
X165012832Y-88894728D01*
X165010838Y-88896458D01*
X165008944Y-88899465D01*
X165006691Y-88902212D01*
X165005680Y-88904651D01*
X165000395Y-88913048D01*
X164952776Y-89008286D01*
X164945770Y-89026594D01*
X164945515Y-89030177D01*
X164944140Y-89033498D01*
X164942219Y-89053007D01*
X164831108Y-89053007D01*
X164831108Y-87604926D01*
X164944140Y-87604926D01*
X164944140Y-87643944D01*
X164959072Y-87679992D01*
X164986662Y-87707582D01*
X165022710Y-87722514D01*
X165042219Y-87724435D01*
X165875754Y-87724435D01*
X165920064Y-87746589D01*
X165952776Y-87812013D01*
X165963219Y-87828603D01*
X165992696Y-87854168D01*
X166029712Y-87866506D01*
X166068632Y-87863741D01*
X166103530Y-87846292D01*
X166129095Y-87816815D01*
X166141434Y-87779799D01*
X166138668Y-87740879D01*
X166131662Y-87722570D01*
X166084043Y-87627333D01*
X166081989Y-87624070D01*
X166081476Y-87622530D01*
X166079812Y-87620612D01*
X166073600Y-87610742D01*
X166064125Y-87602525D01*
X166055911Y-87593054D01*
X166046039Y-87586840D01*
X166044123Y-87585178D01*
X166042584Y-87584664D01*
X166039321Y-87582611D01*
X165944082Y-87534992D01*
X165925773Y-87527986D01*
X165922190Y-87527731D01*
X165918870Y-87526356D01*
X165899361Y-87524435D01*
X165042219Y-87524435D01*
X165022710Y-87526356D01*
X164986662Y-87541288D01*
X164959072Y-87568878D01*
X164944140Y-87604926D01*
X164831108Y-87604926D01*
X164831108Y-86862530D01*
X165275552Y-86862530D01*
X165275552Y-87005387D01*
X165277473Y-87024896D01*
X165278848Y-87028216D01*
X165279103Y-87031800D01*
X165286109Y-87050108D01*
X165333728Y-87145346D01*
X165339013Y-87153742D01*
X165340024Y-87156182D01*
X165342277Y-87158928D01*
X165344171Y-87161936D01*
X165346165Y-87163665D01*
X165352460Y-87171336D01*
X165400079Y-87218954D01*
X165407745Y-87225246D01*
X165409478Y-87227244D01*
X165412486Y-87229137D01*
X165415232Y-87231391D01*
X165417672Y-87232401D01*
X165426069Y-87237687D01*
X165521306Y-87285306D01*
X165539615Y-87292312D01*
X165543198Y-87292566D01*
X165546519Y-87293942D01*
X165566028Y-87295863D01*
X165851742Y-87295863D01*
X165871251Y-87293942D01*
X165874571Y-87292566D01*
X165878155Y-87292312D01*
X165896463Y-87285306D01*
X165991701Y-87237687D01*
X166000093Y-87232403D01*
X166002537Y-87231392D01*
X166005286Y-87229135D01*
X166008291Y-87227244D01*
X166010020Y-87225249D01*
X166017690Y-87218955D01*
X166065310Y-87171337D01*
X166071603Y-87163668D01*
X166073600Y-87161937D01*
X166075493Y-87158928D01*
X166077747Y-87156183D01*
X166078757Y-87153742D01*
X166084043Y-87145346D01*
X166131662Y-87050109D01*
X166138668Y-87031800D01*
X166138922Y-87028216D01*
X166140298Y-87024896D01*
X166142219Y-87005387D01*
X166142219Y-86862530D01*
X166140298Y-86843021D01*
X166138922Y-86839700D01*
X166138668Y-86836117D01*
X166131662Y-86817808D01*
X166084043Y-86722571D01*
X166078757Y-86714174D01*
X166077747Y-86711734D01*
X166075493Y-86708988D01*
X166073600Y-86705980D01*
X166071603Y-86704248D01*
X166065310Y-86696580D01*
X166017690Y-86648962D01*
X166010020Y-86642667D01*
X166008291Y-86640673D01*
X166005286Y-86638781D01*
X166002537Y-86636525D01*
X166000093Y-86635513D01*
X165991701Y-86630230D01*
X165896463Y-86582611D01*
X165878155Y-86575605D01*
X165874571Y-86575350D01*
X165871251Y-86573975D01*
X165851742Y-86572054D01*
X165566028Y-86572054D01*
X165546519Y-86573975D01*
X165543198Y-86575350D01*
X165539615Y-86575605D01*
X165521306Y-86582611D01*
X165426069Y-86630230D01*
X165417672Y-86635515D01*
X165415232Y-86636526D01*
X165412486Y-86638779D01*
X165409478Y-86640673D01*
X165407745Y-86642670D01*
X165400079Y-86648963D01*
X165352460Y-86696581D01*
X165346165Y-86704251D01*
X165344171Y-86705981D01*
X165342277Y-86708988D01*
X165340024Y-86711735D01*
X165339013Y-86714174D01*
X165333728Y-86722571D01*
X165286109Y-86817809D01*
X165279103Y-86836117D01*
X165278848Y-86839700D01*
X165277473Y-86843021D01*
X165275552Y-86862530D01*
X164831108Y-86862530D01*
X164831108Y-86005387D01*
X164942219Y-86005387D01*
X164942219Y-86100625D01*
X164943191Y-86110498D01*
X164943004Y-86113132D01*
X164943791Y-86116595D01*
X164944140Y-86120134D01*
X164945151Y-86122576D01*
X164947351Y-86132248D01*
X164994970Y-86275104D01*
X165002961Y-86293005D01*
X165005316Y-86295720D01*
X165006691Y-86299039D01*
X165019127Y-86314193D01*
X165066746Y-86361811D01*
X165081899Y-86374248D01*
X165117948Y-86389179D01*
X165156966Y-86389179D01*
X165193014Y-86374248D01*
X165220604Y-86346658D01*
X165235535Y-86310610D01*
X165235535Y-86271592D01*
X165220604Y-86235543D01*
X165208167Y-86220390D01*
X165177240Y-86189463D01*
X165142219Y-86084398D01*
X165142219Y-86021614D01*
X165177240Y-85916549D01*
X165244313Y-85849477D01*
X165315218Y-85814024D01*
X165483099Y-85772054D01*
X165601337Y-85772054D01*
X165769218Y-85814024D01*
X165840127Y-85849478D01*
X165907197Y-85916548D01*
X165942219Y-86021613D01*
X165942219Y-86084398D01*
X165907197Y-86189463D01*
X165876270Y-86220390D01*
X165863833Y-86235543D01*
X165848902Y-86271591D01*
X165848901Y-86310609D01*
X165863832Y-86346658D01*
X165891422Y-86374248D01*
X165927470Y-86389179D01*
X165966488Y-86389180D01*
X166002537Y-86374249D01*
X166017690Y-86361812D01*
X166065310Y-86314194D01*
X166077747Y-86299040D01*
X166079122Y-86295720D01*
X166081477Y-86293005D01*
X166089468Y-86275105D01*
X166137087Y-86132248D01*
X166139286Y-86122575D01*
X166140298Y-86120134D01*
X166140646Y-86116596D01*
X166141434Y-86113133D01*
X166141246Y-86110498D01*
X166142219Y-86100625D01*
X166142219Y-86005387D01*
X166141246Y-85995513D01*
X166141434Y-85992879D01*
X166140646Y-85989415D01*
X166140298Y-85985878D01*
X166139286Y-85983436D01*
X166137087Y-85973764D01*
X166089468Y-85830907D01*
X166081477Y-85813007D01*
X166079122Y-85810291D01*
X166077747Y-85806972D01*
X166065311Y-85791819D01*
X165970071Y-85696581D01*
X165962401Y-85690286D01*
X165960672Y-85688292D01*
X165957667Y-85686400D01*
X165954918Y-85684144D01*
X165952474Y-85683131D01*
X165944082Y-85677849D01*
X165848844Y-85630230D01*
X165847417Y-85629684D01*
X165846837Y-85629254D01*
X165838660Y-85626332D01*
X165830536Y-85623224D01*
X165829813Y-85623172D01*
X165828376Y-85622659D01*
X165637901Y-85575040D01*
X165634519Y-85574539D01*
X165633156Y-85573975D01*
X165625805Y-85573251D01*
X165618508Y-85572172D01*
X165617049Y-85572389D01*
X165613647Y-85572054D01*
X165470790Y-85572054D01*
X165467387Y-85572389D01*
X165465929Y-85572172D01*
X165458631Y-85573251D01*
X165451281Y-85573975D01*
X165449917Y-85574539D01*
X165446536Y-85575040D01*
X165256060Y-85622659D01*
X165254621Y-85623172D01*
X165253901Y-85623224D01*
X165245776Y-85626332D01*
X165237600Y-85629254D01*
X165237020Y-85629683D01*
X165235592Y-85630230D01*
X165140355Y-85677849D01*
X165131956Y-85683135D01*
X165129519Y-85684145D01*
X165126775Y-85686396D01*
X165123764Y-85688292D01*
X165122031Y-85690289D01*
X165114365Y-85696581D01*
X165019127Y-85791819D01*
X165006691Y-85806973D01*
X165005316Y-85810291D01*
X165002961Y-85813007D01*
X164994970Y-85830908D01*
X164947351Y-85973764D01*
X164945151Y-85983435D01*
X164944140Y-85985878D01*
X164943791Y-85989416D01*
X164943004Y-85992880D01*
X164943191Y-85995513D01*
X164942219Y-86005387D01*
X164831108Y-86005387D01*
X164831108Y-85460943D01*
X166253330Y-85460943D01*
X166253330Y-89645070D01*
G37*
D12*
X169954819Y-90815476D02*
X170669104Y-90815476D01*
X170669104Y-90815476D02*
X170811961Y-90767857D01*
X170811961Y-90767857D02*
X170907200Y-90672619D01*
X170907200Y-90672619D02*
X170954819Y-90529762D01*
X170954819Y-90529762D02*
X170954819Y-90434524D01*
X170954819Y-91339286D02*
X170954819Y-91529762D01*
X170954819Y-91529762D02*
X170907200Y-91625000D01*
X170907200Y-91625000D02*
X170859580Y-91672619D01*
X170859580Y-91672619D02*
X170716723Y-91767857D01*
X170716723Y-91767857D02*
X170526247Y-91815476D01*
X170526247Y-91815476D02*
X170145295Y-91815476D01*
X170145295Y-91815476D02*
X170050057Y-91767857D01*
X170050057Y-91767857D02*
X170002438Y-91720238D01*
X170002438Y-91720238D02*
X169954819Y-91625000D01*
X169954819Y-91625000D02*
X169954819Y-91434524D01*
X169954819Y-91434524D02*
X170002438Y-91339286D01*
X170002438Y-91339286D02*
X170050057Y-91291667D01*
X170050057Y-91291667D02*
X170145295Y-91244048D01*
X170145295Y-91244048D02*
X170383390Y-91244048D01*
X170383390Y-91244048D02*
X170478628Y-91291667D01*
X170478628Y-91291667D02*
X170526247Y-91339286D01*
X170526247Y-91339286D02*
X170573866Y-91434524D01*
X170573866Y-91434524D02*
X170573866Y-91625000D01*
X170573866Y-91625000D02*
X170526247Y-91720238D01*
X170526247Y-91720238D02*
X170478628Y-91767857D01*
X170478628Y-91767857D02*
X170383390Y-91815476D01*
X170954819Y-92291667D02*
X170954819Y-92482143D01*
X170954819Y-92482143D02*
X170907200Y-92577381D01*
X170907200Y-92577381D02*
X170859580Y-92625000D01*
X170859580Y-92625000D02*
X170716723Y-92720238D01*
X170716723Y-92720238D02*
X170526247Y-92767857D01*
X170526247Y-92767857D02*
X170145295Y-92767857D01*
X170145295Y-92767857D02*
X170050057Y-92720238D01*
X170050057Y-92720238D02*
X170002438Y-92672619D01*
X170002438Y-92672619D02*
X169954819Y-92577381D01*
X169954819Y-92577381D02*
X169954819Y-92386905D01*
X169954819Y-92386905D02*
X170002438Y-92291667D01*
X170002438Y-92291667D02*
X170050057Y-92244048D01*
X170050057Y-92244048D02*
X170145295Y-92196429D01*
X170145295Y-92196429D02*
X170383390Y-92196429D01*
X170383390Y-92196429D02*
X170478628Y-92244048D01*
X170478628Y-92244048D02*
X170526247Y-92291667D01*
X170526247Y-92291667D02*
X170573866Y-92386905D01*
X170573866Y-92386905D02*
X170573866Y-92577381D01*
X170573866Y-92577381D02*
X170526247Y-92672619D01*
X170526247Y-92672619D02*
X170478628Y-92720238D01*
X170478628Y-92720238D02*
X170383390Y-92767857D01*
X155483333Y-97629819D02*
X155483333Y-98344104D01*
X155483333Y-98344104D02*
X155530952Y-98486961D01*
X155530952Y-98486961D02*
X155626190Y-98582200D01*
X155626190Y-98582200D02*
X155769047Y-98629819D01*
X155769047Y-98629819D02*
X155864285Y-98629819D01*
X155054761Y-97725057D02*
X155007142Y-97677438D01*
X155007142Y-97677438D02*
X154911904Y-97629819D01*
X154911904Y-97629819D02*
X154673809Y-97629819D01*
X154673809Y-97629819D02*
X154578571Y-97677438D01*
X154578571Y-97677438D02*
X154530952Y-97725057D01*
X154530952Y-97725057D02*
X154483333Y-97820295D01*
X154483333Y-97820295D02*
X154483333Y-97915533D01*
X154483333Y-97915533D02*
X154530952Y-98058390D01*
X154530952Y-98058390D02*
X155102380Y-98629819D01*
X155102380Y-98629819D02*
X154483333Y-98629819D01*
D13*
%TO.C,J99*%
X168689999Y-94235000D02*
X168690000Y-93025000D01*
X169359999Y-93025000D02*
X168690000Y-93025000D01*
X169359999Y-93025000D02*
X169359999Y-90365000D01*
X167169999Y-93025000D02*
X163609999Y-93025000D01*
X162089999Y-93025000D02*
X158529999Y-93025000D01*
X157009998Y-93025000D02*
X153449999Y-93025000D01*
X151929999Y-93025000D02*
X148369999Y-93025000D01*
X146849998Y-93025000D02*
X143289999Y-93025000D01*
X141769999Y-93025000D02*
X138209999Y-93025000D01*
X136690000Y-93025000D02*
X133129998Y-93025000D01*
X131609999Y-93025000D02*
X128049999Y-93025000D01*
X126529999Y-93025000D02*
X123319999Y-93025000D01*
X123319999Y-93025000D02*
X123319999Y-90365000D01*
X169359999Y-90365000D02*
X166149999Y-90365000D01*
X164629999Y-90365000D02*
X161069999Y-90365000D01*
X159550000Y-90365000D02*
X155989998Y-90365000D01*
X154469999Y-90365000D02*
X150909999Y-90365000D01*
X149389999Y-90365000D02*
X145830000Y-90365000D01*
X144309999Y-90365000D02*
X140749999Y-90365000D01*
X139229999Y-90365000D02*
X135670000Y-90365000D01*
X134149999Y-90365000D02*
X130589999Y-90365000D01*
X129069999Y-90365000D02*
X125509999Y-90365000D01*
X123989998Y-90365000D02*
X123319999Y-90365000D01*
%TD*%
M02*
