%TF.GenerationSoftware,KiCad,Pcbnew,9.0.6*%
%TF.CreationDate,2026-01-26T11:53:51+11:00*%
%TF.ProjectId,Cooee_keyboard_68mm,436f6f65-655f-46b6-9579-626f6172645f,rev?*%
%TF.SameCoordinates,Original*%
%TF.FileFunction,Legend,Bot*%
%TF.FilePolarity,Positive*%
%FSLAX46Y46*%
G04 Gerber Fmt 4.6, Leading zero omitted, Abs format (unit mm)*
G04 Created by KiCad (PCBNEW 9.0.6) date 2026-01-26 11:53:51*
%MOMM*%
%LPD*%
G01*
G04 APERTURE LIST*
%ADD10C,0.100000*%
%ADD11C,0.200000*%
%ADD12C,0.150000*%
%ADD13C,0.120000*%
G04 APERTURE END LIST*
D10*
X159745038Y-80177693D02*
X159697419Y-80082455D01*
X159697419Y-80082455D02*
X159697419Y-79939598D01*
X159697419Y-79939598D02*
X159745038Y-79796741D01*
X159745038Y-79796741D02*
X159840276Y-79701503D01*
X159840276Y-79701503D02*
X159935514Y-79653884D01*
X159935514Y-79653884D02*
X160125990Y-79606265D01*
X160125990Y-79606265D02*
X160268847Y-79606265D01*
X160268847Y-79606265D02*
X160459323Y-79653884D01*
X160459323Y-79653884D02*
X160554561Y-79701503D01*
X160554561Y-79701503D02*
X160649800Y-79796741D01*
X160649800Y-79796741D02*
X160697419Y-79939598D01*
X160697419Y-79939598D02*
X160697419Y-80034836D01*
X160697419Y-80034836D02*
X160649800Y-80177693D01*
X160649800Y-80177693D02*
X160602180Y-80225312D01*
X160602180Y-80225312D02*
X160268847Y-80225312D01*
X160268847Y-80225312D02*
X160268847Y-80034836D01*
X160697419Y-81225312D02*
X160221228Y-80891979D01*
X160697419Y-80653884D02*
X159697419Y-80653884D01*
X159697419Y-80653884D02*
X159697419Y-81034836D01*
X159697419Y-81034836D02*
X159745038Y-81130074D01*
X159745038Y-81130074D02*
X159792657Y-81177693D01*
X159792657Y-81177693D02*
X159887895Y-81225312D01*
X159887895Y-81225312D02*
X160030752Y-81225312D01*
X160030752Y-81225312D02*
X160125990Y-81177693D01*
X160125990Y-81177693D02*
X160173609Y-81130074D01*
X160173609Y-81130074D02*
X160221228Y-81034836D01*
X160221228Y-81034836D02*
X160221228Y-80653884D01*
X159697419Y-81844360D02*
X159697419Y-82034836D01*
X159697419Y-82034836D02*
X159745038Y-82130074D01*
X159745038Y-82130074D02*
X159840276Y-82225312D01*
X159840276Y-82225312D02*
X160030752Y-82272931D01*
X160030752Y-82272931D02*
X160364085Y-82272931D01*
X160364085Y-82272931D02*
X160554561Y-82225312D01*
X160554561Y-82225312D02*
X160649800Y-82130074D01*
X160649800Y-82130074D02*
X160697419Y-82034836D01*
X160697419Y-82034836D02*
X160697419Y-81844360D01*
X160697419Y-81844360D02*
X160649800Y-81749122D01*
X160649800Y-81749122D02*
X160554561Y-81653884D01*
X160554561Y-81653884D02*
X160364085Y-81606265D01*
X160364085Y-81606265D02*
X160030752Y-81606265D01*
X160030752Y-81606265D02*
X159840276Y-81653884D01*
X159840276Y-81653884D02*
X159745038Y-81749122D01*
X159745038Y-81749122D02*
X159697419Y-81844360D01*
X159697419Y-82701503D02*
X160506942Y-82701503D01*
X160506942Y-82701503D02*
X160602180Y-82749122D01*
X160602180Y-82749122D02*
X160649800Y-82796741D01*
X160649800Y-82796741D02*
X160697419Y-82891979D01*
X160697419Y-82891979D02*
X160697419Y-83082455D01*
X160697419Y-83082455D02*
X160649800Y-83177693D01*
X160649800Y-83177693D02*
X160602180Y-83225312D01*
X160602180Y-83225312D02*
X160506942Y-83272931D01*
X160506942Y-83272931D02*
X159697419Y-83272931D01*
X160697419Y-83749122D02*
X159697419Y-83749122D01*
X159697419Y-83749122D02*
X160697419Y-84320550D01*
X160697419Y-84320550D02*
X159697419Y-84320550D01*
X160697419Y-84796741D02*
X159697419Y-84796741D01*
X159697419Y-84796741D02*
X159697419Y-85034836D01*
X159697419Y-85034836D02*
X159745038Y-85177693D01*
X159745038Y-85177693D02*
X159840276Y-85272931D01*
X159840276Y-85272931D02*
X159935514Y-85320550D01*
X159935514Y-85320550D02*
X160125990Y-85368169D01*
X160125990Y-85368169D02*
X160268847Y-85368169D01*
X160268847Y-85368169D02*
X160459323Y-85320550D01*
X160459323Y-85320550D02*
X160554561Y-85272931D01*
X160554561Y-85272931D02*
X160649800Y-85177693D01*
X160649800Y-85177693D02*
X160697419Y-85034836D01*
X160697419Y-85034836D02*
X160697419Y-84796741D01*
X162072419Y-79708646D02*
X162072419Y-80327693D01*
X162072419Y-80327693D02*
X162453371Y-79994360D01*
X162453371Y-79994360D02*
X162453371Y-80137217D01*
X162453371Y-80137217D02*
X162500990Y-80232455D01*
X162500990Y-80232455D02*
X162548609Y-80280074D01*
X162548609Y-80280074D02*
X162643847Y-80327693D01*
X162643847Y-80327693D02*
X162881942Y-80327693D01*
X162881942Y-80327693D02*
X162977180Y-80280074D01*
X162977180Y-80280074D02*
X163024800Y-80232455D01*
X163024800Y-80232455D02*
X163072419Y-80137217D01*
X163072419Y-80137217D02*
X163072419Y-79851503D01*
X163072419Y-79851503D02*
X163024800Y-79756265D01*
X163024800Y-79756265D02*
X162977180Y-79708646D01*
X162977180Y-80756265D02*
X163024800Y-80803884D01*
X163024800Y-80803884D02*
X163072419Y-80756265D01*
X163072419Y-80756265D02*
X163024800Y-80708646D01*
X163024800Y-80708646D02*
X162977180Y-80756265D01*
X162977180Y-80756265D02*
X163072419Y-80756265D01*
X162072419Y-81137217D02*
X162072419Y-81756264D01*
X162072419Y-81756264D02*
X162453371Y-81422931D01*
X162453371Y-81422931D02*
X162453371Y-81565788D01*
X162453371Y-81565788D02*
X162500990Y-81661026D01*
X162500990Y-81661026D02*
X162548609Y-81708645D01*
X162548609Y-81708645D02*
X162643847Y-81756264D01*
X162643847Y-81756264D02*
X162881942Y-81756264D01*
X162881942Y-81756264D02*
X162977180Y-81708645D01*
X162977180Y-81708645D02*
X163024800Y-81661026D01*
X163024800Y-81661026D02*
X163072419Y-81565788D01*
X163072419Y-81565788D02*
X163072419Y-81280074D01*
X163072419Y-81280074D02*
X163024800Y-81184836D01*
X163024800Y-81184836D02*
X162977180Y-81137217D01*
X162072419Y-82041979D02*
X163072419Y-82375312D01*
X163072419Y-82375312D02*
X162072419Y-82708645D01*
X163072419Y-84280074D02*
X163072419Y-83803884D01*
X163072419Y-83803884D02*
X162072419Y-83803884D01*
X162548609Y-84613408D02*
X162548609Y-84946741D01*
X163072419Y-85089598D02*
X163072419Y-84613408D01*
X163072419Y-84613408D02*
X162072419Y-84613408D01*
X162072419Y-84613408D02*
X162072419Y-85089598D01*
X163072419Y-85518170D02*
X162072419Y-85518170D01*
X162072419Y-85518170D02*
X162072419Y-85756265D01*
X162072419Y-85756265D02*
X162120038Y-85899122D01*
X162120038Y-85899122D02*
X162215276Y-85994360D01*
X162215276Y-85994360D02*
X162310514Y-86041979D01*
X162310514Y-86041979D02*
X162500990Y-86089598D01*
X162500990Y-86089598D02*
X162643847Y-86089598D01*
X162643847Y-86089598D02*
X162834323Y-86041979D01*
X162834323Y-86041979D02*
X162929561Y-85994360D01*
X162929561Y-85994360D02*
X163024800Y-85899122D01*
X163024800Y-85899122D02*
X163072419Y-85756265D01*
X163072419Y-85756265D02*
X163072419Y-85518170D01*
X163024800Y-86470551D02*
X163072419Y-86565789D01*
X163072419Y-86565789D02*
X163072419Y-86756265D01*
X163072419Y-86756265D02*
X163024800Y-86851503D01*
X163024800Y-86851503D02*
X162929561Y-86899122D01*
X162929561Y-86899122D02*
X162881942Y-86899122D01*
X162881942Y-86899122D02*
X162786704Y-86851503D01*
X162786704Y-86851503D02*
X162739085Y-86756265D01*
X162739085Y-86756265D02*
X162739085Y-86613408D01*
X162739085Y-86613408D02*
X162691466Y-86518170D01*
X162691466Y-86518170D02*
X162596228Y-86470551D01*
X162596228Y-86470551D02*
X162548609Y-86470551D01*
X162548609Y-86470551D02*
X162453371Y-86518170D01*
X162453371Y-86518170D02*
X162405752Y-86613408D01*
X162405752Y-86613408D02*
X162405752Y-86756265D01*
X162405752Y-86756265D02*
X162453371Y-86851503D01*
D11*
G36*
X163314516Y-89451409D02*
G01*
X162134232Y-89451409D01*
X162134232Y-88841757D01*
X162245343Y-88841757D01*
X162245343Y-88880775D01*
X162260275Y-88916823D01*
X162287865Y-88944413D01*
X162323913Y-88959345D01*
X162343422Y-88961266D01*
X162624374Y-88961266D01*
X162624374Y-89242219D01*
X162626295Y-89261728D01*
X162641227Y-89297776D01*
X162668817Y-89325366D01*
X162704865Y-89340298D01*
X162743883Y-89340298D01*
X162779931Y-89325366D01*
X162807521Y-89297776D01*
X162822453Y-89261728D01*
X162824374Y-89242219D01*
X162824374Y-88961266D01*
X163105326Y-88961266D01*
X163124835Y-88959345D01*
X163160883Y-88944413D01*
X163188473Y-88916823D01*
X163203405Y-88880775D01*
X163203405Y-88841757D01*
X163188473Y-88805709D01*
X163160883Y-88778119D01*
X163124835Y-88763187D01*
X163105326Y-88761266D01*
X162824374Y-88761266D01*
X162824374Y-88480314D01*
X162822453Y-88460805D01*
X162807521Y-88424757D01*
X162779931Y-88397167D01*
X162743883Y-88382235D01*
X162704865Y-88382235D01*
X162668817Y-88397167D01*
X162641227Y-88424757D01*
X162626295Y-88460805D01*
X162624374Y-88480314D01*
X162624374Y-88761266D01*
X162343422Y-88761266D01*
X162323913Y-88763187D01*
X162287865Y-88778119D01*
X162260275Y-88805709D01*
X162245343Y-88841757D01*
X162134232Y-88841757D01*
X162134232Y-88271124D01*
X163314516Y-88271124D01*
X163314516Y-89451409D01*
G37*
D10*
X160646115Y-88866466D02*
X159884211Y-88866466D01*
D11*
X145467219Y-86141101D02*
X144991028Y-85807768D01*
X145467219Y-85569673D02*
X144467219Y-85569673D01*
X144467219Y-85569673D02*
X144467219Y-85950625D01*
X144467219Y-85950625D02*
X144514838Y-86045863D01*
X144514838Y-86045863D02*
X144562457Y-86093482D01*
X144562457Y-86093482D02*
X144657695Y-86141101D01*
X144657695Y-86141101D02*
X144800552Y-86141101D01*
X144800552Y-86141101D02*
X144895790Y-86093482D01*
X144895790Y-86093482D02*
X144943409Y-86045863D01*
X144943409Y-86045863D02*
X144991028Y-85950625D01*
X144991028Y-85950625D02*
X144991028Y-85569673D01*
X145467219Y-86712530D02*
X145419600Y-86617292D01*
X145419600Y-86617292D02*
X145371980Y-86569673D01*
X145371980Y-86569673D02*
X145276742Y-86522054D01*
X145276742Y-86522054D02*
X144991028Y-86522054D01*
X144991028Y-86522054D02*
X144895790Y-86569673D01*
X144895790Y-86569673D02*
X144848171Y-86617292D01*
X144848171Y-86617292D02*
X144800552Y-86712530D01*
X144800552Y-86712530D02*
X144800552Y-86855387D01*
X144800552Y-86855387D02*
X144848171Y-86950625D01*
X144848171Y-86950625D02*
X144895790Y-86998244D01*
X144895790Y-86998244D02*
X144991028Y-87045863D01*
X144991028Y-87045863D02*
X145276742Y-87045863D01*
X145276742Y-87045863D02*
X145371980Y-86998244D01*
X145371980Y-86998244D02*
X145419600Y-86950625D01*
X145419600Y-86950625D02*
X145467219Y-86855387D01*
X145467219Y-86855387D02*
X145467219Y-86712530D01*
X144800552Y-87379197D02*
X145467219Y-87569673D01*
X145467219Y-87569673D02*
X144991028Y-87760149D01*
X144991028Y-87760149D02*
X145467219Y-87950625D01*
X145467219Y-87950625D02*
X144800552Y-88141101D01*
X144467219Y-89760149D02*
X144467219Y-89283959D01*
X144467219Y-89283959D02*
X144943409Y-89236340D01*
X144943409Y-89236340D02*
X144895790Y-89283959D01*
X144895790Y-89283959D02*
X144848171Y-89379197D01*
X144848171Y-89379197D02*
X144848171Y-89617292D01*
X144848171Y-89617292D02*
X144895790Y-89712530D01*
X144895790Y-89712530D02*
X144943409Y-89760149D01*
X144943409Y-89760149D02*
X145038647Y-89807768D01*
X145038647Y-89807768D02*
X145276742Y-89807768D01*
X145276742Y-89807768D02*
X145371980Y-89760149D01*
X145371980Y-89760149D02*
X145419600Y-89712530D01*
X145419600Y-89712530D02*
X145467219Y-89617292D01*
X145467219Y-89617292D02*
X145467219Y-89379197D01*
X145467219Y-89379197D02*
X145419600Y-89283959D01*
X145419600Y-89283959D02*
X145371980Y-89236340D01*
X140417219Y-86141101D02*
X139941028Y-85807768D01*
X140417219Y-85569673D02*
X139417219Y-85569673D01*
X139417219Y-85569673D02*
X139417219Y-85950625D01*
X139417219Y-85950625D02*
X139464838Y-86045863D01*
X139464838Y-86045863D02*
X139512457Y-86093482D01*
X139512457Y-86093482D02*
X139607695Y-86141101D01*
X139607695Y-86141101D02*
X139750552Y-86141101D01*
X139750552Y-86141101D02*
X139845790Y-86093482D01*
X139845790Y-86093482D02*
X139893409Y-86045863D01*
X139893409Y-86045863D02*
X139941028Y-85950625D01*
X139941028Y-85950625D02*
X139941028Y-85569673D01*
X140417219Y-86712530D02*
X140369600Y-86617292D01*
X140369600Y-86617292D02*
X140321980Y-86569673D01*
X140321980Y-86569673D02*
X140226742Y-86522054D01*
X140226742Y-86522054D02*
X139941028Y-86522054D01*
X139941028Y-86522054D02*
X139845790Y-86569673D01*
X139845790Y-86569673D02*
X139798171Y-86617292D01*
X139798171Y-86617292D02*
X139750552Y-86712530D01*
X139750552Y-86712530D02*
X139750552Y-86855387D01*
X139750552Y-86855387D02*
X139798171Y-86950625D01*
X139798171Y-86950625D02*
X139845790Y-86998244D01*
X139845790Y-86998244D02*
X139941028Y-87045863D01*
X139941028Y-87045863D02*
X140226742Y-87045863D01*
X140226742Y-87045863D02*
X140321980Y-86998244D01*
X140321980Y-86998244D02*
X140369600Y-86950625D01*
X140369600Y-86950625D02*
X140417219Y-86855387D01*
X140417219Y-86855387D02*
X140417219Y-86712530D01*
X139750552Y-87379197D02*
X140417219Y-87569673D01*
X140417219Y-87569673D02*
X139941028Y-87760149D01*
X139941028Y-87760149D02*
X140417219Y-87950625D01*
X140417219Y-87950625D02*
X139750552Y-88141101D01*
X139750552Y-89712530D02*
X140417219Y-89712530D01*
X139369600Y-89474435D02*
X140083885Y-89236340D01*
X140083885Y-89236340D02*
X140083885Y-89855387D01*
X137942219Y-86141101D02*
X137466028Y-85807768D01*
X137942219Y-85569673D02*
X136942219Y-85569673D01*
X136942219Y-85569673D02*
X136942219Y-85950625D01*
X136942219Y-85950625D02*
X136989838Y-86045863D01*
X136989838Y-86045863D02*
X137037457Y-86093482D01*
X137037457Y-86093482D02*
X137132695Y-86141101D01*
X137132695Y-86141101D02*
X137275552Y-86141101D01*
X137275552Y-86141101D02*
X137370790Y-86093482D01*
X137370790Y-86093482D02*
X137418409Y-86045863D01*
X137418409Y-86045863D02*
X137466028Y-85950625D01*
X137466028Y-85950625D02*
X137466028Y-85569673D01*
X137942219Y-86712530D02*
X137894600Y-86617292D01*
X137894600Y-86617292D02*
X137846980Y-86569673D01*
X137846980Y-86569673D02*
X137751742Y-86522054D01*
X137751742Y-86522054D02*
X137466028Y-86522054D01*
X137466028Y-86522054D02*
X137370790Y-86569673D01*
X137370790Y-86569673D02*
X137323171Y-86617292D01*
X137323171Y-86617292D02*
X137275552Y-86712530D01*
X137275552Y-86712530D02*
X137275552Y-86855387D01*
X137275552Y-86855387D02*
X137323171Y-86950625D01*
X137323171Y-86950625D02*
X137370790Y-86998244D01*
X137370790Y-86998244D02*
X137466028Y-87045863D01*
X137466028Y-87045863D02*
X137751742Y-87045863D01*
X137751742Y-87045863D02*
X137846980Y-86998244D01*
X137846980Y-86998244D02*
X137894600Y-86950625D01*
X137894600Y-86950625D02*
X137942219Y-86855387D01*
X137942219Y-86855387D02*
X137942219Y-86712530D01*
X137275552Y-87379197D02*
X137942219Y-87569673D01*
X137942219Y-87569673D02*
X137466028Y-87760149D01*
X137466028Y-87760149D02*
X137942219Y-87950625D01*
X137942219Y-87950625D02*
X137275552Y-88141101D01*
X136942219Y-89188721D02*
X136942219Y-89807768D01*
X136942219Y-89807768D02*
X137323171Y-89474435D01*
X137323171Y-89474435D02*
X137323171Y-89617292D01*
X137323171Y-89617292D02*
X137370790Y-89712530D01*
X137370790Y-89712530D02*
X137418409Y-89760149D01*
X137418409Y-89760149D02*
X137513647Y-89807768D01*
X137513647Y-89807768D02*
X137751742Y-89807768D01*
X137751742Y-89807768D02*
X137846980Y-89760149D01*
X137846980Y-89760149D02*
X137894600Y-89712530D01*
X137894600Y-89712530D02*
X137942219Y-89617292D01*
X137942219Y-89617292D02*
X137942219Y-89331578D01*
X137942219Y-89331578D02*
X137894600Y-89236340D01*
X137894600Y-89236340D02*
X137846980Y-89188721D01*
X132842219Y-86141101D02*
X132366028Y-85807768D01*
X132842219Y-85569673D02*
X131842219Y-85569673D01*
X131842219Y-85569673D02*
X131842219Y-85950625D01*
X131842219Y-85950625D02*
X131889838Y-86045863D01*
X131889838Y-86045863D02*
X131937457Y-86093482D01*
X131937457Y-86093482D02*
X132032695Y-86141101D01*
X132032695Y-86141101D02*
X132175552Y-86141101D01*
X132175552Y-86141101D02*
X132270790Y-86093482D01*
X132270790Y-86093482D02*
X132318409Y-86045863D01*
X132318409Y-86045863D02*
X132366028Y-85950625D01*
X132366028Y-85950625D02*
X132366028Y-85569673D01*
X132842219Y-86712530D02*
X132794600Y-86617292D01*
X132794600Y-86617292D02*
X132746980Y-86569673D01*
X132746980Y-86569673D02*
X132651742Y-86522054D01*
X132651742Y-86522054D02*
X132366028Y-86522054D01*
X132366028Y-86522054D02*
X132270790Y-86569673D01*
X132270790Y-86569673D02*
X132223171Y-86617292D01*
X132223171Y-86617292D02*
X132175552Y-86712530D01*
X132175552Y-86712530D02*
X132175552Y-86855387D01*
X132175552Y-86855387D02*
X132223171Y-86950625D01*
X132223171Y-86950625D02*
X132270790Y-86998244D01*
X132270790Y-86998244D02*
X132366028Y-87045863D01*
X132366028Y-87045863D02*
X132651742Y-87045863D01*
X132651742Y-87045863D02*
X132746980Y-86998244D01*
X132746980Y-86998244D02*
X132794600Y-86950625D01*
X132794600Y-86950625D02*
X132842219Y-86855387D01*
X132842219Y-86855387D02*
X132842219Y-86712530D01*
X132175552Y-87379197D02*
X132842219Y-87569673D01*
X132842219Y-87569673D02*
X132366028Y-87760149D01*
X132366028Y-87760149D02*
X132842219Y-87950625D01*
X132842219Y-87950625D02*
X132175552Y-88141101D01*
X131937457Y-89236340D02*
X131889838Y-89283959D01*
X131889838Y-89283959D02*
X131842219Y-89379197D01*
X131842219Y-89379197D02*
X131842219Y-89617292D01*
X131842219Y-89617292D02*
X131889838Y-89712530D01*
X131889838Y-89712530D02*
X131937457Y-89760149D01*
X131937457Y-89760149D02*
X132032695Y-89807768D01*
X132032695Y-89807768D02*
X132127933Y-89807768D01*
X132127933Y-89807768D02*
X132270790Y-89760149D01*
X132270790Y-89760149D02*
X132842219Y-89188721D01*
X132842219Y-89188721D02*
X132842219Y-89807768D01*
X127692219Y-86141101D02*
X127216028Y-85807768D01*
X127692219Y-85569673D02*
X126692219Y-85569673D01*
X126692219Y-85569673D02*
X126692219Y-85950625D01*
X126692219Y-85950625D02*
X126739838Y-86045863D01*
X126739838Y-86045863D02*
X126787457Y-86093482D01*
X126787457Y-86093482D02*
X126882695Y-86141101D01*
X126882695Y-86141101D02*
X127025552Y-86141101D01*
X127025552Y-86141101D02*
X127120790Y-86093482D01*
X127120790Y-86093482D02*
X127168409Y-86045863D01*
X127168409Y-86045863D02*
X127216028Y-85950625D01*
X127216028Y-85950625D02*
X127216028Y-85569673D01*
X127692219Y-86712530D02*
X127644600Y-86617292D01*
X127644600Y-86617292D02*
X127596980Y-86569673D01*
X127596980Y-86569673D02*
X127501742Y-86522054D01*
X127501742Y-86522054D02*
X127216028Y-86522054D01*
X127216028Y-86522054D02*
X127120790Y-86569673D01*
X127120790Y-86569673D02*
X127073171Y-86617292D01*
X127073171Y-86617292D02*
X127025552Y-86712530D01*
X127025552Y-86712530D02*
X127025552Y-86855387D01*
X127025552Y-86855387D02*
X127073171Y-86950625D01*
X127073171Y-86950625D02*
X127120790Y-86998244D01*
X127120790Y-86998244D02*
X127216028Y-87045863D01*
X127216028Y-87045863D02*
X127501742Y-87045863D01*
X127501742Y-87045863D02*
X127596980Y-86998244D01*
X127596980Y-86998244D02*
X127644600Y-86950625D01*
X127644600Y-86950625D02*
X127692219Y-86855387D01*
X127692219Y-86855387D02*
X127692219Y-86712530D01*
X127025552Y-87379197D02*
X127692219Y-87569673D01*
X127692219Y-87569673D02*
X127216028Y-87760149D01*
X127216028Y-87760149D02*
X127692219Y-87950625D01*
X127692219Y-87950625D02*
X127025552Y-88141101D01*
X127692219Y-89807768D02*
X127692219Y-89236340D01*
X127692219Y-89522054D02*
X126692219Y-89522054D01*
X126692219Y-89522054D02*
X126835076Y-89426816D01*
X126835076Y-89426816D02*
X126930314Y-89331578D01*
X126930314Y-89331578D02*
X126977933Y-89236340D01*
G36*
X173266837Y-89906882D02*
G01*
X173337746Y-89942337D01*
X173362414Y-89967004D01*
X173392219Y-90026614D01*
X173392219Y-90074638D01*
X173362414Y-90134247D01*
X173337746Y-90158914D01*
X173266837Y-90194369D01*
X173098956Y-90236340D01*
X172885480Y-90236340D01*
X172717599Y-90194369D01*
X172646692Y-90158916D01*
X172622024Y-90134247D01*
X172592219Y-90074637D01*
X172592219Y-90026614D01*
X172622024Y-89967004D01*
X172646692Y-89942335D01*
X172717599Y-89906882D01*
X172885480Y-89864912D01*
X173098956Y-89864912D01*
X173266837Y-89906882D01*
G37*
G36*
X173337746Y-86751860D02*
G01*
X173362414Y-86776527D01*
X173392219Y-86836137D01*
X173392219Y-86931780D01*
X173362414Y-86991389D01*
X173337746Y-87016056D01*
X173278135Y-87045863D01*
X173039635Y-87045863D01*
X172980025Y-87016058D01*
X172955357Y-86991389D01*
X172925552Y-86931779D01*
X172925552Y-86836137D01*
X172955357Y-86776527D01*
X172980025Y-86751858D01*
X173039635Y-86722054D01*
X173278135Y-86722054D01*
X173337746Y-86751860D01*
G37*
G36*
X173703330Y-90547451D02*
G01*
X172281108Y-90547451D01*
X172281108Y-90003007D01*
X172392219Y-90003007D01*
X172392219Y-90098245D01*
X172394140Y-90117754D01*
X172395515Y-90121074D01*
X172395770Y-90124658D01*
X172402776Y-90142966D01*
X172450395Y-90238204D01*
X172455680Y-90246600D01*
X172456691Y-90249040D01*
X172458944Y-90251786D01*
X172460838Y-90254794D01*
X172462832Y-90256523D01*
X172469127Y-90264194D01*
X172516746Y-90311812D01*
X172524412Y-90318104D01*
X172526145Y-90320102D01*
X172529153Y-90321995D01*
X172531899Y-90324249D01*
X172534339Y-90325259D01*
X172542736Y-90330545D01*
X172637973Y-90378164D01*
X172639401Y-90378710D01*
X172639981Y-90379140D01*
X172648157Y-90382061D01*
X172656282Y-90385170D01*
X172657002Y-90385221D01*
X172658441Y-90385735D01*
X172848917Y-90433354D01*
X172852298Y-90433854D01*
X172853662Y-90434419D01*
X172861012Y-90435142D01*
X172868310Y-90436222D01*
X172869768Y-90436004D01*
X172873171Y-90436340D01*
X173111266Y-90436340D01*
X173114668Y-90436004D01*
X173116127Y-90436222D01*
X173123424Y-90435142D01*
X173130775Y-90434419D01*
X173132138Y-90433854D01*
X173135520Y-90433354D01*
X173325995Y-90385735D01*
X173327432Y-90385221D01*
X173328155Y-90385170D01*
X173336279Y-90382061D01*
X173344456Y-90379140D01*
X173345036Y-90378709D01*
X173346463Y-90378164D01*
X173441701Y-90330545D01*
X173450093Y-90325261D01*
X173452537Y-90324250D01*
X173455286Y-90321993D01*
X173458291Y-90320102D01*
X173460020Y-90318107D01*
X173467690Y-90311813D01*
X173515310Y-90264195D01*
X173521603Y-90256526D01*
X173523600Y-90254795D01*
X173525493Y-90251786D01*
X173527747Y-90249041D01*
X173528757Y-90246600D01*
X173534043Y-90238204D01*
X173581662Y-90142967D01*
X173588668Y-90124658D01*
X173588922Y-90121074D01*
X173590298Y-90117754D01*
X173592219Y-90098245D01*
X173592219Y-90003007D01*
X173590298Y-89983498D01*
X173588922Y-89980177D01*
X173588668Y-89976594D01*
X173581662Y-89958285D01*
X173534043Y-89863048D01*
X173528757Y-89854651D01*
X173527747Y-89852211D01*
X173525493Y-89849465D01*
X173523600Y-89846457D01*
X173521603Y-89844725D01*
X173515310Y-89837057D01*
X173467690Y-89789439D01*
X173460020Y-89783144D01*
X173458291Y-89781150D01*
X173455286Y-89779258D01*
X173452537Y-89777002D01*
X173450093Y-89775990D01*
X173441701Y-89770707D01*
X173346463Y-89723088D01*
X173345036Y-89722542D01*
X173344456Y-89722112D01*
X173336279Y-89719190D01*
X173328155Y-89716082D01*
X173327432Y-89716030D01*
X173325995Y-89715517D01*
X173135520Y-89667898D01*
X173132138Y-89667397D01*
X173130775Y-89666833D01*
X173123424Y-89666109D01*
X173116127Y-89665030D01*
X173114668Y-89665247D01*
X173111266Y-89664912D01*
X172873171Y-89664912D01*
X172869768Y-89665247D01*
X172868310Y-89665030D01*
X172861012Y-89666109D01*
X172853662Y-89666833D01*
X172852298Y-89667397D01*
X172848917Y-89667898D01*
X172658441Y-89715517D01*
X172657002Y-89716030D01*
X172656282Y-89716082D01*
X172648157Y-89719190D01*
X172639981Y-89722112D01*
X172639401Y-89722541D01*
X172637973Y-89723088D01*
X172542736Y-89770707D01*
X172534339Y-89775992D01*
X172531899Y-89777003D01*
X172529153Y-89779256D01*
X172526145Y-89781150D01*
X172524412Y-89783147D01*
X172516746Y-89789440D01*
X172469127Y-89837058D01*
X172462832Y-89844728D01*
X172460838Y-89846458D01*
X172458944Y-89849465D01*
X172456691Y-89852212D01*
X172455680Y-89854651D01*
X172450395Y-89863048D01*
X172402776Y-89958286D01*
X172395770Y-89976594D01*
X172395515Y-89980177D01*
X172394140Y-89983498D01*
X172392219Y-90003007D01*
X172281108Y-90003007D01*
X172281108Y-89098140D01*
X172392219Y-89098140D01*
X172394140Y-89107850D01*
X172394140Y-89117754D01*
X172397889Y-89126806D01*
X172399791Y-89136417D01*
X172405283Y-89144655D01*
X172409072Y-89153802D01*
X172415998Y-89160728D01*
X172421434Y-89168882D01*
X172429662Y-89174392D01*
X172436662Y-89181392D01*
X172445713Y-89185141D01*
X172453854Y-89190593D01*
X172463561Y-89192534D01*
X172472710Y-89196324D01*
X172492012Y-89198224D01*
X172492114Y-89198245D01*
X172492148Y-89198238D01*
X172492219Y-89198245D01*
X173392219Y-89198245D01*
X173392219Y-89383959D01*
X173394140Y-89403468D01*
X173409072Y-89439516D01*
X173436662Y-89467106D01*
X173472710Y-89482038D01*
X173511728Y-89482038D01*
X173547776Y-89467106D01*
X173575366Y-89439516D01*
X173590298Y-89403468D01*
X173592219Y-89383959D01*
X173592219Y-88812531D01*
X173590298Y-88793022D01*
X173575366Y-88756974D01*
X173547776Y-88729384D01*
X173511728Y-88714452D01*
X173472710Y-88714452D01*
X173436662Y-88729384D01*
X173409072Y-88756974D01*
X173394140Y-88793022D01*
X173392219Y-88812531D01*
X173392219Y-88998245D01*
X172781260Y-88998245D01*
X172801025Y-88978480D01*
X172807316Y-88970813D01*
X172809314Y-88969081D01*
X172811209Y-88966069D01*
X172813461Y-88963326D01*
X172814470Y-88960888D01*
X172819757Y-88952490D01*
X172867376Y-88857253D01*
X172874382Y-88838944D01*
X172877148Y-88800024D01*
X172864809Y-88763008D01*
X172839244Y-88733531D01*
X172804346Y-88716082D01*
X172765426Y-88713317D01*
X172728410Y-88725655D01*
X172698933Y-88751220D01*
X172688490Y-88767810D01*
X172648129Y-88848532D01*
X172571365Y-88925296D01*
X172436749Y-89015040D01*
X172436694Y-89015084D01*
X172436662Y-89015098D01*
X172436588Y-89015171D01*
X172421582Y-89027460D01*
X172416071Y-89035688D01*
X172409072Y-89042688D01*
X172405322Y-89051739D01*
X172399871Y-89059880D01*
X172397929Y-89069587D01*
X172394140Y-89078736D01*
X172394140Y-89088535D01*
X172392219Y-89098140D01*
X172281108Y-89098140D01*
X172281108Y-87554926D01*
X172394140Y-87554926D01*
X172394140Y-87593944D01*
X172409072Y-87629992D01*
X172436662Y-87657582D01*
X172472710Y-87672514D01*
X172492219Y-87674435D01*
X173325754Y-87674435D01*
X173370064Y-87696589D01*
X173402776Y-87762013D01*
X173413219Y-87778603D01*
X173442696Y-87804168D01*
X173479712Y-87816506D01*
X173518632Y-87813741D01*
X173553530Y-87796292D01*
X173579095Y-87766815D01*
X173591434Y-87729799D01*
X173588668Y-87690879D01*
X173581662Y-87672570D01*
X173534043Y-87577333D01*
X173531989Y-87574070D01*
X173531476Y-87572530D01*
X173529812Y-87570612D01*
X173523600Y-87560742D01*
X173514125Y-87552525D01*
X173505911Y-87543054D01*
X173496039Y-87536840D01*
X173494123Y-87535178D01*
X173492584Y-87534664D01*
X173489321Y-87532611D01*
X173394082Y-87484992D01*
X173375773Y-87477986D01*
X173372190Y-87477731D01*
X173368870Y-87476356D01*
X173349361Y-87474435D01*
X172492219Y-87474435D01*
X172472710Y-87476356D01*
X172436662Y-87491288D01*
X172409072Y-87518878D01*
X172394140Y-87554926D01*
X172281108Y-87554926D01*
X172281108Y-86812530D01*
X172725552Y-86812530D01*
X172725552Y-86955387D01*
X172727473Y-86974896D01*
X172728848Y-86978216D01*
X172729103Y-86981800D01*
X172736109Y-87000108D01*
X172783728Y-87095346D01*
X172789013Y-87103742D01*
X172790024Y-87106182D01*
X172792277Y-87108928D01*
X172794171Y-87111936D01*
X172796165Y-87113665D01*
X172802460Y-87121336D01*
X172850079Y-87168954D01*
X172857745Y-87175246D01*
X172859478Y-87177244D01*
X172862486Y-87179137D01*
X172865232Y-87181391D01*
X172867672Y-87182401D01*
X172876069Y-87187687D01*
X172971306Y-87235306D01*
X172989615Y-87242312D01*
X172993198Y-87242566D01*
X172996519Y-87243942D01*
X173016028Y-87245863D01*
X173301742Y-87245863D01*
X173321251Y-87243942D01*
X173324571Y-87242566D01*
X173328155Y-87242312D01*
X173346463Y-87235306D01*
X173441701Y-87187687D01*
X173450093Y-87182403D01*
X173452537Y-87181392D01*
X173455286Y-87179135D01*
X173458291Y-87177244D01*
X173460020Y-87175249D01*
X173467690Y-87168955D01*
X173515310Y-87121337D01*
X173521603Y-87113668D01*
X173523600Y-87111937D01*
X173525493Y-87108928D01*
X173527747Y-87106183D01*
X173528757Y-87103742D01*
X173534043Y-87095346D01*
X173581662Y-87000109D01*
X173588668Y-86981800D01*
X173588922Y-86978216D01*
X173590298Y-86974896D01*
X173592219Y-86955387D01*
X173592219Y-86812530D01*
X173590298Y-86793021D01*
X173588922Y-86789700D01*
X173588668Y-86786117D01*
X173581662Y-86767808D01*
X173534043Y-86672571D01*
X173528757Y-86664174D01*
X173527747Y-86661734D01*
X173525493Y-86658988D01*
X173523600Y-86655980D01*
X173521603Y-86654248D01*
X173515310Y-86646580D01*
X173467690Y-86598962D01*
X173460020Y-86592667D01*
X173458291Y-86590673D01*
X173455286Y-86588781D01*
X173452537Y-86586525D01*
X173450093Y-86585513D01*
X173441701Y-86580230D01*
X173346463Y-86532611D01*
X173328155Y-86525605D01*
X173324571Y-86525350D01*
X173321251Y-86523975D01*
X173301742Y-86522054D01*
X173016028Y-86522054D01*
X172996519Y-86523975D01*
X172993198Y-86525350D01*
X172989615Y-86525605D01*
X172971306Y-86532611D01*
X172876069Y-86580230D01*
X172867672Y-86585515D01*
X172865232Y-86586526D01*
X172862486Y-86588779D01*
X172859478Y-86590673D01*
X172857745Y-86592670D01*
X172850079Y-86598963D01*
X172802460Y-86646581D01*
X172796165Y-86654251D01*
X172794171Y-86655981D01*
X172792277Y-86658988D01*
X172790024Y-86661735D01*
X172789013Y-86664174D01*
X172783728Y-86672571D01*
X172736109Y-86767809D01*
X172729103Y-86786117D01*
X172728848Y-86789700D01*
X172727473Y-86793021D01*
X172725552Y-86812530D01*
X172281108Y-86812530D01*
X172281108Y-85955387D01*
X172392219Y-85955387D01*
X172392219Y-86050625D01*
X172393191Y-86060498D01*
X172393004Y-86063132D01*
X172393791Y-86066595D01*
X172394140Y-86070134D01*
X172395151Y-86072576D01*
X172397351Y-86082248D01*
X172444970Y-86225104D01*
X172452961Y-86243005D01*
X172455316Y-86245720D01*
X172456691Y-86249039D01*
X172469127Y-86264193D01*
X172516746Y-86311811D01*
X172531899Y-86324248D01*
X172567948Y-86339179D01*
X172606966Y-86339179D01*
X172643014Y-86324248D01*
X172670604Y-86296658D01*
X172685535Y-86260610D01*
X172685535Y-86221592D01*
X172670604Y-86185543D01*
X172658167Y-86170390D01*
X172627240Y-86139463D01*
X172592219Y-86034398D01*
X172592219Y-85971614D01*
X172627240Y-85866549D01*
X172694313Y-85799477D01*
X172765218Y-85764024D01*
X172933099Y-85722054D01*
X173051337Y-85722054D01*
X173219218Y-85764024D01*
X173290127Y-85799478D01*
X173357197Y-85866548D01*
X173392219Y-85971613D01*
X173392219Y-86034398D01*
X173357197Y-86139463D01*
X173326270Y-86170390D01*
X173313833Y-86185543D01*
X173298902Y-86221591D01*
X173298901Y-86260609D01*
X173313832Y-86296658D01*
X173341422Y-86324248D01*
X173377470Y-86339179D01*
X173416488Y-86339180D01*
X173452537Y-86324249D01*
X173467690Y-86311812D01*
X173515310Y-86264194D01*
X173527747Y-86249040D01*
X173529122Y-86245720D01*
X173531477Y-86243005D01*
X173539468Y-86225105D01*
X173587087Y-86082248D01*
X173589286Y-86072575D01*
X173590298Y-86070134D01*
X173590646Y-86066596D01*
X173591434Y-86063133D01*
X173591246Y-86060498D01*
X173592219Y-86050625D01*
X173592219Y-85955387D01*
X173591246Y-85945513D01*
X173591434Y-85942879D01*
X173590646Y-85939415D01*
X173590298Y-85935878D01*
X173589286Y-85933436D01*
X173587087Y-85923764D01*
X173539468Y-85780907D01*
X173531477Y-85763007D01*
X173529122Y-85760291D01*
X173527747Y-85756972D01*
X173515311Y-85741819D01*
X173420071Y-85646581D01*
X173412401Y-85640286D01*
X173410672Y-85638292D01*
X173407667Y-85636400D01*
X173404918Y-85634144D01*
X173402474Y-85633131D01*
X173394082Y-85627849D01*
X173298844Y-85580230D01*
X173297417Y-85579684D01*
X173296837Y-85579254D01*
X173288660Y-85576332D01*
X173280536Y-85573224D01*
X173279813Y-85573172D01*
X173278376Y-85572659D01*
X173087901Y-85525040D01*
X173084519Y-85524539D01*
X173083156Y-85523975D01*
X173075805Y-85523251D01*
X173068508Y-85522172D01*
X173067049Y-85522389D01*
X173063647Y-85522054D01*
X172920790Y-85522054D01*
X172917387Y-85522389D01*
X172915929Y-85522172D01*
X172908631Y-85523251D01*
X172901281Y-85523975D01*
X172899917Y-85524539D01*
X172896536Y-85525040D01*
X172706060Y-85572659D01*
X172704621Y-85573172D01*
X172703901Y-85573224D01*
X172695776Y-85576332D01*
X172687600Y-85579254D01*
X172687020Y-85579683D01*
X172685592Y-85580230D01*
X172590355Y-85627849D01*
X172581956Y-85633135D01*
X172579519Y-85634145D01*
X172576775Y-85636396D01*
X172573764Y-85638292D01*
X172572031Y-85640289D01*
X172564365Y-85646581D01*
X172469127Y-85741819D01*
X172456691Y-85756973D01*
X172455316Y-85760291D01*
X172452961Y-85763007D01*
X172444970Y-85780908D01*
X172397351Y-85923764D01*
X172395151Y-85933435D01*
X172394140Y-85935878D01*
X172393791Y-85939416D01*
X172393004Y-85942880D01*
X172393191Y-85945513D01*
X172392219Y-85955387D01*
X172281108Y-85955387D01*
X172281108Y-85410943D01*
X173703330Y-85410943D01*
X173703330Y-90547451D01*
G37*
G36*
X170456792Y-88967336D02*
G01*
X170481461Y-88992004D01*
X170511266Y-89051614D01*
X170511266Y-89194876D01*
X170481461Y-89254485D01*
X170456792Y-89279153D01*
X170397183Y-89308959D01*
X170206302Y-89308959D01*
X170146692Y-89279154D01*
X170122024Y-89254485D01*
X170092219Y-89194875D01*
X170092219Y-89051614D01*
X170122024Y-88992004D01*
X170146692Y-88967335D01*
X170206302Y-88937531D01*
X170397183Y-88937531D01*
X170456792Y-88967336D01*
G37*
G36*
X170837746Y-86776860D02*
G01*
X170862414Y-86801527D01*
X170892219Y-86861137D01*
X170892219Y-86956780D01*
X170862414Y-87016389D01*
X170837746Y-87041056D01*
X170778135Y-87070863D01*
X170539635Y-87070863D01*
X170480025Y-87041058D01*
X170455357Y-87016389D01*
X170425552Y-86956779D01*
X170425552Y-86861137D01*
X170455357Y-86801527D01*
X170480025Y-86776858D01*
X170539635Y-86747054D01*
X170778135Y-86747054D01*
X170837746Y-86776860D01*
G37*
G36*
X171203330Y-89620070D02*
G01*
X169781108Y-89620070D01*
X169781108Y-89028007D01*
X169892219Y-89028007D01*
X169892219Y-89218483D01*
X169894140Y-89237992D01*
X169895515Y-89241312D01*
X169895770Y-89244896D01*
X169902776Y-89263204D01*
X169950395Y-89358442D01*
X169955680Y-89366838D01*
X169956691Y-89369278D01*
X169958944Y-89372024D01*
X169960838Y-89375032D01*
X169962832Y-89376761D01*
X169969127Y-89384432D01*
X170016746Y-89432050D01*
X170024412Y-89438342D01*
X170026145Y-89440340D01*
X170029153Y-89442233D01*
X170031899Y-89444487D01*
X170034339Y-89445497D01*
X170042736Y-89450783D01*
X170137973Y-89498402D01*
X170156282Y-89505408D01*
X170159865Y-89505662D01*
X170163186Y-89507038D01*
X170182695Y-89508959D01*
X170563647Y-89508959D01*
X170567049Y-89508623D01*
X170568508Y-89508841D01*
X170575805Y-89507761D01*
X170583156Y-89507038D01*
X170584519Y-89506473D01*
X170587901Y-89505973D01*
X170778376Y-89458354D01*
X170789871Y-89454247D01*
X170792295Y-89453768D01*
X170794491Y-89452596D01*
X170796837Y-89451759D01*
X170798823Y-89450287D01*
X170809593Y-89444545D01*
X170952450Y-89349307D01*
X170952501Y-89349264D01*
X170952537Y-89349250D01*
X170960119Y-89343026D01*
X170967617Y-89336887D01*
X170967637Y-89336855D01*
X170967690Y-89336813D01*
X171015310Y-89289195D01*
X171021603Y-89281526D01*
X171023600Y-89279795D01*
X171025493Y-89276786D01*
X171027747Y-89274041D01*
X171028757Y-89271600D01*
X171034043Y-89263204D01*
X171081662Y-89167967D01*
X171088668Y-89149658D01*
X171088922Y-89146074D01*
X171090298Y-89142754D01*
X171092219Y-89123245D01*
X171092219Y-88932769D01*
X171090298Y-88913260D01*
X171075366Y-88877212D01*
X171047776Y-88849622D01*
X171011728Y-88834690D01*
X170972710Y-88834690D01*
X170936662Y-88849622D01*
X170909072Y-88877212D01*
X170894140Y-88913260D01*
X170892219Y-88932769D01*
X170892219Y-89099638D01*
X170862414Y-89159247D01*
X170833272Y-89188388D01*
X170713065Y-89268527D01*
X170695902Y-89272817D01*
X170700709Y-89263205D01*
X170707715Y-89244896D01*
X170707969Y-89241312D01*
X170709345Y-89237992D01*
X170711266Y-89218483D01*
X170711266Y-89028007D01*
X170709345Y-89008498D01*
X170707969Y-89005177D01*
X170707715Y-89001594D01*
X170700709Y-88983285D01*
X170653090Y-88888048D01*
X170647804Y-88879651D01*
X170646794Y-88877211D01*
X170644540Y-88874465D01*
X170642647Y-88871457D01*
X170640649Y-88869724D01*
X170634357Y-88862058D01*
X170586739Y-88814439D01*
X170579068Y-88808144D01*
X170577339Y-88806150D01*
X170574331Y-88804256D01*
X170571585Y-88802003D01*
X170569145Y-88800992D01*
X170560749Y-88795707D01*
X170465511Y-88748088D01*
X170447203Y-88741082D01*
X170443619Y-88740827D01*
X170440299Y-88739452D01*
X170420790Y-88737531D01*
X170182695Y-88737531D01*
X170163186Y-88739452D01*
X170159865Y-88740827D01*
X170156282Y-88741082D01*
X170137973Y-88748088D01*
X170042736Y-88795707D01*
X170034339Y-88800992D01*
X170031899Y-88802003D01*
X170029153Y-88804256D01*
X170026145Y-88806150D01*
X170024412Y-88808147D01*
X170016746Y-88814440D01*
X169969127Y-88862058D01*
X169962832Y-88869728D01*
X169960838Y-88871458D01*
X169958944Y-88874465D01*
X169956691Y-88877212D01*
X169955680Y-88879651D01*
X169950395Y-88888048D01*
X169902776Y-88983286D01*
X169895770Y-89001594D01*
X169895515Y-89005177D01*
X169894140Y-89008498D01*
X169892219Y-89028007D01*
X169781108Y-89028007D01*
X169781108Y-87579926D01*
X169894140Y-87579926D01*
X169894140Y-87618944D01*
X169909072Y-87654992D01*
X169936662Y-87682582D01*
X169972710Y-87697514D01*
X169992219Y-87699435D01*
X170825754Y-87699435D01*
X170870064Y-87721589D01*
X170902776Y-87787013D01*
X170913219Y-87803603D01*
X170942696Y-87829168D01*
X170979712Y-87841506D01*
X171018632Y-87838741D01*
X171053530Y-87821292D01*
X171079095Y-87791815D01*
X171091434Y-87754799D01*
X171088668Y-87715879D01*
X171081662Y-87697570D01*
X171034043Y-87602333D01*
X171031989Y-87599070D01*
X171031476Y-87597530D01*
X171029812Y-87595612D01*
X171023600Y-87585742D01*
X171014125Y-87577525D01*
X171005911Y-87568054D01*
X170996039Y-87561840D01*
X170994123Y-87560178D01*
X170992584Y-87559664D01*
X170989321Y-87557611D01*
X170894082Y-87509992D01*
X170875773Y-87502986D01*
X170872190Y-87502731D01*
X170868870Y-87501356D01*
X170849361Y-87499435D01*
X169992219Y-87499435D01*
X169972710Y-87501356D01*
X169936662Y-87516288D01*
X169909072Y-87543878D01*
X169894140Y-87579926D01*
X169781108Y-87579926D01*
X169781108Y-86837530D01*
X170225552Y-86837530D01*
X170225552Y-86980387D01*
X170227473Y-86999896D01*
X170228848Y-87003216D01*
X170229103Y-87006800D01*
X170236109Y-87025108D01*
X170283728Y-87120346D01*
X170289013Y-87128742D01*
X170290024Y-87131182D01*
X170292277Y-87133928D01*
X170294171Y-87136936D01*
X170296165Y-87138665D01*
X170302460Y-87146336D01*
X170350079Y-87193954D01*
X170357745Y-87200246D01*
X170359478Y-87202244D01*
X170362486Y-87204137D01*
X170365232Y-87206391D01*
X170367672Y-87207401D01*
X170376069Y-87212687D01*
X170471306Y-87260306D01*
X170489615Y-87267312D01*
X170493198Y-87267566D01*
X170496519Y-87268942D01*
X170516028Y-87270863D01*
X170801742Y-87270863D01*
X170821251Y-87268942D01*
X170824571Y-87267566D01*
X170828155Y-87267312D01*
X170846463Y-87260306D01*
X170941701Y-87212687D01*
X170950093Y-87207403D01*
X170952537Y-87206392D01*
X170955286Y-87204135D01*
X170958291Y-87202244D01*
X170960020Y-87200249D01*
X170967690Y-87193955D01*
X171015310Y-87146337D01*
X171021603Y-87138668D01*
X171023600Y-87136937D01*
X171025493Y-87133928D01*
X171027747Y-87131183D01*
X171028757Y-87128742D01*
X171034043Y-87120346D01*
X171081662Y-87025109D01*
X171088668Y-87006800D01*
X171088922Y-87003216D01*
X171090298Y-86999896D01*
X171092219Y-86980387D01*
X171092219Y-86837530D01*
X171090298Y-86818021D01*
X171088922Y-86814700D01*
X171088668Y-86811117D01*
X171081662Y-86792808D01*
X171034043Y-86697571D01*
X171028757Y-86689174D01*
X171027747Y-86686734D01*
X171025493Y-86683988D01*
X171023600Y-86680980D01*
X171021603Y-86679248D01*
X171015310Y-86671580D01*
X170967690Y-86623962D01*
X170960020Y-86617667D01*
X170958291Y-86615673D01*
X170955286Y-86613781D01*
X170952537Y-86611525D01*
X170950093Y-86610513D01*
X170941701Y-86605230D01*
X170846463Y-86557611D01*
X170828155Y-86550605D01*
X170824571Y-86550350D01*
X170821251Y-86548975D01*
X170801742Y-86547054D01*
X170516028Y-86547054D01*
X170496519Y-86548975D01*
X170493198Y-86550350D01*
X170489615Y-86550605D01*
X170471306Y-86557611D01*
X170376069Y-86605230D01*
X170367672Y-86610515D01*
X170365232Y-86611526D01*
X170362486Y-86613779D01*
X170359478Y-86615673D01*
X170357745Y-86617670D01*
X170350079Y-86623963D01*
X170302460Y-86671581D01*
X170296165Y-86679251D01*
X170294171Y-86680981D01*
X170292277Y-86683988D01*
X170290024Y-86686735D01*
X170289013Y-86689174D01*
X170283728Y-86697571D01*
X170236109Y-86792809D01*
X170229103Y-86811117D01*
X170228848Y-86814700D01*
X170227473Y-86818021D01*
X170225552Y-86837530D01*
X169781108Y-86837530D01*
X169781108Y-85980387D01*
X169892219Y-85980387D01*
X169892219Y-86075625D01*
X169893191Y-86085498D01*
X169893004Y-86088132D01*
X169893791Y-86091595D01*
X169894140Y-86095134D01*
X169895151Y-86097576D01*
X169897351Y-86107248D01*
X169944970Y-86250104D01*
X169952961Y-86268005D01*
X169955316Y-86270720D01*
X169956691Y-86274039D01*
X169969127Y-86289193D01*
X170016746Y-86336811D01*
X170031899Y-86349248D01*
X170067948Y-86364179D01*
X170106966Y-86364179D01*
X170143014Y-86349248D01*
X170170604Y-86321658D01*
X170185535Y-86285610D01*
X170185535Y-86246592D01*
X170170604Y-86210543D01*
X170158167Y-86195390D01*
X170127240Y-86164463D01*
X170092219Y-86059398D01*
X170092219Y-85996614D01*
X170127240Y-85891549D01*
X170194313Y-85824477D01*
X170265218Y-85789024D01*
X170433099Y-85747054D01*
X170551337Y-85747054D01*
X170719218Y-85789024D01*
X170790127Y-85824478D01*
X170857197Y-85891548D01*
X170892219Y-85996613D01*
X170892219Y-86059398D01*
X170857197Y-86164463D01*
X170826270Y-86195390D01*
X170813833Y-86210543D01*
X170798902Y-86246591D01*
X170798901Y-86285609D01*
X170813832Y-86321658D01*
X170841422Y-86349248D01*
X170877470Y-86364179D01*
X170916488Y-86364180D01*
X170952537Y-86349249D01*
X170967690Y-86336812D01*
X171015310Y-86289194D01*
X171027747Y-86274040D01*
X171029122Y-86270720D01*
X171031477Y-86268005D01*
X171039468Y-86250105D01*
X171087087Y-86107248D01*
X171089286Y-86097575D01*
X171090298Y-86095134D01*
X171090646Y-86091596D01*
X171091434Y-86088133D01*
X171091246Y-86085498D01*
X171092219Y-86075625D01*
X171092219Y-85980387D01*
X171091246Y-85970513D01*
X171091434Y-85967879D01*
X171090646Y-85964415D01*
X171090298Y-85960878D01*
X171089286Y-85958436D01*
X171087087Y-85948764D01*
X171039468Y-85805907D01*
X171031477Y-85788007D01*
X171029122Y-85785291D01*
X171027747Y-85781972D01*
X171015311Y-85766819D01*
X170920071Y-85671581D01*
X170912401Y-85665286D01*
X170910672Y-85663292D01*
X170907667Y-85661400D01*
X170904918Y-85659144D01*
X170902474Y-85658131D01*
X170894082Y-85652849D01*
X170798844Y-85605230D01*
X170797417Y-85604684D01*
X170796837Y-85604254D01*
X170788660Y-85601332D01*
X170780536Y-85598224D01*
X170779813Y-85598172D01*
X170778376Y-85597659D01*
X170587901Y-85550040D01*
X170584519Y-85549539D01*
X170583156Y-85548975D01*
X170575805Y-85548251D01*
X170568508Y-85547172D01*
X170567049Y-85547389D01*
X170563647Y-85547054D01*
X170420790Y-85547054D01*
X170417387Y-85547389D01*
X170415929Y-85547172D01*
X170408631Y-85548251D01*
X170401281Y-85548975D01*
X170399917Y-85549539D01*
X170396536Y-85550040D01*
X170206060Y-85597659D01*
X170204621Y-85598172D01*
X170203901Y-85598224D01*
X170195776Y-85601332D01*
X170187600Y-85604254D01*
X170187020Y-85604683D01*
X170185592Y-85605230D01*
X170090355Y-85652849D01*
X170081956Y-85658135D01*
X170079519Y-85659145D01*
X170076775Y-85661396D01*
X170073764Y-85663292D01*
X170072031Y-85665289D01*
X170064365Y-85671581D01*
X169969127Y-85766819D01*
X169956691Y-85781973D01*
X169955316Y-85785291D01*
X169952961Y-85788007D01*
X169944970Y-85805908D01*
X169897351Y-85948764D01*
X169895151Y-85958435D01*
X169894140Y-85960878D01*
X169893791Y-85964416D01*
X169893004Y-85967880D01*
X169893191Y-85970513D01*
X169892219Y-85980387D01*
X169781108Y-85980387D01*
X169781108Y-85435943D01*
X171203330Y-85435943D01*
X171203330Y-89620070D01*
G37*
G36*
X167766316Y-88967336D02*
G01*
X167790985Y-88992004D01*
X167820790Y-89051614D01*
X167820790Y-89194876D01*
X167790985Y-89254485D01*
X167766316Y-89279153D01*
X167706707Y-89308959D01*
X167706302Y-89308959D01*
X167646692Y-89279154D01*
X167622024Y-89254485D01*
X167592219Y-89194875D01*
X167592219Y-89051614D01*
X167622024Y-88992004D01*
X167646692Y-88967335D01*
X167706302Y-88937531D01*
X167706707Y-88937531D01*
X167766316Y-88967336D01*
G37*
G36*
X168337746Y-88967337D02*
G01*
X168362414Y-88992004D01*
X168392219Y-89051614D01*
X168392219Y-89194876D01*
X168362414Y-89254485D01*
X168337746Y-89279152D01*
X168278135Y-89308959D01*
X168134873Y-89308959D01*
X168075263Y-89279154D01*
X168050595Y-89254485D01*
X168020790Y-89194875D01*
X168020790Y-89051614D01*
X168050595Y-88992004D01*
X168075263Y-88967335D01*
X168134873Y-88937531D01*
X168278135Y-88937531D01*
X168337746Y-88967337D01*
G37*
G36*
X168337746Y-86776860D02*
G01*
X168362414Y-86801527D01*
X168392219Y-86861137D01*
X168392219Y-86956780D01*
X168362414Y-87016389D01*
X168337746Y-87041056D01*
X168278135Y-87070863D01*
X168039635Y-87070863D01*
X167980025Y-87041058D01*
X167955357Y-87016389D01*
X167925552Y-86956779D01*
X167925552Y-86861137D01*
X167955357Y-86801527D01*
X167980025Y-86776858D01*
X168039635Y-86747054D01*
X168278135Y-86747054D01*
X168337746Y-86776860D01*
G37*
G36*
X168703330Y-89620070D02*
G01*
X167281108Y-89620070D01*
X167281108Y-89028007D01*
X167392219Y-89028007D01*
X167392219Y-89218483D01*
X167394140Y-89237992D01*
X167395515Y-89241312D01*
X167395770Y-89244896D01*
X167402776Y-89263204D01*
X167450395Y-89358442D01*
X167455680Y-89366838D01*
X167456691Y-89369278D01*
X167458944Y-89372024D01*
X167460838Y-89375032D01*
X167462832Y-89376761D01*
X167469127Y-89384432D01*
X167516746Y-89432050D01*
X167524412Y-89438342D01*
X167526145Y-89440340D01*
X167529153Y-89442233D01*
X167531899Y-89444487D01*
X167534339Y-89445497D01*
X167542736Y-89450783D01*
X167637973Y-89498402D01*
X167656282Y-89505408D01*
X167659865Y-89505662D01*
X167663186Y-89507038D01*
X167682695Y-89508959D01*
X167730314Y-89508959D01*
X167749823Y-89507038D01*
X167753143Y-89505662D01*
X167756727Y-89505408D01*
X167775035Y-89498402D01*
X167870273Y-89450783D01*
X167878669Y-89445497D01*
X167881109Y-89444487D01*
X167883855Y-89442233D01*
X167886863Y-89440340D01*
X167888592Y-89438345D01*
X167896263Y-89432051D01*
X167920789Y-89407523D01*
X167945317Y-89432050D01*
X167952983Y-89438342D01*
X167954716Y-89440340D01*
X167957724Y-89442233D01*
X167960470Y-89444487D01*
X167962910Y-89445497D01*
X167971307Y-89450783D01*
X168066544Y-89498402D01*
X168084853Y-89505408D01*
X168088436Y-89505662D01*
X168091757Y-89507038D01*
X168111266Y-89508959D01*
X168301742Y-89508959D01*
X168321251Y-89507038D01*
X168324571Y-89505662D01*
X168328155Y-89505408D01*
X168346463Y-89498402D01*
X168441701Y-89450783D01*
X168450093Y-89445499D01*
X168452537Y-89444488D01*
X168455286Y-89442231D01*
X168458291Y-89440340D01*
X168460020Y-89438345D01*
X168467690Y-89432051D01*
X168515310Y-89384433D01*
X168521603Y-89376764D01*
X168523600Y-89375033D01*
X168525493Y-89372024D01*
X168527747Y-89369279D01*
X168528757Y-89366838D01*
X168534043Y-89358442D01*
X168581662Y-89263205D01*
X168588668Y-89244896D01*
X168588922Y-89241312D01*
X168590298Y-89237992D01*
X168592219Y-89218483D01*
X168592219Y-89028007D01*
X168590298Y-89008498D01*
X168588922Y-89005177D01*
X168588668Y-89001594D01*
X168581662Y-88983285D01*
X168534043Y-88888048D01*
X168528757Y-88879651D01*
X168527747Y-88877211D01*
X168525493Y-88874465D01*
X168523600Y-88871457D01*
X168521603Y-88869725D01*
X168515310Y-88862057D01*
X168467690Y-88814439D01*
X168460020Y-88808144D01*
X168458291Y-88806150D01*
X168455286Y-88804258D01*
X168452537Y-88802002D01*
X168450093Y-88800990D01*
X168441701Y-88795707D01*
X168346463Y-88748088D01*
X168328155Y-88741082D01*
X168324571Y-88740827D01*
X168321251Y-88739452D01*
X168301742Y-88737531D01*
X168111266Y-88737531D01*
X168091757Y-88739452D01*
X168088436Y-88740827D01*
X168084853Y-88741082D01*
X168066544Y-88748088D01*
X167971307Y-88795707D01*
X167962910Y-88800992D01*
X167960470Y-88802003D01*
X167957724Y-88804256D01*
X167954716Y-88806150D01*
X167952983Y-88808147D01*
X167945317Y-88814440D01*
X167920789Y-88838966D01*
X167896263Y-88814439D01*
X167888592Y-88808144D01*
X167886863Y-88806150D01*
X167883855Y-88804256D01*
X167881109Y-88802003D01*
X167878669Y-88800992D01*
X167870273Y-88795707D01*
X167775035Y-88748088D01*
X167756727Y-88741082D01*
X167753143Y-88740827D01*
X167749823Y-88739452D01*
X167730314Y-88737531D01*
X167682695Y-88737531D01*
X167663186Y-88739452D01*
X167659865Y-88740827D01*
X167656282Y-88741082D01*
X167637973Y-88748088D01*
X167542736Y-88795707D01*
X167534339Y-88800992D01*
X167531899Y-88802003D01*
X167529153Y-88804256D01*
X167526145Y-88806150D01*
X167524412Y-88808147D01*
X167516746Y-88814440D01*
X167469127Y-88862058D01*
X167462832Y-88869728D01*
X167460838Y-88871458D01*
X167458944Y-88874465D01*
X167456691Y-88877212D01*
X167455680Y-88879651D01*
X167450395Y-88888048D01*
X167402776Y-88983286D01*
X167395770Y-89001594D01*
X167395515Y-89005177D01*
X167394140Y-89008498D01*
X167392219Y-89028007D01*
X167281108Y-89028007D01*
X167281108Y-87579926D01*
X167394140Y-87579926D01*
X167394140Y-87618944D01*
X167409072Y-87654992D01*
X167436662Y-87682582D01*
X167472710Y-87697514D01*
X167492219Y-87699435D01*
X168325754Y-87699435D01*
X168370064Y-87721589D01*
X168402776Y-87787013D01*
X168413219Y-87803603D01*
X168442696Y-87829168D01*
X168479712Y-87841506D01*
X168518632Y-87838741D01*
X168553530Y-87821292D01*
X168579095Y-87791815D01*
X168591434Y-87754799D01*
X168588668Y-87715879D01*
X168581662Y-87697570D01*
X168534043Y-87602333D01*
X168531989Y-87599070D01*
X168531476Y-87597530D01*
X168529812Y-87595612D01*
X168523600Y-87585742D01*
X168514125Y-87577525D01*
X168505911Y-87568054D01*
X168496039Y-87561840D01*
X168494123Y-87560178D01*
X168492584Y-87559664D01*
X168489321Y-87557611D01*
X168394082Y-87509992D01*
X168375773Y-87502986D01*
X168372190Y-87502731D01*
X168368870Y-87501356D01*
X168349361Y-87499435D01*
X167492219Y-87499435D01*
X167472710Y-87501356D01*
X167436662Y-87516288D01*
X167409072Y-87543878D01*
X167394140Y-87579926D01*
X167281108Y-87579926D01*
X167281108Y-86837530D01*
X167725552Y-86837530D01*
X167725552Y-86980387D01*
X167727473Y-86999896D01*
X167728848Y-87003216D01*
X167729103Y-87006800D01*
X167736109Y-87025108D01*
X167783728Y-87120346D01*
X167789013Y-87128742D01*
X167790024Y-87131182D01*
X167792277Y-87133928D01*
X167794171Y-87136936D01*
X167796165Y-87138665D01*
X167802460Y-87146336D01*
X167850079Y-87193954D01*
X167857745Y-87200246D01*
X167859478Y-87202244D01*
X167862486Y-87204137D01*
X167865232Y-87206391D01*
X167867672Y-87207401D01*
X167876069Y-87212687D01*
X167971306Y-87260306D01*
X167989615Y-87267312D01*
X167993198Y-87267566D01*
X167996519Y-87268942D01*
X168016028Y-87270863D01*
X168301742Y-87270863D01*
X168321251Y-87268942D01*
X168324571Y-87267566D01*
X168328155Y-87267312D01*
X168346463Y-87260306D01*
X168441701Y-87212687D01*
X168450093Y-87207403D01*
X168452537Y-87206392D01*
X168455286Y-87204135D01*
X168458291Y-87202244D01*
X168460020Y-87200249D01*
X168467690Y-87193955D01*
X168515310Y-87146337D01*
X168521603Y-87138668D01*
X168523600Y-87136937D01*
X168525493Y-87133928D01*
X168527747Y-87131183D01*
X168528757Y-87128742D01*
X168534043Y-87120346D01*
X168581662Y-87025109D01*
X168588668Y-87006800D01*
X168588922Y-87003216D01*
X168590298Y-86999896D01*
X168592219Y-86980387D01*
X168592219Y-86837530D01*
X168590298Y-86818021D01*
X168588922Y-86814700D01*
X168588668Y-86811117D01*
X168581662Y-86792808D01*
X168534043Y-86697571D01*
X168528757Y-86689174D01*
X168527747Y-86686734D01*
X168525493Y-86683988D01*
X168523600Y-86680980D01*
X168521603Y-86679248D01*
X168515310Y-86671580D01*
X168467690Y-86623962D01*
X168460020Y-86617667D01*
X168458291Y-86615673D01*
X168455286Y-86613781D01*
X168452537Y-86611525D01*
X168450093Y-86610513D01*
X168441701Y-86605230D01*
X168346463Y-86557611D01*
X168328155Y-86550605D01*
X168324571Y-86550350D01*
X168321251Y-86548975D01*
X168301742Y-86547054D01*
X168016028Y-86547054D01*
X167996519Y-86548975D01*
X167993198Y-86550350D01*
X167989615Y-86550605D01*
X167971306Y-86557611D01*
X167876069Y-86605230D01*
X167867672Y-86610515D01*
X167865232Y-86611526D01*
X167862486Y-86613779D01*
X167859478Y-86615673D01*
X167857745Y-86617670D01*
X167850079Y-86623963D01*
X167802460Y-86671581D01*
X167796165Y-86679251D01*
X167794171Y-86680981D01*
X167792277Y-86683988D01*
X167790024Y-86686735D01*
X167789013Y-86689174D01*
X167783728Y-86697571D01*
X167736109Y-86792809D01*
X167729103Y-86811117D01*
X167728848Y-86814700D01*
X167727473Y-86818021D01*
X167725552Y-86837530D01*
X167281108Y-86837530D01*
X167281108Y-85980387D01*
X167392219Y-85980387D01*
X167392219Y-86075625D01*
X167393191Y-86085498D01*
X167393004Y-86088132D01*
X167393791Y-86091595D01*
X167394140Y-86095134D01*
X167395151Y-86097576D01*
X167397351Y-86107248D01*
X167444970Y-86250104D01*
X167452961Y-86268005D01*
X167455316Y-86270720D01*
X167456691Y-86274039D01*
X167469127Y-86289193D01*
X167516746Y-86336811D01*
X167531899Y-86349248D01*
X167567948Y-86364179D01*
X167606966Y-86364179D01*
X167643014Y-86349248D01*
X167670604Y-86321658D01*
X167685535Y-86285610D01*
X167685535Y-86246592D01*
X167670604Y-86210543D01*
X167658167Y-86195390D01*
X167627240Y-86164463D01*
X167592219Y-86059398D01*
X167592219Y-85996614D01*
X167627240Y-85891549D01*
X167694313Y-85824477D01*
X167765218Y-85789024D01*
X167933099Y-85747054D01*
X168051337Y-85747054D01*
X168219218Y-85789024D01*
X168290127Y-85824478D01*
X168357197Y-85891548D01*
X168392219Y-85996613D01*
X168392219Y-86059398D01*
X168357197Y-86164463D01*
X168326270Y-86195390D01*
X168313833Y-86210543D01*
X168298902Y-86246591D01*
X168298901Y-86285609D01*
X168313832Y-86321658D01*
X168341422Y-86349248D01*
X168377470Y-86364179D01*
X168416488Y-86364180D01*
X168452537Y-86349249D01*
X168467690Y-86336812D01*
X168515310Y-86289194D01*
X168527747Y-86274040D01*
X168529122Y-86270720D01*
X168531477Y-86268005D01*
X168539468Y-86250105D01*
X168587087Y-86107248D01*
X168589286Y-86097575D01*
X168590298Y-86095134D01*
X168590646Y-86091596D01*
X168591434Y-86088133D01*
X168591246Y-86085498D01*
X168592219Y-86075625D01*
X168592219Y-85980387D01*
X168591246Y-85970513D01*
X168591434Y-85967879D01*
X168590646Y-85964415D01*
X168590298Y-85960878D01*
X168589286Y-85958436D01*
X168587087Y-85948764D01*
X168539468Y-85805907D01*
X168531477Y-85788007D01*
X168529122Y-85785291D01*
X168527747Y-85781972D01*
X168515311Y-85766819D01*
X168420071Y-85671581D01*
X168412401Y-85665286D01*
X168410672Y-85663292D01*
X168407667Y-85661400D01*
X168404918Y-85659144D01*
X168402474Y-85658131D01*
X168394082Y-85652849D01*
X168298844Y-85605230D01*
X168297417Y-85604684D01*
X168296837Y-85604254D01*
X168288660Y-85601332D01*
X168280536Y-85598224D01*
X168279813Y-85598172D01*
X168278376Y-85597659D01*
X168087901Y-85550040D01*
X168084519Y-85549539D01*
X168083156Y-85548975D01*
X168075805Y-85548251D01*
X168068508Y-85547172D01*
X168067049Y-85547389D01*
X168063647Y-85547054D01*
X167920790Y-85547054D01*
X167917387Y-85547389D01*
X167915929Y-85547172D01*
X167908631Y-85548251D01*
X167901281Y-85548975D01*
X167899917Y-85549539D01*
X167896536Y-85550040D01*
X167706060Y-85597659D01*
X167704621Y-85598172D01*
X167703901Y-85598224D01*
X167695776Y-85601332D01*
X167687600Y-85604254D01*
X167687020Y-85604683D01*
X167685592Y-85605230D01*
X167590355Y-85652849D01*
X167581956Y-85658135D01*
X167579519Y-85659145D01*
X167576775Y-85661396D01*
X167573764Y-85663292D01*
X167572031Y-85665289D01*
X167564365Y-85671581D01*
X167469127Y-85766819D01*
X167456691Y-85781973D01*
X167455316Y-85785291D01*
X167452961Y-85788007D01*
X167444970Y-85805908D01*
X167397351Y-85948764D01*
X167395151Y-85958435D01*
X167394140Y-85960878D01*
X167393791Y-85964416D01*
X167393004Y-85967880D01*
X167393191Y-85970513D01*
X167392219Y-85980387D01*
X167281108Y-85980387D01*
X167281108Y-85435943D01*
X168703330Y-85435943D01*
X168703330Y-89620070D01*
G37*
G36*
X165737746Y-86776860D02*
G01*
X165762414Y-86801527D01*
X165792219Y-86861137D01*
X165792219Y-86956780D01*
X165762414Y-87016389D01*
X165737746Y-87041056D01*
X165678135Y-87070863D01*
X165439635Y-87070863D01*
X165380025Y-87041058D01*
X165355357Y-87016389D01*
X165325552Y-86956779D01*
X165325552Y-86861137D01*
X165355357Y-86801527D01*
X165380025Y-86776858D01*
X165439635Y-86747054D01*
X165678135Y-86747054D01*
X165737746Y-86776860D01*
G37*
G36*
X166103330Y-89665998D02*
G01*
X164681108Y-89665998D01*
X164681108Y-88789912D01*
X164792219Y-88789912D01*
X164792219Y-89456578D01*
X164794140Y-89476087D01*
X164794377Y-89476660D01*
X164794385Y-89477282D01*
X164801851Y-89494703D01*
X164809072Y-89512135D01*
X164809509Y-89512572D01*
X164809755Y-89513145D01*
X164823303Y-89526366D01*
X164836662Y-89539725D01*
X164837236Y-89539962D01*
X164837680Y-89540396D01*
X164855212Y-89547409D01*
X164872710Y-89554657D01*
X164873332Y-89554657D01*
X164873907Y-89554887D01*
X164892799Y-89554657D01*
X164911728Y-89554657D01*
X164912301Y-89554419D01*
X164912923Y-89554412D01*
X164931611Y-89548493D01*
X165931611Y-89119922D01*
X165948785Y-89110471D01*
X165976037Y-89082546D01*
X165990528Y-89046319D01*
X165990052Y-89007304D01*
X165974682Y-88971440D01*
X165946758Y-88944189D01*
X165910530Y-88929698D01*
X165871515Y-88930173D01*
X165852827Y-88936093D01*
X164992219Y-89304923D01*
X164992219Y-88789912D01*
X164990298Y-88770403D01*
X164975366Y-88734355D01*
X164947776Y-88706765D01*
X164911728Y-88691833D01*
X164872710Y-88691833D01*
X164836662Y-88706765D01*
X164809072Y-88734355D01*
X164794140Y-88770403D01*
X164792219Y-88789912D01*
X164681108Y-88789912D01*
X164681108Y-87579926D01*
X164794140Y-87579926D01*
X164794140Y-87618944D01*
X164809072Y-87654992D01*
X164836662Y-87682582D01*
X164872710Y-87697514D01*
X164892219Y-87699435D01*
X165725754Y-87699435D01*
X165770064Y-87721589D01*
X165802776Y-87787013D01*
X165813219Y-87803603D01*
X165842696Y-87829168D01*
X165879712Y-87841506D01*
X165918632Y-87838741D01*
X165953530Y-87821292D01*
X165979095Y-87791815D01*
X165991434Y-87754799D01*
X165988668Y-87715879D01*
X165981662Y-87697570D01*
X165934043Y-87602333D01*
X165931989Y-87599070D01*
X165931476Y-87597530D01*
X165929812Y-87595612D01*
X165923600Y-87585742D01*
X165914125Y-87577525D01*
X165905911Y-87568054D01*
X165896039Y-87561840D01*
X165894123Y-87560178D01*
X165892584Y-87559664D01*
X165889321Y-87557611D01*
X165794082Y-87509992D01*
X165775773Y-87502986D01*
X165772190Y-87502731D01*
X165768870Y-87501356D01*
X165749361Y-87499435D01*
X164892219Y-87499435D01*
X164872710Y-87501356D01*
X164836662Y-87516288D01*
X164809072Y-87543878D01*
X164794140Y-87579926D01*
X164681108Y-87579926D01*
X164681108Y-86837530D01*
X165125552Y-86837530D01*
X165125552Y-86980387D01*
X165127473Y-86999896D01*
X165128848Y-87003216D01*
X165129103Y-87006800D01*
X165136109Y-87025108D01*
X165183728Y-87120346D01*
X165189013Y-87128742D01*
X165190024Y-87131182D01*
X165192277Y-87133928D01*
X165194171Y-87136936D01*
X165196165Y-87138665D01*
X165202460Y-87146336D01*
X165250079Y-87193954D01*
X165257745Y-87200246D01*
X165259478Y-87202244D01*
X165262486Y-87204137D01*
X165265232Y-87206391D01*
X165267672Y-87207401D01*
X165276069Y-87212687D01*
X165371306Y-87260306D01*
X165389615Y-87267312D01*
X165393198Y-87267566D01*
X165396519Y-87268942D01*
X165416028Y-87270863D01*
X165701742Y-87270863D01*
X165721251Y-87268942D01*
X165724571Y-87267566D01*
X165728155Y-87267312D01*
X165746463Y-87260306D01*
X165841701Y-87212687D01*
X165850093Y-87207403D01*
X165852537Y-87206392D01*
X165855286Y-87204135D01*
X165858291Y-87202244D01*
X165860020Y-87200249D01*
X165867690Y-87193955D01*
X165915310Y-87146337D01*
X165921603Y-87138668D01*
X165923600Y-87136937D01*
X165925493Y-87133928D01*
X165927747Y-87131183D01*
X165928757Y-87128742D01*
X165934043Y-87120346D01*
X165981662Y-87025109D01*
X165988668Y-87006800D01*
X165988922Y-87003216D01*
X165990298Y-86999896D01*
X165992219Y-86980387D01*
X165992219Y-86837530D01*
X165990298Y-86818021D01*
X165988922Y-86814700D01*
X165988668Y-86811117D01*
X165981662Y-86792808D01*
X165934043Y-86697571D01*
X165928757Y-86689174D01*
X165927747Y-86686734D01*
X165925493Y-86683988D01*
X165923600Y-86680980D01*
X165921603Y-86679248D01*
X165915310Y-86671580D01*
X165867690Y-86623962D01*
X165860020Y-86617667D01*
X165858291Y-86615673D01*
X165855286Y-86613781D01*
X165852537Y-86611525D01*
X165850093Y-86610513D01*
X165841701Y-86605230D01*
X165746463Y-86557611D01*
X165728155Y-86550605D01*
X165724571Y-86550350D01*
X165721251Y-86548975D01*
X165701742Y-86547054D01*
X165416028Y-86547054D01*
X165396519Y-86548975D01*
X165393198Y-86550350D01*
X165389615Y-86550605D01*
X165371306Y-86557611D01*
X165276069Y-86605230D01*
X165267672Y-86610515D01*
X165265232Y-86611526D01*
X165262486Y-86613779D01*
X165259478Y-86615673D01*
X165257745Y-86617670D01*
X165250079Y-86623963D01*
X165202460Y-86671581D01*
X165196165Y-86679251D01*
X165194171Y-86680981D01*
X165192277Y-86683988D01*
X165190024Y-86686735D01*
X165189013Y-86689174D01*
X165183728Y-86697571D01*
X165136109Y-86792809D01*
X165129103Y-86811117D01*
X165128848Y-86814700D01*
X165127473Y-86818021D01*
X165125552Y-86837530D01*
X164681108Y-86837530D01*
X164681108Y-85980387D01*
X164792219Y-85980387D01*
X164792219Y-86075625D01*
X164793191Y-86085498D01*
X164793004Y-86088132D01*
X164793791Y-86091595D01*
X164794140Y-86095134D01*
X164795151Y-86097576D01*
X164797351Y-86107248D01*
X164844970Y-86250104D01*
X164852961Y-86268005D01*
X164855316Y-86270720D01*
X164856691Y-86274039D01*
X164869127Y-86289193D01*
X164916746Y-86336811D01*
X164931899Y-86349248D01*
X164967948Y-86364179D01*
X165006966Y-86364179D01*
X165043014Y-86349248D01*
X165070604Y-86321658D01*
X165085535Y-86285610D01*
X165085535Y-86246592D01*
X165070604Y-86210543D01*
X165058167Y-86195390D01*
X165027240Y-86164463D01*
X164992219Y-86059398D01*
X164992219Y-85996614D01*
X165027240Y-85891549D01*
X165094313Y-85824477D01*
X165165218Y-85789024D01*
X165333099Y-85747054D01*
X165451337Y-85747054D01*
X165619218Y-85789024D01*
X165690127Y-85824478D01*
X165757197Y-85891548D01*
X165792219Y-85996613D01*
X165792219Y-86059398D01*
X165757197Y-86164463D01*
X165726270Y-86195390D01*
X165713833Y-86210543D01*
X165698902Y-86246591D01*
X165698901Y-86285609D01*
X165713832Y-86321658D01*
X165741422Y-86349248D01*
X165777470Y-86364179D01*
X165816488Y-86364180D01*
X165852537Y-86349249D01*
X165867690Y-86336812D01*
X165915310Y-86289194D01*
X165927747Y-86274040D01*
X165929122Y-86270720D01*
X165931477Y-86268005D01*
X165939468Y-86250105D01*
X165987087Y-86107248D01*
X165989286Y-86097575D01*
X165990298Y-86095134D01*
X165990646Y-86091596D01*
X165991434Y-86088133D01*
X165991246Y-86085498D01*
X165992219Y-86075625D01*
X165992219Y-85980387D01*
X165991246Y-85970513D01*
X165991434Y-85967879D01*
X165990646Y-85964415D01*
X165990298Y-85960878D01*
X165989286Y-85958436D01*
X165987087Y-85948764D01*
X165939468Y-85805907D01*
X165931477Y-85788007D01*
X165929122Y-85785291D01*
X165927747Y-85781972D01*
X165915311Y-85766819D01*
X165820071Y-85671581D01*
X165812401Y-85665286D01*
X165810672Y-85663292D01*
X165807667Y-85661400D01*
X165804918Y-85659144D01*
X165802474Y-85658131D01*
X165794082Y-85652849D01*
X165698844Y-85605230D01*
X165697417Y-85604684D01*
X165696837Y-85604254D01*
X165688660Y-85601332D01*
X165680536Y-85598224D01*
X165679813Y-85598172D01*
X165678376Y-85597659D01*
X165487901Y-85550040D01*
X165484519Y-85549539D01*
X165483156Y-85548975D01*
X165475805Y-85548251D01*
X165468508Y-85547172D01*
X165467049Y-85547389D01*
X165463647Y-85547054D01*
X165320790Y-85547054D01*
X165317387Y-85547389D01*
X165315929Y-85547172D01*
X165308631Y-85548251D01*
X165301281Y-85548975D01*
X165299917Y-85549539D01*
X165296536Y-85550040D01*
X165106060Y-85597659D01*
X165104621Y-85598172D01*
X165103901Y-85598224D01*
X165095776Y-85601332D01*
X165087600Y-85604254D01*
X165087020Y-85604683D01*
X165085592Y-85605230D01*
X164990355Y-85652849D01*
X164981956Y-85658135D01*
X164979519Y-85659145D01*
X164976775Y-85661396D01*
X164973764Y-85663292D01*
X164972031Y-85665289D01*
X164964365Y-85671581D01*
X164869127Y-85766819D01*
X164856691Y-85781973D01*
X164855316Y-85785291D01*
X164852961Y-85788007D01*
X164844970Y-85805908D01*
X164797351Y-85948764D01*
X164795151Y-85958435D01*
X164794140Y-85960878D01*
X164793791Y-85964416D01*
X164793004Y-85967880D01*
X164793191Y-85970513D01*
X164792219Y-85980387D01*
X164681108Y-85980387D01*
X164681108Y-85435943D01*
X166103330Y-85435943D01*
X166103330Y-89665998D01*
G37*
G36*
X158112746Y-88967337D02*
G01*
X158137414Y-88992004D01*
X158167219Y-89051614D01*
X158167219Y-89194876D01*
X158137414Y-89254485D01*
X158112746Y-89279152D01*
X158053135Y-89308959D01*
X157862254Y-89308959D01*
X157802644Y-89279154D01*
X157777976Y-89254485D01*
X157748171Y-89194875D01*
X157748171Y-89051614D01*
X157777976Y-88992004D01*
X157802644Y-88967335D01*
X157862254Y-88937531D01*
X158053135Y-88937531D01*
X158112746Y-88967337D01*
G37*
G36*
X158112746Y-86776860D02*
G01*
X158137414Y-86801527D01*
X158167219Y-86861137D01*
X158167219Y-86956780D01*
X158137414Y-87016389D01*
X158112746Y-87041056D01*
X158053135Y-87070863D01*
X157814635Y-87070863D01*
X157755025Y-87041058D01*
X157730357Y-87016389D01*
X157700552Y-86956779D01*
X157700552Y-86861137D01*
X157730357Y-86801527D01*
X157755025Y-86776858D01*
X157814635Y-86747054D01*
X158053135Y-86747054D01*
X158112746Y-86776860D01*
G37*
G36*
X158478330Y-89620070D02*
G01*
X157056108Y-89620070D01*
X157056108Y-89123245D01*
X157167219Y-89123245D01*
X157167219Y-89313721D01*
X157169140Y-89333230D01*
X157184072Y-89369278D01*
X157211662Y-89396868D01*
X157247710Y-89411800D01*
X157286728Y-89411800D01*
X157322776Y-89396868D01*
X157350366Y-89369278D01*
X157365298Y-89333230D01*
X157367219Y-89313721D01*
X157367219Y-89146852D01*
X157397024Y-89087242D01*
X157426165Y-89058100D01*
X157546372Y-88977962D01*
X157563534Y-88973672D01*
X157558728Y-88983286D01*
X157551722Y-89001594D01*
X157551467Y-89005177D01*
X157550092Y-89008498D01*
X157548171Y-89028007D01*
X157548171Y-89218483D01*
X157550092Y-89237992D01*
X157551467Y-89241312D01*
X157551722Y-89244896D01*
X157558728Y-89263204D01*
X157606347Y-89358442D01*
X157611632Y-89366838D01*
X157612643Y-89369278D01*
X157614896Y-89372024D01*
X157616790Y-89375032D01*
X157618784Y-89376761D01*
X157625079Y-89384432D01*
X157672698Y-89432050D01*
X157680364Y-89438342D01*
X157682097Y-89440340D01*
X157685105Y-89442233D01*
X157687851Y-89444487D01*
X157690291Y-89445497D01*
X157698688Y-89450783D01*
X157793925Y-89498402D01*
X157812234Y-89505408D01*
X157815817Y-89505662D01*
X157819138Y-89507038D01*
X157838647Y-89508959D01*
X158076742Y-89508959D01*
X158096251Y-89507038D01*
X158099571Y-89505662D01*
X158103155Y-89505408D01*
X158121463Y-89498402D01*
X158216701Y-89450783D01*
X158225093Y-89445499D01*
X158227537Y-89444488D01*
X158230286Y-89442231D01*
X158233291Y-89440340D01*
X158235020Y-89438345D01*
X158242690Y-89432051D01*
X158290310Y-89384433D01*
X158296603Y-89376764D01*
X158298600Y-89375033D01*
X158300493Y-89372024D01*
X158302747Y-89369279D01*
X158303757Y-89366838D01*
X158309043Y-89358442D01*
X158356662Y-89263205D01*
X158363668Y-89244896D01*
X158363922Y-89241312D01*
X158365298Y-89237992D01*
X158367219Y-89218483D01*
X158367219Y-89028007D01*
X158365298Y-89008498D01*
X158363922Y-89005177D01*
X158363668Y-89001594D01*
X158356662Y-88983285D01*
X158309043Y-88888048D01*
X158303757Y-88879651D01*
X158302747Y-88877211D01*
X158300493Y-88874465D01*
X158298600Y-88871457D01*
X158296603Y-88869725D01*
X158290310Y-88862057D01*
X158242690Y-88814439D01*
X158235020Y-88808144D01*
X158233291Y-88806150D01*
X158230286Y-88804258D01*
X158227537Y-88802002D01*
X158225093Y-88800990D01*
X158216701Y-88795707D01*
X158121463Y-88748088D01*
X158103155Y-88741082D01*
X158099571Y-88740827D01*
X158096251Y-88739452D01*
X158076742Y-88737531D01*
X157695790Y-88737531D01*
X157692387Y-88737866D01*
X157690929Y-88737649D01*
X157683631Y-88738728D01*
X157676281Y-88739452D01*
X157674917Y-88740016D01*
X157671536Y-88740517D01*
X157481060Y-88788136D01*
X157469565Y-88792242D01*
X157467142Y-88792722D01*
X157464945Y-88793892D01*
X157462600Y-88794731D01*
X157460613Y-88796202D01*
X157449844Y-88801945D01*
X157306987Y-88897183D01*
X157306933Y-88897226D01*
X157306899Y-88897241D01*
X157299413Y-88903385D01*
X157291820Y-88909603D01*
X157291798Y-88909634D01*
X157291746Y-88909678D01*
X157244127Y-88957296D01*
X157237832Y-88964966D01*
X157235838Y-88966696D01*
X157233944Y-88969703D01*
X157231691Y-88972450D01*
X157230680Y-88974889D01*
X157225395Y-88983286D01*
X157177776Y-89078524D01*
X157170770Y-89096832D01*
X157170515Y-89100415D01*
X157169140Y-89103736D01*
X157167219Y-89123245D01*
X157056108Y-89123245D01*
X157056108Y-87579926D01*
X157169140Y-87579926D01*
X157169140Y-87618944D01*
X157184072Y-87654992D01*
X157211662Y-87682582D01*
X157247710Y-87697514D01*
X157267219Y-87699435D01*
X158100754Y-87699435D01*
X158145064Y-87721589D01*
X158177776Y-87787013D01*
X158188219Y-87803603D01*
X158217696Y-87829168D01*
X158254712Y-87841506D01*
X158293632Y-87838741D01*
X158328530Y-87821292D01*
X158354095Y-87791815D01*
X158366434Y-87754799D01*
X158363668Y-87715879D01*
X158356662Y-87697570D01*
X158309043Y-87602333D01*
X158306989Y-87599070D01*
X158306476Y-87597530D01*
X158304812Y-87595612D01*
X158298600Y-87585742D01*
X158289125Y-87577525D01*
X158280911Y-87568054D01*
X158271039Y-87561840D01*
X158269123Y-87560178D01*
X158267584Y-87559664D01*
X158264321Y-87557611D01*
X158169082Y-87509992D01*
X158150773Y-87502986D01*
X158147190Y-87502731D01*
X158143870Y-87501356D01*
X158124361Y-87499435D01*
X157267219Y-87499435D01*
X157247710Y-87501356D01*
X157211662Y-87516288D01*
X157184072Y-87543878D01*
X157169140Y-87579926D01*
X157056108Y-87579926D01*
X157056108Y-86837530D01*
X157500552Y-86837530D01*
X157500552Y-86980387D01*
X157502473Y-86999896D01*
X157503848Y-87003216D01*
X157504103Y-87006800D01*
X157511109Y-87025108D01*
X157558728Y-87120346D01*
X157564013Y-87128742D01*
X157565024Y-87131182D01*
X157567277Y-87133928D01*
X157569171Y-87136936D01*
X157571165Y-87138665D01*
X157577460Y-87146336D01*
X157625079Y-87193954D01*
X157632745Y-87200246D01*
X157634478Y-87202244D01*
X157637486Y-87204137D01*
X157640232Y-87206391D01*
X157642672Y-87207401D01*
X157651069Y-87212687D01*
X157746306Y-87260306D01*
X157764615Y-87267312D01*
X157768198Y-87267566D01*
X157771519Y-87268942D01*
X157791028Y-87270863D01*
X158076742Y-87270863D01*
X158096251Y-87268942D01*
X158099571Y-87267566D01*
X158103155Y-87267312D01*
X158121463Y-87260306D01*
X158216701Y-87212687D01*
X158225093Y-87207403D01*
X158227537Y-87206392D01*
X158230286Y-87204135D01*
X158233291Y-87202244D01*
X158235020Y-87200249D01*
X158242690Y-87193955D01*
X158290310Y-87146337D01*
X158296603Y-87138668D01*
X158298600Y-87136937D01*
X158300493Y-87133928D01*
X158302747Y-87131183D01*
X158303757Y-87128742D01*
X158309043Y-87120346D01*
X158356662Y-87025109D01*
X158363668Y-87006800D01*
X158363922Y-87003216D01*
X158365298Y-86999896D01*
X158367219Y-86980387D01*
X158367219Y-86837530D01*
X158365298Y-86818021D01*
X158363922Y-86814700D01*
X158363668Y-86811117D01*
X158356662Y-86792808D01*
X158309043Y-86697571D01*
X158303757Y-86689174D01*
X158302747Y-86686734D01*
X158300493Y-86683988D01*
X158298600Y-86680980D01*
X158296603Y-86679248D01*
X158290310Y-86671580D01*
X158242690Y-86623962D01*
X158235020Y-86617667D01*
X158233291Y-86615673D01*
X158230286Y-86613781D01*
X158227537Y-86611525D01*
X158225093Y-86610513D01*
X158216701Y-86605230D01*
X158121463Y-86557611D01*
X158103155Y-86550605D01*
X158099571Y-86550350D01*
X158096251Y-86548975D01*
X158076742Y-86547054D01*
X157791028Y-86547054D01*
X157771519Y-86548975D01*
X157768198Y-86550350D01*
X157764615Y-86550605D01*
X157746306Y-86557611D01*
X157651069Y-86605230D01*
X157642672Y-86610515D01*
X157640232Y-86611526D01*
X157637486Y-86613779D01*
X157634478Y-86615673D01*
X157632745Y-86617670D01*
X157625079Y-86623963D01*
X157577460Y-86671581D01*
X157571165Y-86679251D01*
X157569171Y-86680981D01*
X157567277Y-86683988D01*
X157565024Y-86686735D01*
X157564013Y-86689174D01*
X157558728Y-86697571D01*
X157511109Y-86792809D01*
X157504103Y-86811117D01*
X157503848Y-86814700D01*
X157502473Y-86818021D01*
X157500552Y-86837530D01*
X157056108Y-86837530D01*
X157056108Y-85980387D01*
X157167219Y-85980387D01*
X157167219Y-86075625D01*
X157168191Y-86085498D01*
X157168004Y-86088132D01*
X157168791Y-86091595D01*
X157169140Y-86095134D01*
X157170151Y-86097576D01*
X157172351Y-86107248D01*
X157219970Y-86250104D01*
X157227961Y-86268005D01*
X157230316Y-86270720D01*
X157231691Y-86274039D01*
X157244127Y-86289193D01*
X157291746Y-86336811D01*
X157306899Y-86349248D01*
X157342948Y-86364179D01*
X157381966Y-86364179D01*
X157418014Y-86349248D01*
X157445604Y-86321658D01*
X157460535Y-86285610D01*
X157460535Y-86246592D01*
X157445604Y-86210543D01*
X157433167Y-86195390D01*
X157402240Y-86164463D01*
X157367219Y-86059398D01*
X157367219Y-85996614D01*
X157402240Y-85891549D01*
X157469313Y-85824477D01*
X157540218Y-85789024D01*
X157708099Y-85747054D01*
X157826337Y-85747054D01*
X157994218Y-85789024D01*
X158065127Y-85824478D01*
X158132197Y-85891548D01*
X158167219Y-85996613D01*
X158167219Y-86059398D01*
X158132197Y-86164463D01*
X158101270Y-86195390D01*
X158088833Y-86210543D01*
X158073902Y-86246591D01*
X158073901Y-86285609D01*
X158088832Y-86321658D01*
X158116422Y-86349248D01*
X158152470Y-86364179D01*
X158191488Y-86364180D01*
X158227537Y-86349249D01*
X158242690Y-86336812D01*
X158290310Y-86289194D01*
X158302747Y-86274040D01*
X158304122Y-86270720D01*
X158306477Y-86268005D01*
X158314468Y-86250105D01*
X158362087Y-86107248D01*
X158364286Y-86097575D01*
X158365298Y-86095134D01*
X158365646Y-86091596D01*
X158366434Y-86088133D01*
X158366246Y-86085498D01*
X158367219Y-86075625D01*
X158367219Y-85980387D01*
X158366246Y-85970513D01*
X158366434Y-85967879D01*
X158365646Y-85964415D01*
X158365298Y-85960878D01*
X158364286Y-85958436D01*
X158362087Y-85948764D01*
X158314468Y-85805907D01*
X158306477Y-85788007D01*
X158304122Y-85785291D01*
X158302747Y-85781972D01*
X158290311Y-85766819D01*
X158195071Y-85671581D01*
X158187401Y-85665286D01*
X158185672Y-85663292D01*
X158182667Y-85661400D01*
X158179918Y-85659144D01*
X158177474Y-85658131D01*
X158169082Y-85652849D01*
X158073844Y-85605230D01*
X158072417Y-85604684D01*
X158071837Y-85604254D01*
X158063660Y-85601332D01*
X158055536Y-85598224D01*
X158054813Y-85598172D01*
X158053376Y-85597659D01*
X157862901Y-85550040D01*
X157859519Y-85549539D01*
X157858156Y-85548975D01*
X157850805Y-85548251D01*
X157843508Y-85547172D01*
X157842049Y-85547389D01*
X157838647Y-85547054D01*
X157695790Y-85547054D01*
X157692387Y-85547389D01*
X157690929Y-85547172D01*
X157683631Y-85548251D01*
X157676281Y-85548975D01*
X157674917Y-85549539D01*
X157671536Y-85550040D01*
X157481060Y-85597659D01*
X157479621Y-85598172D01*
X157478901Y-85598224D01*
X157470776Y-85601332D01*
X157462600Y-85604254D01*
X157462020Y-85604683D01*
X157460592Y-85605230D01*
X157365355Y-85652849D01*
X157356956Y-85658135D01*
X157354519Y-85659145D01*
X157351775Y-85661396D01*
X157348764Y-85663292D01*
X157347031Y-85665289D01*
X157339365Y-85671581D01*
X157244127Y-85766819D01*
X157231691Y-85781973D01*
X157230316Y-85785291D01*
X157227961Y-85788007D01*
X157219970Y-85805908D01*
X157172351Y-85948764D01*
X157170151Y-85958435D01*
X157169140Y-85960878D01*
X157168791Y-85964416D01*
X157168004Y-85967880D01*
X157168191Y-85970513D01*
X157167219Y-85980387D01*
X157056108Y-85980387D01*
X157056108Y-85435943D01*
X158478330Y-85435943D01*
X158478330Y-89620070D01*
G37*
G36*
X147887746Y-86776860D02*
G01*
X147912414Y-86801527D01*
X147942219Y-86861137D01*
X147942219Y-86956780D01*
X147912414Y-87016389D01*
X147887746Y-87041056D01*
X147828135Y-87070863D01*
X147589635Y-87070863D01*
X147530025Y-87041058D01*
X147505357Y-87016389D01*
X147475552Y-86956779D01*
X147475552Y-86861137D01*
X147505357Y-86801527D01*
X147530025Y-86776858D01*
X147589635Y-86747054D01*
X147828135Y-86747054D01*
X147887746Y-86776860D01*
G37*
G36*
X148253330Y-89620070D02*
G01*
X146831108Y-89620070D01*
X146831108Y-88885150D01*
X146942219Y-88885150D01*
X146942219Y-89361340D01*
X146944140Y-89380849D01*
X146959072Y-89416897D01*
X146986662Y-89444487D01*
X147022710Y-89459419D01*
X147061728Y-89459419D01*
X147097776Y-89444487D01*
X147125366Y-89416897D01*
X147140298Y-89380849D01*
X147142219Y-89361340D01*
X147142219Y-88975649D01*
X147326491Y-88957221D01*
X147326467Y-88957558D01*
X147325092Y-88960879D01*
X147323171Y-88980388D01*
X147323171Y-89218483D01*
X147325092Y-89237992D01*
X147326467Y-89241312D01*
X147326722Y-89244896D01*
X147333728Y-89263204D01*
X147381347Y-89358442D01*
X147386632Y-89366838D01*
X147387643Y-89369278D01*
X147389896Y-89372024D01*
X147391790Y-89375032D01*
X147393784Y-89376761D01*
X147400079Y-89384432D01*
X147447698Y-89432050D01*
X147455364Y-89438342D01*
X147457097Y-89440340D01*
X147460105Y-89442233D01*
X147462851Y-89444487D01*
X147465291Y-89445497D01*
X147473688Y-89450783D01*
X147568925Y-89498402D01*
X147587234Y-89505408D01*
X147590817Y-89505662D01*
X147594138Y-89507038D01*
X147613647Y-89508959D01*
X147851742Y-89508959D01*
X147871251Y-89507038D01*
X147874571Y-89505662D01*
X147878155Y-89505408D01*
X147896463Y-89498402D01*
X147991701Y-89450783D01*
X148000093Y-89445499D01*
X148002537Y-89444488D01*
X148005286Y-89442231D01*
X148008291Y-89440340D01*
X148010020Y-89438345D01*
X148017690Y-89432051D01*
X148065310Y-89384433D01*
X148071603Y-89376764D01*
X148073600Y-89375033D01*
X148075493Y-89372024D01*
X148077747Y-89369279D01*
X148078757Y-89366838D01*
X148084043Y-89358442D01*
X148131662Y-89263205D01*
X148138668Y-89244896D01*
X148138922Y-89241312D01*
X148140298Y-89237992D01*
X148142219Y-89218483D01*
X148142219Y-88980388D01*
X148140298Y-88960879D01*
X148138922Y-88957558D01*
X148138668Y-88953975D01*
X148131662Y-88935666D01*
X148084043Y-88840429D01*
X148078757Y-88832032D01*
X148077747Y-88829592D01*
X148075493Y-88826846D01*
X148073600Y-88823838D01*
X148071603Y-88822106D01*
X148065310Y-88814438D01*
X148017690Y-88766820D01*
X148002537Y-88754383D01*
X147966488Y-88739452D01*
X147927470Y-88739453D01*
X147891422Y-88754384D01*
X147863832Y-88781974D01*
X147848901Y-88818023D01*
X147848902Y-88857041D01*
X147863833Y-88893089D01*
X147876270Y-88908242D01*
X147912414Y-88944385D01*
X147942219Y-89003995D01*
X147942219Y-89194876D01*
X147912414Y-89254485D01*
X147887746Y-89279152D01*
X147828135Y-89308959D01*
X147637254Y-89308959D01*
X147577644Y-89279154D01*
X147552976Y-89254485D01*
X147523171Y-89194875D01*
X147523171Y-89003995D01*
X147552976Y-88944385D01*
X147589119Y-88908242D01*
X147601556Y-88893089D01*
X147603483Y-88888434D01*
X147606671Y-88884539D01*
X147610893Y-88870545D01*
X147616487Y-88857040D01*
X147616487Y-88852006D01*
X147617942Y-88847184D01*
X147616487Y-88832632D01*
X147616487Y-88818022D01*
X147614561Y-88813372D01*
X147614060Y-88808360D01*
X147607148Y-88795476D01*
X147601556Y-88781974D01*
X147597995Y-88778413D01*
X147595615Y-88773976D01*
X147584302Y-88764720D01*
X147573966Y-88754384D01*
X147569313Y-88752456D01*
X147565417Y-88749269D01*
X147551422Y-88745046D01*
X147537918Y-88739453D01*
X147532884Y-88739453D01*
X147528062Y-88737998D01*
X147508459Y-88738027D01*
X147032269Y-88785646D01*
X147025160Y-88787071D01*
X147022710Y-88787071D01*
X147020412Y-88788022D01*
X147013048Y-88789499D01*
X147000167Y-88796408D01*
X146986662Y-88802003D01*
X146983101Y-88805563D01*
X146978664Y-88807944D01*
X146969408Y-88819256D01*
X146959072Y-88829593D01*
X146957144Y-88834245D01*
X146953957Y-88838142D01*
X146949736Y-88852131D01*
X146944140Y-88865641D01*
X146943403Y-88873118D01*
X146942686Y-88875497D01*
X146942929Y-88877933D01*
X146942219Y-88885150D01*
X146831108Y-88885150D01*
X146831108Y-87579926D01*
X146944140Y-87579926D01*
X146944140Y-87618944D01*
X146959072Y-87654992D01*
X146986662Y-87682582D01*
X147022710Y-87697514D01*
X147042219Y-87699435D01*
X147875754Y-87699435D01*
X147920064Y-87721589D01*
X147952776Y-87787013D01*
X147963219Y-87803603D01*
X147992696Y-87829168D01*
X148029712Y-87841506D01*
X148068632Y-87838741D01*
X148103530Y-87821292D01*
X148129095Y-87791815D01*
X148141434Y-87754799D01*
X148138668Y-87715879D01*
X148131662Y-87697570D01*
X148084043Y-87602333D01*
X148081989Y-87599070D01*
X148081476Y-87597530D01*
X148079812Y-87595612D01*
X148073600Y-87585742D01*
X148064125Y-87577525D01*
X148055911Y-87568054D01*
X148046039Y-87561840D01*
X148044123Y-87560178D01*
X148042584Y-87559664D01*
X148039321Y-87557611D01*
X147944082Y-87509992D01*
X147925773Y-87502986D01*
X147922190Y-87502731D01*
X147918870Y-87501356D01*
X147899361Y-87499435D01*
X147042219Y-87499435D01*
X147022710Y-87501356D01*
X146986662Y-87516288D01*
X146959072Y-87543878D01*
X146944140Y-87579926D01*
X146831108Y-87579926D01*
X146831108Y-86837530D01*
X147275552Y-86837530D01*
X147275552Y-86980387D01*
X147277473Y-86999896D01*
X147278848Y-87003216D01*
X147279103Y-87006800D01*
X147286109Y-87025108D01*
X147333728Y-87120346D01*
X147339013Y-87128742D01*
X147340024Y-87131182D01*
X147342277Y-87133928D01*
X147344171Y-87136936D01*
X147346165Y-87138665D01*
X147352460Y-87146336D01*
X147400079Y-87193954D01*
X147407745Y-87200246D01*
X147409478Y-87202244D01*
X147412486Y-87204137D01*
X147415232Y-87206391D01*
X147417672Y-87207401D01*
X147426069Y-87212687D01*
X147521306Y-87260306D01*
X147539615Y-87267312D01*
X147543198Y-87267566D01*
X147546519Y-87268942D01*
X147566028Y-87270863D01*
X147851742Y-87270863D01*
X147871251Y-87268942D01*
X147874571Y-87267566D01*
X147878155Y-87267312D01*
X147896463Y-87260306D01*
X147991701Y-87212687D01*
X148000093Y-87207403D01*
X148002537Y-87206392D01*
X148005286Y-87204135D01*
X148008291Y-87202244D01*
X148010020Y-87200249D01*
X148017690Y-87193955D01*
X148065310Y-87146337D01*
X148071603Y-87138668D01*
X148073600Y-87136937D01*
X148075493Y-87133928D01*
X148077747Y-87131183D01*
X148078757Y-87128742D01*
X148084043Y-87120346D01*
X148131662Y-87025109D01*
X148138668Y-87006800D01*
X148138922Y-87003216D01*
X148140298Y-86999896D01*
X148142219Y-86980387D01*
X148142219Y-86837530D01*
X148140298Y-86818021D01*
X148138922Y-86814700D01*
X148138668Y-86811117D01*
X148131662Y-86792808D01*
X148084043Y-86697571D01*
X148078757Y-86689174D01*
X148077747Y-86686734D01*
X148075493Y-86683988D01*
X148073600Y-86680980D01*
X148071603Y-86679248D01*
X148065310Y-86671580D01*
X148017690Y-86623962D01*
X148010020Y-86617667D01*
X148008291Y-86615673D01*
X148005286Y-86613781D01*
X148002537Y-86611525D01*
X148000093Y-86610513D01*
X147991701Y-86605230D01*
X147896463Y-86557611D01*
X147878155Y-86550605D01*
X147874571Y-86550350D01*
X147871251Y-86548975D01*
X147851742Y-86547054D01*
X147566028Y-86547054D01*
X147546519Y-86548975D01*
X147543198Y-86550350D01*
X147539615Y-86550605D01*
X147521306Y-86557611D01*
X147426069Y-86605230D01*
X147417672Y-86610515D01*
X147415232Y-86611526D01*
X147412486Y-86613779D01*
X147409478Y-86615673D01*
X147407745Y-86617670D01*
X147400079Y-86623963D01*
X147352460Y-86671581D01*
X147346165Y-86679251D01*
X147344171Y-86680981D01*
X147342277Y-86683988D01*
X147340024Y-86686735D01*
X147339013Y-86689174D01*
X147333728Y-86697571D01*
X147286109Y-86792809D01*
X147279103Y-86811117D01*
X147278848Y-86814700D01*
X147277473Y-86818021D01*
X147275552Y-86837530D01*
X146831108Y-86837530D01*
X146831108Y-85980387D01*
X146942219Y-85980387D01*
X146942219Y-86075625D01*
X146943191Y-86085498D01*
X146943004Y-86088132D01*
X146943791Y-86091595D01*
X146944140Y-86095134D01*
X146945151Y-86097576D01*
X146947351Y-86107248D01*
X146994970Y-86250104D01*
X147002961Y-86268005D01*
X147005316Y-86270720D01*
X147006691Y-86274039D01*
X147019127Y-86289193D01*
X147066746Y-86336811D01*
X147081899Y-86349248D01*
X147117948Y-86364179D01*
X147156966Y-86364179D01*
X147193014Y-86349248D01*
X147220604Y-86321658D01*
X147235535Y-86285610D01*
X147235535Y-86246592D01*
X147220604Y-86210543D01*
X147208167Y-86195390D01*
X147177240Y-86164463D01*
X147142219Y-86059398D01*
X147142219Y-85996614D01*
X147177240Y-85891549D01*
X147244313Y-85824477D01*
X147315218Y-85789024D01*
X147483099Y-85747054D01*
X147601337Y-85747054D01*
X147769218Y-85789024D01*
X147840127Y-85824478D01*
X147907197Y-85891548D01*
X147942219Y-85996613D01*
X147942219Y-86059398D01*
X147907197Y-86164463D01*
X147876270Y-86195390D01*
X147863833Y-86210543D01*
X147848902Y-86246591D01*
X147848901Y-86285609D01*
X147863832Y-86321658D01*
X147891422Y-86349248D01*
X147927470Y-86364179D01*
X147966488Y-86364180D01*
X148002537Y-86349249D01*
X148017690Y-86336812D01*
X148065310Y-86289194D01*
X148077747Y-86274040D01*
X148079122Y-86270720D01*
X148081477Y-86268005D01*
X148089468Y-86250105D01*
X148137087Y-86107248D01*
X148139286Y-86097575D01*
X148140298Y-86095134D01*
X148140646Y-86091596D01*
X148141434Y-86088133D01*
X148141246Y-86085498D01*
X148142219Y-86075625D01*
X148142219Y-85980387D01*
X148141246Y-85970513D01*
X148141434Y-85967879D01*
X148140646Y-85964415D01*
X148140298Y-85960878D01*
X148139286Y-85958436D01*
X148137087Y-85948764D01*
X148089468Y-85805907D01*
X148081477Y-85788007D01*
X148079122Y-85785291D01*
X148077747Y-85781972D01*
X148065311Y-85766819D01*
X147970071Y-85671581D01*
X147962401Y-85665286D01*
X147960672Y-85663292D01*
X147957667Y-85661400D01*
X147954918Y-85659144D01*
X147952474Y-85658131D01*
X147944082Y-85652849D01*
X147848844Y-85605230D01*
X147847417Y-85604684D01*
X147846837Y-85604254D01*
X147838660Y-85601332D01*
X147830536Y-85598224D01*
X147829813Y-85598172D01*
X147828376Y-85597659D01*
X147637901Y-85550040D01*
X147634519Y-85549539D01*
X147633156Y-85548975D01*
X147625805Y-85548251D01*
X147618508Y-85547172D01*
X147617049Y-85547389D01*
X147613647Y-85547054D01*
X147470790Y-85547054D01*
X147467387Y-85547389D01*
X147465929Y-85547172D01*
X147458631Y-85548251D01*
X147451281Y-85548975D01*
X147449917Y-85549539D01*
X147446536Y-85550040D01*
X147256060Y-85597659D01*
X147254621Y-85598172D01*
X147253901Y-85598224D01*
X147245776Y-85601332D01*
X147237600Y-85604254D01*
X147237020Y-85604683D01*
X147235592Y-85605230D01*
X147140355Y-85652849D01*
X147131956Y-85658135D01*
X147129519Y-85659145D01*
X147126775Y-85661396D01*
X147123764Y-85663292D01*
X147122031Y-85665289D01*
X147114365Y-85671581D01*
X147019127Y-85766819D01*
X147006691Y-85781973D01*
X147005316Y-85785291D01*
X147002961Y-85788007D01*
X146994970Y-85805908D01*
X146947351Y-85948764D01*
X146945151Y-85958435D01*
X146944140Y-85960878D01*
X146943791Y-85964416D01*
X146943004Y-85967880D01*
X146943191Y-85970513D01*
X146942219Y-85980387D01*
X146831108Y-85980387D01*
X146831108Y-85435943D01*
X148253330Y-85435943D01*
X148253330Y-89620070D01*
G37*
G36*
X142912746Y-86776860D02*
G01*
X142937414Y-86801527D01*
X142967219Y-86861137D01*
X142967219Y-86956780D01*
X142937414Y-87016389D01*
X142912746Y-87041056D01*
X142853135Y-87070863D01*
X142614635Y-87070863D01*
X142555025Y-87041058D01*
X142530357Y-87016389D01*
X142500552Y-86956779D01*
X142500552Y-86861137D01*
X142530357Y-86801527D01*
X142555025Y-86776858D01*
X142614635Y-86747054D01*
X142853135Y-86747054D01*
X142912746Y-86776860D01*
G37*
G36*
X143278330Y-89665768D02*
G01*
X141809274Y-89665768D01*
X141809274Y-89088133D01*
X141920385Y-89088133D01*
X141932723Y-89125149D01*
X141958288Y-89154625D01*
X141993187Y-89172075D01*
X142032107Y-89174841D01*
X142051223Y-89170494D01*
X142633885Y-88976273D01*
X142633885Y-89213721D01*
X142400552Y-89213721D01*
X142381043Y-89215642D01*
X142344995Y-89230574D01*
X142317405Y-89258164D01*
X142302473Y-89294212D01*
X142302473Y-89333230D01*
X142317405Y-89369278D01*
X142344995Y-89396868D01*
X142381043Y-89411800D01*
X142400552Y-89413721D01*
X142633885Y-89413721D01*
X142633885Y-89456578D01*
X142635806Y-89476087D01*
X142650738Y-89512135D01*
X142678328Y-89539725D01*
X142714376Y-89554657D01*
X142753394Y-89554657D01*
X142789442Y-89539725D01*
X142817032Y-89512135D01*
X142831964Y-89476087D01*
X142833885Y-89456578D01*
X142833885Y-89413721D01*
X143067219Y-89413721D01*
X143086728Y-89411800D01*
X143122776Y-89396868D01*
X143150366Y-89369278D01*
X143165298Y-89333230D01*
X143165298Y-89294212D01*
X143150366Y-89258164D01*
X143122776Y-89230574D01*
X143086728Y-89215642D01*
X143067219Y-89213721D01*
X142833885Y-89213721D01*
X142833885Y-88837531D01*
X142832912Y-88827657D01*
X142833100Y-88825024D01*
X142832466Y-88823122D01*
X142831964Y-88818022D01*
X142825828Y-88803209D01*
X142820761Y-88788008D01*
X142818407Y-88785294D01*
X142817032Y-88781974D01*
X142805693Y-88770635D01*
X142795196Y-88758532D01*
X142791983Y-88756925D01*
X142789442Y-88754384D01*
X142774627Y-88748247D01*
X142760297Y-88741082D01*
X142756714Y-88740827D01*
X142753394Y-88739452D01*
X142737361Y-88739452D01*
X142721377Y-88738316D01*
X142716382Y-88739452D01*
X142714376Y-88739452D01*
X142711934Y-88740463D01*
X142702262Y-88742663D01*
X141987977Y-88980758D01*
X141970077Y-88988749D01*
X141940601Y-89014314D01*
X141923151Y-89049213D01*
X141920385Y-89088133D01*
X141809274Y-89088133D01*
X141809274Y-87579926D01*
X141969140Y-87579926D01*
X141969140Y-87618944D01*
X141984072Y-87654992D01*
X142011662Y-87682582D01*
X142047710Y-87697514D01*
X142067219Y-87699435D01*
X142900754Y-87699435D01*
X142945064Y-87721589D01*
X142977776Y-87787013D01*
X142988219Y-87803603D01*
X143017696Y-87829168D01*
X143054712Y-87841506D01*
X143093632Y-87838741D01*
X143128530Y-87821292D01*
X143154095Y-87791815D01*
X143166434Y-87754799D01*
X143163668Y-87715879D01*
X143156662Y-87697570D01*
X143109043Y-87602333D01*
X143106989Y-87599070D01*
X143106476Y-87597530D01*
X143104812Y-87595612D01*
X143098600Y-87585742D01*
X143089125Y-87577525D01*
X143080911Y-87568054D01*
X143071039Y-87561840D01*
X143069123Y-87560178D01*
X143067584Y-87559664D01*
X143064321Y-87557611D01*
X142969082Y-87509992D01*
X142950773Y-87502986D01*
X142947190Y-87502731D01*
X142943870Y-87501356D01*
X142924361Y-87499435D01*
X142067219Y-87499435D01*
X142047710Y-87501356D01*
X142011662Y-87516288D01*
X141984072Y-87543878D01*
X141969140Y-87579926D01*
X141809274Y-87579926D01*
X141809274Y-86837530D01*
X142300552Y-86837530D01*
X142300552Y-86980387D01*
X142302473Y-86999896D01*
X142303848Y-87003216D01*
X142304103Y-87006800D01*
X142311109Y-87025108D01*
X142358728Y-87120346D01*
X142364013Y-87128742D01*
X142365024Y-87131182D01*
X142367277Y-87133928D01*
X142369171Y-87136936D01*
X142371165Y-87138665D01*
X142377460Y-87146336D01*
X142425079Y-87193954D01*
X142432745Y-87200246D01*
X142434478Y-87202244D01*
X142437486Y-87204137D01*
X142440232Y-87206391D01*
X142442672Y-87207401D01*
X142451069Y-87212687D01*
X142546306Y-87260306D01*
X142564615Y-87267312D01*
X142568198Y-87267566D01*
X142571519Y-87268942D01*
X142591028Y-87270863D01*
X142876742Y-87270863D01*
X142896251Y-87268942D01*
X142899571Y-87267566D01*
X142903155Y-87267312D01*
X142921463Y-87260306D01*
X143016701Y-87212687D01*
X143025093Y-87207403D01*
X143027537Y-87206392D01*
X143030286Y-87204135D01*
X143033291Y-87202244D01*
X143035020Y-87200249D01*
X143042690Y-87193955D01*
X143090310Y-87146337D01*
X143096603Y-87138668D01*
X143098600Y-87136937D01*
X143100493Y-87133928D01*
X143102747Y-87131183D01*
X143103757Y-87128742D01*
X143109043Y-87120346D01*
X143156662Y-87025109D01*
X143163668Y-87006800D01*
X143163922Y-87003216D01*
X143165298Y-86999896D01*
X143167219Y-86980387D01*
X143167219Y-86837530D01*
X143165298Y-86818021D01*
X143163922Y-86814700D01*
X143163668Y-86811117D01*
X143156662Y-86792808D01*
X143109043Y-86697571D01*
X143103757Y-86689174D01*
X143102747Y-86686734D01*
X143100493Y-86683988D01*
X143098600Y-86680980D01*
X143096603Y-86679248D01*
X143090310Y-86671580D01*
X143042690Y-86623962D01*
X143035020Y-86617667D01*
X143033291Y-86615673D01*
X143030286Y-86613781D01*
X143027537Y-86611525D01*
X143025093Y-86610513D01*
X143016701Y-86605230D01*
X142921463Y-86557611D01*
X142903155Y-86550605D01*
X142899571Y-86550350D01*
X142896251Y-86548975D01*
X142876742Y-86547054D01*
X142591028Y-86547054D01*
X142571519Y-86548975D01*
X142568198Y-86550350D01*
X142564615Y-86550605D01*
X142546306Y-86557611D01*
X142451069Y-86605230D01*
X142442672Y-86610515D01*
X142440232Y-86611526D01*
X142437486Y-86613779D01*
X142434478Y-86615673D01*
X142432745Y-86617670D01*
X142425079Y-86623963D01*
X142377460Y-86671581D01*
X142371165Y-86679251D01*
X142369171Y-86680981D01*
X142367277Y-86683988D01*
X142365024Y-86686735D01*
X142364013Y-86689174D01*
X142358728Y-86697571D01*
X142311109Y-86792809D01*
X142304103Y-86811117D01*
X142303848Y-86814700D01*
X142302473Y-86818021D01*
X142300552Y-86837530D01*
X141809274Y-86837530D01*
X141809274Y-85980387D01*
X141967219Y-85980387D01*
X141967219Y-86075625D01*
X141968191Y-86085498D01*
X141968004Y-86088132D01*
X141968791Y-86091595D01*
X141969140Y-86095134D01*
X141970151Y-86097576D01*
X141972351Y-86107248D01*
X142019970Y-86250104D01*
X142027961Y-86268005D01*
X142030316Y-86270720D01*
X142031691Y-86274039D01*
X142044127Y-86289193D01*
X142091746Y-86336811D01*
X142106899Y-86349248D01*
X142142948Y-86364179D01*
X142181966Y-86364179D01*
X142218014Y-86349248D01*
X142245604Y-86321658D01*
X142260535Y-86285610D01*
X142260535Y-86246592D01*
X142245604Y-86210543D01*
X142233167Y-86195390D01*
X142202240Y-86164463D01*
X142167219Y-86059398D01*
X142167219Y-85996614D01*
X142202240Y-85891549D01*
X142269313Y-85824477D01*
X142340218Y-85789024D01*
X142508099Y-85747054D01*
X142626337Y-85747054D01*
X142794218Y-85789024D01*
X142865127Y-85824478D01*
X142932197Y-85891548D01*
X142967219Y-85996613D01*
X142967219Y-86059398D01*
X142932197Y-86164463D01*
X142901270Y-86195390D01*
X142888833Y-86210543D01*
X142873902Y-86246591D01*
X142873901Y-86285609D01*
X142888832Y-86321658D01*
X142916422Y-86349248D01*
X142952470Y-86364179D01*
X142991488Y-86364180D01*
X143027537Y-86349249D01*
X143042690Y-86336812D01*
X143090310Y-86289194D01*
X143102747Y-86274040D01*
X143104122Y-86270720D01*
X143106477Y-86268005D01*
X143114468Y-86250105D01*
X143162087Y-86107248D01*
X143164286Y-86097575D01*
X143165298Y-86095134D01*
X143165646Y-86091596D01*
X143166434Y-86088133D01*
X143166246Y-86085498D01*
X143167219Y-86075625D01*
X143167219Y-85980387D01*
X143166246Y-85970513D01*
X143166434Y-85967879D01*
X143165646Y-85964415D01*
X143165298Y-85960878D01*
X143164286Y-85958436D01*
X143162087Y-85948764D01*
X143114468Y-85805907D01*
X143106477Y-85788007D01*
X143104122Y-85785291D01*
X143102747Y-85781972D01*
X143090311Y-85766819D01*
X142995071Y-85671581D01*
X142987401Y-85665286D01*
X142985672Y-85663292D01*
X142982667Y-85661400D01*
X142979918Y-85659144D01*
X142977474Y-85658131D01*
X142969082Y-85652849D01*
X142873844Y-85605230D01*
X142872417Y-85604684D01*
X142871837Y-85604254D01*
X142863660Y-85601332D01*
X142855536Y-85598224D01*
X142854813Y-85598172D01*
X142853376Y-85597659D01*
X142662901Y-85550040D01*
X142659519Y-85549539D01*
X142658156Y-85548975D01*
X142650805Y-85548251D01*
X142643508Y-85547172D01*
X142642049Y-85547389D01*
X142638647Y-85547054D01*
X142495790Y-85547054D01*
X142492387Y-85547389D01*
X142490929Y-85547172D01*
X142483631Y-85548251D01*
X142476281Y-85548975D01*
X142474917Y-85549539D01*
X142471536Y-85550040D01*
X142281060Y-85597659D01*
X142279621Y-85598172D01*
X142278901Y-85598224D01*
X142270776Y-85601332D01*
X142262600Y-85604254D01*
X142262020Y-85604683D01*
X142260592Y-85605230D01*
X142165355Y-85652849D01*
X142156956Y-85658135D01*
X142154519Y-85659145D01*
X142151775Y-85661396D01*
X142148764Y-85663292D01*
X142147031Y-85665289D01*
X142139365Y-85671581D01*
X142044127Y-85766819D01*
X142031691Y-85781973D01*
X142030316Y-85785291D01*
X142027961Y-85788007D01*
X142019970Y-85805908D01*
X141972351Y-85948764D01*
X141970151Y-85958435D01*
X141969140Y-85960878D01*
X141968791Y-85964416D01*
X141968004Y-85967880D01*
X141968191Y-85970513D01*
X141967219Y-85980387D01*
X141809274Y-85980387D01*
X141809274Y-85435943D01*
X143278330Y-85435943D01*
X143278330Y-89665768D01*
G37*
G36*
X135287746Y-86776860D02*
G01*
X135312414Y-86801527D01*
X135342219Y-86861137D01*
X135342219Y-86956780D01*
X135312414Y-87016389D01*
X135287746Y-87041056D01*
X135228135Y-87070863D01*
X134989635Y-87070863D01*
X134930025Y-87041058D01*
X134905357Y-87016389D01*
X134875552Y-86956779D01*
X134875552Y-86861137D01*
X134905357Y-86801527D01*
X134930025Y-86776858D01*
X134989635Y-86747054D01*
X135228135Y-86747054D01*
X135287746Y-86776860D01*
G37*
G36*
X135653330Y-89620070D02*
G01*
X134231108Y-89620070D01*
X134231108Y-88789912D01*
X134342219Y-88789912D01*
X134342219Y-89408959D01*
X134343234Y-89419276D01*
X134343060Y-89421901D01*
X134343671Y-89423708D01*
X134344140Y-89428468D01*
X134350355Y-89443473D01*
X134355560Y-89458862D01*
X134357781Y-89461401D01*
X134359072Y-89464516D01*
X134370556Y-89476000D01*
X134381254Y-89488226D01*
X134384277Y-89489721D01*
X134386662Y-89492106D01*
X134401668Y-89498322D01*
X134416229Y-89505523D01*
X134419594Y-89505747D01*
X134422710Y-89507038D01*
X134438958Y-89507038D01*
X134455161Y-89508118D01*
X134458354Y-89507038D01*
X134461728Y-89507038D01*
X134476733Y-89500822D01*
X134492122Y-89495618D01*
X134496012Y-89492836D01*
X134497776Y-89492106D01*
X134499635Y-89490246D01*
X134508069Y-89484217D01*
X134741923Y-89279594D01*
X134781347Y-89358442D01*
X134786632Y-89366838D01*
X134787643Y-89369278D01*
X134789896Y-89372024D01*
X134791790Y-89375032D01*
X134793784Y-89376761D01*
X134800079Y-89384432D01*
X134847698Y-89432050D01*
X134855364Y-89438342D01*
X134857097Y-89440340D01*
X134860105Y-89442233D01*
X134862851Y-89444487D01*
X134865291Y-89445497D01*
X134873688Y-89450783D01*
X134968925Y-89498402D01*
X134987234Y-89505408D01*
X134990817Y-89505662D01*
X134994138Y-89507038D01*
X135013647Y-89508959D01*
X135251742Y-89508959D01*
X135271251Y-89507038D01*
X135274571Y-89505662D01*
X135278155Y-89505408D01*
X135296463Y-89498402D01*
X135391701Y-89450783D01*
X135400093Y-89445499D01*
X135402537Y-89444488D01*
X135405286Y-89442231D01*
X135408291Y-89440340D01*
X135410020Y-89438345D01*
X135417690Y-89432051D01*
X135465310Y-89384433D01*
X135471603Y-89376764D01*
X135473600Y-89375033D01*
X135475493Y-89372024D01*
X135477747Y-89369279D01*
X135478757Y-89366838D01*
X135484043Y-89358442D01*
X135531662Y-89263205D01*
X135538668Y-89244896D01*
X135538922Y-89241312D01*
X135540298Y-89237992D01*
X135542219Y-89218483D01*
X135542219Y-88932769D01*
X135540298Y-88913260D01*
X135538922Y-88909939D01*
X135538668Y-88906356D01*
X135531662Y-88888047D01*
X135484043Y-88792810D01*
X135478757Y-88784413D01*
X135477747Y-88781973D01*
X135475493Y-88779227D01*
X135473600Y-88776219D01*
X135471603Y-88774487D01*
X135465310Y-88766819D01*
X135417690Y-88719201D01*
X135402537Y-88706764D01*
X135366488Y-88691833D01*
X135327470Y-88691834D01*
X135291422Y-88706765D01*
X135263832Y-88734355D01*
X135248901Y-88770404D01*
X135248902Y-88809422D01*
X135263833Y-88845470D01*
X135276270Y-88860623D01*
X135312414Y-88896766D01*
X135342219Y-88956376D01*
X135342219Y-89194876D01*
X135312414Y-89254485D01*
X135287746Y-89279152D01*
X135228135Y-89308959D01*
X135037254Y-89308959D01*
X134977644Y-89279154D01*
X134952976Y-89254485D01*
X134923171Y-89194875D01*
X134923171Y-89075626D01*
X134922155Y-89065308D01*
X134922330Y-89062684D01*
X134921718Y-89060876D01*
X134921250Y-89056117D01*
X134915035Y-89041113D01*
X134909830Y-89025722D01*
X134907607Y-89023182D01*
X134906318Y-89020069D01*
X134894840Y-89008591D01*
X134884136Y-88996358D01*
X134881111Y-88994862D01*
X134878728Y-88992479D01*
X134863726Y-88986264D01*
X134849161Y-88979062D01*
X134845795Y-88978837D01*
X134842680Y-88977547D01*
X134826432Y-88977547D01*
X134810229Y-88976467D01*
X134807036Y-88977547D01*
X134803662Y-88977547D01*
X134788656Y-88983762D01*
X134773268Y-88988967D01*
X134769377Y-88991748D01*
X134767614Y-88992479D01*
X134765754Y-88994338D01*
X134757321Y-89000368D01*
X134542219Y-89188582D01*
X134542219Y-88789912D01*
X134540298Y-88770403D01*
X134525366Y-88734355D01*
X134497776Y-88706765D01*
X134461728Y-88691833D01*
X134422710Y-88691833D01*
X134386662Y-88706765D01*
X134359072Y-88734355D01*
X134344140Y-88770403D01*
X134342219Y-88789912D01*
X134231108Y-88789912D01*
X134231108Y-87579926D01*
X134344140Y-87579926D01*
X134344140Y-87618944D01*
X134359072Y-87654992D01*
X134386662Y-87682582D01*
X134422710Y-87697514D01*
X134442219Y-87699435D01*
X135275754Y-87699435D01*
X135320064Y-87721589D01*
X135352776Y-87787013D01*
X135363219Y-87803603D01*
X135392696Y-87829168D01*
X135429712Y-87841506D01*
X135468632Y-87838741D01*
X135503530Y-87821292D01*
X135529095Y-87791815D01*
X135541434Y-87754799D01*
X135538668Y-87715879D01*
X135531662Y-87697570D01*
X135484043Y-87602333D01*
X135481989Y-87599070D01*
X135481476Y-87597530D01*
X135479812Y-87595612D01*
X135473600Y-87585742D01*
X135464125Y-87577525D01*
X135455911Y-87568054D01*
X135446039Y-87561840D01*
X135444123Y-87560178D01*
X135442584Y-87559664D01*
X135439321Y-87557611D01*
X135344082Y-87509992D01*
X135325773Y-87502986D01*
X135322190Y-87502731D01*
X135318870Y-87501356D01*
X135299361Y-87499435D01*
X134442219Y-87499435D01*
X134422710Y-87501356D01*
X134386662Y-87516288D01*
X134359072Y-87543878D01*
X134344140Y-87579926D01*
X134231108Y-87579926D01*
X134231108Y-86837530D01*
X134675552Y-86837530D01*
X134675552Y-86980387D01*
X134677473Y-86999896D01*
X134678848Y-87003216D01*
X134679103Y-87006800D01*
X134686109Y-87025108D01*
X134733728Y-87120346D01*
X134739013Y-87128742D01*
X134740024Y-87131182D01*
X134742277Y-87133928D01*
X134744171Y-87136936D01*
X134746165Y-87138665D01*
X134752460Y-87146336D01*
X134800079Y-87193954D01*
X134807745Y-87200246D01*
X134809478Y-87202244D01*
X134812486Y-87204137D01*
X134815232Y-87206391D01*
X134817672Y-87207401D01*
X134826069Y-87212687D01*
X134921306Y-87260306D01*
X134939615Y-87267312D01*
X134943198Y-87267566D01*
X134946519Y-87268942D01*
X134966028Y-87270863D01*
X135251742Y-87270863D01*
X135271251Y-87268942D01*
X135274571Y-87267566D01*
X135278155Y-87267312D01*
X135296463Y-87260306D01*
X135391701Y-87212687D01*
X135400093Y-87207403D01*
X135402537Y-87206392D01*
X135405286Y-87204135D01*
X135408291Y-87202244D01*
X135410020Y-87200249D01*
X135417690Y-87193955D01*
X135465310Y-87146337D01*
X135471603Y-87138668D01*
X135473600Y-87136937D01*
X135475493Y-87133928D01*
X135477747Y-87131183D01*
X135478757Y-87128742D01*
X135484043Y-87120346D01*
X135531662Y-87025109D01*
X135538668Y-87006800D01*
X135538922Y-87003216D01*
X135540298Y-86999896D01*
X135542219Y-86980387D01*
X135542219Y-86837530D01*
X135540298Y-86818021D01*
X135538922Y-86814700D01*
X135538668Y-86811117D01*
X135531662Y-86792808D01*
X135484043Y-86697571D01*
X135478757Y-86689174D01*
X135477747Y-86686734D01*
X135475493Y-86683988D01*
X135473600Y-86680980D01*
X135471603Y-86679248D01*
X135465310Y-86671580D01*
X135417690Y-86623962D01*
X135410020Y-86617667D01*
X135408291Y-86615673D01*
X135405286Y-86613781D01*
X135402537Y-86611525D01*
X135400093Y-86610513D01*
X135391701Y-86605230D01*
X135296463Y-86557611D01*
X135278155Y-86550605D01*
X135274571Y-86550350D01*
X135271251Y-86548975D01*
X135251742Y-86547054D01*
X134966028Y-86547054D01*
X134946519Y-86548975D01*
X134943198Y-86550350D01*
X134939615Y-86550605D01*
X134921306Y-86557611D01*
X134826069Y-86605230D01*
X134817672Y-86610515D01*
X134815232Y-86611526D01*
X134812486Y-86613779D01*
X134809478Y-86615673D01*
X134807745Y-86617670D01*
X134800079Y-86623963D01*
X134752460Y-86671581D01*
X134746165Y-86679251D01*
X134744171Y-86680981D01*
X134742277Y-86683988D01*
X134740024Y-86686735D01*
X134739013Y-86689174D01*
X134733728Y-86697571D01*
X134686109Y-86792809D01*
X134679103Y-86811117D01*
X134678848Y-86814700D01*
X134677473Y-86818021D01*
X134675552Y-86837530D01*
X134231108Y-86837530D01*
X134231108Y-85980387D01*
X134342219Y-85980387D01*
X134342219Y-86075625D01*
X134343191Y-86085498D01*
X134343004Y-86088132D01*
X134343791Y-86091595D01*
X134344140Y-86095134D01*
X134345151Y-86097576D01*
X134347351Y-86107248D01*
X134394970Y-86250104D01*
X134402961Y-86268005D01*
X134405316Y-86270720D01*
X134406691Y-86274039D01*
X134419127Y-86289193D01*
X134466746Y-86336811D01*
X134481899Y-86349248D01*
X134517948Y-86364179D01*
X134556966Y-86364179D01*
X134593014Y-86349248D01*
X134620604Y-86321658D01*
X134635535Y-86285610D01*
X134635535Y-86246592D01*
X134620604Y-86210543D01*
X134608167Y-86195390D01*
X134577240Y-86164463D01*
X134542219Y-86059398D01*
X134542219Y-85996614D01*
X134577240Y-85891549D01*
X134644313Y-85824477D01*
X134715218Y-85789024D01*
X134883099Y-85747054D01*
X135001337Y-85747054D01*
X135169218Y-85789024D01*
X135240127Y-85824478D01*
X135307197Y-85891548D01*
X135342219Y-85996613D01*
X135342219Y-86059398D01*
X135307197Y-86164463D01*
X135276270Y-86195390D01*
X135263833Y-86210543D01*
X135248902Y-86246591D01*
X135248901Y-86285609D01*
X135263832Y-86321658D01*
X135291422Y-86349248D01*
X135327470Y-86364179D01*
X135366488Y-86364180D01*
X135402537Y-86349249D01*
X135417690Y-86336812D01*
X135465310Y-86289194D01*
X135477747Y-86274040D01*
X135479122Y-86270720D01*
X135481477Y-86268005D01*
X135489468Y-86250105D01*
X135537087Y-86107248D01*
X135539286Y-86097575D01*
X135540298Y-86095134D01*
X135540646Y-86091596D01*
X135541434Y-86088133D01*
X135541246Y-86085498D01*
X135542219Y-86075625D01*
X135542219Y-85980387D01*
X135541246Y-85970513D01*
X135541434Y-85967879D01*
X135540646Y-85964415D01*
X135540298Y-85960878D01*
X135539286Y-85958436D01*
X135537087Y-85948764D01*
X135489468Y-85805907D01*
X135481477Y-85788007D01*
X135479122Y-85785291D01*
X135477747Y-85781972D01*
X135465311Y-85766819D01*
X135370071Y-85671581D01*
X135362401Y-85665286D01*
X135360672Y-85663292D01*
X135357667Y-85661400D01*
X135354918Y-85659144D01*
X135352474Y-85658131D01*
X135344082Y-85652849D01*
X135248844Y-85605230D01*
X135247417Y-85604684D01*
X135246837Y-85604254D01*
X135238660Y-85601332D01*
X135230536Y-85598224D01*
X135229813Y-85598172D01*
X135228376Y-85597659D01*
X135037901Y-85550040D01*
X135034519Y-85549539D01*
X135033156Y-85548975D01*
X135025805Y-85548251D01*
X135018508Y-85547172D01*
X135017049Y-85547389D01*
X135013647Y-85547054D01*
X134870790Y-85547054D01*
X134867387Y-85547389D01*
X134865929Y-85547172D01*
X134858631Y-85548251D01*
X134851281Y-85548975D01*
X134849917Y-85549539D01*
X134846536Y-85550040D01*
X134656060Y-85597659D01*
X134654621Y-85598172D01*
X134653901Y-85598224D01*
X134645776Y-85601332D01*
X134637600Y-85604254D01*
X134637020Y-85604683D01*
X134635592Y-85605230D01*
X134540355Y-85652849D01*
X134531956Y-85658135D01*
X134529519Y-85659145D01*
X134526775Y-85661396D01*
X134523764Y-85663292D01*
X134522031Y-85665289D01*
X134514365Y-85671581D01*
X134419127Y-85766819D01*
X134406691Y-85781973D01*
X134405316Y-85785291D01*
X134402961Y-85788007D01*
X134394970Y-85805908D01*
X134347351Y-85948764D01*
X134345151Y-85958435D01*
X134344140Y-85960878D01*
X134343791Y-85964416D01*
X134343004Y-85967880D01*
X134343191Y-85970513D01*
X134342219Y-85980387D01*
X134231108Y-85980387D01*
X134231108Y-85435943D01*
X135653330Y-85435943D01*
X135653330Y-89620070D01*
G37*
G36*
X130112746Y-86776860D02*
G01*
X130137414Y-86801527D01*
X130167219Y-86861137D01*
X130167219Y-86956780D01*
X130137414Y-87016389D01*
X130112746Y-87041056D01*
X130053135Y-87070863D01*
X129814635Y-87070863D01*
X129755025Y-87041058D01*
X129730357Y-87016389D01*
X129700552Y-86956779D01*
X129700552Y-86861137D01*
X129730357Y-86801527D01*
X129755025Y-86776858D01*
X129814635Y-86747054D01*
X130053135Y-86747054D01*
X130112746Y-86776860D01*
G37*
G36*
X130478330Y-89620070D02*
G01*
X129056108Y-89620070D01*
X129056108Y-88980388D01*
X129167219Y-88980388D01*
X129167219Y-89218483D01*
X129169140Y-89237992D01*
X129170515Y-89241312D01*
X129170770Y-89244896D01*
X129177776Y-89263204D01*
X129225395Y-89358442D01*
X129230680Y-89366838D01*
X129231691Y-89369278D01*
X129233944Y-89372024D01*
X129235838Y-89375032D01*
X129237832Y-89376761D01*
X129244127Y-89384432D01*
X129291746Y-89432050D01*
X129299412Y-89438342D01*
X129301145Y-89440340D01*
X129304153Y-89442233D01*
X129306899Y-89444487D01*
X129309339Y-89445497D01*
X129317736Y-89450783D01*
X129412973Y-89498402D01*
X129431282Y-89505408D01*
X129434865Y-89505662D01*
X129438186Y-89507038D01*
X129457695Y-89508959D01*
X129552933Y-89508959D01*
X129562806Y-89507986D01*
X129565440Y-89508174D01*
X129568903Y-89507386D01*
X129572442Y-89507038D01*
X129574884Y-89506026D01*
X129584556Y-89503827D01*
X129727412Y-89456208D01*
X129745313Y-89448217D01*
X129748028Y-89445861D01*
X129751347Y-89444487D01*
X129766501Y-89432051D01*
X130167219Y-89031333D01*
X130167219Y-89408959D01*
X130169140Y-89428468D01*
X130184072Y-89464516D01*
X130211662Y-89492106D01*
X130247710Y-89507038D01*
X130286728Y-89507038D01*
X130322776Y-89492106D01*
X130350366Y-89464516D01*
X130365298Y-89428468D01*
X130367219Y-89408959D01*
X130367219Y-88789912D01*
X130365298Y-88770403D01*
X130350366Y-88734355D01*
X130322776Y-88706765D01*
X130286728Y-88691833D01*
X130247710Y-88691833D01*
X130211662Y-88706765D01*
X130196508Y-88719201D01*
X129641770Y-89273937D01*
X129536706Y-89308959D01*
X129481302Y-89308959D01*
X129421692Y-89279154D01*
X129397024Y-89254485D01*
X129367219Y-89194875D01*
X129367219Y-89003995D01*
X129397024Y-88944385D01*
X129433167Y-88908242D01*
X129445604Y-88893089D01*
X129460535Y-88857040D01*
X129460535Y-88818022D01*
X129445604Y-88781974D01*
X129418014Y-88754384D01*
X129381966Y-88739453D01*
X129342948Y-88739453D01*
X129306899Y-88754384D01*
X129291746Y-88766821D01*
X129244127Y-88814439D01*
X129237832Y-88822109D01*
X129235838Y-88823839D01*
X129233944Y-88826846D01*
X129231691Y-88829593D01*
X129230680Y-88832032D01*
X129225395Y-88840429D01*
X129177776Y-88935667D01*
X129170770Y-88953975D01*
X129170515Y-88957558D01*
X129169140Y-88960879D01*
X129167219Y-88980388D01*
X129056108Y-88980388D01*
X129056108Y-87579926D01*
X129169140Y-87579926D01*
X129169140Y-87618944D01*
X129184072Y-87654992D01*
X129211662Y-87682582D01*
X129247710Y-87697514D01*
X129267219Y-87699435D01*
X130100754Y-87699435D01*
X130145064Y-87721589D01*
X130177776Y-87787013D01*
X130188219Y-87803603D01*
X130217696Y-87829168D01*
X130254712Y-87841506D01*
X130293632Y-87838741D01*
X130328530Y-87821292D01*
X130354095Y-87791815D01*
X130366434Y-87754799D01*
X130363668Y-87715879D01*
X130356662Y-87697570D01*
X130309043Y-87602333D01*
X130306989Y-87599070D01*
X130306476Y-87597530D01*
X130304812Y-87595612D01*
X130298600Y-87585742D01*
X130289125Y-87577525D01*
X130280911Y-87568054D01*
X130271039Y-87561840D01*
X130269123Y-87560178D01*
X130267584Y-87559664D01*
X130264321Y-87557611D01*
X130169082Y-87509992D01*
X130150773Y-87502986D01*
X130147190Y-87502731D01*
X130143870Y-87501356D01*
X130124361Y-87499435D01*
X129267219Y-87499435D01*
X129247710Y-87501356D01*
X129211662Y-87516288D01*
X129184072Y-87543878D01*
X129169140Y-87579926D01*
X129056108Y-87579926D01*
X129056108Y-86837530D01*
X129500552Y-86837530D01*
X129500552Y-86980387D01*
X129502473Y-86999896D01*
X129503848Y-87003216D01*
X129504103Y-87006800D01*
X129511109Y-87025108D01*
X129558728Y-87120346D01*
X129564013Y-87128742D01*
X129565024Y-87131182D01*
X129567277Y-87133928D01*
X129569171Y-87136936D01*
X129571165Y-87138665D01*
X129577460Y-87146336D01*
X129625079Y-87193954D01*
X129632745Y-87200246D01*
X129634478Y-87202244D01*
X129637486Y-87204137D01*
X129640232Y-87206391D01*
X129642672Y-87207401D01*
X129651069Y-87212687D01*
X129746306Y-87260306D01*
X129764615Y-87267312D01*
X129768198Y-87267566D01*
X129771519Y-87268942D01*
X129791028Y-87270863D01*
X130076742Y-87270863D01*
X130096251Y-87268942D01*
X130099571Y-87267566D01*
X130103155Y-87267312D01*
X130121463Y-87260306D01*
X130216701Y-87212687D01*
X130225093Y-87207403D01*
X130227537Y-87206392D01*
X130230286Y-87204135D01*
X130233291Y-87202244D01*
X130235020Y-87200249D01*
X130242690Y-87193955D01*
X130290310Y-87146337D01*
X130296603Y-87138668D01*
X130298600Y-87136937D01*
X130300493Y-87133928D01*
X130302747Y-87131183D01*
X130303757Y-87128742D01*
X130309043Y-87120346D01*
X130356662Y-87025109D01*
X130363668Y-87006800D01*
X130363922Y-87003216D01*
X130365298Y-86999896D01*
X130367219Y-86980387D01*
X130367219Y-86837530D01*
X130365298Y-86818021D01*
X130363922Y-86814700D01*
X130363668Y-86811117D01*
X130356662Y-86792808D01*
X130309043Y-86697571D01*
X130303757Y-86689174D01*
X130302747Y-86686734D01*
X130300493Y-86683988D01*
X130298600Y-86680980D01*
X130296603Y-86679248D01*
X130290310Y-86671580D01*
X130242690Y-86623962D01*
X130235020Y-86617667D01*
X130233291Y-86615673D01*
X130230286Y-86613781D01*
X130227537Y-86611525D01*
X130225093Y-86610513D01*
X130216701Y-86605230D01*
X130121463Y-86557611D01*
X130103155Y-86550605D01*
X130099571Y-86550350D01*
X130096251Y-86548975D01*
X130076742Y-86547054D01*
X129791028Y-86547054D01*
X129771519Y-86548975D01*
X129768198Y-86550350D01*
X129764615Y-86550605D01*
X129746306Y-86557611D01*
X129651069Y-86605230D01*
X129642672Y-86610515D01*
X129640232Y-86611526D01*
X129637486Y-86613779D01*
X129634478Y-86615673D01*
X129632745Y-86617670D01*
X129625079Y-86623963D01*
X129577460Y-86671581D01*
X129571165Y-86679251D01*
X129569171Y-86680981D01*
X129567277Y-86683988D01*
X129565024Y-86686735D01*
X129564013Y-86689174D01*
X129558728Y-86697571D01*
X129511109Y-86792809D01*
X129504103Y-86811117D01*
X129503848Y-86814700D01*
X129502473Y-86818021D01*
X129500552Y-86837530D01*
X129056108Y-86837530D01*
X129056108Y-85980387D01*
X129167219Y-85980387D01*
X129167219Y-86075625D01*
X129168191Y-86085498D01*
X129168004Y-86088132D01*
X129168791Y-86091595D01*
X129169140Y-86095134D01*
X129170151Y-86097576D01*
X129172351Y-86107248D01*
X129219970Y-86250104D01*
X129227961Y-86268005D01*
X129230316Y-86270720D01*
X129231691Y-86274039D01*
X129244127Y-86289193D01*
X129291746Y-86336811D01*
X129306899Y-86349248D01*
X129342948Y-86364179D01*
X129381966Y-86364179D01*
X129418014Y-86349248D01*
X129445604Y-86321658D01*
X129460535Y-86285610D01*
X129460535Y-86246592D01*
X129445604Y-86210543D01*
X129433167Y-86195390D01*
X129402240Y-86164463D01*
X129367219Y-86059398D01*
X129367219Y-85996614D01*
X129402240Y-85891549D01*
X129469313Y-85824477D01*
X129540218Y-85789024D01*
X129708099Y-85747054D01*
X129826337Y-85747054D01*
X129994218Y-85789024D01*
X130065127Y-85824478D01*
X130132197Y-85891548D01*
X130167219Y-85996613D01*
X130167219Y-86059398D01*
X130132197Y-86164463D01*
X130101270Y-86195390D01*
X130088833Y-86210543D01*
X130073902Y-86246591D01*
X130073901Y-86285609D01*
X130088832Y-86321658D01*
X130116422Y-86349248D01*
X130152470Y-86364179D01*
X130191488Y-86364180D01*
X130227537Y-86349249D01*
X130242690Y-86336812D01*
X130290310Y-86289194D01*
X130302747Y-86274040D01*
X130304122Y-86270720D01*
X130306477Y-86268005D01*
X130314468Y-86250105D01*
X130362087Y-86107248D01*
X130364286Y-86097575D01*
X130365298Y-86095134D01*
X130365646Y-86091596D01*
X130366434Y-86088133D01*
X130366246Y-86085498D01*
X130367219Y-86075625D01*
X130367219Y-85980387D01*
X130366246Y-85970513D01*
X130366434Y-85967879D01*
X130365646Y-85964415D01*
X130365298Y-85960878D01*
X130364286Y-85958436D01*
X130362087Y-85948764D01*
X130314468Y-85805907D01*
X130306477Y-85788007D01*
X130304122Y-85785291D01*
X130302747Y-85781972D01*
X130290311Y-85766819D01*
X130195071Y-85671581D01*
X130187401Y-85665286D01*
X130185672Y-85663292D01*
X130182667Y-85661400D01*
X130179918Y-85659144D01*
X130177474Y-85658131D01*
X130169082Y-85652849D01*
X130073844Y-85605230D01*
X130072417Y-85604684D01*
X130071837Y-85604254D01*
X130063660Y-85601332D01*
X130055536Y-85598224D01*
X130054813Y-85598172D01*
X130053376Y-85597659D01*
X129862901Y-85550040D01*
X129859519Y-85549539D01*
X129858156Y-85548975D01*
X129850805Y-85548251D01*
X129843508Y-85547172D01*
X129842049Y-85547389D01*
X129838647Y-85547054D01*
X129695790Y-85547054D01*
X129692387Y-85547389D01*
X129690929Y-85547172D01*
X129683631Y-85548251D01*
X129676281Y-85548975D01*
X129674917Y-85549539D01*
X129671536Y-85550040D01*
X129481060Y-85597659D01*
X129479621Y-85598172D01*
X129478901Y-85598224D01*
X129470776Y-85601332D01*
X129462600Y-85604254D01*
X129462020Y-85604683D01*
X129460592Y-85605230D01*
X129365355Y-85652849D01*
X129356956Y-85658135D01*
X129354519Y-85659145D01*
X129351775Y-85661396D01*
X129348764Y-85663292D01*
X129347031Y-85665289D01*
X129339365Y-85671581D01*
X129244127Y-85766819D01*
X129231691Y-85781973D01*
X129230316Y-85785291D01*
X129227961Y-85788007D01*
X129219970Y-85805908D01*
X129172351Y-85948764D01*
X129170151Y-85958435D01*
X129169140Y-85960878D01*
X129168791Y-85964416D01*
X129168004Y-85967880D01*
X129168191Y-85970513D01*
X129167219Y-85980387D01*
X129056108Y-85980387D01*
X129056108Y-85435943D01*
X130478330Y-85435943D01*
X130478330Y-89620070D01*
G37*
G36*
X125037746Y-86776860D02*
G01*
X125062414Y-86801527D01*
X125092219Y-86861137D01*
X125092219Y-86956780D01*
X125062414Y-87016389D01*
X125037746Y-87041056D01*
X124978135Y-87070863D01*
X124739635Y-87070863D01*
X124680025Y-87041058D01*
X124655357Y-87016389D01*
X124625552Y-86956779D01*
X124625552Y-86861137D01*
X124655357Y-86801527D01*
X124680025Y-86776858D01*
X124739635Y-86747054D01*
X124978135Y-86747054D01*
X125037746Y-86776860D01*
G37*
G36*
X125403330Y-89618149D02*
G01*
X123981108Y-89618149D01*
X123981108Y-89123140D01*
X124092219Y-89123140D01*
X124094140Y-89132850D01*
X124094140Y-89142754D01*
X124097889Y-89151806D01*
X124099791Y-89161417D01*
X124105283Y-89169655D01*
X124109072Y-89178802D01*
X124115998Y-89185728D01*
X124121434Y-89193882D01*
X124129662Y-89199392D01*
X124136662Y-89206392D01*
X124145713Y-89210141D01*
X124153854Y-89215593D01*
X124163561Y-89217534D01*
X124172710Y-89221324D01*
X124192012Y-89223224D01*
X124192114Y-89223245D01*
X124192148Y-89223238D01*
X124192219Y-89223245D01*
X125092219Y-89223245D01*
X125092219Y-89408959D01*
X125094140Y-89428468D01*
X125109072Y-89464516D01*
X125136662Y-89492106D01*
X125172710Y-89507038D01*
X125211728Y-89507038D01*
X125247776Y-89492106D01*
X125275366Y-89464516D01*
X125290298Y-89428468D01*
X125292219Y-89408959D01*
X125292219Y-88837531D01*
X125290298Y-88818022D01*
X125275366Y-88781974D01*
X125247776Y-88754384D01*
X125211728Y-88739452D01*
X125172710Y-88739452D01*
X125136662Y-88754384D01*
X125109072Y-88781974D01*
X125094140Y-88818022D01*
X125092219Y-88837531D01*
X125092219Y-89023245D01*
X124481260Y-89023245D01*
X124501025Y-89003480D01*
X124507316Y-88995813D01*
X124509314Y-88994081D01*
X124511209Y-88991069D01*
X124513461Y-88988326D01*
X124514470Y-88985888D01*
X124519757Y-88977490D01*
X124567376Y-88882253D01*
X124574382Y-88863944D01*
X124577148Y-88825024D01*
X124564809Y-88788008D01*
X124539244Y-88758531D01*
X124504346Y-88741082D01*
X124465426Y-88738317D01*
X124428410Y-88750655D01*
X124398933Y-88776220D01*
X124388490Y-88792810D01*
X124348129Y-88873532D01*
X124271365Y-88950296D01*
X124136749Y-89040040D01*
X124136694Y-89040084D01*
X124136662Y-89040098D01*
X124136588Y-89040171D01*
X124121582Y-89052460D01*
X124116071Y-89060688D01*
X124109072Y-89067688D01*
X124105322Y-89076739D01*
X124099871Y-89084880D01*
X124097929Y-89094587D01*
X124094140Y-89103736D01*
X124094140Y-89113535D01*
X124092219Y-89123140D01*
X123981108Y-89123140D01*
X123981108Y-87579926D01*
X124094140Y-87579926D01*
X124094140Y-87618944D01*
X124109072Y-87654992D01*
X124136662Y-87682582D01*
X124172710Y-87697514D01*
X124192219Y-87699435D01*
X125025754Y-87699435D01*
X125070064Y-87721589D01*
X125102776Y-87787013D01*
X125113219Y-87803603D01*
X125142696Y-87829168D01*
X125179712Y-87841506D01*
X125218632Y-87838741D01*
X125253530Y-87821292D01*
X125279095Y-87791815D01*
X125291434Y-87754799D01*
X125288668Y-87715879D01*
X125281662Y-87697570D01*
X125234043Y-87602333D01*
X125231989Y-87599070D01*
X125231476Y-87597530D01*
X125229812Y-87595612D01*
X125223600Y-87585742D01*
X125214125Y-87577525D01*
X125205911Y-87568054D01*
X125196039Y-87561840D01*
X125194123Y-87560178D01*
X125192584Y-87559664D01*
X125189321Y-87557611D01*
X125094082Y-87509992D01*
X125075773Y-87502986D01*
X125072190Y-87502731D01*
X125068870Y-87501356D01*
X125049361Y-87499435D01*
X124192219Y-87499435D01*
X124172710Y-87501356D01*
X124136662Y-87516288D01*
X124109072Y-87543878D01*
X124094140Y-87579926D01*
X123981108Y-87579926D01*
X123981108Y-86837530D01*
X124425552Y-86837530D01*
X124425552Y-86980387D01*
X124427473Y-86999896D01*
X124428848Y-87003216D01*
X124429103Y-87006800D01*
X124436109Y-87025108D01*
X124483728Y-87120346D01*
X124489013Y-87128742D01*
X124490024Y-87131182D01*
X124492277Y-87133928D01*
X124494171Y-87136936D01*
X124496165Y-87138665D01*
X124502460Y-87146336D01*
X124550079Y-87193954D01*
X124557745Y-87200246D01*
X124559478Y-87202244D01*
X124562486Y-87204137D01*
X124565232Y-87206391D01*
X124567672Y-87207401D01*
X124576069Y-87212687D01*
X124671306Y-87260306D01*
X124689615Y-87267312D01*
X124693198Y-87267566D01*
X124696519Y-87268942D01*
X124716028Y-87270863D01*
X125001742Y-87270863D01*
X125021251Y-87268942D01*
X125024571Y-87267566D01*
X125028155Y-87267312D01*
X125046463Y-87260306D01*
X125141701Y-87212687D01*
X125150093Y-87207403D01*
X125152537Y-87206392D01*
X125155286Y-87204135D01*
X125158291Y-87202244D01*
X125160020Y-87200249D01*
X125167690Y-87193955D01*
X125215310Y-87146337D01*
X125221603Y-87138668D01*
X125223600Y-87136937D01*
X125225493Y-87133928D01*
X125227747Y-87131183D01*
X125228757Y-87128742D01*
X125234043Y-87120346D01*
X125281662Y-87025109D01*
X125288668Y-87006800D01*
X125288922Y-87003216D01*
X125290298Y-86999896D01*
X125292219Y-86980387D01*
X125292219Y-86837530D01*
X125290298Y-86818021D01*
X125288922Y-86814700D01*
X125288668Y-86811117D01*
X125281662Y-86792808D01*
X125234043Y-86697571D01*
X125228757Y-86689174D01*
X125227747Y-86686734D01*
X125225493Y-86683988D01*
X125223600Y-86680980D01*
X125221603Y-86679248D01*
X125215310Y-86671580D01*
X125167690Y-86623962D01*
X125160020Y-86617667D01*
X125158291Y-86615673D01*
X125155286Y-86613781D01*
X125152537Y-86611525D01*
X125150093Y-86610513D01*
X125141701Y-86605230D01*
X125046463Y-86557611D01*
X125028155Y-86550605D01*
X125024571Y-86550350D01*
X125021251Y-86548975D01*
X125001742Y-86547054D01*
X124716028Y-86547054D01*
X124696519Y-86548975D01*
X124693198Y-86550350D01*
X124689615Y-86550605D01*
X124671306Y-86557611D01*
X124576069Y-86605230D01*
X124567672Y-86610515D01*
X124565232Y-86611526D01*
X124562486Y-86613779D01*
X124559478Y-86615673D01*
X124557745Y-86617670D01*
X124550079Y-86623963D01*
X124502460Y-86671581D01*
X124496165Y-86679251D01*
X124494171Y-86680981D01*
X124492277Y-86683988D01*
X124490024Y-86686735D01*
X124489013Y-86689174D01*
X124483728Y-86697571D01*
X124436109Y-86792809D01*
X124429103Y-86811117D01*
X124428848Y-86814700D01*
X124427473Y-86818021D01*
X124425552Y-86837530D01*
X123981108Y-86837530D01*
X123981108Y-85980387D01*
X124092219Y-85980387D01*
X124092219Y-86075625D01*
X124093191Y-86085498D01*
X124093004Y-86088132D01*
X124093791Y-86091595D01*
X124094140Y-86095134D01*
X124095151Y-86097576D01*
X124097351Y-86107248D01*
X124144970Y-86250104D01*
X124152961Y-86268005D01*
X124155316Y-86270720D01*
X124156691Y-86274039D01*
X124169127Y-86289193D01*
X124216746Y-86336811D01*
X124231899Y-86349248D01*
X124267948Y-86364179D01*
X124306966Y-86364179D01*
X124343014Y-86349248D01*
X124370604Y-86321658D01*
X124385535Y-86285610D01*
X124385535Y-86246592D01*
X124370604Y-86210543D01*
X124358167Y-86195390D01*
X124327240Y-86164463D01*
X124292219Y-86059398D01*
X124292219Y-85996614D01*
X124327240Y-85891549D01*
X124394313Y-85824477D01*
X124465218Y-85789024D01*
X124633099Y-85747054D01*
X124751337Y-85747054D01*
X124919218Y-85789024D01*
X124990127Y-85824478D01*
X125057197Y-85891548D01*
X125092219Y-85996613D01*
X125092219Y-86059398D01*
X125057197Y-86164463D01*
X125026270Y-86195390D01*
X125013833Y-86210543D01*
X124998902Y-86246591D01*
X124998901Y-86285609D01*
X125013832Y-86321658D01*
X125041422Y-86349248D01*
X125077470Y-86364179D01*
X125116488Y-86364180D01*
X125152537Y-86349249D01*
X125167690Y-86336812D01*
X125215310Y-86289194D01*
X125227747Y-86274040D01*
X125229122Y-86270720D01*
X125231477Y-86268005D01*
X125239468Y-86250105D01*
X125287087Y-86107248D01*
X125289286Y-86097575D01*
X125290298Y-86095134D01*
X125290646Y-86091596D01*
X125291434Y-86088133D01*
X125291246Y-86085498D01*
X125292219Y-86075625D01*
X125292219Y-85980387D01*
X125291246Y-85970513D01*
X125291434Y-85967879D01*
X125290646Y-85964415D01*
X125290298Y-85960878D01*
X125289286Y-85958436D01*
X125287087Y-85948764D01*
X125239468Y-85805907D01*
X125231477Y-85788007D01*
X125229122Y-85785291D01*
X125227747Y-85781972D01*
X125215311Y-85766819D01*
X125120071Y-85671581D01*
X125112401Y-85665286D01*
X125110672Y-85663292D01*
X125107667Y-85661400D01*
X125104918Y-85659144D01*
X125102474Y-85658131D01*
X125094082Y-85652849D01*
X124998844Y-85605230D01*
X124997417Y-85604684D01*
X124996837Y-85604254D01*
X124988660Y-85601332D01*
X124980536Y-85598224D01*
X124979813Y-85598172D01*
X124978376Y-85597659D01*
X124787901Y-85550040D01*
X124784519Y-85549539D01*
X124783156Y-85548975D01*
X124775805Y-85548251D01*
X124768508Y-85547172D01*
X124767049Y-85547389D01*
X124763647Y-85547054D01*
X124620790Y-85547054D01*
X124617387Y-85547389D01*
X124615929Y-85547172D01*
X124608631Y-85548251D01*
X124601281Y-85548975D01*
X124599917Y-85549539D01*
X124596536Y-85550040D01*
X124406060Y-85597659D01*
X124404621Y-85598172D01*
X124403901Y-85598224D01*
X124395776Y-85601332D01*
X124387600Y-85604254D01*
X124387020Y-85604683D01*
X124385592Y-85605230D01*
X124290355Y-85652849D01*
X124281956Y-85658135D01*
X124279519Y-85659145D01*
X124276775Y-85661396D01*
X124273764Y-85663292D01*
X124272031Y-85665289D01*
X124264365Y-85671581D01*
X124169127Y-85766819D01*
X124156691Y-85781973D01*
X124155316Y-85785291D01*
X124152961Y-85788007D01*
X124144970Y-85805908D01*
X124097351Y-85948764D01*
X124095151Y-85958435D01*
X124094140Y-85960878D01*
X124093791Y-85964416D01*
X124093004Y-85967880D01*
X124093191Y-85970513D01*
X124092219Y-85980387D01*
X123981108Y-85980387D01*
X123981108Y-85435943D01*
X125403330Y-85435943D01*
X125403330Y-89618149D01*
G37*
D12*
X150908333Y-101779819D02*
X150908333Y-102494104D01*
X150908333Y-102494104D02*
X150955952Y-102636961D01*
X150955952Y-102636961D02*
X151051190Y-102732200D01*
X151051190Y-102732200D02*
X151194047Y-102779819D01*
X151194047Y-102779819D02*
X151289285Y-102779819D01*
X150003571Y-101779819D02*
X150194047Y-101779819D01*
X150194047Y-101779819D02*
X150289285Y-101827438D01*
X150289285Y-101827438D02*
X150336904Y-101875057D01*
X150336904Y-101875057D02*
X150432142Y-102017914D01*
X150432142Y-102017914D02*
X150479761Y-102208390D01*
X150479761Y-102208390D02*
X150479761Y-102589342D01*
X150479761Y-102589342D02*
X150432142Y-102684580D01*
X150432142Y-102684580D02*
X150384523Y-102732200D01*
X150384523Y-102732200D02*
X150289285Y-102779819D01*
X150289285Y-102779819D02*
X150098809Y-102779819D01*
X150098809Y-102779819D02*
X150003571Y-102732200D01*
X150003571Y-102732200D02*
X149955952Y-102684580D01*
X149955952Y-102684580D02*
X149908333Y-102589342D01*
X149908333Y-102589342D02*
X149908333Y-102351247D01*
X149908333Y-102351247D02*
X149955952Y-102256009D01*
X149955952Y-102256009D02*
X150003571Y-102208390D01*
X150003571Y-102208390D02*
X150098809Y-102160771D01*
X150098809Y-102160771D02*
X150289285Y-102160771D01*
X150289285Y-102160771D02*
X150384523Y-102208390D01*
X150384523Y-102208390D02*
X150432142Y-102256009D01*
X150432142Y-102256009D02*
X150479761Y-102351247D01*
X152133333Y-85504819D02*
X152133333Y-86219104D01*
X152133333Y-86219104D02*
X152180952Y-86361961D01*
X152180952Y-86361961D02*
X152276190Y-86457200D01*
X152276190Y-86457200D02*
X152419047Y-86504819D01*
X152419047Y-86504819D02*
X152514285Y-86504819D01*
X151180952Y-85504819D02*
X151657142Y-85504819D01*
X151657142Y-85504819D02*
X151704761Y-85981009D01*
X151704761Y-85981009D02*
X151657142Y-85933390D01*
X151657142Y-85933390D02*
X151561904Y-85885771D01*
X151561904Y-85885771D02*
X151323809Y-85885771D01*
X151323809Y-85885771D02*
X151228571Y-85933390D01*
X151228571Y-85933390D02*
X151180952Y-85981009D01*
X151180952Y-85981009D02*
X151133333Y-86076247D01*
X151133333Y-86076247D02*
X151133333Y-86314342D01*
X151133333Y-86314342D02*
X151180952Y-86409580D01*
X151180952Y-86409580D02*
X151228571Y-86457200D01*
X151228571Y-86457200D02*
X151323809Y-86504819D01*
X151323809Y-86504819D02*
X151561904Y-86504819D01*
X151561904Y-86504819D02*
X151657142Y-86457200D01*
X151657142Y-86457200D02*
X151704761Y-86409580D01*
X121814819Y-94391666D02*
X122529104Y-94391666D01*
X122529104Y-94391666D02*
X122671961Y-94344047D01*
X122671961Y-94344047D02*
X122767200Y-94248809D01*
X122767200Y-94248809D02*
X122814819Y-94105952D01*
X122814819Y-94105952D02*
X122814819Y-94010714D01*
X122814819Y-95391666D02*
X122814819Y-94820238D01*
X122814819Y-95105952D02*
X121814819Y-95105952D01*
X121814819Y-95105952D02*
X121957676Y-95010714D01*
X121957676Y-95010714D02*
X122052914Y-94915476D01*
X122052914Y-94915476D02*
X122100533Y-94820238D01*
X156058333Y-101779819D02*
X156058333Y-102494104D01*
X156058333Y-102494104D02*
X156105952Y-102636961D01*
X156105952Y-102636961D02*
X156201190Y-102732200D01*
X156201190Y-102732200D02*
X156344047Y-102779819D01*
X156344047Y-102779819D02*
X156439285Y-102779819D01*
X155629761Y-101875057D02*
X155582142Y-101827438D01*
X155582142Y-101827438D02*
X155486904Y-101779819D01*
X155486904Y-101779819D02*
X155248809Y-101779819D01*
X155248809Y-101779819D02*
X155153571Y-101827438D01*
X155153571Y-101827438D02*
X155105952Y-101875057D01*
X155105952Y-101875057D02*
X155058333Y-101970295D01*
X155058333Y-101970295D02*
X155058333Y-102065533D01*
X155058333Y-102065533D02*
X155105952Y-102208390D01*
X155105952Y-102208390D02*
X155677380Y-102779819D01*
X155677380Y-102779819D02*
X155058333Y-102779819D01*
X150483333Y-88804819D02*
X150483333Y-89519104D01*
X150483333Y-89519104D02*
X150530952Y-89661961D01*
X150530952Y-89661961D02*
X150626190Y-89757200D01*
X150626190Y-89757200D02*
X150769047Y-89804819D01*
X150769047Y-89804819D02*
X150864285Y-89804819D01*
X150102380Y-88804819D02*
X149435714Y-88804819D01*
X149435714Y-88804819D02*
X149864285Y-89804819D01*
X153483333Y-101679819D02*
X153483333Y-102394104D01*
X153483333Y-102394104D02*
X153530952Y-102536961D01*
X153530952Y-102536961D02*
X153626190Y-102632200D01*
X153626190Y-102632200D02*
X153769047Y-102679819D01*
X153769047Y-102679819D02*
X153864285Y-102679819D01*
X152578571Y-102013152D02*
X152578571Y-102679819D01*
X152816666Y-101632200D02*
X153054761Y-102346485D01*
X153054761Y-102346485D02*
X152435714Y-102346485D01*
X153350201Y-87428796D02*
X153855277Y-87933872D01*
X153855277Y-87933872D02*
X153989964Y-88001216D01*
X153989964Y-88001216D02*
X154124651Y-88001216D01*
X154124651Y-88001216D02*
X154259338Y-87933872D01*
X154259338Y-87933872D02*
X154326682Y-87866529D01*
X153080827Y-87698170D02*
X152643094Y-88135903D01*
X152643094Y-88135903D02*
X153148170Y-88169575D01*
X153148170Y-88169575D02*
X153047155Y-88270590D01*
X153047155Y-88270590D02*
X153013483Y-88371605D01*
X153013483Y-88371605D02*
X153013483Y-88438949D01*
X153013483Y-88438949D02*
X153047155Y-88539964D01*
X153047155Y-88539964D02*
X153215514Y-88708323D01*
X153215514Y-88708323D02*
X153316529Y-88741994D01*
X153316529Y-88741994D02*
X153383872Y-88741994D01*
X153383872Y-88741994D02*
X153484888Y-88708323D01*
X153484888Y-88708323D02*
X153686918Y-88506292D01*
X153686918Y-88506292D02*
X153720590Y-88405277D01*
X153720590Y-88405277D02*
X153720590Y-88337933D01*
D13*
%TO.C,J1*%
X123360000Y-92075000D02*
X123360000Y-97375000D01*
X123360000Y-92075000D02*
X123930000Y-92075000D01*
X123360000Y-97375000D02*
X123930000Y-97375000D01*
X123929999Y-90685000D02*
X123930000Y-92075000D01*
X125550000Y-92075000D02*
X126470000Y-92075000D01*
X125550000Y-97375000D02*
X126470000Y-97375000D01*
X128090000Y-92075000D02*
X129010000Y-92075000D01*
X128090000Y-97375000D02*
X129010000Y-97375000D01*
X130630000Y-92075000D02*
X131550001Y-92075000D01*
X130630000Y-97375000D02*
X131550001Y-97375000D01*
X133170001Y-92075000D02*
X134090000Y-92075000D01*
X133170001Y-97375000D02*
X134090000Y-97375000D01*
X135710000Y-92075000D02*
X136630000Y-92075000D01*
X135710000Y-97375000D02*
X136630000Y-97375000D01*
X138250000Y-92075000D02*
X139170000Y-92075000D01*
X138250000Y-97375000D02*
X139170000Y-97375000D01*
X140790000Y-92075000D02*
X141709999Y-92075000D01*
X140790000Y-97375000D02*
X141709999Y-97375000D01*
X143329999Y-92075000D02*
X144250000Y-92075000D01*
X143329999Y-97375000D02*
X144250000Y-97375000D01*
X145870000Y-92075000D02*
X146790000Y-92075000D01*
X145870000Y-97375000D02*
X146790000Y-97375000D01*
X148410000Y-92075000D02*
X149330000Y-92075000D01*
X148410000Y-97375000D02*
X149330000Y-97375000D01*
X150950000Y-92075000D02*
X151870000Y-92075000D01*
X150950000Y-97375000D02*
X151870000Y-97375000D01*
X153490000Y-92075000D02*
X154410001Y-92075000D01*
X153490000Y-97375000D02*
X154410001Y-97375000D01*
X156030001Y-92075000D02*
X156950000Y-92075000D01*
X156030001Y-97375000D02*
X156950000Y-97375000D01*
X158570000Y-92075000D02*
X159490000Y-92075000D01*
X158570000Y-97375000D02*
X159490000Y-97375000D01*
X161110000Y-92075000D02*
X162030000Y-92075000D01*
X161110000Y-97375000D02*
X162030000Y-97375000D01*
X163650000Y-92075000D02*
X164569999Y-92075000D01*
X163650000Y-97375000D02*
X164569999Y-97375000D01*
X166189999Y-92075000D02*
X167110000Y-92075000D01*
X166189999Y-97375000D02*
X167110000Y-97375000D01*
X168730000Y-92075000D02*
X169650000Y-92075000D01*
X168730000Y-97375000D02*
X169650000Y-97375000D01*
X171270000Y-92075000D02*
X172190000Y-92075000D01*
X171270000Y-97375000D02*
X172190000Y-97375000D01*
X173810000Y-92075000D02*
X174380000Y-92075000D01*
X173810000Y-97375000D02*
X174380000Y-97375000D01*
X174380000Y-92075000D02*
X174380000Y-97375000D01*
%TD*%
M02*
