%TF.GenerationSoftware,KiCad,Pcbnew,9.0.6*%
%TF.CreationDate,2026-01-17T10:48:15+11:00*%
%TF.ProjectId,Cooee_keyboard_68mm,436f6f65-655f-46b6-9579-626f6172645f,rev?*%
%TF.SameCoordinates,Original*%
%TF.FileFunction,Paste,Top*%
%TF.FilePolarity,Positive*%
%FSLAX46Y46*%
G04 Gerber Fmt 4.6, Leading zero omitted, Abs format (unit mm)*
G04 Created by KiCad (PCBNEW 9.0.6) date 2026-01-17 10:48:15*
%MOMM*%
%LPD*%
G01*
G04 APERTURE LIST*
G04 Aperture macros list*
%AMRoundRect*
0 Rectangle with rounded corners*
0 $1 Rounding radius*
0 $2 $3 $4 $5 $6 $7 $8 $9 X,Y pos of 4 corners*
0 Add a 4 corners polygon primitive as box body*
4,1,4,$2,$3,$4,$5,$6,$7,$8,$9,$2,$3,0*
0 Add four circle primitives for the rounded corners*
1,1,$1+$1,$2,$3*
1,1,$1+$1,$4,$5*
1,1,$1+$1,$6,$7*
1,1,$1+$1,$8,$9*
0 Add four rect primitives between the rounded corners*
20,1,$1+$1,$2,$3,$4,$5,0*
20,1,$1+$1,$4,$5,$6,$7,0*
20,1,$1+$1,$6,$7,$8,$9,0*
20,1,$1+$1,$8,$9,$2,$3,0*%
G04 Aperture macros list end*
%ADD10RoundRect,0.250000X-0.350000X-0.450000X0.350000X-0.450000X0.350000X0.450000X-0.350000X0.450000X0*%
%ADD11RoundRect,0.250000X0.350000X0.450000X-0.350000X0.450000X-0.350000X-0.450000X0.350000X-0.450000X0*%
%ADD12RoundRect,0.243750X0.243750X0.456250X-0.243750X0.456250X-0.243750X-0.456250X0.243750X-0.456250X0*%
%ADD13RoundRect,0.243750X-0.243750X-0.456250X0.243750X-0.456250X0.243750X0.456250X-0.243750X0.456250X0*%
%ADD14R,1.700000X0.900000*%
%ADD15R,0.900000X1.700000*%
%ADD16RoundRect,0.243750X-0.456250X0.243750X-0.456250X-0.243750X0.456250X-0.243750X0.456250X0.243750X0*%
G04 APERTURE END LIST*
D10*
%TO.C,R6*%
X163762499Y-108805000D03*
X165762499Y-108805000D03*
%TD*%
%TO.C,R4*%
X176800000Y-92300000D03*
X178800000Y-92300000D03*
%TD*%
D11*
%TO.C,R3*%
X124125000Y-92300000D03*
X122125000Y-92300000D03*
%TD*%
%TO.C,R2*%
X136300000Y-108700000D03*
X134300000Y-108700000D03*
%TD*%
D12*
%TO.C,D47*%
X162100000Y-108800000D03*
X160224998Y-108800000D03*
%TD*%
%TO.C,D40*%
X175137501Y-92300000D03*
X173262499Y-92300000D03*
%TD*%
D13*
%TO.C,D6*%
X125825000Y-92300000D03*
X127700000Y-92300000D03*
%TD*%
%TO.C,D4*%
X137925000Y-108700000D03*
X139800000Y-108700000D03*
%TD*%
%TO.C,D36*%
X160258699Y-82250000D03*
X162133701Y-82250000D03*
%TD*%
D14*
%TO.C,SWe88*%
X160850001Y-110774999D03*
X160850001Y-114175001D03*
%TD*%
D13*
%TO.C,D39*%
X180525499Y-82150000D03*
X182400501Y-82150000D03*
%TD*%
%TO.C,D20*%
X143415599Y-97975000D03*
X145290601Y-97975000D03*
%TD*%
%TO.C,D52*%
X170413899Y-113200000D03*
X172288901Y-113200000D03*
%TD*%
%TO.C,D11*%
X132869599Y-82250000D03*
X134744601Y-82250000D03*
%TD*%
D15*
%TO.C,SWe14*%
X158983300Y-86875000D03*
X162383300Y-86875000D03*
%TD*%
%TO.C,SWe64*%
X148700000Y-103525000D03*
X152100000Y-103525000D03*
%TD*%
D13*
%TO.C,D15*%
X132959699Y-89550000D03*
X134834701Y-89550000D03*
%TD*%
D15*
%TO.C,SWe7*%
X169800000Y-118500000D03*
X166399998Y-118500000D03*
%TD*%
%TO.C,SWe12*%
X119475000Y-113175000D03*
X122875000Y-113175000D03*
%TD*%
%TO.C,SWe13*%
X152200000Y-118575000D03*
X155600000Y-118575000D03*
%TD*%
D13*
%TO.C,D21*%
X150008299Y-106025000D03*
X151883301Y-106025000D03*
%TD*%
%TO.C,D26*%
X157134399Y-97975000D03*
X159009401Y-97975000D03*
%TD*%
%TO.C,D43*%
X174276399Y-89550000D03*
X176151401Y-89550000D03*
%TD*%
%TO.C,D14*%
X136219399Y-106025000D03*
X138094401Y-106025000D03*
%TD*%
D15*
%TO.C,SWe50*%
X181400001Y-112450000D03*
X177999999Y-112450000D03*
%TD*%
D13*
%TO.C,D17*%
X143113899Y-106025000D03*
X144988901Y-106025000D03*
%TD*%
D15*
%TO.C,SWe38*%
X169051065Y-95475000D03*
X172780476Y-95475000D03*
%TD*%
D16*
%TO.C,D22*%
X157650001Y-116987499D03*
X157650001Y-118862501D03*
%TD*%
D13*
%TO.C,D27*%
X163797199Y-106025000D03*
X165672201Y-106025000D03*
%TD*%
%TO.C,D45*%
X170853099Y-97975000D03*
X172728101Y-97975000D03*
%TD*%
D15*
%TO.C,SWe20*%
X138283300Y-79750000D03*
X141683300Y-79750000D03*
%TD*%
%TO.C,SWe21*%
X145186100Y-79750000D03*
X148586100Y-79750000D03*
%TD*%
%TO.C,SWe73*%
X148497794Y-95475000D03*
X152227206Y-95475000D03*
%TD*%
%TO.C,SWe53*%
X134800047Y-95475000D03*
X138529459Y-95475000D03*
%TD*%
%TO.C,SWe87*%
X155600000Y-103525000D03*
X159000000Y-103525000D03*
%TD*%
%TO.C,SWe2*%
X162700002Y-118800000D03*
X159300000Y-118800000D03*
%TD*%
D13*
%TO.C,D8*%
X122837499Y-97975000D03*
X124712501Y-97975000D03*
%TD*%
D15*
%TO.C,SWe33*%
X121074999Y-95475000D03*
X124804412Y-95475000D03*
%TD*%
D13*
%TO.C,D16*%
X136556299Y-97975000D03*
X138431301Y-97975000D03*
%TD*%
D15*
%TO.C,SWe62*%
X138316700Y-86875000D03*
X141716700Y-86875000D03*
%TD*%
%TO.C,SWe28*%
X172797200Y-79750000D03*
X176197200Y-79750000D03*
%TD*%
%TO.C,SWe27*%
X165894400Y-79750000D03*
X169294400Y-79750000D03*
%TD*%
%TO.C,SWe29*%
X179425000Y-79650000D03*
X182825000Y-79650000D03*
%TD*%
%TO.C,SWe34*%
X128000000Y-103525000D03*
X131400000Y-103525000D03*
%TD*%
D13*
%TO.C,D25*%
X153618099Y-89550000D03*
X155493101Y-89550000D03*
%TD*%
%TO.C,D3*%
X120762499Y-106175000D03*
X122637501Y-106175000D03*
%TD*%
D12*
%TO.C,D91*%
X150803409Y-110975336D03*
X148928407Y-110975336D03*
%TD*%
D15*
%TO.C,SWe4*%
X152094400Y-86875000D03*
X155494400Y-86875000D03*
%TD*%
%TO.C,SWe26*%
X158991700Y-79750000D03*
X162391700Y-79750000D03*
%TD*%
D13*
%TO.C,D18*%
X153749999Y-115850000D03*
X155625001Y-115850000D03*
%TD*%
D15*
%TO.C,SWe63*%
X141648871Y-95475000D03*
X145378282Y-95475000D03*
%TD*%
%TO.C,SWe44*%
X134900000Y-103525000D03*
X138300000Y-103525000D03*
%TD*%
D13*
%TO.C,D23*%
X146731899Y-89550000D03*
X148606901Y-89550000D03*
%TD*%
D15*
%TO.C,SWe15*%
X162195541Y-95475000D03*
X165924953Y-95475000D03*
%TD*%
%TO.C,SWe42*%
X124538900Y-86875000D03*
X127938900Y-86875000D03*
%TD*%
%TO.C,SWe25*%
X152088900Y-79750000D03*
X155488900Y-79750000D03*
%TD*%
D13*
%TO.C,D92*%
X156902800Y-106025000D03*
X158777800Y-106025000D03*
%TD*%
%TO.C,D5*%
X120999999Y-110800000D03*
X122875001Y-110800000D03*
%TD*%
%TO.C,D24*%
X150274999Y-97975000D03*
X152150001Y-97975000D03*
%TD*%
D16*
%TO.C,D93*%
X158250001Y-112237499D03*
X158250001Y-114112501D03*
%TD*%
D15*
%TO.C,SWe52*%
X131427800Y-86875000D03*
X134827800Y-86875000D03*
%TD*%
D13*
%TO.C,D32*%
X179299999Y-106675000D03*
X181175001Y-106675000D03*
%TD*%
%TO.C,D38*%
X173953199Y-82250000D03*
X175828201Y-82250000D03*
%TD*%
%TO.C,D13*%
X129696899Y-97975000D03*
X131571901Y-97975000D03*
%TD*%
D15*
%TO.C,SWe48*%
X168800000Y-110700000D03*
X172200000Y-110700000D03*
%TD*%
D13*
%TO.C,D30*%
X163993799Y-97975000D03*
X165868801Y-97975000D03*
%TD*%
%TO.C,D9*%
X119187499Y-89550000D03*
X121062501Y-89550000D03*
%TD*%
%TO.C,D34*%
X146564099Y-82250000D03*
X148439101Y-82250000D03*
%TD*%
%TO.C,D10*%
X126022299Y-82250000D03*
X127897301Y-82250000D03*
%TD*%
D15*
%TO.C,SWe54*%
X141800000Y-103525000D03*
X145200000Y-103525000D03*
%TD*%
%TO.C,SWe39*%
X175920588Y-95475000D03*
X179650000Y-95475000D03*
%TD*%
%TO.C,SWe72*%
X145205600Y-86875000D03*
X148605600Y-86875000D03*
%TD*%
%TO.C,SWe16*%
X169400000Y-103525000D03*
X172800000Y-103525000D03*
%TD*%
D13*
%TO.C,D35*%
X153411399Y-82250000D03*
X155286401Y-82250000D03*
%TD*%
D15*
%TO.C,SWe47*%
X127984700Y-112475000D03*
X131384700Y-112475000D03*
%TD*%
%TO.C,SWe86*%
X143840908Y-110775336D03*
X147240908Y-110775336D03*
%TD*%
D12*
%TO.C,D28*%
X168537501Y-115875000D03*
X166662499Y-115875000D03*
%TD*%
D15*
%TO.C,SWe5*%
X155346718Y-95475000D03*
X159076129Y-95475000D03*
%TD*%
D13*
%TO.C,D42*%
X167390299Y-89550000D03*
X169265301Y-89550000D03*
%TD*%
%TO.C,D2*%
X119174999Y-82250000D03*
X121050001Y-82250000D03*
%TD*%
%TO.C,D44*%
X180887498Y-89425000D03*
X182762500Y-89425000D03*
%TD*%
%TO.C,D19*%
X139845799Y-89550000D03*
X141720801Y-89550000D03*
%TD*%
D15*
%TO.C,ESC1*%
X117574999Y-79750000D03*
X120975001Y-79750000D03*
%TD*%
%TO.C,SWe35*%
X165872200Y-86875000D03*
X169272200Y-86875000D03*
%TD*%
D13*
%TO.C,D29*%
X160504199Y-89550000D03*
X162379201Y-89550000D03*
%TD*%
D15*
%TO.C,SWe32*%
X117649999Y-86875000D03*
X121050001Y-86875000D03*
%TD*%
D13*
%TO.C,D31*%
X170691699Y-106025000D03*
X172566701Y-106025000D03*
%TD*%
D15*
%TO.C,SWe8*%
X124477800Y-79750000D03*
X127877800Y-79750000D03*
%TD*%
%TO.C,SWe6*%
X162500000Y-103525000D03*
X165900000Y-103525000D03*
%TD*%
D13*
%TO.C,D7*%
X129324999Y-106025000D03*
X131200001Y-106025000D03*
%TD*%
D15*
%TO.C,SWe43*%
X127944524Y-95475000D03*
X131673935Y-95475000D03*
%TD*%
D13*
%TO.C,D51*%
X129687499Y-109800000D03*
X131562501Y-109800000D03*
%TD*%
D15*
%TO.C,SWe37*%
X179374998Y-86750000D03*
X182775000Y-86750000D03*
%TD*%
%TO.C,SWe17*%
X177975000Y-103925000D03*
X181375000Y-103925000D03*
%TD*%
D16*
%TO.C,D54*%
X176275000Y-110887499D03*
X176275000Y-112762501D03*
%TD*%
D15*
%TO.C,SWe36*%
X172761100Y-86875000D03*
X176161100Y-86875000D03*
%TD*%
D13*
%TO.C,D33*%
X139716799Y-82250000D03*
X141591801Y-82250000D03*
%TD*%
D15*
%TO.C,SWe24*%
X119300000Y-103675000D03*
X122700000Y-103675000D03*
%TD*%
D13*
%TO.C,D12*%
X126073599Y-89550000D03*
X127948601Y-89550000D03*
%TD*%
%TO.C,D46*%
X177712499Y-97975000D03*
X179587501Y-97975000D03*
%TD*%
%TO.C,D37*%
X167105999Y-82250000D03*
X168981001Y-82250000D03*
%TD*%
D15*
%TO.C,SWe18*%
X131380600Y-79750000D03*
X134780600Y-79750000D03*
%TD*%
M02*
